<?xml version="1.0" encoding="utf-8"?>
<!-- Generator: Adobe Illustrator 25.2.0, SVG Export Plug-In . SVG Version: 6.00 Build 0)  -->
<svg version="1.1" id="Calque_1" xmlns="http://www.w3.org/2000/svg" xmlns:xlink="http://www.w3.org/1999/xlink" x="0px" y="0px"
	 viewBox="0 0 1000 1000" style="enable-background:new 0 0 1000 1000;" xml:space="preserve">
<path d="M404.9,309.5c-22.8,19.2-41.1,34.1-58.7,49.6c-19.4,17.1-40.8,29.6-66.8,32.3c-41.8,4.3-78.4-17.6-96.6-57.2
	c-17.7-38.5-12.1-77.8,19.9-106.2C280,159.6,358,91.7,437.3,25.6C479.2-9.4,523.7-8.1,565.5,27C643.1,92.1,720,158.2,796.3,224.8
	c38.1,33.3,40.9,90.3,8.8,131.2c-29.8,38-87.9,47.5-128.8,19.5c-20.1-13.8-38.1-30.6-57.1-46.1c-5.1-4.1-10.3-8.2-19.3-15.5
	c-0.6,12.9-1.4,21.3-1.4,29.7c-0.1,180.3,0,360.6-0.2,540.9c0,34.4-6.6,66.6-34.4,90.3c-31.6,27-67.6,32.3-104.7,15.4
	c-35-15.8-54.2-44.5-54.2-84c-0.1-187.8,0-375.6,0-563.4C404.9,334.2,404.9,325.4,404.9,309.5z"/>
</svg>
