<?xml version="1.0" encoding="utf-8"?>
<!-- Generator: Adobe Illustrator 25.2.0, SVG Export Plug-In . SVG Version: 6.00 Build 0)  -->
<svg version="1.1" id="Calque_1" xmlns="http://www.w3.org/2000/svg" xmlns:xlink="http://www.w3.org/1999/xlink" x="0px" y="0px"
	 viewBox="0 0 1000 1000" style="enable-background:new 0 0 1000 1000;" xml:space="preserve">
<path d="M595.1,690.5c22.8-19.2,41.1-34.1,58.7-49.6c19.4-17.1,40.8-29.6,66.8-32.3c41.8-4.3,78.4,17.6,96.6,57.2
	c17.7,38.5,12.1,77.8-19.9,106.2C720,840.4,642,908.3,562.7,974.4c-41.9,34.9-86.4,33.7-128.2-1.4
	C356.9,907.9,280,841.8,203.7,775.2c-38.1-33.3-40.9-90.3-8.8-131.2c29.8-38,87.9-47.5,128.8-19.5c20.1,13.8,38.1,30.6,57.1,46.1
	c5.1,4.1,10.3,8.2,19.3,15.5c0.6-12.9,1.4-21.3,1.4-29.7c0.1-180.3,0-360.6,0.2-540.9c0-34.4,6.6-66.6,34.4-90.3
	C467.6-2,503.6-7.2,540.8,9.6c35,15.8,54.2,44.5,54.2,84c0.1,187.8,0,375.6,0,563.4C595.1,665.8,595.1,674.6,595.1,690.5z"/>
</svg>
