<svg xmlns="http://www.w3.org/2000/svg" viewBox="0 0 348.35 499.56"><g id="Calque_2" data-name="Calque 2"><g id="Calque_1-2" data-name="Calque 1"><path d="M67.15,0c11.55,3.12,22,8.05,30.59,16.78,30.91,31.3,16.39,79.25-19.21,93.6-3.9,1.57-5.3,3.42-5.3,7.57q.17,98.78.09,197.55c0,1.43.19,2.86.33,4.74,5.25-3.16,9.81-6.58,14.88-8.82,16.08-7.12,32.27-14,48.58-20.6,23.25-9.38,47-17.52,69.88-27.79,29.37-13.2,48.94-36.37,61.25-65.91,1.43-3.42,1-5.23-2.54-7.06-25.12-12.95-36.42-39.88-28.54-67.47C244.37,97.33,269.23,80.1,296,81.81c22.5,1.44,43.79,18.67,50.46,40.81.53,1.74,1.26,3.42,1.9,5.12v23c-2.07,5.06-3.77,10.32-6.28,15.15-7.32,14-18.45,23.64-33.7,28.52a9.9,9.9,0,0,0-5.42,5.54c-15.21,45.53-44.64,78.22-88.76,96.82-30.9,13-62.47,24.49-93.7,36.75a127.46,127.46,0,0,0-43.12,28.13c-3,2.93-3.86,6-4.21,10.09-.84,10,1,16.15,11.74,21.31,20,9.61,29.89,28.18,29.81,50-.1,25.39-18.15,51.41-46.17,55.68C38,503.35,12.92,488.76,3,460.57c-9.18-26.07,3.48-57.11,28.47-68.84,6.89-3.23,8.73-7,8.71-14.23q-.37-129.49-.06-259c0-5-1.27-7.51-6.16-9.56C12.34,99.92-.89,78.08.18,54.4c1.07-23.48,17-44.55,39-51.69,2.68-.87,5.34-1.81,8-2.71ZM57.07,466.92A24.81,24.81,0,1,0,32.4,441.76C32.31,455.87,43.11,466.89,57.07,466.92ZM56.48,31.69A24.7,24.7,0,1,0,81.36,56.18,24.68,24.68,0,0,0,56.48,31.69ZM315.69,139.27A24.68,24.68,0,1,0,291,163.93,24.74,24.74,0,0,0,315.69,139.27Z"/></g></g></svg>