<?xml version="1.0" encoding="utf-8"?>
<!-- Generator: Adobe Illustrator 25.2.0, SVG Export Plug-In . SVG Version: 6.00 Build 0)  -->
<svg version="1.1" id="Calque_1" xmlns="http://www.w3.org/2000/svg" xmlns:xlink="http://www.w3.org/1999/xlink" x="0px" y="0px"
	 viewBox="0 0 1000 1000" style="enable-background:new 0 0 1000 1000;" xml:space="preserve">
<path d="M548.2,997.6c0-5.6,0-9.4,0-13.2c0-25.1-0.1-50.1,0-75.2c0.1-13.9-2.3-12.2,12.3-14.4c39-5.9,76.5-16.5,111.6-34.2
	C793,800,867.7,703.2,893.4,570.4c35-180.8-61.8-361.4-227-436.8c-34.7-15.8-71-26.5-108.7-31.8c-7.7-1.1-9.6-3.8-9.5-11.1
	c0.3-27,0.1-54,0.2-81.1c0-10.3,0.1-10.3,10.2-9.2c208,24,382.5,178.4,427.7,382.2c35.4,159.2,3.2,304.9-99.5,432.5
	C814,905.5,719.5,962.4,606.2,987.4C587.6,991.5,568.7,994.1,548.2,997.6z M272.7,515.7C324.4,567.4,377,620,428.2,671.2
	c98.4-98.4,197.4-197.4,295.4-295.3c-16.1-16-33.3-33.1-50.7-50.3c-80.3,80.3-161.3,161.4-243.2,243.2
	c-36.1-36.1-71.1-71.2-105-105.1C306.7,481.7,289.4,499,272.7,515.7z M249.3,181.6c2.9,3,5.2,2,8.1-0.1c6.5-5,13.1-9.9,19.9-14.5
	c49.5-33.9,104.1-55.1,163.1-64.9c6.6-1.1,8.3-3.5,8.2-9.7c-0.3-28.2-0.1-56.4-0.1-84.6c0-1.9-0.4-3.8-0.7-7.1
	C347.9,11.3,259.5,47.1,181,110.9C204.3,135,226.8,158.3,249.3,181.6z M108.3,184.7C67.1,231.8,30.5,303.4,12.8,374
	c-6.1,24.3-11.9,48.9-12.2,75.1c31.9,0,62.4-0.1,92.8,0.1c6.9,0,6.9-4.2,7.7-9.1c10.4-64.8,34.6-123.8,73.4-176.8
	c2.3-3.1,4.5-6.3,5.2-7.2C155.4,231.8,131.8,208.2,108.3,184.7z M110.2,815.4c22.8-22.4,44.5-43.8,66.3-65.1c4-3.9,4.9-6.8,1.1-11.8
	c-40.8-54.1-66-114.8-76.3-181.7c-1-6.7-3.5-8.2-9.7-8.2c-28.2,0.2-56.3,0.1-84.5,0.1c-1.9,0-3.8,0.3-7.2,0.7
	C11.2,649.6,47.7,738,110.2,815.4z M186.6,891.4c51.9,42.1,109.9,72.9,174.2,91.2c23.9,6.8,48.6,11.2,73.1,16
	c14.2,2.8,14.6,2,14.6-12c0-25.8-0.2-51.6,0.1-77.4c0.1-6.7-1.7-9.5-8.9-10.5c-38.9-5.4-76.4-16.2-111.4-34.1
	c-26-13.3-50.8-28.9-77.5-44.3c-21.8,20.9-45.2,43.3-69.6,66.6C183.7,888.9,185.1,890.2,186.6,891.4z"/>
</svg>
