<?xml version="1.0" encoding="utf-8"?>
<!-- Generator: Adobe Illustrator 25.2.0, SVG Export Plug-In . SVG Version: 6.00 Build 0)  -->
<svg version="1.1" id="Calque_1" xmlns="http://www.w3.org/2000/svg" xmlns:xlink="http://www.w3.org/1999/xlink" x="0px" y="0px"
	 viewBox="0 0 1000 1000" style="enable-background:new 0 0 1000 1000;" xml:space="preserve">
<path d="M531.5,1000.4c-20.8,0-41.7,0-62.5,0c-9.9-1.3-19.9-2.8-29.8-4c-54.8-6.2-107.4-20.8-156.3-45.9
	C123,868.5,29.1,738.8,3.9,560.2C2.6,550.6,1.3,541,0,531.4c0-20.8,0-41.7,0-62.5c0.7-3.2,1.8-6.3,1.9-9.5
	c1.6-27.4,6.3-54.2,13-80.7c24.4-95.8,72.5-177.8,145.1-245C249,51.5,354.4,7.6,475.1,0.5c42.7-2.5,85.3,0.8,127.1,9.8
	c102.4,22.1,190.8,70.2,262,147.3c105.1,113.8,149,248.5,132.3,402.7c-6.8,63.2-25.3,123-56.6,178.1
	c-84,148-210.4,234.8-379.6,258.2C550.8,997.8,541.1,999.1,531.5,1000.4z M804,358.5c-30.3-30.3-61.3-61.4-92.8-93
	C617.8,359,523.7,453,428.9,547.8c-47.6-47.6-94.3-94.3-141.1-141.2c-0.9,0.7-2,1.5-2.9,2.4c-28.6,28.5-57.1,57.1-85.7,85.7
	c-0.7,0.7-1.3,1.4-2.1,2.1c-2.4,2.1-2.7,4.3-0.1,6.5c1.5,1.3,2.7,2.8,4.1,4.2c73.7,73.7,147.4,147.4,221.1,221.1
	c2.2,2.2,4.6,4.3,6.2,5.8C554.2,608.5,679.6,483,804,358.5z"/>
</svg>
