<?xml version="1.0" encoding="utf-8"?>
<!-- Generator: Adobe Illustrator 25.2.0, SVG Export Plug-In . SVG Version: 6.00 Build 0)  -->
<svg version="1.1" id="Calque_1" xmlns="http://www.w3.org/2000/svg" xmlns:xlink="http://www.w3.org/1999/xlink" x="0px" y="0px"
	 viewBox="0 0 1000 1000" style="enable-background:new 0 0 1000 1000;" xml:space="preserve">
<path d="M0,95.6c0.7-2.1,1.7-4.1,2.2-6.2c10-50.6,55.5-89.2,106.5-89.2C291.6,0,474.5,0.1,657.4,0.1c9.1,0,9.2,0.1,9.3,9
	c0.1,30.3,0,60.5,0,90.8c0,13.2-0.5,11.1-11.2,11.1c-176.7,0-353.5,0-530.2,0c-14.2,0-14.2,0-14.2,14.6c0,250.3,0,500.6,0,750.8
	c0,14.3-1.8,12.4,12.4,12.4c250.9,0,501.9,0,752.8,0c14.4,0,12.6,1.8,12.6-12.2c0-139.3,0-278.6,0-417.9c0-2.3,0.3-4.6,0-6.8
	c-0.8-6.1,1.9-7.9,7.7-7.8c19.5,0.3,39.1,0.1,58.6,0.1c12.7,0,25.4,0.1,38.1-0.1c5-0.1,7.3,1.7,6.6,6.8c-0.2,1.3,0,2.6,0,3.9
	c0,144.5-0.2,289,0.1,433.5c0.1,45.2-28.8,90.7-78.1,106.5c-5.8,1.9-11.7,3.4-17.5,5.1c-269.5,0-539.1,0-808.6,0
	c-1.4-0.7-2.8-1.6-4.2-2C45,988,15.8,959.7,3,914.2c-0.9-3.3-2-6.6-3-10C0,634.7,0,365.1,0,95.6z M996.9,167.5
	c-25.1-25.1-50.8-50.7-77.1-76.9C762,248.3,603.3,407.1,444.2,566.2C387,508.9,330,451.8,274.1,395.9c-26.3,26-52.1,51.5-77.5,76.6
	C279,555,361.8,637.8,444.2,720.2C629,535.4,813.7,350.6,996.9,167.5z"/>
</svg>
