<svg xmlns="http://www.w3.org/2000/svg" viewBox="0 0 495.43 495.28"><g id="Calque_2" data-name="Calque 2"><g id="Calque_1-2" data-name="Calque 1"><path d="M495.43,247.74q-.39,82.67-49.86,148.73C416.5,435.23,379,462.92,333.51,479.85A240,240,0,0,1,237.11,495c-55-2.73-104.26-21-146.81-56.36-48.18-40-77.63-91-87.18-152.84-7.36-47.71-1.87-94.17,18.18-138.44,4.38-9.67,9.42-19.07,14.69-28.3,6.68-11.72,20.47-15.4,31.88-9a22.73,22.73,0,0,1,8.43,31.15c-10.6,19.14-20.2,38.65-24.76,60.2C38,265.42,50.46,323.77,91.84,374.8c34.2,42.18,79,66.85,133,72.83,56.57,6.26,107.57-8.69,151.39-45.35,41.18-34.45,65.58-78.56,71.43-132.16,6.31-57.89-9.49-109.59-47.28-153.73C367.48,77.94,325.39,55,275,48a201.3,201.3,0,0,0-72.77,3.29c-13.26,3-25.76-4.07-28.56-16-3.28-14,3.75-25.58,18.1-28.88A247.69,247.69,0,0,1,265.45.65,244.75,244.75,0,0,1,383.68,40.51c33.29,21.74,59.63,50.17,79.4,84.7a243.64,243.64,0,0,1,30.41,92.21C494.73,227.45,494.82,237.63,495.43,247.74ZM337.14,184c-.05-22.31-19.84-42.36-42-42.43q-47.4-.17-94.81,0c-21.28.06-41.86,19.78-42,41.06-.31,53.05-.19,106.11.08,159.17,0,3.17,2.23,7,4.58,9.33,4,4,10.44,3.1,16.4-1.36q29.94-22.41,59.85-44.87c6.42-4.82,10.64-4.86,17.1,0Q286.71,327.63,317,350.4c4.37,3.28,9.08,4.32,14,1.85s6.25-6.64,6.21-12c-.19-26.12-.08-52.23-.09-78.34C337.15,235.94,337.2,210,337.14,184ZM113,44.82c-13.1,0-22.62,9.49-22.67,22.65C90.26,81.2,99.41,90.84,112.64,91s22.92-9.66,22.94-22.91C135.6,54.44,126.27,44.84,113,44.82Z"/></g></g></svg>