<svg xmlns="http://www.w3.org/2000/svg" viewBox="0 0 495.1 495.36"><g id="Calque_2" data-name="Calque 2"><g id="Calque_1-2" data-name="Calque 1"><path d="M495.1,243.57c-.2,64.52-19.55,118-58.37,163.86-39.66,46.89-90.28,75.4-151,84.78-62.76,9.7-121.16-3-174.27-37.74C66.64,425.2,35,385,15.75,335,2.67,301-1.73,265.75.59,229.71c2.59-40,14.78-77.22,35.71-111.47a23.28,23.28,0,0,1,31.43-8.19c10.61,5.91,14.35,19.27,8.88,30.75-6.92,14.53-15.2,28.64-20.15,43.83-16.16,49.56-14.37,98.91,8,146.26C95,395.6,146.09,435.06,216.83,446.45c59.26,9.54,113-5.58,159.27-44.1,41.27-34.35,65.82-78.5,71.4-132.15,6.56-63-12.16-117.83-56.44-163.52-33-34-73.38-53.3-120.18-59.19a195.1,195.1,0,0,0-68.35,3.77c-11.27,2.57-21.14-1.19-26.54-10-8-13-1.19-30.71,13.71-34.36A240.76,240.76,0,0,1,264.87.65,244.49,244.49,0,0,1,345,19.86Q420.89,52.76,462.5,124.43a241.29,241.29,0,0,1,30.92,93.07C494.64,227.54,494.75,237.71,495.1,243.57Zm-134.61-31q-24-24-48-47.94c-9.42-9.4-18.88-18.75-28.19-28.25-3-3.06-5-2.77-7.57.58a37.72,37.72,0,0,0-7.82,21.68c-.43,10.47,3.39,19.46,10.23,27.54-1.29,1.13-2.32,2.19-3.51,3-21.27,15.13-42.58,30.19-63.8,45.39-2.55,1.83-4.51,1.72-7.25.39-18.16-8.78-35.33-7-51.54,5.08-3.53,2.63-3.82,4.43-.53,7.71Q200.23,295.23,247.7,343c4.17,4.18,5,4.17,8.41-.53,11.71-15.88,13.37-32.77,5.24-50.79-.92-2.05-1.29-5.54-.17-7.15,15.09-21.7,30.5-43.17,45.79-64.73,1.66-2.34,3.12-3.12,5.6-.94a32.07,32.07,0,0,0,6.25,4.06c14.65,7.68,34.79,4.13,43.8-7.86C361.94,214.24,361.28,213.32,360.49,212.52ZM112.82,91.07a22.35,22.35,0,0,0,22.71-22.7c.06-13.43-9.37-23.32-22.41-23.5s-22.94,9.76-23,22.95S99.79,91.05,112.82,91.07Zm26.51,270.61c4.59,2,8.89,1.07,12.39-2.4,15.1-14.95,30.09-30,45.18-45,2.21-2.18,1.86-3.89-.2-5.85-2.89-2.75-5.76-5.52-8.45-8.46s-4.78-2.54-7.44.16c-14.48,14.64-29.15,29.1-43.56,43.81-1.91,1.94-2.72,5-4,7.49C133.64,356.33,135.15,359.84,139.33,361.68Z"/></g></g></svg>