<svg xmlns="http://www.w3.org/2000/svg" viewBox="0 0 495.26 495.18"><g id="Calque_2" data-name="Calque 2"><g id="Calque_1-2" data-name="Calque 1"><path d="M0,247.56c0-46.11,12.23-88.69,35.76-128.14,5.5-9.22,15-13.9,24.24-12,11.33,2.29,17.63,8.91,19.36,20.51,1,6.52-2.3,11.82-5,17.4-6.22,13-13.46,25.77-17.85,39.41-15.95,49.62-14.34,99,8.13,146.26C96.06,397,148.39,436.64,221.06,447c57.79,8.2,109.87-7.16,154.93-44.34,38-31.34,61.76-71.59,70.09-120.19,7-40.61,2.65-80.25-14.94-117.89-24.29-52-63.48-88-117.54-107.26-35.91-12.76-72.78-14.53-110-6.19-11.45,2.56-21.05-.51-26.65-8.66C167.83,29.21,174.42,10.69,190,6.88A241,241,0,0,1,265.14.65,245.32,245.32,0,0,1,364.55,29.2c41.8,22.39,74.44,54.3,98.17,95.31a234.89,234.89,0,0,1,30.85,93.09c6.87,63.49-7.11,121.91-44.49,174.18-30.76,43-71.45,72.86-121.24,90.24a240.08,240.08,0,0,1-61.4,12.42,243.86,243.86,0,0,1-135.69-28.57c-41.84-22.32-74.41-54.33-98.1-95.37A241.82,241.82,0,0,1,1.92,277.87C.71,267.84.61,257.67,0,247.56Zm272.56,73.95C315.88,314.08,350,292,375.09,256.05c4.49-6.42,4.71-11.05-.11-16.81-8.19-9.76-16-20.06-25.46-28.5-34.06-30.47-74.32-43.33-119.67-37.91-46.13,5.52-82.23,28.53-109.06,66.26-5,7-5,10.08.09,17.17C152,299.81,194.33,322.19,250.34,324,256.11,323.4,264.41,322.91,272.56,321.51Zm71.17-91.28c4.28,4.14,7.83,9,11.78,13.5,2.21,2.51,2.36,4.77.21,7.52-22.83,29.26-52.37,47.27-89.27,52.11-39.23,5.14-74.63-4.58-105-30.14-8-6.67-14.43-15.08-21.63-22.65-2-2.11-1.64-3.86.06-6.06,22.4-29.16,51.66-46.86,88-52.54,6.54-1,13.22-1.11,19.83-1.63C285.24,190.49,317,204.38,343.73,230.23ZM113.06,44.86A22.35,22.35,0,0,0,90.32,67.53c-.06,13.64,9.69,23.66,22.89,23.53,12.84-.13,22.46-10,22.48-22.93C135.72,54.8,126.07,44.88,113.06,44.86ZM248.48,199c-28.23.28-48.51,21.5-49.16,48.74-.61,26.12,22,48.26,48.76,48.53,26.17.26,48.14-21.79,48.23-48.4C296.39,221.54,274.63,198.7,248.48,199Zm-.11,78.41a29.36,29.36,0,0,1-30-29.92c0-16.53,13.24-29.49,29.83-29.66,15.53-.15,30.45,14.53,29,29.79C277.19,264.48,264.8,277.29,248.37,277.37Zm-26-30.29c0,5,3.94,9.64,8.58,10.12,4.25.44,9.66-2.89,10-7.26.5-7.2,4.28-10.06,10.88-11.22a8.71,8.71,0,0,0,7.4-9.69c-.57-4.95-4.75-8.47-10-8.47C235.49,220.57,222.38,233.55,222.4,247.08Z"/></g></g></svg>