<svg xmlns="http://www.w3.org/2000/svg" viewBox="0 0 495.48 495.36"><g id="Calque_2" data-name="Calque 2"><g id="Calque_1-2" data-name="Calque 1"><path d="M0,247.4c.21-46.14,12.5-88.7,36.05-128.15,5.56-9.31,15.2-13.81,24.81-11.73,11,2.4,18.23,9.58,18.5,21.07.12,5.57-2.71,11.42-5,16.79-5.6,12.94-13,25.25-17.34,38.57-16.27,49.92-14.7,99.57,8,147.19C96.29,397,148.46,436.79,221,446.85c65.16,9,121.91-10.58,168.93-56.85,33.45-32.92,53.28-72.9,57.95-119.62C455,199,430.88,139.66,376.59,92.9c-30.34-26.12-66-40.68-105.66-45.47a193.37,193.37,0,0,0-67.84,3.81c-10,2.35-18.72.22-25.15-7.81a23,23,0,0,1,12.42-36.6A241.61,241.61,0,0,1,265.53.66a245.24,245.24,0,0,1,99.38,28.63c41.78,22.42,74.4,54.35,98.1,95.39a236.4,236.4,0,0,1,30.72,92.62c5,44.95-.61,88.49-19.08,130.14a244.72,244.72,0,0,1-53.32,77c-37.69,36.69-82.57,59.63-134.6,67.66-63.3,9.77-122.4-2.56-175.57-38.2C49.6,412.69,13.33,354.69,2.7,281.13,1.09,270,.86,258.64,0,247.4Zm283.67.79c-.07-19.72-17.24-35-35.23-35.11-19.45-.11-35.7,14.45-35.66,35,0,22.56,19.48,36.71,35.28,34.7C266.74,285,283.73,265.57,283.67,248.19Zm105,.07c.16-17.73-15.72-35.55-35.36-35.23-19.9.31-35.13,17.35-35.44,35-.29,16.12,16.17,37.06,36,34.74C371,284.81,388.52,267.27,388.7,248.26ZM108,247.48c-.27,18.08,16.56,35.84,34.95,35.78,17-.05,34.7-15.33,34.45-35.29-.28-22.05-17.42-36.23-34.49-34.54C123.73,211.71,108.29,229.62,108,247.48Zm5.41-156.43c12.85-.15,22.43-10,22.45-23,0-13.32-9.66-23.23-22.68-23.23S90.5,54.76,90.52,68.07,100.45,91.21,113.44,91.05Z"/></g></g></svg>