<svg xmlns="http://www.w3.org/2000/svg" viewBox="0 0 494.65 495.33"><g id="Calque_2" data-name="Calque 2"><g id="Calque_1-2" data-name="Calque 1"><path d="M494.64,247.82c.28,55.08-16.33,104.73-49.3,148.71C416.27,435.3,378.69,463,333.27,479.91a241.75,241.75,0,0,1-96.4,15.16c-43.51-2-84-14.37-121-37.65Q55.87,419.68,24.72,356A237.59,237.59,0,0,1,1.14,272c-4.36-48,3.75-93.72,25.55-136.84,2.84-5.63,6-11.12,9.26-16.52a23.29,23.29,0,0,1,31.68-8.59c10.59,5.92,14.29,19.26,8.8,30.77-6.92,14.52-15.21,28.64-20.14,43.83-16.1,49.56-14.42,98.94,8,146.24,31.38,66.07,83.64,106,156.35,116,64.75,8.92,121.25-10.49,168.15-56.33,33.82-33.06,53.77-73.28,58.57-120.36C453.87,206.76,435,151.76,390.25,106c-33-33.76-73.33-52.79-119.95-58.58a194.69,194.69,0,0,0-67.85,3.82c-10.89,2.5-20.56-.92-26-9.08C167.67,29,174.28,10.68,189.57,6.92A240.1,240.1,0,0,1,264.73.65a248,248,0,0,1,80.1,19.19A248.22,248.22,0,0,1,481.05,165.15c8.4,23.63,13.27,48,13.58,73.2C494.67,241.51,494.64,244.67,494.64,247.82ZM151.08,150.7a17.58,17.58,0,0,0-9.29,2.52c-6.26,4.22-6.39,12.72-.74,19.79,20.44,25.58,40.55,51.43,61.55,76.54C215.07,264.48,224,280,223,300.31c-.87,18.25-.09,36.57-.24,54.86,0,5.75,1.76,10.45,7.2,12.45s11.07,1.68,15.6-3.13c4.22-4.48,8.67-8.74,13-13.08,8.58-8.53,13.79-18.72,14.5-30.86.55-9.28.91-18.6.72-27.89-.27-12.81,4.17-23.66,12.05-33.47q34.67-43.14,69.2-86.37c3.74-4.66,5.28-9.72,2.73-15.28-2.64-5.72-7.65-7-13.66-7-32.09.15-64.18.07-96.28.07C215.59,150.59,183.34,150.52,151.08,150.7ZM112.63,44.88c-12.84,0-22.53,9.84-22.57,22.78,0,13.4,9.45,23.26,22.49,23.36s22.81-9.79,22.81-23S125.65,44.82,112.63,44.88Z"/></g></g></svg>