<svg xmlns="http://www.w3.org/2000/svg" viewBox="0 0 495.15 496.23"><g id="Calque_2" data-name="Calque 2"><g id="Calque_1-2" data-name="Calque 1"><path d="M495.15,243.7c-.13,65-19.53,118.78-58.6,164.78-41.85,49.27-95.3,78.07-159.57,85.81-60,7.22-115.69-5.69-165.76-39.26C49.63,413.75,12.92,355.77,2.53,282c-7.23-51.36,1-100.56,24.55-147,2.86-5.64,6-11.15,9.28-16.55a23.28,23.28,0,0,1,31.39-8.32c10.62,5.86,14.45,19.29,8.94,30.78-6.62,13.78-14.56,27.14-19.39,41.54-17,50.57-15.59,101,7.42,149.37,31.38,66,83.56,105.82,156.06,115.85,65,9,121.58-10.54,168.54-56.7,33.77-33.19,53.34-73.56,58.4-120.7,3.91-36.51-.92-71.83-16.52-105.3C406.92,113,367.79,76.83,313.79,57.42c-26.58-9.56-54.19-13.34-82.44-10.3-10,1.09-20.07,2.69-30,4.53-12.7,2.35-24.85-4.52-27.7-16.15-3.27-13.36,3.77-25.67,17-28.82A248,248,0,0,1,364.27,29.14c41.83,22.38,74.49,54.33,98.25,95.39a242.5,242.5,0,0,1,31,93.26C494.69,227.84,494.81,238,495.15,243.7ZM226,203.71v6.38q0,69,0,137.93c0,9.92,4.79,16.87,13.5,20.94a23.33,23.33,0,0,0,25.93-4.49c6.21-5.85,7.77-13.35,7.78-21.39q0-66.22,0-132.44v-7.72c2.6,2.08,4,3.14,5.3,4.23,4.65,3.77,9.06,7.89,14,11.23,9.81,6.63,24,4.28,31.1-4.75,7.89-10,7.34-24-1.91-32.15Q293.65,156.81,265,132.74c-10.08-8.44-20.9-8.67-30.93-.27-19.62,16.43-39,33.15-58,50.31-10.43,9.41-8.19,27.37,3.51,35.23,9.95,6.7,21.11,5.51,31.55-3.35l13.63-11.56ZM113,44.94c-12.84,0-22.64,9.78-22.7,22.7-.06,13.68,9.64,23.67,22.85,23.54,12.85-.13,22.43-9.92,22.45-23C135.61,54.85,126,45,113,44.94Z"/></g></g></svg>