<svg xmlns="http://www.w3.org/2000/svg" viewBox="0 0 494.67 496.22"><g id="Calque_2" data-name="Calque 2"><g id="Calque_1-2" data-name="Calque 1"><path d="M494.65,248c.27,60.57-19.2,114.25-58.17,160.34C397,455,346.67,483.41,286.31,493c-61.61,9.73-119.26-2.26-171.87-35.69-46.52-29.55-79.35-70.73-99-122.45C2.57,300.87-1.74,265.69.61,229.76c2.62-39.92,14.73-77,35.57-111.22a23.33,23.33,0,0,1,31.39-8.39C78.18,116,82,129.41,76.51,140.91c-6.62,13.8-14.59,27.16-19.39,41.57C39.85,234.32,41.7,285.72,66.09,335c31.8,64.23,83.5,102.59,154.51,112.83,56.1,8.09,107.22-6.15,151.51-41.41,43.43-34.57,69.31-79.89,75.42-135.54,6.37-58-9.37-109.83-47.1-154.09C367.56,78.22,325.49,55.17,275.07,48a200.67,200.67,0,0,0-73.26,3.31c-13,2.95-25.4-4.08-28.26-15.8-3.42-14,3.53-25.79,17.8-29.1a248.25,248.25,0,0,1,174,23.32A242.84,242.84,0,0,1,431.9,82.42c21.37,24.08,37.81,51,48.61,81.37,8.48,23.84,13.7,48.34,14.13,73.75C494.7,241,494.65,244.53,494.65,248ZM266.38,165.17c1.31,1.23,2.66,2.43,3.93,3.7q21.7,21.74,43.42,43.46c4,4,8.56,7,14.62,6,7.46-1.13,12.5-5.27,14.67-12.52,2.25-7.53-1.3-13.28-6.29-18.35-2.8-2.83-6-5.26-8.8-8.1-9.91-10.06-19.66-20.27-29.58-30.32-12-12.16-24.35-24-36.19-36.38-7-7.33-16.51-9-24.64-2.93-3,2.25-5.29,5.47-8,8.14-10.79,10.59-21.68,21.08-32.42,31.72-13,12.86-25.94,25.73-38.7,38.81-4.55,4.67-7.51,10.31-5.43,17.22s6.5,11,13.55,12.5c6.71,1.43,11.63-1.68,16-6q21.75-21.68,43.41-43.46c1.24-1.24,2.57-2.39,5.09-4.71v7.74q0,69.75,0,139.49c0,16,13.12,19.95,25.14,15.6,6.85-2.47,8.88-8.82,8.87-15.91q-.09-69.74,0-139.49v-5.8Zm92.39,226c7.49,0,14.53-5.3,15.85-11.83,1.9-9.35-1.3-16.34-9.54-19.55A28.76,28.76,0,0,0,354.9,358Q248,357.86,141,357.94c-1.16,0-2.33,0-3.49.05-10.56.75-16.75,7.75-16.33,18.47.34,8.69,7.34,14.67,17.22,14.68H248.09Q303.43,391.14,358.77,391.13Zm-246.09-300c12.94,0,22.64-9.63,22.7-22.62.06-14-9.18-23.6-22.74-23.54-13.12.06-22.4,9.52-22.43,22.85C90.18,81.51,99.38,91.05,112.68,91.09Z"/></g></g></svg>