<svg xmlns="http://www.w3.org/2000/svg" viewBox="0 0 495.14 495.44"><g id="Calque_2" data-name="Calque 2"><g id="Calque_1-2" data-name="Calque 1"><path d="M495.1,237.84C494.93,308.4,475.51,362,436.44,407.9c-41.86,49.18-95.31,77.92-159.58,85.63-60,7.2-115.46-6-165.8-39.14-45.43-29.89-77.35-70.86-96.3-122C2.46,299.26-1.65,265,.58,229.94A237.47,237.47,0,0,1,34.31,122a36,36,0,0,1,11-11.76c8.71-5.51,19.8-3.52,27.06,3.58a23.06,23.06,0,0,1,4.4,26.67C71,152.39,64.44,164,59.41,176.28c-8.51,20.79-12.29,42.64-13,65.16C45.4,275.05,51.94,307,66.94,337a200.25,200.25,0,0,0,78.84,84.52c26.19,15.46,54.42,25,84.83,26.71C317,453.08,381.79,417.29,425,342.7,445.06,308,452.43,269.58,448,230.1c-9.16-82.29-53.15-139.39-129.8-170.82-25.74-10.55-53-14.22-80.66-12.68-12.21.68-24.35,3.15-36.46,5.18-9.76,1.63-17.83-.85-23.87-8.75-9.67-12.66-3.48-32,11.94-35.76a258.26,258.26,0,0,1,34.83-6,241.65,241.65,0,0,1,96.07,9.67A247.87,247.87,0,0,1,482.31,168.56C491,194.26,495.62,220.69,495.1,237.84ZM287.47,211c13.13,0,26.27.24,39.4-.1,13.94-.36,23.28-10.05,23.25-23.4,0-12.75-9.05-22.63-21.58-22.67q-79.8-.24-159.59,0c-15.3.06-25.8,16.24-20.43,30.58,3.8,10.15,12,15.53,24.25,15.56,25.43.08,50.87,0,76.3,0ZM170,224.61A22.42,22.42,0,0,0,148.08,241c-4.35,16,6.55,29.7,24.16,29.75q76.8.23,153.61-.09a29,29,0,0,0,12.84-3.26c9.63-5.05,13.68-15.83,10.8-26.48-2.63-9.73-11.25-16.3-21.92-16.34-26.27-.08-52.53,0-78.8,0S196.24,224.54,170,224.61Zm.19,59.87c-10.55,0-19.35,6.63-22,16.26-4.41,15.75,6.21,29.8,23.43,29.88q77.3.36,154.6,0c14.68,0,24.14-10,23.95-24.21-.17-13.23-9.81-22-24.35-22q-38.4,0-76.8,0C222.69,284.46,196.42,284.42,170.16,284.48ZM112.76,45c-12.82.05-22.58,9.9-22.62,22.82,0,13.37,9.51,23.29,22.53,23.4s22.87-9.85,22.87-23.07S125.77,45,112.76,45Z"/></g></g></svg>