<svg xmlns="http://www.w3.org/2000/svg" viewBox="0 0 495.48 495.34"><g id="Calque_2" data-name="Calque 2"><g id="Calque_1-2" data-name="Calque 1"><path d="M0,247.48c.2-46.13,12.46-88.7,36-128.15,5.47-9.16,15-13.81,24.28-11.92,11.3,2.31,17.61,9,19.28,20.59.93,6.52-2.36,11.81-5,17.38-6.17,12.87-13.32,25.47-17.68,39-16.09,49.77-14.52,99.27,8,146.72,31.33,65.87,83.47,105.7,156,115.78,65.35,9.08,122.23-10.64,169.3-57.13,33.26-32.85,52.55-72.75,57.75-119.23,4.37-39.12-1.13-76.93-19.36-111.91C396.05,96.19,345,58.67,275,48.08c-24.45-3.69-48.71-2.11-72.77,3.3-10.63,2.39-20.38-1.44-25.69-9.87-5.07-8-4.77-19.36,1.95-27a25.76,25.76,0,0,1,12.34-7.64A235.94,235.94,0,0,1,265.44.66a245.13,245.13,0,0,1,99.39,28.59c41.8,22.4,74.42,54.32,98.14,95.35a236.51,236.51,0,0,1,30.75,92.61c5,45-.58,88.5-19,130.15a244.48,244.48,0,0,1-54,77.76c-37.83,36.52-82.77,59.28-134.85,67.14-62.8,9.47-121.4-2.8-174.18-38C49.82,413,13.42,355,2.71,281.21,1.09,270.07.87,258.73,0,247.48ZM192.52,359.16c18.21-30.18,36.13-60.53,54.12-90.83q24.06-40.53,48.11-81.07c8-13.44,16.06-26.82,23.93-40.32a16.11,16.11,0,0,0,2.49-7.41,8.3,8.3,0,0,0-6.47-8.47c-4.43-1.22-8.27.13-10.75,4.22-5.53,9.1-11.05,18.2-16.48,27.34q-52.32,88.14-104.59,176.31c-2.46,4.14-5.07,8.23-7.12,12.58-3,6.41,1.11,12.9,8.93,14.16C187.35,363.52,190.86,361.9,192.52,359.16Zm46.92-54.75c-7.16-.08-11.47,2.93-12,8.44-.6,5.7,2.84,9.21,10.2,10.38a15.74,15.74,0,0,0,3,.28c9.29-.36,18.7.06,27.84-1.29,45.33-6.71,81.06-29.13,107.21-66.79,3.51-5.07,4.15-10.35,0-15.16-9.3-10.81-18.24-22-28.51-31.85-10.59-10.13-23.25-17.73-36.95-23.26-4.92-2-9.89-.21-12,4-2.26,4.46-.67,9.67,4,12.48,2.13,1.28,4.42,2.3,6.66,3.4,18.56,9.13,33.58,22.5,46.52,38.45,2.42,3,2.58,5.41,0,8.29-3.87,4.33-7.24,9.16-11.39,13.19-26.45,25.66-57.89,39.49-95,39.47C245.76,304.41,242.6,304.44,239.44,304.41ZM260,190.86c5.77-.14,9.32-3.41,9.57-8.66s-3.17-9.4-8.72-9.51c-10.92-.22-22-1.09-32.75.45-45.29,6.49-81.08,28.92-107.39,66.39-4.38,6.24-4.39,9.62-.19,15.93,8.25,12.39,17.71,23.87,29.64,32.72a326,326,0,0,0,33.16,21c7,3.95,14.17-.5,14.33-7.91.1-4.91-2.86-7.44-7-9.29-19.6-8.92-35.48-22.48-49.16-39-3.36-4.05-3.16-6.72,0-10.61,27.64-33.92,63.21-51.23,107-51.54C252.32,190.88,256.15,191,260,190.86Zm-146.81-146c-12.82,0-22.6,9.86-22.64,22.77C90.47,81,100,90.92,113,91.06s22.88-9.81,22.89-23S126.18,44.83,113.16,44.86Zm179.43,184.5c-1.55-4.19-6.44-6-10.34-4.88a9.52,9.52,0,0,0-6.92,10.24c.2,1.8.92,3.53,1.27,5.32,1.74,9,1.21,17.59-4.57,25.17a30.72,30.72,0,0,1-21.47,12.23c-5.66.71-9,4.73-8.59,9.71.41,5.37,4.28,8.59,10.29,8.52a25.14,25.14,0,0,0,4-.35c23.71-4.19,40.27-24,41.21-48.36C295.87,241.08,294.69,235.05,292.59,229.36Zm-92.83,23.06a66,66,0,0,0,1.48,7.81c1.82,6.52,6.82,10.07,11.88,8.65,5.67-1.59,7.82-6.61,6.27-13.5-2.46-10.93-.7-21.17,8-28.69,4.45-3.87,10.46-6,15.91-8.65,4.21-2,6.75-5.67,6.1-9.74a9.54,9.54,0,0,0-9.44-7.92,24.46,24.46,0,0,0-6.34,1.06c-19.52,5.77-34,25.38-34.13,47.06A39,39,0,0,0,199.76,252.42Z"/></g></g></svg>