<?xml version="1.0" encoding="utf-8"?>
<!-- Generator: Adobe Illustrator 25.2.0, SVG Export Plug-In . SVG Version: 6.00 Build 0)  -->
<svg version="1.1" id="Calque_1" xmlns="http://www.w3.org/2000/svg" xmlns:xlink="http://www.w3.org/1999/xlink" x="0px" y="0px"
	 viewBox="0 0 1000 1000" style="enable-background:new 0 0 1000 1000;" xml:space="preserve">
<path d="M79.5,0.4c29.6-0.5,50,10.6,67.8,28.5c49,49.4,98.3,98.5,147.5,147.8c63,63.1,125.8,126.2,188.9,189.2
	c18.2,18.2,14.4,18.7,32.5,0.6C627.8,254.6,739.5,142.8,851,30.7c18.2-18.3,38.5-30.7,65.1-30.3c33.7,0.4,59,15.6,74.1,45.2
	c15.2,29.6,12.5,59.2-6.8,86.5c-5.2,7.4-11.8,13.8-18.3,20.2C855.6,261.7,746,371.1,636.4,480.4c-3.7,3.7-7.2,7.6-11.1,11
	c-6.1,5.4-6.7,10.5-0.3,16.1c3.9,3.4,7.4,7.3,11.1,11c111,110.7,221.9,221.5,333,332.1c18.3,18.2,30.6,38.5,30.3,65.1
	c-0.5,34.6-16.5,60-47.1,74.9c-30.8,15-60.7,10.9-87.9-10c-6.7-5.1-12.4-11.4-18.4-17.4C737.1,854.2,628.2,745,519.3,635.9
	c-4.1-4.1-8.4-8.1-12.5-12.4c-4.4-4.7-8.5-5.3-13.2-0.3c-4,4.3-8.3,8.2-12.5,12.4c-110.7,111-221.6,221.8-332.2,332.9
	c-18.2,18.2-38.5,30.7-65.1,30.4c-34.6-0.4-60-16.5-74.9-47c-15-30.7-11-60.7,9.9-87.9c4.7-6.2,10.5-11.5,16-17
	c109.6-109.4,219.2-218.7,328.8-328.1c3.7-3.7,7.2-7.5,11.1-11c6-5.3,7.1-10.3,0.5-16.1c-4.4-3.8-8.3-8.3-12.4-12.4
	c-111-110.7-221.8-221.6-333-332.1C4,121.6-6.1,92,5.1,56.9C15.9,22.7,47.4,0.5,79.5,0.4z"/>
</svg>
