<?xml version="1.0" encoding="utf-8"?>
<!-- Generator: Adobe Illustrator 25.2.0, SVG Export Plug-In . SVG Version: 6.00 Build 0)  -->
<svg version="1.1" id="Calque_1" xmlns="http://www.w3.org/2000/svg" xmlns:xlink="http://www.w3.org/1999/xlink" x="0px" y="0px"
	 viewBox="0 0 1000 1000" style="enable-background:new 0 0 1000 1000;" xml:space="preserve">
<path d="M879.6,1000.2c-39-1.8-69-15.2-94.2-40.5c-77.5-77.8-155.3-155.4-232.9-233c-12.9-12.9-25.8-26-38.9-38.8
	c-13.5-13.3-13.6-13.3-27.6,0.6c-33.8,33.7-67.5,67.5-101.3,101.2C328.3,846,271.8,902.3,215.5,958.8c-19.4,19.4-41.6,33-69.1,38.2
	c-50.2,9.5-100.7-12.3-127.9-56.3c-26.5-42.8-24.3-98,6.1-138C31.3,794,39.2,786,47,778.1c86.4-86.5,172.8-172.9,259.3-259.4
	c3.7-3.7,7.2-7.6,11.1-11.1c6.4-5.8,5.4-11.1-0.4-16.6c-3.8-3.6-7.4-7.4-11.1-11.1C218,392.1,130.3,304.2,42.3,216.6
	c-21.5-21.4-35.7-45.8-40.8-76.2C-9,77.7,37.8,11.9,100.4,2C146-5.2,183.8,8.5,216,40.8c88.1,88.4,176.5,176.6,264.9,264.9
	c21.1,21.1,16.9,21.5,38.7-0.3C607.5,217.6,695.4,129.8,783,41.9C805.4,19.4,831,4.6,863.2,0.7c61-7.5,121.6,35.3,133.8,95.6
	c9.3,46.2-4.2,85.1-36.9,117.8C871.4,303,782.6,391.7,693.8,480.5c-22,22-20.2,17.9,0.6,38.7c86.8,87,173.7,173.9,260.7,260.7
	c21.8,21.7,37.4,46,43.1,77.2c10.5,57.2-27.7,124.3-93.1,138.9C895.6,998,885.9,999.1,879.6,1000.2z"/>
</svg>
