<?xml version="1.0" encoding="utf-8"?>
<!-- Generator: Adobe Illustrator 25.2.0, SVG Export Plug-In . SVG Version: 6.00 Build 0)  -->
<svg version="1.1" id="Calque_1" xmlns="http://www.w3.org/2000/svg" xmlns:xlink="http://www.w3.org/1999/xlink" x="0px" y="0px"
	 viewBox="0 0 1000 1000" style="enable-background:new 0 0 1000 1000;" xml:space="preserve">
<path d="M498.6,0.1C776.4-0.2,999.6,222.5,1000,500c0.4,275.3-224.6,501.3-504,500C224.5,998.7,0.9,774.6,0,501.9
	C-0.9,224.9,223.6,0.2,498.6,0.1z M500.1,398.5c-3.2-3-5.9-5.4-8.5-8c-30.3-30.2-60.4-60.5-90.8-90.6
	c-20.3-20.2-44.5-27.9-72.4-19.8c-52.2,15.2-68.2,79-29.6,119c30,31,60.9,61.1,91.4,91.6c2.8,2.8,5.4,5.8,8.6,9.2
	c-3.3,3.5-6,6.5-8.9,9.3c-30,30-60,59.9-89.9,89.9c-20.2,20.3-27.8,44.5-19.6,72.4c15.4,52.2,79,68,119,29.3
	c29.4-28.4,58-57.7,86.8-86.7c4.4-4.4,7.8-9.7,14-17.4c4.6,6.6,6.6,10.4,9.4,13.3c29.8,30.1,59.7,60.2,89.8,90
	c20.3,20.1,44.6,27.6,72.5,19.2c51.3-15.4,67.7-78.1,30.2-117.5c-30-31.5-61.3-61.8-92-92.6c-3-3-5.9-6.2-9.6-10.2
	c4.9-4.5,8.9-7.8,12.5-11.5c29-28.9,57.9-57.7,86.8-86.8c20.2-20.3,27.9-44.5,19.9-72.4c-15-52.2-79-68.4-118.9-29.9
	c-31,30-61.1,60.9-91.6,91.4C506.5,392.7,503.5,395.4,500.1,398.5z"/>
</svg>
