<?xml version="1.0" encoding="utf-8"?>
<!-- Generator: Adobe Illustrator 25.2.0, SVG Export Plug-In . SVG Version: 6.00 Build 0)  -->
<svg version="1.1" id="Calque_1" xmlns="http://www.w3.org/2000/svg" xmlns:xlink="http://www.w3.org/1999/xlink" x="0px" y="0px"
	 viewBox="0 0 1000 1000" style="enable-background:new 0 0 1000 1000;" xml:space="preserve">
<path d="M499.7,600.6C365.2,735.1,232.5,867.7,101.2,999.1c-33-33-65.8-65.9-99.2-99.3c130.9-130.9,264.1-264.1,397.2-397.1
	C264.7,368.2,131.7,235.2,0,103.5C34.6,69.1,67.4,36.3,101.7,2.2c130.8,130.8,264,264,397.1,397.1
	C632.7,265.4,765.6,132.5,897.3,0.8c34.5,34.6,67.3,67.4,100.7,100.8C867.1,232.5,733.9,365.7,600.8,498.8
	C735.3,633.2,868.3,766.2,1000,897.9c-34.6,34.5-67.4,67.2-101.7,101.4C767.6,868.4,634.3,735.2,499.7,600.6z"/>
</svg>
