<?xml version="1.0" encoding="utf-8"?>
<!-- Generator: Adobe Illustrator 25.2.0, SVG Export Plug-In . SVG Version: 6.00 Build 0)  -->
<svg version="1.1" id="Calque_1" xmlns="http://www.w3.org/2000/svg" xmlns:xlink="http://www.w3.org/1999/xlink" x="0px" y="0px"
	 viewBox="0 0 1000 1000" style="enable-background:new 0 0 1000 1000;" xml:space="preserve">
<path d="M501.1-0.9c103.2,0,206.5-0.1,309.7,0c90.5,0.2,164.5,59.1,185,147.5c2.5,10.9,3.9,22.3,3.9,33.5c0.2,213,0.6,426,0,639
	c-0.3,97-83.9,181.1-180.5,181.4c-213,0.6-426,0.7-639,0C85,1000.2,0.9,916.2,0.5,821c-0.7-213.9-0.7-427.7,0-641.6
	C0.8,83.5,84.9,0.6,180.9-0.9c1.7,0,3.5-0.1,5.2-0.1C291.1-0.9,396.1-0.9,501.1-0.9z M412.9,501.1c-4.7,3.7-8.4,6.1-11.4,9.2
	c-39.3,39.3-78.6,78.6-117.9,118c-17,17.1-16.9,29.2,0.2,46.5c14.4,14.5,28.8,28.9,43.3,43.2c15.6,15.4,28.1,15.4,43.6,0
	c40-39.9,79.8-79.9,119.7-119.8c3-3,6.2-5.8,9.7-9.1c3.6,3.5,6.8,6.3,9.8,9.3c39,39,77.9,78.1,116.9,117.1
	c18.9,18.9,30,18.8,49.2-0.4c13.5-13.5,27-27,40.5-40.6c16.9-17.1,16.9-29.4-0.2-46.5c-39.2-39.4-78.5-78.8-117.9-117.9
	c-3.3-3.2-8.5-4.4-13.5-6.9c47.7-47.7,90.7-90.6,133.6-133.6c14.2-14.3,14.2-27.6,0.4-41.8c-15.2-15.5-30.5-30.9-46-46.1
	c-15.5-15.3-28-15.3-43.6,0.3c-38.4,38.4-76.8,76.8-114.9,115.3c-4.5,4.6-7.9,10.2-12.2,15.7c-5.8-5.5-9-8.4-12-11.4
	c-39.3-39.3-78.5-78.7-117.8-118.1c-17.8-17.8-29.3-17.7-47.3,0.3c-12.9,12.9-25.8,25.8-38.6,38.7c-20.9,20.9-20.9,31.1,0,52
	C327.9,416,369.3,457.5,412.9,501.1z"/>
</svg>
