<?xml version="1.0" encoding="utf-8"?>
<!-- Generator: Adobe Illustrator 25.2.0, SVG Export Plug-In . SVG Version: 6.00 Build 0)  -->
<svg version="1.1" id="Calque_1" xmlns="http://www.w3.org/2000/svg" xmlns:xlink="http://www.w3.org/1999/xlink" x="0px" y="0px"
	 viewBox="0 0 1000 1000" style="enable-background:new 0 0 1000 1000;" xml:space="preserve">
<path d="M500,1001C224.6,1001,0.1,776.1,0,500.2C-0.1,223.8,224.6-1.2,500.6-1c275.2,0.2,499.5,225.3,499.4,501.3
	C999.9,776.1,775.3,1001,500,1001z M326.4,762.9c58.2-58.5,115.9-116.5,174.9-175.8c58,58.3,115.8,116.4,171.8,172.7
	c29.2-29,57.9-57.6,87.7-87.2c-57-57-114.7-114.7-174.1-174c58.2-58,116.4-116,173.1-172.5c-29.1-29.4-57.5-58-87.2-88.1
	c-57.2,57.5-115,115.6-173.9,174.9c-58-58.3-115.7-116.4-171.7-172.7c-29.2,29.1-58,57.7-87.7,87.2c57,57,114.7,114.7,174,174.1
	c-58.2,58-116.4,116-174.3,173.7C267.9,704.3,296.2,732.6,326.4,762.9z"/>
</svg>
