<?xml version="1.0" encoding="utf-8"?>
<!-- Generator: Adobe Illustrator 25.2.0, SVG Export Plug-In . SVG Version: 6.00 Build 0)  -->
<svg version="1.1" id="Calque_1" xmlns="http://www.w3.org/2000/svg" xmlns:xlink="http://www.w3.org/1999/xlink" x="0px" y="0px"
	 viewBox="0 0 1000 1000" style="enable-background:new 0 0 1000 1000;" xml:space="preserve">
<path d="M636.3,153.3c-0.8,3.1-1.7,7-2.8,10.8c-65.2,225.7-130.4,451.4-195.6,677.1c-2,6.9-3.7,13.8-6.2,20.5
	c-4.2,11.3-11.7,15-23.4,12c-8.5-2.1-16.9-4.5-25.3-6.9c-17.8-5-21.9-12.2-16.9-29.7c18.2-62.9,36.4-125.8,54.5-188.7
	c48.4-167.4,96.7-334.7,145.2-502.1c1.2-4.2,2.5-8.4,4.5-12.2c4.1-7.4,10.8-10.4,19-8.4c11.2,2.7,22.3,5.6,33.3,9.1
	C631.4,137.7,636.6,145.1,636.3,153.3z M106,492c51.4-51.4,102.9-102.9,154.3-154.3c16.9-16.9,33.8-33.6,50.5-50.7
	c8.3-8.5,9.7-17,3.2-24.4c-9.7-11-20.2-21.4-31.2-31.1c-6.7-6-13.3-5.2-20.7,0.2c-2.9,2.1-5.4,4.7-7.9,7.2
	c-63,62.9-126,125.9-188.9,188.8C46.2,446.9,26.9,465.9,8,485.2c-10.8,11-10.6,18.5-0.1,29.8c1.6,1.7,3.4,3.4,5,5.1
	C65.2,572.4,117.5,624.7,169.8,677c28.9,29,57.8,58,86.9,86.8c11.8,11.7,19.8,11.8,31.6,0.5c5.8-5.5,11.3-11.2,16.9-16.8
	c17.2-17.3,17.2-22.7-0.2-40.2c-0.3-0.3-0.6-0.6-0.8-0.8C248.8,651.1,193.5,595.7,138,540.4c-13.2-13.2-26.8-25.9-40.5-39.2
	C101.2,497.2,103.5,494.5,106,492z M893.8,508.6c-33.4,33.5-66.9,66.9-100.4,100.3c-34.3,34.3-68.7,68.5-102.8,103
	c-11.2,11.3-11.3,19.5-0.5,30.8c8,8.3,16,16.6,24.6,24.3c8.8,7.9,16.5,7.5,25.5-0.1c1.5-1.3,2.9-2.8,4.3-4.2
	c71.1-71.1,142.3-142.2,213.4-213.3c11.8-11.8,23.8-23.4,35.3-35.6c9.2-9.7,9-17.3,0.2-27.2c-1.8-2.1-3.9-4-5.8-6
	c-63.2-63.2-126.5-126.5-189.7-189.7c-18.3-18.3-36.5-36.6-54.8-54.8c-10.2-10.1-18.1-11.6-27.1-3.7c-10.4,9.2-20.1,19.2-29.4,29.6
	c-6,6.6-5.5,14.8-0.1,21.8c2.2,2.8,4.8,5.3,7.3,7.8c44.4,44.4,88.8,88.9,133.3,133.2c24.8,24.7,49.6,49.2,75.3,74.7
	C898.7,503.4,896.3,506.1,893.8,508.6z"/>
</svg>
