<?xml version="1.0" encoding="utf-8"?>
<!-- Generator: Adobe Illustrator 25.2.0, SVG Export Plug-In . SVG Version: 6.00 Build 0)  -->
<svg version="1.1" id="Calque_1" xmlns="http://www.w3.org/2000/svg" xmlns:xlink="http://www.w3.org/1999/xlink" x="0px" y="0px"
	 viewBox="0 0 1000 1000" style="enable-background:new 0 0 1000 1000;" xml:space="preserve">
<path d="M234.4,515.7c10.1,18.3,20.1,36.6,30.9,56.2c-13,0-24.1,0-35.9,0c-8.8-17.1-17.7-34.5-26.7-52.2c-5.7,0-11,0-17.7,0
	c0,17.4,0,34.4,0,52.2c-11.4,0-21.5,0-32.2,0c0-47.9,0-95.3,0-144.1c5,0,9.7,0,14.4,0c15.5,0.1,31.1-0.6,46.5,0.5
	c44.8,3.2,52.4,48,35.5,71.8C245.2,505.5,239.9,510,234.4,515.7z M185.5,455c0,13.3,0,25.1,0,37.6c7.6,0,14.4,0.3,21.2-0.1
	c10.3-0.6,16.9-7.9,17.1-18.3c0.2-10.5-6-18.2-16.3-19.1C200.5,454.5,193.3,455,185.5,455z M668.5,571.9c34.6,0,68.4,0,102.6,0
	c0-9.7,0-18.7,0-29.1c-23.8,0-46.7,0-69.8,0c0-10.6,0-19.7,0-30.1c16.9,0,33.2,0,50.1,0c0-9.9,0-18.7,0-28.6c-16.8,0-33.1,0-50,0
	c0-9.5,0-17.9,0-27.5c21.8,0,43,0,64.6,0c0-10.2,0-19.2,0-28.5c-32.7,0-64.7,0-97.5,0C668.5,476.8,668.5,524.1,668.5,571.9z
	 M283.5,571.7c34.6,0,68.5,0,102.6,0c0-9.7,0-18.4,0-28.5c-23.7,0-46.6,0-69.9,0c0-10.7,0-20.2,0-31c17.3,0,33.9,0,50.5,0
	c0-9.9,0-18.4,0-28.2c-17.2,0-33.9,0-50.3,0c0-9.8,0-18.2,0-27.6c22,0,43.3,0,64.9,0c0-10,0-19,0-28.2c-32.9,0-64.9,0-97.7,0
	C283.5,476.8,283.5,524.2,283.5,571.7z M538.2,572.1c-12.8,0-23.8,0-35.8,0c-3.6-10.4-7.3-21-11.1-32c-16.6,0-33,0-50.7,0
	c-3.7,10.3-7.6,21.2-11.4,32c-11.1,0-21.7,0-34.2,0c18.1-48.5,35.8-95.9,53.7-143.7c12.4,0,24.3,0,36.9,0
	C503,475.8,520.3,523.1,538.2,572.1z M467.2,463.9c-0.9-0.2-1.7-0.3-2.6-0.5c-4.7,16.4-11.5,32.3-15.3,49.5c11.9,0,22.4,0,33.9,0
	C477.7,496.1,472.4,480,467.2,463.9z M48.3,428.5c-33,12-49.6,42.1-48.2,75.4c1.5,36.7,24.1,63.4,57.2,70.5
	c30.4,6.5,65.9-6.8,78.3-29.7c-6.9-6.4-13.9-12.8-20.9-19.2c-25.3,22.4-50.7,24.8-68.1,7c-16.2-16.7-16.3-48.9,0.1-66
	c6.9-7.2,15.4-11,25.5-12c17.5-1.8,30.3,6.3,41.5,19.8c7.1-7.7,13.7-14.7,20.8-22.4C116.6,424.6,77.2,418,48.3,428.5z M570.3,571.8
	c11.4,0,21.8,0,33.1,0c0-38.6,0-76.3,0-115.1c15.5,0,30.2,0,45,0c0-10.1,0-19.1,0-28.2c-42.1,0-83.3,0-124.8,0c0,9.7,0,18.7,0,28.4
	c8,0,15.2,0,22.4,0c7.5,0,15.1,0,24.3,0C570.3,496.1,570.3,533.9,570.3,571.8z M990.6,438.7c-15.6-16.6-47.4-18.5-66.7-9.3
	c-13.8,6.5-21.2,17.7-22.1,32.4c-0.9,14.4,5.2,26.4,17.6,34c6.6,4,14.4,6.3,21.8,9c8.1,2.9,16.5,4.9,24.4,8.1
	c9.8,4,13.7,11.9,12.7,22.4c-0.9,9.5-6,16.2-16,19.2c-16.9,5.2-31.9,1.1-45.2-10.2c-2.6-2.2-5-4.5-7.8-7c-5,4.6-9.5,8.7-13.9,12.8
	c14.6,22.4,55.1,35.1,84,18c13.5-8,20.7-20.2,20.7-35.8c0-16.4-7.2-29.4-22.1-37c-6.4-3.2-13.5-5.1-20.3-7.4
	c-7.5-2.5-15.2-4.4-22.5-7.5c-8.3-3.6-12.6-10.2-11.5-19.8c1-8.8,6.5-13.5,14.1-16.1c13.9-4.7,26.5-1.4,38,7c2.1,1.5,4,3.3,6.2,5.2
	c4.6-4.2,8.6-7.9,13.4-12.3C993.1,441.9,992,440.2,990.6,438.7z M830.8,576.2c21,0.6,35.9-7.4,43.2-25.3c2.9-7.1,3.9-15.3,4-23.1
	c0.4-30.3,0.2-60.6,0.2-91c0-2.7-0.4-5.3-0.6-8.5c-6.9,0-13.3,0-20.9,0c0,4.6,0,8.7,0,12.8c-0.1,30,0.4,60-0.4,89.9
	c-0.5,20.3-15.5,30.1-34.9,23.5c-6.3-2.2-11.8-6.6-18.6-10.5c-4,3.5-8.5,7.5-13.5,11.9C800.6,570.1,814.5,575.7,830.8,576.2z"/>
</svg>
