<?xml version="1.0" encoding="utf-8"?>
<!-- Generator: Adobe Illustrator 25.2.0, SVG Export Plug-In . SVG Version: 6.00 Build 0)  -->
<svg version="1.1" id="Calque_1" xmlns="http://www.w3.org/2000/svg" xmlns:xlink="http://www.w3.org/1999/xlink" x="0px" y="0px"
	 viewBox="0 0 1000 1000" style="enable-background:new 0 0 1000 1000;" xml:space="preserve">
<path d="M583.7,847.9c0,51.6,0,101.5,0,152.1c-31.3,0-61.5,0-93.2,0c0-49.3,0-98.7,0-149.1c-24.5,0-47.6,0-72.3,0
	c0,49,0,98.4,0,148.7c-32,0-62.5,0-94.5,0c0-50.2,0-100.4,0-152.2c-62.4,0-123.3,0-186.2,0c3.4-21.2,6.3-40.5,9.5-59.9
	c2.3-13.8,5.5-27.6,7-41.5c0.9-8.3,4.6-10,11.9-9.9c18,0.3,36.1,0.4,54.1,0c26.2-0.6,37.5-12.3,37.5-38.4c0-133.1,0-266.1,0-399.2
	c0-26.4-13.8-42.8-39.8-47.3c-6.9-1.2-14-1.6-21-1.7c-18-0.3-36.1-0.2-54.1-0.2c-0.8,0-1.7-0.4-3.4-0.8c0-32,0-64.3,0-98.1
	c60.7,0,121.6,0,183.8,0c0-50.9,0-100.3,0-150.5C355,0,385.5,0,417,0c0,48.5,0,96.7,0,145.9c24.5,0,47.9,0,72.6,0c0-48.9,0-97,0-146
	c31.8,0,62.3,0,94.4,0c0,7.7,0,15.1,0,22.4c0,37.8,0.4,75.5-0.2,113.3c-0.2,11.4,2.4,15.8,14.8,16.9c39.5,3.6,78,11.6,114.9,27.1
	c85.1,35.7,105.6,112.8,91.6,187.3c-7.4,39.3-30.2,68.4-64.4,88.9c-2.3,1.3-4.4,2.9-6.6,4.3c-0.3,0.2-0.5,0.7-1.4,2.3
	c8.2,2.8,16.1,5.4,24,8.3c57,20.3,107,64,105.8,148.2c-0.5,37.3-4.1,73.5-19.4,107.8c-22.7,50.9-63.3,81.9-115.3,96.6
	c-36.1,10.3-73.8,14.9-110.9,21.6C606.6,846.8,596,846.9,583.7,847.9z M419.5,738.4c40.6-1.5,79.7-1.6,118.6-4.8
	c31.9-2.7,63.4-8.9,92.4-24.1c31.9-16.8,48.3-42.8,46.7-78.7c-1.5-34.9-20.4-58.8-51.4-73.5c-28.5-13.5-58.9-20.7-90.3-21.7
	c-38.4-1.2-76.9-0.3-116-0.3C419.5,602.1,419.5,668.6,419.5,738.4z M419.4,257c0,62,0,121.9,0,181.8c35.7,8.2,132.3-1.6,163.8-16.4
	c36.2-17,53.3-42.9,51.6-77.9c-1.7-34.8-23-61.4-59.3-74.2C525,252.4,472.8,255.4,419.4,257z"/>
</svg>
