<?xml version="1.0" encoding="utf-8"?>
<!-- Generator: Adobe Illustrator 25.2.0, SVG Export Plug-In . SVG Version: 6.00 Build 0)  -->
<svg version="1.1" id="Calque_1" xmlns="http://www.w3.org/2000/svg" xmlns:xlink="http://www.w3.org/1999/xlink" x="0px" y="0px"
	 viewBox="0 0 1000 1000" style="enable-background:new 0 0 1000 1000;" xml:space="preserve">
<path d="M271.1,254.7c0-63.7-0.1-127.4,0.1-191c0.1-30.4,19.7-55,49-62.2c5.5-1.3,11.3-1.4,17-1.4C421.4,0,505.8,0,590.1,0
	c129.6,0.1,245.1,87.7,280.5,212.6c46.5,164.1-57.4,335.1-224.5,368.3c-19.2,3.8-39.2,5.5-58.8,5.7c-58.4,0.7-116.8,0.2-175.2,0.3
	c-12.8,0-12.9,0.1-12.9,12.9c0,26.8,0,53.6,0,80.4c0,12.8,0.1,12.9,12.9,12.9c71.1,0,142.3-0.1,213.4,0.1
	c30.5,0.1,54.9,19.4,62.5,48.7c9.4,36.5-17.7,74.9-55.4,77.1c-17.9,1.1-36,0.6-54,0.6c-55.8,0.1-111.6,0-167.3,0
	c-13.6,0-13.6,0.1-13.7,14c-0.2,36,0.4,72-0.6,108c-0.7,27-21.1,50.2-47.2,56.5c-40.1,9.6-78-19.6-78.6-60.9
	c-0.4-34.7-0.1-69.4-0.1-104.1c0-13.4-0.1-13.4-13.9-13.5c-26.8-0.1-53.6,0.5-80.4-0.6c-31.8-1.2-57.5-28.3-58.5-60.2
	c-1.2-35.6,26.9-65.2,62.9-65.7c26.3-0.4,52.7,0,79.1-0.1c10.6,0,10.8-0.2,10.8-10.9c0.1-28.5-0.2-57.1,0.2-85.6
	c0.1-7.4-2.2-9.9-9.7-9.8c-26.8,0.4-53.6,0.4-80.4,0.1c-27.9-0.3-52.3-18.8-60.1-44.9c-8-26.7,1.9-54.8,25.1-70.6
	c9.6-6.6,20.2-10.5,32-10.6c25.9-0.1,51.8-0.2,77.7-0.3c15.2-0.1,15.2-0.1,15.2-14.8C271.1,382.1,271.1,318.4,271.1,254.7z
	 M399.2,292.7c0,50.9,0,101.9,0,152.8c0,13.2,0.1,13.3,12.5,13.3c60.2,0,120.3,0.5,180.5-0.2c96.3-1.1,170.6-85.9,161.9-182
	c-6.7-74.1-69.1-149.2-165-150.5c-59.3-0.8-118.6-0.2-177.9-0.1c-11.9,0-12,0.1-12.1,12.5C399.1,190,399.2,241.4,399.2,292.7z"/>
</svg>
