<?xml version="1.0" encoding="utf-8"?>
<!-- Generator: Adobe Illustrator 25.2.0, SVG Export Plug-In . SVG Version: 6.00 Build 0)  -->
<svg version="1.1" id="Calque_1" xmlns="http://www.w3.org/2000/svg" xmlns:xlink="http://www.w3.org/1999/xlink" x="0px" y="0px"
	 viewBox="0 0 1000 1000" style="enable-background:new 0 0 1000 1000;" xml:space="preserve">
<path d="M500.3,0c275.9,0.3,501.9,226.1,499.3,503.2c-2.7,283.8-230.4,496-498.9,496.8C222.9,1000.8-2.7,774.8,0.4,496.1
	C3.6,210.6,233.7,1.5,500.3,0z M456.4,265.2c-37.4-9.2-73.4-18-110.2-27.1c-4.9,19.6-9.6,38.2-14.4,57.4c14.6,3.9,28.4,7,41.9,11.2
	c19.3,6,26.4,19,21.6,38.4c-19.2,77.3-38.5,154.5-57.8,231.8c-4.8,19.1-13.6,24.3-32.7,19.7c-11.6-2.8-23.1-5.6-35-8.5
	c-9.2,21-17.9,40.9-26.9,61.6c37,9.4,72.8,18.5,109.7,27.9c-7.6,30.9-15,60.6-22.5,91.2c18.3,4.5,35.9,8.9,54.1,13.3
	c7.8-30.7,15.2-60,22.8-89.9c15.3,4,29.2,7.6,44,11.5c-7,30.1-13.9,59.5-20.9,89.4c18.4,4.6,35.8,9,54,13.6
	c4-15.7,7.9-30.8,11.7-45.8c3.8-14.9,7.4-29.9,10.8-43.4c26.5,2.1,51.2,5.6,75.9,5.8c35.8,0.3,68.9-8.7,93.5-37.6
	c13.9-16.3,22-35.4,27.8-55.7c14.6-51.1-0.2-88.2-45.8-115.8c-2.2-1.3-4.2-3-7.4-5.2c3.1-1,4.7-1.7,6.3-2.2
	c61.5-15.1,81.8-104.7,46.6-146.5c-16.4-19.5-36.8-33-59.6-43.4c-10.9-5-22-9.4-33.8-14.3c7.4-29.7,14.6-59.1,22.1-89
	c-18.4-4.6-35.7-9-54-13.6c-7.3,29.4-14.5,58.1-21.9,87.6c-15.1-3.6-29.4-6.9-44.7-10.6c7.3-29.9,14.3-58.9,21.5-88.5
	c-18.8-4.6-36.1-8.9-54.1-13.3C471.4,205.4,464.1,234.5,456.4,265.2z M542.2,644.6c27.5-2.2,46.2-16.1,52.5-38.9
	c6.4-23.3-1.8-44.2-25.2-60.1c-9.9-6.7-20.6-12.9-31.8-16.7c-26.6-9-53.7-16.4-81.4-24.7c-10.6,42.4-20.5,82.1-30.3,121.6
	C455,637.8,512.4,647,542.2,644.6z M564.5,465.5c29.8-2.7,47.6-20.5,49.2-48.6c1.1-20.8-9.8-35-26.1-45.6
	c-27.2-17.7-58.4-23.8-90.5-30.3c-9.2,36.7-18.1,72.6-27.4,109.9C501.5,459.9,532.1,468.5,564.5,465.5z"/>
</svg>
