<?xml version="1.0" encoding="utf-8"?>
<!-- Generator: Adobe Illustrator 25.2.0, SVG Export Plug-In . SVG Version: 6.00 Build 0)  -->
<svg version="1.1" id="Calque_1" xmlns="http://www.w3.org/2000/svg" xmlns:xlink="http://www.w3.org/1999/xlink" x="0px" y="0px"
	 viewBox="0 0 1000 1000" style="enable-background:new 0 0 1000 1000;" xml:space="preserve">
<path d="M194.2,509.1C296.5,339.3,398.2,170.6,501,0c102.8,170.5,204.5,339.4,306.7,509c-2.7,1.9-4.9,3.7-7.4,5.1
	c-96.5,57-193,113.9-289.3,171.2c-7.5,4.5-12.7,4.3-20.1-0.1c-96-57.1-192.1-113.9-288.2-170.7C200.1,513,197.6,511.3,194.2,509.1z
	 M192.3,571.6c101.1,142.5,202.2,285,303.9,428.4c102.2-144,203.3-286.3,304.4-428.7c-5.6,0.7-9.5,2.8-13.3,5.1
	c-93.9,55.4-187.9,110.7-281.7,166.3c-6.4,3.8-11.1,4.5-18,0.4c-72.4-43.2-145.1-85.9-217.7-128.7c-25.3-15-50.7-29.9-76-44.9
	C193.4,570.2,192.8,570.9,192.3,571.6z"/>
</svg>
