<?xml version="1.0" encoding="utf-8"?>
<!-- Generator: Adobe Illustrator 25.2.0, SVG Export Plug-In . SVG Version: 6.00 Build 0)  -->
<svg version="1.1" id="Calque_1" xmlns="http://www.w3.org/2000/svg" xmlns:xlink="http://www.w3.org/1999/xlink" x="0px" y="0px"
	 viewBox="0 0 1000 1000" style="enable-background:new 0 0 1000 1000;" xml:space="preserve">
<path d="M501.1,0c143.1,0,286.2,0,429.3,0c19.2,0,18.5,0,16.4,19.4c-4.6,43.6-8.3,87.3-12.4,131c-4.3,46.5-8.6,93.1-12.9,139.6
	c-4.6,48.9-9.3,97.9-13.9,146.8c-5.5,58.6-11,117.3-16.4,175.9c-4.4,47.3-8.7,94.7-13,142c-4.2,46.5-8.5,93-12.5,139.6
	c-0.8,9.2-6.8,12-14.4,14c-40.9,10.9-81.9,22-122.8,33c-70,18.9-140,38-210.2,56.3c-9.8,2.5-21.3,3.5-30.9,1
	c-111.1-29.3-221.9-59.6-333-89c-13.5-3.6-17.6-10.1-18.6-23.6c-3.7-49.4-8.8-98.7-13.4-148.1c-4.3-46.5-8.7-93-13-139.5
	c-5.5-59.1-11.1-118.1-16.5-177.2C87.7,364,82.7,307,77.4,249.9c-5.3-57.4-10.8-114.9-16.3-172.3c-2.1-22.2-4.4-44.5-7-66.7
	c-0.8-7.3,1.6-10.9,9.1-10.9c4.1,0,8.2-0.1,12.2-0.1C217.4,0,359.2,0,501.1,0z M513.1,293.5c0.1,1,0.3,2,0.4,3.1
	c-31.5,13.1-62.9,26.3-94.4,39.4c-54.9,22.8-109.8,45.7-164.8,68.3c-7.9,3.2-10.3,8.2-9.6,16c2.4,25.5,5.5,50.9,6.4,76.5
	c0.5,14.1,6.5,16.2,18.8,16.2c116.6-0.3,233.2-0.1,349.8,0c15.8,0,17.1,0.8,16.2,16.7c-2.1,38.1-5.1,76.2-6.9,114.3
	c-0.5,10.9-4.4,15.8-14.8,18.5c-35,9.3-69.8,19.5-104.8,29.2c-4.6,1.3-9.9,2.3-14.3,1.3c-36.5-8.7-72.9-17.7-109-27.5
	c-4.1-1.1-9.1-7.3-9.6-11.6c-2.6-21.4-4.3-42.9-5.3-64.4c-0.4-9.4-3.7-13-13.1-12.8c-28.5,0.4-57.1,0.3-85.6,0
	c-8.7-0.1-12.3,1.8-11.3,11.7c4.6,47.3,8.7,94.7,12.3,142c0.7,9.1,3.7,13.6,12.7,16.1c68.5,19.7,136.9,40,205.4,59.8
	c5.2,1.5,11.6,2.1,16.7,0.6c69-19.6,137.8-39.7,206.7-59.5c7.1-2.1,11.1-5.6,11.7-13.4c1.8-20.2,4.3-40.4,6.1-60.6
	c7.4-83.3,14.6-166.7,22.1-250.1c0.9-10-1.3-14.9-12.8-14.9c-78.3,0.4-156.5,0.4-234.8,0.4c-2.1,0-4.2-0.6-6.3-0.9
	c11-7.3,22.3-12.4,33.7-17.3c72.7-30.9,145.4-61.9,218.2-92.6c7.9-3.4,12.3-8,13.2-16.9c2.4-25.5,5.7-50.9,8.3-76.3
	c1.8-17.3,0.6-18.4-17.5-18.4c-173.3,0-346.5,0-519.8,0c-4.8,0-9.5,0.5-15.6,0.8c0.5,6.3,0.8,11.5,1.4,16.6
	c3,23.8,6.1,47.6,9.1,71.3c2.2,17.6,2.2,17.7,20,17.7c84.4,0,168.8-0.1,253.1-0.1C507.8,292.8,510.5,293.3,513.1,293.5z"/>
</svg>
