<?xml version="1.0" encoding="utf-8"?>
<!-- Generator: Adobe Illustrator 25.2.0, SVG Export Plug-In . SVG Version: 6.00 Build 0)  -->
<svg version="1.1" id="Calque_1" xmlns="http://www.w3.org/2000/svg" xmlns:xlink="http://www.w3.org/1999/xlink" x="0px" y="0px"
	 viewBox="0 0 1000 1000" style="enable-background:new 0 0 1000 1000;" xml:space="preserve">
<path d="M376.6,500.3c0-71,52.4-123.6,123.2-123.5c70.4,0.1,122.5,53,122.4,124.4c-0.1,68.9-53.9,123.5-122.3,124.1
	C431.2,625.7,376.6,570.4,376.6,500.3z M622.2,122.3C622.2,51.2,570.2-0.1,498.3,0c-70.7,0.1-121.9,52.5-121.7,124.5
	c0.2,69.2,53.7,122.3,123,122.1C569.7,246.4,622.3,193.1,622.2,122.3z M375.7,881c1.9,58.8,55.6,121.6,129,119
	c57.9-2.1,122-55,118.1-129.5c-3.4-65.6-56.6-118.6-124.2-118C431,750.9,373.5,811.7,375.7,881z"/>
</svg>
