<svg xmlns="http://www.w3.org/2000/svg" viewBox="0 0 253.58 284.72"><g id="Calque_2" data-name="Calque 2"><g id="Calque_1-2" data-name="Calque 1"><path d="M10.53,284.72c-.88-.75-1.71-1.57-2.64-2.24-7-5.06-9.32-11.52-7.06-19.6,1.54-5.49,8.26-10.4,15.3-11.07,1.81-.18,3.65-.11,5.47-.11,70.22,0,140.43.08,210.65-.11,9.07,0,16.21,2.63,21.33,10.21v12.95l-10,10ZM144.05,157.49q0-27.9,0-55.79c0-28.39,0-56.78,0-85.17,0-6.42-2.49-12-8.57-14.58-6.27-2.61-13.09-3-19,1.3-4.91,3.58-6.38,8.93-6.38,14.93q.12,69.24,0,138.47v6.12a12.79,12.79,0,0,1-5.17-3.37q-21-21-41.91-41.9a41.15,41.15,0,0,0-5.22-4.58,16.51,16.51,0,0,0-21.67,2.38c-5.61,6.4-5.58,16.69.38,22.68Q76,177.69,115.74,217.22a15.79,15.79,0,0,0,22.78-.11q39.71-39.53,79.22-79.24c5-5,5.8-13.82,2.18-19.85-6-10-18.17-11-27.14-2.16C178.14,130.33,163.66,145,149.1,159.5c-1.24,1.24-2.56,2.38-4.78,4.43C144.19,161,144.05,159.22,144.05,157.49Z"/></g></g></svg>