<?xml version="1.0" encoding="utf-8"?>
<!-- Generator: Adobe Illustrator 25.2.0, SVG Export Plug-In . SVG Version: 6.00 Build 0)  -->
<svg version="1.1" id="Calque_1" xmlns="http://www.w3.org/2000/svg" xmlns:xlink="http://www.w3.org/1999/xlink" x="0px" y="0px"
	 viewBox="0 0 1000 1000" style="enable-background:new 0 0 1000 1000;" xml:space="preserve">
<path d="M0,456.8c0-24.5-0.1-49,0-73.6c0.1-11.7,0.4-12,12.2-12.1c32.1-0.1,64.3-0.1,96.4,0c11,0,11,0.2,11.2,11.5
	c0.1,4.6,0.1,9.3,0,14c-0.2,10.9-0.3,11-11.7,11.1c-19,0.1-38.1,0-57.1,0.1c-9.5,0.1-9.7,0.2-9.7,10c0.2,22.9-2.8,19.5,19.2,19.8
	c9.7,0.1,19.5-0.1,29.2,0c12.3,0.1,12.4,0.3,12.5,13.1c0,3.8,0.1,7.6,0,11.4c-0.2,11.4-0.2,11.5-11.2,11.6
	c-13.1,0.1-26.2,0-39.3,0.1c-10.2,0.1-10.2,0.2-10.4,10.6c-0.1,5.1,0.3,10.2-0.1,15.2c-0.5,6.8,2.4,8.7,8.9,8.6
	c19.9-0.3,39.7-0.1,59.6-0.1c16.8,0,16.7,0,16.9,16.7c0.3,24.4-1.7,19.8-20,19.9c-30.9,0.2-61.7,0.1-92.6,0
	c-13.8,0-14-0.3-14.1-14.4C0,505.8,0,481.3,0,456.8z M467,529c0,15.7,0.1,15.8,15.3,15.8c29.2,0,58.4,0.3,87.5-0.1
	c24.8-0.3,24.2,5.5,23.9-24.9c-0.1-10.9-1-11.6-11.6-11.7c-21.6-0.1-43.1-0.2-64.7,0.1c-6.3,0.1-9.6-1.6-9-8.5c0.4-4.6,0-9.3,0.1-14
	c0.1-11.9,0.1-12,11.6-12c13.1-0.1,26.2,0.1,39.3-0.1c9.5-0.1,9.7-0.5,10-10.2c0.1-5.1,0.1-10.2,0-15.2c-0.3-9.7-0.7-10.4-9.9-10.6
	c-10.1-0.2-20.3,0.1-30.5-0.1c-23.6-0.4-20.4,3.9-20.5-20.9c-0.1-8.6,0.3-8.8,9.6-8.9c14.8-0.1,29.6,0.1,44.4-0.1
	c28.5-0.4,24.1,4.6,24.4-25c0.1-11.3-0.2-11.5-11.2-11.5c-32.1-0.1-64.3-0.1-96.4,0c-11.9,0-12.3,0.4-12.4,12
	c-0.1,24.5,0,49.1,0,73.6C467,480.8,467,504.9,467,529z M214,371.1c-16.7,0.1-14.2-1.3-19.8,13.5c-13.5,35.9-27,71.9-40.4,107.8
	c-5.2,13.8-10.5,27.6-15.5,41.5c-3.2,8.9-2,10.6,7.1,10.8c7.6,0.2,15.2-0.3,22.8,0.2c7.3,0.5,10.8-2.8,12.6-9.4
	c2.1-7.3,5.2-14.3,7.1-21.6c1.6-6.1,5.2-8,11-7.9c14.4,0.2,28.8,0.3,43.1,0c5.6-0.1,8.4,2.1,10,7.3c2.6,8.5,5.8,16.7,8.4,25.2
	c1.3,4.3,3.8,6.3,8.2,6.3c10.1-0.1,20.3,0.2,30.4-0.1c6.3-0.2,7.4-2,5.7-8c-0.8-2.8-1.9-5.6-3-8.3c-16.6-45.1-33.1-90.3-49.9-135.4
	c-9.8-26.4-3.9-21.2-30.5-21.8C219.1,371.1,216.6,371.1,214,371.1z M220.2,414.2c2.5,7.8,4.2,13.1,6,18.4
	c3.5,10.8,6.9,21.6,10.7,32.2c1.9,5.4,1,7.9-5.1,7.9c-9.6-0.1-19.2,0-30.8,0C207.4,452.8,213.3,434.9,220.2,414.2z M349.7,373.6
	c-19.7,8.4-29.7,24.9-30,46c-0.3,20.5,10.1,35.3,28.4,44.2c6.8,3.3,14.2,5.2,21.3,7.8c8.3,3,16.7,5.8,24.8,9.3c5.8,2.5,9.1,7.2,9,14
	c-0.2,6.9-4.4,10.9-9.9,13.5c-3.3,1.6-7.2,2.3-10.9,2.7c-15.8,1.5-28.9-4.6-40.2-15.1c-4.3-4-7.6-4.5-11.5,0.2
	c-4.6,5.5-9.8,10.5-14.4,16c-6.3,7.5-6.2,7.8,1,14.2c14.6,13.2,32.2,19.4,51.5,22c22,2.9,42-1.7,59.7-15c27.2-20.4,24.3-63,0.6-80.5
	c-10.8-8-23.1-11.9-35.6-15.7c-6.8-2-13.7-4.2-20.1-7.2c-8.4-3.9-11.1-8.8-9.9-15.7c1-5.8,6.9-10.7,14.9-11.7
	c8.9-1.1,17.6-0.4,25.9,3.8c5.8,3,12.6,8.5,17.6,7.4c5.5-1.2,9.5-8.9,14.1-13.8c0.3-0.3,0.6-0.6,0.9-0.9c7.3-8.2,7.2-10-1.8-16.8
	c-15.1-11.5-32.5-15.5-56.7-16.4C372.2,367.3,360.3,369,349.7,373.6z M907,374c-33.1,15.9-35.8,59.5-4.9,79.4
	c9.3,6,20.8,8.7,31.5,12.6c7.9,2.9,16.2,4.8,23.9,8.2c10.9,4.8,15.5,13.7,14.4,25.6c-1.1,11-7.4,17.8-17.4,21.1
	c-19.7,6.4-37.8,2.7-52.9-11.3c-10.6-9.8-9.2-10.6-20.9,0.3c-0.9,0.9-1.8,1.9-2.8,2.6c-5.1,3.8-4.2,7.6-0.3,11.5
	c24,24.5,64.2,33.5,95.5,16.4c17.3-9.5,27.1-24.6,26.9-44.3c-0.2-19.9-9.2-35.8-27.7-45c-5.6-2.8-11.7-4.7-17.7-6.7
	c-10.4-3.4-21.2-5.9-31.2-10.1c-11.9-4.9-15.7-12.6-14.1-24c1.3-9.4,10.1-16.7,21.6-18c14.9-1.8,28.8,0.6,40.2,11
	c4.4,4,7.7,4.5,11.7,0c0.8-0.9,1.8-1.7,2.8-2.6c9.6-8.9,9.5-11.1-0.9-19.5c-13-10.6-28.4-14.2-50.1-15.3
	C928.5,367.5,917,369.2,907,374z M616.1,532.9c0,11.7,0.2,11.8,12.2,11.9c28.7,0.1,57.5,0.2,86.2,0c28.3-0.2,24.4,4.3,24.6-25
	c0.1-11.5-0.2-11.6-12.4-11.7c-19-0.1-38,0-57.1,0c-12,0-12-0.1-12.1-11.6c-0.1-14,0-27.9,0-41.9c0-22.8,0-45.7,0-68.5
	c0-15-0.1-15-15.6-15.1c-5.1,0-10.1-0.1-15.2,0c-10.4,0.3-10.6,0.3-10.6,10.8c-0.1,25.4,0,50.7,0,76.1
	C616.1,483,616,507.9,616.1,532.9z M827.1,437.7c0,19.4,0.4,38.9-0.1,58.3c-0.4,17.5-12,27.8-29.5,27.4c-9.7-0.2-18.3-3.6-24.9-10.6
	c-4.5-4.7-8.4-4.8-12.8-0.3c-1.8,1.8-3.9,3.3-5.7,5c-6.8,6.5-6.9,7.3,0.1,14c19.4,18.3,42.2,21.5,67,14.1
	c17.9-5.3,28.2-18.1,32-35.9c1.8-8.2,2.3-16.7,2.3-25.1c0.3-32.1,0.1-64.2,0.1-96.4c0-17.6,0-17.6-17.4-17.1
	c-10.3,0.3-10.8,0.6-10.9,10.8C827.1,400.5,827.2,419.1,827.1,437.7C827.2,437.7,827.2,437.7,827.1,437.7z"/>
</svg>
