<?xml version="1.0" encoding="utf-8"?>
<!-- Generator: Adobe Illustrator 25.2.0, SVG Export Plug-In . SVG Version: 6.00 Build 0)  -->
<svg version="1.1" id="Calque_1" xmlns="http://www.w3.org/2000/svg" xmlns:xlink="http://www.w3.org/1999/xlink" x="0px" y="0px"
	 viewBox="0 0 1000 1000" style="enable-background:new 0 0 1000 1000;" xml:space="preserve">
<path d="M324.9,533.5c0,13.1,0.2,26.1,0,39.1c-0.2,13,0.9,26.1-0.9,39.7c-4.8,0-8.4,0-11.9,0c-0.4-0.4-0.7-0.6-0.9-0.9
	c-0.2-0.3-0.6-0.5-0.6-0.8c-0.3-2-0.7-4.1-0.7-6.1c0-69.2,0.1-138.4,0.2-207.5c0-1,0.5-1.9,1.1-3.8c3.4,0,6.9,0,11.9,0
	c0,9.6,0,19,0,28.4c0.6,0.1,1.2,0.2,1.8,0.3c2.7-3.8,5.1-8,8.2-11.5c15.7-17.8,35.5-23.6,58.8-21c30.4,3.3,47.4,21.4,57.4,48.5
	c10.3,28.1,8.5,55.5-3.6,82.5c-9.8,21.7-26.9,33.3-50.3,37c-17.3,2.7-33.9,1.1-49.2-7.6C338.8,545.4,332.5,539.3,324.9,533.5z
	 M441.4,471.2c-0.6-4-1.1-10.9-2.6-17.5c-2.4-10.8-6.2-21.3-13-30.2c-12.6-16.4-29.3-22.7-49.9-20.9c-22,2-37.2,13.1-44.9,33.1
	c-9.1,23.5-9.4,47.8-2.2,72c7.1,23.9,24.8,35.3,48.3,37.6c21.2,2.1,38.8-5.9,50.8-23.9C437.4,507.1,440.9,491,441.4,471.2z
	 M142.1,500.2c0.7,11.8-4.4,22-11.3,31c-27.1,35.9-77.6,34.4-107,8.3c-12.3-11-18.3-25.9-21.6-41.7c-3.6-17.5-2.6-34.8,1.9-52.2
	c8.4-32.5,32.5-54.2,64.7-57.4c31.2-3.1,64.3,17.5,73.2,54.8c2.6,10.8,3.3,21.7,1.5,33.9c-21.2,1.5-42.2,0.5-63.2,0.6
	c-21.1,0.2-42.2,0-63.3,0c-3.5,8.8-0.6,16.8,1.4,24c8.2,28.5,25.7,41.7,53.8,43.7c24.1,1.7,44.7-12.5,53.4-35.1
	c0.9-2.3,1.7-4.6,2.9-6.6C131.7,497.9,133.3,497.5,142.1,500.2z M127.7,462.2c4.4-25.5-18.1-56-42.9-58.9
	c-38.8-4.6-64.5,17.2-68.5,58.9C53.5,462.2,90.7,462.2,127.7,462.2z M696.7,500.4c-1.4,31.4-30.9,55-57.1,57
	c-10.5,0.8-20.7,0.6-30.8-1.7c-23.5-5.4-39.1-20.3-47-42.7c-10.6-30.1-9.1-59.8,5.7-88.3c9.6-18.6,25.2-30.4,45.6-34.5
	c26.6-5.3,50.2,1.2,68.4,22.2c4.9,5.6,9,12.4,11.6,19.4c5.2,13.9,6.9,28.6,7.7,44.6c-4.4,0.4-8.4,1.1-12.4,1.1c-35,0.1-70,0-105,0
	c-3.7,0-7.4,0-10.8,0c-6.1,27.6,13.5,59.4,39.3,65.7c14.6,3.6,28.7,3.2,42.4-3.6c12.5-6.2,20.5-16.1,25.8-28.6
	c1.1-2.5,1.8-5.3,3.1-7.6C686.4,498.2,689,497.6,696.7,500.4z M683.4,462.4c2-23.1-13.9-45.4-26.2-52.9
	c-17.5-10.7-47.5-8.6-62.7,4.2c-14.9,12.6-23,28.4-23,48.6C609.4,462.4,646.1,462.4,683.4,462.4z M720.3,511.7
	c3.3,15.6,11.4,28,25.6,36c19.1,10.7,39.9,11.3,60.6,8c8.6-1.4,17.3-5.3,24.9-9.8c11.7-7,17.5-18.4,18.4-32
	c1.1-16.5-7.2-36.5-30.9-42.2c-14.5-3.5-28.8-7.3-43.2-11.3c-7.7-2.1-15.5-4-22.7-7.4c-20.2-9.5-15.6-34.9-3.3-41.7
	c18.9-10.4,38.7-12.5,58.9-4.7c12.2,4.7,19.4,14.1,21.5,27.2c0.4,2.3,1,4.6,1.7,7.6c3.8,0,7.3,0,10.5,0c5.2-17.5-5.2-37.1-22.6-45.1
	c-26.3-12-52.4-11.6-77.7,2.9c-13.7,7.8-20.4,24.8-16.8,40.3c2.7,11.9,8.6,21,20.7,25.3c10.4,3.7,20.7,7.8,31.3,11.2
	c13.2,4.2,26.6,7.5,39.8,11.9c9.8,3.3,16.6,9.7,17.6,20.8c1.1,12.6-2.9,22.7-14.3,28.7c-21.5,11.2-43.2,11.2-64.7,0
	c-10-5.2-16.1-13.9-19.9-24.3c-1.4-3.8-2.3-7.8-3.6-12.3c-3.5,0-6.8,0-11.7,0C720.2,505,719.6,508.5,720.3,511.7z M994.1,437.6
	c0.4-16-5.3-29.5-19.2-37.8c-26.6-15.8-53.9-15.5-81.1-1.2c-7.6,4-13,10.1-16.2,18.2c-7,17.6-1.4,42,19.9,48.7
	c8.2,2.6,16.2,6,24.5,8.6c15.2,4.7,30.5,9.2,45.7,13.7c9.1,2.7,15.3,8.3,16.7,17.8c1.6,11,0.3,21.4-9.5,29
	c-25.6,19.9-68.9,15.5-86.4-18.8c-2.5-4.9-4.5-10-7.1-15.7c-3.7,0.3-7.2,0.6-10.7,0.8c-0.3,3-0.6,4.7-0.6,6.4c0,1.4,0,2.8,0.3,4.1
	c4.1,19.3,14.8,33.5,33.3,40.7c7.3,2.8,15.3,4.4,23.1,5.7c20.3,3.2,39.3-1.3,56.4-12.4c13.9-9.1,19.9-27.1,15.5-43
	c-4.1-14.8-13.2-25.1-28-29.4c-20.2-5.9-40.7-11.1-61.1-16.5c-6.5-1.7-12.3-4.3-16.2-10.4c-9-14.2-3.2-32,13-38.5
	c15.2-6.2,30.6-7.5,46.6-2.9c15.7,4.4,24.9,14.3,27.2,30.2c0.3,2.3,1.1,4.5,1.7,7.1c3.8,0,7.1,0,10.5,0
	C993.1,440.1,994.1,438.9,994.1,437.6z M262.8,401.4c-10.9,14.3-21.4,28.9-32.2,43.3c-3,4.1-6.2,8-9.8,12.6c-2.6-3.1-4.5-5-6.1-7.2
	c-12-16.1-23.9-32.3-35.9-48.4c-7.2-9.7-13.2-11.6-25.3-7.4c19.2,25.2,38.1,50,56.9,74.6c-2.3,3.4-3.8,5.8-5.4,8
	c-16.5,22.2-33.1,44.3-49.6,66.6c-2.1,2.8-3.8,6-5.9,9.6c10,3.6,16.4,0.2,21.7-5.9c2.9-3.4,5.3-7.2,8-10.9
	c13.5-18.4,27-36.7,41-55.8c3.7,5,7,9.4,10.2,13.8c12.4,17.1,24.7,34.2,37.1,51.3c6.6,9.1,12.8,10.9,23.8,7c-1.2-2.1-2.3-4.2-3.6-6
	c-17-22.7-34.1-45.3-51.1-68c-6.6-8.8-6.5-9.3,0-17.9c14.4-19,28.9-38,43.3-57c2.2-2.9,4-6.1,6.1-9.4
	C275.1,390.6,269.7,392.2,262.8,401.4z M480.8,396.7c-0.1,49.4-0.2,98.9-0.2,148.3c0,2.4,0.4,4.8,0.7,7.2c0,0.3,0.4,0.5,0.6,0.8
	c0.2,0.3,0.5,0.5,1.4,1.5c3-0.2,6.5-0.5,10.8-0.8c0-5.1,0-8.8,0-12.6c0-25.6-0.1-51.2,0-76.8c0.2-26.2,16.4-52,47-57.6
	c4.7-0.9,9.4-1.6,14.5-2.5c0-4,0-7.5,0-12.1c-25.2-0.3-45.3,8.5-62.2,26.9c0-8.5,0-17,0-26.2c-4.3,0-7.6,0-11.4,0
	C481.4,394.8,480.8,395.7,480.8,396.7z"/>
</svg>
