<?xml version="1.0" encoding="utf-8"?>
<!-- Generator: Adobe Illustrator 25.2.0, SVG Export Plug-In . SVG Version: 6.00 Build 0)  -->
<svg version="1.1" id="Calque_1" xmlns="http://www.w3.org/2000/svg" xmlns:xlink="http://www.w3.org/1999/xlink" x="0px" y="0px"
	 viewBox="0 0 1000 1000" style="enable-background:new 0 0 1000 1000;" xml:space="preserve">
<path d="M250.4,948.6c-22.4-0.2-39.5-27.9-26.3-50.6c26.2-45.2,53.4-89.8,80-134.8C349.7,686.2,395,609,440.7,531.9
	c43.9-74.1,88.3-148,132.2-222.1c46.7-78.7,93.3-157.6,139.9-236.4c9.8-16.5,27.3-25.4,41.4-20.9c17.4,5.6,29.7,22.1,25.9,38.8
	c-2.5,10.9-8.9,21.1-14.7,31c-26.7,45.3-53.9,90.2-80.8,135.4c-26.6,44.6-53,89.2-79.4,133.9c-36.8,62.2-73.5,124.4-110.4,186.5
	c-29.7,49.8-59.8,99.4-89.4,149.3c-38.8,65.3-77,131-115.8,196.3C281.6,937,272.4,949.4,250.4,948.6z M580.1,785.1
	c96-12.3,182.1-50,261.3-104.2c37.4-25.6,70.3-56.8,100-90.8c19.4-22.1,35.9-46.8,52.6-71c8.3-12.1,7.6-25.9-0.2-38.5
	c-7-11.2-13.6-23-22.4-32.7c-27.3-30.5-54.3-61.6-83.7-90c-43.6-42.1-95.4-72.7-150.8-96.8c-17.4-7.6-36.7,0.1-43.6,16.2
	c-8.1,19-1.2,37.6,16.3,46.7c23.1,12.1,46.5,23.9,68.7,37.6c55.5,34.2,101.9,78.5,140.5,131.1c4,5.5,4,9.7-0.1,15.4
	c-31.5,43.6-69,81-112.5,112.5c-57.2,41.5-119.7,71.7-189.3,86.5c-51.8,11-103.8,16.1-156.7,11.2c-13.5-1.2-25,3.7-32.5,15.1
	c-16.1,24.3-1,52.7,29.7,55.6c14.2,1.3,28.4,1.4,48.9,2.4C526.8,789.7,553.6,788.5,580.1,785.1z M545.6,282.2
	c19.6,0.1,36.7-14.8,37.4-32.7c0.8-18.7-15-35.1-34.8-36.9c-39.7-3.5-79.3-3.1-118.8,2c-128.6,16.6-240,69.8-334.4,158.7
	C62.6,403.9,34,437.7,9.4,475C-1.2,491.1-3.5,506.6,8,523.2c6.2,8.9,11.3,18.6,18,27.1c46.9,60,99.9,113.6,166.3,152.3
	c21.7,12.6,43.8,24.5,66.5,35.2c17.1,8.1,36.3,0.5,43.3-15.3c6.2-14,6.1-37.9-15-46.9c-5.3-2.3-10.4-5.1-15.5-7.7
	C196,629.7,132.4,577.5,82.1,509.2c-4.5-6.1-4.9-10.4-0.2-16.9c34.3-47.1,75.5-86.9,123.4-120c52.2-36,108.4-62.9,170.6-76.8
	c53.3-12,106.9-18,159.9-13.3C540.2,282.2,542.9,282.2,545.6,282.2z M670.6,430.4c-12.7-24.9-42.5-26.6-59-4.1
	c-9.7,13.1-5.9,26.2-2.2,39.8c12,44.7,4,84.4-29.7,117.8c-19,18.8-42.5,27.1-68.3,30.4c-30.2,3.8-42.7,32.3-25.4,57.3
	c10.1,14.6,24.1,14.6,39.9,12.2C618.1,669.2,685,592,685,509.3C685.3,475.3,681.6,452,670.6,430.4z M469.7,318.8
	c-7.3,0.1-14.9,1.7-21.9,4c-66,21.7-108.6,66.2-126.8,133c-9.3,34-9,68.4,3.9,101.9c7.3,18.9,25.2,28.8,41.8,23.5
	c16.1-5.1,32.2-24.3,24.5-44.9c-1.9-5-3.1-10.4-3.9-15.8c-5.2-36,2-68.6,26.6-96.6c16.5-18.8,37.1-30,61.4-35.5
	c18.7-4.3,29-17.6,28.9-35.5C503.8,333.6,489,318.4,469.7,318.8z"/>
</svg>
