<svg xmlns="http://www.w3.org/2000/svg" viewBox="0 0 389.36 499.48"><g id="Calque_2" data-name="Calque 2"><g id="Calque_1-2" data-name="Calque 1"><path d="M389.36,42.91V366.27c-1.8,1.72-3.63,3.41-5.39,5.17q-61.35,61.37-122.62,122.82a15.8,15.8,0,0,1-12.24,5.09c-64-.14-128-.59-191.94.13-29,.33-57.27-26-57.17-57.24C.32,341.65.14,241.05,0,140.45a13.68,13.68,0,0,1,4.35-10.56Q36.45,98.14,68.25,66.11,101.18,33.1,134,0H343.48C366.66,5.86,382.12,20,389.36,42.91Zm-296,206.82c0,18.36,14.62,32.45,33.76,32.41,18.91,0,33.64-14.08,33.65-32.1s-14.73-32.1-33.6-32.18S93.38,231.77,93.32,249.73Zm136.29-20.68c-3.15-2.68-4.51-4.12-6.13-5.15a36.56,36.56,0,0,0-28.64-5c-11.88,2.7-20.61,9.51-24.26,21.31S169.15,262.94,178,272c12.55,12.84,32.43,12.25,46.59,4.1a6.79,6.79,0,0,0,2.78-4.8c.35-5.8.09-11.63.17-17.45.06-4.72-3.3-4.15-6.26-4.15s-6.32-.56-6.22,4.17c.08,3.49.39,7.05-.19,10.45-.32,1.9-1.86,4.39-3.51,5.13-9,4-20.42.32-25.52-7.79-5.56-8.85-3.92-21.14,3.7-27.76,7-6.1,18.27-6.66,26.94-.84,3,2,5,1.61,7.41-.52C225.39,231.26,227.29,230.45,229.61,229.05Zm68,0c-1.7-2-2.3-3-3.18-3.66-9.38-7-19.89-9-31.14-6.38-11.86,2.74-20.49,9.73-24,21.59-3.44,11.64-1.21,22.4,7.49,31.35,12.46,12.82,32.27,12.42,46.55,4.19,1.59-.91,2.74-3.7,2.91-5.73.42-5-.05-10,.21-15,.22-4.29-1.35-6-5.73-5.83-6.46.19-6.78.27-6.82,6.66,0,1.33,0,2.66,0,4,0,8.78-1.48,10.26-10.38,10.43-1,0-2,0-3,0a19.67,19.67,0,0,1-18.95-18.31c-1-11.24,5.11-20.64,15.08-22.63,6.7-1.33,13.35-.85,19,3.5,2.53,1.94,4.4,1.53,6.58-.34C293.87,231.53,295.72,230.39,297.6,229.05ZM47.24,0C45.5.56,43.78,1.18,42,1.67a57.38,57.38,0,0,0-41.9,55Q0,81.6.15,106.52a65.06,65.06,0,0,0,.75,6.6c2.39-2.12,3.92-3.33,5.29-4.69Q58.33,56.27,110.44,4.09c1.29-1.28,2.42-2.72,3.63-4.09ZM389.36,387.23a34.63,34.63,0,0,0-3.5,2.74q-52.32,52.29-104.6,104.66A51,51,0,0,0,278,498.7a37.75,37.75,0,0,0,3.9.53c19.09,0,38.19.07,57.28-.09a32.72,32.72,0,0,0,9.27-1.63c21.05-6.43,34.25-20.7,40.87-41.42ZM126.9,270.71c11.86,0,20.18-8.34,20.28-20.4s-8.06-20.91-19.67-21c-12.47-.12-20.58,7.9-20.65,20.41C106.79,262.41,114.68,270.68,126.9,270.71Z"/></g></g></svg>