<svg xmlns="http://www.w3.org/2000/svg" viewBox="0 0 389.32 499.35"><g id="Calque_2" data-name="Calque 2"><g id="Calque_1-2" data-name="Calque 1"><path d="M0,452.44V134.08c2.05-1.94,4.14-3.84,6.13-5.84Q67.66,66.71,129.09,5.1A15.76,15.76,0,0,1,141.33,0Q237,.21,332.75,0c12.66,0,24.05,3.44,33.92,11.06,12.81,9.88,22.47,22.21,22.5,39.23q.27,155.12.15,310.24a12.51,12.51,0,0,1-4,9.66c-13.5,13.29-26.85,26.73-40.23,40.15q-44.37,44.49-88.71,89H45.88C34.11,495.83,23.52,490.5,15,481.28,7.23,473,3.09,463,0,452.44ZM191.29,263c0-2.33-.19-4.68,0-7,.47-4.63-1.53-6.19-6.05-6-6.14.26-6.43.31-6.48,6.49,0,1.67,0,3.33,0,5,0,7.71-1.46,9.22-9.22,9.57-1.5.06-3,.06-4.49,0-10.76-.41-18.6-9.07-18.69-20.63s7.6-20.16,18.44-20.77c6-.34,11.51.75,16.5,4.35,2.51,1.82,6.93-.26,9.27-4.08,2-3.22-1.12-4.09-2.78-5.22a36.15,36.15,0,0,0-30-5.28c-11.81,2.89-20.38,9.94-23.75,21.86C130.8,253,133,263.8,142,272.5c10.43,10.15,23,11.67,36.55,8.11,11.79-3.09,12.8-4.32,12.8-16.16C191.3,264,191.3,263.46,191.29,263ZM220.73,271a41.44,41.44,0,0,1,2.61-4.5c7.95-9.79,16-19.54,23.94-29.33a80.23,80.23,0,0,0,6.69-8.65c2.83-4.7,1.19-9.26-3.14-9.29-14.28-.12-28.57,0-42.85-.08-3.63,0-4.47,1.9-4.47,5s.52,5.56,4.54,5.5c7.14-.11,14.28-.06,21.42,0,2,0,4.06.36,7.5.68-5.46,6.79-10.07,12.57-14.73,18.31-6,7.35-12.22,14.48-17.75,22.15-1.57,2.18-1.27,5.89-1.25,8.89,0,.6,2.66,1.68,4.1,1.69,14.78.12,29.56,0,44.34.1,3.17,0,4.33-1.31,4.52-4.45.27-4.47-1.22-6.3-5.91-6.16C240.87,271.2,231.43,271,220.73,271ZM0,113.12a44.73,44.73,0,0,0,5.51-4.06Q57.4,57.25,109.19,5.33c1.23-1.23,2.34-2.58,4.37-4.84-3-.18-4.71-.38-6.44-.38C89.83.09,72.54,0,55.26.12,41.15.2,29.12,5.57,18.66,14.87,8.56,23.86,2.94,35.29,0,48.25ZM344.12,499.35c5.38-2.15,11.19-3.61,16.08-6.57C378,482,389.65,467.32,389.31,445.2c-.26-16.94,0-33.89-.07-50.83,0-1.88-.23-3.76-.43-6.89-2.29,2-3.65,3.16-4.88,4.4Q332.31,443.5,280.74,495.15a53.45,53.45,0,0,0-3.45,4.2Z"/></g></g></svg>