<svg xmlns="http://www.w3.org/2000/svg" viewBox="0 0 389.32 499.33"><g id="Calque_2" data-name="Calque 2"><g id="Calque_1-2" data-name="Calque 1"><path d="M389.32,43.24V366.6q-21.69,21.58-43.39,43.19-44.67,44.73-89.27,89.54H46.2c-1.56-.55-3.12-1.13-4.7-1.63C16,489.59.09,468,.09,441.21Q.06,291.3,0,141.41A14.74,14.74,0,0,1,4.6,130Q67.48,67.32,130.11,4.41A13.61,13.61,0,0,1,140.62,0q97.22.17,194.44.05a52.24,52.24,0,0,1,27.83,8.19C376.23,16.43,384.74,28.38,389.32,43.24ZM113.11,264.15c-1.09-2.8-1.74-4.23-2.22-5.71-3.7-11.38-7.54-22.72-10.94-34.19-1.27-4.26-3.7-5.19-7.69-5.2s-6.75.78-8.15,5.28c-3.55,11.43-7.62,22.69-11.5,34-.49,1.42-1.13,2.79-2.25,5.54-1.18-3.24-1.84-4.9-2.39-6.59-3.28-10.13-6.51-20.26-9.79-30.38-2.64-8.13-2.66-8-11.13-7.8-3.59.08-4.8,1.1-3.57,4.79,5.88,17.66,11.76,35.33,17.32,53.1,1.54,4.92,5,4.55,8.62,4.51s7.5.7,9.08-4.58c3.25-10.82,7-21.48,10.67-32.19.54-1.61,1.29-3.15,2.51-6.06,1.19,3.07,1.91,4.7,2.46,6.38,3.36,10.27,6.9,20.49,9.89,30.86,1.35,4.66,3.89,6,8.34,5.65,4.25-.29,8.23.65,10-5.37,5.2-17.36,11.11-34.49,16.71-51.73.48-1.47.69-3,1-4.56-10.81-2.13-11.62-1.69-14.7,7.7-3.36,10.27-6.67,20.56-10,30.83C114.93,259.93,114.24,261.35,113.11,264.15ZM334,244.93l1.71.48c0,1.76,0,3.53,0,5.3,0,8.81.11,17.63,0,26.44-.07,4.63,3,4.4,6.05,4.36s6.54.62,6.51-4.42c-.1-17.79,0-35.58-.15-53.36,0-1.47-1.11-3.71-2.3-4.24-4.12-1.82-8.62,0-11,4-6,10-11.88,20-17.85,30-.88,1.47-2,2.79-3.52,4.86-1.94-2.92-3.46-5-4.8-7.25-5.67-9.39-11.42-18.73-16.86-28.25-2.61-4.56-6.72-4.23-10.4-3.18-1.36.38-2.43,4.19-2.46,6.46-.21,16.45,0,32.91-.21,49.37-.07,5,1.87,6.13,6.46,6.18,4.83.06,6.44-1.61,6.23-6.37-.31-7.13-.08-14.29-.08-21.44v-7.6l1.5-.27c.88,1.31,1.8,2.6,2.63,3.94,4.25,6.94,8.44,13.93,12.74,20.85,3.26,5.24,7,5.26,10.21.11,1.59-2.54,3.11-5.11,4.65-7.68Zm-78,4.62c2-2.46,4-4.45,5.36-6.83,5.25-9.28-.31-20.45-12.22-22.05s-23.82-1.1-35.75-1.42c-3.38-.08-3.35,2.56-3.35,5,0,17.45.05,34.91-.05,52.37,0,3.65,1.4,5,5,5,9.3-.14,18.63.33,27.91-.2a44,44,0,0,0,14.9-3.41c10.55-4.62,11.5-19.06,2.06-25.73C258.65,251.36,257.44,250.56,256,249.55Zm-105.81.79c0,8.81.07,17.62,0,26.43,0,3.37,1.28,4.79,4.71,4.76,12.62-.09,25.25-.11,37.87,0,3.7,0,5-1.46,4.95-5.05s-.81-5.68-5-5.55c-6.64.19-13.29,0-19.93,0-9.3,0-9.3,0-9.09-9.46,0-.33,0-.67,0-1-.27-3.64,1.48-5.06,5.05-5,6.31.12,12.63-.1,18.93.06,3.65.09,5-1.34,5-5s-.72-5.74-4.92-5.61c-6,.19-12-.12-17.93.09-4.37.15-6.7-1.27-6.17-6a16.29,16.29,0,0,0,0-3.49c-.5-4.63,1.69-6.15,6.12-6,7.31.22,14.62-.1,21.93.09,4.17.11,4.94-2,4.95-5.56s-1.27-5.08-5-5c-12.12.13-24.25.15-36.38,0-3.93,0-5.27,1.5-5.2,5.31C150.26,233.05,150.14,241.7,150.15,250.34Zm234.63,141Q333.06,443,281.4,494.79c-1.39,1.39-2.53,3-3.79,4.54h66.83c9.82-3.14,19.22-7,27-14.18a64.15,64.15,0,0,0,17.88-28.73V387.56C387.8,388.81,386.17,390,384.78,391.34ZM107,.07c-17,0-33.89,0-50.83,0C25.91.17.3,25.72.11,56.1,0,73.05.07,90,.1,107a40.11,40.11,0,0,0,.31,4.14L111.53.07Zm116.5,266.44c0,.32-.09.78.09,1,1.11,1.17,2.28,3.24,3.45,3.26A187.27,187.27,0,0,0,246.3,270c4.11-.39,6.67-3.09,6.38-7.43s-3.43-6.31-7.34-6.77a82,82,0,0,0-9.41-.07C222.62,255.56,222.62,255.56,223.52,266.51ZM234.67,245a74.41,74.41,0,0,0,7.47-.05c4.05-.41,7-2.54,7.42-6.78.46-4.41-2.24-7.08-6.27-7.57A111.42,111.42,0,0,0,227,230c-1.15,0-3,2-3.25,3.37-1.87,10.28-.5,11.78,10,11.78h1Z"/></g></g></svg>