<svg xmlns="http://www.w3.org/2000/svg" viewBox="0 0 389.32 499.35"><g id="Calque_2" data-name="Calque 2"><g id="Calque_1-2" data-name="Calque 1"><path d="M256.34,499.35H45.88C34.11,495.83,23.52,490.5,15,481.28,7.23,473,3.09,463,0,452.44V134.08c2.05-1.94,4.14-3.84,6.13-5.84Q67.66,66.71,129.09,5.1A15.76,15.76,0,0,1,141.33,0Q237,.21,332.75,0c12.66,0,24.05,3.44,33.92,11.06,12.81,9.88,22.47,22.21,22.5,39.23q.27,155.12.15,310.24a12.51,12.51,0,0,1-4,9.66c-13.5,13.29-26.85,26.73-40.23,40.15Q300.68,454.85,256.34,499.35Zm-93.56-249v13c0,4.33-.1,8.65.07,13,.06,1.55.6,4.3,1.26,4.41a29,29,0,0,0,10.25.21c1-.2,1.54-3.83,1.86-6a34.94,34.94,0,0,0,.07-6.47c-.13-3.33,1.32-4.91,4.72-4.86,4.15.07,8.32.14,12.46-.11,13.11-.79,22-9.34,22.59-21.47.5-11-7.77-20.48-20.27-21.87-9.2-1-18.55-.63-27.83-1-3.91-.18-5.3,1.43-5.22,5.27C162.9,233.06,162.79,241.7,162.78,250.35Zm120.4-22.23a7.75,7.75,0,0,0-1.1-1.51,25.34,25.34,0,0,0-3.15-2.42,36.72,36.72,0,0,0-28.67-4.91c-11.87,2.72-20.59,9.55-24.2,21.36s-1.38,22.72,7.51,31.78c12.63,12.87,32.58,12.12,46.61,4a6.22,6.22,0,0,0,2.67-4.37c.31-6.13.28-12.29.11-18.44-.14-4.82-4-3.38-6.75-3.54s-5.6-.33-5.61,3.72c0,3.66.3,7.37-.21,11-.25,1.79-1.66,4.4-3.12,4.87-7.55,2.42-15.13,2.63-21.66-2.88-8.05-6.8-10-19.74-4.47-28.1,6.07-9.13,18.57-12,28.85-6.58C276.89,235.72,278.84,235.15,283.18,228.12ZM112,265.93c-1.49,1.76-2.79,3.47-4.28,5-2.77,2.84-2.07,5.15,1.25,6.49,4.72,1.91,9.5,4.3,14.44,4.86,12.11,1.38,22.34-6.23,22.79-17.06.58-13.93.2-27.9.28-41.85,0-2.91-1.32-4.21-4.24-4.19-8.63,0-17.26.1-25.89,0-4-.06-4.59,2.15-4.63,5.41,0,3.5,1.18,5.28,4.91,5.15a83.12,83.12,0,0,1,12.43.16c1.63.2,4.35,2.11,4.37,3.28A307.68,307.68,0,0,1,133,264c-.54,6.67-6.76,9.67-13,7C117.37,269.86,115.05,267.88,112,265.93ZM0,113.12a44.73,44.73,0,0,0,5.51-4.06Q57.4,57.25,109.19,5.33c1.23-1.23,2.34-2.58,4.37-4.84-3-.18-4.71-.38-6.44-.38C89.83.09,72.54,0,55.26.12,41.15.2,29.12,5.57,18.66,14.87,8.56,23.86,2.94,35.29,0,48.25ZM344.12,499.35c5.38-2.15,11.19-3.61,16.08-6.57C378,482,389.65,467.32,389.31,445.2c-.26-16.94,0-33.89-.07-50.83,0-1.88-.23-3.76-.43-6.89-2.29,2-3.65,3.16-4.88,4.4Q332.31,443.5,280.74,495.15a53.45,53.45,0,0,0-3.45,4.2ZM176.47,249.06c.26,1.42,1.79,3.65,2.85,3.71,4.93.29,10,.53,14.82-.32,6.23-1.09,9.43-7.06,8-13.29-1.47-6.44-5.41-9.3-13.82-9.41-13.79-.19-11.87-.86-12,11.38C176.34,243.78,176,246.49,176.47,249.06Z"/></g></g></svg>