<svg xmlns="http://www.w3.org/2000/svg" viewBox="0 0 389.32 499.35"><g id="Calque_2" data-name="Calque 2"><g id="Calque_1-2" data-name="Calque 1"><path d="M256.34,499.35H45.88C34.11,495.83,23.52,490.5,15,481.28,7.23,473,3.09,463,0,452.44V134.08c2.05-1.94,4.14-3.84,6.13-5.84Q67.66,66.71,129.09,5.1A15.76,15.76,0,0,1,141.33,0Q237,.21,332.75,0c12.66,0,24.05,3.44,33.92,11.06,12.81,9.88,22.47,22.21,22.5,39.23q.27,155.12.15,310.24a12.51,12.51,0,0,1-4,9.66c-13.5,13.29-26.85,26.73-40.23,40.15Q300.68,454.85,256.34,499.35Zm28.58-218.77c-3.77-5.35-7.2-10.21-10.61-15.07-1.45-2.06-2.38-3.8.54-5.76,8.14-5.45,11.49-13.11,9.28-22.8-2.28-10-9-15.6-18.81-16.62s-19.87-1-29.81-.94c-1.29,0-3.68,2.46-3.7,3.81q-.37,27.18,0,54.37c0,1.32,2.24,3.12,3.83,3.78s3.59.1,5.42.16c3.05.11,4.11-1.49,4.05-4.33-.06-3.15-.33-6.38.21-9.45.25-1.48,2-3.61,3.33-3.84,5.93-1,11.68-.82,14.78,5.85a36.49,36.49,0,0,0,3.05,4.55C271.81,282.22,274.09,283.07,284.92,280.58Zm-61.73.77c-1.16-2.75-1.78-4.27-2.44-5.76-7.45-16.69-15-33.34-22.28-50.1-1.75-4-3.55-6.59-8.6-6.48s-8.23,1-10.39,6.19c-6.4,15.33-13.4,30.41-20.12,45.6-1.43,3.24-2.69,6.55-4.08,9.95,11,2.2,12.25,1.69,16.28-7.41,1.58-3.54,3.77-5,7.65-4.85a129.39,129.39,0,0,0,16.94,0c5.91-.52,9.34,1.48,11.07,7.26.64,2.11,2.48,4.92,4.3,5.39C214.86,282,218.6,281.35,223.19,281.35Zm-93.64-62.17c-7.3,0-14.61.12-21.91,0-3.85-.09-4.81,1.79-4.78,5.22s.73,5.54,4.66,5.34c2.65-.14,5.31,0,8,0,7.15,0,7.37.23,7.39,7.2,0,12.13,0,24.26,0,36.38,0,8.24,0,8.24,6.64,8.25,6.86,0,6.86,0,6.87-8,0-12.46,0-24.92,0-37.38,0-6,.43-6.39,6.6-6.45,2.82,0,5.66-.17,8.47,0,4.17.27,4.93-2,5-5.55s-1.28-5.11-5-5C144.16,219.29,136.86,219.18,129.55,219.18ZM0,113.12a44.73,44.73,0,0,0,5.51-4.06Q57.4,57.25,109.19,5.33c1.23-1.23,2.34-2.58,4.37-4.84-3-.18-4.71-.38-6.44-.38C89.83.09,72.54,0,55.26.12,41.15.2,29.12,5.57,18.66,14.87,8.56,23.86,2.94,35.29,0,48.25ZM344.12,499.35c5.38-2.15,11.19-3.61,16.08-6.57C378,482,389.65,467.32,389.31,445.2c-.26-16.94,0-33.89-.07-50.83,0-1.88-.23-3.76-.43-6.89-2.29,2-3.65,3.16-4.88,4.4Q332.31,443.5,280.74,495.15a53.45,53.45,0,0,0-3.45,4.2ZM245.29,249c.26,1.42,1.78,3.67,2.83,3.73,4.93.29,10,.53,14.82-.32,6.23-1.11,9.45-7.1,8-13.29-1.47-6.44-5.42-9.3-13.81-9.41-13.8-.19-11.89-.87-12,11.36C245.16,243.76,244.83,246.47,245.29,249ZM188,233.86l-9.6,23.57h21.08c-3.47-8.44-6.56-16-9.66-23.5Z"/></g></g></svg>