<svg xmlns="http://www.w3.org/2000/svg" viewBox="0 0 389.36 499.48"><g id="Calque_2" data-name="Calque 2"><g id="Calque_1-2" data-name="Calque 1"><path d="M134,0H343.48c23.18,5.86,38.64,20,45.88,42.91V366.27c-1.8,1.72-3.63,3.41-5.39,5.17q-61.35,61.37-122.62,122.82a15.8,15.8,0,0,1-12.24,5.09c-64-.14-128-.59-191.94.13-29,.33-57.27-26-57.17-57.24C.32,341.65.14,241.05,0,140.45a13.68,13.68,0,0,1,4.35-10.56Q36.45,98.14,68.25,66.11,101.18,33.1,134,0Zm66.1,280.13c-.59-1.51-1.11-3-1.76-4.49-7.57-17-15.22-34-22.68-51-1.6-3.68-3.33-6.06-7.94-5.93s-8.39.34-10.66,5.74c-7.41,17.61-15.38,35-23.1,52.46a25.1,25.1,0,0,0-1,3.58c10.88,2.06,11.94,1.66,16-7.54,1.59-3.57,3.83-4.94,7.68-4.8,6.31.24,12.64.28,18.93,0,4.32-.2,6.59,1.44,8.2,5.46C187.11,281.88,190.38,283.08,200.11,280.13ZM121.2,232.62c.55-.94,1.11-1.75,1.51-2.63,2.88-6.29,2.38-7.73-4.13-9.74-9.42-2.92-18.91-3.51-28.24.44C82.46,224,78.16,230.4,78.48,238c.29,6.94,5,12.41,13.24,15,5.54,1.74,11.23,3,16.77,4.72,3.42,1.07,7.31,3.08,6.13,7.1-.73,2.49-4.15,5.13-6.87,5.92-7.87,2.28-15.4-.05-22.55-3.53-2.13-1-4.08-1.32-4.65,1.39s-5,5.76-.38,8.08c12.43,6.18,25.43,8,38.31,1.64,7-3.42,10.25-9.58,9.43-17.69-.75-7.45-5.64-10.89-11.94-13.09-2.82-1-5.73-1.69-8.59-2.53-3.82-1.13-7.8-1.88-11.36-3.55-1.75-.81-3.87-3.45-3.71-5.06.22-2.22,2-5.46,3.87-6.09a29.37,29.37,0,0,1,12.1-1.38C112.47,229.35,116.52,231.21,121.2,232.62ZM227.34,282.8c5.3-1,8.93-1.45,12.45-2.34,8.92-2.26,14.55-8.64,14.82-16.51.32-9.22-3.14-13.69-13.53-16.95-5.53-1.74-11.22-3-16.77-4.71-3.09-1-6-2.55-5.57-6.58.37-3.63,2.73-5.39,6-6.4,6.62-2,12.87-.58,18.88,2.09,2.93,1.3,4.84,1.68,6-2,1-3.18,3.05-6.24-1.81-8.12-9.78-3.78-19.67-4.7-29.64-1.1-8.62,3.11-13.23,9.49-13.1,17.47.12,7.25,5,12.77,13.87,15.55,3.64,1.14,7.37,2,11,3,2.07.57,4.49.79,6.08,2,2.16,1.68,5.35,4.48,5,6.27-.4,2.35-3.45,5.23-6,6.05-7.81,2.56-15.41.42-22.6-3-2.6-1.23-4.69-2-5.73,1.64-.82,2.83-4.5,6.26.94,8.05C214.72,279.49,221.76,281.22,227.34,282.8Zm77.14-50.26c5.48-8,4.65-10.45-4.21-12.83-8.7-2.34-17.38-2.65-25.88.75-8.23,3.3-12.67,9.68-12.39,17.46.26,7.08,5.05,12.54,13.65,15.21,5.07,1.57,10.29,2.66,15.36,4.22,3.7,1.14,7.77,2.65,7.34,7.47s-4.55,5.83-8.4,6.4c-7.47,1.12-14.5-.63-21.16-4-2.07-1-4.1-1.47-4.68,1.3s-5.07,5.78-.46,8.09c12.4,6.24,25.4,8,38.3,1.72,7-3.4,10.28-9.53,9.5-17.65-.73-7.46-5.58-10.95-11.89-13.12-3.29-1.14-6.7-1.91-10-2.88-3.19-.92-6.63-1.41-9.44-3-2-1.11-4.37-3.91-4.19-5.71.24-2.23,2.58-5.34,4.68-6a27.25,27.25,0,0,1,11.65-.93C296.4,229.53,300.43,231.32,304.48,232.54ZM47.24,0C45.5.56,43.78,1.18,42,1.67a57.38,57.38,0,0,0-41.9,55Q0,81.6.15,106.52a65.06,65.06,0,0,0,.75,6.6c2.39-2.12,3.92-3.33,5.29-4.69Q58.33,56.27,110.44,4.09c1.29-1.28,2.42-2.72,3.63-4.09ZM389.36,387.23a34.63,34.63,0,0,0-3.5,2.74q-52.32,52.29-104.6,104.66A51,51,0,0,0,278,498.7a37.75,37.75,0,0,0,3.9.53c19.09,0,38.19.07,57.28-.09a32.72,32.72,0,0,0,9.27-1.63c21.05-6.43,34.25-20.7,40.87-41.42Zm-224-153.67c-2.85,7-5.78,14-8.42,21-.25.65,1.25,2.81,2,2.84,5.55.25,11.11.14,18.07.14-3.6-8.79-6.72-16.44-9.84-24.08Z"/></g></g></svg>