<svg xmlns="http://www.w3.org/2000/svg" viewBox="0 0 389.32 499.33"><g id="Calque_2" data-name="Calque 2"><g id="Calque_1-2" data-name="Calque 1"><path d="M256.66,499.33H46.2c-1.56-.55-3.12-1.13-4.7-1.63C16,489.59.09,468,.09,441.21Q.06,291.3,0,141.41A14.74,14.74,0,0,1,4.6,130Q67.48,67.32,130.11,4.41A13.61,13.61,0,0,1,140.62,0q97.22.17,194.44.05a52.24,52.24,0,0,1,27.83,8.19c13.34,8.19,21.85,20.14,26.43,35V366.6q-21.69,21.58-43.39,43.19Q301.26,454.52,256.66,499.33ZM150.25,249.55c2-2.64,4.25-4.76,5.57-7.34,4.8-9.37-.75-20-12.51-21.55s-23.82-1.16-35.75-1.23c-1.09,0-3.13,2.81-3.15,4.34-.22,17.62-.09,35.24-.19,52.87,0,3.71,1.52,5,5.08,4.9,9.31-.13,18.64.33,27.91-.21a43.93,43.93,0,0,0,14.89-3.42c10.54-4.65,11.43-19.07,2-25.74C152.87,251.34,151.67,250.53,150.25,249.55ZM233,280.45c-.59-1.5-1.11-3-1.76-4.48-7.57-17-15.22-34-22.68-51-1.6-3.68-3.33-6.06-7.94-5.93-4.76.12-8.39.34-10.66,5.74-7.41,17.61-15.38,35-23.1,52.46a23.86,23.86,0,0,0-1,3.58c10.88,2.06,11.94,1.66,16-7.54,1.59-3.57,3.83-4.94,7.68-4.8,6.31.24,12.63.28,18.93,0,4.32-.2,6.59,1.44,8.2,5.46C220,282.21,223.26,283.41,233,280.45Zm25.46-61.29v0c-7.47,0-14.94.06-22.41,0-3.85,0-4.15,2.35-4.17,5.28s.44,5.33,4.23,5.23c3.15-.08,6.33.21,9.46,0,4.75-.37,6.47,1.57,6.39,6.34-.22,13.12-.1,26.24-.06,39.37,0,6,.27,6,6.71,6.24,4.61.2,7-.71,6.9-6.17-.33-13.45,0-26.91-.14-40.37,0-3.77,1.36-5.55,5.24-5.38,3.31.14,6.65-.13,10,0,3.77.19,4.83-1.64,4.86-5.14,0-3.67-1-5.56-5.06-5.45C273.07,219.31,265.76,219.16,258.45,219.16Zm113,266a64.15,64.15,0,0,0,17.88-28.73V387.56c-1.52,1.25-3.15,2.4-4.54,3.78Q333.06,443,281.4,494.79c-1.39,1.39-2.53,3-3.79,4.54h66.83C354.26,496.19,363.66,492.36,371.44,485.15ZM107.37.09C90.26.07,73.15,0,56,.09,26.05.18.35,25.72.11,55.75,0,72.87.07,90,.1,107.1a38.94,38.94,0,0,0,.4,4.3L111.62.32C110.86.27,109.11.09,107.37.09Zm21.75,271.2c3.6-.35,7.22-.57,10.8-1.09,4.22-.61,7.11-2.79,7.07-7.46,0-3.84-3.31-6.81-8.18-7-5.61-.26-11.24-.06-16.86-.1-2.92,0-4,1.46-4.2,4.28-.86,10.58-.46,11.11,9.85,11.11h1.49Zm-1-26.05a84,84,0,0,0,9.42-.55,7,7,0,0,0,6.28-6.76,6.32,6.32,0,0,0-5.54-7.16,79.7,79.7,0,0,0-12.83-1.05c-7.68-.14-7.74,0-7.73,7.77,0,7.49.09,7.58,7.41,7.61h3Zm70.11-11.31c-2.81,6.84-5.71,13.65-8.29,20.57-.29.79,1.19,3.23,1.93,3.26,5.54.29,11.1.16,18,.16-3.61-8.84-6.74-16.48-9.87-24.13Z"/></g></g></svg>