<svg xmlns="http://www.w3.org/2000/svg" viewBox="0 0 366.91 499.26"><g id="Calque_2" data-name="Calque 2"><g id="Calque_1-2" data-name="Calque 1"><path d="M72.16,0H200.91c.05,30.93,0,61.86.2,92.8.29,39.65,33.52,72.61,73.21,72.73,27.94.09,55.88,0,83.82,0,8.68,0,8.69,0,8.69,8.91q0,120.74.08,241.48a86.62,86.62,0,0,1-5.62,31.16c-11.33,30.17-42.66,52.13-74.84,52.14q-103,0-206.06,0a74.62,74.62,0,0,1-8.47-.23C32.53,494.37.09,457.92.07,418.13Q0,249.74.17,81.36c.07-29.95,14.35-52.6,39-69C49.24,5.72,60.65,2.71,72.16,0ZM232.69,16.52c0,24.76-.1,49.52,0,74.29a43.06,43.06,0,0,0,43.13,43.12c25.1.08,50.19,0,75.28,0,1.73,0,3.45-.22,3.92-.25l-121.9-122A47,47,0,0,0,232.69,16.52Z"/></g></g></svg>