<svg xmlns="http://www.w3.org/2000/svg" viewBox="0 0 389.32 499.33"><g id="Calque_2" data-name="Calque 2"><g id="Calque_1-2" data-name="Calque 1"><path d="M389.32,43.24V366.6q-21.69,21.58-43.39,43.19-44.67,44.73-89.27,89.54H46.2c-1.56-.55-3.12-1.13-4.7-1.63C16,489.59.09,468,.09,441.21Q.06,291.3,0,141.41A14.74,14.74,0,0,1,4.6,130Q67.48,67.32,130.11,4.41A13.61,13.61,0,0,1,140.62,0q97.22.17,194.44.05a52.24,52.24,0,0,1,27.83,8.19C376.23,16.43,384.74,28.38,389.32,43.24ZM228.88,258.78c-2.3-3.54-3.87-5.82-5.3-8.18-5.67-9.39-11.37-18.77-16.91-28.23-2.54-4.33-6.62-3.63-10.13-2.75-1.26.32-2.38,3.9-2.41,6-.19,16.62.05,33.25-.2,49.87-.08,5,2,6.15,6.5,6.12,4.36,0,6.41-1.09,6.19-5.89-.32-7.14-.08-14.3-.08-21.44v-8.07l1.51-.26c.88,1.32,1.81,2.62,2.64,4,4.26,6.94,8.44,13.93,12.74,20.84,3.24,5.21,7,5.23,10.21,0,4.67-7.66,9.23-15.39,13.89-23.06a22.77,22.77,0,0,1,2.3-2.73,11.58,11.58,0,0,1,1.08,5.73c0,8.81.11,17.62,0,26.43-.06,4.2,2.53,4.52,5.59,4.29,2.89-.21,6.9,1.27,6.91-3.94,0-18.12,0-36.24-.09-54.36a4.84,4.84,0,0,0-1.86-3.62c-3.37-1.92-9.09,0-11.19,3.51-4.44,7.41-8.78,14.88-13.21,22.31C234.61,249.47,232.09,253.52,228.88,258.78Zm-106.11-8.35c0-8.47-.22-17,.08-25.42.17-4.71-1.68-6.4-6.13-5.87a17.44,17.44,0,0,1-3,0c-3.16-.19-4.55,1.24-4.49,4.42.09,5.16-.09,10.31,0,15.46.07,3.57-1.39,5.15-5,5.08-6.47-.13-13-.13-19.43,0-3.66.07-5.07-1.56-5-5.11.13-4.65-.27-9.33.09-14,.4-5.18-2.14-6.06-6.56-6s-7.24.27-7.13,6c.32,15.95.11,31.91.11,47.87,0,8.92.09,8.88,8.81,8.64,3.39-.09,4.8-1.32,4.72-4.74-.13-5.48.06-11,0-16.46,0-3.34,1.35-4.85,4.75-4.8q10,.13,19.93,0c3.43-.05,4.77,1.55,4.72,4.85-.07,5.32.24,10.65,0,15.95-.3,5.48,3.15,5.18,6.82,5.18s7,.3,6.82-5.18C122.55,267.73,122.76,259.08,122.77,250.43Zm35-31.27v0c-7.47,0-14.94.07-22.41,0-3.83-.05-4.21,2.28-4.21,5.24s.37,5.36,4.19,5.27c3.15-.08,6.32.2,9.46,0,4.7-.35,6.5,1.5,6.42,6.3-.21,13.12-.09,26.25-.06,39.37,0,6,.28,6,6.69,6.27,4.53.19,7.1-.59,6.93-6.12-.37-11.62-.14-23.26-.11-34.88s-1.07-10.89,10.64-10.9c1.5,0,3-.11,4.49,0,4.21.35,4.87-2.07,4.89-5.59s-1.37-5.05-5-5C172.36,219.27,165.05,219.16,157.75,219.16Zm122.07,30.67c0,9,.06,17.95,0,26.93,0,3.36,1.25,4.8,4.69,4.77q17.44-.15,34.89,0c3.65,0,5-1.37,5-5s-.78-5.71-5-5.59c-6.47.19-13,.07-19.43,0s-6.66-.36-6.67-6.88c0-13-.25-25.94.1-38.9.15-5.55-2.43-6.29-6.95-6.11-6.4.26-6.63.25-6.66,6.3C279.78,233.54,279.81,241.68,279.82,249.83Zm105,141.51Q333.06,443,281.4,494.79c-1.39,1.39-2.53,3-3.79,4.54h66.83c9.82-3.14,19.22-7,27-14.18a64.15,64.15,0,0,0,17.88-28.73V387.56C387.8,388.81,386.17,390,384.78,391.34ZM111.53.07h-4.9Q82,.07,57.29.08A57,57,0,0,0,.09,57C0,73.44.07,89.9.09,106.35c0,1.91.22,3.83.29,4.91Z"/></g></g></svg>