<svg xmlns="http://www.w3.org/2000/svg" viewBox="0 0 389.36 499.48"><g id="Calque_2" data-name="Calque 2"><g id="Calque_1-2" data-name="Calque 1"><path d="M389.36,42.91V366.27c-1.8,1.72-3.63,3.41-5.39,5.17q-61.35,61.37-122.62,122.82a15.8,15.8,0,0,1-12.24,5.09c-64-.14-128-.59-191.94.13-29,.33-57.27-26-57.17-57.24C.32,341.65.14,241.05,0,140.45a13.68,13.68,0,0,1,4.35-10.56Q36.45,98.14,68.25,66.11,101.18,33.1,134,0H343.48C366.66,5.86,382.12,20,389.36,42.91ZM209.68,232.52c5.56-7.79,4.7-10.4-4.1-12.8-8.36-2.27-16.71-2.62-25,.34-8.79,3.16-13.62,9.71-13.36,17.79.22,7.22,5.09,12.65,14.06,15.41,5.55,1.7,11.21,3,16.75,4.77,3.14,1,6.43,3.18,5.37,6.65-.75,2.44-3.75,5.12-6.29,5.91-8,2.49-15.74.24-23-3.34-2.41-1.19-4.27-1.24-4.94,1.68-.6,2.62-4.79,5.64.08,8,12,5.74,24.47,7.38,37.05,2,7.39-3.17,10.8-9.61,10.42-17.64-.36-7.72-5.31-11.41-11.83-13.66-3.29-1.14-6.7-1.91-10.05-2.89s-6.9-1.57-9.9-3.2c-1.83-1-4-3.71-3.82-5.47.19-2.15,2.26-5.29,4.18-5.89A30.3,30.3,0,0,1,197.41,229C201.58,229.47,205.61,231.3,209.68,232.52Zm11.49-13.58c.94,2.5,1.4,3.89,2,5.23,7.48,17.39,15.14,34.71,22.36,52.21,1.81,4.37,4.62,4.86,8.56,4.87,4.09,0,7.18-.44,9.07-5,7.22-17.32,14.83-34.47,22.24-51.71a47,47,0,0,0,1.51-5c-10.76-2.21-11.82-1.64-15.73,7.5q-6.84,16-13.81,32a45.38,45.38,0,0,1-2.91,4.7c-1.32-2.93-2.16-4.69-2.93-6.48C246.69,246,242,234.7,237,223.46c-.78-1.76-2.48-4-4.08-4.32C229.43,218.48,225.74,218.94,221.17,218.94Zm-61,9.35a15.45,15.45,0,0,0-1.4-2c-14.59-14-42.74-9.79-52.43,7.84-7.91,14.4-4.57,30.9,8.33,41.1,11.53,9.12,32.4,8.8,43.11-.74.88-.78,2.05-2.74,1.76-3.1a29,29,0,0,0-6.25-6.27c-.75-.51-3.12.94-4.49,1.88-9.74,6.65-22.47,4.77-29.37-4.45-6.55-8.74-4.51-22.7,4.3-29.52,6.82-5.29,17.79-5.5,25.1.22,3.23,2.53,5.08,2.05,7.34-.68C157.44,231.1,158.84,229.75,160.21,228.29ZM47.24,0C45.5.56,43.78,1.18,42,1.67a57.38,57.38,0,0,0-41.9,55Q0,81.6.15,106.52a65.06,65.06,0,0,0,.75,6.6c2.39-2.12,3.92-3.33,5.29-4.69Q58.33,56.27,110.44,4.09c1.29-1.28,2.42-2.72,3.63-4.09ZM389.36,387.23a34.63,34.63,0,0,0-3.5,2.74q-52.32,52.29-104.6,104.66A51,51,0,0,0,278,498.7a37.75,37.75,0,0,0,3.9.53c19.09,0,38.19.07,57.28-.09a32.72,32.72,0,0,0,9.27-1.63c21.05-6.43,34.25-20.7,40.87-41.42Z"/></g></g></svg>