<svg xmlns="http://www.w3.org/2000/svg" viewBox="0 0 389.32 499.35"><g id="Calque_2" data-name="Calque 2"><g id="Calque_1-2" data-name="Calque 1"><path d="M0,452.44V134.08c2.05-1.94,4.14-3.84,6.13-5.84Q67.66,66.71,129.09,5.1A15.76,15.76,0,0,1,141.33,0Q237,.21,332.75,0c12.66,0,24.05,3.44,33.92,11.06,12.81,9.88,22.47,22.21,22.5,39.23q.27,155.12.15,310.24a12.51,12.51,0,0,1-4,9.66c-13.5,13.29-26.85,26.73-40.23,40.15q-44.37,44.49-88.71,89H45.88C34.11,495.83,23.52,490.5,15,481.28,7.23,473,3.09,463,0,452.44ZM215.63,233c.57-1,1.11-1.84,1.51-2.73,2.84-6.27,2.33-7.67-4.23-9.7-9.08-2.81-18.26-3.42-27.32.1-8.48,3.29-13.08,9.83-12.71,17.74.34,7.08,5.1,12.43,13.78,15.11,5.54,1.71,11.37,2.69,16.69,4.9,2.46,1,5.29,4,5.69,6.45.63,3.78-3,5.48-6.42,6.3-8.19,1.94-15.78-.08-23.08-3.66-2.19-1.07-4.07-1.17-4.63,1.5s-5,5.73-.28,8.05c12.28,6.06,25.11,7.88,37.88,1.8,7-3.31,10.49-9.3,9.84-17.46-.61-7.71-5.54-11.3-12-13.54-3-1-6.05-1.77-9.07-2.64-3.35-1-7-1.41-9.95-3.05-2.08-1.16-4.73-4.17-4.47-6,.32-2.32,2.95-5.33,5.24-6.11a25.33,25.33,0,0,1,11.18-.71C207.26,229.93,211.14,231.63,215.63,233Zm57.85,0c.55-1,1.1-1.79,1.5-2.68,2.86-6.29,2.36-7.69-4.19-9.71-9.42-2.9-18.91-3.49-28.24.47-7.87,3.34-12.16,9.75-11.82,17.33.32,7,5,12.38,13.28,15,5.54,1.73,11.23,3,16.77,4.71,3.25,1,6.47,2.7,6.32,6.72-.15,4.24-3.48,5.7-7.09,6.48-8,1.74-15.45-.25-22.6-3.75-2.16-1.06-4.07-1.23-4.63,1.46s-5,5.74-.32,8.06c12.27,6.09,25.1,7.89,37.87,1.84,7-3.31,10.51-9.29,9.87-17.46-.6-7.71-5.51-11.33-12-13.54-3.45-1.17-7-1.95-10.54-3-3.18-.93-6.54-1.56-9.41-3.11-1.73-.94-3.84-3.49-3.67-5.09.24-2.22,2.05-5.45,3.92-6.08a29.5,29.5,0,0,1,12.1-1.34C264.77,229.71,268.81,231.57,273.48,233ZM166.08,272c-2.54-2.4-4.6-5.31-7.39-6.57-1.34-.6-4.1,1.92-6.19,3.09a21.1,21.1,0,0,1-27-5.09c-5.84-7.31-5.62-19.67.49-26.84,6.57-7.71,18.66-10,27-3.84,5.24,3.9,7.58,1.76,10.84-1.76,2-2.15,1.8-3.55-.36-5.26-17.24-13.65-46.94-8.52-54.17,14.94-7,22.83,10.58,43.25,34.7,41.55C152.18,281.69,159.93,279.19,166.08,272ZM0,113.12a44.73,44.73,0,0,0,5.51-4.06Q57.4,57.25,109.19,5.33c1.23-1.23,2.34-2.58,4.37-4.84-3-.18-4.71-.38-6.44-.38C89.83.09,72.54,0,55.26.12,41.15.2,29.12,5.57,18.66,14.87,8.56,23.86,2.94,35.29,0,48.25ZM344.12,499.35c5.38-2.15,11.19-3.61,16.08-6.57C378,482,389.65,467.32,389.31,445.2c-.26-16.94,0-33.89-.07-50.83,0-1.88-.23-3.76-.43-6.89-2.29,2-3.65,3.16-4.88,4.4Q332.31,443.5,280.74,495.15a53.45,53.45,0,0,0-3.45,4.2Z"/></g></g></svg>