<svg xmlns="http://www.w3.org/2000/svg" viewBox="0 0 389.36 499.48"><g id="Calque_2" data-name="Calque 2"><g id="Calque_1-2" data-name="Calque 1"><path d="M389.36,42.91V366.27c-1.8,1.72-3.63,3.41-5.39,5.17q-61.35,61.37-122.62,122.82a15.8,15.8,0,0,1-12.24,5.09c-64-.14-128-.59-191.94.13-29,.33-57.27-26-57.17-57.24C.32,341.65.14,241.05,0,140.45a13.68,13.68,0,0,1,4.35-10.56Q36.45,98.14,68.25,66.11,101.18,33.1,134,0H343.48C366.66,5.86,382.12,20,389.36,42.91ZM230.59,229.34c-.88,2.06-1.08,3-1.65,3.76-4.13,5.19-8.33,10.34-12.52,15.49-5.87,7.22-12,14.23-17.44,21.76-1.59,2.21-1.74,6-1.32,8.83.15,1,4.12,1.88,6.35,1.91,13.78.17,27.57,0,41.35.13,3.92,0,5.23-1.47,5.23-5.29s-1.33-5.4-5.24-5.32c-8.13.18-16.27.08-24.41,0-1.67,0-3.34-.34-5.79-.61,1.41-2.07,2.15-3.35,3.07-4.48,9.33-11.46,18.79-22.81,27.94-34.41,1.72-2.18,2.56-5.24,3.19-8s-.95-4.28-4-4.27q-21.67.07-43.34,0c-3.84,0-4.13,2.41-4.15,5.32s.62,5.23,4.33,5.19c6.47-.08,13,0,19.42,0Zm-56.66.15c-7.75,17.86-14.91,34.33-22.43,51.68,4.09,0,7.05-.13,10,0,3.1.16,4.84-1.14,6.06-4,6.52-15.27,13.27-30.44,19.73-45.74,1.06-2.51,1.19-5.46,1.47-8.23.32-3.16-1.38-4.43-4.5-4.42q-19.92.1-39.85,0c-2.92,0-4.26,1.27-4.22,4.19,0,3.82.12,7.65-.05,11.46s.73,6,5.18,5.86c4-.09,6.81-.36,6.6-5.54-.06-1.73,1.78-5,3-5.07C160.75,229.2,166.69,229.49,173.93,229.49ZM47.24,0C45.5.56,43.78,1.18,42,1.67a57.38,57.38,0,0,0-41.9,55Q0,81.6.15,106.52a65.06,65.06,0,0,0,.75,6.6c2.39-2.12,3.92-3.33,5.29-4.69Q58.33,56.27,110.44,4.09c1.29-1.28,2.42-2.72,3.63-4.09ZM389.36,387.23a34.63,34.63,0,0,0-3.5,2.74q-52.32,52.29-104.6,104.66A51,51,0,0,0,278,498.7a37.75,37.75,0,0,0,3.9.53c19.09,0,38.19.07,57.28-.09a32.72,32.72,0,0,0,9.27-1.63c21.05-6.43,34.25-20.7,40.87-41.42Z"/></g></g></svg>