<svg xmlns="http://www.w3.org/2000/svg" viewBox="0 0 389.36 499.48"><g id="Calque_2" data-name="Calque 2"><g id="Calque_1-2" data-name="Calque 1"><path d="M389.36,42.91V366.27c-1.8,1.72-3.63,3.41-5.39,5.17q-61.35,61.37-122.62,122.82a15.8,15.8,0,0,1-12.24,5.09c-64-.14-128-.59-191.94.13-29,.33-57.27-26-57.17-57.24C.32,341.65.14,241.05,0,140.45a13.68,13.68,0,0,1,4.35-10.56Q36.45,98.14,68.25,66.11,101.18,33.1,134,0H343.48C366.66,5.86,382.12,20,389.36,42.91ZM239.87,232.62a28.48,28.48,0,0,0,1.52-2.59c2.9-6.29,2.4-7.75-4.07-9.76-9.41-2.93-18.91-3.53-28.24.4-7.9,3.32-12.2,9.67-11.91,17.27.27,6.94,5,12.45,13.2,15,5.06,1.59,10.27,2.69,15.35,4.24,3.85,1.17,8.23,2.55,7.78,7.62s-5,6.63-8.87,6.33a122.26,122.26,0,0,1-20.23-3.83c-2.53-.64-4.55-1.67-5.36,1.66-.64,2.62-4.72,5.63.19,7.95,11.88,5.61,24.14,7.25,36.6,2.12,7.42-3.05,11.13-9.49,10.79-17.4-.31-7.16-3.68-11.35-11.92-14.09-4.87-1.63-10-2.56-14.85-4.16-4-1.34-9.45-1.65-9-8,.27-4.1,4.13-6.54,10.69-7a19.29,19.29,0,0,1,5.92.45C231.41,229.92,235.33,231.24,239.87,232.62ZM79.67,218.91c6.72,9.44,12.57,17.89,18.69,26.14,2.34,3.16,2.61,5.67,0,8.82C95,258,92,262.37,88.89,266.68c-3.24,4.49-6.41,9-9.79,13.8,9,2,16.15,1.25,20.26-7.58,1.25-2.68,3.23-5,5-7.46,1.37-1.94,2.89-3.78,4.86-6.34,4,5.58,7.45,10.39,10.88,15.22,5.2,7.32,9.2,8.64,18.85,5.9-.7-1.16-1.28-2.29-2-3.31Q129,266,121.13,255.13c-4.49-6.14-4.49-6.11.11-12.41s9.17-12.63,13.7-19c.88-1.24,1.51-2.65,2.44-4.31-7.85-1.41-14.08-1.44-18,6.35-2.42,4.77-6.09,8.91-9.61,13.92-1.59-1.94-2.69-3.12-3.62-4.42-3.08-4.33-6-8.79-9.23-13-1.12-1.45-3-3-4.63-3.23C88.55,218.58,84.72,218.91,79.67,218.91Zm172.36.74c.93,1.44,1.73,2.84,2.66,4.16,5.09,7.17,10.11,14.41,15.37,21.46,2.23,3,2.43,5.41,0,8.4-3.34,4.12-6.35,8.51-9.46,12.81-3.27,4.52-6.48,9.08-9.83,13.78,10.39,2.66,13.9,1.48,19.39-6.37,3.27-4.7,6.45-9.46,10.31-15.13,4.33,6,8,11.09,11.58,16.19,4.6,6.53,10.34,8.19,18.38,5.06-.62-1-1.16-2-1.82-2.91q-7.87-10.91-15.78-21.78c-4.63-6.32-4.65-6.3-.17-12.41,3.14-4.28,6.3-8.55,9.38-12.88,2.34-3.29,4.57-6.66,7-10.21-9.64-2.53-12.45-1.6-17.54,5.44-1.85,2.56-3.57,5.21-5.41,7.77-1.48,2.06-3.05,4.06-4.58,6.09-1.08-.71-1.61-.9-1.88-1.27-2.73-3.76-5.47-7.51-8.1-11.34C265.82,218.21,262.7,217.05,252,219.65ZM147.19,249.79c0,8.81.09,17.62,0,26.43-.06,3.64,1.35,5,5,5q17.45-.2,34.89,0c3.91.05,4.72-1.93,4.72-5.29s-.88-5.38-4.76-5.29c-6.47.15-13,.06-19.43,0s-6.85-.33-6.86-6.69c0-13.13-.23-26.27.09-39.39.13-5.36-2.49-5.92-6.74-5.82-4,.09-7.21,0-7,5.61C147.46,232.83,147.18,241.32,147.19,249.79ZM47.24,0C45.5.56,43.78,1.18,42,1.67a57.38,57.38,0,0,0-41.9,55Q0,81.6.15,106.52a65.06,65.06,0,0,0,.75,6.6c2.39-2.12,3.92-3.33,5.29-4.69Q58.33,56.27,110.44,4.09c1.29-1.28,2.42-2.72,3.63-4.09ZM389.36,387.23a34.63,34.63,0,0,0-3.5,2.74q-52.32,52.29-104.6,104.66A51,51,0,0,0,278,498.7a37.75,37.75,0,0,0,3.9.53c19.09,0,38.19.07,57.28-.09a32.72,32.72,0,0,0,9.27-1.63c21.05-6.43,34.25-20.7,40.87-41.42Z"/></g></g></svg>