<svg xmlns="http://www.w3.org/2000/svg" viewBox="0 0 389.36 499.48"><g id="Calque_2" data-name="Calque 2"><g id="Calque_1-2" data-name="Calque 1"><path d="M134,0H343.48c23.18,5.86,38.64,20,45.88,42.91V366.27c-1.8,1.72-3.63,3.41-5.39,5.17q-61.35,61.37-122.62,122.82a15.8,15.8,0,0,1-12.24,5.09c-64-.14-128-.59-191.94.13-29,.33-57.27-26-57.17-57.24C.32,341.65.14,241.05,0,140.45a13.68,13.68,0,0,1,4.35-10.56Q36.45,98.14,68.25,66.11,101.18,33.1,134,0ZM83.58,266.52c-.87,1.85-2.24,3.84-2.67,6-.26,1.31.51,3.76,1.52,4.25,12,5.82,24.42,7.51,37,2.14,7.41-3.16,10.84-9.56,10.49-17.59-.34-7.73-5.24-11.46-11.77-13.72-3.45-1.19-7-2-10.53-3-3.18-.93-6.59-1.49-9.42-3.07-1.84-1-4-3.68-3.89-5.45.16-2.14,2.21-5.31,4.12-5.92A29.9,29.9,0,0,1,110.56,229c4.18.45,8.22,2.28,12.31,3.5,4.55-6.11,4.84-9.23.63-11-11.58-4.79-23.23-5.37-34.53.87-6.14,3.39-8.66,9.16-8.39,15.89s4.25,11,10.14,13.62a80.69,80.69,0,0,0,9,2.86c4.28,1.29,8.79,2.09,12.77,4,2,.95,4.21,4,4.09,5.91s-2.68,4.8-4.74,5.47a24.86,24.86,0,0,1-11.19,1C95,270.22,89.57,268.2,83.58,266.52ZM225.13,282.8c5.23-.95,9-1.42,12.7-2.35,8.93-2.26,14.52-8.65,14.79-16.54.31-9.21-3.16-13.66-13.57-16.92-5.69-1.79-11.64-2.87-17.17-5a9.19,9.19,0,0,1-4.94-5.83c-.67-3.46,2.07-5.6,5.42-6.68,6.76-2.18,13.18-.8,19.35,2,3,1.34,4.83,1.56,6-2,1.05-3.21,3-6.25-1.87-8.11-9.78-3.77-19.67-4.68-29.65-1.07-8.61,3.13-13.21,9.51-13.06,17.5.14,7.24,5,12.7,13.9,15.54,1.9.6,3.82,1.12,5.75,1.64,3,.81,6.15,1.44,9.14,2.41,3.68,1.18,7.83,2.52,7.56,7.31-.29,5-4.79,6.8-8.64,6.53a116.71,116.71,0,0,1-20.24-3.68c-2.72-.69-4.7-1.8-5.74,1.78-.83,2.85-4.43,6.26,1,8C212.6,279.46,219.48,281.19,225.13,282.8Zm77.61-50.18c.54-.94,1.1-1.75,1.51-2.63,2.87-6.29,2.37-7.73-4.13-9.74-9.43-2.92-18.92-3.51-28.25.44C264,224,259.7,230.4,260,238c.29,6.95,5,12.41,13.24,15,5.54,1.74,11.23,3,16.77,4.72,3.43,1.07,7.31,3.08,6.13,7.1-.73,2.49-4.14,5.13-6.87,5.92-7.86,2.28-15.4-.05-22.55-3.53-2.13-1-4.08-1.32-4.65,1.39s-5,5.76-.37,8.08c12.43,6.18,25.42,8,38.3,1.64,7-3.42,10.25-9.58,9.43-17.69-.74-7.45-5.64-10.89-11.94-13.09-2.81-1-5.72-1.69-8.59-2.53-3.81-1.13-7.8-1.88-11.36-3.55-1.74-.81-3.87-3.45-3.71-5.06.22-2.22,2-5.46,3.88-6.09a29.3,29.3,0,0,1,12.09-1.38C294,229.35,298.05,231.21,302.74,232.62Zm-114.33,3.27c2.11-2,4-3.78,6-5.52,2.1-1.89,1.38-3.37-.49-4.86-17.48-14-47.55-8.3-54.57,15.67-4.08,13.94,1.77,28.48,14.33,36.16,11.53,7,30.93,5.71,40.19-3,.88-.83,1.21-4,.75-4.23-2.7-1.6-3.61-7.72-8.37-4.19a23.33,23.33,0,0,1-15.78,4.8c-11.11-.57-18.74-9-18.67-21,.06-11.62,7.77-19.89,18.7-20.49C177.34,228.87,183.08,231.24,188.41,235.89ZM47.24,0C45.5.56,43.78,1.18,42,1.67a57.38,57.38,0,0,0-41.9,55Q0,81.6.15,106.52a65.06,65.06,0,0,0,.75,6.6c2.39-2.12,3.92-3.33,5.29-4.69Q58.33,56.27,110.44,4.09c1.29-1.28,2.42-2.72,3.63-4.09ZM389.36,387.23a34.63,34.63,0,0,0-3.5,2.74q-52.32,52.29-104.6,104.66A51,51,0,0,0,278,498.7a37.75,37.75,0,0,0,3.9.53c19.09,0,38.19.07,57.28-.09a32.72,32.72,0,0,0,9.27-1.63c21.05-6.43,34.25-20.7,40.87-41.42Z"/></g></g></svg>