<svg xmlns="http://www.w3.org/2000/svg" viewBox="0 0 221.23 217.38"><g id="Calque_2" data-name="Calque 2"><g id="Calque_1-2" data-name="Calque 1"><path d="M103.76,217.38h-11c-5.64-3.54-7.41-8.64-7.31-15.23.3-19.24.13-38.49.1-57.73a55.65,55.65,0,0,0-12.86-36.23C49.72,79.88,27,51.29,4.32,22.73a19.29,19.29,0,0,1-4-7.81C-1.39,6.43,4.53.15,13.81.14,77.35.12,140.9.22,204.45,0c7,0,12.72,1.38,16.78,7.35v10c-1.36,1.88-2.66,3.81-4.1,5.62Q182.66,66,148.18,109c-7.62,9.5-12,20.11-11.6,32.5.2,6.78.18,13.58,0,20.37-.26,9.17-1.52,18.12-6.1,26.36C123.89,200.12,113.39,208.34,103.76,217.38Z"/></g></g></svg>