<?xml version="1.0" encoding="utf-8"?>
<!-- Generator: Adobe Illustrator 25.2.0, SVG Export Plug-In . SVG Version: 6.00 Build 0)  -->
<svg version="1.1" id="Calque_1" xmlns="http://www.w3.org/2000/svg" xmlns:xlink="http://www.w3.org/1999/xlink" x="0px" y="0px"
	 viewBox="0 0 1000 1000" style="enable-background:new 0 0 1000 1000;" xml:space="preserve">
<path d="M497.7,999.8c-22,1.3-41.8-6-60.9-16.2c-28.7-15.3-57.3-30.8-86-46.2c-42.3-22.9-84.6-45.8-127-68.7
	c-24-13-47.8-25.7-71.8-38.7c-2.4-1.2-4.8-2.4-6.8-4.2c-5.5-4.6-6.2-9.4-1.7-15.1c4-5.4,8.2-10.6,12.9-15.4
	C349,602.5,541.7,409.6,734.6,216.9c2.8-2.8,5.8-5.6,9.2-7.6c10.3-5.9,19.4-3.6,24.4,7.1c3.5,7.5,6,15.8,7.5,24.1
	c5.8,34.6,11,69.2,16.5,103.8c6,37.6,12.3,75.3,18.1,113c5.9,38.2,11,76.5,16.7,114.6c5.8,37.8,12.2,75.3,18.1,113
	c4.7,29.9,9.5,59.6,13.5,89.5c3.9,29.1-4.7,48.2-31.7,63.1c-30.4,16.7-61.1,33.2-91.6,49.8c-41.1,22.4-82.2,44.7-123.3,66.8
	c-21.6,11.7-43.5,22.6-65.2,34.2C531.4,996.5,515.3,1000.9,497.7,999.8z M157.2,723.1c5.5-9.6,10.7-19.6,16.1-29.2
	c22.8-41.2,45.8-82.5,68.4-123.9c18.2-33.2,36-66.6,54.1-99.8c25.3-46.5,50.9-92.9,76.3-139.4c7.2-13.3,15-26.3,22.2-39.6
	c8.7-15.9,17.1-32.1,25.8-48.6c-12.5-22.9-24.8-45-36.7-67.4c-24.9-46.7-49.4-93.8-74.6-140.5c-5.6-10.4-12.7-20.4-20.5-29.5
	c-6.3-7.5-14.3-6.8-20.5,0.8c-3.2,4-5.6,9.1-6.7,14.2c-3.1,14.7-5.2,29.7-7.6,44.6c-2.9,17.5-5.8,35.1-8.6,52.5
	c-5.1,32-10,64-15.1,95.9c-3.9,24.5-7.8,49-11.8,73.5c-4.2,25.8-8.4,51.7-12.7,77.4c-2.8,17.5-5.9,35-8.6,52.5
	c-4.8,31.1-9.2,62.3-14.2,93.3c-4.8,30.7-10.3,61.2-15.3,91.9c-5.2,31.5-10.7,62.9-15.1,94.6c-1.5,10.2-6.4,20.6-1.3,33.6
	C153.9,726.9,156,725.3,157.2,723.1z M148,786.9c122.4-122.8,244.7-245.8,367.8-369.5c-9.6-17.9-18.9-35.6-28.4-53.3
	c-9.4-17.3-19-34.3-28.3-51.6c-9.2-17.4-17.8-35.1-29.1-52.1c-1.9,2.4-2.8,3.3-3.5,4.4c-17.8,31.9-35.6,63.8-53.3,95.6
	c-27.9,50.2-55.7,100.4-83.4,150.8c-20.2,36.7-40.2,73.4-60.5,110c-28.4,50.9-56.9,101.8-85.4,152.7c-2.3,4.2-5.5,8.6-0.5,13.8
	C144.6,787.6,146.9,787.8,148,786.9z M605.1,323.8c-2.4-4.8-5.5-11.2-8.8-17.5c-19-34.7-38.2-69.5-57.5-104.1
	c-6.4-11.7-12.9-23.6-20.6-34.3c-10-13.8-27.1-13-37,0.8c-2.5,3.6-4.8,7.5-7.1,11.4c-9.8,17.5-19,35.2-29.3,52.5
	c-4,6.6-4.3,11.1-0.3,18.1c20.1,35.2,39.4,70.8,59.1,106.2c8.2,14.7,16.6,29.3,24.8,43.7C554.2,374.7,579.4,349.6,605.1,323.8z"/>
</svg>
