<?xml version="1.0" encoding="utf-8"?>
<!-- Generator: Adobe Illustrator 25.2.0, SVG Export Plug-In . SVG Version: 6.00 Build 0)  -->
<svg version="1.1" id="Calque_1" xmlns="http://www.w3.org/2000/svg" xmlns:xlink="http://www.w3.org/1999/xlink" x="0px" y="0px"
	 viewBox="0 0 1000 1000" style="enable-background:new 0 0 1000 1000;" xml:space="preserve">
<path d="M1000,702.4c-0.9,31-2.7,61.6-11.2,91.3c-3,10.4-6.9,20.7-12.1,30.2c-14.1,26.1-39.9,37.1-69.1,30.5
	c-24.5-5.5-44.9-18.8-62.4-35.7c-22.7-22-43.7-45.8-65.3-68.9c-6.4-6.9-12.2-14.3-18.3-21.4c-23.1-26.9-52.5-42-87.6-44.7
	c-37-2.9-74.1-5.5-111.2-5.6c-66.8-0.2-133.7,1.1-200.5,2.6c-18.2,0.4-36.5,3-54.5,6.2c-29.3,5.2-53,20.5-72.7,42.9
	c-24.4,27.9-48.7,56.1-74.6,82.6c-18.7,19.1-40.6,34.8-67.5,41.5c-31.3,7.8-57.3-3.5-72.3-31.9C5.8,793.7,1.8,762.8,0.5,731.5
	c-3.2-78.3,8.6-154.9,26.2-230.9c16.7-72.3,35.2-144.1,65.8-212.1c15.3-34.1,33.6-66.5,61-92.3c51.8-48.7,112.8-62.5,181.5-45.7
	c32.6,8,65.1,17.1,98.2,22.8c66.5,11.4,132,4.5,196.9-13.3c25.2-6.9,51-14.5,76.8-15.8c64-3.1,116.7,21.9,156.6,72.4
	c31.2,39.4,50.5,84.9,66.4,131.9c28.4,84,49.4,170,61.7,257.8C996,638.2,997.3,670.4,1000,702.4z M127.2,428
	c-0.1,49.1,37.8,88.1,86.6,89c47.4,0.9,87.5-39.2,88-87.8c0.4-48.7-38.4-88.3-86.8-88.6C166.2,340.3,127.3,379.1,127.2,428z
	 M670.6,333.2c-0.3,24.4,18.2,43.7,42.2,44c23.1,0.3,42.5-18.5,43-41.7c0.5-24.6-17.5-44-41.4-44.6
	C690.3,290.3,670.9,309.1,670.6,333.2z M619.4,385.9c-23.6-0.1-42.7,18.4-43.1,41.8c-0.4,24.6,18.1,43.7,42.6,43.8
	c24,0.2,43.8-19.5,43.5-43.3C662.1,404.9,642.9,386,619.4,385.9z M807.4,385.9c-23.5,0-42.7,18.7-43.1,42.1
	c-0.4,24.1,18.8,43.5,43,43.5c23.5,0,42.7-18.7,43-42C850.8,405.5,831.5,385.9,807.4,385.9z M755.8,523.2c0-24-18.3-42.6-42-42.9
	c-24.6-0.3-43.2,18.2-43.2,43c0,24.1,18,42.5,41.9,42.8C737.2,566.4,755.8,547.9,755.8,523.2z"/>
</svg>
