<?xml version="1.0" encoding="utf-8"?>
<!-- Generator: Adobe Illustrator 25.2.0, SVG Export Plug-In . SVG Version: 6.00 Build 0)  -->
<svg version="1.1" id="Calque_1" xmlns="http://www.w3.org/2000/svg" xmlns:xlink="http://www.w3.org/1999/xlink" x="0px" y="0px"
	 viewBox="0 0 32 32" style="enable-background:new 0 0 32 32;" xml:space="preserve">
<path d="M31.4,14.6l-14-14c-0.8-0.8-2.1-0.8-2.9,0c0,0,0,0,0,0l-2.9,2.9l3.7,3.7c1.3-0.4,2.7,0.2,3.1,1.5c0.2,0.5,0.2,1.1,0,1.6
	l3.5,3.5c1.3-0.4,2.7,0.2,3.1,1.5s-0.2,2.7-1.5,3.1c-1.3,0.4-2.7-0.2-3.1-1.5c-0.2-0.6-0.2-1.2,0.1-1.7l-3.3-3.3v8.7
	c1.2,0.6,1.7,2.1,1.1,3.3c-0.6,1.2-2.1,1.7-3.3,1.1c-1.2-0.6-1.7-2.1-1.1-3.3c0.3-0.5,0.7-1,1.3-1.2v-8.8c-1.3-0.5-1.9-1.9-1.3-3.2
	c0,0,0,0,0,0l-3.6-3.6l-9.6,9.6c-0.8,0.8-0.8,2.1,0,2.9c0,0,0,0,0,0l14,14c0.8,0.8,2.1,0.8,2.9,0c0,0,0,0,0,0l13.9-13.9
	C32.2,16.7,32.2,15.4,31.4,14.6C31.4,14.6,31.4,14.6,31.4,14.6"/>
</svg>
