<?xml version="1.0" encoding="utf-8"?>
<!-- Generator: Adobe Illustrator 25.2.0, SVG Export Plug-In . SVG Version: 6.00 Build 0)  -->
<svg version="1.1" id="Calque_1" xmlns="http://www.w3.org/2000/svg" xmlns:xlink="http://www.w3.org/1999/xlink" x="0px" y="0px"
	 viewBox="0 0 1000 1000" style="enable-background:new 0 0 1000 1000;" xml:space="preserve">
<path d="M130,161.8c-3.8,10-7.7,20-11.5,30c-26.8,70.6-32.1,143.1-18,216.9c18.2,94.9,59.1,178.7,124.1,250.6
	c67.8,75,149,130.1,244.6,163.5c44,15.3,89.5,23.6,136.2,26.6c68.7,4.4,135.9-1.7,201.1-24.2c47.8-16.5,90.5-41.7,127.5-76.4
	c10.3-9.7,20.7-19.3,31.1-28.8c3-2.7,6.4-4.9,9.6-7.3c0.7,0.6,1.5,1.2,2.2,1.9c-4.5,8.1-9,16.2-13.6,24.3
	C918.1,819.1,856.2,882.6,773.7,925c-50.3,25.9-104.2,41.2-160.3,46.8c-81.1,8.1-161.5,4.3-239.2-23
	c-67.6-23.8-127.7-60.9-182-107.2c-49.1-41.9-91.3-89.8-123-146.3C19.7,607.2-6.4,513.1,1.4,411.6C6.6,343,32,281.2,73.7,226.4
	c15.8-20.8,32.9-40.7,49.4-61c1.4-1.8,3.4-3.1,5.1-4.7C128.8,161.1,129.4,161.4,130,161.8z M382,71.3c-3.9,5.2-7.9,10.4-11.7,15.7
	c-22.4,31.4-46,61.9-60.5,98.2c-27.1,67.8-24.6,136.1-3.7,204.7c21.3,69.9,60.7,128.2,116,175.5c39.7,34,83.3,62.6,133,80.1
	c60.7,21.3,123.4,24.3,186.6,15.4c119.9-16.9,205.9-79.7,256.4-190c1-2.2,1.3-4.7,2-7c-0.9-0.6-1.8-1.2-2.7-1.7
	c-12.1,12.3-23.7,25.1-36.2,36.9c-31.7,29.8-68.7,50.7-110.2,63.8c-55.4,17.6-111.4,16.8-167.9,5.8c-84.8-16.5-158.8-53-218.6-116.1
	c-31.4-33.1-56.3-70.9-76.2-111.8c-21-43.2-33.2-88.7-33.3-136.9c-0.1-42.3,10.2-82.6,26.7-121.4c1.3-3.1,2.5-6.2,3.7-9.3
	C384.1,72.5,383,71.9,382,71.3z M966,284.3c-4.3,3.5-8.9,6.7-13,10.4c-27.5,25-59.7,39.3-96.9,40.4c-86,2.5-160.3-24-217.4-90.6
	c-27.1-31.6-47-67.1-55.3-108.4c-6.3-31.2-4.1-61.8,4.8-92.2c1.8-6,3-12.2,4.5-18.3c-1-0.4-1.9-0.8-2.9-1.2
	c-4.4,5.8-8.7,11.6-13.1,17.5C529.3,106.2,525.3,175,558.2,246c42.3,91.2,145.5,157.3,253.3,145.4c57-6.3,103.3-30.3,138.2-75.7
	c7-9.2,12.8-19.2,19.2-28.9C967.9,286,966.9,285.1,966,284.3z"/>
</svg>
