<?xml version="1.0" encoding="utf-8"?>
<!-- Generator: Adobe Illustrator 25.2.0, SVG Export Plug-In . SVG Version: 6.00 Build 0)  -->
<svg version="1.1" id="Calque_1" xmlns="http://www.w3.org/2000/svg" xmlns:xlink="http://www.w3.org/1999/xlink" x="0px" y="0px"
	 viewBox="0 0 1000 1000" style="enable-background:new 0 0 1000 1000;" xml:space="preserve">
<path d="M808.6,442.6c-240-73.1-463.2,147.2-390.1,390c-107.5,0-214.6,0-321.4,0c-4.9,20.3,16,46,40,47.7c4.9,0.4,9.8,0.3,14.8,0.3
	c91.5,0,182.9,0.2,274.4-0.2c9.4,0,14.2,2.8,19.3,10.9c12.8,20.4,27.2,39.8,41.4,60.1c-1.5,0.2-4.4,1-7.3,1
	c-110.7,0.1-221.5,0.3-332.2-0.1C88.1,952,42.4,917.9,28.2,864.4c-2.4-9-3.9-18.6-3.9-27.9c-0.2-240.4-0.3-480.7-0.1-721.1
	C24.3,56.4,72.6,5.4,131.7,1c7.4-0.5,14.7-0.9,22.1-0.9c175.6,0,351.1,0,526.7-0.1c25.5,0,49.9,3.6,71.8,17.7
	c35.6,23,56.1,55.5,56.4,98c0.8,106.6,0.3,213.3,0.3,319.9C809,437.6,808.7,439.6,808.6,442.6z M405.4,143.3
	c-63.6,0-127.2-0.1-190.7,0.1c-26.8,0.1-47,19.3-48.1,45.8c-0.7,16.8-0.6,33.6,0,50.4c0.7,20.7,14.4,38.6,33.7,43.8
	c7.8,2.1,16.2,2.2,24.4,2.3c119.8,0.1,239.6,0.1,359.3,0.1c4.5,0,9,0,13.5-0.3c26.6-2.2,44.4-21.1,44.8-47.7
	c0.2-15.6,0.2-31.2,0-46.8c-0.1-4.5-0.5-9-1.7-13.3c-6.1-21.4-23.5-34.3-46.8-34.3C530.9,143.2,468.2,143.3,405.4,143.3z
	 M714.2,476.4c144.7,0,261.9,117.3,261.7,262.2c-0.1,143.9-117.6,261.3-261.5,261.4c-145.1,0.2-262.3-117.5-262.1-263.1
	C452.6,592.8,569.6,476.4,714.2,476.4z M642.6,737C642.6,737,642.6,737,642.6,737c0.1,29.5,0,59,0.1,88.6c0,12.4,4.9,22.4,16.3,28.2
	c11.1,5.6,21.2,2.7,31.1-4c41.9-28.8,84-57.2,125.9-86c23.5-16.2,23.1-39.6-1-55.6c-27-17.9-54.1-35.5-81.2-53.3
	c-16.1-10.5-32-21.5-48.5-31.4c-17.6-10.5-38.6-0.1-41.8,20.1c-0.8,4.8-0.8,9.8-0.8,14.7C642.5,684.6,642.6,710.8,642.6,737z"/>
</svg>
