<?xml version="1.0" encoding="utf-8"?>
<!-- Generator: Adobe Illustrator 25.2.0, SVG Export Plug-In . SVG Version: 6.00 Build 0)  -->
<svg version="1.1" id="Calque_1" xmlns="http://www.w3.org/2000/svg" xmlns:xlink="http://www.w3.org/1999/xlink" x="0px" y="0px"
	 viewBox="0 0 1000 1000" style="enable-background:new 0 0 1000 1000;" xml:space="preserve">
<path d="M996,499.9c0,140.3,0.1,280.5,0,420.8c0,47.9-26.7,76-74.6,79c-6.9,0.4-13.9,0.2-20.9,0.2c-266.6,0-533.2,0-799.8,0
	c-9.6,0-19.2,0.3-28.7-0.9c-41.8-5.2-67-33.3-67.7-75.7c-0.5-30.5-0.1-61-0.1-91.5c0-246.6,0-493.1,0-739.7c0-7.8-0.4-15.7,0.2-23.5
	C7.2,34.1,30,8.5,64.3,2.3c11-2,22.5-2.2,33.8-2.2c268.3-0.1,536.7-0.1,805-0.1c7.8,0,15.7-0.3,23.5,0.4c43.3,4.1,69.3,32.4,69.4,76
	C996.1,217.6,996,358.7,996,499.9z M537.6,443.2c0-14.7-0.5-26.9,0.1-39c0.7-12.7-2.8-19.3-17.3-19c-38.3,0.7-76.7,0.7-115,0
	c-14.8-0.3-17,6.8-17,19.3c0.2,137.7,0.2,275.3-0.3,413c-0.1,15.3,5.8,19.2,19.9,18.9c34.8-0.7,69.7-0.1,104.5-0.2
	c24.8-0.1,25-0.2,25-26.3c0.1-74.9,0.2-149.9,0-224.8c-0.1-29.6,9.2-54.7,32.3-73.9c42.1-34.9,101.9-18.8,117.6,33
	c6.2,20.4,8.6,42.7,9,64.1c1.1,67.1,0.4,134.2,0.4,201.3c0,26.3,0.2,26.4,24.9,26.5c34,0.1,68,0.2,101.9,0
	c21.4-0.1,21.7-0.4,21.8-21.4c0.2-72.3,0.5-144.6-0.2-216.9c-0.3-26.9-1.1-54.2-5.7-80.5c-10.7-61.2-41.2-109.6-102.2-131.1
	c-69.2-24.5-149.6-10.6-191.9,52.6C544.7,439.8,542.7,440.3,537.6,443.2z M154.2,611.6c0,67.9,0.4,135.8-0.3,203.7
	c-0.2,15.6,3.8,21.6,20.3,21.1c37.4-1.1,74.9-0.9,112.3-0.1c15.1,0.3,19.4-5.6,19.3-19.9c-0.3-136.7-0.4-273.4,0.1-410.1
	c0.1-15.7-4.7-21.7-20.9-21.3c-35.7,0.9-71.4,0.1-107.1,0.3c-23.5,0.1-23.6,0.3-23.7,25.1C154.2,477.5,154.2,544.5,154.2,611.6z
	 M229.1,323.2c42.9,0.2,74.3-21.4,83-57c13.4-54.5-24.4-98.4-83.8-97.4c-49.5,0.9-81.8,32.4-80.9,79
	C148.2,293.1,180.6,323,229.1,323.2z"/>
</svg>
