<?xml version="1.0" encoding="utf-8"?>
<!-- Generator: Adobe Illustrator 25.2.0, SVG Export Plug-In . SVG Version: 6.00 Build 0)  -->
<svg version="1.1" id="Calque_1" xmlns="http://www.w3.org/2000/svg" xmlns:xlink="http://www.w3.org/1999/xlink" x="0px" y="0px"
	 viewBox="0 0 1000 1000" style="enable-background:new 0 0 1000 1000;" xml:space="preserve">
<path d="M781.1,37c73.1,73.4,145.8,146.3,217.8,218.5C928,326.7,855.5,399.6,781.1,474.4c0-5.5,0-9.2,0-12.9c0-45.5,0-91,0-136.5
	c0-12,0-12-11.8-12.1c-44,0-87.9,0.3-131.9-0.2c-14.1-0.2-25,4.7-35.1,14.2c-28.4,26.9-52.9,57.1-75.5,88.8
	c-54.2,76.1-107.4,152.9-161.4,229.1c-21.9,30.8-43.6,61.9-67.7,90.9c-39.7,47.8-92.2,70.6-153.9,71.5c-44.3,0.7-88.6,0.1-133,0.1
	c-10.7,0-10.8,0-10.8-10.5c0-34.6,0-69.2,0-103.7c0-9.3,0.1-9.4,9.6-9.4c48.7,0,97.4-0.5,146,0.2c16.7,0.3,29.7-4.8,39.7-18
	c21.1-28.2,43-55.9,63.4-84.6c57.5-80.9,113.9-162.5,171.7-243.3c25-34.9,51.9-68.4,84.2-97.1c28.5-25.3,61-43.2,99.1-49.4
	c10-1.6,20.2-2,30.4-2.1c41.4-0.2,82.8-0.1,124.2-0.1c12.8,0,12.8,0,12.8-13.3c0-43,0-85.9,0-128.9C781.1,43.7,781.1,40.2,781.1,37z
	 M1000,743.7c-71.6-71.4-144-144.6-217-217.1c-0.7,0.5-1.3,0.9-2,1.4c0,4,0,7.9,0,11.9c0,44.1,0,88.1,0,132.2
	c0,11.5-0.1,11.6-11,11.6c-45.1,0-90.1-0.2-135.2,0.1c-11.2,0.1-20.8-3.1-28.6-11c-12.3-12.4-25.2-24.3-36.3-37.7
	c-19.4-23.5-37.7-48.1-56.4-72.2c-2.8-3.5-5.5-7.1-8.5-10.8c-1.8,1.9-2.7,2.6-3.3,3.5c-22.5,32.7-44.8,65.4-67.5,97.9
	c-3.7,5.2-2,8.4,1.3,12.2c20.9,24.7,40.5,50.6,62.7,74.1c42.3,44.7,93.5,70.1,156.8,67.9c38.1-1.3,76.3-0.3,114.4-0.2
	c11.3,0,11.4,0.1,11.4,11.2c0,44.8,0,89.6,0,134.3c0,3.5,0.3,6.9,0.5,10.1C854.6,889.7,927.3,816.7,1000,743.7z M280.7,441
	c23.7-33.5,47.4-67.1,71.2-100.5c2.7-3.8,2.1-6.2-0.4-9.4c-19-24.8-36.6-50.8-57-74.3c-36.2-41.7-83-64.7-138.2-66.8
	c-48.6-1.9-97.3-0.7-145.9-0.8c-10.3,0-10.4,0.1-10.4,11c0,33.8,0,67.7,0,101.5c0,11.1,0,11.1,11.2,11.1c48.3,0,96.6,0.4,144.8-0.2
	c16.6-0.2,29.5,4.6,39.5,18.1c21.4,28.9,43.2,57.5,64.7,86.3c6.2,8.4,11.9,17.1,17.8,25.6C279.5,441.7,280.3,441.5,280.7,441z"/>
</svg>
