<?xml version="1.0" encoding="utf-8"?>
<!-- Generator: Adobe Illustrator 25.2.0, SVG Export Plug-In . SVG Version: 6.00 Build 0)  -->
<svg version="1.1" id="Calque_1" xmlns="http://www.w3.org/2000/svg" xmlns:xlink="http://www.w3.org/1999/xlink" x="0px" y="0px"
	 viewBox="0 0 1000 1000" style="enable-background:new 0 0 1000 1000;" xml:space="preserve">
<path d="M0.3,500c0-112.5,0.5-225-0.3-337.4c-0.3-43,31.1-80,74.9-84.7c22.5-2.5,42.3,4.4,60.6,17.4
	c57.5,40.9,115.2,81.5,172.8,122.3c100.3,70.9,200.5,141.9,300.8,212.6c19.5,13.8,32.9,31.3,36.7,55.1c5.7,35.8-6.9,64.2-36.3,85.1
	c-38,27-76.2,53.8-114.4,80.7c-119.9,84.6-239.8,169.1-359.7,253.7c-27.7,19.5-57.1,24.3-88,9.5c-30.7-14.8-47.2-39.9-47.3-74.3
	C0.1,726.6,0.3,613.3,0.3,500z M999.8,83.1c-0.1-58.5-57.3-98-111.9-77.9c-27,10-54.6,37.6-54.5,84.6c0.4,273.5,0.2,547,0.3,820.4
	c0,6.8,0.4,13.6,1.4,20.2c8.9,56.8,73.8,87.7,123.2,58.3c27.9-16.6,41.7-41.7,41.6-74.4c-0.1-137.9,0-275.9,0-413.8
	C999.9,361.4,1000.1,222.2,999.8,83.1z"/>
</svg>
