<?xml version="1.0" encoding="utf-8"?>
<!-- Generator: Adobe Illustrator 25.2.0, SVG Export Plug-In . SVG Version: 6.00 Build 0)  -->
<svg version="1.1" id="Calque_1" xmlns="http://www.w3.org/2000/svg" xmlns:xlink="http://www.w3.org/1999/xlink" x="0px" y="0px"
	 viewBox="0 0 1000 1000" style="enable-background:new 0 0 1000 1000;" xml:space="preserve">
<path d="M0,1000.3C0,665.8,0,334.7,0-0.5c236.7,167,471.4,332.7,708.9,500.4C471.9,667.2,237.1,833,0,1000.3z M845.6-1.1
	c-8.9,0-12.5,3.3-11.8,12.1c0.4,4.8,0.1,9.6,0.1,14.4c0,316.4,0,632.8,0,949.2c0,3.4,0.4,6.9-0.1,10.3c-1.8,12.6,3.2,16.6,15.9,16.3
	c40.4-0.7,80.8-0.3,121.2-0.3c9.4,0,18.8,0,29.1,0c0-334.7,0-667.2,0-1001.8C946.9-1,896.3-0.9,845.6-1.1z"/>
</svg>
