<?xml version="1.0" encoding="utf-8"?>
<!-- Generator: Adobe Illustrator 25.2.0, SVG Export Plug-In . SVG Version: 6.00 Build 0)  -->
<svg version="1.1" id="Calque_1" xmlns="http://www.w3.org/2000/svg" xmlns:xlink="http://www.w3.org/1999/xlink" x="0px" y="0px"
	 viewBox="0 0 1000 1000" style="enable-background:new 0 0 1000 1000;" xml:space="preserve">
<path d="M560.3,212.3c-114.2,0-228.4,0-342.5,0c-26.3,0-49.8,7.4-69.5,25.2c-22.8,20.7-31.6,47-31.5,77.2
	c0.2,55.6,0.1,111.1,0.1,166.7c0,62.8,0,125.7,0,188.5c0,3.1,0,6.1,0,9.2c-0.1,12.2-0.1,12.2-11.8,12.3c-16.9,0.1-33.7,0-50.6,0
	c-8.4,0-16.9-0.2-25.3,0c-5.9,0.2-8.4-2.3-8-8.1c0.2-2.3,0-4.6,0-6.9c0-120.3,0.1-240.6-0.1-360.9c0-26.7,2.8-52.9,13.4-77.5
	c29.9-69.2,81.9-110,157.2-119.8c9.5-1.2,19.1-1.6,28.6-1.6c152.1-0.1,304.2-0.1,456.3-0.1c16.5,0,14.7,1.8,14.7-14.7
	c0.1-23.8,0-47.5,0.1-71.3c0-4.2,0.1-8.5,1.3-12.5C697.4,1.3,714.9-5.2,729,4.6c8.1,5.7,15.6,12.4,23.2,18.8
	c56.8,47.3,113.6,94.7,170.4,142.1c3.2,2.7,6.5,5.4,9.1,8.7c5.7,7.2,6.7,15.4,3.1,23.8c-3.6,8.4-10.3,13.2-19.4,14.2
	c-3.8,0.4-7.7,0.2-11.5,0.2C789.4,212.3,674.8,212.3,560.3,212.3z M95.7,787.4c-3.4,0-6.9-0.2-10.3,0.1c-9.7,0.8-16.6,5.8-20.2,14.7
	c-3.7,8.9-2.2,17.3,4.2,24.6c2.3,2.6,5,4.8,7.6,7C134,881.4,191.1,929,248.2,976.6c7.4,6.1,14.7,12.3,22.2,18.2
	c17.2,13.4,35.5-1.2,37.8-15.5c0.5-3.4,0.5-6.9,0.5-10.3c0-25.3,0-50.6,0.1-75.9c0-9.5,0.2-9.5,9.4-9.7c3.1-0.1,6.1,0,9.2,0
	c151.3,0,302.7,0,454,0c20.4,0,40.4-2.5,60.1-8c68.6-19.2,137.4-86.4,137.5-184.6c0.1-123.8,0.1-247.5,0-371.3
	c0-10.8-0.2-11-10.8-11.1c-24.5-0.1-49-0.1-73.6,0c-11.2,0-11.4,0.2-11.4,11.6c-0.1,39.1,0,78.2,0,117.2c0,82.4-0.1,164.8,0.1,247.1
	c0.1,27.5-6.9,52.2-26.1,72.6c-20.4,21.6-46,30.6-75.3,30.6c-113.8-0.1-227.6,0-341.4,0C325.5,787.4,210.6,787.4,95.7,787.4z
	 M548,319.5c0-11-0.1-11.1-10.5-11.2c-26-0.1-52.1-0.1-78.1,0.1c-3.7,0-7.9,0.4-11.1,2c-28.9,14.1-57.5,28.6-86.3,42.9
	c-4.3,2.1-6.1,5-5.9,9.9c0.3,9.9,0,19.9,0.1,29.9c0.1,10.7,0.2,10.9,10.8,10.9c22.6,0.1,45.2-0.1,67.8,0.1
	c19.8,0.1,17.4-2.1,17.4,16.9c0.1,86.1,0,172.3,0,258.4c0,12,0.1,12,11.9,12.1c23.7,0.1,47.5,0,71.2,0c12.7,0,12.7-0.1,12.7-12.4
	c0-59.7,0-119.4,0-179.2C548,439.7,548,379.6,548,319.5z"/>
</svg>
