<?xml version="1.0" encoding="utf-8"?>
<!-- Generator: Adobe Illustrator 25.2.0, SVG Export Plug-In . SVG Version: 6.00 Build 0)  -->
<svg version="1.1" id="Calque_1" xmlns="http://www.w3.org/2000/svg" xmlns:xlink="http://www.w3.org/1999/xlink" x="0px" y="0px"
	 viewBox="0 0 1000 1000" style="enable-background:new 0 0 1000 1000;" xml:space="preserve">
<path d="M437.3,872.4c0-248.3,0-496.4,0-742.2c123.3,123.5,247.5,247.8,371,371.4C686.7,623.2,562.5,747.4,437.3,872.4z
	 M367.8,500.9C245.5,378.4,122,254.8,0,132.6c0,244,0,491,0,735.6C123.6,744.8,247.3,621.2,367.8,500.9z M1000,145.4
	c0-4.8-0.2-9.6,0-14.4c0.2-6.1-2.4-8.6-8.5-8.6c-35.4,0.1-70.8-0.2-106.2,0.4c-3,0-7.2,4.6-8.6,8c-1.5,3.6-0.4,8.3-0.4,12.5
	c0,237.7,0,475.4,0,713.1c0,4.2,0.1,8.4,0,12.6c-0.1,6,2.6,8.6,8.7,8.6c35.4-0.1,70.8-0.1,106.2,0c5.8,0,9.1-1.9,8.8-8.3
	c-0.2-4.8,0-9.6,0-14.4c0-118.3,0-236.5,0-354.8S1000,263.6,1000,145.4z"/>
</svg>
