<?xml version="1.0" encoding="utf-8"?>
<!-- Generator: Adobe Illustrator 25.2.0, SVG Export Plug-In . SVG Version: 6.00 Build 0)  -->
<svg version="1.1" id="Calque_1" xmlns="http://www.w3.org/2000/svg" xmlns:xlink="http://www.w3.org/1999/xlink" x="0px" y="0px"
	 viewBox="0 0 1000 1000" style="enable-background:new 0 0 1000 1000;" xml:space="preserve">
<path d="M561.7,872.3c-124.8-124.7-248.1-248-369.9-369.7c123.6-123.5,247.4-247.3,369.9-369.7C561.7,376.2,561.7,623.6,561.7,872.3
	z M1000,133.2C877.8,255.5,754,379.3,630.5,502.9C752,624.4,875.4,747.7,1000,872.2C1000,623.6,1000,376.1,1000,133.2z M124.5,145.8
	c0-4.4-0.2-8.7,0-13.1c0.2-6.2-2.6-8.7-8.8-8.7c-35.4,0.1-70.9,0.2-106.3-0.1c-7.2-0.1-9.9,2.8-9.3,9.6c0.3,3.2,0,6.5,0,9.8
	c0,237.8,0,475.6,0,713.3c0,3.8,0.2,7.6,0,11.5c-0.2,5.5,2.1,7.8,7.7,7.8c36-0.1,72-0.1,108,0c6.3,0,8.9-2.6,8.7-8.8
	c-0.2-4.4,0-8.7,0-13.1c0-117.8,0-235.6,0-353.4C124.5,382.5,124.5,264.1,124.5,145.8z"/>
</svg>
