<?xml version="1.0" encoding="utf-8"?>
<!-- Generator: Adobe Illustrator 25.2.0, SVG Export Plug-In . SVG Version: 6.00 Build 0)  -->
<svg version="1.1" id="Calque_1" xmlns="http://www.w3.org/2000/svg" xmlns:xlink="http://www.w3.org/1999/xlink" x="0px" y="0px"
	 viewBox="0 0 1000 1000" style="enable-background:new 0 0 1000 1000;" xml:space="preserve">
<path d="M103.8,656.6c24.8,0,49.5-0.1,74.3,0.1c6.1,0.1,10.7-1.5,15-6.2c80-86.1,160.1-172.1,240.2-258.1
	c60-64.4,120.2-128.7,180-193.3c7.7-8.3,16-12.1,27.3-12c33,0.5,66.1,0.2,99.1,0.2c9.8,0,9.9-0.1,9.9-10.1c0-22.3,0-44.6,0-66.9
	c0-20.9,9.4-36.1,28.4-44.2c18.9-8,36.9-4.8,51.6,9.9c52,51.7,103.9,103.5,155.4,155.7c19.8,20,19.8,47.6,0,67.6
	c-51.5,52.1-103.4,104-155.4,155.7c-14.7,14.6-32.5,18.3-51.5,10.1c-18.9-8.2-28.5-23.3-28.5-44.2c0-21.9,0-43.9,0-65.8
	c0-10.8-0.1-10.9-10.2-10.9c-14.7-0.1-29.4,0.2-44.2-0.1c-5.8-0.1-10,1.7-14,6.1c-62.6,67.4-125.3,134.7-188.1,202
	C415.8,635,338.3,718,261.1,801.3c-8,8.6-16.7,12.2-28.4,12.1c-67.5-0.4-135-0.2-202.5-0.2c-2.2,0-4.3,0-6.5,0
	c-14.4-0.5-23.5-9.4-23.6-23.8c-0.2-36-0.1-72,0-107.9c0-14.5,8.5-23.5,22.9-24.7c5-0.4,10-0.2,15.1-0.2
	C60,656.5,81.9,656.6,103.8,656.6z M616.6,804.6c5.8,6.2,12.7,8.7,21.1,8.6c33-0.2,66-0.1,99-0.1c14.4,0,12.9-1.3,13,12.5
	c0.1,22.3,0,44.6,0.1,66.9c0,12.5,4.7,23,13.3,32c16.4,16.9,47.1,20.2,68.4-1.4c50.5-51.1,101.2-102,152.3-152.5
	c20.5-20.3,19.9-51.4,0-71.1c-51.4-50.7-102.1-102.1-153.2-153.1c-14.9-14.9-32.7-19.4-52.3-11c-19.4,8.3-28.8,23.9-28.7,45.2
	c0.1,22.7-0.1,45.3,0.1,68c0.1,6.1-1.9,8.2-7.9,8c-15.4-0.3-30.9-0.4-46.3,0c-6.3,0.2-10.6-2.1-14.8-6.7
	C654,620.9,627,592.1,600,563.2c-5.1-5.4-10.2-10.8-16-17c-35,37.5-69.2,74.2-104.1,111.8C526,707.4,571.3,756,616.6,804.6z
	 M261.3,199.4c-7.9-8.6-16.5-12.4-28.3-12.3c-66.8,0.4-133.6,0.2-200.3,0.2c-3.6,0-7.2-0.1-10.8,0.1c-12.5,0.8-21.6,9.8-21.7,22.3
	c-0.2,37.1-0.2,74.1,0,111.2c0.1,11.3,7.2,19.8,18.3,22.1c4.2,0.9,8.6,0.9,12.8,0.9c48.5,0.1,96.9,0.2,145.4-0.1
	c7.4,0,12.6,2,17.7,7.6c29.7,32.3,59.7,64.2,89.6,96.3c1.9,2,4,3.8,6.7,6.2c34.7-37.2,68.9-73.9,103.7-111.3
	C349.4,294.1,305.1,246.9,261.3,199.4z"/>
</svg>
