<?xml version="1.0" encoding="utf-8"?>
<!-- Generator: Adobe Illustrator 25.2.0, SVG Export Plug-In . SVG Version: 6.00 Build 0)  -->
<svg version="1.1" id="Calque_1" xmlns="http://www.w3.org/2000/svg" xmlns:xlink="http://www.w3.org/1999/xlink" x="0px" y="0px"
	 viewBox="0 0 1000 1000" style="enable-background:new 0 0 1000 1000;" xml:space="preserve">
<path d="M412.8,813.6c2.8,3,5.4,6,8.3,8.9c20.6,20.6,41.4,41.1,61.8,61.9c28.2,28.7,20.4,66.1-16.6,81.5c-8.5,3.5-17.3,4.2-25.4,0.2
	c-8.1-4-16.5-8.5-22.9-14.7c-51-50.3-101.5-101.1-152.2-151.8c-8.9-8.9-14.5-19.2-15.3-31.9c-1-14.6,4-26.9,14.4-37.2
	c51.6-51.5,103-103.2,154.7-154.6c19.2-19.1,47.8-19.1,66.2-1c18.4,18.1,18.9,46.8,0.2,66.2c-20.8,21.6-42.3,42.6-63.6,63.6
	c-3.2,3.2-7.4,5.4-11.2,8c0.7,1.1,1.4,2.1,2,3.2c1.7,0.6,3.5,1.6,5.2,1.6c95-0.1,190,1.5,284.9-1.1c93.4-2.6,177.5-75.4,197-167.1
	c18-84.3-4.8-156.7-68.7-214.8c-21.4-19.5-23.9-46.9-9.8-65.8c16.9-22.6,47-25.6,69.3-6.3c48,41.4,80.8,92.7,97.6,153.8
	C1035.4,585.9,932.4,761,761.3,802c-22.9,5.5-46.9,8.4-70.4,8.6c-87.9,1-175.8,0.4-263.7,0.4c-4.5,0-9,0-13.6,0
	C413.4,811.9,413.1,812.8,412.8,813.6z M573.3,186.8c-86.6,0-173.3-0.3-259.9,0.3c-20.3,0.1-40.9,1.7-60.8,5.5
	C70.9,227.5-40.6,413.8,13.8,590.6c17.7,57.6,49.9,105.9,95.4,145.3c15.6,13.5,35.2,16,52.3,7.2c17.3-8.8,27.3-26.9,25.5-46.3
	c-1.3-14.6-9.7-25-20.2-34.6C95,597.3,72.1,495.4,113.2,409.1c40.4-85,109.6-128.2,204.1-128.8c85.8-0.6,171.6-0.1,257.4-0.1
	c4,0,8,0.4,14.8,0.9c-11.7,11.6-21.3,21.2-31,30.9c-15.3,15.3-31.1,30.2-45.7,46.2c-24,26.6-11.8,67.9,22.4,76.5
	c18.1,4.6,33.6-0.9,46.7-14.1c24.1-24.3,48.3-48.3,72.4-72.5c26.8-26.8,53.6-53.7,80.4-80.4c12.8-12.8,17.4-28.1,13.5-45.7
	c-2.5-11-9.5-19.2-17.3-27C682,146.1,633.2,97.2,584.3,48.3c-2.9-2.9-6-5.8-9.3-8.4c-19.9-15.6-61.9-12-72.4,22.9
	c-5.7,19.1-0.6,35.3,13.1,49.1c21.1,21.3,42.4,42.4,63.5,63.7c2.8,2.8,5.3,5.9,9.8,11C582.1,186.8,577.7,186.8,573.3,186.8z"/>
</svg>
