<?xml version="1.0" encoding="utf-8"?>
<!-- Generator: Adobe Illustrator 25.2.0, SVG Export Plug-In . SVG Version: 6.00 Build 0)  -->
<svg version="1.1" id="Calque_1" xmlns="http://www.w3.org/2000/svg" xmlns:xlink="http://www.w3.org/1999/xlink" x="0px" y="0px"
	 viewBox="0 0 1000 1000" style="enable-background:new 0 0 1000 1000;" xml:space="preserve">
<path d="M701.4,322c-17.9,0-35.8,0.6-53.6-0.1c-47.1-2-83.2,17.5-110.9,54.6c-18.7,25-33.5,52.3-46.4,80.5
	c-19.8,43.4-38.4,87.4-58.5,130.7c-20,43-41.4,85.3-71.5,122.3c-23.8,29.4-49.2,57.2-82.6,76.1c-38.5,21.8-80.1,33.7-124.2,34.7
	c-43.9,1-87.8,0.4-131.7,0.3c-14.9,0-21.7-6.3-21.8-21.2c-0.3-33.4-0.3-66.8,0-100.2c0.1-15.3,6.8-21.5,22.7-21.6
	c38.1-0.2,76.1-0.1,114.2,0c19.5,0,38.7-1.6,57-9.2c23.5-9.6,40.7-26.8,55.7-46.4c23.3-30.4,39.6-64.8,55.1-99.5
	c14.3-31.9,27.5-64.2,42.5-95.8c14.5-30.5,29.9-60.5,46.2-90c22.2-40.1,51.8-74.5,86.9-104c32.3-27.2,70.5-42.1,111.4-49.4
	c19.3-3.5,39.3-4.4,59-4.8c41.2-0.7,82.3-0.2,123.5-0.2c10.6,0,10.7-0.1,10.7-11c0.1-29.5,0.1-59,0-88.6c0-9.2,0-19,9.9-23
	c9.9-4,18.4-0.2,26.1,7.5c56.1,56.5,112.6,112.6,168.8,169c13.1,13.1,13.3,21.7,0.4,34.6C933.6,324.2,876.6,381,819.8,437.9
	c-6.6,6.6-13.7,10.9-22.8,7.2c-9.6-3.8-11.9-12.3-11.9-22c0.1-30.3,0.1-60.6,0-90.9c0-10.1-0.2-10.2-10.4-10.2
	C750.3,322,725.9,322,701.4,322z M486.4,553c-20.5,46.5-41.4,92.9-68,136.3c-3.4,5.5-2.1,9.4,1.5,13.5c16.4,18.1,32.1,37,49.4,54.1
	c27.4,27.1,61.2,43.6,98,53.4c26.6,7,54,10.7,81.7,10.8c41.6,0.2,83.1,0,124.7,0c11.3,0,11.4,0.1,11.4,11.4c0,30.7,0,61.4,0,92.1
	c0,8.4,2.5,16,10.6,19.1c7.8,2.9,15.7,1.9,22.4-4.8C876.1,880.9,934.2,823,992,765c10.5-10.5,10.7-19.9,0.3-30.3
	c-57.6-57.8-115.3-115.4-173-173.1c-6.5-6.5-14-10.4-23.1-6.6c-9.2,3.8-11.2,12.1-11,21.2c0.1,4.7,0,9.3,0,14c0,26,0.1,52.1,0,78.1
	c0,9.5-0.2,9.7-9.7,9.7c-46.6,0-93.2,0.6-139.8-0.4c-35.9-0.8-66.1-15.7-89.6-43.1c-19.9-23.1-34.9-49.4-48.3-76.6
	c-2-4-4-8-6.9-13.7C488.7,548.4,487.5,550.7,486.4,553z M299.6,447.1c20.6-46.9,41.6-93.6,69-137.1c2.8-4.5,2.4-7.6-0.8-11.3
	c-9.6-11.2-18.5-23.1-28.5-33.9c-49.6-53.5-110.8-83-183.8-85.6c-44.6-1.6-89.3-0.5-134-0.4c-14.1,0-20.6,6.5-21.4,20.5
	c-0.3,4.6-0.1,9.3-0.1,14c0,28.7-0.2,57.5,0.1,86.2c0.1,15.7,6.6,21.8,22,22.3c3.5,0.1,7,0,10.5,0c39.2,0.1,78.5-0.4,117.7,0.5
	c36.4,0.9,66.8,16,90.4,43.8c19.4,22.9,34.4,48.8,47.5,75.7c2,4.1,4.2,8,7,13.3C297.3,451.6,298.6,449.4,299.6,447.1z"/>
</svg>
