<?xml version="1.0" encoding="utf-8"?>
<!-- Generator: Adobe Illustrator 25.2.0, SVG Export Plug-In . SVG Version: 6.00 Build 0)  -->
<svg version="1.1" id="Calque_1" xmlns="http://www.w3.org/2000/svg" xmlns:xlink="http://www.w3.org/1999/xlink" x="0px" y="0px"
	 viewBox="0 0 1000 1000" style="enable-background:new 0 0 1000 1000;" xml:space="preserve">
<path d="M560.9,212.5c-114.1,0-228.3,0.1-342.4,0c-26.7,0-50.5,7.3-70.5,25.6c-22.7,20.8-31.3,47.1-31.2,77.3
	c0.2,75.5,0.1,150.9,0.1,226.4c0,45.2,0,90.4,0,135.6c0,14.1-0.1,14.1-14.6,14.1c-23.4,0-46.7,0.1-70.1,0c-10.8,0-11-0.2-11-10.8
	c0-124.1-0.2-248.2,0.1-372.3c0.2-93.3,62.4-156.6,124.1-179.2c23.6-8.6,48-12.4,73.1-12.4c151.7,0.1,303.3,0.1,455,0
	c20.5,0,17.5,2.8,17.7-17.5c0.2-22.2,0-44.4,0-66.6c0-3.1,0-6.1,0.1-9.2C692.3,7.4,712.2-9,730.2,5.8c14.5,11.9,29.1,23.8,43.5,35.8
	c49.4,41.2,98.8,82.4,148.2,123.7c3.2,2.7,6.6,5.4,9.2,8.6c5.9,7,7.2,15.2,3.8,23.7c-3.6,8.9-10.5,14-20.1,14.9
	c-3.8,0.4-7.7,0.1-11.5,0.1C789.2,212.5,675.1,212.5,560.9,212.5z M95.9,787.4c-3.4,0-6.9-0.2-10.3,0.1c-9.7,0.8-16.6,5.8-20.3,14.6
	c-3.7,8.9-2.2,17.3,4.2,24.6c2.5,2.9,5.5,5.3,8.5,7.7c44.4,37.1,88.8,74.1,133.2,111.1c19.1,15.9,38.2,31.9,57.5,47.7
	c7.5,6.2,15.8,9.3,25.4,4.3c9.4-4.8,14.2-12.5,14.7-22.9c0.1-2.7,0.1-5.4,0.1-8c0-22.6-0.1-45.2,0-67.8c0.1-17.4-2-15.5,15.1-15.5
	c152.4-0.1,304.9,0,457.3,0c20.4,0,40.4-2.5,60.1-8c68.8-19.2,137.4-86.5,137.5-184.5c0.1-123.7,0.1-247.4,0-371.1
	c0-10.9-0.2-11.1-10.7-11.1c-24.5-0.1-49-0.1-73.5,0c-11.3,0-11.4,0.2-11.4,11.5c-0.1,33.7,0,67.4,0,101.1
	c0,87.7-0.1,175.4,0.1,263.1c0.1,26.2-6.1,50-23.7,70c-20.6,23.3-46.9,33.2-77.6,33.1c-114.1-0.1-228.3,0-342.4,0
	C324.9,787.4,210.4,787.4,95.9,787.4z"/>
</svg>
