<?xml version="1.0" encoding="utf-8"?>
<!-- Generator: Adobe Illustrator 25.2.0, SVG Export Plug-In . SVG Version: 6.00 Build 0)  -->
<svg version="1.1" id="Calque_1" xmlns="http://www.w3.org/2000/svg" xmlns:xlink="http://www.w3.org/1999/xlink" x="0px" y="0px"
	 viewBox="0 0 1000 1000" style="enable-background:new 0 0 1000 1000;" xml:space="preserve">
<path d="M999.9,499.5c0,111.1,0.2,222.2-0.3,333.3c-0.1,12.5-1.8,25.8-6.2,37.3c-19.2,50.3-80.2,68.3-125.1,37.3
	c-42.3-29.2-84.1-59.2-126.1-88.9C625.4,736,508.5,653.3,391.4,570.9c-16.7-11.8-29.3-26.3-35.4-46c-10.9-35.5,1.4-71.4,32.4-93.6
	c23.7-17,47.7-33.7,71.6-50.6c134.8-95.1,269.7-190,404.1-285.6c36-25.6,80.2-21.3,108.1,3.8c18.5,16.7,27.4,37.7,27.6,62.4
	c0.3,30,0.1,60.1,0.1,90.1C999.9,334,999.9,416.7,999.9,499.5z M0.5,917.5c0,8.1,0.6,16.6,3,24.3c11.3,35.6,42.5,56.6,75,58.7
	c34.8,2.2,68.3-20.5,81.5-53.2c5.2-12.9,5.7-26.4,5.7-40c0-271.5,0-543-0.1-814.6c0-6.6,0.1-13.2-0.6-19.7
	C160.8,34.6,128.3,1,85-0.6C37.3-2.4-0.3,40.2,0,82c1,139.5,0.4,278.9,0.4,418.4C0.4,639.4,0.3,778.5,0.5,917.5z"/>
</svg>
