<?xml version="1.0" encoding="utf-8"?>
<!-- Generator: Adobe Illustrator 25.2.0, SVG Export Plug-In . SVG Version: 6.00 Build 0)  -->
<svg version="1.1" id="Calque_1" xmlns="http://www.w3.org/2000/svg" xmlns:xlink="http://www.w3.org/1999/xlink" x="0px" y="0px"
	 viewBox="0 0 1000 1000" style="enable-background:new 0 0 1000 1000;" xml:space="preserve">
<path d="M843.1,124.9c5.4-28.6,9.8-54.8,15.2-80.7c5.4-25.9,27.2-43.7,52.9-44.1c27.3-0.5,49.6,15.4,56,41.6
	c2.1,8.7,2.2,18.6,0.6,27.5C955.2,138.4,942,207.5,929,276.6c-4.2,22.2-12.8,41.3-35,51.3c-12.3,5.5-25,5.6-37.8,3.5
	c-45.5-7.4-90.9-15-136.3-22.4c-30.1-5-60.3-9.8-90.4-14.9c-24.3-4.1-41.9-21.2-46.8-44.9c-4.2-20.5,5.3-43.5,23.3-55.6
	c12.2-8.2,25.7-11.5,40.4-9c38.3,6.4,76.7,12.7,115,19c1.1-1.3,2.1-2.5,3.2-3.8c-2.7-1.2-5.8-1.9-8-3.7
	c-156-122.5-402.8-118.7-549.9,51.5c-124.1,143.6-129,345.3-8.6,493.3c86.7,106.6,201.2,153.9,337.7,145.9
	c163.2-9.6,296.9-111.9,351.7-265.9c1.3-3.8,2.4-7.6,4.2-11.2c10.3-20.9,26.8-32.8,50.5-32.7c23.8,0.1,41.8,10.9,52.1,32.6
	c6.6,13.8,6.3,28.7,1.3,42.8c-57,161-166.5,269-328.6,322.6c-61.1,20.2-124.6,28.7-188.8,23.6c-138.2-11-256.5-64.8-349.9-169
	C55.7,748.4,12.7,653.3,2.9,545.1c-11.7-129,23.3-246,102.8-348.4C183.5,96.6,285.3,32.8,410.4,10.2
	c155.9-28.1,297.1,7.3,421.5,106.5C834.9,119.2,838.1,121.3,843.1,124.9z"/>
</svg>
