<?xml version="1.0" encoding="utf-8"?>
<!-- Generator: Adobe Illustrator 25.2.0, SVG Export Plug-In . SVG Version: 6.00 Build 0)  -->
<svg version="1.1" id="Calque_1" xmlns="http://www.w3.org/2000/svg" xmlns:xlink="http://www.w3.org/1999/xlink" x="0px" y="0px"
	 viewBox="0 0 1000 1000" style="enable-background:new 0 0 1000 1000;" xml:space="preserve">
<path d="M74,499.3c0-125.1,0-250.1,0-375.2c0-47.6,20.1-84.2,61.3-107.5C176.6-6.6,218.9-5.3,259,19.6
	C459.9,144,660.7,268.8,861.2,393.8c60.5,37.7,81,104.8,51.3,163.6c-10.9,21.5-27.2,37.7-47.6,50.3
	c-190.7,118-381.2,236.2-572.1,353.9c-21.1,13-43,27-66.5,33.7C148.8,1017.4,74.1,958.9,74,878.3C73.9,751.9,74,625.6,74,499.3z"/>
</svg>
