<?xml version="1.0" encoding="utf-8"?>
<!-- Generator: Adobe Illustrator 25.2.0, SVG Export Plug-In . SVG Version: 6.00 Build 0)  -->
<svg version="1.1" id="Calque_1" xmlns="http://www.w3.org/2000/svg" xmlns:xlink="http://www.w3.org/1999/xlink" x="0px" y="0px"
	 viewBox="0 0 1000 1000" style="enable-background:new 0 0 1000 1000;" xml:space="preserve">
<path d="M220.3,807.2c3.2,2.8,6.3,5.7,9.6,8.3c23.2,18,46.3,36,69.6,53.7c18.5,14,28.3,32.1,24.7,55.3c-3.8,24.5-20,39.3-42.7,46.3
	c-7.5,2.3-16.9,1.7-24.6-0.6c-8.7-2.6-17.1-7.6-24.4-13.2c-70-54-139.7-108.3-209.5-162.5C8.9,783.6,1,770,0.5,751.5
	c-0.6-20.6,7.4-35.9,23.5-47.9C96.9,649,169.6,594.2,242.6,539.7c26-19.4,59.3-14.7,78.2,10.1c18.7,24.6,13.9,58.1-11.7,78
	c-24.2,18.8-48.9,36.9-73.4,55.4c-3.4,2.6-6.6,5.4-9.9,8.1c0.2,0.9,0.4,1.8,0.7,2.8c5.1,0,10.1,0,15.2,0c230.2,0,460.3,0,690.5,0.1
	c8.4,0,17,0.4,25.1,2.2c23.4,5.4,42.3,28.8,42.7,51.9c0.5,28.1-23.5,54.3-51.8,56.4c-5.3,0.4-10.7,0.2-16,0.2
	c-231.9,0-463.9,0-695.8,0c-5.1,0-10.3,0-15.4,0C220.8,805.7,220.5,806.5,220.3,807.2z M776.4,194.4c-4.4,0-8.8,0-13.2,0
	c-166.6,0-333.3,0-499.9,0c-68.9,0-137.8,0.5-206.6-0.2C28.8,193.8-1.2,217.3,0,251.6C0.9,275.7,20.9,301,46,304.1
	c7.5,0.9,15.1,1,22.6,1c229.7,0.1,459.4,0,689.2,0c5.1,0,10.2,0,15.3,0c-2.7,5-5.7,7.6-8.8,9.9c-25.9,19.5-52.1,38.6-77.6,58.6
	c-17.2,13.5-23.5,32.1-19.3,53.5c4.3,21.5,17.6,35.4,38.4,42c20.1,6.3,37.4,0.2,53.6-11.9c70.3-52.9,140.4-105.9,211.1-158.3
	c38.4-28.4,38.7-68.9,0-98.1c-42.5-32.1-84.3-65.3-126.4-98c-27.4-21.3-54.4-43-82.2-63.6c-32.2-23.8-75.5-9-86.8,28.9
	c-6.4,21.6,0.8,43.8,20.3,59.2c24,19,48.5,37.5,72.7,56.3c3.3,2.6,6.5,5.3,9.8,8C777.3,192.5,776.9,193.4,776.4,194.4z"/>
</svg>
