<?xml version="1.0" encoding="utf-8"?>
<!-- Generator: Adobe Illustrator 25.2.0, SVG Export Plug-In . SVG Version: 6.00 Build 0)  -->
<svg version="1.1" id="Calque_1" xmlns="http://www.w3.org/2000/svg" xmlns:xlink="http://www.w3.org/1999/xlink" x="0px" y="0px"
	 viewBox="0 0 1000 1000" style="enable-background:new 0 0 1000 1000;" xml:space="preserve">
<path d="M999.8,499.5c0,131.6-0.4,263.2,0.2,394.8c0.2,52.6-32.3,93.3-84.6,104.6c-26.3,5.6-49.9-4.3-71.4-19.1
	c-32.6-22.4-65-45.1-97.5-67.7C586.7,800.9,426.9,689.7,267.2,578.5c-37.9-26.4-53.7-66.4-42.8-107.7c6.4-24.3,20.8-42.8,41.4-56.9
	c32.3-22,64.5-44.2,96.8-66.3C521,239.1,679.5,130.9,837.5,21.8C861.9,4.9,887.4-3,916.4,0.5C945.1,4,967,19.3,982.7,42.9
	c11.3,16.9,17.2,35.6,17.2,56.4C999.7,232.7,999.8,366.1,999.8,499.5z M0.2,952c0,4,0.2,8,0,12c-1.2,20,33,45.5,55.4,32.2
	C73.8,985.5,82,971.4,82,950.7c-0.2-301.3-0.1-602.5-0.1-903.8c0-3.1,0.3-6.3-0.2-9.3C76.9,6,52-7.4,22.8,3.2C7,8.9,0,22.3,0,40.1
	C0.3,193,0.2,345.9,0.2,498.7C0.2,649.8,0.2,800.9,0.2,952z"/>
</svg>
