<?xml version="1.0" encoding="utf-8"?>
<!-- Generator: Adobe Illustrator 25.2.0, SVG Export Plug-In . SVG Version: 6.00 Build 0)  -->
<svg version="1.1" id="Calque_1" xmlns="http://www.w3.org/2000/svg" xmlns:xlink="http://www.w3.org/1999/xlink" x="0px" y="0px"
	 viewBox="0 0 1000 1000" style="enable-background:new 0 0 1000 1000;" xml:space="preserve">
<path d="M998.3,45.7c0,155.3,0,308.9,0,464c-147.7-49.4-294.5-98.5-443.5-148.2c44.5-31.8,87.3-62.3,130.7-93.4
	c-38.9-31-81.4-50.9-128.7-60C429.6,183.9,303,243.6,240.7,356.9c-89,161.8-8.7,366.5,166.4,424.4c130,43,269.5-7,343.7-123
	c0.8-1.3,1.8-2.6,2.4-4c2.5-5.6,5.8-6.1,11-2.9c11.6,7.1,23.5,13.7,35.2,20.5c41.4,23.8,82.7,47.6,124.1,71.5
	c9.3,5.4,9.5,5.6,3.9,14.6c-73.1,117.8-176.1,195.7-311.1,227.5c-140.3,33.1-272.6,10.2-392.6-70.5C104,834.4,30.2,721.4,8.3,578.5
	c-24.2-157.9,17.9-298.4,125.5-417.2c74.4-82.1,166.9-134.4,276-153C576.2-20,722.3,24,846.4,139.6c8.5,7.9,8.5,7.9,17.8,1.3
	c42.4-30.2,84.7-60.4,127.1-90.6C993.1,48.9,995.1,47.8,998.3,45.7z"/>
</svg>
