<?xml version="1.0" encoding="utf-8"?>
<!-- Generator: Adobe Illustrator 25.2.0, SVG Export Plug-In . SVG Version: 6.00 Build 0)  -->
<svg version="1.1" id="Calque_1" xmlns="http://www.w3.org/2000/svg" xmlns:xlink="http://www.w3.org/1999/xlink" x="0px" y="0px"
	 viewBox="0 0 1000 1000" style="enable-background:new 0 0 1000 1000;" xml:space="preserve">
<path d="M107.2,498.7c0-142-0.1-283.9,0.2-425.9c0-12.3,0.7-25.1,3.9-36.9c9.6-35.4,29.4-39.2,56.9-34.2c10.8,2,21.7,7.2,31.1,13.2
	c221.8,142.6,443.5,285.5,665.1,428.5c37.7,24.3,37.8,89.1,0.2,113.4C643,699.8,421.3,842.7,199.6,985.6
	c-13.3,8.6-27.1,14.7-43.7,14.4c-17.2-0.3-29.1-8.1-37.7-21.9c-9.2-14.7-11-31.2-11-48.2C107.3,786.2,107.2,642.4,107.2,498.7z"/>
</svg>
