<?xml version="1.0" encoding="utf-8"?>
<!-- Generator: Adobe Illustrator 25.2.0, SVG Export Plug-In . SVG Version: 6.00 Build 0)  -->
<svg version="1.1" id="Calque_1" xmlns="http://www.w3.org/2000/svg" xmlns:xlink="http://www.w3.org/1999/xlink" x="0px" y="0px"
	 viewBox="0 0 1000 1000" style="enable-background:new 0 0 1000 1000;" xml:space="preserve">
<path d="M699.3,325.3c0,45.2,1.3,90.4-0.3,135.6c-3.3,94.7-78,175.4-171.8,187.3C422.4,661.5,328,595.6,304.9,492.4
	c-2.8-12.4-4.2-25.3-4.2-38c-0.4-86-1.1-172,0.1-258c1.3-94.1,65-170.7,156.7-191.6c109.7-25,221.6,50.2,239.2,161.1
	c2.1,13.4,2.8,27,2.9,40.6c0.4,39.6,0.1,79.2,0.1,118.8C699.6,325.3,699.5,325.3,699.3,325.3z M653,999.8
	c29-0.2,46.2-17.6,46.7-46.3c0.1-4.4,0-8.8-0.3-13.2c-1.6-18.2-14.1-33.7-31.6-38.1c-5.7-1.4-11.9-1.5-17.9-1.6
	c-29.2-0.1-58.4,0-87.6-0.1c-12.3,0-12.3-0.1-12.4-12.8c0-26.4,0-52.8,0-79.2c0-1.6,0.1-3.2,0-4.8c-0.5-5.9,1.9-9,8.1-9
	c2,0,3.9-0.8,5.9-1.2c112.6-22.9,195.7-85.3,248.7-187.1c25.6-49.1,37.6-101.8,37.2-157.1c-0.1-21.2-10.8-36.6-30.3-45
	c-19.1-8.3-36.9-4.6-52.5,8.7c-12.8,10.9-16.5,25.6-16.9,42c-3.6,150.5-135.3,264.1-283.9,242.3c-105.3-15.5-173.7-77.2-206.5-178.2
	c-7.3-22.6-9.2-46.1-10-69.8c-1.1-33.5-31.5-55.8-63.2-47.1c-21.9,6-36.3,25.3-36.1,49.4c0.8,87.1,30,163.8,87.3,229.1
	c53.8,61.4,121.8,98.7,202,113.7c10.5,2,10.6,2.1,10.6,12.8c0.1,27.2,0.1,54.4,0,81.6c0,11.6-0.1,11.7-12.2,11.7
	c-30.4,0.1-60.8-0.2-91.2,0.1c-28.9,0.3-45.9,17.7-46.4,46.6c-0.1,4.4,0,8.8,0.4,13.2c1.6,18.1,14.4,33.7,31.9,37.8
	c6.1,1.5,12.7,1.5,19.1,1.5c49.2,0.1,98.4,0.1,147.6,0.1C550.6,999.9,601.8,1000.1,653,999.8z"/>
</svg>
