<?xml version="1.0" encoding="utf-8"?>
<!-- Generator: Adobe Illustrator 25.2.0, SVG Export Plug-In . SVG Version: 6.00 Build 0)  -->
<svg version="1.1" id="Calque_1" xmlns="http://www.w3.org/2000/svg" xmlns:xlink="http://www.w3.org/1999/xlink" x="0px" y="0px"
	 viewBox="0 0 1000 1000" style="enable-background:new 0 0 1000 1000;" xml:space="preserve">
<path d="M0.5,497.9C0.5,363.3,1.4,228.7,0,94.1c-0.4-41,31.2-82.5,71.5-91.4c29-6.4,56.9-2.6,82.5,15.4
	c52.7,37,106.1,73,159.2,109.4c136.6,93.6,273.2,187.2,410,280.7c18.2,12.5,34.7,26.3,44.1,46.9c19.7,43.3,6.7,92.3-33,120.7
	c-39,27.9-78.6,54.9-118,82.3C462.4,765,308.6,872,154.7,978.9c-19.4,13.4-40.4,23.2-64.6,20.6c-57.4-6.1-90.3-54.1-90-92.5
	C1.2,770.7,0.5,634.3,0.5,497.9z M915.4,945.5c0,4.9-0.3,9.8,0.2,14.6c2.5,25.2,29.5,45.8,50.8,38.5c20.7-7.1,33.7-27.4,33.6-46.3
	c-0.4-302.5-0.3-604.9-0.1-907.4c0-10.4-3.2-19-8.6-27.3C980.6,1,964.3-1.7,946.8,1.1c-14.8,2.4-24.4,12.6-28.7,26.7
	c-2.1,7-2.6,14.8-2.6,22.3c-0.1,149.7-0.1,299.4-0.1,449C915.4,647.9,915.4,796.7,915.4,945.5z"/>
</svg>
