<?xml version="1.0" encoding="utf-8"?>
<!-- Generator: Adobe Illustrator 25.2.0, SVG Export Plug-In . SVG Version: 6.00 Build 0)  -->
<svg version="1.1" id="Calque_1" xmlns="http://www.w3.org/2000/svg" xmlns:xlink="http://www.w3.org/1999/xlink" x="0px" y="0px"
	 viewBox="0 0 1000 1000" style="enable-background:new 0 0 1000 1000;" xml:space="preserve">
<path d="M679.5,535.5c-3.9-3.7-6.5-6-9-8.6c-119.1-119.1-238.2-238.2-357.6-357c-7.1-7.1-8.9-13.3-6.1-23
	C332.2,57.8,413.7-2.8,504.9,0.1c94.3,3,172.5,68,191.3,159.8c2.9,14.4,3.8,29.4,3.9,44.2c0.4,79.4,0,158.8,0.2,238.2
	c0.1,28-4.3,55-15.1,80.9C683.7,527,681.8,530.5,679.5,535.5z M931.1,858.9C667.3,595.3,403.6,331.5,139.8,67.8
	c-3.7-3.7-7.4-7.4-11.6-10.4c-17.6-13-40.8-13.1-58.4-0.4c-17.7,12.7-26.2,35.2-18.5,55.2c3.7,9.7,10.5,19,17.9,26.4
	C332.5,402.3,596,665.7,859.4,929.2c2.8,2.8,5.6,5.7,8.7,8.3c15.8,13.3,33.6,16.9,52.7,8.5c19.4-8.5,29.2-24.2,30.7-44.1
	C951.6,883.4,942.9,870.7,931.1,858.9z M556,697.5c-2.3-2.2-7.2-2.6-10.8-2.3c-7.6,0.6-15,2.9-22.5,3.4
	c-103.8,5.9-183.9-34.9-238.9-123.1c-23.4-37.5-34-79.4-34.5-123.7c-0.2-13.3-3.4-25.4-12.2-35.6c-13.6-15.8-35.2-21.5-54.6-14.5
	c-20,7.1-33,25.1-33.1,47c-0.2,43,6.9,84.8,23.1,124.6c49.2,120.5,138,193.9,265.5,220.3c12,2.5,12.1,2.4,12.1,14.1
	c0,26.5,0,52.9,0,79.4c0,13.2-0.1,13.3-13.1,13.3c-30.5,0.1-61-0.5-91.4,0.5c-24.1,0.8-43.1,20.1-45.3,43.5
	c-2.3,25.6,12.5,48,36.3,53.8c6.9,1.7,14.3,1.6,21.5,1.7c94.7,0.1,189.3,0.1,284,0.1c4,0,8,0,12-0.3c38-2.7,59-44.6,38.2-76.6
	c-9.9-15.3-24.4-22.6-42.6-22.6c-29.3,0-58.6,0-87.8-0.1c-11.7,0-11.8-0.1-11.8-12.2c-0.1-26.9,0-53.7,0-80.6
	c0-11.7,0.1-11.8,12.2-14c23.3-4.2,46-10.3,70.2-20.3C606.1,747.1,581.3,722.1,556,697.5z M793.9,642.6
	c33.7-51.9,52.2-108.8,56.4-170.4c0.6-8.4,0.7-16.9,0.4-25.3c-1-26.7-22.4-47.7-48.9-48.4c-26.1-0.6-48.5,20-50.7,46.6
	c-1.2,14.8-1.6,29.7-4,44.3c-4.2,26.7-13.3,52-26.4,75.7c-2.3,4.2-5.2,7.5-0.2,12.5c22.9,23,45.3,46.5,68.9,70.8
	C791.6,645.8,792.9,644.3,793.9,642.6z M300.8,442.4c-6.4,112.3,91.3,211.9,205.9,205.7C437.4,579.2,370.3,510.9,300.8,442.4z"/>
</svg>
