<?xml version="1.0" encoding="utf-8"?>
<!-- Generator: Adobe Illustrator 25.2.0, SVG Export Plug-In . SVG Version: 6.00 Build 0)  -->
<svg version="1.1" id="Calque_1" xmlns="http://www.w3.org/2000/svg" xmlns:xlink="http://www.w3.org/1999/xlink" x="0px" y="0px"
	 viewBox="0 0 1000 1000" style="enable-background:new 0 0 1000 1000;" xml:space="preserve">
<path d="M411,718.1c80.8,0,159.2,0,239.5,0c-3.2-3.8-5.1-6.3-7.3-8.5C508.8,575.1,374.5,440.6,240,306.3
	c-12.2-12.2-7.6-11.2-21.7-4.1c-66.9,33.5-109.2,86.7-121.5,160.9c-13.2,79.7,11.7,147.1,71.2,201.5c14.7,13.5,22.4,29.1,17.5,48.9
	c-8.6,34.6-48.9,47.3-76.3,23.8C57,692.4,21.2,636.7,7.7,569.1c-25.5-127.5,12.9-233.4,113.4-316.3c8.6-7.1,18.4-12.9,27.7-19.2
	c3.4-2.3,6.8-4.4,13-8.5c-9.6-8.6-18.4-15.7-26.3-23.6c-39.6-39.4-79-79-118.7-118.3C2.7,69.2-3.6,53,2.1,33.4
	C10.8,2.7,47.8-10,73.7,8.8c4,2.9,7.6,6.5,11.2,10c190.7,190.7,381.4,381.4,572.1,572.1c108.5,108.5,216.9,217,325.4,325.3
	c13.8,13.7,20.5,29.2,15.8,48.5c-7.9,32.1-46,45.8-72.6,26.1c-4.3-3.2-8.1-7.1-12-11C859,925.3,804.4,870.8,750,816.1
	c-5.7-5.7-10.8-8.2-19.6-7c-16.4,2.3-33.2,3-49.8,3.1c-84.6,0.3-169.3,0.1-253.9,0.1c-4.4,0-8.9,0-16.3,0c4.8,5.3,7.7,8.6,10.8,11.7
	c21.5,21.6,43.3,42.8,64.4,64.7c18.6,19.3,18.7,46.7,1.1,65.3c-16.1,17.1-42.6,19.5-61.4,5.4c-3.3-2.5-6.4-5.4-9.3-8.3
	c-49.8-49.8-99.6-99.7-149.5-149.4c-13.1-13.1-19.7-28.4-15-46.4c2.2-8.4,7.2-17.2,13.3-23.4c51.2-52,102.8-103.5,154.6-154.9
	c19.3-19.1,47.8-19.2,66.3-1.2c18.8,18.3,18.9,47.2-0.5,67.2c-21.2,21.8-43,43.1-64.5,64.6C417.7,710.5,415.2,713.5,411,718.1z
	 M582.3,420.9c51.3-51.3,102.6-102.5,153.7-154c4.8-4.9,8.8-11.4,11-17.8c6.6-19.3,1.2-36-13-50.2c-34.8-34.8-69.5-69.6-104.3-104.3
	c-17.1-17.1-33.6-34.8-51.5-51c-27-24.4-68.7-11.1-76.8,24c-4.1,17.7,1.8,32.8,14.5,45.5c21.2,21.2,42.5,42.4,63.6,63.7
	c2.8,2.8,5.2,5.9,9.6,10.8c-83.3,0-163.9,0-246.7,0c3.3,3.9,5,6.1,6.9,8c25.9,26,51.9,51.8,77.6,78c5.4,5.6,11,7.6,18.7,7.5
	c42.5-0.3,85-0.2,127.5-0.2c4.4,0,8.8,0,13.2,0c0.3,0.9,0.7,1.9,1,2.8c-24.8,24.8-49.6,49.7-73.7,73.8c22.2,22.5,43.6,44.1,65.2,66
	C579.8,422.9,581.2,422,582.3,420.9z M898.9,730c118.7-108.1,135.3-292.2,37.1-419.2c-13.7-17.7-30-33.5-46.4-48.7
	c-14.9-13.8-35.6-15.4-52.3-5.7c-17.5,10.1-25.8,25.6-24.2,45.8c1.2,14.6,9.8,25,20.3,34.5c80.2,72.7,96.5,188.2,39.7,279.6
	c-12.8,20.6-29.1,38.3-46.8,53.4c22,22.3,43.5,44.1,65.3,66.3C893.8,734.2,896.5,732.2,898.9,730z"/>
</svg>
