<?xml version="1.0" encoding="utf-8"?>
<!-- Generator: Adobe Illustrator 25.2.0, SVG Export Plug-In . SVG Version: 6.00 Build 0)  -->
<svg version="1.1" id="Calque_1" xmlns="http://www.w3.org/2000/svg" xmlns:xlink="http://www.w3.org/1999/xlink" x="0px" y="0px"
	 viewBox="0 0 1000 1000" style="enable-background:new 0 0 1000 1000;" xml:space="preserve">
<path d="M290.6,500C528.3,332.2,763.1,166.5,1000-0.7c0,334.6,0,665.9,0,1001.4C763.3,833.6,528.4,667.8,290.6,500z M0,1001.3
	c52.4,0,103.1-0.1,153.8,0.1c8.9,0,12.6-3.3,11.8-12.1c-0.4-4.1,0-8.2,0-12.3c0-318,0-636,0-954.1c0-4.1-0.3-8.3,0-12.3
	c0.8-8.8-2.9-12.1-11.8-12.1C103.1-1.2,52.4-1.3,0-1.3C0,334.1,0,667.3,0,1001.3z"/>
</svg>
