<?xml version="1.0" encoding="utf-8"?>
<!-- Generator: Adobe Illustrator 25.2.0, SVG Export Plug-In . SVG Version: 6.00 Build 0)  -->
<svg version="1.1" id="Calque_1" xmlns="http://www.w3.org/2000/svg" xmlns:xlink="http://www.w3.org/1999/xlink" x="0px" y="0px"
	 viewBox="0 0 1000 1000" style="enable-background:new 0 0 1000 1000;" xml:space="preserve">
<path d="M178.4,499.2c0-152.8,0-305.6,0-458.4c0-27.7,13.2-40.8,41-40.8c56.9,0,113.8,0,170.7,0c23.8,0,38.2,14.3,38.2,38
	c0,307.8,0,615.7,0,923.5c0,23.6-14.5,38-38.2,38c-57.6,0-115.3,0-172.9,0c-24.5,0-38.7-14.1-38.7-38.6
	C178.4,807,178.4,653.1,178.4,499.2z M821.1,38.1c0-23.7-14.4-38-38.2-38C725.3,0,667.7,0,610,0c-24.7,0-38.8,14-38.8,38.5
	c0,307.5,0,614.9,0,922.4c0,24.5,14.2,38.6,38.7,38.6c56.5,0,113.1-0.9,169.6,0.4c25.6,0.6,42.2-17.7,42.1-41.7
	c-0.8-152.4-0.4-304.9-0.4-457.3C821.1,346.7,821.2,192.4,821.1,38.1z"/>
</svg>
