<?xml version="1.0" encoding="utf-8"?>
<!-- Generator: Adobe Illustrator 25.2.0, SVG Export Plug-In . SVG Version: 6.00 Build 0)  -->
<svg version="1.1" id="Calque_1" xmlns="http://www.w3.org/2000/svg" xmlns:xlink="http://www.w3.org/1999/xlink" x="0px" y="0px"
	 viewBox="0 0 1000 1000" style="enable-background:new 0 0 1000 1000;" xml:space="preserve">
<path d="M529.6,403.8c6.1-4.4,9.2-6.4,12-8.7c86.7-71.7,173.4-143.4,260-215.3c43-35.7,90.1-43.6,140.5-18.9
	c37.4,18.3,57.2,49.3,57.2,91.6c0.1,163.4-0.8,326.8,0.6,490.2c0.4,43-25.1,94.5-89.2,107.3c-40.6,8.1-76.1-2.3-107.8-28.7
	c-86.2-71.6-172.6-142.9-258.9-214.4c-3.5-2.9-7.2-5.7-13.3-10.5c-0.5,7.1-1.1,11.9-1.1,16.6c-0.1,43.3,0.3,86.6-0.1,130
	c-0.4,42.6-18.1,76.2-56.8,95.3c-48.3,23.8-95.2,19.8-137.4-14.7c-83.8-68.6-167.1-137.8-250.6-206.8C70,604.6,55,592.4,40.2,580
	c-53.4-44.5-53.6-115.6-0.2-159.9c98.3-81.4,196.6-162.6,295.2-243.7c34-28,72.8-36.5,115.2-24c50.7,14.9,78.9,52.7,79.3,105.5
	c0.3,42.4,0.1,84.8,0.1,127.1C529.6,390.1,529.6,395.2,529.6,403.8z"/>
</svg>
