<?xml version="1.0" encoding="utf-8"?>
<!-- Generator: Adobe Illustrator 25.2.0, SVG Export Plug-In . SVG Version: 6.00 Build 0)  -->
<svg version="1.1" id="Calque_1" xmlns="http://www.w3.org/2000/svg" xmlns:xlink="http://www.w3.org/1999/xlink" x="0px" y="0px"
	 viewBox="0 0 1000 1000" style="enable-background:new 0 0 1000 1000;" xml:space="preserve">
<path d="M199,149.9c4.7,0,9.5,0,14.2,0c193.2,0,386.4,0.1,579.7-0.1c52.8,0,97.8,18.1,134.1,56.6c30.9,32.8,47,72.2,47.8,117.2
	c0.7,41.6,0.3,83.2,0.1,124.8c-0.1,29.3-21.2,50.8-49.3,51c-28.3,0.2-50.1-21.8-50.3-51.5c-0.3-39.2,0-78.4-0.1-117.6
	c-0.1-46.8-33.1-80.7-79.8-80.7c-196.4-0.2-392.8-0.1-589.3-0.1c-2.4,0-4.7,0.3-9.2,0.6c3.1,3.7,5.1,6.4,7.4,8.7
	c18.7,18.6,37.9,36.8,56.2,55.8c26.2,27.3,15.3,71.4-20.4,82.5c-19.6,6.1-37.1,1.4-51.7-13.3c-29.4-29.4-58.9-58.8-88.3-88.2
	c-19.2-19.2-38.5-38.4-57.6-57.8c-23.7-24-23.9-52.5-0.2-76.2c48.6-48.8,97.6-97,145.8-146.1c26.4-26.9,73.9-18.1,84.7,20.2
	c5.4,19.2,0.6,36.4-13.7,50.6c-17.6,17.5-35.3,34.9-52.9,52.3c-2.8,2.7-5.3,5.7-8,8.5C198.5,148.1,198.7,149,199,149.9z
	 M794.6,860.4c-17.9,17.8-36,35.3-53.7,53.2c-20.4,20.7-21,51.3-1.7,71.1c19.7,20.3,51,20.6,71.9-0.2
	c49.7-49.3,99.2-98.9,148.4-148.6c5.5-5.5,10.2-12.7,12.7-20c6.5-18.9,2.7-36.6-11.5-50.9c-49.9-50.3-100-100.2-150.1-150.3
	c-1.4-1.4-2.9-2.7-4.5-4c-15.5-12.3-38-14.1-55.3-4.5c-28.9,16.1-34.5,54.4-11,78.9c17.7,18.4,36.3,36.1,54.5,54.1
	c2.7,2.7,5.1,5.7,9.7,10.8c-7.3,0-11.9,0-16.5,0c-144.4,0-288.8,0-433.3,0c-50,0-100,0.3-150-0.1c-46-0.4-79.3-34.2-79.4-80
	c-0.1-39.6,0.2-79.2-0.1-118.8c-0.2-29.5-22.3-51.3-50.7-51c-28,0.4-48.7,21.9-48.9,51.4c-0.2,41.2-0.5,82.4,0.1,123.6
	c0.7,47.3,18.1,88.2,51.4,121.7c36,36.1,80,52.9,130.9,52.9c193.2-0.2,386.5-0.1,579.7-0.1c4.6,0,9.3,0,16.7,0
	C799.7,854.7,797.3,857.7,794.6,860.4z"/>
</svg>
