<?xml version="1.0" encoding="utf-8"?>
<!-- Generator: Adobe Illustrator 25.2.0, SVG Export Plug-In . SVG Version: 6.00 Build 0)  -->
<svg version="1.1" id="Calque_1" xmlns="http://www.w3.org/2000/svg" xmlns:xlink="http://www.w3.org/1999/xlink" x="0px" y="0px"
	 viewBox="0 0 1000 1000" style="enable-background:new 0 0 1000 1000;" xml:space="preserve">
<path d="M673.9,328.6c0,52.1,0.1,104.1,0,156.2c-0.2,85.2-55.5,154.3-139.2,170.4c-113.8,22-207.8-64.6-207.5-167.1
	c0.3-105.1,0-210.2,0.1-315.3C327.4,75.1,403-0.1,501.1,0c82,0.1,150.5,54.2,168.6,134.1c2.9,12.9,3.9,26.5,4,39.8
	C674.2,225.5,673.9,277,673.9,328.6z M455.1,956.7c0.3,18.7,9.9,32,26.8,39.4c29.5,12.9,61.5-7.8,61.9-40.3
	c0.5-38.2,0.1-76.4,0.1-114.5c0-28.3,9.6-40.3,36.7-47.4c75.7-19.8,136.8-61.3,182.8-124.7c46.3-63.9,61.8-136.2,57-213.7
	c-1.3-20.7-21.3-37.9-42.7-38.1c-21.4-0.2-41.4,16.7-43.1,37.4c-0.9,11.3-0.2,22.8-0.5,34.2c-1,49.3-13.6,95.3-43.9,134.7
	c-54.8,71.2-127.6,103.8-217,94.4c-106.3-11.2-186.1-86.2-204.8-191.4c-4-22.7-2.5-46.4-3.9-69.6c-1.3-21.8-20.4-39.4-42.6-39.7
	c-22-0.4-43.1,17.1-43.1,38.9c-0.1,29.6-0.9,60,4.6,88.8c20.9,108.4,84,184.9,183.8,231c17.4,8,36.2,13.3,54.8,18.4
	c20.9,5.8,34.8,24.8,33.2,43.4c-1.6,18.7-0.3,37.7-0.3,56.5C455,915.1,454.7,935.9,455.1,956.7z"/>
</svg>
