<?xml version="1.0" encoding="utf-8"?>
<!-- Generator: Adobe Illustrator 25.2.0, SVG Export Plug-In . SVG Version: 6.00 Build 0)  -->
<svg version="1.1" id="Calque_1" xmlns="http://www.w3.org/2000/svg" xmlns:xlink="http://www.w3.org/1999/xlink" x="0px" y="0px"
	 viewBox="0 0 1000 1000" style="enable-background:new 0 0 1000 1000;" xml:space="preserve">
<path d="M468.8,400.3c0-4.9,0-9.9,0-14.8c0-40.2,0.6-80.3-0.1-120.5c-0.8-47.7,16.1-85.3,60.6-106.3c47-22.2,92.4-17.2,132.9,15.3
	c58.2,46.7,115.3,94.9,172.8,142.4c41.2,34,82.2,68.1,123.6,101.8c25.6,20.8,40.9,46.8,41.4,80.2c0.5,31.1-11.2,57.4-34.8,77.5
	c-32.7,27.8-66.1,54.9-99.3,82.3C798.5,714,731.4,769.9,663.7,825.1c-40.9,33.4-86.6,38.2-134.1,16.5c-41-18.8-60.3-52.9-60.7-97.5
	c-0.4-43-0.1-86-0.1-129c0-5,0-10,0-18c-5.9,4.2-9.4,6.3-12.5,8.8C369.6,677.5,282.8,749,196.5,821c-39.8,33.2-83.5,42.4-132.1,24
	c-39.7-15-64.4-52-64.4-94.6C0,584.6,0,418.7,0,252.9c0-52.6,32.9-93.3,84.4-104c41.1-8.5,77.4,1.7,109.6,28.5
	c81.8,67.9,163.7,135.6,245.6,203.3c8.6,7.1,17.3,14,25.9,21C466.6,401.2,467.7,400.7,468.8,400.3z"/>
</svg>
