<?xml version="1.0" encoding="utf-8"?>
<!-- Generator: Adobe Illustrator 25.2.0, SVG Export Plug-In . SVG Version: 6.00 Build 0)  -->
<svg version="1.1" id="Calque_1" xmlns="http://www.w3.org/2000/svg" xmlns:xlink="http://www.w3.org/1999/xlink" x="0px" y="0px"
	 viewBox="0 0 1000 1000" style="enable-background:new 0 0 1000 1000;" xml:space="preserve">
<path d="M374.4,749.5c3.1,0.2,6.1,0.5,9.2,0.5c87.2,0.1,174.4,0.1,261.6,0.2c62.8,0,118.7-19,166.9-59.7
	c93.8-79.2,115.6-216,51.5-320.8c-5.1-8.4-10.2-17.6-12.2-27c-4.8-23.8,8.5-46.3,30.7-54.9c21.9-8.6,46.2-0.8,60,19.8
	c22.1,32.8,37.7,68.6,47.3,107c46.9,188.4-66.2,377.1-254.7,424.9c-29.2,7.4-59,10.5-89.1,10.5c-86.4,0-172.8,0-259.2,0
	c-4.3,0-8.7,0-15.2,0c3.3,3.8,5,6.2,7.1,8.2c19.2,19.3,38.8,38.2,57.6,57.9c26.1,27.3,14.4,71.3-21.7,81.9
	c-17.7,5.2-34.2,1.7-47.9-11.2c-11.9-11.3-23.4-23-35-34.6c-37.6-37.6-75.3-75.2-112.9-112.9c-24.8-24.9-25-53-0.2-77.9
	c48-48.2,96.1-96.3,144.3-144.2c21.7-21.5,51.5-22.5,71.9-2.9c20.1,19.3,20.7,50.2,0.7,71c-17.2,17.9-35,35.2-52.6,52.6
	c-3.1,3.1-6.8,5.5-10.3,8.2C373,747.1,373.7,748.3,374.4,749.5z M626.3,150.3c-4.3,0-8.5,0-12.8,0c-87.2,0-174.4,0.1-261.7-0.1
	c-35.5-0.1-70.3,4.7-104.1,15.1C62.9,222.1-40.7,416.6,15.1,601.8c9.9,32.8,24.1,63.6,43.5,91.7c14.1,20.3,38.3,27.3,60.3,18
	c21.8-9.2,34.4-31.1,29.5-54.4c-1.9-9.1-6.8-17.8-11.7-26c-36-60.3-46.3-124.7-29.2-192.6c27.7-109.9,124.5-186.8,237.9-188.2
	c91.2-1.1,182.4-0.3,273.7-0.3c2.5,0,5,0.5,9.2,1c-4,4.3-6.5,7.3-9.2,10c-18.3,18.4-37.2,36.4-54.9,55.4
	c-23.1,24.7-16,63.2,13.7,78.2c19.9,10.1,42,6.3,59.4-10.8c27.1-26.7,53.8-53.7,80.7-80.6c22.6-22.6,45.6-44.9,67.8-68
	c19.4-20.2,20.9-48.6,1.7-68.2C736.5,115,684.9,63.5,632.8,12.7C613.6-6,583-3.6,564.5,15.3c-18.5,19-18.9,48.1-0.7,68.4
	c5.6,6.2,11.8,12,17.7,17.9c15.3,15.2,30.5,30.4,45.8,45.6C627,148.3,626.7,149.3,626.3,150.3z"/>
</svg>
