<?xml version="1.0" encoding="utf-8"?>
<!-- Generator: Adobe Illustrator 25.2.0, SVG Export Plug-In . SVG Version: 6.00 Build 0)  -->
<svg version="1.1" id="Calque_1" xmlns="http://www.w3.org/2000/svg" xmlns:xlink="http://www.w3.org/1999/xlink" x="0px" y="0px"
	 viewBox="0 0 1000 1000" style="enable-background:new 0 0 1000 1000;" xml:space="preserve">
<path d="M747.7,198.2c-2.8,2.6-5.8,5.1-8.5,7.8c-18,18.2-35.6,36.8-54.1,54.5c-27.1,25.9-70.3,15.7-82.1-19.2
	c-6.4-18.9-2.8-36.4,11.2-51.1c11.9-12.4,24.3-24.4,36.4-36.5c36.8-36.8,73.5-73.6,110.3-110.3c24.8-24.8,53.1-24.9,77.9-0.2
	c48.4,48.3,96.9,96.6,145.1,145.1c21.6,21.8,21.3,53.9-0.3,73.6c-19.5,17.8-48.8,17.6-68.5-1.3C897.1,243.2,879.6,225,862,207
	c-3-3.1-4.8-7.3-7.2-11c-1.5,0.8-3,1.7-4.5,2.5c-0.2,4.5-0.5,8.9-0.5,13.4c0,192.8-0.1,385.5,0.1,578.3c0,26.7-3.3,52.9-14.7,77.1
	c-32,68.1-85.8,104.8-161.3,107.2c-41.6,1.3-83.2,0.5-124.8,0.1c-24.2-0.2-43.7-17.2-48.2-40.7c-4.4-22.9,8.5-46.6,30.9-54.9
	c6.9-2.6,14.8-3.7,22.2-3.8c38-0.4,76-1.2,114,0.1c43.3,1.5,83-32.7,82.4-82.3c-0.7-62.8-0.2-125.6-0.2-188.4
	c0-130.4,0-260.8,0-391.1c0-4.8,0-9.5,0-14.3C749.4,198.9,748.5,198.5,747.7,198.2z M249.8,801c0-4.3,0-8.7,0-13c0-68,0-136,0-204
	c0-124.8,0.8-249.6-0.4-374.3c-0.5-52.3,39.9-87.1,84.7-85.1c37.9,1.7,76,0.5,114,0.3c29.7-0.2,51.7-21.9,51.6-50.2
	c-0.1-28.6-21.8-49.3-52.1-49.4c-40.4-0.1-80.8-0.7-121.2,0.1c-64.4,1.3-114.3,29.8-149.2,83.7c-19.2,29.6-27.1,62.7-27,98
	c0.2,193.6,0.1,387.1,0.1,580.7c0,4.5,0,9,0,13.5c-5.4-2.2-8.4-4.7-11.1-7.5c-17.7-17.9-35.2-36.1-53.2-53.7
	C65,720,34.4,720,14.7,739.7c-19.6,19.5-19.7,50.7,0.5,71.1c49.6,50,99.4,99.7,149.5,149.2c5.5,5.4,12.8,10,20.1,12.4
	c19.6,6.4,37.1,1.5,51.7-13.1c49.2-49.2,98.4-98.4,147.6-147.6c2.3-2.3,4.5-4.6,6.3-7.2c9.9-14,12.2-29.4,6.7-45.6
	c-11.8-34.5-54.3-45.3-81.1-20.1c-18.7,17.5-36.1,36.2-54.2,54.4c-3,3-6.2,5.9-9.3,8.9C251.6,801.6,250.7,801.3,249.8,801z"/>
</svg>
