<?xml version="1.0" encoding="utf-8"?>
<!-- Generator: Adobe Illustrator 25.2.0, SVG Export Plug-In . SVG Version: 6.00 Build 0)  -->
<svg version="1.1" id="Calque_1" xmlns="http://www.w3.org/2000/svg" xmlns:xlink="http://www.w3.org/1999/xlink" x="0px" y="0px"
	 viewBox="0 0 1000 1000" style="enable-background:new 0 0 1000 1000;" xml:space="preserve">
<path d="M226.7,363.3C149.7,301.7,75,242-0.8,181.4C74.9,120.9,149.8,61,226.1,0c0.3,4.8,0.6,7.9,0.6,10.9c0,37.5,0,75,0,112.5
	c0,13.1-1.3,12.2,12.5,12.2c219.9,0,439.8,0,659.7,0c4,0,8-0.2,12,0.1c24.4,1.4,42.1,18.8,43.9,43.1c0.3,3.6,0.3,7.3,0.3,10.9
	c0,98.7,0,197.3,0,296c0,2.5-0.1,5.1,0,7.6c0.2,4.5-1.6,6.5-6.4,6.5c-26.2-0.1-52.4-0.1-78.6,0c-4.2,0-6-1.7-5.9-5.8
	c0.1-3.3,0-6.6,0-9.8c0-80.5,0-160.9,0-241.4c0-3.3-0.1-6.6,0-9.8c0.2-4.7-2-6.6-6.6-6.3c-2.9,0.2-5.8,0-8.7,0
	c-202.4,0-404.9,0-607.3,0c-16.7,0-14.7-2.1-14.7,14.2c-0.1,36.4,0,72.8,0,109.2C226.7,353.8,226.7,357.3,226.7,363.3z M773.2,649.9
	c0,37.1,0,74.3,0,111.4c0,12.9,1.1,12-11.6,12c-204.6,0-409.3,0-613.9,0c-11.9,0-12,0-12-11.8c0-75.4,0-150.7,0-226.1
	c0-9.1-0.3-18.2,0.1-27.3c0.2-6.3-2.4-8-8.3-8c-24.8,0.3-49.5,0.3-74.3,0c-7-0.1-9.1,2.6-8.4,8.9c0.2,1.8,0,3.6,0,5.5
	c0,98.7,0,197.3,0,296c0,4.7,0.1,9.5,0.6,14.2c2,17.8,14.7,33,32,37.6c5.9,1.6,12.2,2.1,18.3,2.1c55,0.2,110,0.1,164.9,0.1
	c166.8,0,333.5,0,500.3,0c13.7,0,12.2-0.7,12.2,12.5c0,37.5,0,75,0,112.5c0,3,0.4,6,0.8,10.6c76.3-61,151.2-120.9,226.8-181.4
	c-75.9-60.7-150.6-120.4-227.5-182C773.2,642.8,773.2,646.3,773.2,649.9z"/>
</svg>
