<?xml version="1.0" encoding="utf-8"?>
<!-- Generator: Adobe Illustrator 25.2.0, SVG Export Plug-In . SVG Version: 6.00 Build 0)  -->
<svg version="1.1" id="Calque_1" xmlns="http://www.w3.org/2000/svg" xmlns:xlink="http://www.w3.org/1999/xlink" x="0px" y="0px"
	 viewBox="0 0 1000 1000" style="enable-background:new 0 0 1000 1000;" xml:space="preserve">
<path d="M372.3,852.4c5,5,10,10.1,15,15.1c15.8,15.8,31.9,31.5,47.4,47.6c14.4,14.8,18.5,32.7,11.5,52c-7,19.5-21.7,30.2-42.1,32.6
	c-12.9,1.5-24.5-2.3-34.8-10.1c-3.5-2.7-6.7-5.7-9.8-8.8c-47-46.9-93.8-93.9-140.9-140.7c-9.3-9.3-16.8-19.4-18.6-32.7
	c-2.2-16.9,3-31.5,15.1-43.6c17.9-17.8,35.6-35.6,53.4-53.4c31.1-31.1,62.2-62.2,93.3-93.3c9.7-9.7,20.8-15.9,34.8-16.5
	c21-0.8,38.9,9.6,47.6,28c8.9,18.7,5.7,40.4-8.9,55.6c-18.1,18.7-36.7,36.8-55,55.3c-2.7,2.7-5.1,5.7-9.6,10.7
	c102.7-0.2,202.7,0.4,302.7-0.4c0.4-1,0.8-1.9,1.2-2.9c-2.4-2.8-4.7-5.7-7.2-8.3C588.2,659,508.7,579.6,429.2,500.2
	c-67.9-67.8-135.7-135.7-203.6-203.5c-10-10-7.5-10.3-19.3-1.6c-74,54.5-110.1,127.7-106.2,219.8c1.8,42.9,15.4,82.1,37.7,118.5
	c4.5,7.4,8.8,15.6,10.3,23.9c4.5,23.5-8.1,45.3-29.8,54.3c-22,9.1-46.3,2-60.2-18.4c-24.4-35.7-41.9-74.8-49.9-117.2
	c-27-142.7,15.7-260.8,128-353.3c2.4-2,4.8-4,8.2-6.9c-3.3-3.5-6.2-6.6-9.2-9.6C96,166.9,56.7,127.6,17.3,88.4
	C6.3,77.5-0.4,64.9,0,49.1C0.6,29.3,9.5,14.4,27.1,5.7C45-3.2,62.8-1.7,79.2,10c4.2,3,7.8,6.8,11.5,10.5
	c296,296,592,592,888.1,887.9c11.8,11.8,20.5,24.4,20.1,41.8c-0.5,19.7-9.3,34.7-26.8,43.5c-17.8,9-35.6,7.6-52.1-4.1
	c-4.8-3.4-9-7.9-13.3-12.1C860.8,931.8,815,886.1,769.5,840c-6.1-6.1-11.2-7.9-19.8-5.3c-34.6,10.7-70.2,15-106.4,14.9
	c-85.6-0.3-171.1-0.1-256.7-0.1c-4.4,0-8.7,0-13.1,0C373.1,850.5,372.7,851.4,372.3,852.4z M626.6,252.7
	c-16.3,16.3-32.7,32.6-48.9,49.1c-6.2,6.2-12.8,12.2-18,19.2c-22.9,31-3.5,74.4,34.8,78.5c17.7,1.9,31.8-5,44-17.3
	c31.3-31.5,62.7-62.8,94.1-94.2c16.7-16.7,33.4-33.3,50-50c9.6-9.6,16.1-20.7,16.8-34.7c0.8-14.8-3.7-27.7-14.1-38.1
	c-49.9-50.1-100-100.1-150-150.1c-1.7-1.7-3.6-3.2-5.5-4.7c-23.3-17.7-56.7-11.6-72.3,13.1c-12.4,19.6-9.8,44.1,7.2,61.7
	c17.8,18.4,36.1,36.2,54.2,54.4c2.7,2.7,5.1,5.7,9.5,10.6c-6.8,0-11,0-15.2,0c-61.6,0-123.1,0-184.7,0c-29.6,0-59.2-0.2-88.7,0.3
	c-13.8,0.2-27.5,2-43.9,3.3c4.7,5.2,7.2,8.1,9.9,10.9c26,26,52.2,51.8,78,78.1c5.3,5.4,10.6,7.2,17.9,7.2
	c70.4-0.2,140.7-0.1,211.1-0.1c4.3,0,8.6,0,12.9,0C625.9,250.7,626.2,251.7,626.6,252.7z M901.8,742c83.9-91.3,113.2-198,88.7-319.2
	c-8.5-41.9-25.6-80.7-49.6-116.1c-13.8-20.4-38.3-27.8-60.2-18.8c-21.8,8.9-34.4,30.5-30.1,54.1c1.4,8,5.3,15.9,9.6,23
	c62.4,101.8,50.2,221.8-31.6,309.3c-1.9,2-3.6,4.2-4.6,5.3c23.1,23.3,45.8,46.2,71.4,72.1C897.3,748.7,899.1,745,901.8,742z"/>
</svg>
