<?xml version="1.0" encoding="utf-8"?>
<!-- Generator: Adobe Illustrator 25.2.0, SVG Export Plug-In . SVG Version: 6.00 Build 0)  -->
<svg version="1.1" id="Calque_1" xmlns="http://www.w3.org/2000/svg" xmlns:xlink="http://www.w3.org/1999/xlink" x="0px" y="0px"
	 viewBox="0 0 1000 1000" style="enable-background:new 0 0 1000 1000;" xml:space="preserve">
<path d="M392.8,501c0,152.5-0.4,304.9,0.4,457.4c0.1,23.8-16.3,42-42.1,41.7c-103.8-1-207.5-0.4-311.3-0.4
	c-26,0-39.8-13.8-39.8-39.8C0,653.1,0,346.3,0,39.5c0-26,13.7-39.6,40-39.6c104.5,0,209,0,313.6,0c25.3,0,39.3,14,39.3,39.2
	C392.9,193.1,392.8,347,392.8,501z M607.2,959.9c0,26,13.8,39.8,39.8,39.8c104.1,0,208.3,0,312.4,0c26.8,0,40.6-13.6,40.6-40.2
	c0-306.4,0-612.9,0-919.3c0-26.8-13.6-40.3-40.4-40.3c-103.8,0-207.6,0-311.3,0c-27.8,0-41.1,13.1-41.1,40.7
	c0,152.8,0,305.7,0,458.5C607.2,652.7,607.2,806.3,607.2,959.9z"/>
</svg>
