<?xml version="1.0" encoding="utf-8"?>
<!-- Generator: Adobe Illustrator 25.2.0, SVG Export Plug-In . SVG Version: 6.00 Build 0)  -->
<svg version="1.1" id="Calque_1" xmlns="http://www.w3.org/2000/svg" xmlns:xlink="http://www.w3.org/1999/xlink" x="0px" y="0px"
	 viewBox="0 0 1000 1000" style="enable-background:new 0 0 1000 1000;" xml:space="preserve">
<path d="M535.6,816.1c-24.4,6.8-47.3,6.4-71.3,0.1c0,5.7,0,9.8,0,13.9c0,43.4-0.1,86.7,0,130.1c0.1,13.5-4.2,24.6-15.5,32.5
	c-10.4,7.3-21.5,9.7-33.3,4.2c-13.3-6.2-21.9-16.5-22.5-31.7c-0.5-13.3-0.1-26.6-0.1-39.9c0-47.2-0.1-94.4,0.1-141.5
	c0-7.1-1.3-13-6-18.8c-11.2-13.7-18.9-29.3-23.8-46.3c-1.5-5.3-4.1-7.8-9.8-9.3c-72.4-19-118.4-64.8-134.7-137.9
	c-4.7-21.2-2.7-43.8-3.9-65.8c-0.3-5.9,3.5-5.6,7.5-5.6c16.4,0,32.7,0,49.1,0c39.6,0,79.1,0.1,118.7-0.1
	c18.1-0.1,32.1-9.9,36.8-25.2c7-22.9-9.3-45.6-33.4-46.1c-18.6-0.4-37.3-0.1-55.9-0.1c-37.3,0-74.6,0-111.9,0
	c-10.7,0-10.8-0.1-10.8-10.3c-0.1-17.1-0.1-34.2,0-51.4c0-9.9,0.1-10.1,10-10.1c47.6-0.1,95.1,0,142.7,0c8.8,0,17.5,0.2,26.2-0.1
	c18.7-0.7,33.1-14.4,34.8-32.9c1.6-17-11.1-33.5-28.8-37.1c-4.8-1-9.8-1.1-14.7-1.2c-51.4-0.1-102.7,0-154.1-0.1
	c-19.1,0-15.8,2-16-16.6c-0.2-17.5,0-35,0-54.4c4.4,0,8.4,0,12.4,0c52.1,0,104.2,0,156.4,0c3.4,0,6.9,0.1,10.3-0.1
	c20.1-1.3,35.5-17.7,34.9-36.6c-0.7-19.6-16.2-34.5-36.7-34.6c-53.3-0.2-106.5-0.1-159.8-0.1c-4.1,0-8.2,0-13.3,0
	c0.6-4.2,0.7-7.3,1.5-10c20.3-68,64.8-111.2,133.7-128.2c14.2-3.5,29.3-4.7,44-4.8c70-0.5,140-0.3,210-0.2
	C687.3,0.3,758.4,55.2,779,131.7c0.9,3.2,1.4,6.5,2.5,11.6c-5.2,0-9.2,0-13.2,0c-53.3,0-106.5-0.1-159.8,0c-17,0-30.2,9.2-35.1,24
	c-7.3,22.1,7.5,44.7,31.1,47.1c3.8,0.4,7.6,0.2,11.4,0.2c52.9,0,105.8,0,158.7,0c10.5,0,10.6,0.1,10.6,10.4
	c0.1,15.2,0.1,30.4,0,45.7c-0.2,16.4,2.8,14.8-15.5,14.9c-51.4,0.1-102.7,0-154.1,0.1c-5.3,0-10.7,0.2-15.8,1.3
	c-14.8,3.3-24,12.6-27.4,27.3c-4.5,19.7,9.7,39.8,29.8,42.3c4.1,0.5,8.4,0.3,12.5,0.3c52.1,0,104.2,0,156.4,0c4.1,0,8.3,0,13.2,0
	c0.3,4.1,0.8,7.4,0.8,10.7c0.1,16.7,0.1,33.5,0,50.2c0,10.9-0.1,10.9-11.3,10.9c-55.2,0-110.3,0-165.5,0.1c-17,0-30.2,9.4-35,24.1
	c-7.2,22.2,7.7,44.6,31.4,47c3.8,0.4,7.6,0.2,11.4,0.2c52.5,0,105,0,157.5,0c12.8,0,11.5-0.9,11.6,11.7c0.1,23.2,1.1,46.5-5.6,69.1
	c-19.9,67.1-63.7,110-131.3,128.1c-6.9,1.8-10.2,4.4-12.1,11.2c-4.8,16.6-12.5,31.9-23.5,45.2c-4.5,5.4-5.7,11-5.7,17.7
	c0.2,59.4,0,118.7,0.2,178.1c0,12.7-4.4,23-14.3,30.8c-25,19.9-53.9-1.8-56.4-22c-0.6-4.5-0.7-9.1-0.7-13.7c0-41.9,0-83.7,0-125.6
	C535.6,826.7,535.6,822.5,535.6,816.1z M499.5,749.3c39.5,0.2,71.4-31.2,71.6-70.4c0.2-39.9-31.7-72.1-71.3-72
	c-39.2,0.1-71,31.9-71,71.1C428.8,717.4,460.2,749.2,499.5,749.3z"/>
</svg>
