<?xml version="1.0" encoding="utf-8"?>
<!-- Generator: Adobe Illustrator 25.2.0, SVG Export Plug-In . SVG Version: 6.00 Build 0)  -->
<svg version="1.1" id="Calque_1" xmlns="http://www.w3.org/2000/svg" xmlns:xlink="http://www.w3.org/1999/xlink" x="0px" y="0px"
	 viewBox="0 0 1000 1000" style="enable-background:new 0 0 1000 1000;" xml:space="preserve">
<path d="M500.9,0c123,0,246,0,369,0c67,0,118.3,43.3,129.2,109.4c1,6,0.8,12.3,0.8,18.5c0,247.8,0.1,495.6,0,743.4
	c0,69.1-58.4,128.4-127.9,128.5c-250.3,0.3-500.7,0.3-751,0c-64.5-0.1-120.8-56.4-120.9-121c-0.3-250.3-0.3-500.7,0-751
	C0.3,58.2,59.3,0.1,128.7,0C252.8,0,376.8,0,500.9,0z M499.6,717.8c80.4,0,160.8,0,241.2-0.1c5.4,0,11-0.3,16.2-1.4
	c14.2-3.1,23.8-15.6,23.6-30c-0.2-14-9.6-26.2-23.3-29.3c-5.6-1.2-11.5-1.5-17.3-1.5c-160.1-0.1-320.1,0.2-480.2-0.3
	c-29.6-0.1-40.2,15.6-40.3,31.2c-0.1,15.8,10.7,31.9,39.9,31.6C339.5,717.3,419.5,717.8,499.6,717.8z M500.2,342.9
	c48.4,0,96.7,0,145.1,0c34.2,0,68.4,0.2,102.6-0.1c22.1-0.1,36.5-17.7,31.8-38.3c-3.3-14.5-15.3-23.2-32.6-23.2
	c-164.8,0-329.5,0-494.3,0c-1.5,0-2.9,0-4.4,0.1c-18,1.2-30.7,16.4-28.5,34.3c2,16.7,14.8,27.2,33.8,27.2
	C335.8,342.9,418,342.9,500.2,342.9z M500.7,468.6c-80,0-160,0-240.1,0c-4.7,0-9.5-0.1-14.2,0.4c-14.7,1.6-25.2,12.5-26.7,27.2
	c-1.5,14.9,7.3,28.4,21.8,32.3c5.5,1.5,11.5,1.8,17.2,1.8c160.8,0.1,321.5,0.1,482.3,0c5.4,0,11-0.2,16.2-1.5
	c17.5-4.3,27.1-21.6,21.9-38.9c-4.1-13.9-15.8-21.4-34.1-21.4C663.6,468.5,582.1,468.6,500.7,468.6z"/>
</svg>
