<?xml version="1.0" encoding="utf-8"?>
<!-- Generator: Adobe Illustrator 25.2.0, SVG Export Plug-In . SVG Version: 6.00 Build 0)  -->
<svg version="1.1" id="Calque_1" xmlns="http://www.w3.org/2000/svg" xmlns:xlink="http://www.w3.org/1999/xlink" x="0px" y="0px"
	 viewBox="0 0 1000 1000" style="enable-background:new 0 0 1000 1000;" xml:space="preserve">
<path d="M612.3,566.3c-105.3,0-210.6-0.3-315.9,0.2c-26,0.1-46-8.8-58.5-31.8c-12.9-23.7-12.5-48,1-71.3
	c12.6-21.8,32.3-30.1,57.5-30c137.2,0.5,274.3,0.2,411.5,0.2c75.5,0,151-0.1,226.5,0.1c32.1,0.1,52.5,15.1,62.2,44.8
	c9,27.6-0.7,59.5-23.1,76.6c-12.2,9.3-26.2,11.3-41.1,11.3C825.7,566.2,719,566.3,612.3,566.3z M294.3,186.7
	c-48.7-0.7-77.2,48.8-60.7,92.1c10.7,28.1,31.6,41.5,64.9,41.5c203,0.1,405.9,0,608.9,0c10.4,0,20.8,0.3,31.2-0.1
	c26.1-1,44.5-14.2,55.1-37.6c19.7-43.3-8.8-97.2-61.4-96.1c-105.9,2.2-212,0.6-318,0.7C507.7,187.2,401,188.3,294.3,186.7z
	 M920.3,812.8c6.9,0,13.9-0.1,20.8-0.2c24-0.5,40.3-13,51-33.5c22.8-43.8-6-100.2-60.2-99.9c-212,1.2-424,1.1-635.9,0.1
	c-53.3-0.2-81.3,54.8-59.9,98.8c12.2,25.1,32.9,35.1,60.8,35c106-0.6,212-0.2,318-0.2C716.7,812.8,818.5,812.8,920.3,812.8z
	 M170,254.4c0.9-45.3-38.1-85.2-84.1-86c-45.6-0.8-85.2,37.9-85.8,84c-0.6,46.3,37.4,85,83.8,85.4C130.5,338.2,169,300.8,170,254.4z
	 M0,746.5c-0.1,46.1,38.7,85.1,84.7,85.1c45.8,0.1,85.2-39.2,85.3-84.9c0.1-45.9-38.7-84.4-85.1-84.5C38.3,662.2,0.2,700,0,746.5z
	 M170,500.4c0.4-45.7-38.4-84.7-84.7-85.1C39,415,0.3,453.2,0.1,499.6c-0.3,46.3,37.9,84.8,84.4,85
	C130.6,584.9,169.6,546.5,170,500.4z"/>
</svg>
