<?xml version="1.0" encoding="utf-8"?>
<!-- Generator: Adobe Illustrator 25.2.0, SVG Export Plug-In . SVG Version: 6.00 Build 0)  -->
<svg version="1.1" id="Calque_1" xmlns="http://www.w3.org/2000/svg" xmlns:xlink="http://www.w3.org/1999/xlink" x="0px" y="0px"
	 viewBox="0 0 1000 1000" style="enable-background:new 0 0 1000 1000;" xml:space="preserve">
<path d="M499.5,410.6c135.1,0,270.3,0.1,405.4,0c27,0,51,7.7,69.4,27.9c25.1,27.6,33,59.5,18.4,94.7c-14.5,34.8-41.6,52.9-79,56.1
	c-3.4,0.3-6.9,0.2-10.4,0.2c-269.1,0-538.2,0-807.3,0.1c-30.1,0-55.9-9.3-75.2-33c-46.4-57.2-9.1-132.5,51.6-143.7
	c8.2-1.5,16.8-2,25.2-2C231.5,410.6,365.5,410.6,499.5,410.6z M903.2,303.7c9.2,0,18.5-0.5,27.4-2.4c47.4-10.3,78.7-61.7,66.5-107.4
	c-11.9-44.9-52.7-69.4-90.8-69.4c-271.1,0.3-542.2,0.1-813.3,0.4c-10.5,0-21.4,2-31.5,5.2c-48.4,15.6-76.8,72.4-53.1,121.2
	c16.9,34.8,45.1,52.4,83.7,52.4c135.9,0.2,271.9,0.1,407.8,0.1C634.4,303.8,768.8,303.9,903.2,303.7z M96.8,696.3
	c-9.2,0-18.6,0.4-27.4,2.4c-54.7,12.6-79.4,70.6-65.3,112.8c12.3,36.6,48.2,63.9,87.9,63.9c271.5-0.1,542.9-0.1,814.4,0.1
	c12.2,0,23.4-2.6,34.8-6.5c43.7-15.3,74.5-71,49.6-121.1c-17-34.2-45-51.5-83.1-51.5c-135.5-0.1-271.1-0.1-406.6-0.1
	C366.3,696.2,231.5,696.2,96.8,696.3z"/>
</svg>
