<?xml version="1.0" encoding="utf-8"?>
<!-- Generator: Adobe Illustrator 25.2.0, SVG Export Plug-In . SVG Version: 6.00 Build 0)  -->
<svg version="1.1" id="Calque_1" xmlns="http://www.w3.org/2000/svg" xmlns:xlink="http://www.w3.org/1999/xlink" x="0px" y="0px"
	 viewBox="0 0 1000 1000" style="enable-background:new 0 0 1000 1000;" xml:space="preserve">
<path d="M500.8,63c125,0,250-0.1,375,0.1c52.7,0.1,98.7,32.1,116.5,81.6c29,81.1-27.4,164.6-114.4,168.2c-2.8,0.1-5.6,0.1-8.4,0.1
	c-246,0-492,0-738.1,0c-37.6,0-70.8-11.5-96.4-39.5c-35.9-39.3-44.6-85.2-24.2-133.9c20.7-49.3,60-75.9,113.8-76.2
	C250,62.4,375.4,63,500.8,63z M500.4,249.9c121,0,242.1,0,363.1,0c5.6,0,11.2,0.2,16.7-0.3c23.9-2.1,41.3-14.2,51.2-35.7
	c10-21.5,7.9-42.7-5.7-62.2c-14.4-20.5-35.4-26.7-59.4-26.7c-244.1,0.1-488.2,0-732.2,0.1c-6.3,0-12.8,0.5-19,1.6
	c-23,4-39.3,17.1-47.6,38.7c-8.5,22.1-5.1,43.1,9.8,61.7c13.8,17.1,32.3,23,53.9,23C254.3,249.7,377.3,249.8,500.4,249.9z
	 M499.6,937.1c-125,0-250,0.1-375-0.1C72,937,25.9,904.7,8.3,855.2c-28.8-81,27.5-164.5,114.8-167.9c3.6-0.1,7.2-0.1,10.7-0.1
	c244.4,0,488.9,0.1,733.3-0.1c32.1,0,61.4,7.8,86.6,28.3c42.1,34.3,55.9,87.7,39.8,136.7c-16.6,50.7-63.6,84.8-116.5,84.9
	C751.2,937.3,625.4,937.1,499.6,937.1z M500.3,750.3c-121,0-242.1,0-363.1,0c-5.6,0-11.2-0.2-16.7,0.3
	c-23.9,2.1-41.3,14.2-51.3,35.6c-10,21.5-7.9,42.7,5.7,62.2c14.3,20.5,35.4,26.8,59.3,26.7c244.1-0.1,488.2,0,732.2-0.1
	c6.3,0,12.7-0.5,19-1.6c23-3.9,39.3-17,47.6-38.7c8.5-22.1,5.2-43.1-9.8-61.7c-13.8-17.1-32.2-23-53.8-23
	C746.4,750.4,623.3,750.3,500.3,750.3z M500.3,624.8c-123.5,0-246.9-0.2-370.4,0.1c-39.4,0.1-72.8-13-98.4-43
	C-1.8,543-8.7,498.2,11,451.4c20-47.4,57.7-72.6,109.4-75.9c4.4-0.3,8.8-0.2,13.1-0.2c244.5,0,489.1,0.1,733.6-0.1
	c26.5,0,51.4,4.6,74,18.9c44.2,27.9,66.1,78.1,56.5,129.7c-9.3,49.8-48.9,89.5-99.6,98.9c-10.1,1.9-20.6,2-30.9,2
	C744.8,624.8,622.6,624.8,500.3,624.8z M500.7,437.6c-122.2,0-244.5,0-366.7,0c-5.6,0-11.2,0-16.7,0.8c-35.4,5.4-59,36.9-53.2,70.9
	c5.6,33,30.3,53.1,66,53.1c246.8,0.1,493.7,0.1,740.5-0.1c7.1,0,14.4-0.8,21.2-2.7c42.3-11.3,59.4-63.3,32.3-97.8
	c-13.9-17.7-32.6-24.4-54.5-24.4C746.8,437.7,623.8,437.6,500.7,437.6z"/>
</svg>
