<?xml version="1.0" encoding="utf-8"?>
<!-- Generator: Adobe Illustrator 25.2.0, SVG Export Plug-In . SVG Version: 6.00 Build 0)  -->
<svg version="1.1" id="Calque_1" xmlns="http://www.w3.org/2000/svg" xmlns:xlink="http://www.w3.org/1999/xlink" x="0px" y="0px"
	 viewBox="0 0 1000 1000" style="enable-background:new 0 0 1000 1000;" xml:space="preserve">
<path d="M872.8,825.7c-59.7,53-129.4,87.7-208.7,103.1c-36.4,7.1-73.2,11.4-110.2,7.9c-107.8-10.2-202.1-50.5-279.5-127.4
	c-44.6-44.2-78.1-95.6-100.5-154.2c-3-7.9-6.9-10.4-15.1-10.3c-49,0.4-98,0.2-147.1,0.2c-11.6,0-11.6-0.1-11.6-11.2
	c0-24.5-0.1-49,0-73.5c0-13.1-2-12.8,12.3-12.8c40.1,0,80.1,0,120.2,0c4.5,0,9.1,0,14.1,0c-0.7-14.5-1.8-27.2-1.8-40
	c0-15.5,0.7-31.1,1.7-46.6c0.6-10.2,0.9-10.5-9.6-10.5c-40.1-0.1-80.1,0-120.2,0c-16.7,0-16.7,0-16.7-16.7c0-26.4,0-52.8,0-81
	c5.2,0,9.8,0,14.3,0c47.9,0,95.7,0,143.6,0c13.5,0,11.4,0.4,15.9-10.5c57.5-140,159.3-229.9,305.7-268.9c36-9.6,72.8-10.8,109.9-11
	c50.1-0.3,98.1,8.9,144.8,26.2c52,19.3,98.6,47.4,139.3,84.2c-28.3,28.4-56.6,56.7-85.4,85.6c-97.2-76.5-204.8-96.9-321.5-53.1
	c-72.6,27.2-126.2,77.6-164.5,147.6c6.5,0,11,0,15.5,0c82.9,0,165.7,0,248.6,0c3.1,0,6.2,0.1,9.3,0c4.9-0.2,6.9,2.1,6.9,7
	c-0.1,27.6-0.1,55.2,0,82.9c0,5.3-1.6,8.1-7.3,7.7c-3.1-0.2-6.2,0-9.3,0c-94.1,0-188.3,0-282.4,0c-14,0-14.8,0-15.2,13.9
	c-0.7,23.3-0.6,46.6,0.1,69.9c0.4,13.3,1.3,13.3,14.6,13.3c94.5,0,189.1,0,283.6,0c3.1,0,6.2,0.2,9.3,0c5.1-0.3,6.7,2.4,6.7,7.1
	c-0.1,28-0.1,56,0,84c0,4.4-2,6.4-6.3,6.4c-3.1,0-6.2,0-9.3,0c-82.9,0-165.7,0-248.6,0c-4.6,0-9.2,0-15,0c1.3,3.2,1.9,5.4,2.9,7.3
	c52.9,90.7,130.7,145.6,235.2,159.5c88.8,11.8,168.8-11.2,238.7-67.4c5.8-4.7,9-4.6,14.2,0.8C820.2,772,846.4,798.6,872.8,825.7z"/>
</svg>
