<?xml version="1.0" encoding="utf-8"?>
<!-- Generator: Adobe Illustrator 25.2.0, SVG Export Plug-In . SVG Version: 6.00 Build 0)  -->
<svg version="1.1" id="Calque_1" xmlns="http://www.w3.org/2000/svg" xmlns:xlink="http://www.w3.org/1999/xlink" x="0px" y="0px"
	 viewBox="0 0 1000 1000" style="enable-background:new 0 0 1000 1000;" xml:space="preserve">
<path d="M141.2,443.7c-3.8-17.1-7.6-31.8-10.3-46.7c-1.3-7.3-4.8-9-11.4-8.9c-29.9,0.2-59.9,0.1-89.8,0.1c-3.5,0-7,0.2-10.4-0.2
	c-10.8-1.2-18.7-8.8-18.9-19.6c-0.4-23.9-0.5-47.8,0-71.8c0.3-12.2,9.1-19.6,22.9-19.7c22.1-0.3,44.3-0.1,66.4-0.1
	c4.2,0,8.5,0,14.1,0c-5.6-25.2-10.8-48.8-16.1-72.5c-4.6-20.3-9.2-40.7-13.8-61c-0.4-1.7-0.7-3.4-0.9-5.1
	c-2.4-16.4,5.3-26.4,21.7-26.7c23-0.5,46-0.4,69,0c14,0.2,20.4,5.7,23.4,19.6c9.3,44.6,18.4,89.4,27.6,134
	c2.4,11.6,2.5,11.7,14,11.7c55.1,0,110.3-0.2,165.4,0.2c9.2,0.1,12.6-2.8,14.6-11.7c9.4-42.9,19.5-85.5,29.4-128.3
	c5.3-22.8,9.2-25.8,33.1-25.8c20,0,39.9-0.1,59.9,0c18.1,0.1,24,4.9,28,22.4c9.9,43.2,19.4,86.5,29.6,129.6
	c3.5,14.9,0.2,13.4,16.6,13.4c54.7,0.1,109.4,0,164.1,0c13.1,0,13-0.1,15.2-13.1c7.1-42.4,14.1-84.9,21.3-127.3
	c3.5-20.4,9-25,29.3-25.1c22.1-0.1,44.3-0.1,66.4,0c21.9,0.1,30.1,10.2,25.3,31.3c-9,39.8-18.3,79.6-27.4,119.4
	c-1,4.2-1.8,8.5-2.9,13.9c4.2,0.3,7.9,0.8,11.6,0.8c22.1,0.1,44.3-0.1,66.4,0.1c17.9,0.1,25.2,7.5,25.3,25.4
	c0.1,20.9,0.2,41.8,0,62.6c-0.1,15.4-7.8,23.1-23.3,23.3c-31.3,0.2-62.5,0-93.8,0.1c-12.2,0-12.3,0.1-15.1,12.3
	c-3.2,13.9-6.2,27.8-9.7,43.3c5.6,0,9.9,0,14.1,0c33,0,66,0.7,99-0.3c18.3-0.6,30.5,7.5,29.1,28.6c-1.1,17.3-0.2,34.8-0.2,52.2
	c0,25.2-5.5,30.9-30.2,30.9c-39.9,0-79.9,0-119.8,0c-17.9,0-17.9,0-21.8,17c-22.5,97.8-45.1,195.6-67.6,293.3
	c-4.4,18.9-10,23.5-29.7,23.5c-28.2,0-56.4,0.1-84.6,0c-17.7,0-24.1-5.1-28.1-22.5c-22.7-97.8-45.3-195.5-67.9-293.3
	c-0.8-3.4-1.9-6.7-2.3-10.2c-0.7-5.9-3.6-8-9.5-8c-26.9,0.2-53.8,0.3-80.7-0.1c-8.4-0.1-8.5,5.6-9.7,11
	c-7.8,33.9-15.6,67.7-23.5,101.6c-15.1,65.6-30.3,131.2-45.5,196.8c-4.8,20.5-10.1,24.6-31.6,24.6c-26.5,0-53,0-79.4,0
	c-22.8,0-27.5-3.7-32.6-26.5c-21-93.7-41.9-187.4-62.9-281.1c-1.9-8.4-1.9-19.8-7.3-24.2c-5.4-4.4-16.5-2.1-25.1-2.1
	c-37.8-0.1-75.5,0-113.3-0.1c-19.4,0-26.3-7.2-26.4-26.9c0-19.1,0-38.3,0-57.4c0-20.2,6.9-27,27.5-27c33,0,66,0,99,0
	C130.9,443.7,135.2,443.7,141.2,443.7z M617.8,388.8c2.2,10.1,4.1,19.3,6.3,28.4c2,8.4,1.8,20.2,7.2,24.2c6.1,4.5,17.3,2.1,26.3,2.2
	c26.4,0.2,52.8,0.2,79.2-0.1c3.6,0,9.9-1.9,10.4-4.1c4.4-16.4,7.6-33.2,11.4-50.5C710.8,388.8,665.1,388.8,617.8,388.8z
	 M239.8,388.8c2.3,11.4,4.2,21.2,6.3,30.9c1.7,7.5,1.3,18.2,6.1,21.7c5.5,4.1,15.6,2.2,23.7,2.2c26.9,0.2,53.7,0.2,80.6-0.1
	c3.7,0,9.9-1.9,10.5-4.1c4.7-16.4,8.2-33.2,12.3-50.6C332,388.8,286.7,388.8,239.8,388.8z M655.6,555.6c6.9,30,13.9,58.1,19.7,86.5
	c5.7,28,10.2,56.3,14.8,81.6c10.3-54.5,21-111.2,31.7-168.2C699.4,555.6,678.3,555.6,655.6,555.6z M274.7,555.7
	c10.6,57.8,21.1,114.4,32,173.8c3.9-60.8,22.1-116.2,33.4-173.8C318,555.7,297,555.7,274.7,555.7z M476.6,443c14.7,0,27.9,0,42.8,0
	c-3.6-17.3-7-33.7-10.6-50c-1.7-7.8-8.3-4.1-12.9-4.8c-4.7-0.7-8.3,0.5-9.4,6.3C483.6,410.2,480.1,425.9,476.6,443z"/>
</svg>
