<?xml version="1.0" encoding="utf-8"?>
<!-- Generator: Adobe Illustrator 25.2.0, SVG Export Plug-In . SVG Version: 6.00 Build 0)  -->
<svg version="1.1" id="Calque_1" xmlns="http://www.w3.org/2000/svg" xmlns:xlink="http://www.w3.org/1999/xlink" x="0px" y="0px"
	 viewBox="0 0 1000 1000" style="enable-background:new 0 0 1000 1000;" xml:space="preserve">
<path d="M150.1,446.7c-5.2-19.9-9.6-38.3-15-56.3c-0.7-2.4-6.8-4.5-10.4-4.6c-23.4-0.4-46.9,0.2-70.3-0.4
	C27,384.7,5.5,367.1,1,342.7c-4.6-24.9,8.9-49.7,32.8-58.4c7.5-2.7,16-3.7,24.1-4c15.1-0.6,30.2-0.2,47.3-0.2
	c-2.4-9.9-4.2-18.5-6.5-27c-6.1-23-12.5-45.9-18.5-68.9c-8.3-31.5,6.7-59.1,36.4-67.4c28.2-7.9,55.8,8.8,64.4,39.6
	c10.5,37.5,20.4,75.1,30.1,112.7c2.1,8,5.2,11.2,13.9,11.1c56.8-0.4,113.6-0.4,170.5,0c8.7,0.1,11.9-3,13.9-11.1
	c9.4-36.9,19.2-73.6,29.2-110.3c11-40.6,57.8-58.3,93.8-35.8c13.8,8.6,20.7,21.5,24.7,36.7c9.6,36.4,19.6,72.6,28.8,109
	c2.2,8.6,5.8,11.5,14.9,11.5c56.8-0.5,113.6-0.5,170.5,0c9.5,0.1,13.4-2.6,15.8-12c9.7-38.5,20.3-76.9,30.9-115.2
	c5.6-20.2,19.7-32.8,39.8-36.8c20.2-4.1,37.8,2.3,51,18.6c11.9,14.6,13.7,31.4,9,49.1c-8.3,31.3-16.7,62.5-25.6,96.2
	c16.4,0,31.3-0.3,46.2,0.1c8.6,0.3,17.5,0.5,25.7,2.9c22.8,6.5,37.2,28.9,35.9,54.1c-1.1,22-18,43.5-40.7,45.9
	c-26.6,2.8-53.6,2.6-80.4,2.1c-11.9-0.2-17,3.3-19.2,14.7c-3,15.1-7.5,30-11.8,46.8c31,0,60.4-0.1,89.8,0.1
	c7.3,0.1,14.8,0.4,21.9,1.9c23.9,4.8,40.4,25.8,40.5,50.4c0.1,24.7-16.2,45.8-39.9,50.9c-6.7,1.5-13.7,2-20.6,2.1
	c-36,0.2-72,0.4-108-0.1c-9.4-0.1-13.4,2.6-15.8,12c-24.2,92.4-49.5,184.5-73.5,276.9c-10.3,39.8-43.2,51.9-75.8,42.1
	c-19.6-5.9-30-20.9-35.1-40.1c-24.5-91.9-49.3-183.6-73.3-275.6c-3.1-11.7-7.3-16-19.8-15.4c-27.3,1.1-54.7,0.8-82,0.1
	c-10.8-0.3-15.6,2.6-18.5,13.7c-24,92-48.7,183.8-73.3,275.7c-9.6,35.9-40.5,53.5-73.4,41.8c-19.3-6.9-29.7-21.4-34.8-40.6
	c-24.4-91.4-49.3-182.8-73-274.4c-3.4-13.3-8.7-16.6-21.7-16.3c-35.1,1-70.3,0.7-105.4,0.2c-39.9-0.6-65.7-35.3-52.9-70.4
	c7.7-21.2,26.9-34.5,51.4-34.8c26.5-0.3,52.9-0.1,79.4-0.1C138.8,446.7,143.5,446.7,150.1,446.7z M633.6,445.9
	c35.8,0,70.6,0,105.6,0c5.3-20.2,10.5-39.6,15.7-59.4c-46.3,0-91.4,0-137.4,0C623.1,407.1,628.4,426.5,633.6,445.9z M377.7,386.2
	c-45.9,0-89.9,0-135,0c5.5,20.6,10.9,40.3,16.1,59.9c34.9,0,68.5,0,102.8,0C367,426.2,372.2,406.8,377.7,386.2z M524.9,446.1
	c-5.1-19.6-9.5-37.5-14.8-55.1c-0.8-2.6-6.5-5.1-9.9-5.1c-5,0.1-13.5,1.3-14.4,4c-5.9,18.1-10.2,36.7-15.2,56.2
	C489.3,446.1,506,446.1,524.9,446.1z M685.3,639c0.8-0.1,1.5-0.1,2.3-0.2c7.5-28.5,15.1-56.9,22.7-85.8c-17,0-31.9,0-48,0
	C670.1,582.5,677.7,610.8,685.3,639z M332.9,553.1c-15.6,0-29.9,0-45.5,0c7.4,27.3,14.4,53.3,21.5,79.4c1-0.2,2-0.3,3-0.5
	C318.8,606,325.8,579.9,332.9,553.1z"/>
</svg>
