<?xml version="1.0" encoding="utf-8"?>
<!-- Generator: Adobe Illustrator 25.2.0, SVG Export Plug-In . SVG Version: 6.00 Build 0)  -->
<svg version="1.1" id="Calque_1" xmlns="http://www.w3.org/2000/svg" xmlns:xlink="http://www.w3.org/1999/xlink" x="0px" y="0px"
	 viewBox="0 0 1000 1000" style="enable-background:new 0 0 1000 1000;" xml:space="preserve">
<path d="M194.3,634.3c14.8,0,27.4,0,40,0c30.6,0,61.1-0.1,91.7,0c22,0.1,22,0.2,23.5,21.7c4.3,59.1,50.7,110.5,108.9,120.7
	c2,0.3,4.1-0.2,8.6-0.6c0-7.7,0-15.4,0-23c0-59.7,0-119.4,0-179.1c0-27.6-0.5-26.2-26-34.1c-39.2-12.2-79-23.9-116.3-40.7
	c-79.6-35.8-116.5-105.8-112.5-192.6c3.8-84.3,58.2-181,192.7-212c15.9-3.7,32-6.9,48.2-8.3c11.4-1,14.3-5.8,14.1-16.1
	c-0.4-18.5,0.4-37-0.3-55.4c-0.4-11,3.4-15.4,14.6-14.7c12,0.7,24.2,0.5,36.2,0.1c9.3-0.4,12.6,3.9,12.5,12.7
	c-0.2,19.2,0.4,38.4,0,57.6c-0.2,10.4,3.7,14.7,14.2,16.9c25.7,5.3,51.7,10.2,76.4,18.8c87.7,30.4,139,92.4,154.6,183.9
	c0.8,4.9,1,9.9,1.2,14.9c0.1,3.5-0.3,6.9-0.5,11.5c-5.2,0.6-10,1.6-14.8,1.6c-39.8,0.1-79.6-0.4-119.4,0.4
	c-13.1,0.3-18.9-3.4-20.5-17c-3.1-27.1-15-50.7-36.4-67.7c-10.8-8.6-24.2-14.7-37.3-19.2c-13.6-4.6-16.8-1.7-16.9,12.5
	c-0.3,55.4,0.1,110.9-0.4,166.3c-0.1,11.5,4.6,16.4,15.1,19c22.7,5.7,45.8,10.6,67.7,18.6c27.9,10.2,56.3,20.7,81.8,35.5
	c70.9,41.3,109,102.6,110.8,186.6c2,93.5-40.7,159.8-118,207.3c-41.4,25.5-86.8,38.1-134.8,42.6c-22.1,2.1-22.2,1.9-22.3,24
	c-0.1,19.2-0.4,38.4,0,57.6c0.2,10.6-3.3,15.9-14.7,15.4c-11.3-0.6-22.8-0.5-34.1,0c-11,0.5-15.2-3.9-14.8-15
	c0.6-18.5,0.2-37,0.1-55.4c0-24.3-0.1-24-23.7-26.7c-47.1-5.5-91.9-18.5-132.1-44.4c-62.6-40.3-94.5-100.3-108.9-171.2
	C199,670.7,197.2,653.9,194.3,634.3z M534.9,567.9c-2.2,3.1-3.8,4.2-3.8,5.4c-0.3,64.5-0.3,129-0.7,193.5
	c-0.1,10.5,5.7,11.4,13.8,10c40.2-6.9,74.1-24.2,95.4-60.5c19.2-32.8,13.8-83.4-12.2-106.6C600.9,586.1,567.6,576.7,534.9,567.9z
	 M465.2,393.5c0.8-8.3,1.7-13.8,1.8-19.3c0.1-48.9-0.2-97.7,0.2-146.6c0.1-12.1-4.3-18-16.2-14.3c-15.4,4.7-31.8,8.6-45.3,16.9
	c-30,18.4-40.6,47.8-38.4,82c2,31.8,20.2,52.1,48.5,63.8C431.3,382.5,447.5,387.3,465.2,393.5z"/>
</svg>
