<?xml version="1.0" encoding="utf-8"?>
<!-- Generator: Adobe Illustrator 25.2.0, SVG Export Plug-In . SVG Version: 6.00 Build 0)  -->
<svg version="1.1" id="Calque_1" xmlns="http://www.w3.org/2000/svg" xmlns:xlink="http://www.w3.org/1999/xlink" x="0px" y="0px"
	 viewBox="0 0 1000 1000" style="enable-background:new 0 0 1000 1000;" xml:space="preserve">
<path d="M391.2,621.3c0,28.6,0,55.1,0,83c5.5,0,10.3,0,15.2,0c111.2,0,222.4,0,333.6,0c26.2,0,32.5,6.3,32.5,32.2c0,25,0.1,50,0,75
	c-0.1,22.1-7.9,30-30.3,30c-111.2,0.1-222.4,0-333.6,0c-5.4,0-10.8,0-18.1,0c0,5,0,9.4,0,13.8c0,39.6,0,79.1,0,118.7
	c0,18-7.7,25.8-25.8,25.9c-37.5,0.1-75,0.1-112.5,0c-18.5-0.1-26.4-8-26.4-26.8c-0.1-38.7,0-77.5,0-116.2c0-4.5,0-9,0-14.7
	c-5.3-0.2-9.7-0.6-14.1-0.6c-45.4,0-90.8,0-136.2,0c-24.3,0-31.3-7-31.3-31.3c0-26.2-0.2-52.5,0-78.7c0.2-19.9,7.5-27.1,27.3-27.2
	c46.2-0.1,92.5,0,138.7,0c4.5,0,9,0,14.6,0c0-27.6,0-54.4,0-82.4c-4.4-0.2-8.8-0.6-13.2-0.6c-45.4,0-90.8,0-136.2-0.1
	c-24.4,0-31.2-6.9-31.3-31.3c0-30.4-0.1-60.8,0-91.2c0.1-22.2,7.1-29.4,29-29.4c45.8-0.1,91.6,0,137.4,0c4.5,0,9,0,15.2,0
	c0-6,0-10.8,0-15.6c0-140.4,0-280.7,0-421.1c0-26.4,6.1-32.6,32-32.6C389,0,520.2,0,651.4,0C787,0.1,909.8,91,943.2,222.2
	c28,109.7,11.5,213-67.4,299.4c-54.7,59.9-124.3,94.2-205.4,97.6c-87.3,3.6-174.9,1.7-262.3,2.1
	C402.8,621.4,397.4,621.3,391.2,621.3z M391.2,468.3c3,0.3,5,0.7,7,0.8c76.6,0.1,153.2,1.4,229.7-0.2
	c105.3-2.1,174.7-89.9,154.6-193.2c-14.1-72.3-78.1-123.5-155.5-123.8c-74.9-0.3-149.8,0-224.8,0.1c-3.6,0-7.2,0.5-11.1,0.8
	C391.2,258.2,391.2,362.6,391.2,468.3z"/>
</svg>
