<?xml version="1.0" encoding="utf-8"?>
<!-- Generator: Adobe Illustrator 25.2.0, SVG Export Plug-In . SVG Version: 6.00 Build 0)  -->
<svg version="1.1" id="Calque_1" xmlns="http://www.w3.org/2000/svg" xmlns:xlink="http://www.w3.org/1999/xlink" x="0px" y="0px"
	 viewBox="0 0 1000 1000" style="enable-background:new 0 0 1000 1000;" xml:space="preserve">
<path d="M504.6,338.3c-6.2,0-12.3,0-18.4,0c-89.4,0-178.7,0-268.1,0c-5.7,0-11.5,0.1-17.1-0.9c-12.7-2.2-19.6-9.4-19.8-22.2
	c-0.5-24.4-0.5-48.8,0.1-73.2c0.3-12.7,7.7-19.8,20.4-21.3c5.6-0.7,11.4-0.6,17.1-0.6c86.2,0,172.5,0,258.7,0c5.6,0,11.1,0,19.3,0
	c-8.2-16.1-17.6-27.9-29.8-37.6c-32.1-25.5-69.8-36.9-109.7-39.3c-45.6-2.8-91.3-2.4-137-3.4c-5.2-0.1-10.4,0.2-15.6-0.1
	c-14.3-1-23.4-9.5-23.6-23.8c-0.5-30.6-0.4-61.3,0-91.9c0.2-15.1,8.4-22.9,23.1-23.7c4.1-0.2,8.3-0.1,12.5-0.1
	c188.6,0,377.2,0,565.7,0c4.2,0,8.3-0.2,12.5,0.1c13,0.8,21.3,6.7,21.8,19.7c1.1,25.9,1.3,51.9-0.1,77.8c-0.7,14.3-9.7,20-26.4,20
	c-46.8,0.1-93.5,0.1-140.3,0.1c-5.6,0-11.2,0-18.5,0c1.6,3.9,2.2,6.4,3.5,8.3c17.4,25,29.7,52.4,36.6,81.9
	c2.3,9.8,6.4,12.5,15.7,12.4c31.7-0.4,63.4-0.2,95.1-0.1c5.2,0,10.4,0,15.6,0.6c12.9,1.6,20.4,8.5,20.7,21c0.6,24.9,0.6,49.9,0,74.8
	c-0.2,11.2-6.8,18.1-17.9,20.5c-5,1.1-10.3,1.3-15.4,1.3c-29.6,0.1-59.2,0.1-88.8,0.1c-19.9,0-19.7,0.1-23.7,18.8
	c-11.5,53.2-36.6,98.9-76.1,136.5c-36.9,35.1-80.5,58.5-129,72.6c-20.3,5.9-41.5,9.1-62.2,13.7c-4.4,1-8.6,2.2-15,3.9
	c15.7,17.4,30.7,33.2,44.7,49.7c92.2,108.4,184.2,216.9,276.2,325.4c1.3,1.6,2.6,3.2,3.9,4.8c5.9,7.2,6.7,15.2,2.8,23.3
	c-3.9,8-10.2,12.9-19.6,12.9c-46.8,0-93.5-0.1-140.3,0.1c-9.5,0-15.1-5.8-20.5-12.3c-30.8-36.6-61-73.6-92.5-109.5
	C363,784.1,280.2,690.2,196.9,596.8c-11.1-12.5-17.1-24.7-16.1-41.7c1.3-22.3,0.3-44.7,0.3-67c0.1-22.9,7.6-30.1,31-30.5
	c37.9-0.6,75.9-0.4,113.7-2.5c41.8-2.4,82.1-12.1,118.5-34.2c26.1-15.9,45.5-37.6,57.2-65.9c1.4-3.3,2.5-6.8,3.4-10.3
	C505.2,343.3,504.8,341.7,504.6,338.3z"/>
</svg>
