<?xml version="1.0" encoding="utf-8"?>
<!-- Generator: Adobe Illustrator 25.2.0, SVG Export Plug-In . SVG Version: 6.00 Build 0)  -->
<svg version="1.1" id="Calque_1" xmlns="http://www.w3.org/2000/svg" xmlns:xlink="http://www.w3.org/1999/xlink" x="0px" y="0px"
	 viewBox="0 0 1000 1000" style="enable-background:new 0 0 1000 1000;" xml:space="preserve">
<path d="M346.5,428.1c-5-6.7-8.1-11.3-11.6-15.5C255.4,317.3,176,222,96.4,126.8C83.7,111.6,72.7,96,71.7,75.3
	c-1.4-29.7,15.1-57.1,41.8-69c27.6-12.3,59.6-6.7,80.3,16.2c21.1,23.3,40.7,48,60.8,72.1C333.3,189.1,412,283.6,490.7,378
	c2.5,3,5.4,5.7,11.9,12.6c2.6-4.8,4.1-9.3,7-12.7c95.8-115.2,191.9-230.1,287.5-345.5c18-21.8,39.4-35.1,68.2-31.8
	c55.6,6.4,82.2,69.5,47.6,114.2c-24.9,32.1-51.6,62.7-77.6,93.8c-57.5,69-115,137.9-172.5,206.9c-2.8,3.3-4.9,7.1-9.3,13.6
	c13.6,0,24.2,0,34.8,0c9.7,0,19.5-0.4,29.2,0.2c39.5,2.3,68.1,33,67.5,72.3c-0.6,38-29.9,68.4-68.8,69.2
	c-39.4,0.9-78.9,0.1-118.4,0.3c-30.4,0.1-26.4-3.4-26.8,26.2c-0.1,9.7-0.1,19.4,0,29.2c0.2,17.2,0.2,17.4,16.9,17.5
	c39.5,0.1,78.9-0.1,118.4,0.1c9.1,0.1,18.5,0.1,27.2,2.4c34.1,8.9,54.6,40.6,51,77.2c-3.3,33.1-31.3,60.2-65.6,61
	c-42.9,1.1-85.8,0.4-128.7,0.5c-19.1,0.1-19.2,0.1-19.2,18.6c-0.1,40-0.1,80.1,0,120.1c0,15.8-3,30.7-11.9,44
	c-17.3,25.9-48.5,37.6-78,29.3c-30.2-8.4-51.3-34.8-51.8-67.1c-0.7-41.7-0.2-83.5-0.3-125.3c0-19.7-0.1-19.7-19.8-19.8
	c-42.3-0.1-84.7,0.4-127-0.4c-27.6-0.5-48-14.4-60-38.9c-12-24.4-10.4-49,5-71.6c13.9-20.3,33.6-30.3,58.3-30.3
	c39.5,0,78.9,0,118.4-0.1c4,0,8-0.3,12,0c9.4,0.7,13.5-3,13.2-12.8c-0.6-14.8,0-29.7-0.2-44.6c-0.2-15.2-0.3-15.4-15.2-15.4
	c-38.3-0.1-76.6,0-115-0.1c-5.1,0-10.3,0.1-15.4-0.1c-38.8-1.9-67.9-31.7-68.3-69.8c-0.4-39.2,28.3-69.9,67.9-71.9
	c14.8-0.7,29.7-0.1,44.6-0.3C332.9,429.1,338.3,428.6,346.5,428.1z"/>
</svg>
