<?xml version="1.0" encoding="utf-8"?>
<!-- Generator: Adobe Illustrator 25.2.0, SVG Export Plug-In . SVG Version: 6.00 Build 0)  -->
<svg version="1.1" id="Calque_1" xmlns="http://www.w3.org/2000/svg" xmlns:xlink="http://www.w3.org/1999/xlink" x="0px" y="0px"
	 viewBox="0 0 1000 1000" style="enable-background:new 0 0 1000 1000;" xml:space="preserve">
<path d="M480.8,356.1c-9.4,0-15.6,0-21.7,0c-54.9,0-109.8,0.1-164.7-0.1c-9.6,0-19.6-0.3-28.8-2.8c-34.2-9.5-54.1-41.3-49.9-77.9
	c3.7-33,32-59.5,66.6-60c58.3-0.9,116.7-0.3,175-0.4c6.8,0,13.5,0,22.9,0c-3.2-6.1-4.7-10.3-7.2-13.6
	c-27.7-37.2-64.8-57.1-111.1-58.9c-26.3-1-52.6,0.4-78.9-0.6c-28.8-1.1-50.2-15.5-61.8-41.9c-11.6-26.2-8.1-51.6,10-74
	c14.2-17.5,33.2-25.6,55.7-25.6c32,0,64.1,0,96.1,0c108.7,0,217.3,0.1,326-0.1c24.4-0.1,45.3,7.1,60.5,26.5
	c17.8,22.6,20.9,48.1,9,74.2c-12,26.2-33.5,40.2-62.4,41c-29.7,0.8-59.5,0.2-89.2,0.3c-6.2,0-12.4,0-20.5,0c1.8,5.5,2.7,9,4.1,12.4
	c6.4,15.9,13.8,31.4,19.1,47.6c3.3,10.1,8.4,13.3,18.5,13c23.4-0.5,46.9-0.7,70.3,0.2c34.5,1.3,62.6,27.5,66.1,60.6
	c3.9,36.6-16.4,68.2-50.5,77.6c-7.6,2.1-15.8,2.4-23.7,2.5c-20.6,0.3-41.2,0.6-61.8-0.1c-10.9-0.4-15.8,3.5-19.2,14.3
	c-22.9,72.5-67.8,127.7-134.2,164.5c-19.3,10.7-40.9,17.4-61.5,25.6c-5.2,2.1-10.7,3.3-18.3,5.5c4.4,6.9,7.8,12.5,11.4,18
	c66.6,99.9,133.1,199.9,199.8,299.7c12.2,18.3,19.2,37.5,14.1,59.8c-6.2,26.8-22.2,45-48.3,53.1c-26.8,8.3-50.9,2.2-71-17.8
	c-4.8-4.8-8.9-10.5-12.7-16.2c-92.7-138.9-185.4-277.7-277.6-416.9c-7.1-10.7-13.2-23.4-15-35.8c-6.3-43.4,24.5-79.1,68.4-80.6
	c25.7-0.9,51.5,0.5,77.2-0.6c46.9-1.9,84.5-22.2,112.2-60.2C475.8,365.7,477.1,362.6,480.8,356.1z"/>
</svg>
