<?xml version="1.0" encoding="utf-8"?>
<!-- Generator: Adobe Illustrator 25.2.0, SVG Export Plug-In . SVG Version: 6.00 Build 0)  -->
<svg version="1.1" id="Calque_1" xmlns="http://www.w3.org/2000/svg" xmlns:xlink="http://www.w3.org/1999/xlink" x="0px" y="0px"
	 viewBox="0 0 1000 1000" style="enable-background:new 0 0 1000 1000;" xml:space="preserve">
<path d="M499.4,1000c-108.6,0-217.1,0-325.7,0c-4.2,0-8.3,0.1-12.5-0.1c-14.9-0.8-23.2-8.3-23.5-23.4c-0.5-34.3-0.5-68.6-0.1-102.9
	c0.2-16,9.3-24.9,25.5-25.3c18.2-0.5,36.4-0.5,54.5,0c8.9,0.3,11.6-3,11.6-11.6c-0.2-83.1-0.2-166.2,0-249.3
	c0-8.9-3.2-11.7-11.8-11.4c-16.6,0.5-33.2,0.3-49.9,0.1c-20.4-0.2-28.2-7.7-28.4-28.3c-0.4-27-0.3-54,0-81
	c0.2-21.5,7.9-29.1,29.1-29.5c14-0.3,28.1,0,42.1-0.1c20.9-0.1,18.7,1.5,18.8-18.1c0.1-43.6-0.2-87.3,0.1-130.9
	c0.2-34.9,3.4-69.4,15.5-102.6c23.4-64.5,67-111.6,126-144.7c65.7-36.8,137-45.9,210.9-38.3C653.6,9.9,716.3,39,772.3,83.6
	c16.1,12.9,17.7,23.7,4.9,39.8c-21.7,27.2-43.6,54.2-65.7,81.1c-13.8,16.8-22.9,17.4-41.1,4.7c-42.4-29.4-88.7-47.4-141.2-44.7
	c-36.7,1.9-68.9,14.5-93.8,42.5c-18.8,21.1-27.2,46.4-27.4,74.3c-0.4,47.8-0.2,95.6-0.2,143.4c0,12.2,0.3,12.4,13.4,12.4
	c62.9,0.1,125.7,0,188.6,0c4.7,0,9.4-0.3,14,0.3c14.6,1.7,23.2,9.8,23.4,24.3c0.6,30.1,0.7,60.3,0,90.4c-0.4,16-10.4,23.9-28.4,23.9
	c-57.7,0.1-115.3,0.1-173,0.1c-6.2,0-12.5,0-18.7,0c-21.8,0.2-19.3-2.1-19.3,18.9c-0.1,77.4-0.1,154.8,0,232.2c0,19-2.6,18,17.1,18
	c86.8,0,173.5,0,260.3,0c18.3,0,16.6,1.2,16.6-17c0.1-34.3-0.1-68.6,0-102.9c0.1-23.3,7.5-30.9,30.6-31.1c33.2-0.2,66.5-0.2,99.7,0
	c23.2,0.1,30.5,7.7,30.5,31c0.1,81,0.1,162.1,0,243.1c0,24.9-6.6,31.6-31.2,31.6C720.7,1000,610.1,1000,499.4,1000z"/>
</svg>
