<?xml version="1.0" encoding="utf-8"?>
<!-- Generator: Adobe Illustrator 25.2.0, SVG Export Plug-In . SVG Version: 6.00 Build 0)  -->
<svg version="1.1" id="Calque_1" xmlns="http://www.w3.org/2000/svg" xmlns:xlink="http://www.w3.org/1999/xlink" x="0px" y="0px"
	 viewBox="0 0 1000 1000" style="enable-background:new 0 0 1000 1000;" xml:space="preserve">
<path d="M365.6,444.8c-3.9-7.4-6.5-12.8-9.4-18.1C286,300.2,215.8,173.7,145.5,47.3c-2-3.6-4.1-7.2-5.9-10.9
	c-9.9-19.7-0.5-35.6,21.4-35.9c24.9-0.3,49.8-0.1,74.8-0.1c17.1,0,34.3,0.9,51.4-0.3c17.2-1.2,26.6,6.3,33.9,21.2
	c23.3,47.4,47.9,94.2,71.3,141.7c37.8,76.7,74.9,153.7,112.4,230.5c1.1,2.3,2.5,4.4,4.7,8.1c3.1-6.3,5.6-11.2,7.9-16.2
	C572,264.7,627.1,144,681.4,22.9C688.8,6.3,698.4-0.5,716.8,0c39.4,1.2,78.9,0.3,118.4,0.4c27.1,0.1,36.3,15.5,23.3,39.6
	C788.8,169.1,719,298.1,649.3,427.2c-2.7,4.9-5.1,9.9-8.5,16.7c6.4,0.4,11.3,1,16.2,1c41.5,0.1,83.1,0,124.6,0.1
	c27,0,33.9,7.1,34,34.3c0,18.2,0.1,36.3,0,54.5c-0.2,22.4-7.8,30.2-29.9,30.2c-60.7,0.1-121.5,0-182.2,0c-17,0-17,0.1-17.1,16.9
	c0,10.9,0.4,21.8-0.1,32.7c-0.4,8.3,3,10.8,10.9,10.7c21.8-0.3,43.6-0.1,65.4-0.1c40,0,80-0.1,119.9,0c24.9,0.1,32.9,8,33,32.5
	c0.1,17.7,0.1,35.3,0,53c-0.1,26.8-7.2,33.8-34.6,33.9c-57.6,0.1-115.3,0-172.9,0c-3.6,0-7.3,0.3-10.9,0
	c-7.9-0.7-11.5,2.5-10.9,10.7c0.5,7.2,0.1,14.5,0.1,21.8c0,62.3,0,124.6,0,186.9c0,5.2,0.2,10.4-0.4,15.6
	c-1.3,13-9.2,21.2-22.3,21.3c-40.5,0.4-81,0.4-121.5,0.1c-12.8-0.1-20.2-6.8-22.7-19.3c-1-5-1-10.3-1-15.5
	c-0.1-68.5,0-137.1-0.1-205.6c0-15.8-0.1-15.9-16.3-15.9c-57.6,0-115.3,0-172.9,0c-4.7,0-9.4,0.2-14-0.3c-15-1.7-23.3-9.1-23.8-23.9
	c-0.9-23.3-0.9-46.7,0-70.1c0.6-15.8,10-24.1,26.3-24.9c12.4-0.6,24.9-0.2,37.4-0.2c49.8,0,99.7,0,149.5,0
	c13.6,0,13.7-0.2,13.8-13.6c0.1-11.4-0.5-22.9,0.2-34.3c0.5-9.5-2.7-12.8-12.4-12.5c-20.7,0.6-41.5,0.2-62.3,0.2
	c-41,0-82,0.1-123.1,0c-21.2-0.1-29.4-8-29.8-28.9c-0.3-20.2-0.3-40.5,0-60.7c0.3-20.8,8.7-29.3,29.6-29.4
	c42.1-0.3,84.1-0.1,126.2-0.1C352.4,444.8,357.9,444.8,365.6,444.8z"/>
</svg>
