<?xml version="1.0" encoding="utf-8"?>
<!-- Generator: Adobe Illustrator 25.2.0, SVG Export Plug-In . SVG Version: 6.00 Build 0)  -->
<svg version="1.1" id="Calque_1" xmlns="http://www.w3.org/2000/svg" xmlns:xlink="http://www.w3.org/1999/xlink" x="0px" y="0px"
	 viewBox="0 0 1000 1000" style="enable-background:new 0 0 1000 1000;" xml:space="preserve">
<path d="M809.7,850.4C818,874,826.5,898,834.9,922c3.4,9.7,6.6,19.4,10.2,29c1.7,4.4,1,6.7-3.7,8.7c-57.4,24.8-115.9,44.1-179.9,38
	c-29.8-2.8-58.2-11.2-86.6-19.6c-28.1-8.3-56.1-16.7-84.2-25.1c-61.9-18.6-123.7-17.5-185.6,0c-37.5,10.6-73,25.9-107,47
	c-1.4-2.5-2.9-4.5-3.8-6.8c-13-32.5-25.8-65-39.1-97.3c-3-7.3-1-10.3,5.3-14.2c55-33.8,97.7-79.1,122.2-139.1
	c24.6-60.3,26.7-122.8,12.2-186.1c-1.8-7.9-5-10.5-13-10.4c-33.9,0.4-67.8,0.2-101.6,0.2c-3,0-6.1-0.2-9.1,0c-6,0.5-7.9-2.4-7.9-8.1
	c0.1-26.6,0.3-53.3-0.1-79.9c-0.1-7.3,2.9-9,9.5-8.9c25.9,0.2,51.8,0.1,77.6,0.1c4.1,0,8.2,0,14.2,0c-2.3-8.3-4.2-15.1-6.1-21.9
	c-10-35.9-20.6-71.7-24.8-108.9c-6.4-56.9-2.5-112.7,22.5-165.2C286.4,90.6,336.3,49,399.9,23.1C438,7.5,477.8,0.5,519,0.1
	c36.7-0.4,73.1,1.4,108.4,12.2c93.6,28.4,154,90.1,182.7,183.2c4.5,14.5,7.4,29.5,10.6,44.3c1.9,8.9,1.2,9.4-8.1,10.8
	c-33.1,4.9-66.2,9.5-99.3,14.9c-7.1,1.1-9.2-0.5-10.2-7.5c-3-21.2-8.3-41.8-18-61C652,131,598.8,96.4,524.4,96.9
	c-63.1,0.5-112,27.6-145.6,81.2c-15.3,24.5-21.5,51.7-21.3,80.5c0.2,32.9,4.9,65.3,12.4,97.1c6.7,28.1,15,55.8,22.1,83.8
	c1.9,7.7,5.5,10.1,13.5,10c60.1-0.3,120.3-0.2,180.4-0.1c19.4,0,16.6-2,16.7,17.3c0.2,21.7,0.1,43.4,0,65.1
	c-0.1,14.9,1.7,14.4-13.9,14.4c-52.5,0-105.1,0-157.6,0c-4.4,0-8.8,0-14,0c0.4,3.1,0.2,4.6,0.7,5.9c11.7,28.8,12,58.6,7.4,88.7
	c-10.3,68.5-40.9,127.6-84.3,180.7c-8.9,10.8-18.1,21.4-28.4,33.4c3.6-0.3,5.6-0.2,7.5-0.8c57.8-16.2,115.9-14.5,174.1-3
	c42.9,8.5,85.4,18.6,128.3,27.1c28,5.5,56.2,10.3,84.9,5.3c30.5-5.4,59.5-15.7,87.7-28.4c3.8-1.7,7.6-3.4,11.5-5
	C807.1,850,808,850.3,809.7,850.4z"/>
</svg>
