<?xml version="1.0" encoding="utf-8"?>
<!-- Generator: Adobe Illustrator 25.2.0, SVG Export Plug-In . SVG Version: 6.00 Build 0)  -->
<svg version="1.1" id="Calque_1" xmlns="http://www.w3.org/2000/svg" xmlns:xlink="http://www.w3.org/1999/xlink" x="0px" y="0px"
	 viewBox="0 0 1000 1000" style="enable-background:new 0 0 1000 1000;" xml:space="preserve">
<path d="M980.4,550.9c0,111.7,0,223.4-0.1,335.1c0,6.4-0.4,12.8-1.3,19.1c-4.7,32.6-21.6,49.7-54.5,54.2c-15.8,2.1-31.7,3.1-47.6,4
	c-65.5,3.9-130.9,7.6-196.4,11.5c-75.4,4.6-150.7,9.4-226.1,14c-53.1,3.2-106.2,6.2-159.2,9.2c-15.9,0.9-31.9,1.3-47.8,2
	c-27,1.1-47.9-10-64.1-31.2c-18.3-24-36.7-47.8-55.1-71.7c-24.4-31.7-48.9-63.4-73.3-95.2c-14.1-18.4-27-37.5-32-60.6
	c-1.8-8.2-3.1-16.8-3.2-25.2c-0.2-201.1-0.1-402.2-0.1-603.2c0-3.5,0-7.1,0.4-10.6c4.5-37.7,25.8-57,63.9-59.6
	c53.7-3.6,107.4-8,161.2-12c43.1-3.2,86.3-6.1,129.4-9.3c43.5-3.2,86.9-6.6,130.4-9.8c32.9-2.4,65.7-4.9,98.6-7
	c25.5-1.7,50.9-3,76.4-4.3c25.4-1.3,48.2,6.3,69,20.6c18.1,12.5,36,25.2,54,37.8c45,31.6,89.9,63.2,134.8,94.8
	c8.7,6.1,17.1,12.6,25.6,19.1c12.2,9.3,17.3,21.5,17.3,36.9C980.3,323.2,980.4,437.1,980.4,550.9z M913.3,555.1
	c0-94.7,0-189.4,0-284.1c0-4.6,0.1-9.2-0.2-13.8c-1.5-21.7-12.5-30.7-34.3-29.2c-43.5,2.9-87,5.3-130.6,7.9
	c-41.4,2.4-82.8,4.7-124.2,7.1c-53.8,3.2-107.6,6.6-161.4,9.7c-54.9,3.2-109.7,6.1-164.6,9.3c-16.6,1-33.3,2.1-49.9,3.5
	c-17.6,1.5-25.4,8.7-28.3,26c-0.8,4.9-1,9.9-1,14.8c0,191.5-0.1,383,0,574.5c0,5.6,0.7,11.3,1.8,16.8c2.5,13.2,10.6,22.2,23.7,24
	c12.9,1.7,26.1,1.9,39.1,1.3c30.5-1.3,60.9-3.6,91.3-5.4c43.2-2.5,86.4-4.7,129.6-7.3c54.1-3.2,108.3-6.6,162.4-9.7
	c55.9-3.2,111.9-6.2,167.8-9.4c15.9-0.9,31.9-1.8,47.7-3.6c16.8-1.9,26.1-10.6,29.4-27.4c1.5-7.6,1.6-15.5,1.6-23.3
	C913.4,743.1,913.3,649.1,913.3,555.1z M248.1,196.9c37.4-2.2,69.3-3.9,101.1-5.8c52.7-3.2,105.4-6.6,158.1-9.8
	c41.7-2.5,83.5-4.7,125.2-7.2c55.5-3.3,111.1-6.7,166.6-10.1c12-0.7,24.1-1.3,36.1-2.3c2.5-0.2,4.9-2,7.3-3.1
	c-1.2-2.5-1.9-5.4-3.6-7.3c-2.3-2.6-5.4-4.6-8.2-6.6c-29.6-21.4-59.5-42.3-88.6-64.3c-23.5-17.8-49.3-25.8-78.4-23.8
	c-45.6,3.2-91.2,6.3-136.8,9.6c-62.2,4.6-124.4,9.5-186.5,14c-63.3,4.6-126.5,9-189.8,13.5c-9.9,0.7-19.8,1.4-29.6,2.7
	c-5.9,0.8-12.6,2.4-14.4,9.2c-1.8,6.8,4.3,9.9,8.6,13.4c23,18.3,46.6,36,69,55C204.6,191.2,227,200,248.1,196.9z M693.5,643.1
	c-27-41.2-54-82.4-80.9-123.6c-34.7-53.1-69.5-106.1-104.2-159.2c-2.9-4.4-5.1-8.4-12.2-7.8c-45.9,3.5-91.9,6.3-137.9,9.6
	c-20,1.4-33.6,17.1-33.3,37.1c0.1,5.8,2.1,8.3,7.9,8.6c11,0.6,21.9,2.1,32.9,2.3c7,0.1,9.7,2.7,8.8,9.5c-0.2,1.4,0,2.8,0,4.3
	c0,119.1,0,238.3,0,357.4c0,2.1-0.2,4.3,0,6.4c0.5,4.3-1.6,6.4-5.6,7.5c-8.5,2.3-17,5.2-25.6,7.1c-11.3,2.5-16.8,9.7-18.8,20.4
	c-1.9,9.7,0,12,10.1,11.4c31.2-1.6,62.3-3.2,93.4-5c15.9-0.9,31.9-1.7,47.6-3.8c15-2,26.3-10.1,31.5-25.1c2.4-7,1.5-8.6-5.8-10.3
	c-14.8-3.5-29.6-7.2-44.6-9.9c-6.6-1.2-8.6-3.9-8.5-10.5c0.2-90.1,0.1-180.1,0.2-270.2c0-2.1,0.6-4.2,1.2-8c2.8,4.3,4.6,6.9,6.3,9.5
	c58.8,92.3,117.6,184.7,176.6,276.9c6.5,10.1,14.3,19.4,21.8,28.8c14.3,17.9,33.6,22.4,55.3,19.9c18.2-2.1,34.9-8.9,51.3-16.5
	c6.7-3.1,9-7.1,9-14.5c-0.3-69.9-0.2-139.7-0.2-209.6c0-66,0-131.9,0-197.9c0-10.1,0.1-10.1,9.9-12.2c5.2-1.1,10.3-2.9,15.6-3.3
	c16.8-1.4,23.1-12.5,22.3-28.9c-0.5-9.1-1-9.5-10.2-8.9c-23.7,1.4-47.4,2.8-71.1,4.2c-18.4,1.1-36.8,2.2-55.2,3.7
	c-17.1,1.4-29.9,14-30.9,29.7c-0.5,7.7,0.7,9.2,8.5,10.1c10.6,1.2,21.1,2.4,31.7,3.7c10.6,1.4,10.6,1.5,10.6,11.9
	c0,81.2,0,162.4,0,243.6c0,3-0.3,6.1-0.6,11.5C697.3,648.7,695.3,645.9,693.5,643.1z"/>
</svg>
