<?xml version="1.0" encoding="utf-8"?>
<!-- Generator: Adobe Illustrator 25.2.0, SVG Export Plug-In . SVG Version: 6.00 Build 0)  -->
<svg version="1.1" id="Calque_1" xmlns="http://www.w3.org/2000/svg" xmlns:xlink="http://www.w3.org/1999/xlink" x="0px" y="0px"
	 viewBox="0 0 1000 1000" style="enable-background:new 0 0 1000 1000;" xml:space="preserve">
<path d="M0,450.1C0,329.8,0,209.5,0,89.2c0-29.2,0-30,29.2-33.6c104.1-13,208.4-22.8,312.5-0.9c142,29.8,216.4,142.7,190.2,285.6
	c-15.8,86.2-66.7,143.5-144.9,177.9c-68.7,30.2-141.6,35.9-215.4,30.3c-18.3-1.4-21.9,3.9-21.8,20.2c0.5,82,0.3,164,0.2,246
	c0,26.9-2.1,29-28.3,29.1c-30.9,0.2-61.8,0.1-92.7,0C2.1,843.5,0.1,841.6,0,815C0,693.4,0,571.7,0,450.1z M150,296.2
	c0,36.9,0.4,73.8-0.2,110.7c-0.3,14.2,4.8,22.3,19.1,22c36-0.9,72.9,2.2,107.8-4.7c81.3-16,120.5-78.6,107.3-161.1
	c-7.6-47.4-34.8-77-79.1-92.5c-44.2-15.5-89.5-14-135.2-8.8c-15.7,1.8-20.1,9.4-19.9,23.8C150.3,222.4,150,259.3,150,296.2z
	 M973,298.5c0.9-3.9-5.1-12.3-9.8-14.3c-89.6-37.7-179.8-45.2-268.4,1.4c-70.2,36.9-105.1,118.1-84.2,189.3
	c14.4,49.3,49.7,80.9,93.3,103.1c37.6,19.2,77.7,33.5,115.4,52.4c28.8,14.5,39.8,39.5,34.1,66.1c-5.6,25.8-24.8,40.7-57.2,45.7
	c-56.2,8.7-108-6.1-157.8-29.5c-15.1-7.1-21.9-4.9-25.8,11.2c-5.7,23.5-11.6,47-19,70c-4.4,13.7-1.4,20.6,11.9,26.4
	c87.8,38.7,178.2,45.7,269.2,16.7c100.8-32,148.6-127.7,114.3-221.4c-20.1-54.8-63.7-84.6-114.3-107.1
	c-34.3-15.3-69.1-29.5-102.3-47c-18.2-9.6-27.1-28-23.4-49.7c3.8-22.7,17-39.5,39.8-42.9c22.9-3.4,47.1-5.4,69.7-1.8
	c29.4,4.7,57.8,15.5,90,24.6C956.6,361.7,965.5,330.3,973,298.5z"/>
</svg>
