<?xml version="1.0" encoding="utf-8"?>
<!-- Generator: Adobe Illustrator 25.2.0, SVG Export Plug-In . SVG Version: 6.00 Build 0)  -->
<svg version="1.1" id="Calque_1" xmlns="http://www.w3.org/2000/svg" xmlns:xlink="http://www.w3.org/1999/xlink" x="0px" y="0px"
	 viewBox="0 0 1000 1000" style="enable-background:new 0 0 1000 1000;" xml:space="preserve">
<path d="M500,1000c-109.2,0-218.4,0.1-327.6,0c-88.9-0.1-157-58-171-145.5c-1.3-8-1.3-16.2-1.3-24.3C0,610.1-0.1,390,0.1,170
	C0.1,73.8,73.8,0.2,169.9,0.1C389.9,0,610,0,830,0.1c96.1,0.1,169.8,73.7,169.9,169.8c0.1,220.1,0.1,440.1,0,660.2
	c-0.1,96.1-73.7,169.6-169.8,169.9c-55.2,0.1-110.4,0-165.7,0C609.6,1000,554.8,1000,500,1000z M202.8,500.1c0,72.6,0,145.3,0,217.9
	c0,15.1,0.7,15.7,15.9,15.8c16.6,0.1,33.3,0.1,49.9,0c16.1-0.1,16.4-0.4,16.4-16.3c0-49.1,0-98.2,0.1-147.3
	c0-13.8,2.2-13.9,15.8-14.1c29-0.4,58.4-0.3,87-4.5c38.7-5.7,73.2-22.6,98.6-53.2c31.6-38.1,37.3-83.4,27.8-130
	c-11.6-57.1-50.5-89-105.8-101.5c-62.3-14-125-8.5-187.6-1.5c-18.3,2.1-18.2,2.8-18.2,21.7C202.8,358.1,202.8,429.1,202.8,500.1z
	 M573,661.7c-4,14.6-7.6,29.9-12.5,44.8c-3.1,9.3-0.9,13.6,8.2,17.4c37.6,15.8,76.9,19.7,117,16.3c26.9-2.3,52.3-10.4,74.8-26.5
	c43.6-31.2,50.1-102.6,12.9-141.5c-21.6-22.6-49.7-32.9-77.4-44.4c-11.6-4.8-23.3-9.7-33.8-16.5c-20.6-13.4-22.3-39.2-3.1-54.4
	c7.4-5.9,18.1-9.3,27.7-10.5c24.3-2.9,47.8,1.9,69.8,12.6c8.9,4.3,12.4,1.7,14.6-6.9c3.2-12.6,6.5-25.2,10.3-37.5
	c2.3-7.2-0.2-10.9-7-12.4c-23.2-5.2-46.3-13.1-69.8-14.9c-44.1-3.5-84.4,7.2-115.6,42.1c-31.1,34.8-31.1,91,3.5,122.1
	c16.5,14.8,37.5,25,57.2,35.8c15.6,8.5,32.8,14.1,48.5,22.4c14.7,7.8,20.3,21.7,18.5,38.1c-1.8,16.4-12,25.9-27.1,31
	c-18.7,6.3-37.7,6-56.4,1.1C613.5,674.5,594,668,573,661.7z M284.9,476.5c-0.3,10.4,3.9,15.1,13.7,15.7c29.2,1.8,58.2,2.9,86.1-9.1
	c34.7-14.9,51.7-43.8,49.8-86.2c-1.5-33.1-22.4-59.3-56.5-69.8c-26.5-8.1-53.6-6.2-80.8-3.5c-9.2,0.9-12.4,5.2-12.2,14.2
	c0.4,23.1,0.1,46.2,0.1,69.3C285.1,430.3,285.5,453.4,284.9,476.5z"/>
</svg>
