<?xml version="1.0" encoding="utf-8"?>
<!-- Generator: Adobe Illustrator 25.2.0, SVG Export Plug-In . SVG Version: 6.00 Build 0)  -->
<svg version="1.1" id="Calque_1" xmlns="http://www.w3.org/2000/svg" xmlns:xlink="http://www.w3.org/1999/xlink" x="0px" y="0px"
	 viewBox="0 0 1000 1000" style="enable-background:new 0 0 1000 1000;" xml:space="preserve">
<path d="M103.7,641.2c-6.6,33-12.8,64.4-19.1,96.2c-28.6,0-55.4,0-84.6,0c24.4-125.6,48.5-249.8,72.8-375c6.6-0.9,11.9-2.2,17.3-2.2
	c41.1-0.2,82.2-0.9,123.2,0.3c23.5,0.7,47.4,2.3,70.3,7.4c48.1,10.7,74.1,43.1,76.4,92c2.4,50.1-12.9,94.4-47.8,130.6
	c-24.8,25.9-55.9,42-91.8,44.9c-34.5,2.9-69.3,2.7-104,3.9C112.6,639.5,108.7,640.4,103.7,641.2z M116.1,576.2
	c4.6,0.6,7.1,1.3,9.5,1.3c23.3-0.8,46.7-0.4,69.8-2.8c33.1-3.4,57.3-20.7,66.6-53.4c5.1-17.9,7.4-37,8.4-55.7
	c1.2-22.3-10.7-35.1-33.2-38.2c-15.3-2.1-30.8-3.6-46.3-4.4c-14.3-0.7-28.6-0.2-44.9-0.2C136.3,472.9,126.4,523.9,116.1,576.2z
	 M712.4,362.1c6.9-0.8,12.3-2,17.7-2c40.7-0.1,81.4-0.5,122.1,0.2c19.9,0.3,40.1,1.1,59.6,4.6c61.2,11.2,91.5,49.9,88,112
	c-3,53.9-25.5,98.2-69,131.1c-25.3,19.1-54.4,28.5-85.7,29.9c-29.5,1.3-59.1,0.5-88.6,0.9c-3.9,0-7.8,1.5-13.1,2.6
	c-6.4,31.9-12.8,63.6-19.3,95.8c-28.5,0-55.6,0-84.6,0C663.9,611.7,688,487.7,712.4,362.1z M755.8,576c4.2,0.7,6.3,1.5,8.4,1.4
	c23.6-0.8,47.3-0.7,70.8-3c29.6-2.8,53.9-16.6,63.6-45.9c6.6-20,9.8-41.6,11.5-62.7c1.8-22.3-10.4-35.2-32.7-38.4
	c-15-2.1-30-3.7-45.1-4.4c-15-0.7-30-0.2-46.7-0.2C775.8,472.9,765.9,523.8,755.8,576z M341.1,637.1c29.1,0,55.8,0,84,0
	c13.8-70.6,27.6-140.7,41.2-209.8c3-1.2,4-1.9,5-1.9c26.3-0.1,52.6-1,78.8,0.3c18.7,0.9,25.7,10.2,25.2,29.3
	c-0.1,5.5-0.8,11.1-1.8,16.5c-8,42.1-16.2,84.3-24.2,126.4c-2.5,13.2-4.7,26.5-7.1,39.9c3.4,1,5.2,2.1,6.9,2
	c23.3-0.5,46.6-0.6,69.8-2.2c3.7-0.2,9.2-6.5,10-10.8c12.1-61.3,24.2-122.6,35-184.2c5.7-32.6-11.1-60.2-41.7-71
	c-10.4-3.7-21.4-6.5-32.3-7.2c-31.3-2.2-62.7-3-94.1-4.5c-4.7-0.2-9.3-0.7-15.9-1.2c6-32.5,11.8-63.7,17.7-96.1
	c-28.8,0-55.3,0-83.7,0C389.5,387.7,365.5,511.6,341.1,637.1z"/>
</svg>
