<?xml version="1.0" encoding="utf-8"?>
<!-- Generator: Adobe Illustrator 25.2.0, SVG Export Plug-In . SVG Version: 6.00 Build 0)  -->
<svg version="1.1" id="Calque_1" xmlns="http://www.w3.org/2000/svg" xmlns:xlink="http://www.w3.org/1999/xlink" x="0px" y="0px"
	 viewBox="0 0 1000 1000" style="enable-background:new 0 0 1000 1000;" xml:space="preserve">
<path d="M499.7,0c90,0,180.1,0,270.1,0c29.4,0,34.4,5.1,34.4,34.3c0,147.8,0,295.6,0,443.4c0,23.3,0.1,23.4,22.8,23.4
	c40,0,79.9-0.1,119.9,0.1c6.3,0,13,0.1,18.9,1.9c13.7,4.1,18.2,17.5,9.9,29c-3.4,4.7-7.8,8.7-12,12.8
	C817.2,691.2,670.7,837.5,524.1,983.7c-21.7,21.6-26.6,21.7-48,0.3C329.2,837.4,182.2,690.8,35.3,544.1c-3-3-6.2-5.9-8.9-9.1
	c-11.9-14.2-6.4-29.7,11.9-33c5.2-0.9,10.6-0.8,15.9-0.8c40.5-0.1,81-0.6,121.5,0.2c15.5,0.3,20.1-5,20-20.2
	c-0.5-149.4-0.3-298.8-0.3-448.2c0-30.2,2.7-33,32.5-33C318.5,0,409.1,0,499.7,0z M257.4,465.3c7.5-3,12.3-4.4,16.6-6.8
	c151.5-83.3,302.9-166.8,454.5-249.9c10.4-5.7,14.1-12.6,13.9-24c-0.5-32.9-0.1-65.9-0.2-98.8c0-21.1-0.4-21.5-21.3-21.5
	c-147,0-293.9,0-440.9,0c-22.2,0-22.6,0.3-22.6,22c0,119.6,0,239.1,0,358.7C257.4,450.2,257.4,455.5,257.4,465.3z"/>
</svg>
