<?xml version="1.0" encoding="utf-8"?>
<!-- Generator: Adobe Illustrator 25.2.0, SVG Export Plug-In . SVG Version: 6.00 Build 0)  -->
<svg version="1.1" id="Calque_1" xmlns="http://www.w3.org/2000/svg" xmlns:xlink="http://www.w3.org/1999/xlink" x="0px" y="0px"
	 viewBox="0 0 1000 1000" style="enable-background:new 0 0 1000 1000;" xml:space="preserve">
<path d="M490,566.8c-37.8,0-66.1-28.7-66-67.1c0.1-37.5,28.7-66.4,65.8-66.5c37.3-0.1,66.6,29.7,66.2,67.3
	C555.6,538.3,527.3,566.8,490,566.8z M525.5,499.4c-0.2-18.9-11.1-34.3-26.7-37.9c-20.3-4.7-37.1,5.4-43,25.8
	c-6.1,21.3,3.7,43.7,21.9,50.2C502.3,546.3,525.9,527.5,525.5,499.4z M694.5,563.6c0-42.6,0-84,0-125c22.4,0,44.7-2.3,66.3,0.5
	c35.9,4.8,50.9,32.7,48.5,66.6c-2.5,35.1-23,54.8-59.6,57.6C731.8,564.8,713.7,563.6,694.5,563.6z M723.5,462.6
	c0,25.9,0,50.2,0,74.9c19.5,0.3,39.4,3.3,50.8-16.7c8.3-14.7,7.8-30.7-2-44.5C760.3,459.4,741.7,462.2,723.5,462.6z M149.7,517.4
	c-5.2,0-9.5,0-15.3,0c0,15.5,0,30.7,0,46.1c-9.9,0-18.3,0-27.5,0c0-41.9,0-83.3,0-126.5c21.7,1,43.9-3.8,65.3,2.9
	c27.3,8.6,34.6,45.8,13.9,66.3c-2.4,2.4-5.1,4.4-8.3,7.3c8.8,16.1,17.5,32.1,27.4,50.3c-11.1,0-20.4,0.4-29.6-0.3
	c-2-0.2-4.2-4-5.5-6.5C163,543.7,156.3,530.4,149.7,517.4z M135,493.8c11.6-0.7,23.9,4,30.5-7.6c2.7-4.8,2.6-14.1-0.3-18.7
	c-7.2-11-19.2-5.6-30.1-6.4C135,472.3,135,482.3,135,493.8z M603,437.3c11.1,0,21.2,0,32.4,0c15.2,41.6,30.4,83.3,46,126
	c-11.2,0-20.9,0-31.4,0c-3.2-9.1-6.4-18.3-9.8-27.9c-14.5,0-28.7,0-44.1,0c-3.2,8.9-6.4,18-9.9,27.8c-9.4,0-18.8,0-30,0
	C571.8,521.2,587.3,479.6,603,437.3z M619.4,469.1c-0.8,0-1.6,0-2.5,0c-4.5,13.7-8.9,27.3-13.7,42c10.4,0,19.6,0,29.7,0
	C628.2,496.5,623.8,482.8,619.4,469.1z M311.1,563.4c0-8.5,0-16.5,0-25.6c-20.6,0-40.5,0-60.5,0c0-9.5,0-17.8,0-27
	c14.9,0,29.1,0,43.4,0c0-8.6,0-16.1,0-24.6c-14.9,0-29.1,0-43.7,0c0-8.2,0-15.6,0-24.1c19,0,37.6,0,56.5,0c0-8.9,0-16.5,0-24.4
	c-28.7,0-56.8,0-85.2,0c0,42.2,0,83.7,0,125.7C252.2,563.4,281.4,563.4,311.1,563.4z M27.2,518.9c0,15.6,0,29.7,0,44.4
	c-9.5,0-17.9,0-27.2,0c0-41.8,0-83.5,0-125.6c19.5,0,39-1.7,58,0.5c21.1,2.4,33.5,21,32,43c-1.3,20.9-17.2,36.5-38.6,37.7
	C44,519.2,36.5,518.9,27.2,518.9z M27.7,495.7c11.1-2.2,23.1,4.2,30.5-7.8c4.3-6.8,4.2-14.8-1-21c-8-9.5-18.8-6.2-29.5-5.9
	C27.7,472.5,27.7,482.9,27.7,495.7z M361.7,437.5c-9.8,0-18.8,0-28.3,0c0,42.2,0,84,0,125.9c29.7,0,58.5,0,87.6,0c0-8.8,0-17,0-25.9
	c-19.9,0-38.8,0-59.3,0C361.7,503.4,361.7,470.7,361.7,437.5z M963,566.2c20-2.2,34.5-15.5,36.7-33.9c2.2-18.3-8.1-33-28-39.9
	c-8.7-3-17.6-5.1-26.2-8.2c-8.4-3.1-13.9-8.8-12.4-18.7c1.3-9.2,7.7-13,16-14.7c13.5-2.8,24.6,2.5,34.9,11.5
	c3.9-3.7,7.6-7.1,10.9-10.3c-9.8-20.7-55.4-27.1-74-4.2c-10.5,12.9-10.1,32.7,2.5,43.6c6.9,6,16.3,9.3,24.9,13
	c7.1,3.1,14.9,4.6,22.1,7.6c7.8,3.3,10.7,9.8,10.4,18.2c-0.4,8.6-4.8,14.9-12.5,16.9c-7.3,1.9-15.8,3-22.8,1
	c-9.1-2.7-17.2-8.8-26.5-13.8c-3,2.7-6.9,6.3-11.3,10.3C922.9,562.3,941.3,568.6,963,566.2z M859.9,566.3
	c18.6-1.9,31.6-13.5,32.2-32c1-31.6,0.4-63.3,0.4-95c0-0.5-0.7-1.1-1.3-1.8c-5.2,0-10.5,0-17,0c0,4.2,0,7.8,0,11.5
	c0,26.2,0.2,52.5-0.2,78.7c-0.3,16.5-12.8,25.7-28.5,20.9c-6.3-1.9-11.9-6-18.6-9.6c-3.1,2.7-6.8,6.1-11.4,10.2
	C827.6,564.6,842.8,568.1,859.9,566.3z"/>
</svg>
