<?xml version="1.0" encoding="utf-8"?>
<!-- Generator: Adobe Illustrator 25.2.0, SVG Export Plug-In . SVG Version: 6.00 Build 0)  -->
<svg version="1.1" id="Calque_1" xmlns="http://www.w3.org/2000/svg" xmlns:xlink="http://www.w3.org/1999/xlink" x="0px" y="0px"
	 viewBox="0 0 1000 1000" style="enable-background:new 0 0 1000 1000;" xml:space="preserve">
<path d="M472.6,30c73.4-4.5,146.8-9,220.2-13.2c9.7-0.6,21.6-2.9,28.8,1.5c33.7,21,66,44.1,98.8,66.4c-0.9,2.5-1.9,4.9-2.8,7.4
	c-30.9,3.4-61.7,7.4-92.6,10c-39.1,3.3-78.2,6.3-117.4,7.7c-16.2,0.6-24.6,5-26.7,22c-3.5,27.8-11.6,55.3-12.8,83.2
	c-3.6,76.8,36,118.9,111.9,132.8c52.6,9.6,101.9-4.3,152.4-9.9c36.4-4,72.5-11,108.5-18c17.5-3.4,23.9,1.5,26.3,19.4
	c5.7,42.3,13.7,84.3,21.5,131c-33.1,7.8-65.9,15.9-98.9,23.1c-38.1,8.4-77.9,11.8-114.3,25c-35,12.7-70.3,30.6-98.6,54.4
	C639.8,604,633,649.5,651,694c12.7,31.5,27.5,65.1,50.7,88.6c28.1,28.6,60.5-4.6,90.5-10.2c47.5-8.8,93.7-25.2,140.4-38.5
	c2,2.1,4,4.3,6,6.4c-12.2,18.2-25.9,35.7-36.4,54.9c-18.1,33.4-44.6,51.5-81.8,61c-45.5,11.5-89.3,29.4-133.9,44.6
	c-7.3,2.3-14.7,4.6-22,6.8c-23.5,4.6-42.4-7.2-61.9-17.2c-15.2-7.9-30.1-16.8-46-22.9c-51-19.8-93,10-98.7,69.1
	c-2,20.4-4.1,40.8-6.3,63.5c-17.2-1.6-30.8-5.6-43.4-3.5c-45.2,7.4-65.7-15-79.1-55.1c-7.5-22.4-25.4-41.2-38-62
	c-4.2-6.9-8.2-14.6-9.8-22.5c-9.8-48.8-18.9-97.7-27.7-144c30,8.7,58.2,20.8,87.5,24.5c44.9,5.7,80.6-16.2,108.8-50.1
	c80.1-96.4,57.7-285-46.9-365.6c-25.8-19.9-53.5-33.7-87.1-34.7c-49.9-1.6-87.9,19.6-115.6,59.4c-45.1,64.7-49.2,136.6-35.1,211.4
	c18.3,97.3,36.3,194.6,55.1,291.8c5.6,28.8-23.4,27.1-33.3,48.7c-24.3-27.7-45.7-50.8-65.2-75.2c-4.4-5.5-3.5-16-3.5-24.2
	c0.2-26.8,3.9-53.9,1.2-80.4C115.2,678,95.8,646.3,54,634c-21.8-6.4-32.7-18.8-31.9-42.3c0.3-9.5-3.3-19.3-6.1-28.7
	c-9.5-31.7-5.7-54.9,23.5-79.1C73,456.2,68,413.6,56.8,374.2c-1.7-5.9-3.3-12.5-7.2-16.8c-41.8-47.6-14.2-93.5,3.9-139.2
	c2-4.9,13.4-9.6,19.4-8.6c15.2,2.5,29.9,8.3,46.6,7.2c-10.2-4.9-20.4-9.7-32.2-15.4c13.6-3.2,25.4-6.8,37.4-8.7
	c41.1-6.6,49.4-14.7,52.9-56.3c1.6-19.6,1.3-39.3,1.5-59c0.1-15,5.8-26,20.4-31.6c2.3-0.9,4.5-1.9,6.8-2.9
	c21.3-8.9,44.7-27.5,63.1-23.5c14.4,3.2,23,34.3,33.5,53.3c15.1,27.2,33.8,48.5,68.6,46.4c31.4-1.9,52.9-16.8,62.9-47.2
	C447.1,58,459.8,44,472.6,30z M681.9,322.2c9.1,12.5,18.6,15.3,34.4,11.9c26.2-5.8,53.4-6.7,79.9-10.8c25.3-3.9,50.5-9.1,80.4-14.6
	c-66.1-38-84.7-81.7-70.7-155.3c2.4-12.6,4.1-25.4,6.2-38.5c-7.1-1.7-10.7-3.5-14-3.2c-63.5,4.7-127,9.9-190.6,14.4
	c-13.1,0.9-15.2,8.4-16.4,19.4c-3.8,35.2-8.5,70.3-13.3,109C621.8,265.5,656.4,287.3,681.9,322.2z M751.5,544.1
	c-7.9,1.9-18.4,8.9-20.8,15.9c-15.3,43.5-38.6,80.9-76.9,107c7.6,14.8,13.4,27.1,20.1,38.8c12.7,22.1,21.3,54.9,40.1,62.8
	c18.7,7.9,48.1-9.2,72.7-15.8c44.6-12,89.2-24.3,137.1-37.4c-44.3-67.3-79.2-132.4-6.1-208.4C856.1,520.6,803.6,531.7,751.5,544.1z
	 M366.1,407c-46.2-39.8-103.9-28-131,26.8c-30.2,61-11.8,147.9,40.3,190.9c40.3,33.2,94.1,26.1,119.5-19.2
	c12.7-22.7,17.5-49.7,25.9-74.8C416,480.5,396.9,433.5,366.1,407z M533.4,17.7c0.2-17.7-11.9-18.2-25-17.6
	c-69.7,3.2-139.4,6.2-209.1,9.5c-3,0.1-5.9,3.3-9.8,5.7c5.3,18.4,10,33.3,32.2,39.8c29.7,8.7,57.8,23,91,36.7
	c4.1-3.8,12.8-11.8,21.6-19.9C447.1,58,459.8,44,472.6,30C492.9,25.9,513.3,21.8,533.4,17.7z M608.4,908.9
	c-20.3-13.4-42.4-24.1-60.6-34.3c-19.6,21.8-35.1,46.4-57.1,61.7c-23.2,16.1-29.9,32.1-21.1,58.9c69.2-22,137.5-44,206-65.5
	c17.1-5.3,27.6-11.8,10.9-29.1c-7.3,2.3-14.7,4.6-22,6.8C646.1,921.7,628.3,922,608.4,908.9z"/>
</svg>
