<?xml version="1.0" encoding="utf-8"?>
<!-- Generator: Adobe Illustrator 25.2.0, SVG Export Plug-In . SVG Version: 6.00 Build 0)  -->
<svg version="1.1" id="Calque_1" xmlns="http://www.w3.org/2000/svg" xmlns:xlink="http://www.w3.org/1999/xlink" x="0px" y="0px"
	 viewBox="0 0 1000 1000" style="enable-background:new 0 0 1000 1000;" xml:space="preserve">
<path d="M207.5,333.4c-3.3-20.4-6.3-39.5-9.6-58.5c-3.9-22.3-3.9-44.7-4.1-67.2c-0.2-23,2.4-45.6,8.5-67.7c6.1-22,15.8-42,32.2-58.4
	c8.6-8.6,18.9-13.7,29.9-18.1c17.1-6.8,35.2-6.9,52.2-3.8c27.2,4.9,53.5,13.9,77.8,28c29.2,16.9,55.9,37.1,82.3,57.9
	c7.6,6,14.7,12.5,22.8,19.5c6.6-5.5,13.2-10.9,19.7-16.4c28.7-24.7,59.1-46.9,92.2-65.3c20.5-11.4,42.6-19.7,65.3-23.2
	c26.6-4.2,54.1-4.3,77.9,12.8c15.7,11.3,26.1,26.7,33.8,43.9c9.5,21.4,14.3,44,15.3,67.4c0.4,9,1.8,17.9,1.8,26.9
	c0.1,37.8-4.9,75.1-12.8,112.1c-2.2,10.3-2.3,10.7,7.9,14c29.8,9.5,58.4,21.8,86.2,35.9c26.1,13.3,50.3,29.5,72,48.9
	c15.6,13.9,28.3,30.8,35.4,50.7c9.2,25.8,7.1,51-6.8,75c-14.4,24.9-35.4,43.3-58.6,59.4c-34.6,24.1-72.4,42-112.1,56
	c-7.8,2.8-15.7,5.3-24.6,8.3c1.4,7.5,2.7,14.9,4.1,22.2c4.8,25.5,9,51,9.5,77.1c0.1,7.6,2.1,15.2,1.6,22.7
	c-1.7,25.1-2.4,50.5-10.2,74.8c-6.7,20.9-15.2,41-32.1,56.1c-4.9,4.3-10.1,8.5-15.9,11.6c-22.6,11.9-46.1,14.7-71.3,8.6
	c-19.6-4.7-38.8-10.2-57-18.8c-19.5-9.2-37.8-20.5-54.9-33.6c-20.3-15.5-40.2-31.7-60.2-47.6c-4.9-3.9-5.8-3.8-11.4,1
	c-25.6,22.2-52.2,43.3-80.8,61.7c-25.2,16.2-52.1,28.4-81.2,36.3c-17.2,4.7-34.4,5-51.4,3.4c-13.6-1.3-26.7-7-37.9-15.7
	c-25-19.4-36.2-46.7-42.8-76.2c-5.7-25.7-8.2-52.1-6.3-78.4c1.8-24.8,5.6-49.4,8.9-74c1.3-9.9,3.6-19.6,5.6-30
	c-3.4-1.4-6.1-2.8-9-3.8c-32-10.5-62.9-23.5-92.7-39.4c-28-14.9-54-32.6-75.7-55.9c-13.1-14-24.2-29.7-28.8-48.7
	c-6.6-27.5-1.1-52.8,15.2-75.9c16.2-23,37.5-40.4,60.8-55.6c38-24.8,79.2-42.6,122.1-56.8C203.2,335.6,205.2,334.4,207.5,333.4z
	 M507.9,664.7c20.6-1.3,48.5-3.1,76.5-4.6c5.5-0.3,8.8-2.6,11.6-7.1c9.4-15.4,19-30.6,28.6-45.8c20.3-31.9,38.3-65,53.6-99.6
	c1.9-4.3,1.7-7.7-0.4-11.7c-7.4-14.5-14.5-29.1-21.9-43.6c-18-34.8-39.4-67.5-61.1-100.1c-2.5-3.7-5.1-6.1-9.9-6.4
	c-17.2-1.1-34.4-3.5-51.6-3.5c-31.5-0.1-62.9,1-94.4,1.8c-7.6,0.2-15.1,1.7-22.7,1.7c-6.1,0-9.4,3.1-12.3,7.8
	c-11.1,17.6-23,34.6-33.4,52.6c-15,26.1-29.4,52.6-43.1,79.3c-9.2,17.9-8.4,18.2,0.4,36.4c13.7,28.4,28.8,56,45.7,82.7
	c10.4,16.4,20.8,32.7,31.5,48.9c1.7,2.6,4.7,5.3,7.6,6.1c5.3,1.5,10.9,2,16.4,2.2C452.8,662.8,476.7,663.6,507.9,664.7z
	 M465.6,806.8c-4-5.3-6.4-9.2-9.5-12.3c-24.7-24.8-46.2-52.3-66.6-80.6c-4.7-6.5-10.7-9-18.3-10c-21.5-2.9-43.1-5.8-64.5-9.5
	c-16.9-2.9-33.7-6.8-51-10.3c-1.1,4.7-2.2,9-3,13.4c-4.2,24.1-7.6,48.3-9.3,72.9c-1.7,24.1-0.5,47.6,3.5,71.1
	c2.4,14.1,6.8,27.4,14.8,39.5c7.9,12.1,19,17.5,33.1,18.2c20.7,1,39.6-5.7,58-13.9c28.6-12.7,54.1-30.7,78.7-49.8
	C442.8,826.6,453.5,816.9,465.6,806.8z M743.6,320.8c1-3,1.9-5.2,2.5-7.5c6.9-29.3,10.1-59.2,11.3-89.2c0.6-13.7-1.1-27.6-1.7-41.4
	c-0.8-17.9-5.3-35-13.1-50.9c-7.6-15.5-19.4-24.9-38.3-25.3c-25.7-0.6-48.3,8.6-70,20c-17.4,9.2-33.6,20.6-49.9,31.6
	c-17.9,12.2-34.6,26-49.9,41.8c1.2,1.4,2.1,2.5,3,3.5c14.6,16.6,29.5,33,43.6,49.9c11.3,13.5,21.9,27.6,32.5,41.7
	c2.3,3,4.6,4.8,8.4,5.1c3.8,0.3,7.5,1.2,11.2,1.8c31.3,5.3,62.6,10.6,93.9,16C732.6,318.8,737.9,319.8,743.6,320.8z M254.9,322
	c10.6-2.5,20.2-5.4,30-7.1c29.9-5.1,59.9-10.1,89.9-14.4c6.2-0.9,9.8-3.4,13.3-8.1c22.8-30.8,46.4-61.1,73.5-88.4
	c1.1-1.1,1.6-2.8,3.4-5.9c-3-2.4-6-4.8-8.9-7.1c-3-2.4-6.1-4.6-8.9-7.1c-30.2-26.2-62.9-48.5-99.5-64.8c-17.2-7.7-35-13.2-54.1-12.2
	c-8,0.4-15.8,1.6-22.3,7.1c-8.6,7.4-15,16.2-18.7,27c-6.6,19.5-9.9,39.4-10.4,60c-0.7,25.6,0.9,51.1,4.6,76.5
	C248.7,292.1,252,306.6,254.9,322z M535.6,805.4c23.1,23.3,49.1,41.6,75.9,58.8c25.8,16.6,53,29.9,83.9,34
	c18.2,2.4,33.6-2.2,44.1-18.4c12.7-19.5,16.6-41.7,17.9-64.2c2-34.3-0.3-68.4-6.3-102.3c-1.7-9.8-4.1-19.4-6.3-29.8
	c-12.6,2.8-23.9,5.8-35.4,7.7c-27.6,4.6-55.2,8.6-82.9,12.8c-6,0.9-10.7,3.2-14.7,8.5c-19.4,26.5-39,52.9-62.4,76.2
	C544.6,793.6,540.6,799.3,535.6,805.4z M779.5,623.5c3.5-1,6.4-1.7,9.3-2.7c29.6-9.8,58.1-22.4,85.8-36.7
	c23.8-12.4,45.5-27.5,62.6-48.5c17.3-21.1,18.6-40.8,2.2-63.3c-12.1-16.5-27.8-29-44.8-39.6c-34.8-21.7-72.6-37.2-111.5-50
	c-1.2-0.4-2.6-0.2-4.8-0.4c-1.8,5.8-3.4,11.3-5.2,16.8c-10.6,32.6-21.2,65.2-35.8,96.2c-2.1,4.4-2.3,8.3-0.2,12.8
	c14.3,30.8,24.9,63,35.7,95.2C774.9,609.9,777.1,616.4,779.5,623.5z M220.2,381.5c-7.3,2.6-13.7,5-20.2,7.2
	c-32.1,11.3-63.4,24.4-92.3,42.4c-19.7,12.3-38.4,26.1-50.7,46.7c-5.4,9-9.7,18.6-8,29.4c1.6,10.4,6.5,19.7,13.1,27.9
	c10.8,13.2,23.6,24.2,37.8,33.6c28.1,18.8,58.7,32.5,90.2,44.4c9.9,3.8,20,7.1,30.6,10.9c2.4-6.8,4.3-12.3,6.2-17.8
	c9.8-29.9,18.9-60.1,32.4-88.6c4.5-9.6,5.9-18.1,0.5-27.4c-0.7-1.2-1.3-2.5-1.7-3.8c-11.1-30.6-22.1-61.2-33.2-91.7
	C223.4,390.6,221.9,386.5,220.2,381.5z M446.1,294.4c36.3,0,71,0,107.1,0c-18.2-20.7-35.4-40.4-53.6-61.1
	C481.2,254.3,464,273.9,446.1,294.4z M446.7,711.2c17.8,20.1,35,39.6,53,59.9c20.1-18.7,35.7-39.6,53.1-59.9
	C517.3,711.2,482.8,711.2,446.7,711.2z M654.8,652.2c26.7-4.7,52.1-8.5,77.8-16c-8.2-25.2-15.6-49.7-26.6-73.9
	C688.8,592.7,672.3,621.6,654.8,652.2z M267.9,368.3c5.9,26.1,15.8,49.8,25.5,75c17.2-29.9,33.6-58.5,51.2-89.2
	C317.2,356.7,293,362.8,267.9,368.3z M656.2,356c16.8,28.9,33.3,57.5,50.6,87.2c8.9-25.7,17.3-49.8,25.6-73.8
	C715.9,363,666.1,354.1,656.2,356z M345.4,652.1c-18-30.9-34.8-59.6-52.5-89.9c-8.8,25.7-17,49.5-25.4,74
	C293.2,644.1,318.4,647.5,345.4,652.1z M593.9,503.6c0.5-48.2-36.7-95.4-94.3-95.2c-56.4,0.3-93,45.6-93.7,93.8
	c-0.7,49.9,40.9,96,92.7,93.7C555.6,598.6,593.3,550.7,593.9,503.6z"/>
</svg>
