<?xml version="1.0" encoding="utf-8"?>
<!-- Generator: Adobe Illustrator 25.2.0, SVG Export Plug-In . SVG Version: 6.00 Build 0)  -->
<svg version="1.1" id="Calque_1" xmlns="http://www.w3.org/2000/svg" xmlns:xlink="http://www.w3.org/1999/xlink" x="0px" y="0px"
	 viewBox="0 0 1000 1000" style="enable-background:new 0 0 1000 1000;" xml:space="preserve">
<path d="M469.5,424.1c10.7,0,20.8,0,32.4,0c10.2,15.2,20.8,31.1,31.5,47.1c10.6,15.9,21.3,31.7,31.9,47.6c0.7-0.3,1.4-0.5,2.2-0.8
	c0-31.1,0-62.2,0-93.8c11.8,0,22.5,0,33.8,0c0,50.5,0,100.2,0,151c-10.2,1.9-20.6,0.3-31.1,1c-21.7-32.3-43.2-64.1-64.6-95.9
	c-0.7,0.2-1.3,0.5-2,0.7c0,31.1,0,62.9,0,95.3c-11.9,0-24-0.1-34.8-0.1C468.8,567.6,467.5,450.4,469.5,424.1z M214.9,419.7
	c-50.6,0.2-79.5,41.2-79,81.3c0.5,39.7,30.2,79.5,80.1,79.1c46.5-0.4,79.1-36.9,78.2-80.7C295,458.7,264.4,419.5,214.9,419.7z
	 M254.9,517.3c-6.1,19.1-22.2,30.8-40.8,30.2c-19.5-0.7-35.9-14.2-40.4-33.9c-2.5-11.2-2.3-22.4,1.6-33.3
	c6.3-17.6,21.6-29.2,42.2-28.2c19.9,1,35.5,15.5,39.1,35.1c0.7,3.9,0.9,8,1.6,13.7C257.4,505.2,256.8,511.4,254.9,517.3z M687,575.9
	c8-0.1,16-0.7,23.8-2.3c26.6-5.4,46.1-20.2,53.9-46.7c3-10.2,3.4-21.5,3.3-32.3c-0.4-38.1-24.1-65.2-62.2-68.9
	c-24.2-2.3-48.7-1.4-73.1-1.8c-0.6,0-1.2,0.7-2.4,1.5c0,49.5,0,99.3,0,150.7C650,576,668.5,576.3,687,575.9z M701.2,456.4
	c20.4,3.9,31.9,21.4,31.2,45c-0.6,24.9-12.7,39.1-37.5,42.9c-9.2,1.4-18.7,1.1-29.8,1.6c-0.5-30.7-0.2-60.3-0.2-92.1
	C678.3,454.7,690,454.2,701.2,456.4z M407.6,436.2c0,25.5,0.1,51-0.1,76.5c-0.1,5.8-0.8,11.7-2.4,17.2c-2.7,9.1-9.2,14.6-18.8,16
	c-25.8,4-36.9-9.8-36.2-29.9c0.1-3.6-0.1-7.3-0.1-10.9c0-23.3,0-46.6,0-69.9c0-3.5-0.4-7-0.6-11.1c-11.7,0-22.4,0-33.6,0
	c-0.4,3-0.9,5.4-1,7.9c-0.1,28.8-0.1,57.6,0.1,86.3c0,5.8,0.5,11.7,1.9,17.3c6.6,25.9,24.2,40,50,43.8c38.7,5.8,76.7-15.7,75.7-62.3
	c-0.6-27.7-0.1-55.4-0.1-83c0-3.2-0.4-6.3-0.6-10c-11.4,0-22.1,0-34.2,0C407.6,429,407.6,432.6,407.6,436.2z M13.3,565.6
	c26.5,16.6,54.3,20.6,82.7,5.8c16.7-8.7,25.8-23.2,24.7-42.8c-1.1-18.9-11.1-31.9-28.2-39.5c-6.6-2.9-13.8-4.5-20.6-6.9
	c-6.5-2.3-13-4.5-19.2-7.4c-4.9-2.3-8-6.7-7.7-12.2c0.3-5.6,4.1-9.2,9.1-11.2c3-1.2,6.2-2,9.4-2.3c9.1-0.8,17.1,2.5,24.7,7
	c3,1.8,6,3.8,9.3,5.9c6.7-7.4,12.9-14.3,20.5-22.8c-2.6-1.7-4.5-2.8-6.3-4c-2.1-1.5-4-3.2-6.1-4.5c-19.5-11.6-40.3-14.2-61.9-8.1
	c-21.3,6-33.6,21.4-34.2,41.4c-0.6,21.4,10.1,36.4,31.8,44.1C46.7,510,52.5,511,58,513c6.4,2.4,13.1,4.6,18.9,8.2
	c8.9,5.7,8.9,16.7,0.3,22.7c-3.1,2.2-7.1,3.7-11,4.4c-13,2.2-24.3-2.4-34.5-10c-2.9-2.1-5.6-4.4-8.4-6.6c-1.4,0.8-2.5,1.1-3.2,1.9
	c-6.3,6.6-12.5,13.2-20.1,21.3C5,558.9,8.8,562.8,13.3,565.6z M967.5,576.6c19.7-6.7,32.1-22.2,32.5-40.7
	c0.5-20.9-10.1-36.4-30.6-44.2c-5.4-2.1-11.1-3.3-16.7-5.1c-6.9-2.2-14.1-3.9-20.6-6.9c-9.6-4.4-13.9-12.1-12.9-20.7
	c1.1-9.2,8.6-16.9,19-18.4c13-1.9,25.4-0.1,36.1,8.5c2.2,1.7,4.5,3.3,6.9,5.1c4.8-4.4,9-8.3,13.1-12c-5.8-9.1-9.9-12.8-19-16.7
	c-15.3-6.6-31.1-7.2-47-2.8c-19.4,5.4-30.1,18.1-31.4,35.9c-1.4,18.7,7.4,33,25.8,41.3c5.9,2.6,12.4,4.1,18.6,6.2
	c7.9,2.7,15.9,5,23.5,8.3c6.7,2.9,10.9,8.1,12,15.7c2.1,14.7-6.3,26.4-21.6,28.6c-16.8,2.4-31.8-1.3-44.2-13.5c-2-2-4.1-3.7-6.5-5.9
	c-5.2,4.7-10,9-14.8,13.3C906.5,575.9,939.8,586,967.5,576.6z M849.5,437.3c0,29.2,0,58.3,0,87.5c0,3.6,0.2,7.3-0.4,10.9
	c-1.7,10.8-6.5,19.8-17.8,22.5c-10.2,2.4-20.3,1.3-29-5.6c-2.8-2.3-5.6-4.5-8.8-7.1c-5,4.5-9.8,8.8-15.1,13.5
	c16.2,19.1,35.7,24.4,58.5,19.6c18.6-3.9,30.6-15.9,33.7-34.2c1-5.7,0.9-11.6,0.9-17.4c0.1-31,0.1-62,0-92.9c0-3.2-0.4-6.3-0.8-10.5
	c-3.9,0-7.1-0.1-10.3,0c-3.2,0.1-6.4,0.3-10.9,0.6C849.5,429.3,849.5,433.3,849.5,437.3z"/>
</svg>
