<?xml version="1.0" encoding="utf-8"?>
<!-- Generator: Adobe Illustrator 25.2.0, SVG Export Plug-In . SVG Version: 6.00 Build 0)  -->
<svg version="1.1" id="Calque_1" xmlns="http://www.w3.org/2000/svg" xmlns:xlink="http://www.w3.org/1999/xlink" x="0px" y="0px"
	 viewBox="0 0 1000 1000" style="enable-background:new 0 0 1000 1000;" xml:space="preserve">
<path d="M475.4,718.6c0,80,0,160,0,240c0,27.8-7.5,35.4-34.9,35.5c-48.9,0.1-97.8,0.1-146.7,0c-20.4,0-28.7-7.3-31.5-27.4
	c-0.8-5.8-0.9-11.8-0.9-17.7c0-152.1,0.2-304.2-0.3-456.3c0-15.3,4.6-24,18.8-30.9c60.7-29.9,122.2-25.3,184.6-7.2
	c11.6,3.4,11.1,12.1,11.1,21.2C475.4,556.6,475.4,637.6,475.4,718.6z M473.5,405.6c0.8-6,1.8-9.8,1.8-13.6c0.1-118,0.1-236,0-354
	c0-19.9-9.9-31.3-29.5-31.6c-51.3-0.8-102.7-0.7-154-0.1c-17.4,0.2-25.7,8.7-28.8,26c-1.1,6.3-1.5,12.7-1.5,19.1
	c-0.1,114.6-0.1,229.1,0,343.7c0,5.7,0.7,11.4,1.4,20.7C333.3,383.1,402.8,388.1,473.5,405.6z M738.7,157.8c0-6.9-0.2-13.9-1.4-20.6
	c-3.1-17.8-11.2-24.7-29.2-24.8c-51.3-0.2-102.6-0.2-153.9,0c-20,0.1-29.3,9.1-29.4,28.9c-0.2,90.8-0.3,181.6,0.3,272.3
	c0,5.9,5.2,13.7,10.3,17.1c13.5,9,28,16.7,42.6,23.8c47.3,23.2,94.6,46.5,142.3,68.6c16.2,7.5,18.4,5,18.4-13.3
	c0.1-59.7,0-119.4,0-179.1C738.7,273.3,738.8,215.6,738.7,157.8z M524.6,499.9c-0.1,118.5-0.1,237.1,0,355.6
	c0,25.1,9.7,34.6,35.3,34.7c45.9,0.1,91.9,0.1,137.8,0c31.4,0,40.8-9.1,40.9-40.3c0.2-84-0.1-167.9,0.3-251.9
	c0.1-13-4.4-19.4-17-23.3c-52.2-15.8-101.1-39.5-148.2-66.8c-14.7-8.5-29.8-16.3-47.4-25.8C525.5,490.6,524.6,495.2,524.6,499.9z
	 M0.1,544.9c0,19.3,1.7,21.5,20.6,16.2c20.8-5.9,43-11.1,60.7-22.5c43.1-27.7,84.1-58.6,125.3-89.1c4.7-3.5,7.2-12.8,7.2-19.4
	c0.6-51.4,0.5-102.7,0.2-154.1c-0.1-26.5-10.3-36-37.3-36c-46.9-0.1-93.8-0.1-140.7,0c-26.9,0-36,9.3-36.1,36.8
	c-0.1,44.4,0,88.9,0,133.3C0.1,455,0,499.9,0.1,544.9z M999.9,321.3c-0.1-28.9-10.2-39.1-39.4-39.3c-44.9-0.3-89.9-0.2-134.8,0
	c-29.7,0.1-40,10.7-40,40.4c-0.1,62.2-0.2,124.4,0,186.6c0.1,37.7-5.4,34.8,34,40.1c53.2,7.1,106.8,10.6,160.3,15.6
	c19.5,1.8,19.8,1.6,19.9-18.2c0.1-38,0-76,0-114.1C999.9,395.3,1000,358.3,999.9,321.3z M214,547.9c-0.3-9.7-0.9-23.3-6.9-28
	c-11.1-8.6-19.3,5.4-27.1,11.4c-50.2,38.9-103.2,71.5-167.5,80.8C2.5,613.6-0.1,619.5,0,628.7c0.2,34.6-0.1,69.2,0.2,103.7
	c0.2,24.8,9.2,33.4,34.5,33.4c47.4,0.1,94.8,0,142.3,0c27.7,0,37.2-9.3,37.4-37.2c0.2-31.6,0-63.2,0.1-94.8
	C214.3,605.2,214.9,576.5,214,547.9z M967.8,718.3c21.2-0.2,31.6-10.4,32-31.9c0.4-19.2-0.2-38.5,0.2-57.7
	c0.2-10.6-4.2-14.4-14.8-15.4c-61.7-5.6-123.4-11.6-185-18.3c-11.9-1.3-14.8,2.4-14.7,13.1c0.3,25.6-0.3,51.3,0.3,76.9
	c0.5,23.1,11,33,34.1,33.2c24.2,0.2,48.3,0,72.5,0C917.5,718.4,942.6,718.5,967.8,718.3z"/>
</svg>
