<?xml version="1.0" encoding="utf-8"?>
<!-- Generator: Adobe Illustrator 25.2.0, SVG Export Plug-In . SVG Version: 6.00 Build 0)  -->
<svg version="1.1" id="Calque_1" xmlns="http://www.w3.org/2000/svg" xmlns:xlink="http://www.w3.org/1999/xlink" x="0px" y="0px"
	 viewBox="0 0 512 512" style="enable-background:new 0 0 512 512;" xml:space="preserve">
<path d="M128,204.7C145.1,136.2,187.7,102,256,102c102.4,0,115.2,77,166.4,89.8c34.1,8.6,64-4.3,89.6-38.5
	C494.9,221.8,452.3,256,384,256c-102.4,0-115.2-77-166.4-89.8C183.5,157.6,153.6,170.4,128,204.7z M0,358.7
	C17.1,290.2,59.7,256,128,256c102.4,0,115.2,77,166.4,89.8c34.1,8.6,64-4.3,89.6-38.5C366.9,375.8,324.3,410,256,410
	c-102.4,0-115.2-77-166.4-89.8C55.5,311.6,25.6,324.4,0,358.7z"/>
</svg>
