<?xml version="1.0" encoding="utf-8"?>
<!-- Generator: Adobe Illustrator 25.2.0, SVG Export Plug-In . SVG Version: 6.00 Build 0)  -->
<svg version="1.1" id="Calque_1" xmlns="http://www.w3.org/2000/svg" xmlns:xlink="http://www.w3.org/1999/xlink" x="0px" y="0px"
	 viewBox="0 0 1000 1000" style="enable-background:new 0 0 1000 1000;" xml:space="preserve">
<path d="M243,482.2c-8.4,31.2-16.7,62.5-25.2,94c-12.2,0-24,0-37.1,0c-12.6-50.3-25.3-100.7-38.2-152.1c12.7,0,24.4,0,37.6,0
	c7,34,14,68.3,21.1,102.6c0.8,0.1,1.6,0.2,2.5,0.3c8.3-32.8,16.7-65.6,25.2-98.9c10.8,0,21,0,32,0c8.5,33.2,17,66.2,25.4,99.1
	c0.8,0,1.6,0,2.3-0.1c7-34.2,13.9-68.4,21-103.1c11.9,0,23.2,0,36.2,0c-13.1,51.4-25.9,101.8-38.7,152.2c-12.8,0-24.5,0-37.1,0
	c-8.3-31.4-16.5-62.5-24.7-93.7C244.5,482.5,243.7,482.3,243,482.2z M661.2,480.3c21.7,32.3,43.4,64.5,64.5,95.9
	c11.4,0,21.2,0,31.7,0c0-51,0-101.3,0-151.7c-11.6,0-22.4,0-34.5,0c0,31.8,0,62.7,0,93.6c-0.6,0.1-1.3,0.2-1.9,0.3
	c-21.1-31.5-42.1-63-62.9-94c-11.7,0-22.5,0-33.3,0c0,51.2,0,101.5,0,151.4c11.8,0,22.6,0,34.1,0c0-32.3,0-63.6,0-94.9
	C659.6,480.7,660.4,480.5,661.2,480.3z M469.9,576c0-10.2,0-19.6,0-30.3c-25.1,0-49.5,0-74.1,0c0-11.2,0-21.1,0-32.4
	c17.9,0,35.4,0,53.5,0c0-10.5,0-19.5,0-29.8c-18.2,0-35.7,0-53.2,0c0-10.3,0-19.3,0-29.3c23.2,0,45.5,0,68.4,0c0-10.6,0-20.3,0-29.9
	c-35.1,0-69.3,0-103.9,0c0,50.8,0,100.8,0,151.7C397.7,576,433.7,576,469.9,576z M596.2,454.4c0-10.9,0-20.6,0-30
	c-35,0-69.1,0-103.1,0c-2.5,18.7-1.5,144,1.1,151.7c35.6,0,71.2,0,107,0c0-10.3,0-20,0-30.5c-24.8,0-48.7,0-72.9,0
	c0-11,0-21.1,0-32.5c18,0,35.1,0,52.7,0c0-10.3,0-19.3,0-29.5c-17.7,0-34.9,0-52.8,0c0-9.8,0-18.5,0-29.2
	C551.2,454.4,573.5,454.4,596.2,454.4z M84.8,454.1c17,0,32.7,0,48.1,0c0-10.8,0-20.3,0-29.6c-44.8,0-88.9,0-132.9,0
	c0,10.3,0,19.7,0,30.3c16.5,0,32.2,0,49.3,0c0,41.2,0,81.2,0,121.6c12.1,0,22.7,0,35.5,0C84.8,535.4,84.8,495.4,84.8,454.1z
	 M975.4,425.2c-17-7.4-34.3-8.1-51.7-1.8c-15.8,5.7-25.9,16.4-27.6,33.9c-1.9,18.7,6,32.3,22.2,40.9c6.4,3.4,13.7,5.2,20.7,7.5
	c7.3,2.4,15,4.1,22,7c12.6,5.3,16.9,13.2,15.4,26.1c-1.2,10.3-9.9,18.6-21.9,20.2c-16.6,2.3-31.5-1.3-43.8-13.3
	c-2.1-2-4.3-4-6.9-6.5c-5.1,4.9-10,9.5-14.8,14.1c18.7,24.3,52.8,33.8,80.5,23.1c18.8-7.2,30.7-23.5,30.7-41.9
	c0-19.6-10.4-34.5-29.8-42.3c-6.5-2.6-13.3-4.1-19.9-6.3c-7-2.3-14.1-4.3-20.7-7.5c-7.4-3.6-11.8-10-11.1-18.8
	c0.7-8.6,5.6-15.1,13.4-17.3c7.5-2.1,16.3-3.3,23.7-1.5c8.9,2.1,16.9,7.7,26.2,12.3c3.5-3.2,7.9-7.1,12.9-11.7
	C989.5,433.2,983,428.5,975.4,425.2z M835.9,579.1c18.8-3.9,31.4-17.2,33.7-36c0.7-5.8,1.2-11.7,1.3-17.6c0.1-30.2,0.1-60.5,0-90.7
	c0-3.5-0.5-7-0.7-10.3c-8,0-14.7,0-22.3,0c0,13,0,25.1,0,37.3c0,24,0.1,47.9-0.2,71.9c-0.2,13.3-7.8,23.4-18.9,25.3
	c-10.5,1.8-20.6,0.3-29.1-6.8c-2.5-2.1-4.9-4.1-7.7-6.4c-5.1,4.6-9.8,8.7-15.4,13.7C793,578.6,812.8,583.9,835.9,579.1z"/>
</svg>
