<?xml version="1.0" encoding="utf-8"?>
<!-- Generator: Adobe Illustrator 25.2.0, SVG Export Plug-In . SVG Version: 6.00 Build 0)  -->
<svg version="1.1" id="Calque_1" xmlns="http://www.w3.org/2000/svg" xmlns:xlink="http://www.w3.org/1999/xlink" x="0px" y="0px"
	 viewBox="0 0 1000 1000" style="enable-background:new 0 0 1000 1000;" xml:space="preserve">
<path d="M287.5,400.7c-22.4-13-42.5-25.6-63.5-36.6c-17.3-9-35.3-16.8-53.5-23.7c-15.2-5.8-27.7-0.3-32.2,12
	c-4.6,12.6,0.7,24.1,15.7,30.8c46.3,20.8,91,44.1,130.2,76.9c62.3,52.1,108,116.6,141.3,190.2c9.4,20.7,17.4,42.1,27,65.6
	c5.5-14.7,10.3-27.4,15-40.1c26.4-72.3,56.4-142.9,94.2-210c4.9-8.8,4.5-14.8-2.4-22.7c-45.2-51-64.4-111-62.8-179
	c2.8-119.2,106.2-233.5,224.7-248.2c77.1-9.6,145.5,8.7,202.2,62c75.9,71.4,97.4,184.1,55.9,280.9
	C935.7,460.1,839.1,523.3,729.5,521c-36.7-0.8-71.9-9.6-104.1-27.6c-11.2-6.3-16.9-4-21.9,7.2c-26.1,58.8-52.6,117.5-79.1,176.2
	c-5.2,11.5-1.9,16.6,9.9,21c37.9,14,70.6,35.5,93,70.4c30.5,47.3,24.6,109.6-13.5,150.9c-39.1,42.3-88.1,62-144.5,66.5
	c-64.7,5.2-122.7-10.6-173.1-52.5c-56.9-47.3-61.8-132.4-10.6-185.9c23-24,49.9-41.5,81.5-51.1c12.1-3.7,16.1-7.5,10-20.9
	c-31.7-69.7-74.4-130.8-133.4-180.2c-8.5-7.1-14.7-6.7-24-1.7C128.5,543,21.5,493.2,2.5,392.6c-15-79.3,40.8-158.5,120.1-170.2
	C207,209.8,282,265.8,291.9,348.2C294,365.5,294.4,382.1,287.5,400.7z"/>
</svg>
