<?xml version="1.0" encoding="utf-8"?>
<!-- Generator: Adobe Illustrator 25.2.0, SVG Export Plug-In . SVG Version: 6.00 Build 0)  -->
<svg version="1.1" id="Capa_1" xmlns="http://www.w3.org/2000/svg" xmlns:xlink="http://www.w3.org/1999/xlink" x="0px" y="0px"
	 viewBox="0 0 90.2 90.2" style="enable-background:new 0 0 90.2 90.2;" xml:space="preserve">
<path d="M5.2,23.2C12.7,9.2,27.7,0,45.1,0c11.2,0,21.5,4.8,29.4,11.5c-2.3-0.4-4.7,0.1-7.2,1.5c-5.8,3.3-7.7,12.7-0.2,17.5
	c4.7,2.9,6.4,10.3,6.2,14.8c-0.2,4.5-10.9,25.1-10.9,25.1l-10.5-36c0,0-0.4-2.5-0.4-3.3c0-0.9,0.3-2,0.9-2.7c0.4-0.4,1-1.3,1.7-1.3
	h5v-4h-27v4h0.8c0.9,0,1.7,1.2,2.6,2c1,1,2.2,4.8,3.7,8.8L43.2,51l-8.5,19.6l-9.3-39.1c0,0,0.3-2.7,0.8-3.1c0.4-0.3,0.9-1.1,1.6-1.1
	h0.3v-4C28.1,23.2,5.2,23.2,5.2,23.2z M10.5,29.9c0,0-2.2-2.8-4.5-2.8H3.6c-2.3,5-3.5,11.7-3.5,17.9c0,18.5,11.4,34.4,27.5,41.2
	L10.5,29.9z M83.8,22.8c0.9,4.1,0.7,9-1,14.4c-4.4,14.1-15.1,39.4-19.3,49.1c15.7-7,26.6-22.6,26.6-40.7
	C90.1,37.2,87.8,29.5,83.8,22.8z M46,60.8L34.5,88.9c3.4,0.8,6.9,1.3,10.6,1.3c3.8,0,7.4-0.5,11-1.3L46,60.8z"/>
</svg>
