<svg xmlns="http://www.w3.org/2000/svg" viewBox="0 0 1000 1000" style="enable-background:new 0 0 1000 1000" xml:space="preserve"><path d="M500 648.6c-27.5 27.5-54.2 54.1-80.7 80.8-84.8 85.1-169.5 170.2-254.3 255.3-20.7 20.8-39.7 20.5-60.4-.4-28.7-28.9-57.6-57.6-86.4-86.5-23-23-22.9-41.1.3-64.4 107.7-108 215.5-216.1 323.3-324 3.3-3.4 7.5-5.9 11.9-9.4-4.9-5.2-7.9-8.6-11.2-11.9C234.1 380.8 125.7 273.4 17.4 166c-23-22.8-23.1-40.7-.5-63.5 29-29.2 58-58.5 87.1-87.6 20-20 39.4-19.9 59.7.2 77.4 76.5 154.7 153 232.1 229.5 32.7 32.3 65.5 64.5 98.2 96.7 1.8 1.8 3.8 3.3 8.8 7.8 19.8-21 38.9-42.3 59.1-62.4C653.2 196 744.7 105.5 836.2 14.9c20.1-19.9 40-20.1 59.9-.2 29.2 29.1 58.1 58.4 87.1 87.6 22.7 22.8 22.2 41.8-1 64.6-108.1 106.8-216.3 213.8-324.6 320.7-3.1 3-6.8 5.4-12.9 13.8 4.2 2.2 9.4 3.5 12.6 6.7 107.3 107.3 214.4 214.7 321.6 322.1 3.7 3.7 7.3 7.4 10.7 11.4 13.2 15.4 14.2 33.5.2 48-33.1 34.3-66.9 67.9-101 101.3-11.5 11.3-31 11.4-44.3 1.5-4.8-3.6-8.8-8.3-13.1-12.6C723.5 872 615.6 764 507.8 656c-2.1-2.1-4.4-4.1-7.8-7.4z"/></svg>