<svg xmlns="http://www.w3.org/2000/svg" viewBox="0 0 1000 1000" style="enable-background:new 0 0 1000 1000" xml:space="preserve"><path d="M501.1-.9c103.2 0 206.5-.1 309.7 0 90.5.2 164.5 59.1 185 147.5 2.5 10.9 3.9 22.3 3.9 33.5.2 213 .6 426 0 639-.3 97-83.9 181.1-180.5 181.4-213 .6-426 .7-639 0C85 1000.2.9 916.2.5 821c-.7-213.9-.7-427.7 0-641.6C.8 83.5 84.9.6 180.9-.9c1.7 0 3.5-.1 5.2-.1 105 .1 210 .1 315 .1zm-88.2 502c-4.7 3.7-8.4 6.1-11.4 9.2-39.3 39.3-78.6 78.6-117.9 118-17 17.1-16.9 29.2.2 46.5 14.4 14.5 28.8 28.9 43.3 43.2 15.6 15.4 28.1 15.4 43.6 0 40-39.9 79.8-79.9 119.7-119.8 3-3 6.2-5.8 9.7-9.1 3.6 3.5 6.8 6.3 9.8 9.3 39 39 77.9 78.1 116.9 117.1 18.9 18.9 30 18.8 49.2-.4 13.5-13.5 27-27 40.5-40.6 16.9-17.1 16.9-29.4-.2-46.5-39.2-39.4-78.5-78.8-117.9-117.9-3.3-3.2-8.5-4.4-13.5-6.9 47.7-47.7 90.7-90.6 133.6-133.6 14.2-14.3 14.2-27.6.4-41.8-15.2-15.5-30.5-30.9-46-46.1-15.5-15.3-28-15.3-43.6.3-38.4 38.4-76.8 76.8-114.9 115.3-4.5 4.6-7.9 10.2-12.2 15.7-5.8-5.5-9-8.4-12-11.4-39.3-39.3-78.5-78.7-117.8-118.1-17.8-17.8-29.3-17.7-47.3.3-12.9 12.9-25.8 25.8-38.6 38.7-20.9 20.9-20.9 31.1 0 52 41.4 41.5 82.8 83 126.4 126.6z"/></svg>