<svg xmlns="http://www.w3.org/2000/svg" viewBox="0 0 1000 1000" style="enable-background:new 0 0 1000 1000" xml:space="preserve"><path d="M879.6 1000.2c-39-1.8-69-15.2-94.2-40.5-77.5-77.8-155.3-155.4-232.9-233-12.9-12.9-25.8-26-38.9-38.8-13.5-13.3-13.6-13.3-27.6.6-33.8 33.7-67.5 67.5-101.3 101.2-56.4 56.3-112.9 112.6-169.2 169.1-19.4 19.4-41.6 33-69.1 38.2-50.2 9.5-100.7-12.3-127.9-56.3-26.5-42.8-24.3-98 6.1-138C31.3 794 39.2 786 47 778.1c86.4-86.5 172.8-172.9 259.3-259.4 3.7-3.7 7.2-7.6 11.1-11.1 6.4-5.8 5.4-11.1-.4-16.6-3.8-3.6-7.4-7.4-11.1-11.1C218 392.1 130.3 304.2 42.3 216.6c-21.5-21.4-35.7-45.8-40.8-76.2C-9 77.7 37.8 11.9 100.4 2 146-5.2 183.8 8.5 216 40.8c88.1 88.4 176.5 176.6 264.9 264.9 21.1 21.1 16.9 21.5 38.7-.3C607.5 217.6 695.4 129.8 783 41.9 805.4 19.4 831 4.6 863.2.7 924.2-6.8 984.8 36 997 96.3c9.3 46.2-4.2 85.1-36.9 117.8-88.7 88.9-177.5 177.6-266.3 266.4-22 22-20.2 17.9.6 38.7 86.8 87 173.7 173.9 260.7 260.7 21.8 21.7 37.4 46 43.1 77.2 10.5 57.2-27.7 124.3-93.1 138.9-9.5 2-19.2 3.1-25.5 4.2z"/></svg>