<svg xmlns="http://www.w3.org/2000/svg" viewBox="0 0 1000 1000" style="enable-background:new 0 0 1000 1000" xml:space="preserve"><path d="M500 1001C224.6 1001 .1 776.1 0 500.2-.1 223.8 224.6-1.2 500.6-1c275.2.2 499.5 225.3 499.4 501.3-.1 275.8-224.7 500.7-500 500.7zM326.4 762.9c58.2-58.5 115.9-116.5 174.9-175.8 58 58.3 115.8 116.4 171.8 172.7 29.2-29 57.9-57.6 87.7-87.2-57-57-114.7-114.7-174.1-174 58.2-58 116.4-116 173.1-172.5-29.1-29.4-57.5-58-87.2-88.1-57.2 57.5-115 115.6-173.9 174.9-58-58.3-115.7-116.4-171.7-172.7-29.2 29.1-58 57.7-87.7 87.2 57 57 114.7 114.7 174 174.1L239 675.2c28.9 29.1 57.2 57.4 87.4 87.7z"/></svg>