<svg xmlns="http://www.w3.org/2000/svg" viewBox="0 0 1000 1000" style="enable-background:new 0 0 1000 1000" xml:space="preserve"><path d="M498.6.1C776.4-.2 999.6 222.5 1000 500c.4 275.3-224.6 501.3-504 500C224.5 998.7.9 774.6 0 501.9-.9 224.9 223.6.2 498.6.1zm1.5 398.4c-3.2-3-5.9-5.4-8.5-8-30.3-30.2-60.4-60.5-90.8-90.6-20.3-20.2-44.5-27.9-72.4-19.8-52.2 15.2-68.2 79-29.6 119 30 31 60.9 61.1 91.4 91.6 2.8 2.8 5.4 5.8 8.6 9.2-3.3 3.5-6 6.5-8.9 9.3-30 30-60 59.9-89.9 89.9-20.2 20.3-27.8 44.5-19.6 72.4 15.4 52.2 79 68 119 29.3 29.4-28.4 58-57.7 86.8-86.7 4.4-4.4 7.8-9.7 14-17.4 4.6 6.6 6.6 10.4 9.4 13.3 29.8 30.1 59.7 60.2 89.8 90 20.3 20.1 44.6 27.6 72.5 19.2 51.3-15.4 67.7-78.1 30.2-117.5-30-31.5-61.3-61.8-92-92.6-3-3-5.9-6.2-9.6-10.2 4.9-4.5 8.9-7.8 12.5-11.5 29-28.9 57.9-57.7 86.8-86.8 20.2-20.3 27.9-44.5 19.9-72.4-15-52.2-79-68.4-118.9-29.9-31 30-61.1 60.9-91.6 91.4-2.7 3-5.7 5.7-9.1 8.8z"/></svg>