<svg xmlns="http://www.w3.org/2000/svg" viewBox="0 0 500 500" style="enable-background:new 0 0 500 500" xml:space="preserve"><path d="M462 249.9v-92c0-15.9-1.5-31.6-6.2-46.9-11.9-39.1-38.9-61.4-78.3-69.6-11.3-2.4-22.8-3.3-34.4-3.3-62.1 0-124.3-.1-186.4 0-15.5 0-30.8 1.6-45.7 6.1C73.8 55.5 51.5 80.6 42.4 118c-3.2 13-4.3 26.2-4.3 39.5-.1 61.7-.1 123.5 0 185.2 0 15.5 1.5 30.8 5.9 45.7 11.1 37.2 35.9 59.8 73.4 69 12.4 3 25 4.1 37.7 4.3 6.9.1 12.6 2.5 16.6 8.3 4.2 6 4.7 12.5 1.6 18.9-3 6.4-8.2 10.7-15.5 10.8-37.5.6-72.5-7.4-103-30.4-25.1-19-40.5-44.6-48.6-74.7C2.4 380.4.1 365.9.1 351.2 0 283.6-.1 216 .2 148.4c.1-22.5 4.6-44.2 13.6-64.9 16.6-37.8 45-62.6 84.1-75.2C114.4 3 131.3.1 148.6.1 216 0 283.4-.1 350.8.1c25.3.1 49.6 5.4 72.4 16.8 32.9 16.4 54.9 42.5 67.1 77 6.1 17.5 9.2 35.5 9.6 54 .2 10.7.2 21.2.2 31.8 0 56.9.1 113.7-.2 170.6-.1 25.5-5.4 50.1-16.9 73-17.8 35.5-46.5 58.1-84.3 69.4-16 4.8-32.4 7.2-49.1 7.3-23.1.1-46.1 0-69.2.1-5.6 0-10.4-1.5-14.3-5.5-5.7-5.8-6.8-12.6-4-20 2.6-6.9 7.7-11.2 15.1-12.3 2.3-.3 4.7-.3 7-.3 19.9 0 39.9.1 59.8 0 15.3-.1 30.4-1.7 45.1-6.1 36.7-11.1 59.1-35.7 68.3-72.7 3.4-13.5 4.5-27.3 4.5-41.3.2-30.6.1-61.3.1-92zm-188.7-52.1c14.2 14.2 28.4 28.5 42.6 42.7 5.2 5.3 10.3 10.7 15.8 15.6 7.1 6.3 17.6 6 24.6-.3 7.2-6.5 8.3-17.1 2.5-24.9-1.3-1.7-2.8-3.2-4.4-4.7l-88.5-88.8c-1.2-1.2-2.4-2.5-3.8-3.7-6.9-5.9-16.5-6-23.7-.5-5.6 4.3-7.3 10.2-7.3 17 .1 66.6 0 133.2 0 199.8 0 1.4 0 2.7.1 4.1.9 8.6 8 15.8 16.3 16.7 9.2 1 17.1-4.1 20.1-12.7 1.1-3 1-6.1 1-9.3V194.2c2.6.9 3.5 2.4 4.7 3.6zm-99.1-.3c-10.1 10.1-20.1 20.2-30.2 30.3-1.1 1.1-2.2 2.3-3 3.5-5.6 8-4.3 18.4 3 24.9 7 6.2 17.7 6.4 24.5-.2 11.5-11.1 22.8-22.4 33.8-34 5.5-5.8 6-13.1 2.6-20.2-3.2-7-9.1-10.4-14.6-10.5-7.7 0-11.5 1.6-16.1 6.2z"/></svg>