<svg xmlns="http://www.w3.org/2000/svg" viewBox="0 0 500 500" style="enable-background:new 0 0 500 500" xml:space="preserve"><path d="M249.9 38.1h-92c-15.9 0-31.6 1.5-46.9 6.2-39.1 11.9-61.4 38.9-69.6 78.3-2.4 11.3-3.3 22.8-3.3 34.4 0 62.1-.1 124.3 0 186.4 0 15.5 1.6 30.8 6.1 45.7 11.3 37.2 36.4 59.5 73.8 68.6 13 3.2 26.2 4.3 39.5 4.3 61.7.1 123.5.1 185.2 0 15.5 0 30.8-1.5 45.7-5.9 37.2-11.1 59.8-35.9 69-73.4 3-12.4 4.1-25 4.3-37.7.1-6.9 2.5-12.6 8.3-16.6 6-4.2 12.5-4.7 18.9-1.6 6.4 3 10.7 8.2 10.8 15.5.6 37.5-7.4 72.5-30.4 103-19 25.1-44.6 40.5-74.7 48.6-14.2 3.8-28.7 6.1-43.4 6.1-67.6.1-135.2.2-202.8-.1-22.5-.1-44.2-4.6-64.9-13.6-37.8-16.6-62.6-45-75.2-84.1C3 385.7.1 368.8.1 351.5 0 284.1-.1 216.7.1 149.3.2 124 5.5 99.7 16.9 76.9 33.3 44 59.4 22 93.9 9.8c17.5-6.1 35.5-9.2 54-9.6 10.7-.2 21.2-.2 31.8-.2 56.9 0 113.7-.1 170.6.2 25.5.1 50.1 5.4 73 16.9 35.5 17.8 58.1 46.5 69.4 84.3 4.8 16 7.2 32.4 7.3 49.1.1 23.1 0 46.1.1 69.2 0 5.6-1.5 10.4-5.5 14.3-5.8 5.7-12.6 6.8-20 4-6.9-2.6-11.2-7.7-12.3-15.1-.3-2.3-.3-4.7-.3-7 0-19.9.1-39.9 0-59.8-.1-15.3-1.7-30.4-6.1-45.1-11.1-36.7-35.7-59.1-72.7-68.3-13.5-3.4-27.3-4.5-41.3-4.5-30.6-.2-61.3-.1-92-.1zm-52.1 188.7c14.2-14.2 28.5-28.4 42.7-42.6 5.3-5.2 10.7-10.3 15.6-15.8 6.3-7.1 6-17.6-.3-24.6-6.5-7.2-17.1-8.3-24.9-2.5-1.7 1.3-3.2 2.8-4.7 4.4l-88.8 88.5c-1.2 1.2-2.5 2.4-3.7 3.8-5.9 6.9-6 16.5-.5 23.7 4.3 5.6 10.2 7.3 17 7.3 66.6-.1 133.2 0 199.8 0 1.4 0 2.7 0 4.1-.1 8.6-.9 15.8-8 16.7-16.3 1-9.2-4.1-17.1-12.7-20.1-3-1.1-6.1-1-9.3-1H194.2c.9-2.6 2.4-3.5 3.6-4.7zm-.3 99.1c10.1 10.1 20.2 20.1 30.3 30.2 1.1 1.1 2.3 2.2 3.5 3 8 5.6 18.4 4.3 24.9-3 6.2-7 6.4-17.7-.2-24.5-11.1-11.5-22.4-22.8-34-33.8-5.8-5.5-13.1-6-20.2-2.6-7 3.2-10.4 9.1-10.5 14.6 0 7.7 1.6 11.5 6.2 16.1z"/></svg>