<svg xmlns="http://www.w3.org/2000/svg" viewBox="0 0 500 500" style="enable-background:new 0 0 500 500" xml:space="preserve"><path d="M0 249.6c-.2-19.9.6-39.8 2.6-59.7 3.1-29.4 8.7-58.2 20.7-85.5C40 66.6 67.3 39.5 105.1 23c24.4-10.6 50-16.1 76.3-19.4C214.3-.5 247.3-.8 280.3.5c31.9 1.2 63.4 5 94 14.8 29.6 9.5 55.7 24.3 76.4 48 15.7 17.9 26.2 38.7 33.5 61.2 7.2 22.2 11 45 13.2 68.2 2.8 28.3 3 56.6 2 84.9-1.2 32.8-4.8 65.4-14.9 96.9-9.4 29.3-24.1 55.4-47.6 76-19 16.7-41.1 27.5-65 34.9-21.1 6.5-42.9 10-64.9 12.1-28.6 2.8-57.4 3-86 1.9-32.5-1.2-64.6-4.9-95.7-15-32.7-10.5-61.1-27.6-82.2-55.3-15.9-20.8-25.7-44.5-32-69.7-5.5-22-8.3-44.5-9.8-67.1-1-14.2-1.1-28.4-1.3-42.7zm250.2-212c-13.7.2-27.3.2-41 1.2-24.2 1.7-48.1 4.8-71.4 12.1-22.1 6.9-42.2 17.4-58.1 34.7-14.1 15.2-22.9 33.3-29 52.9-8.7 27.8-11.7 56.4-12.8 85.4-.8 22.4-.8 44.9.8 67.3 1.4 19.7 3.8 39.2 8.5 58.4 5 20.2 12.5 39.4 25.2 56.2 16.7 22.3 39.7 35.3 65.8 43.4 27 8.5 55 11.5 83.1 12.7 28.1 1.1 56.2 1 84.3-1.9 19.1-2 37.9-5 56.2-10.8 19-6 36.6-14.5 51.5-28 17.9-16.2 28.7-36.7 35.8-59.4 8.5-27 11.6-55 12.7-83.1 1.2-31.6 1-63.3-3.1-94.7-2.5-19.2-6.3-38.1-13.1-56.3C433 94 410.4 69.8 376.8 56.2c-21.7-8.8-44.4-13.2-67.6-15.9-19.6-2.2-39.3-2.9-59-2.7zM225 250.1c0 13.9 10.9 24.8 24.9 24.8 14.3 0 25.2-11 25.1-25.2-.2-13.9-11.1-24.6-25.2-24.5-14 0-24.9 10.9-24.8 24.9zm-75.1-25c-13.9 0-25.1 11-25.2 24.7-.1 13.9 11.3 25.1 25.5 25 13.9-.1 24.8-11.2 24.8-25-.1-13.8-11.1-24.7-25.1-24.7zm175 24.5c-.1 13.9 10.6 25 24.5 25.3 14.2.2 25.6-10.8 25.7-24.8.1-13.7-11.1-24.9-24.9-25-14-.1-25.1 10.7-25.3 24.5z"/></svg>