<svg xmlns="http://www.w3.org/2000/svg" viewBox="0 0 500 500" style="enable-background:new 0 0 500 500" xml:space="preserve"><path d="M249.7 500c-22.6.2-45.1-.8-67.6-3.4-22.3-2.6-44.2-6.7-64.9-15.7-12.4-5.4-23.7-12.3-32.8-22.4C68 440 64 418.3 69.3 394.7c4.9-22.1 17.5-39.7 33.8-54.8 21.3-19.6 46.4-32.3 73.9-40.9 30-9.3 60.7-12.7 91.9-10.2 40.4 3.2 78.2 14.6 111.8 37.9 17.2 11.9 31.8 26.5 41.7 45.1 8.5 16 12.4 33 9.7 51.2-2.8 19.3-12.9 34.2-28.4 45.6-14.3 10.6-30.6 16.7-47.6 21-16.8 4.3-33.9 6.6-51.1 8.1-18.4 1.7-36.8 2.4-55.3 2.3zm.7-36.2c17.7.2 36.1-.6 54.5-2.3 17.3-1.6 34.3-4.2 50.9-9.3 10.8-3.3 21.2-7.7 29.9-15.4s12.1-17.4 10.9-28.8c-1.1-10.8-5.7-20.2-12.1-28.7-8.4-11.1-18.9-19.9-30.7-27.2-24.1-14.9-50.4-23.1-78.4-26.4-35-4.1-69-.1-101.9 12.8-18.4 7.2-35.2 17.1-49.2 31.1-7.9 7.9-14.7 16.7-18.2 27.5-7.1 21.8-.6 35.9 16.8 46.1 5.7 3.3 11.8 5.9 18 8 14.1 4.7 28.7 7.3 43.5 9.1 21.7 2.8 43.5 3.7 66 3.5zm-.9-216.5c-68.6-.1-123.5-55.3-123.3-124C126.3 56.9 179.6 0 249.9 0c71.4 0 123.9 58.2 123.7 123.9-.3 68.5-55.5 123.5-124.1 123.4zm-.1-36.1c48.6.2 87.8-38.6 88-86.9.2-48.7-38.9-88.2-87.4-88.2-48.3 0-87.5 39.2-87.6 87.5-.2 48.6 38.4 87.4 87 87.6z"/></svg>