<svg xmlns="http://www.w3.org/2000/svg" viewBox="0 0 500 500" style="enable-background:new 0 0 500 500" xml:space="preserve"><path d="M208.9 500c-44.4-1.4-80.9-2.2-116.6-11.2-16.5-4.1-32.2-10.2-46.2-20-25.4-17.9-35.5-48.1-26.3-77.9 8-26 25.1-45 46.7-60.2 31.2-22 66.3-33.3 103.9-37.8 44.7-5.3 87.9.4 129.3 17.9 28.5 12.1 53.6 29 71 55.4 10.9 16.5 16.4 34.5 14.1 54.3-3.3 28.1-20.5 45.5-44.7 57.2-20.4 9.9-42.2 15-64.6 17.3-24.7 2.5-49.6 3.8-66.6 5zm-5.4-36.8c6.2-.3 15-.5 23.7-1.2 20.1-1.7 40.2-3.1 60.1-5.9 16.5-2.4 32.7-7.1 46.7-16.9 12.1-8.5 16.9-20.3 14.1-33.9-2-9.6-6.4-17.9-12.6-25.4-14.3-17.5-33-28.5-53.4-36.7-32-12.9-65.3-17.5-99.8-14.6-30.6 2.6-59.6 10.5-86 26.4-15.9 9.6-29.9 21.3-38.4 38.4-9.9 19.9-5.6 37.1 13.5 48.1 9.7 5.6 20.7 9.5 31.6 12.3 32.1 8.1 65.1 8.4 100.5 9.4zm-126.9-338C75.1 60.3 127.8-.3 201.2 0c71.3.3 124.4 56.2 124.5 125.1 0 68.8-54.1 125-125.3 124.9-71.5-.1-125-58.7-123.8-124.8zm212.7 0c-.1-47.4-36.8-88.5-88.1-88.6-49.3-.1-88.3 37.7-88.4 88.8-.1 49.9 39 87.7 87.9 88.1 48.5.4 88.5-39.8 88.6-88.3zm92 63c-4.4 0-8.8-.2-13.2.1-7.4.5-12.9 4.2-15.7 11.2-2.9 7.2-1.3 13.6 3.9 19.3 4.1 4.4 9.2 5.9 14.8 6 7 .1 14 .3 20.9 0 5.4-.3 7.7 1.4 7.3 7.1-.4 7.1-.2 14.3-.1 21.5.2 11.2 7.5 18.1 18.5 18 8.2-.1 14.6-4.7 16.7-12.6 1-3.7 1.1-7.6 1.3-11.4.4-7.1.7-14.2 1-21.3 7.2-.4 14.5-.8 21.7-1.2 3.5-.2 7-.2 10.4-.9 9.7-2 15.2-9.9 14.4-19.8-.8-8.8-8.6-15.8-18-16-7.7-.1-15.4-.2-23.1 0-4.8.2-6.5-1.6-6.4-6.4.1-8.4.2-16.9-.7-25.3-1.1-10-9.8-16.5-19.2-15.7-9.6.8-16.4 8.5-16.5 18.7-.1 7.9-.1 15.8 0 23.7 0 3.5-1.3 5.1-4.9 4.9-4.3-.1-8.7 0-13.1.1 0-.1 0 0 0 0z"/></svg>