<svg xmlns="http://www.w3.org/2000/svg" viewBox="0 0 500 500" style="enable-background:new 0 0 500 500" xml:space="preserve"><path d="M251.5 456.4c-20.2-.2-38.4-.5-56.4-2.6-18.9-2.2-37.6-5.4-55.4-12.7-10.6-4.4-20.4-10.2-28.3-18.7-15-16.4-18.4-35.6-12.8-56.6 4.5-16.9 14.6-30.3 27.5-41.7 18.1-15.9 39.3-26 62.3-32.7 22.9-6.7 46.3-9.5 70.1-8.5 33.2 1.4 64.7 8.9 93.7 25.6 15.9 9.2 29.8 20.7 39.9 36.3 8.1 12.6 12.4 26.3 11.7 41.4-.9 18.1-9.1 32.2-23.2 43.1-10.7 8.3-23 13.3-35.9 17-15.6 4.5-31.6 6.7-47.7 8.2-15.9 1.5-31.7 1.6-45.5 1.9zm-2.1-34.8c9.6 0 19.2.4 28.8-.1 18.3-.8 36.5-2.7 54.4-7.3 9.9-2.6 19.4-6 27.6-12.3 7.2-5.5 10.4-12.8 9.4-21.9-.9-8.5-4.7-15.6-10-22-8.7-10.5-19.7-18-31.7-23.9-19-9.4-39.3-14.4-60.4-16.3-27.5-2.5-54.3.6-80.3 10-15 5.5-28.9 12.9-40.6 24-6.7 6.3-12.1 13.5-14.8 22.4-3.8 12.6-.4 22.3 10.6 29.6 2.2 1.5 4.5 2.8 7 3.9 15 7.1 31.1 9.7 47.4 11.7 17.3 2.3 34.9 2.5 52.6 2.2zm105.4-273.5c-.3 60.3-49 104.6-104.2 105.1-55 .4-104.9-43.2-105.4-104.2-.5-57.6 46.4-105 103.9-105.4 58.2-.3 105.4 46.2 105.7 104.5zm-34.1.2c-.1-39-31.8-70.5-70.8-70.5-38.9.1-70.6 31.8-70.5 70.8 0 39.1 31.6 70.4 70.8 70.3 39-.1 70.6-31.7 70.5-70.6zm-218.6-81c-55.7 13.5-81.5 78.1-50.2 126.2 11.6 17.8 27.9 29.7 48.6 35 8.9 2.3 17.3-2.7 20.2-11.4 2.7-8.5-1.5-17.4-10-20.9-1.1-.5-2.4-.8-3.5-1.2-21.1-6.9-35-26-34.6-47.5.4-22.1 15.1-40.7 36.9-46.8 1.9-.5 3.8-.9 5.6-1.7 7.4-3.1 11.4-10.9 9.9-18.7-1.6-8.1-8.4-13.9-17.4-14-1.3.2-3.5.5-5.5 1zm359.1 74c-2.3-36.1-30.7-68-66.3-74.6-8.4-1.6-16.7 3.3-19.3 11.4-2.7 8.3 1.3 17.4 9.3 20.9 2.1.9 4.4 1.4 6.6 2 21.1 6 35.5 24.1 35.9 46.4.4 23.7-15.1 41.1-32.9 47-2 .7-4.1 1.3-6 2.1-6.8 3.1-10.5 9.7-9.8 17.4.6 7 5.8 12.8 12.8 14.7 3.4.9 6.7.5 10-.5 33.8-9.9 59.7-40.4 60.2-79.8-.2-2.4-.3-4.7-.5-7zM0 336.5c1.4 25.5 21.5 45.1 44.4 49.4 6.8 1.3 12.6-1.6 16.5-7.4 6.4-9.5 2.1-21.7-9-25.6-3.7-1.3-7.5-2.3-10.5-5-8.6-7.6-9.3-14.5-3.2-22.8 4.3-6 10-10.6 16.4-14.3 10.8-6.2 22.5-9.8 35.1-9.7 9.4.1 18.9-6.1 18.6-17.7-.4-12-10.5-17.1-19-16.7-10.7.6-21.2 2-31.4 5.4-17.2 5.7-32.3 14.7-44.1 28.8C5.5 310.7.3 321.8 0 333.6v2.9zm407.2-69.6c-10.5.9-17.7 11.5-14.7 21.6 2.3 7.7 8.4 12.3 17.2 12.5 13.3.3 25.6 3.7 37 10.6 6 3.6 11.3 8.1 15.3 13.8 5.6 8.1 4.7 15.1-2.5 21.8-2.5 2.3-5.5 3.9-8.7 5-1.2.4-2.4.7-3.6 1.1-8.5 3.4-12.9 12.4-10.2 20.9 2.7 8.6 11.3 13.6 20.1 11.5 17.4-4.2 30.4-14.3 38.2-30.6 6.6-13.7 6.1-27.5-.5-41.1-3.5-7.3-8.4-13.6-14.3-19.2-19.1-18-42.2-26.4-68-27.9-1.8 0-3.6-.2-5.3 0z"/></svg>