<svg xmlns="http://www.w3.org/2000/svg" viewBox="0 0 500 500" style="enable-background:new 0 0 500 500" xml:space="preserve"><path d="M74.7 500.9c-13.2-.8-24-1.5-34.7-3.6-7.8-1.5-13.6-5.5-17.2-12.5C5.9 451.6-2.6 416.6.7 379.4c2.4-26.7 12.3-50.7 28.5-72.2 51.1-67.9 102-135.9 153.1-203.8 14.7-19.5 29.3-39 43.9-58.6C245.3 19.4 270.6 4.1 302 .1c57.2-7.4 104.9 28.1 120 74.7 12.2 37.7 6.4 72.8-17.3 104.5-44.1 59-88.4 117.9-132.7 176.8-21.3 28.4-42.7 56.6-63.9 85.1C183 474.9 149 492.8 108 498.6c-11.9 1.7-23.8 2.4-33.3 2.3zm136.2-361.5c-1.2 1.3-2 2.1-2.7 3-48.4 64.4-96.8 128.9-145.1 193.4-6.5 8.7-11.4 18.3-14.6 28.8-6.1 20.4-5.2 40.9-.5 61.4 2.3 10.1 5.3 19.9 9.9 29.1 16.7 2.6 33 1.9 49.1-1 26.6-4.8 48.9-16.8 65.4-38.8 47.6-63.6 95.3-127.1 143-190.6 1-1.4 2.8-2.5 2.4-5-35.4-26.6-70.9-53.3-106.9-80.3zm26.2-35.6c36.4 27.3 72.1 54.1 108.2 81.2 9.8-13.8 20.8-26.3 29.5-40.4 8.6-13.9 11.1-29.4 8-45.2-5.2-27.3-21.3-45.9-48.1-53.3-26.4-7.3-50-.7-68.4 19.8-10.4 11.6-19.1 24.6-29.2 37.9zM404 493.1c24.6 0 49.3.1 73.9-.1 12.7-.1 22-9.6 22.1-21.8.1-12.1-9.2-21.7-21.7-22.3-1.6-.1-3.2 0-4.8 0h-179c-2.1 0-4.2-.1-6.2.1-11 1.1-19.3 9.4-20.2 20.2-.9 10.7 5.5 20.1 15.8 23.1 3.4 1 6.8.8 10.3.8H404z"/></svg>