<svg xmlns="http://www.w3.org/2000/svg" viewBox="0 0 500 500" style="enable-background:new 0 0 500 500" xml:space="preserve"><path d="M113.5.8c61.3 0 113.3 49 113.3 113.5 0 62.9-50.1 113.4-113.4 113.4C48.9 227.6 0 175.5 0 114.2 0 51.6 50.9.8 113.5.8zm.2 38.5c-41.4-.1-75.1 33.3-75.2 74.5-.1 41.6 33.5 75.5 75 75.5 41.1 0 74.9-33.8 75-74.9.1-41.2-33.6-75-74.8-75.1zM386.5.8C449.1.8 500 51.6 500 114.2c0 60.6-48.1 113.3-113.3 113.5-62.5.1-113.5-49.8-113.5-113.3C273.2 49.4 325.7.9 386.5.8zm75 113.5c0-41.3-33.5-74.9-74.7-75-41.3-.1-75 33.4-75.2 74.6-.2 41.4 33.8 75.5 75.1 75.4 41.2 0 74.8-33.8 74.8-75zm-71.8 384.8c-60.7 1.5-114-45-116.4-109.3-2.3-62.4 45.3-113.3 105.7-117.3 63.9-4.2 117 44.1 120.8 106.3 3.8 63.6-45 118.1-110.1 120.3zm-2.9-188.3c-41.4-.1-75.2 33.2-75.2 74.5 0 41.6 32.8 75.2 75.1 75.4 41.3.2 74.9-33.7 74.9-74.9 0-41.4-33.5-74.9-74.8-75zm-273.2-38.4c60.2-.2 113.3 48.2 113.2 113.7-.1 62.3-49.7 113-113.3 113-65.1 0-113.8-52.8-113.5-114 .3-62.3 51.2-112.8 113.6-112.7zm.1 38.4c-41.4-.1-75.1 33.2-75.3 74.4-.1 41.6 33.4 75.5 74.9 75.5 41.1 0 75-33.7 75.1-74.9.2-41.1-33.4-74.8-74.7-75z"/></svg>