<svg xmlns="http://www.w3.org/2000/svg" viewBox="0 0 500 500" style="enable-background:new 0 0 500 500" xml:space="preserve"><path d="M0 256.9c0-31.9 1.1-57 4.6-82 3.9-28.3 10.8-55.8 24.2-81.4 15-28.6 36.7-50.3 65.4-65.1 23.4-12.1 48.4-18.9 74.3-22.8 36.4-5.6 73-6.5 109.7-5 20.1.8 40.1 2.5 59.9 6 23 4.1 45.2 10.4 66.2 20.9 33.1 16.7 56.8 42.1 71.9 75.8 9.7 21.7 15.4 44.6 18.8 68 5.6 37.5 5.8 75.3 4.2 113.1-1.1 26.1-4.2 51.9-10.9 77.2-7.3 27.7-18.6 53.4-37.6 75.1-18.3 21-41.2 35.1-67.1 44.6-21.1 7.7-42.9 12-65.1 14.8-33.9 4.2-68 4.3-102 2.9-26.4-1.1-52.7-4.2-78.3-11-28.6-7.6-55-19.4-77.1-39.6-16.3-14.9-28.5-32.8-37.4-52.9-9.2-20.7-14.6-42.5-18-64.8C1.3 304.1.1 277.1 0 256.9zM244.4 35.8c-24.6.1-55.1 1.6-85.1 7.8-18.1 3.7-35.6 9.3-51.9 18.3-26.9 14.8-44.3 37.5-54.8 65.9-9.8 26.4-13.7 54-15.5 81.9-2 30.1-1.8 60.3.8 90.4 1.8 21.2 5 42.1 11.4 62.4 5.9 18.8 14.3 36.3 27.5 51.2 16.2 18.3 36.7 29.4 59.6 36.7 26.8 8.6 54.5 11.9 82.4 13.1 32.9 1.4 65.9 1.2 98.7-3.1 19.2-2.5 38.1-6.5 56.3-13.4 31.6-12 55.1-32.6 69.2-63.6 7.4-16.4 12.1-33.5 15.2-51.2 3.8-21.5 5.4-43.2 5.8-65 .6-30.9 0-61.8-4.7-92.5-3-19.4-7.6-38.3-15.5-56.3-11.6-26.2-29.8-46-55.4-58.9-20.9-10.5-43.2-16-66.1-19.3-23.9-3.3-47.9-4.4-77.9-4.4zM268 225.6v-57.5c0-2.6 0-5.2-.7-7.7-2.1-7.8-8.6-13.1-16.6-13.3-8.2-.3-15.3 4.7-17.7 12.6-.8 2.5-.7 5.2-.7 7.7V226c0 2 .7 4.1-1 6.2h-5.9c-20.3 0-40.6-.1-60.9.1-9.5.1-16.5 6.9-17.4 16.2-.8 8.9 5 16.7 14 18.9 2.4.6 4.8.6 7.2.6h57.5c2 0 4.1-.5 6.1.6.8 1.9.4 4 .4 6 .1 20.5-.1 40.9.1 61.4.1 8.8 7 16 15.5 17 8.9 1 17-4.5 19.4-13.3.7-2.6.7-5.1.7-7.7v-57.5c0-2-.3-4 .4-6 2.2-.8 4.3-.4 6.3-.4h55.8c2 0 4.1.1 6.1-.1 9-.9 15.8-7.7 16.4-16.2.8-10.6-6.9-19.2-17.7-19.3-13.2-.2-26.4 0-39.6 0h-27c-1.1-2.8-.7-4.9-.7-6.9z"/></svg>