<svg xmlns="http://www.w3.org/2000/svg" viewBox="0 0 500 500" style="enable-background:new 0 0 500 500" xml:space="preserve"><path d="M386.5 84.9c2.3-1 3.5-2.7 4.8-4.1C405.1 67 419 53.2 432.7 39.4c4-4.1 8.6-6.6 14.5-6.5 7.8.1 13.6 3.7 16.8 10.7 3.2 6.9 2.4 13.7-2.5 19.8-1.5 1.8-3.2 3.4-4.9 5.1L216.4 308.7 131.1 394l-63.8 63.8c-4 4-8.5 6.7-14.4 6.7-7.8 0-13.6-3.6-16.9-10.5-3.4-6.9-2.5-13.7 2.1-19.8 1-1.4 2.4-2.6 3.6-3.8C53.6 418.7 65.3 407 77 395.2c1.3-1.3 3-2.4 3.9-4.5-6.2-5.6-12.6-10.9-18.7-16.7-20.8-19.9-37.9-42.5-49.6-68.9-9.3-21-14.1-43-12.2-66 1.6-19.9 7.7-38.6 16.8-56.2 16.6-32.2 40.4-58.2 69.2-79.9C117 79.9 151 63.9 188.3 55c33-7.9 66.3-9.5 99.9-4.5 33.2 4.9 64.3 15.6 93.6 31.9 1.5.8 3 1.6 4.7 2.5zM304.4 167c5.4-3.8 52.2-51 54-54.6-.8-.5-1.6-1-2.5-1.5-50.5-25.4-103.4-32.5-158.6-19.6-33.9 7.9-64.6 22.9-92 44.3-22.7 17.8-41.7 38.8-54.9 64.6-6.8 13.3-11.5 27.3-12.6 42.3-1.2 16.6 2.5 32.1 9.1 47.2 9.6 21.8 23.7 40.3 40.8 56.6 6.4 6.2 13 12.2 19.6 16.7l60.7-60.7c-26.3-40.7-18.1-91.1 11.8-121.9 28.8-29.6 79.2-41.9 124.6-13.4zm-28 27.9c-21.5-11.8-53.7-8-73.1 15.6-14.9 18.1-18.2 50.3-6.9 64.4l80-80zm23.2 250.4c61.4-12.5 113.5-41.5 154.9-88.9 17.8-20.3 31.5-43.1 39.5-69.1 5.8-18.8 7.5-37.8 4.5-57.2-3.2-20.9-11.2-40.1-21.9-58.2-4.8-8.1-10.1-15.8-16-23.1-5.1-6.3-13.2-8.5-20.6-5.9-7.3 2.5-12.2 8.9-12.6 16.7-.3 5.3 1.7 9.8 5 14 8.9 11.4 16.4 23.7 21.9 37.2 6.2 15.2 9.5 30.9 7.6 47.4-1.6 13.9-6.1 26.9-12.5 39.3-12.8 24.9-30.9 45.4-52.8 62.7-44.1 34.9-94.3 52.6-150.6 52.3-18-.1-35.8-2.7-53.2-7.3-4.1-1.1-8.3-2.3-12.7-1.2-8.7 2.1-14.7 9.3-14.8 18-.1 9 5.4 16.2 14.7 18.7 22.7 6.1 45.9 9.2 69.9 9.5 16.5-.3 33.3-1.5 49.7-4.9zm31.3-201c-9.2-1.6-18.2 3.9-21.1 12.9-.5 1.7-.8 3.4-1.3 5.1-4.6 18.5-15.5 32.1-32.5 40.6-5.1 2.6-10.6 3.8-16.1 5.3-10.3 2.8-16.2 12.1-14 21.7 2.3 10.5 11.7 17 22.4 14.7 36.6-8.1 61.5-29.7 74.3-65.1 1.9-5.3 3.4-10.8 3.7-15.5 0-10.3-6.5-18.2-15.4-19.7z"/></svg>