<svg xmlns="http://www.w3.org/2000/svg" viewBox="0 0 500 500" style="enable-background:new 0 0 500 500" xml:space="preserve"><path d="M253.2 403.3c-24.1-.1-45.7-.1-67.3-1.5-26.7-1.8-53.1-4.7-78.7-13-15.7-5.1-30.3-12.2-42.7-23.2-16.4-14.5-25.5-32.8-28.4-54.2-3.4-25.1 1.9-48.7 13.8-70.9 4-7.3 8.3-14.5 12.5-21.7 8.5-14.9 12.9-31 14.2-48.1.8-10.3.3-20.7 1.7-31 3.3-24.6 12.5-46.9 26.9-66.9C133.2 34.2 171 11 217.9 3c43.3-7.4 84.7-1.2 122.9 21 38.1 22.1 64.5 54.1 76.9 96.8 3.7 12.6 5.1 25.6 5.1 38.7 0 13 1.6 25.7 5.4 38.1 2.8 9.1 7.1 17.5 11.8 25.6 4.5 7.7 9.1 15.2 13.1 23.2 8.4 16.9 12.6 35.1 11.7 53.7-1.6 33.2-16.2 59.4-45.4 76.5-16.2 9.5-33.8 14.8-52 18.5-19.3 3.9-38.7 5.7-58.3 6.8-19.5 1.3-39 1.1-55.9 1.4zm1.1-34.9c13.8-.1 32.9-.1 51.9-1.3 20.7-1.3 41.3-3.2 61.5-7.8 13.5-3.1 26.6-7.3 38.3-15 16.8-11.1 23.9-27.4 24.1-46.8.2-14.6-3.7-28.3-11.1-41-3-5.2-6.1-10.3-9.1-15.5-4.6-7.8-8.9-15.8-12.1-24.3-6.7-17.3-9.5-35.3-9.8-53.8-.1-7.6-.3-15.3-1.6-22.8-4.2-23-14.8-42.8-30.8-59.6-33.6-35.4-75.3-49.6-123.3-44.4-35.6 3.9-65.8 19.5-89.9 46.3-15.9 17.7-26.5 38.1-29.6 61.9-1.1 8.6-1 17.4-1.4 26.1-1.1 25.4-8.3 48.8-21.5 70.5-4.2 6.8-8.4 13.6-11.8 20.8-7.3 15.5-10.1 31.7-7.1 48.7 2.6 15.1 10.4 26.9 23.5 35 7.6 4.7 15.8 8.1 24.3 10.6 22.8 6.8 46.2 9.1 69.8 10.7 20.1 1.5 40.3 1.7 65.7 1.7zm64.2 99c6.4-7.1 5.7-17.8-1-24.1-6.7-6.4-17.2-6.3-24.2.1-1.5 1.4-2.8 2.8-4.2 4.2-23.7 23.2-57.3 23.1-80.8-.4-1.4-1.4-2.8-2.9-4.2-4.2-7-6.2-17.2-6.1-23.7.2-6.8 6.5-7.5 16.9-1.1 24.1 18.5 20.6 41.4 31.9 69.1 32.7 28.3-.5 51.4-11.9 70.1-32.6z"/></svg>