<svg xmlns="http://www.w3.org/2000/svg" viewBox="0 0 500 500" style="enable-background:new 0 0 500 500" xml:space="preserve"><path d="M191.6 500c-22.8-.3-45-.9-67.1-3.4-22.5-2.5-44.6-6.4-65.7-14.9-9.2-3.8-18-8.4-25.8-14.7-23.4-18.6-30.8-42.9-24.5-71.6 4.2-19.1 14.8-34.6 28.5-48.2 18.5-18.4 40.7-30.8 65-39.9 30.8-11.5 62.8-16.6 95.6-15.7 38.3 1 75 9.2 109.1 27.2 19.8 10.5 37.4 23.8 51.1 41.8 9.2 12.2 15.7 25.7 17.8 41.1 3.6 26-4.4 47.5-24.7 64.2-12.8 10.5-27.7 16.8-43.4 21.4-16.9 5-34.3 7.7-51.8 9.6-21.5 2.2-43.1 2.8-64.1 3.1zm-.4-36.7c21.6-.3 43.2-.9 64.7-3.4 15.2-1.7 30.3-4.3 44.9-9 9.1-3 17.9-6.7 25.7-12.5 11.6-8.6 15.3-20 12.4-33.9-2.3-11-8.2-20.1-15.7-28.2-12.3-13.3-27.3-22.7-43.7-30-32.3-14.2-66.1-19.7-101.2-17.6-26.8 1.6-52.5 7.4-76.9 18.7-15.6 7.2-29.8 16.4-41.5 29.2-7.5 8.1-13.4 17.2-15.7 28.2-2.9 13.8.7 25.4 12.4 33.9 5 3.6 10.4 6.4 16 8.8 14.4 6 29.6 9 44.9 11.2 24.3 3.5 49 4.2 73.7 4.6zm0-463.3c71.9.5 125.3 58.2 125.5 125 .1 69.3-55.8 125.7-125.4 125.6-72.5-.1-124.9-59-125.1-124.5C65.9 59.6 118.9.7 191.2 0zM103 125.4c0 48.9 39.2 88.6 88 88.4 51.9-.1 88.9-41.8 89-88.3.1-49-39.5-88.8-88.4-88.8-49 0-88.6 39.7-88.6 88.7zm343.1-11.9c-4.9-34.8-23-60.5-54.1-76.9-8.1-4.3-16.8-7.5-26-8.5-9.8-1.1-17.9 5.1-19.7 14.4-1.9 9.6 3.5 18.4 12.9 21.3 1.6.5 3.3.8 5 1.3 23.1 7 38.4 22 43.9 45.5 5.6 23.6-1.1 44.2-19 60.8-7.1 6.6-15.6 10.9-24.9 13.6-6.7 1.9-11.4 6.2-13.2 13.1-3.6 14.1 8.8 26 23 22.2 42.8-11.5 72.7-50.8 72.6-96.6 0-2.6.1-6.4-.5-10.2zM477 312.2c-24.2-27.2-55.4-38.9-91.1-40.3-2.1-.1-4.2.4-6.2 1-7.7 2.2-13 9.5-12.9 17.6.1 8.4 5.7 15.7 13.7 17.6 2.2.5 4.6.5 6.8.6 19.2 1 36.8 6.5 52.2 18.2 6.3 4.8 11.7 10.4 15.2 17.6 3.3 6.7 2.6 12.9-1.6 18.9-3.9 5.5-9.3 9-15.6 11.1-1.8.6-3.7 1-5.5 1.7-8.7 3.6-13.2 13.2-10.5 22.2 2.8 9.2 12.2 14.6 21.6 12.5 7.7-1.7 15-4.7 21.6-9 17.7-11.7 28-27.7 28.9-47.3-.3-17.6-6.5-30.9-16.6-42.4z"/></svg>