<svg xmlns="http://www.w3.org/2000/svg" viewBox="0 0 500 500" style="enable-background:new 0 0 500 500" xml:space="preserve"><path d="M248.4 499.9c-18.6.3-39.1-.5-59.5-2.7-29-3.1-57.4-8.8-84.3-20.6-37.2-16.4-64.1-43.1-80.7-80.2-11-24.6-16.7-50.7-20-77.3C-.2 286.6-.5 254 .7 221.4s4.9-65 15-96.3c9.4-29.1 24-55 47.3-75.4 18.2-16 39.3-26.7 62.2-34.1 22.2-7.1 45-10.9 68.2-13.2 29-2.8 58.1-3 87.2-1.8 31.8 1.3 63.4 5 94 14.8 29.3 9.4 55.4 24.1 75.9 47.6 15.8 18 26.5 39 33.9 61.6 7.2 22.2 10.9 45 13.2 68.2 2.8 28.1 2.9 56.2 2 84.3-1.1 33-4.8 65.8-15 97.5-9.4 29.3-24.2 55.4-47.6 75.9-19 16.6-41.1 27.5-65 34.9-21.1 6.5-42.9 10-64.9 12.1-19 1.9-37.9 2.5-58.7 2.4zm1.8-462.2c-13.7.2-27.3.2-41 1.2-24.2 1.7-48.1 4.8-71.4 12.1-22.4 7-42.7 17.7-58.8 35.5-13.6 15-22.3 32.8-28.3 52-8.6 27.6-11.6 56.1-12.7 84.8-.8 22.6-.8 45.3.8 67.9 1.4 19.7 3.8 39.2 8.5 58.4 5 20.2 12.5 39.4 25.2 56.2 16.7 22.3 39.7 35.3 65.8 43.4 27.6 8.6 56.1 11.7 84.8 12.7 27.7 1 55.4.9 83.1-2 19.3-2 38.3-5.1 56.7-11.1 18.6-5.9 35.8-14.4 50.4-27.6 17.9-16.2 28.7-36.7 35.8-59.4 8.5-27 11.6-54.9 12.7-83.1 1.2-31.6 1-63.2-3.1-94.7-2.5-19.2-6.3-38.1-13.1-56.3-12.6-33.8-35.2-57.9-68.8-71.6-21.7-8.8-44.4-13.2-67.5-15.9-19.6-2-39.3-2.7-59.1-2.5zm-72.9 202.2c-1.5-1.5-3-3.1-4.7-4.4-10.4-8.2-25.4-3.6-29.4 9-2.5 8 .1 14.5 5.8 20.1 18.9 18.9 37.8 37.8 56.8 56.7 1 1 1.9 1.9 3 2.8 7 5.4 16.4 5.4 23.3-.1 1.5-1.2 2.9-2.6 4.3-4 37.8-37.8 75.6-75.6 113.4-113.5 1.7-1.7 3.3-3.3 4.7-5.2 4.5-6.3 4.5-14.4.2-20.9-4.2-6.4-11.8-9.4-19.3-7.9-4.9.9-8.4 3.9-11.7 7.2-32.8 32.9-65.7 65.7-98.5 98.6-1.5 1.5-2.7 3.3-5.2 4.3-14.3-14.2-28.5-28.5-42.7-42.7z"/></svg>