<svg xmlns="http://www.w3.org/2000/svg" viewBox="0 0 500 500" style="enable-background:new 0 0 500 500" xml:space="preserve"><path d="M254.4.1c15.8-.2 35.8.6 55.9 2.7 28.4 3 56.3 8.4 82.8 19.6 42.7 18.1 71.5 49.2 87.7 92.3 8.2 21.7 12.7 44.2 15.5 67.1 4.1 32.9 4.3 65.9 3.1 98.8-1.2 31.8-5 63.4-14.9 93.9-9.4 29.3-24.2 55.4-47.6 75.9-19 16.6-41.1 27.5-65 34.9-21.1 6.5-42.9 10-64.9 12.1-28.6 2.8-57.3 3-86 1.9-32.4-1.2-64.6-5-95.7-15-32.7-10.5-61-27.6-82.2-55.4-15.9-20.8-25.6-44.5-32-69.7-5.5-22-8.3-44.4-9.8-67.1-1.5-23.2-1.6-46.5-.8-69.7 1.2-32.8 4.8-65.4 14.9-96.9 9.3-29.2 23.9-55.1 47-75.6 18.3-16.2 39.5-27 62.6-34.4 22.2-7.1 45-10.9 68.2-13.2C212.2.6 231.1.1 254.4.1zm208 249.8c-.2-14.1-.2-28.1-1.3-42.1-1.8-23.6-4.8-47-11.9-69.6-6.9-22.1-17.3-42.2-34.5-58.2-15.2-14.1-33.2-23-52.8-29.1C334.2 42.1 305.7 39 277 38c-22.6-.8-45.3-.8-67.9.8-24.2 1.7-48.1 4.8-71.3 12.1-22.6 7.1-42.9 17.8-59 35.6-13.5 14.9-22.1 32.5-28 51.5-8.6 27.6-11.7 56.1-12.8 84.8-.8 22.6-.8 45.3.8 67.9 1.4 19.9 3.8 39.6 8.6 59 5 20.2 12.6 39.4 25.2 56.2 16.8 22.3 39.7 35.2 65.8 43.3 26.9 8.4 54.6 11.5 82.5 12.6 32 1.2 64 1.1 95.9-3.2 18.8-2.5 37.3-6.3 55.1-12.9 33.8-12.6 58-35.1 71.7-68.7 7.7-18.8 12.1-38.3 14.8-58.2 3.1-22.9 4.2-45.9 4-68.9zM128 307.4c-20.1 10.4-33.6 27.1-43.4 46.9-5 10.2 1.1 21.9 12 25.2 8.3 2.4 16.8-1 21.5-9 4.6-8 9.6-15.6 16.3-22.1 11.4-11 19.7-11.9 32.8-3.2 6 4 11.8 8.4 17.6 12.6 6.1 4.3 12.4 8.1 19.3 10.9 20.6 8.4 39.6 6.3 56.9-8.3 5.5-4.7 10.8-9.6 15.5-15.1 9.6-11.1 19-22.3 28.6-33.4 6.5-7.5 13.3-14.8 21.5-20.7 6.1-4.4 12.2-4.6 18.6-1 5.7 3.2 10.5 7.4 14.8 12.2 8 8.9 14.4 18.9 19.9 29.5 1.2 2.2 2.2 4.6 3.6 6.7 4.5 7.1 13 10.2 20.9 7.8 8.2-2.5 13.3-9.4 13.4-17.9 0-3.6-1-6.9-2.6-10.1-5.6-11.2-11.9-21.9-19.6-31.9-9-11.7-19.1-22.2-32.3-29.2-19.4-10.3-38.5-10-57 2.4-7.7 5.1-14.4 11.4-20.7 18-10.6 11-20 23-29.9 34.6-5.8 6.8-11.9 13.4-18.7 19.4-5.3 4.6-11 5.3-17.4 2.8-5.3-2.1-10.1-5.1-14.7-8.4-7.5-5.3-14.6-11.1-22.7-15.6-9.5-5.4-19.6-8.5-31-8.8-7.8.2-15.8 1.9-23.2 5.7zm36.3-72.2c-32-.1-57.5-25.9-57.4-58 .1-31.9 26.2-57.5 58.1-57.3 31.6.2 57.1 26 57.1 57.7-.1 32.1-25.8 57.7-57.8 57.6zm.5-77.8c-11.1-.1-20.2 8.7-20.3 19.8-.2 11.3 8.3 20.2 19.5 20.5 11.5.3 20.6-8.5 20.6-20 0-11.2-8.7-20.2-19.8-20.3z"/></svg>