<svg xmlns="http://www.w3.org/2000/svg" viewBox="0 0 500 500" style="enable-background:new 0 0 500 500" xml:space="preserve"><path d="M252.9 48.6c60.9.8 117.9 21.2 167.9 61 23.1 18.4 42.6 40.1 57.5 65.8 9.9 17.2 17.2 35.4 20.3 55.2 3.6 23.1.7 45.5-7.6 67.3-10.9 28.8-28.3 53.4-50.2 74.8-41.1 40.2-90.2 65.2-146.8 75-46 7.9-91 3.4-134.9-12.5-40.9-14.8-76.5-37.8-106.4-69.4-20-21.2-35.7-45-45.3-72.6-11.7-33.9-9.3-67.2 5.2-99.8 12.7-28.7 31.6-52.8 54.8-73.7 34.9-31.5 75.3-52.6 120.9-63.7 20.2-4.9 40.8-7.2 64.6-7.4zm-5.3 365.3c16.6-.2 30.8-1.4 44.8-4.2 43.7-8.5 82.2-27.7 115.3-57.6 21-19 37.9-40.9 48.1-67.6 6.4-16.8 8.6-34 5-51.7-2.7-13.7-8-26.5-15-38.5-16.3-28.1-38.8-50.3-65.7-68.1-49.2-32.4-103-45.8-161.6-37.8-43.3 5.9-82 23.2-116 50.6C81 156.4 63 176.7 50.3 201.5c-6.9 13.5-11.7 27.6-12.7 42.9-1.3 19.5 4.1 37.5 12.9 54.6 12.7 24.7 30.7 45.1 52.3 62.3 43.1 34.1 92.2 51.7 144.8 52.6zm1.9-66.1c-54.9-.8-98-44.8-97.2-99.2s45-97.2 99.4-96.3c54 .9 96.9 45.4 96.1 99.1-.7 51.3-42.2 96.3-98.3 96.4zM189.8 250c0 33.4 27.2 60.5 60.4 60.3s59.9-26.9 60-60.1c.2-33.5-26.6-60.4-60.1-60.4-33.6 0-60.3 26.7-60.3 60.2z"/></svg>