<svg xmlns="http://www.w3.org/2000/svg" viewBox="0 0 500 500" style="enable-background:new 0 0 500 500" xml:space="preserve"><path d="M24.4 335.4c1-28.4 12.8-50.8 36.6-66.6 1.3-.8 2.6-1.6 3.8-2.5 11.4-8.3 11.4-24.4-.2-32.5-6.3-4.3-12.7-8.4-17.9-14.1C26.2 197.2 19.3 171 28 141.9c8.6-28.9 28.4-47.1 57.8-54.4 19-4.7 37-1.7 54.2 7.3 5 2.6 9.9 4.8 15.8 3.4 9-2.1 15.1-8.9 15.5-18.1.5-10.3 1.6-20.6 5.7-30.1C189.5 21 211.2 3.9 242.8.5c40.2-4.3 76.9 23.6 84.5 64 .9 4.8 1.6 9.9 1.4 14.8-.4 13 14.8 24.9 29.1 16.8 9-5.1 18.7-8.5 29-9.8 31.8-4.3 63.9 11.9 79.1 40.1 17.3 32.1 11.2 70.8-15.1 96-4.1 4-8.7 7.5-13.7 10.3-13.7 7.5-13.6 27 .1 35.2 21.2 12.6 33.8 31.6 37.5 56 6.4 42.1-21 79.7-59.8 88.8-19.4 4.5-37.8 1.8-55.3-7.5-4.8-2.5-9.6-4.5-15.2-3.2-9.1 2.1-15.2 9-15.5 18.6-.5 12.9-2.8 25.4-9 36.8-13.1 24.3-33.3 38.8-60.8 42.2-44.3 5.5-85-28-87.6-74.6-.1-1.5-.2-3-.2-4.6.1-13-15-23.9-28.4-16.4-7.7 4.3-15.8 7.5-24.5 9.3-42.7 8.8-85.4-20.5-92.7-63.4-.8-5-1.1-9.7-1.3-14.5zm414.8-172.5c-.9-16.7-9-30-25.6-37.4-12.7-5.7-25.2-4.6-37.3 2.1-10.8 6-22.2 8.5-34.6 7.1-26.9-3-48.4-26-49.3-53.1-.1-3.6-.4-7.2-1-10.8-4.3-24.1-29.1-39.6-52.6-32.7-17.9 5.2-29.8 20.5-30.8 39.7-.2 4.6-.4 9.1-1.3 13.6-5.9 27-32.1 46.1-59.6 43.5-8.1-.8-15.6-3.2-22.7-7.1-6.2-3.5-12.9-5.6-20.1-5.8-17.8-.5-34 10.5-40.4 27.3-6.3 16.6-1.5 35.9 11.8 47.4 2.8 2.4 5.9 4.2 8.9 6.2 33.5 22.1 33.8 71.3.6 93.8-1.9 1.3-3.9 2.4-5.8 3.7-15.6 10.8-22.2 30.7-16.2 48.5 6 18 22.7 29.7 41.5 29 7.8-.3 14.7-3.2 21.6-6.8 27.7-14.5 61.6-3.5 75.7 24.4 4.1 8.1 5.8 16.8 6.1 25.9 1 28.9 27.1 48.1 54.2 40.2 17.1-5 29-20.7 29.9-39.8.2-4.4.3-8.7 1.3-13.1 5.7-27 32-46.4 59.4-43.8 8.5.8 16.3 3.4 23.8 7.5 5.9 3.3 12.3 5.4 19 5.4 17.6 0 31-7.6 38.8-23.4 7.9-15.9 5.9-31.4-4.7-45.7-3.8-5.2-9.2-8.5-14.4-12-23-15.1-31.6-45.1-20.2-70.1 5.1-11.1 13.1-19.4 23.4-25.9 13.6-8.2 20.2-20.6 20.6-37.8zM170.9 250c0-43.9 35.3-79.2 79.2-79.2s79.1 35.2 79.2 79.1c0 43.9-35.2 79.2-79.1 79.2-44 .1-79.3-35.2-79.3-79.1zm78.9-42.6c-23.6.1-42.3 18.9-42.3 42.5 0 23.9 18.9 42.7 42.8 42.6 23.6-.1 42.3-18.9 42.3-42.5.1-23.8-18.9-42.7-42.8-42.6z"/></svg>