<svg xmlns="http://www.w3.org/2000/svg" viewBox="0 0 500 500" style="enable-background:new 0 0 500 500" xml:space="preserve"><path d="M244.9 487.8c-21 .4-47.3-.3-73.6-1.4-28.2-1.2-56.3-3.1-84-8.9-17.6-3.7-34.7-8.9-50-18.7-22.1-14-33.8-34.4-36.7-60.2-2.1-18.9 1.5-37.2 6.5-55.3 7-25.4 17.1-49.6 29-73.1 29.1-57.9 61-114.2 97.2-167.9 12.4-18.3 25.9-35.8 41.4-51.7 10.3-10.5 21.5-20 34.4-27.2 27-15 54-15.2 81.1-.4 13 7.1 24.2 16.5 34.5 27 15.7 15.9 29.2 33.7 41.9 52 24.9 36 46.3 74 67.7 112 15.5 27.5 30.3 55.4 42.6 84.6 8.8 20.9 16.5 42.2 20.6 64.6 2.8 15.5 3.7 31 .1 46.5-6.3 27.1-23.3 45.1-48.2 56.4-15.6 7-32 11-48.8 13.7-19.8 3.2-39.7 4.8-59.7 5.9-30.2 1.7-60.5 2.1-96 2.1zm-.9-36.6c35.7 0 65.8-.4 95.9-2.1 21.3-1.2 42.5-2.9 63.5-7.1 13.3-2.6 26.3-6.2 38.1-13.1 12.6-7.3 19.4-18.3 21.3-32.7 1.6-12-.4-23.5-3.1-35.1-5.1-21.8-13.5-42.4-22.8-62.6-14.6-32.1-32.2-62.6-49.6-93.2-18.7-32.8-37.9-65.2-60.2-95.6C316.4 95.2 305 81.1 291.5 69c-7.2-6.5-15-12.4-24-16.3-9.6-4.2-19.4-5.3-29.5-2-4.9 1.6-9.5 3.8-13.9 6.5-10.2 6.2-18.7 14.3-26.8 23-16.5 17.6-30.3 37.2-43.5 57.3-23.2 35.3-43.7 72.3-64.3 109.2C74.9 273 61.4 299.9 50.7 328c-6.7 17.7-12.6 35.8-13.9 55-1.7 25.6 8.6 40.3 27.6 49 8.7 4 17.8 6.8 27 8.9 26.7 6 53.9 7.7 81.1 8.9 25.7 1.2 51.4 1.7 71.5 1.4zm-12.3-210.5c0 6.5-.2 12.9.1 19.4.3 9.4 7.3 16.7 16.3 17.5 9.6.8 17.7-5 19.8-14.3.4-1.8.4-3.8.4-5.7v-91.3c0-1.1 0-2.3-.1-3.4-1.1-11.1-11.7-18.6-22.5-16-8.5 2.1-13.9 9-14 18.5-.1 15.4 0 30.8 0 46.2v29.1zm18.6 86c-10.2-.1-18.6 8.1-18.6 18.3 0 10.3 8.3 18.3 18.6 18.2 10.1-.1 18-8.2 18-18.3 0-10-8-18.1-18-18.2z"/></svg>