<svg xmlns="http://www.w3.org/2000/svg" viewBox="0 0 500 500" style="enable-background:new 0 0 500 500" xml:space="preserve"><path d="M247.7 500c-23.6.2-49.7-1-75.6-4.9-23.2-3.4-45.9-9-67.5-18.5-37.2-16.4-64.1-43-80.7-80.1-11-24.6-16.7-50.7-20-77.3-4.1-32.5-4.4-65.1-3.2-97.7s4.9-65 15-96.3c9.4-29.1 24-55 47.3-75.4 18.2-16 39.3-26.7 62.2-34.1 22.2-7.1 45.1-10.9 68.2-13.2 29-2.8 58.1-3 87.2-1.8 31.8 1.3 63.4 5 94 14.8 29.3 9.4 55.4 24.1 76 47.5 15.9 18 26.5 39 33.9 61.6 7.2 22.2 11 45 13.2 68.2 2.8 28.3 2.9 56.6 2 84.9-1 32.9-4.9 65.4-15 96.8-9.4 29.3-24.1 55.4-47.6 75.9-19 16.7-41.1 27.5-65 34.9-21.1 6.5-42.9 10-64.9 12.1-19 2-37.9 2.6-59.5 2.6zm214.6-227.9v-8.5c.1-18.6.2-37.1-1.2-55.6-1.7-23.6-4.8-47-11.9-69.6-6.8-21.7-17-41.5-33.7-57.4-15.3-14.6-33.7-23.7-53.7-30-27.6-8.6-56.1-11.7-84.8-12.7-22.6-.8-45.3-.8-67.9.8-24.2 1.7-48.1 4.8-71.4 12.1-22.1 6.9-42.2 17.5-58.1 34.7-13.9 15.1-22.8 33-28.8 52.4-8.7 27.8-11.8 56.5-12.8 85.4-.9 27.5-.8 55.1 2 82.5 2 19.5 5.2 38.7 11.2 57.3 2.2 7 4.6 13.9 8.5 20.8 3.5-5.5 6.6-10.7 9.9-15.7 10.4-15.7 21.8-30.5 36.7-42.3 19.8-15.6 41.9-21 66.5-14.5 9.6 2.5 19 6 28.3 9.3 14.2 5.1 28.7 8.5 43.9 9.5 10.9.8 19.9-2.4 27.3-10.5 4.2-4.6 8-9.6 11.3-14.9 4.8-7.8 9.5-15.7 14.2-23.6 5.3-8.9 10.8-17.6 17.5-25.6 11.2-13.2 24.6-23 42.1-25.5 13.3-1.9 26.5-.5 39.5 2.8 22.5 5.7 41.5 17.6 58.6 33 2 1.5 3.9 3.2 6.8 5.8zM84.2 418.5c2.2 3 4.5 4.7 6.8 6.5 16.4 13.2 35.3 21.2 55.5 26.7 23.9 6.5 48.3 9.2 72.9 10.2 35.5 1.4 71.1 1.2 106.3-4.4 18.7-3 37.1-7.4 54.5-15.1 23.4-10.3 42.1-25.9 55-48.1 12.2-21.1 18.3-44.2 22.2-68 .5-2.8-.3-4.8-2.3-6.8-3-3-5.8-6.4-8.7-9.5-9.8-10.6-20.1-20.8-32.3-28.7-13.2-8.6-27.5-13.5-43.4-14.1-9.3-.4-16.8 2.7-23.1 9.2-4.6 4.8-8.6 10.1-12.1 15.8-4.8 7.8-9.4 15.7-14.2 23.6-6.3 10.4-12.8 20.6-21.1 29.5-15.5 16.6-34.4 24.2-57.2 22.7-19.1-1.2-37.4-5.5-55.3-11.9-7.7-2.8-15.4-5.5-23.3-7.8-13.1-3.8-24.6-.9-35.1 7.5-7.8 6.3-14.3 13.8-20.3 21.8-9.5 12.6-17.6 26.4-24.8 40.9zm149.5-248.9c0 34.7-28.2 62.9-63 62.8-34.4-.1-62.5-28.3-62.5-62.8 0-34.8 28.2-62.8 63-62.7 34.6.2 62.4 28.1 62.5 62.7zm-62.5-25.1c-14.1-.1-25.4 10.9-25.5 24.9s11.1 25.4 25 25.5c14 .1 25.4-11.1 25.5-25 .1-14.1-11-25.3-25-25.4z"/></svg>