<svg xmlns="http://www.w3.org/2000/svg" viewBox="0 0 500 500" style="enable-background:new 0 0 500 500" xml:space="preserve"><path d="M65.7 274.3c.3-26.4.5-52.7.8-79.1 0-2.7.1-5.5.5-8.2 1.5-9.7 9.5-16.1 19.4-15.7 9.4.4 16.7 7.7 17.4 17.3.1 1 .1 2 .1 2.9-.4 27.7-.3 55.5-1.1 83.2-.7 27-1.1 53.9.8 80.8 1.1 15.4 3.2 30.6 7.7 45.5 7.4 24.7 23.5 40.7 47.5 49.4 13.8 5 28.1 7.8 42.7 9.4 32.9 3.6 65.8 3.4 98.6-.2 12.8-1.4 25.3-4.1 37.6-8.1 28.1-9.2 45.4-28.2 52.5-56.9 4.3-17.6 6.1-35.4 6.7-53.4.9-32 .4-64.1-.3-96.1-.4-18.2-.5-36.3-.5-54.5 0-11.2 7.9-19.3 18.4-19.3 10.9-.1 18.9 7.9 18.9 19.4 0 47.3 2.1 94.5 1.2 141.8-.4 23.5-2.3 46.7-7.8 69.7-10.9 45.7-39.3 74.1-84 87-17.5 5.1-35.4 7.7-53.5 9.2-26.5 2.1-53 2.1-79.5 0-24.9-2-49.5-5.9-72.6-16.2-30.4-13.5-50.7-36.1-61-67.8-5.1-15.7-7.7-31.8-9.3-48.2-2.6-30.6-1.8-61.2-1.2-91.9zM352.8 79.5c-6.9-36.3-26.5-62-62.4-73.5-21.6-6.9-43.7-7.6-65.9-3.6-39.8 7.2-65.3 30-75.6 69.5-1.9 7.2-2.5 14.5-3.6 21.7-2.4 1-4.5.6-6.7.6h-86c-1.9 0-3.9-.1-5.8.1-9.2 1.1-16.1 8-16.9 16.7-.8 9 4.6 17.2 13.1 19.9 3 1 6.2.8 9.3.8h119.3c54.6 0 109.2.1 163.8.1 37.6 0 75.3-.1 112.9-.2 1.6 0 3.1 0 4.7-.1 9.1-.6 16.2-7.4 17.1-16.3 1-9.7-4.6-17.9-13.8-20.4-2.7-.7-5.4-.7-8.1-.7h-86.6c-2.1 0-4.3.4-6.9-.6-.6-4.7-1-9.4-1.9-14zM183.7 94c-1.1-20.8 12.4-42.6 32-50.2 22-8.6 44.6-8.5 66.9-.8 18.6 6.4 28.5 20.9 32.7 39.5.8 3.6 1.8 7.2 1.1 11.4-44.5.1-88.6.1-132.7.1z"/></svg>