<svg xmlns="http://www.w3.org/2000/svg" viewBox="0 0 500 500" style="enable-background:new 0 0 500 500" xml:space="preserve"><path d="M248 499.9c-18.3.2-38.6-.5-58.8-2.7-29-3.1-57.4-8.7-84.4-20.5-37.6-16.5-64.7-43.5-81.3-81-10.8-24.5-16.4-50.3-19.7-76.8-4.1-32.7-4.4-65.5-3.2-98.3 1.2-32.2 4.9-64.2 14.9-95.1 9.4-29.1 23.9-55 47.1-75.5 18.3-16.2 39.5-27 62.6-34.4 22.2-7.1 45.1-10.9 68.2-13.1 29-2.8 58.1-3 87.2-1.8 31.8 1.3 63.4 5 93.9 14.8 29.1 9.4 55 24 75.5 47.2 16.1 18.3 26.9 39.6 34.3 62.7 7 22 10.8 44.7 13 67.7 2.8 28.6 3 57.3 1.9 86-1.2 32.4-4.9 64.6-15 95.7-9.5 29.3-24.2 55.3-47.7 75.9-19 16.6-41.1 27.4-65.1 34.8-21.2 6.5-42.9 10-64.9 12.1-18.6 1.7-37.5 2.4-58.5 2.3zm214.4-250.1c-.1-14.1-.2-28.1-1.3-42.1-1.8-23.6-4.9-47-12-69.6-6.7-21.5-16.8-41.1-33.3-57-15.4-14.8-34-24-54.1-30.3-27.2-8.5-55.3-11.6-83.6-12.7-22.8-.9-45.7-.9-68.5.7-24.2 1.7-48.1 4.8-71.4 12-22.1 7-42.2 17.4-58.2 34.6-14.1 15.2-23.1 33.2-29.2 52.8-8.7 27.8-11.7 56.5-12.8 85.4-.8 23-.8 46.1.9 69.1 1.7 23.6 4.9 47 12 69.6 5.9 18.8 14.4 36.2 27.7 51 16.2 18 36.7 28.8 59.4 35.9 27 8.5 54.9 11.6 83.1 12.7 32 1.2 64 1 95.9-3.2 18.8-2.5 37.3-6.3 55.1-13 33.6-12.5 57.7-34.9 71.4-68.2 7.8-18.9 12.2-38.6 15-58.8 3-22.8 4.1-45.8 3.9-68.9zm-181.3-4.6c13.3-13.2 26.5-26.5 39.8-39.8 1.5-1.5 3.1-3 4.3-4.8 4.2-6.2 4.8-12.7 1.3-19.4-3.5-6.6-9.1-9.9-16.6-10-5.7 0-10.1 2.3-14 6.2l-41.4 41.4c-1.3 1.3-2.4 3.1-4.4 3.8-1.9-.7-3-2.4-4.4-3.8-13.1-13.1-26.2-26.2-39.4-39.3-1.4-1.4-2.7-2.8-4.2-4.1-10.5-8.7-26.6-3.8-30 9.4-1.9 7.4.3 13.8 5.7 19.2 14 13.9 27.9 27.9 41.8 41.8 1.2 1.2 2.8 2.1 3.3 4-.8 1.9-2.5 3-3.8 4.4-13.2 13.3-26.5 26.5-39.7 39.8-1.4 1.4-2.8 2.7-4 4.3-5 6.3-5.2 15.2-.7 21.9 4.7 6.9 13.2 9.8 21.1 7.3 3.7-1.1 6.5-3.4 9.2-6.1 13.7-13.7 27.3-27.4 41-41 1.3-1.3 2.3-3.2 5.6-3.5.8 1 1.8 2.7 3.2 4.1 13.1 13.2 26.2 26.3 39.3 39.4 1.4 1.4 2.7 2.9 4.2 4 6.3 4.8 13.2 5.7 20.3 2 6.8-3.6 10.2-9.4 10.1-17.2-.1-5.6-2.7-10-6.6-13.9-13.7-13.6-27.3-27.3-41-41-1.4-1.4-2.7-2.8-4.8-5 1.9-1.5 3.4-2.7 4.8-4.1z"/></svg>