<svg xmlns="http://www.w3.org/2000/svg" viewBox="0 0 500 500" style="enable-background:new 0 0 500 500" xml:space="preserve"><path d="M231.4 463.3C103.5 463.1.2 359.3.4 231.2.7 103.2 104.4-.3 232.2 0c127.6.3 230.7 103.9 230.6 231.8 0 128.1-103.6 231.7-231.4 231.5zm.2-37.3c107.2 0 193.9-86.7 194-194.1.1-107.4-86.5-194.4-193.6-194.6-107.4-.1-194.4 86.9-194.3 194.5.1 107.3 86.8 194.2 193.9 194.2zm268 21c-.8 30.2-24.5 53.4-54.3 53-30.1-.4-53.4-24.5-52.9-54.4.4-30.8 25.1-53.5 54.3-53 30.6.4 52.9 25.1 52.9 54.4zm-53.9-17.2c-8.9.1-16.3 7.6-16.3 16.5 0 9.1 7.9 16.8 16.9 16.5 8.9-.3 16.2-7.9 16-16.8s-7.8-16.3-16.6-16.2z"/></svg>