<svg xmlns="http://www.w3.org/2000/svg" viewBox="0 0 500 500" style="enable-background:new 0 0 500 500" xml:space="preserve"><path d="M.1 250.2C-.1 112.2 111.6.3 249.8 0c138.1-.3 250.5 112 250.3 250.1S388.1 500 250.1 500 .3 388.3.1 250.2zm249.5 212.6c116.7.6 212.7-94.5 213.4-211.9C463.7 134 368.6 38 250.7 37.3c-117.2-.7-213 94.7-213.3 212.5-.4 117.1 94.4 212.3 212.2 213zM196 158.9c-1.8 7.6 1 13.7 6.4 19 22.8 22.6 45.5 45.2 68.2 67.8 4 4 5.4 3.3.2 8.5l-66.9 66.6c-1.7 1.7-3.4 3.3-4.8 5.2-7.7 10.5-2.7 25.1 9.8 28.8 7.8 2.3 14.1-.4 19.6-5.9 27.8-27.8 55.7-55.4 83.5-83.1 10.5-10.5 10.6-20.5.2-31-10.9-10.9-21.9-21.8-32.8-32.7-16.9-16.8-33.8-33.6-50.7-50.5-4.2-4.2-8.9-6.9-15-6.9-8.6 0-15.8 5.8-17.7 14.2z"/></svg>