<svg xmlns="http://www.w3.org/2000/svg" viewBox="0 0 500 500" style="enable-background:new 0 0 500 500" xml:space="preserve"><path d="M249.9 0C387.9-.2 500 111.9 500 250S387.8 500.1 249.9 500C111.9 499.9.1 387.4 0 250.2-.1 112.3 111.7.2 249.9 0zm212.6 250.3c.5-116.7-94.9-212.6-212-212.8-116.9-.2-212.7 95.1-213 212-.3 117.2 94.8 212.9 212.4 213 117.2.1 212.3-94.8 212.6-212.2zM230 245.5c21.9-21.8 43.7-43.6 65.6-65.3 1.8-1.8 3.7-3.6 5.2-5.6 4.8-6.2 5.4-14.3 1.4-20.9-4.1-6.8-10.4-9.8-18.3-9.2-5.1.4-9 3.3-12.6 6.8-21.2 21.1-42.4 42.2-63.6 63.2-7.2 7.2-14.4 14.3-21.6 21.5-5.4 5.4-7.2 11.9-5.2 19.3 1.1 3.9 3.6 6.8 6.4 9.6 24.4 24.2 48.8 48.5 73.2 72.7 4.3 4.3 8.5 8.7 12.9 12.7 7.5 6.8 18.4 6.6 25.5-.2 7.1-6.8 7.7-17.7 1.4-25.5-1.3-1.7-2.9-3.1-4.4-4.7-22-21.9-44-43.8-66-65.8-1.3-1.3-3.1-2.4-3.7-4.4.8-1.8 2.5-2.8 3.8-4.2z"/></svg>