<svg xmlns="http://www.w3.org/2000/svg" viewBox="0 0 500 500" style="enable-background:new 0 0 500 500" xml:space="preserve"><path d="M250.4 499.9C112.4 500.1.5 388.4.2 250.2-.1 112.1 112.2-.3 250.3-.1s249.9 112 249.9 250-111.7 249.8-249.8 250zM463 250.4c.6-116.7-94.5-212.7-211.9-213.4-116.9-.7-212.9 94.4-213.6 212.3-.7 117.2 94.7 213 212.5 213.3 117.1.4 212.3-94.4 213-212.2zM159.1 304c7.6 1.8 13.7-1 19-6.4 22.6-22.8 45.2-45.5 67.8-68.2 4-4 3.3-5.4 8.5-.2l66.6 66.9c1.7 1.7 3.3 3.4 5.2 4.8 10.5 7.7 25.1 2.7 28.8-9.8 2.3-7.8-.4-14.1-5.9-19.6-27.8-27.8-55.4-55.7-83.1-83.5-10.5-10.5-20.5-10.6-31-.2-10.9 10.9-21.8 21.9-32.7 32.8-16.8 16.9-33.6 33.8-50.5 50.7-4.2 4.2-6.9 8.9-6.9 15 0 8.6 5.8 15.8 14.2 17.7z"/></svg>