<svg xmlns="http://www.w3.org/2000/svg" viewBox="0 0 500 500" style="enable-background:new 0 0 500 500" xml:space="preserve"><path d="M331.3 457.2c-3.2.2-6.5.2-9.7.7-12.4 2.1-20.8-2.5-27.5-13.4-30.7-50.6-61.9-100.8-93-151.2-25.1-40.7-50.1-81.4-75.2-122.1-1.4-2.2-2.8-4.4-4.1-6.7-4.3-7.6-4-14.9 1.3-21.9 22.3-28.9 46.2-56.4 74-80.2 12.9-11 27.1-18.9 44.4-20.4 22.4-2 42.5 3.3 59.7 18.3 31.1 27 57.8 58 82.5 90.9 32.8 43.5 63 88.6 88.3 136.8 10.7 20.5 19.5 41.7 25.6 64.1 8.5 31.7-5.7 65.7-35.4 82.3-7.8 4.4-16.1 6.7-24.7 8.8-34.9 8.7-70.4 12.4-106.2 14zm-286-19.4c28.5 10.9 58.5 14.5 88.7 17.1 16.5 1.4 33.1 2.1 49.6 3 5.7.3 10.9-.7 15.2-4.9 7.8-7.5 8.4-15.3 1.6-26.4-33-53.4-66-106.8-98.9-160.2-4.8-7.7-9.3-15.7-14.3-23.3-7.8-11.9-25-12.8-32.1-1.3-18.5 29.9-35.4 60.7-47.3 94-4 11.2-8.2 22.7-7.8 35.7 0 28 18.6 56.1 45.3 66.3z"/></svg>