<svg xmlns="http://www.w3.org/2000/svg" viewBox="0 0 500 500" style="enable-background:new 0 0 500 500" xml:space="preserve"><path d="M457.2 168.7c.2 3.2.2 6.5.7 9.7 2.1 12.4-2.5 20.8-13.4 27.5-50.6 30.7-100.8 61.9-151.2 93-40.7 25.1-81.4 50.1-122.1 75.2-2.2 1.4-4.4 2.8-6.7 4.1-7.6 4.3-14.9 4-21.9-1.3-28.9-22.3-56.4-46.2-80.2-74-11-12.9-18.9-27.1-20.4-44.4-2-22.4 3.3-42.5 18.3-59.7 27-31.1 58-57.8 90.9-82.5 43.5-32.8 88.6-63 136.8-88.3 20.5-10.7 41.7-19.5 64.1-25.6 31.7-8.5 65.7 5.7 82.3 35.4 4.4 7.8 6.7 16.1 8.8 24.7 8.7 34.9 12.4 70.4 14 106.2zm-19.4 286c10.9-28.5 14.5-58.5 17.1-88.7 1.4-16.5 2.1-33.1 3-49.6.3-5.7-.7-10.9-4.9-15.2-7.5-7.8-15.3-8.4-26.4-1.6-53.4 33-106.8 66-160.2 98.9-7.7 4.8-15.7 9.3-23.3 14.3-11.9 7.8-12.8 25-1.3 32.1 29.9 18.5 60.7 35.4 94 47.3 11.2 4 22.7 8.2 35.7 7.8 28 0 56.1-18.6 66.3-45.3z"/></svg>