<svg xmlns="http://www.w3.org/2000/svg" viewBox="0 0 500 500" style="enable-background:new 0 0 500 500" xml:space="preserve"><path d="M176.4 86.6c2.4 1.2 4.8.6 7.1.6h269c2.9 0 5.8-.2 8.8.5 9 2.2 15 10.4 14.2 19.5-.8 9-7.8 15.8-17 16.4-1.9.1-3.9.1-5.9.1H47.4c-2.2 0-4.3 0-6.5-.1-8.8-.8-15.6-7.7-16.4-16.4-.7-8.7 4.8-16.8 13.1-19.2 2.7-.8 5.4-.8 8.1-.8 25.1 0 50.1-.1 75.2 0 8.7 0 15.5-3.3 20.3-10.6 1.6-2.5 2.6-5.2 3.2-8.1 1.9-9.6 3.5-19.2 5.8-28.7 5-20.3 17.3-33.6 38-38.8 3.5-.9 7-1 10.5-1 34.3 0 68.5.1 102.8-.1 22.5-.2 41.9 15.5 47.7 36.4 2.8 10.1-2.2 20-11.7 23.1-9 2.9-18.3-1.9-22.1-11.4-3.7-9.2-6.8-11.4-16.7-11.4-32.5 0-65 .1-97.5-.1-8.2-.1-14.9 3.2-16.8 14.2-2.3 12-4 24.2-8 35.9zm176.3 412c15.2-1.3 29-6.1 40.9-15.9 14.6-12 22.5-27.9 25.5-46.1 3.6-22 4.9-44.2 7-66.4 1.5-15.4 2.7-30.7 4.1-46.1 1.4-16.1 2.8-32.3 4.2-48.4 1.4-16.9 2.9-33.9 4.2-50.8 1-12.5 1.9-24.9 2.9-37.4.7-8.2-5.4-18.3-16.7-19.2-9.4-.7-17.9 6.9-18.8 17.1-1 10.3-1.7 20.6-2.5 30.9l-5.4 64.2c-1.7 20.2-3.4 40.5-5.2 60.7-1.8 19.8-3.6 39.7-5.6 59.5-1 10.1-1.5 20.3-3.5 30.2-2.4 12.5-8.2 22.7-20.6 28-4.9 2.1-10 3.2-15.4 3.4-16.6.4-33.3.8-49.9 1-14.3.2-28.6 0-42.9.2-9 .1-16.4 6.4-17.9 14.8-1.6 8.6 3.1 17.1 11.2 20.5 3 1.3 6.1 1.2 9.2 1.2h40.3c22.5-.5 38.7 0 54.9-1.4zm-201.4.3c10.5 1 19-6.5 19.8-17.1.7-9.9-6.9-18.2-17.3-19.3-1.7-.2-3.5-.1-5.3-.3-14.7-1.7-25.1-9-30.3-23.1-1-2.8-1.8-5.5-2.3-8.4-2.1-12.7-3-25.6-4.3-38.4-3-30.9-5.7-61.8-8.3-92.7-2.6-30.7-5-61.5-7.5-92.2-.6-7.8-1.2-15.6-2.1-23.3-1-8.4-7.9-14.7-16.6-15.6-7.4-.8-14.8 4.3-17.7 11.9-1.1 3-1.2 6.1-1 9.2.9 11.9 1.8 23.7 2.8 35.6 1.8 21.8 3.6 43.6 5.5 65.3 1.3 15.4 2.6 30.7 3.9 46.1 1.8 20 3.5 40 5.5 60 1.4 13.6 2.1 27.3 4.6 40.7 6.7 36.3 32.8 59.6 68.7 61.5.8 0 1.4 0 1.9.1z"/></svg>