<svg xmlns="http://www.w3.org/2000/svg" viewBox="0 0 500 500" style="enable-background:new 0 0 500 500" xml:space="preserve"><path d="M250 .3c38.4 0 76.7-.3 115.1.1 25.7.3 49.9 7.1 71.7 20.9 30.7 19.4 49 47.6 57.9 82.4 3.9 15.3 5.2 30.8 5.2 46.5 0 66.6-.1 133.1 0 199.7 0 25.5-3.8 50.3-14.8 73.6-18.5 39-49.2 62.9-91.1 72.6-11.9 2.8-23.9 3.8-36.1 3.8h-81c-4.6 0-8.9-.7-12.8-3.5-6.3-4.6-9.2-12.4-7.4-19.7 2-7.9 8.4-13.4 16.7-14.3 1.9-.2 3.9-.1 5.9-.1 28.6-.1 57.2.2 85.7-.3 20-.4 38.6-6.1 55-17.7 20.2-14.1 32-33.9 38.2-57.4 3.1-12 4.1-24.3 4.1-36.6V150.1c0-19.4-2.5-38.2-10.8-56-14.7-31.6-39.8-49.3-73.9-54.9-7.4-1.2-14.8-1.4-22.2-1.4-70.5 0-140.9 0-211.4-.1-15.8 0-31.2 1.9-45.9 8-28.9 12-46.7 33.9-55.4 63.6-3.1 10.3-4.7 21-4.9 31.8-.1 3.1-.1 6.3-.1 9.4 0 66.4.1 132.7 0 199.1 0 17.6 1.9 34.8 8.5 51.2 14.2 35 40.3 54.7 77.4 60.4 10.9 1.7 21.9 1.1 32.8 1.2 2.9 0 5.9.1 8.7 1 8.2 2.5 14 10.9 13.2 19.3-.8 9.1-7.7 16.7-16.5 17.1-22.5.8-45 .5-66.8-6.4-41.8-13.3-70-40.9-85.1-81.8C3.5 394.4.3 376.5.3 358.2c-.3-44.5-.2-88.8-.2-133 0-28-.2-56 .2-84C.6 114 7 88.1 21.1 64.6c19.5-32.7 48.4-52.5 85.4-60.8C119 1 131.6.1 144.4.1c35.2.1 70.5 0 105.7 0-.1.1-.1.1-.1.2zM110 305.4c-14.4 14.3-28.2 29.4-42.2 44.1-.5.6-1 1.2-1.4 1.9-7.5 11.6-.6 26.7 13.1 28.7 7 1 12.6-1.6 17.3-6.6 11.4-12.1 22.9-24.1 34.4-36.2 1.5-1.6 2.9-3.2 4.6-4.5 6.6-5.4 15-5.1 21.3.6 1.4 1.3 2.8 2.7 4.2 4.1 6.3 6.4 12.4 13 18.9 19.3 14.6 14 32 19.1 51.8 14.8 11.2-2.4 20.7-8.2 28.2-16.9 9.1-10.7 18-21.7 27-32.5 10.1-12.2 20-24.6 30.3-36.7 9.7-11.4 24.4-11.8 35.1-1.3 2.2 2.2 4.4 4.5 6.6 6.7 15 15.5 29.9 31 45 46.3 7.9 8 19.2 8.1 26.8.8 7.5-7.3 7.5-18.7.1-26.9-1.3-1.5-2.7-2.8-4.1-4.2-16-16.4-31.7-33-47.9-49.2-14.8-14.8-32.9-20.7-53.6-17.4-16.2 2.5-28.9 11.1-39.2 23.8-9.7 12-19.6 23.9-29.4 35.9-8 9.7-15.9 19.3-23.9 29-4.2 5.1-9.5 7.3-16.1 6.6-4.6-.4-8-2.9-11.1-6.1-7.1-7.3-14.2-14.6-21.4-21.8-10.8-10.7-24.3-15.2-38.3-16-14.4 0-26.6 4.3-36.1 13.7zM227 179c.1-34.6-27.8-62.6-62.5-62.9-34.2-.3-62.9 28.1-63 62.5s28 62.7 62.6 62.8 62.8-27.9 62.9-62.4zm-87.9-.3c0-13.6 11.5-25 25.1-25.1 14 0 25.4 11.5 25.2 25.5-.2 13.8-11.5 24.7-25.4 24.6-13.8 0-24.9-11.3-24.9-25z"/></svg>