<svg xmlns="http://www.w3.org/2000/svg" viewBox="0 0 500 500" style="enable-background:new 0 0 500 500" xml:space="preserve"><path d="M249.9 38.1c-31.1 0-62.1-.1-93.2 0-15.5 0-30.8 1.6-45.7 6.1-39.1 11.9-61.5 38.9-69.6 78.3-2.4 11.5-3.3 23.2-3.3 34.9 0 61.7-.1 123.5 0 185.2 0 16.3 1.7 32.3 6.6 48 10.9 34.2 33.8 55.8 68.1 65.6 14 4 28.4 5.6 42.8 5.6 62.9.1 125.8.1 188.7 0 15.1 0 30-1.7 44.5-6.1 36.9-11.1 59.3-36 68.5-73.1 3.2-12.8 4.1-25.8 4.5-38.9.3-8.8 5.3-15.5 13.3-18.1 11.5-3.7 24.3 4.4 24.5 16.4.7 42.8-9.7 82.1-39.9 114.1-19.1 20.2-42.9 32.2-69.6 38.7-13.1 3.2-26.5 5-40 5-67 0-134 .2-201-.1-25.3-.1-49.6-5.4-72.4-16.8-35.6-17.8-58.1-46.4-69.4-84.2-4.8-16-7.2-32.4-7.3-49.1-.1-52.9-.1-105.9-.1-158.8 0-16-.3-32.1.4-48.1 1-23.2 6.2-45.6 16.8-66.5 17.9-35.3 46.5-57.6 84-68.9 16-4.8 32.4-7.3 49.1-7.3 66.6-.1 133.2-.1 199.9 0 20.7 0 40.8 3.7 60.1 11.2 42.2 16.4 69.2 46.9 82.2 89.9 4.6 15.2 7.1 30.8 7.3 46.7.2 23.8.2 47.7.2 71.5 0 9.5-4.7 16.1-12.8 18.9-10.8 3.6-23.5-4.3-24.9-15.6-.3-2.1-.2-4.3-.2-6.4 0-19.5.1-39.1 0-58.6-.1-15.9-1.5-31.6-6.2-46.9-11.1-36.7-35.7-59.1-72.6-68.3-13-3.2-26.2-4.4-39.5-4.4-31.3 0-62.5.1-93.8.1zm-24.5 187.3c-19.9 0-39.8-.1-59.8 0-9.7.1-17.6 7-18.8 16-1.2 9.7 4.3 18.4 13.6 21.3 3.2 1 6.5 1.2 9.8 1.2h162.9c1.6 0 3.1.1 4.7-.1 9.5-.9 16.9-8.4 17.6-17.5.7-9.6-4.8-17.4-14.3-20.2-2.7-.8-5.4-.8-8.1-.8h-55.1c-2.3 0-4.7.5-6.8-.6-.7-2.2-.4-4.4-.4-6.5v-48.6c0-2.5-.1-5.1-.6-7.6-1.9-9.3-9.5-15.6-19.2-15.7-8.8-.1-16.5 5.9-18.8 14.7-.7 2.5-.8 5-.8 7.5v49.8c0 2.1.3 4.3-.6 7.1h-5.3zm44.7 83.8c-.4-10.1-8.5-17.9-18.5-18.1-10.2-.2-18.9 7.6-19.3 17.9-.3 8.8-.3 17.6 0 26.3.4 10.5 8.8 18.2 19.1 18.1 10.4-.1 18.3-7.8 18.7-18.5.2-4.1 0-8.2 0-12.3 0-4.4.2-8.9 0-13.4z"/></svg>