<svg xmlns="http://www.w3.org/2000/svg" viewBox="0 0 500 500" style="enable-background:new 0 0 500 500" xml:space="preserve"><path d="M249.5 401.9c-32.4.1-64.8-1.4-97.1-4.4-15.4-1.4-30.7-3.2-45.2-9.1-29.9-12.2-52.9-31.6-63.7-63-11.1-32.2-6.7-62.7 11.8-91.1 1.2-1.8 2.6-3.4 4-5.1 6.5-7.9 11.8-16.5 15.6-26 3.4-8.4 5.5-17 5.1-26.2-.4-10.3.1-20.7-.2-31.1-.2-5.5 2.3-9.4 6.4-12.4 6.3-4.5 13.2-5 19.9-1.6 6.6 3.3 10.2 8.9 10.3 16.5.1 14.1.1 28.1 0 42.2-.1 6.9-2.5 13.4-4.7 19.8-4.9 14.1-11.7 27.3-21.4 38.7-11.8 13.9-15.2 30-14.1 47.5.5 8.3 2.6 16.1 6.1 23.7 6.8 14.9 19 23.8 33.3 30.7 9.8 4.7 20.3 6.7 31.1 7.8 45.9 4.8 92 6.1 138.1 4.7 26-.8 51.9-2.4 77.6-5.9 18.4-2.5 34.2-10.7 47-24.1 7.7-8.1 12-18.2 13.9-29.2 2.1-11.9 1.8-23.7-1.9-35.3-2.3-7.1-5.6-13.6-10.6-19.3-13.3-15.3-22.3-32.8-27.3-52.5-.6-2.5-.9-5-.9-7.5 0-11.5-.1-23.1 0-34.6.4-25.6-8.3-47.9-24.4-67.3-21.5-26-49.6-41.3-82.5-47.6-32-6.1-62.5-.9-91.4 13.9-1.9 1-3.8 2-5.8 2.9-9.5 4.1-19.9.5-24.6-8.3-4.8-9-2-19.6 7-24.9 11.3-6.7 23.3-11.7 35.9-15.6 21.7-6.8 43.9-9.5 66.5-7.5 36.9 3.2 70.1 16.3 99.4 38.9 23.2 17.9 40.7 40.3 51.1 67.9 5.4 14.4 8.7 29.1 8.2 44.6-.2 7.8.4 15.7-.1 23.4-.8 12.1 2.7 23.1 7.9 33.8 3.2 6.5 7.3 12.4 11.7 18.1 14.1 18 21.3 38.2 20.8 61.3-.3 14.2-2.3 28-7.4 41.2-10.5 26.9-30.5 44.3-56 56.1-13.4 6.2-27.7 9.1-42.4 10.6-28.6 2.9-57.2 4.7-85.9 5.4-7 .1-14-.1-21.1-.1zm39.5 88.5c12-6.1 22.2-14.5 30.3-25.3 5.2-6.9 5.2-15.6.4-22.4-4.7-6.7-13.3-9.6-21.3-7.2-4.7 1.4-8.1 4.6-11.1 8.2-19.5 23.4-56.2 24-76.5-.3-1.1-1.3-2.3-2.7-3.6-3.9-4.3-3.9-9.5-5.4-15.2-4.7-13.7 1.6-22.4 18-12.4 30.7 17.7 22.4 40.9 33.7 64.2 34.6 19.3 0 32.6-3.4 45.2-9.7z"/></svg>