<svg xmlns="http://www.w3.org/2000/svg" viewBox="0 0 500 500" style="enable-background:new 0 0 500 500" xml:space="preserve"><path d="M298.8 477.2H168.1c-2.5 0-5.1-.1-7.6-.6-9.6-1.8-15.7-10.1-15-20 .7-9.2 7.9-16.2 17.3-16.8 2.1-.1 4.3-.1 6.4-.1h257.4c7.2 0 14-1.1 20.2-4.9 15.4-9.6 20.3-28.7 11.3-44.4C399 286.8 339.8 183.3 280.7 79.7c-5.3-9.3-12.3-16-23-18.5-13.5-3.2-27.1 2.1-34.9 13.5-1.5 2.3-2.9 4.6-4.3 7C159.8 184.6 101.2 287.6 42 390.2c-9.1 15.7-3.2 44.4 23.5 48.9 1.7.3 3.5.5 5.2.8 10.1 1.6 17.3 10.8 16.1 20.4-1.3 10.3-10.2 17.5-20.6 16.7-34-2.7-60.2-26.7-65.4-60.7-2.2-14.8 0-29.1 7.6-42.4C68 269.7 127.6 165.4 187 61.2c10.5-18.4 25.3-31 46-36.2 30.4-7.7 62.1 5.4 78.1 32.6 12.4 21 24.3 42.3 36.4 63.5C395.4 205 443.2 289 491.4 372.7c13.6 23.6 11.9 59.2-10.6 82.4-14.3 14.8-31.9 22-52.4 22H298.8v.1zm-29.9-243.1c0-12.1.1-24.2 0-36.3-.1-7.8-5.1-14.3-12.2-17-7.2-2.7-15.1-.7-20.3 5-3.4 3.8-4.9 8.3-4.9 13.4v46.3c0 8-.2 16 .1 24 .3 10.4 8.9 18.3 19.1 18.2 10-.2 18.1-8.1 18.2-18.4.2-11.7 0-23.5 0-35.2zm-37.5 120.7c.1 10.1 8.6 18.5 18.7 18.5 10.5 0 18.9-8.5 18.8-19-.1-10.3-8.4-18.5-18.7-18.5-10.3-.1-18.9 8.6-18.8 19z"/></svg>