<svg xmlns="http://www.w3.org/2000/svg" viewBox="0 0 500 500" style="enable-background:new 0 0 500 500" xml:space="preserve"><path d="M251.3 450.1c-49.1-.5-92.2-14.8-131.3-41.4-35.3-24-63.2-55-86.3-90.6-12.2-18.9-22.6-38.7-31.7-59.3-2.6-5.9-2.7-11.6-.1-17.5 17.9-40.7 40.9-78.1 71.7-110.4 32.7-34.3 70.9-59.8 116.9-72.7 23.3-6.5 47-9.2 71.3-7.8C319 53.7 367.5 77 409.6 114.9c37.3 33.6 64.4 74.6 85.2 119.9 6.9 15.1 6.8 15.3.1 30.3-5 11.2-10.6 22.2-16.7 32.9-3.4 6-8.5 9.5-15.6 9.7-13.9.4-23-13.4-17-26 3.2-6.7 7-13.1 10.3-19.7 6.1-12 6-12 0-24-16.4-32.9-36.7-63.1-63.1-88.9-25.9-25.3-55.6-44.8-90.7-55-45.9-13.4-90.4-9.3-133.4 11.1-36.4 17.3-65.3 43.7-89.7 75.5-15.4 20.1-28 41.8-38.9 64.6-1.3 2.7-2.1 5.1-.6 8.2 17.1 36.4 38.8 69.5 67.6 97.7 22.5 21.9 47.9 39.3 77.5 50.4 23.3 8.7 47.4 12.8 72.3 11.8 41-1.7 77.1-16.3 109.8-40.5 7.9-5.8 15.3-12.1 22.4-18.8 4.7-4.4 10.2-6.5 16.6-5.2 7 1.4 12 5.6 14.1 12.6 2.2 7 .3 13.2-4.8 18.2-8.5 8.4-17.7 16-27.3 23-27.9 20.5-58.4 35.2-92.3 42.5-15 3.2-30.3 4.6-44.1 4.9zm94.9-214.6c-6.5-45-46.3-83.5-98.7-82.5-23.7.5-44.7 8.7-62.4 24.5-21.3 19.1-32.3 43.1-32.7 71.8-.1 6.8 2.7 12.1 8.4 15.8 12.3 7.8 27.9-1.1 28.2-16.2.6-37.3 33.7-63 67.7-59.2 41 4.6 65.8 48.2 48.3 85.5-14.7 31.2-52.1 44.1-82.9 28.5-2.1-1.1-4.1-2.4-6.2-3.2-12.1-4.9-25.1 4-24.9 17 .1 7.3 3.6 12.5 9.9 16.1 19.7 11.2 40.8 15.3 63.2 12.1 47.5-6.7 83.1-47.8 83.1-96.3 0-4.2-.3-9-1-13.9z"/></svg>