<svg xmlns="http://www.w3.org/2000/svg" viewBox="0 0 500 500" style="enable-background:new 0 0 500 500" xml:space="preserve"><path d="M249.7 38.2c-31.3 0-62.5-.1-93.8 0-13.9.1-27.6 1.5-41.1 5.2-38.7 10.4-62.3 35.3-72 73.9-3.3 13.3-4.4 26.9-4.5 40.6-.1 18.4-.1 36.7 0 55.1 0 5.3-1.1 10-4.7 14-5.4 6-13.2 8-20.8 5.3-7.2-2.6-12.4-9-12.4-16.8-.1-25.2-1-50.4.4-75.6 1.5-24.8 7.8-48.5 20.3-70.2 18.4-31.9 46-52 81-62.3 15.8-4.7 32-7.2 48.5-7.2C217.2.1 283.8.1 350.4.3c24.9.1 48.9 5.1 71.4 16 38 18.5 61.3 49.1 72.2 89.6 3.8 14.2 6 28.7 6 43.4.1 67.2.2 134.4 0 201.6-.1 23.1-4.6 45.4-14.1 66.5-16.7 37.3-45 61.6-83.6 74.1-16.8 5.4-34.1 8.3-51.8 8.3-67 .1-134 .2-201-.1-25.5-.1-50-5.5-72.9-17-35.2-17.7-57.5-46.2-68.8-83.4-5.5-18.2-7.9-37-7.5-56.1.2-9.2 7.2-17.1 16-18.2 9.6-1.3 18.2 4 21.1 12.9.9 2.8.8 5.8.9 8.7.5 14.3 1.9 28.4 6 42.2 11.2 37.1 36.3 59.6 73.7 68.7 12.6 3.1 25.4 4.2 38.3 4.3 62.5.1 125 .1 187.5 0 15.1 0 30-1.5 44.6-5.9 37.2-11 59.9-35.8 69.1-73.2 3.2-13 4.4-26.2 4.4-39.5.1-62.1.1-124.2 0-186.3 0-17-1.9-33.9-7.5-50.1-11.9-34.7-36.4-55.4-71.6-64.1-13.1-3.3-26.6-4.4-40.1-4.4-30.9-.2-62-.1-93-.1zM138.3 279.9c16.4-.1 29.8-13.5 29.8-29.9s-13.3-29.8-29.7-29.9c-16.7-.1-30.1 13.4-30.1 30.1.1 16.5 13.6 29.8 30 29.7zm223.9-59.8c-16.4 0-29.9 13.3-29.9 29.7-.1 16.6 13.6 30.3 30.2 30 16.5-.2 29.6-13.5 29.6-30-.1-16.4-13.5-29.6-29.9-29.7zm-142 29.2c-.5 16.4 13 30.4 29.7 30.6 16.4.2 29.9-13 30.2-29.5.3-16.3-12.9-29.9-29.4-30.2s-29.9 12.5-30.5 29.1z"/></svg>