<svg xmlns="http://www.w3.org/2000/svg" viewBox="0 0 500 500" style="enable-background:new 0 0 500 500" xml:space="preserve"><path d="M389.9 420.2c-7 4.7-13.5 9.4-20.2 13.6-33.1 20.5-69 32.5-107.8 35.7-57.5 4.7-110.6-8.6-158.3-41.1-53.1-36.2-87.4-85.9-99-149.2-15.2-81.8 8.2-152.6 67-211.2 32.6-32.5 72.2-53.3 117.3-62.4C269.7-10.6 342 8.1 404 62.7c38.9 34.3 62.9 77.7 73 128.5 7.5 37.8 5.1 75.3-6 112.3-3.6 11.8-16.5 18.5-27.9 13.5-9-3.9-13.8-12.9-11.5-22.4 2.2-9.1 4.9-18.1 6.4-27.3 6.4-39.5 1.6-77.7-16.1-113.5-30.6-62-80.8-98.7-148.7-110.1C197.6 31 123 62 78.2 123.6c-18.8 25.9-30.3 54.8-34.7 86.5-10.6 75.4 25.5 152.4 95.2 193.1 36.7 21.4 76.4 30.4 118.6 27 44.3-3.5 83.5-20 117.1-49.4 4.1-3.6 8.1-7.4 13.9-8.2 7.6-1.1 13.8 1 18.8 7 1.5 1.8 3 3.6 4.7 5.2 25.8 25.3 51.7 50.5 77.6 75.8 2.5 2.5 4.8 5.1 6.8 8 5.6 7.9 5.1 17.9-1.1 24.8-6.3 7-16.9 8.6-25.2 3.9-2.4-1.4-4.4-3.3-6.3-5.2-23.3-22.8-46.6-45.6-70-68.4-1.2-1.1-2.3-2.1-3.7-3.5z"/></svg>