<svg xmlns="http://www.w3.org/2000/svg" viewBox="0 0 500 500" style="enable-background:new 0 0 500 500" xml:space="preserve"><path d="M274.2 384.1c0-13.3-.2-26.6 0-40 .7-34.7 24.6-64.4 58.2-72.6 5.1-1.2 10.5-2 15.8-2 25.6-.2 51.2-.2 76.8-.1 36.5.3 69.2 29.6 73.6 65.9.7 5.7 1 11.4 1.1 17.1.1 23.2.6 46.3-.1 69.5-1 32.5-16.1 56.5-45.5 70.9-9.5 4.7-19.7 6.8-30.3 6.9-24.8.1-49.6.3-74.4 0-40.5-.5-74.1-33.9-75.2-74.4-.3-13.7 0-27.5 0-41.2zm183.8.6c0-12.3-.3-24.6.1-36.9.6-20.6-16.1-36.9-36.3-36.4-23.5.6-47.1.1-70.7.2-3 0-6.2.2-9.1.9-15.6 3.8-26.5 17.3-26.6 33.4-.2 25-.1 50-.1 75 .1 22 14.7 36.6 36.6 36.7 23.1.1 46.3-.1 69.4.1 22.9.2 37.4-17.4 36.8-36.6-.4-12.2-.1-24.3-.1-36.4zM225.7 115.8c0 14.8.7 29.5-.1 44.3-2.3 39.2-35.5 70.2-74.8 70.5-24.6.2-49.2.1-73.8 0-38.8-.2-71-28.8-75.8-67.1-.6-4.7-.9-9.4-1-14.1-.1-23.8-.5-47.6.1-71.3.7-28.9 13.3-51.5 38-67C49.8 3.9 62.6.4 76.2.3c24.8-.2 49.6-.3 74.4 0 39.4.4 72.7 32 75 71.3.8 14.7.1 29.4.1 44.2zm-41.1.3c0-12.5.1-25 0-37.5-.2-20.9-15.1-35.9-36.2-36.1-23.8-.2-47.5-.2-71.3 0-21 .1-36 15.2-36.1 36.1-.1 24.8-.1 49.6 0 74.4.1 21.3 15.1 36.3 36.4 36.4 23.6.1 47.1.1 70.7 0 21.3-.1 36.3-15.1 36.4-36.4.2-12.3.1-24.6.1-36.9zm.9 303.6c-.3 22.4-15.1 36.7-37.4 36.8-23.6 0-47.2.1-70.7 0-13-.1-23.2-5.8-30.3-16.8-4.4-6.8-5.7-14.4-5.7-22.3v-64.6c0-3.5.2-7 .6-10.4 2.2-17.8 16.3-30.5 34.2-30.7 10.7-.1 21.3.1 32-.1 12.2-.2 21.6-9.8 21.3-21.6-.3-11.8-9.4-20.5-21.6-20.5H75.3c-18.2.1-34.2 6.3-47.9 18C9.4 302.9.6 322.9.2 346.4c-.4 23.4-.1 46.7-.1 70.1 0 4.9.3 9.8 1 14.7 4.9 38.8 37.8 68 77.1 68.3 23.6.2 47.2.2 70.7 0 16.6-.1 32-4.7 45.3-14.9 20.3-15.5 31.2-36.1 31.4-61.8.3-35.5.1-70.9.1-106.4 0-2.7.2-5.3.5-8 1.5-11.6-6.3-22.1-18-23.9-10.5-1.7-21 6.3-22.8 17.7-.6 3.8 0 7.7 0 11.6v51.7c.1 18.1.3 36.1.1 54.2zm88.7-229.9v1.2c.4 10.1 7.6 18.5 16.9 19.8 10.4 1.4 19.9-4.4 22.9-14.3 1-3.3 1.2-6.8 1.3-10.3.1-35.7 0-71.3.1-107 0-21.9 14.8-36.6 36.7-36.7 23.2-.1 46.3-.1 69.5 0 21.2.1 36.1 14.7 36.4 35.9.3 25-.2 50 .2 75 .2 17.5-13.2 36.3-37 36-8.2-.1-16.4-.1-24.6 0-2.4 0-4.9.3-7.2 1.1-9.2 3.2-15.1 13-13.7 22.3 1.6 10.7 9.7 18.3 20.5 18.6 9.8.3 19.7.3 29.5 0 10.5-.3 20.8-2.6 30.2-7.5 28.8-14.8 42.8-39 43.7-70.9.5-18 .2-36.1.1-54.1-.1-9.4 0-18.9-.8-28.2-3.7-39.6-37.3-70.2-77-70.5-23.8-.1-47.6-.1-71.3.1-5.3 0-10.7.6-15.8 1.7-38.9 8.4-60.8 43-60.4 75.3.2 17.8 0 35.7 0 53.5-.2 19.7-.2 39.4-.2 59z"/></svg>