<svg xmlns="http://www.w3.org/2000/svg" viewBox="0 0 500 500" style="enable-background:new 0 0 500 500" xml:space="preserve"><path d="M199.6 314.6c34.3.1 68.5 1.7 102.1 8.7 24.2 5.1 47.4 12.6 67.3 27.9 36.5 28.1 33.6 81.2 7.3 106.2-14.8 14-32.1 22.3-51.1 28-23.6 7.1-47.8 10.8-72.3 11.9-23.9 1-47.8 1.5-71.7 2.1-3.3.1-6.6-.3-9.9-.8-10.5-1.8-16.6-9.3-16-19.5.5-8.8 8.3-16.3 17.8-17 2.5-.2 5.1 0 7.6-.1 22.7-.4 45.5 0 68.2-1.5 27.4-1.7 54.6-5.1 80.2-16.1 9-3.9 17.3-9 23.3-17 12-16.1 7.9-37-9.5-49.4-14.1-10.1-30.4-14.7-47-18.1-23.1-4.8-46.5-6.9-70.1-7.2-21.4-.2-42.8-.8-64.1.2-31.5 1.5-63.1 3.8-92.5 16.4-8.2 3.5-16.2 8.7-22.7 14.9-14 13.5-12.3 37.2 3.2 48.9 7.2 5.4 15.7 9.1 23.6 13.5 2.9 1.6 6.2 2.5 8.9 4.2 7.3 4.6 10.1 14.3 6.9 22.2-3.3 8.1-12.1 13.3-20.3 10.9-22.7-6.6-43-17.4-56.7-37.5-21.5-31.5-14-74 16.8-97.2 19.1-14.4 41.3-21.9 64.4-25.8 20.8-3.5 42-5.3 63.1-7.2 14.4-1.2 28.8-1.1 43.2-1.6zM198.5.6c-74.9 0-133.9 58.9-133.7 134 .2 76.4 60.5 133.7 133.6 133.5 77.3-.2 132.9-61.8 133.6-133.6C331.4 60.1 272.6.6 198.5.6zm.3 230.5c-53.7.1-96.9-43-96.9-96.6 0-53.6 42.7-96.2 96.1-96.7 52.8-.6 97.9 44.8 96.4 96.2 1.9 50-40.6 97-95.6 97.1zm192-30.3c-4.1 0-8.2-.1-12.3 0-10 .3-17.8 7.5-18.7 17.3-.9 9.6 6.1 19.3 15.9 20.4 9.2 1 18.6.9 27.9.9 4.8 0 6.5 1.8 6.5 6.5 0 8.5 0 17.1.8 25.6 1.1 11.3 9.2 17.7 20.3 17.1 10.1-.5 17.4-8.7 17.6-19.6.1-7.8.2-15.5 0-23.3-.2-4.9 1.8-6.5 6.5-6.3 6.8.3 13.6.2 20.4 0 3.1-.1 6.2-.3 9.2-1.1 9.6-2.3 16-11.2 14.9-20.2-1.2-10.2-8.9-17.2-19.3-17.4-8.6-.1-17.1-.2-25.7 0-4.5.1-6.3-1.4-6.1-6 .2-8.7.2-17.5 0-26.2-.2-7.8-4.5-13.2-11.4-16.2-7.2-3.2-14-1.8-20.1 3.3-6 5-6.8 12-7.1 19-.3 6.8-.2 13.6 0 20.4.1 4.3-1.7 6-5.9 5.8-4.4-.2-8.9-.1-13.4 0z"/></svg>