<svg xmlns="http://www.w3.org/2000/svg" viewBox="0 0 500 500" style="enable-background:new 0 0 500 500" xml:space="preserve"><path d="M231.3 500c-35.3-1.2-63.3-29.2-64.6-64.7-.6-15.6-10.4-26.3-25.6-27.5-5.6-.5-10.8 1-15.8 3.6-11.2 5.7-23.1 8.4-35.6 7.6-23.2-1.5-41.3-12.1-53.9-31.6-5.5-8.5-10.6-17.3-15.4-26.3-16.5-30.5-7.2-66.9 21.9-86 5.3-3.5 10-7.3 13.4-12.9 7.5-12.4 4.4-27.4-7.6-35.7-3.5-2.5-7.2-4.7-10.6-7.4-23.9-19.3-31.1-53.3-17-79.9 4.2-7.9 12.1-11.7 21.1-10.1 8.1 1.4 14.2 7.8 15.4 16.3.6 4.5-.8 8.4-2.8 12.3-2.8 5.3-4.2 10.9-3.1 16.9 1.5 8.2 5.8 14.4 12.8 18.7 6.9 4.2 13 9.3 18 15.7 23.2 29.4 16.8 72.1-14 93.5-2.2 1.6-4.6 2.9-6.8 4.5-11 7.9-14.6 22-8.1 33.8 5.2 9.6 10.8 19 16.7 28.2 7.6 11.9 22.2 15.6 35.1 9.2 6.7-3.3 13.3-6.4 20.7-7.8 38.1-7.5 74.2 16.8 80.5 54.3.5 3.1.5 6.2.7 9.3 1.1 15.8 9.6 24.9 25.3 27.3 1.5.2 3.1.6 4.6.9 11.1 2 17.7 10.3 16.7 21-.9 9.7-9.3 16.8-19.9 16.8h-2.1zm18-461.2c6.2 0 12.5-.3 18.7.1 13 .8 23.3 11.4 24.3 24.3.2 2.9.4 5.8.7 8.8 4.2 37.6 39.8 62.7 75.6 57.8 8.8-1.2 17-4.2 24.9-8 13-6.3 26.8-2.7 35.3 9 1 1.4 2 2.9 3.2 4.2 6.8 7.4 18.8 8.4 26.6 2.3 7.9-6.2 9.7-17.2 4.2-25.8C449 90 423.4 77.6 395.5 81.7c-8.4 1.2-16.1 4.5-23.7 8.1-14.2 6.6-30.1.7-36.6-13.2-1.7-3.6-2.2-7.4-2.3-11.4C331.5 24.9 298.6-.1 266.4 0h-31.6c-2.7 0-5.5.1-8.2.5-33.5 5.2-57 32.6-57.6 64.7-.3 17.6-16.5 29.6-33.7 25.8-3.9-.9-7.3-2.8-10.9-4.3-7.3-3.1-14.2-2.1-20.4 2.8-5.9 4.7-7.8 11.1-6.6 18.3 1.3 7.2 6.1 11.6 12.3 14.8 13.1 6.7 26.8 8.9 41.5 6.7 26.6-3.9 48.7-24.4 54.4-50.7 1.1-5 1-10.1 1.5-15.1 1.6-14.7 12.2-24.5 27-24.9 5.1-.1 10.2 0 15.2 0v.2zm11.8 293.1c3.9-.5 7.7-1.3 11.5-2.3 57.9-15.7 80.8-84 43.8-130.5-27.8-35-79.8-41.8-116.9-15.3-33.4 23.8-44.2 69.1-24.4 104.8 16 28.9 41.6 42.8 74.1 44.2 4.1-.3 8.1-.4 11.9-.9zm33.5-81.7c-.1 24.5-20.5 44.3-45.3 43.9s-44.6-20.1-44.4-44.3c.2-24.4 20.1-43.5 45.1-43.4 24.9 0 44.7 19.4 44.6 43.8zM462.3 390c6.3-9.8 12.3-20 17.6-30.4 11.4-22.4 10-44.4-3.3-65.6-5.7-9.1-13.9-15.7-22.8-21.5-16.9-11-17-32.9-.5-44.6 1.8-1.2 3.6-2.4 5.1-3.9 4.6-4.5 6.7-10.1 5.5-16.5-2.6-13.7-18.1-20.6-30.1-13.1-19.5 12.3-30.5 30.2-31.2 53.3-.7 24.6 9.9 44.1 30 58.3 1.7 1.2 3.7 2.3 5.4 3.5 10.3 7.6 13.9 21 8 32.3-5.3 10-11 19.8-17.1 29.3-6.8 10.6-19.8 14.8-31.4 10.7-2.7-1-5.3-2.5-8-3.7-43.6-20.2-92.9 8.1-96.8 54-.4 5 .7 9.3 3.5 13.2 4.7 6.5 13.4 9.4 21.4 7.2 8-2.2 13.6-9.2 14.3-18.1 1.2-15.2 13.1-25.7 28.3-25.2 4.8.2 9.1 1.9 13.3 4 9.9 5 20.4 7.6 33.9 7.7 22-.7 41.6-10.3 54.9-30.9z"/></svg>