<svg xmlns="http://www.w3.org/2000/svg" viewBox="0 0 500 500" style="enable-background:new 0 0 500 500" xml:space="preserve"><path d="M250.5 329.9c-21.5 0-42.9.9-64.2 4.2-11.4 1.8-22.7 4.2-33.4 8.6-5.8 2.3-11.1 5.4-15.9 9.5-12 10.4-11.8 29 1.5 38.7 8.3 6.1 17.8 9.5 27.5 12.2 2.9.8 5.9 1.4 8.8 2.2 8.5 2.5 13.2 10.4 11.3 19-1.7 7.8-9.4 13.4-17.7 11.7-19.1-3.9-37.4-9.9-52.5-23-25.6-22.2-25.7-62.2-.2-84.5 11.3-9.9 24.8-15.7 39-20 16.2-4.9 32.9-7.3 49.7-8.7 27.5-2.3 55-2.3 82.5-.8 24.5 1.3 48.8 4.4 71.8 13.7 10.1 4 19.4 9.5 27.5 16.9 22.6 20.8 23 60.4-.7 81.7-10.9 9.8-23.8 15.9-37.6 20.3-14.2 4.6-28.9 7-43.8 8.7-17.1 1.9-34.4 2.4-51.6 2.3-2.5 0-5 .1-7.4-.7-6.9-2.3-11.7-9.5-10.9-16.5 1-7.7 6.7-13.6 14.4-14 7.1-.5 14.2-.5 21.3-.7 19.7-.5 39.3-2.2 58.6-6.6 8.5-1.9 16.8-4.5 24.5-8.5 4.4-2.3 8.5-5.1 11.9-8.8 9-9.7 9-23.5 0-33.2-4.8-5.2-10.8-8.5-17.3-11.2-12.6-5.2-25.8-7.7-39.2-9.4-19.2-2.3-38.5-3.1-57.9-3.1zm100.8-191.1C336.7 72 261.8 36.9 201.7 69.4c-35.8 19.4-54.2 50.4-55.4 91.2-.3 9.5 6.2 16.3 15.1 16.5 9 .3 15.9-6.5 16.2-16.1.1-3.2.4-6.3.8-9.5 4.8-37.5 39.5-66.2 78.9-62.3 41 4.1 72.3 43.1 63.8 86.2-10.4 52.2-70 75.6-113.5 44.9-1.3-.9-2.6-1.9-4-2.7-9.5-5.3-21 0-23.1 10.7-1.3 6.8 1.2 12.1 6.7 16.2 25 18.6 53 25.1 83.5 19 48.6-9.8 83-52.5 83.1-98.9-.2-10.7-.9-18.3-2.5-25.8zm-231.7 104c9.8 0 16.9-6.1 17.2-15.1.2-7.4-5-15.8-15.5-16.4-3-.2-6.1-.2-9-.8-20.7-4.5-34.8-16.7-40.1-37.3-5.4-21 .9-38.9 17.6-52.7 8.7-7.2 19.1-10.6 30.5-10.9 9.6-.3 16.6-7.2 16.5-15.9-.1-9-7.5-15.8-17.2-15.7-6.4.1-12.7 1-18.9 2.6-44 11.5-70.3 55.9-59.3 100.1 8.6 34.9 40.9 61.2 77.4 62.1h.8zM426.4 94c-13.9-10.1-29.6-15.1-46.8-15.1-8.4 0-14.8 5.5-15.9 13.5-1.3 8.8 4.4 16.4 13.5 17.9 3.1.5 6.4.3 9.5.8 35 5.3 54 44.8 36.1 75.3-9.4 16-23.7 24.4-42.3 25.4-3.8.2-7.4.8-10.5 3.1-5.5 4-7.8 11-5.8 17.5s8 11 15.3 11.1c4.2 0 8.5-.3 12.7-1 39.9-6.7 68.9-40.8 68.9-87.4-.7-21.9-12-44.5-34.7-61.1zm-17.5 190.2c-11 .6-18 11.8-13.6 21.9 2.9 6.6 8.4 9.4 15.2 9.8 10.1.6 20.1 2.4 30 4.5 7 1.5 13.8 3.4 19.9 7.1 10.8 6.5 11 19.1.4 25.9-4.8 3.1-10.2 4.9-15.7 6.3-2.7.7-5.6 1.2-8.2 2.2-7.8 2.8-11.9 10.8-9.9 18.9 1.8 7.3 9.5 12.9 16.9 11.6 13.7-2.5 26.8-6.7 38.1-15.3 22.5-17.1 24.2-50.7 3.5-70-5.9-5.5-12.9-9.4-20.4-12.2-17.1-6.5-35-8.8-52.3-10.6-1.8-.2-2.9-.2-3.9-.1zm-366.5 7.6c-8.2 2.3-16 5.8-23 10.8-13.6 9.8-20 23.2-19.4 39.8.7 17.1 9.1 29.8 23.8 38.4 9.7 5.7 20.3 9.2 31.4 11.1 8.2 1.4 15.9-3.6 17.8-11.5 2-8.1-2.2-15.9-10-18.7-2.5-.9-5.1-1.4-7.7-2.1-6.4-1.7-12.6-3.7-18-7.7-5.8-4.3-7.6-11.7-4.6-18 1.6-3.3 4.4-5.5 7.6-7.2 5.6-3.2 11.7-4.9 18-6.4 11.2-2.7 22.7-4.1 34.1-5.3 7.5-.8 13-6.8 13.7-14.1.6-7.1-3.6-13.8-10.3-16.3-2.9-1.1-5.9-.9-8.9-.7-15.2 1.3-30 3.8-44.5 7.9z"/></svg>