<svg xmlns="http://www.w3.org/2000/svg" viewBox="0 0 500 500" style="enable-background:new 0 0 500 500" xml:space="preserve"><path d="M249.9 37.7c-31.3 0-62.5-.1-93.8 0-14.1.1-28 1.5-41.7 5.2-38.6 10.5-62.3 35.5-71.9 74.2-3.2 12.8-4.4 25.8-4.4 39-.1 62.6-.1 125.3 0 187.9 0 15.7 1.8 31.2 6.5 46.3 10.8 34.5 33.8 56.4 68.3 66.3 14 4 28.4 5.5 42.8 5.6 62.9.1 125.8.1 188.7 0 14.9 0 29.6-1.6 44-5.9 37.2-11.1 59.8-36 69-73.5 3.1-12.6 4.1-25.5 4.4-38.4.1-6.8 2.7-12.2 8.2-16 5.9-4.2 12.5-4.7 18.9-1.7s10.7 8.2 10.9 15.5c.6 34-6 66.1-24.6 95.1-17.6 27.2-42.4 44.9-73.1 54.7-16.5 5.3-33.4 8.2-50.7 8.3-67.6.1-135.2.2-202.8-.1-24.9-.1-48.8-5.4-71.3-16.5-35.8-17.8-58.5-46.6-69.9-84.7-4.8-16-7.2-32.4-7.3-49.2-.1-53-.1-106.1-.1-159.1 0-16-.3-32.1.4-48.1 1-23.3 6.2-45.7 16.8-66.6 17.9-35.3 46.4-57.7 84-69 16-4.8 32.4-7.3 49.1-7.3 66.6-.1 133.2-.1 199.8 0 20.7 0 40.8 3.7 60.1 11.2 42.2 16.5 69.2 47 82.3 90.1 4.6 15.2 7.1 30.9 7.3 46.8.2 23.9.1 47.8.2 71.6 0 5.1-1.2 9.7-4.7 13.5-5.6 6.2-12.5 7.8-20.2 5.1-7.4-2.6-12-7.9-13-15.8-.3-2.1-.2-4.3-.2-6.5 0-19.4.1-38.8 0-58.1-.1-15.9-1.5-31.7-6.1-47-11.1-36.8-35.7-59.2-72.6-68.4-13-3.2-26.2-4.4-39.5-4.5-31.2-.1-62.5 0-93.8 0zm-34 240.8c-13.1-13.2-26.2-26.3-39.3-39.4-1.2-1.2-2.5-2.5-3.8-3.6-10.5-8.5-25.9-3.6-29.7 9.4-2.3 7.8.3 14.1 5.8 19.7 18.4 18.4 37.1 36.5 55 55.3 9.9 10.4 22.2 11 32.9.1 37.2-37.9 75-75.4 112.5-113 1.5-1.5 3.1-3 4.4-4.7 5-6.2 5.4-14.7 1.3-21.4-4-6.5-11.4-9.7-19.1-8.6-5.2.8-8.8 3.7-12.4 7.3-32.8 33-65.7 65.9-98.6 98.8-1.5 1.5-2.8 3.3-5.5 4.6-1-1.6-2.1-3.1-3.5-4.5z"/></svg>