<svg xmlns="http://www.w3.org/2000/svg" viewBox="0 0 500 500" style="enable-background:new 0 0 500 500" xml:space="preserve"><path d="M247.1 352c-21.3-.1-44.9.8-68.4 3.5-18.8 2.2-37.5 5.2-55.4 11.9-9.6 3.6-18.6 8.1-26.1 15.3-15.1 14.5-15 36.7.2 50.9 1.8 1.7 3.8 3.3 5.9 4.8 6.1 4.3 12.8 7.5 19.8 10 2.4.9 4.8 1.7 7.1 2.8 8.1 4 12 13.4 9.1 21.8-2.8 8.2-11.3 13.4-19.9 11.8-7-1.3-13.3-4.3-19.7-7.3-14.7-6.9-27.7-16-37.3-29.4C43.2 421.3 45 377.7 75 353.3c12.9-10.6 27.7-17.4 43.4-22.4 17-5.4 34.4-8.6 52.1-10.7 42-5 84.2-5.3 126.4-3.1 29.3 1.5 58.3 5.3 86.3 14.8 13.9 4.8 27 11.1 38.9 19.9 38.5 28.6 37.1 88-2.3 115.1-14.5 10-30.5 16.4-47.4 21-19.3 5.2-39 7.9-58.9 9.7-29 2.7-58.1 2.5-87.3 2.2-4.9-.1-9.3-1.1-13-4.4-5.2-4.6-7.6-10.4-5.9-17.3 1.7-7.1 6.4-11.5 13.3-13.4 2.8-.8 5.8-.9 8.7-.8 30.3 1.1 60.6.1 90.7-3.1 18.6-1.9 37.1-5.1 54.9-11.5 8.3-3 16.3-6.6 23.3-12.1 7.5-5.8 13.1-12.8 14.9-22.4 2.1-10.7-.5-20.1-7.3-28.5-5.3-6.5-12.1-11-19.5-14.7-13.1-6.4-27-10-41.3-12.7-26.9-5-62.2-7-97.9-6.9zM115.2 133.3c-.2 73.7 60.1 134.1 134.2 134.3 74.3.2 135.1-59.5 135.4-133.1C384.9 58.3 322.3-.4 250.3 0c-74.2-.2-134.9 59.6-135.1 133.3zm36.2.1c.1-53.7 44.4-97.9 98.5-97.6 57.6.3 99 47.1 98.6 98.7-.4 53.8-44.5 97.3-98.8 97.2-54.6-.2-98.4-44.1-98.3-98.3z"/></svg>