<svg xmlns="http://www.w3.org/2000/svg" viewBox="0 0 500 500" style="enable-background:new 0 0 500 500" xml:space="preserve"><path d="M228.7 131c-10.4 13.4-20.4 26.2-30.3 39-16.6 21.4-33.3 42.8-49.8 64.3-4.3 5.6-9.3 9.7-16.5 10.4-8.8.8-15.7-2.6-20.4-10.1-4.7-7.4-4.7-15.2-.3-22.8 1.6-2.8 3.8-5.3 5.8-7.9 44.3-57.1 88.8-114.3 133-171.7 10.9-14.2 23.9-25 41.5-29.7 21.3-5.7 41.2-1.6 60.2 8.7 3.8 2.1 7.5 4.4 10.9 7.1 15.9 12.4 31.8 24.8 47.4 37.6 11.6 9.5 20.3 21.4 25.7 35.4 10.1 25.9 6.7 50.2-9.6 72.6-8.8 12.1-18.3 23.7-27.4 35.5-69.8 90-139.6 179.9-209.2 270-10 12.9-21.7 22.9-37.8 27.1-4.8 1.3-9.7 2.1-14.8 2.1-29.9.4-59.9.6-89.8 1.3-11.6.3-22.3-5.6-25.4-20-6.3-29.2-13.4-58.2-20-87.4-4.4-19.5-1-37.6 10.9-53.7 10.4-14.1 21.4-27.9 32.2-41.7 5.4-6.9 12.5-9.9 21.2-8.3 8.2 1.4 13.7 6.3 16.4 14.1 2.6 7.7 1.3 14.9-3.7 21.4-8.9 11.4-17.7 22.7-26.4 34-1.6 2.1-3.3 4.1-4.7 6.2-3.8 5.4-5.3 11.2-3.7 17.8 5.6 23.8 11 47.7 16.4 71.6.1.4.4.7.7 1.1 1.3 1.1 2.9.8 4.3.8 21.9-.2 43.8-.7 65.7-.5 10.2.1 17.6-3.8 23.8-11.9 78-100.9 156.1-201.7 234.4-302.3 12.2-15.7 11.2-30.3-.9-45.4-3.3-4.1-7.3-7.4-11.4-10.7-12.4-9.9-24.8-19.7-37.2-29.5-7.4-5.8-15.5-10.3-25-11.6-9.8-1.3-18.5 1.2-24.7 8.6-11.8 14.1-22.9 28.8-34.4 43.4 2 2.7 4.3 4.3 6.4 6 14.1 11.5 28.3 22.9 42.5 34.4 7 5.6 10.4 12.9 8.6 21.8-3.1 16.2-21 23.2-34.3 13.3-9.2-6.9-17.9-14.4-26.9-21.6-7.6-6-15.1-12.1-23.4-18.8zm245.1 368.9c2.2 0 4.3.1 6.5-.1 10-.9 18.1-8.8 19.5-18.8 1.4-9.9-4.5-19.8-13.8-23.3-3.7-1.4-7.6-1.6-11.5-1.6H298.3c-2.4 0-4.8.1-7.1.5-10.8 1.8-18.2 10.3-18.4 21.1-.2 10.2 6.9 19.4 17.1 21.7 2.5.5 5.2.5 7.7.5h176.2z"/></svg>