<svg xmlns="http://www.w3.org/2000/svg" viewBox="0 0 500 500" style="enable-background:new 0 0 500 500" xml:space="preserve"><path d="M168.8 303.9c-29.6-45.9-14.8-94.5 11-120.7 26.3-26.7 76.1-43.1 125.3-12.8 16.7-16.5 33.5-33 50.5-49.8-20.9-13.4-42.9-22.9-66.7-27.6-59.8-12-113.4 2.4-161.3 39.3-32.4 25-56.8 56.8-76.5 92.3-3.8 6.8-7.1 13.9-10.8 20.8-1.8 3.2-1.7 6-.1 9.3 9.1 18.8 19.4 37 31.6 54 2.5 3.5 4.6 7.2 4.7 11.7.2 7.7-3.9 14.3-10.8 17.3-7 3-15.3 1.4-20.5-4-1.3-1.4-2.5-3-3.6-4.6C26 307 13 283.5 2 258.8c-2.5-5.7-2.8-11.3-.2-17 19.5-43.5 44.7-83.2 79-116.7 32.2-31.5 69.4-54.2 113.3-65.2 50.9-12.7 100.3-8.1 148.3 12.7 12.2 5.3 23.9 11.6 35 18.9 1.4 1 3 1.8 4.7 2.8 3-2.9 6-5.8 8.9-8.6 14.1-13.9 28.1-27.7 42.1-41.6 4.4-4.4 9.3-7 15.6-6.6 7.3.5 12.7 4 15.6 10.6s2 13-2.7 18.7c-1.7 2.1-3.8 3.9-5.7 5.9-100.3 98.7-200.5 197.4-300.8 296.1-29.4 28.9-58.8 57.8-88.1 86.8-4.5 4.5-9.6 7.3-16.2 6.7-7-.6-12.3-4-15.1-10.4-2.9-6.6-2.2-13 2.4-18.7 1.7-2.1 3.8-3.9 5.7-5.9 40.2-39.6 80.5-79.2 120.7-118.9 1.6-1.3 3.4-2.5 4.3-4.5zm27.8-26.8c27-26.5 53.9-53 80.9-79.6-18.4-11.7-50.6-10.4-71.4 10.9-19.2 19.5-21.9 49.8-9.5 68.7zm120.1 160.8c39-12.3 72.3-33.7 101.5-61.9 34.9-33.8 60.4-73.9 80.1-118 2.4-5.5 2.3-10.9-.2-16.4-9.9-22.1-21.4-43.4-35-63.5-3.9-5.8-8-11.6-12.4-17.1-5.2-6.5-14.2-8.3-21.8-4.9-7.2 3.3-11 10.4-10.3 18.7.4 4.1 2.5 7.3 4.9 10.4 14.2 19 26.1 39.3 36.4 60.7 1.4 2.9 1.4 5.3 0 8.2-16.1 33.5-36.1 64.3-62.2 91-22.4 22.9-47.9 41.2-77.7 53.2-32.1 12.9-65.2 16.8-99.4 11.4-9.5-1.5-18.7-3.9-27.9-6.6-9.3-2.7-18.1.6-22.3 8.2-5.7 10.2-.5 22.3 11.4 26.1 22.1 7.1 44.7 10.8 68 10.8 22.8 0 45.1-3.5 66.9-10.3zm-48.9-93.8c38.6-6.3 71.1-38.4 78-76.8 1.6-9-3.9-18.1-12.5-20.6-9-2.7-18.8 1.8-22.3 10.3-1 2.3-1.4 4.9-2.1 7.3-6.2 22.3-20.6 36.6-42.7 43.3-2.6.8-5.3 1.2-7.9 2.1-8.7 3-13.5 11.2-12 20.3 1.4 8.3 9.3 14.7 18.4 14.7.8-.2 1.9-.4 3.1-.6z"/></svg>