<svg xmlns="http://www.w3.org/2000/svg" viewBox="0 0 500 500" style="enable-background:new 0 0 500 500" xml:space="preserve"><path d="M199.4 310.6c16.7-.1 36.4.6 56 2.7 26.7 2.8 53 7.2 77.6 18.6 9.4 4.4 18.2 9.9 25.8 17 15.1 14.4 21.4 32.2 20.7 52.8-.8 24-12.4 41.8-31.8 55-14.9 10.2-31.5 16.1-48.8 20.5-18.4 4.6-37.1 7.1-56.1 8.5-16.6 1.2-33.1 1.7-49.7 1.9-2.3 0-4.7-.1-7-.6-9.7-2.2-15.6-10.2-14.7-20.2.8-9 8.1-16.1 17.5-16.5 12.5-.5 25-.5 37.5-1.2 22.6-1.2 45.1-3.5 67.1-9.2 8.3-2.2 16.4-4.9 24.1-8.8 4.7-2.4 9.2-5.2 13.1-8.7 15.2-13.5 15.2-34.2-.1-47.6-6.4-5.6-13.9-9.4-21.8-12.4-14.7-5.5-30-8.5-45.5-10.5-36.1-4.7-72.4-4.8-108.8-3.3-25.6 1.1-51 3.8-75.6 11.4-9.7 3-19.1 6.9-27.3 13.1-9 6.9-14.5 15.6-14 27.5.3 7.8 3 14.4 8.5 19.9 6.9 7 15.5 11.1 24.4 14.6 8 3.1 16.4 5.1 24.7 7.2 11.2 2.7 17.2 13.2 14.1 23.7-2.5 8.3-11.5 14.8-19.8 13.1-21.9-4.4-43.1-11-61.4-24.7-31.2-23.4-33.3-60-21.8-84.8 7.3-15.7 20-26.2 34.9-34.3 18-9.8 37.6-15 57.6-18.6 32.4-5.7 65-6.3 100.6-6.1zm115.9-197C296.1 25.7 194.4-16 119.5 33.7c-37.6 24.9-56.7 60.8-58 105.9-.3 11 7.9 19.3 18.4 19.4 10.6.2 18.7-7.7 19-18.8.1-5.3.6-10.6 1.5-15.7 8.8-48.6 55.1-81.3 104-73.5 50.2 8 84.4 56.8 74.7 106.7-11.3 58-75 90-128.5 64.5-6.4-3-12-7.2-17.9-11-11.1-7.1-25-1.7-28.4 11-2 7.5.8 15 8.1 20.4 29.5 21.6 62.3 29.8 98.4 23.9 61.9-10 107.4-63.6 107.3-128 .3-7.2-.8-16.1-2.8-24.9zm132.7-.4c-11.6-41.9-49.4-72.7-95.3-74.2-12.7-.4-20.7 9.2-20.9 18.2-.3 11.5 9.9 19.9 19.8 19.3 3.1-.2 6.2.4 9.3.9 32.4 5.3 55.5 34.1 53 67.3-2.6 34.8-31.5 57.5-60.3 58.4-2.5.1-5.1.2-7.5.9-9.2 2.3-14.9 10.4-14.1 20.2.8 8.9 8.5 16.1 17.6 16.4 5.3.2 10.5-.2 15.7-1 49.6-7.3 86.3-49.8 86.3-100.4.2-8.4-1.1-17.3-3.6-26zm28.7 203.1c-6.8-5-14.3-8.7-22.3-11.4-18.9-6.4-38.6-9.6-58.4-11.5-3.5-.3-7-.8-10.5-.2-9 1.5-15.8 9.4-15.8 18.4 0 8.8 6.7 16.6 15.3 18.1 2.1.4 4.2.7 6.4.8 13.3.8 26.3 3.3 39.2 6.3 8.2 1.9 16 4.7 23.3 9.2 11.5 7 11.2 24.9 0 31.5-3.4 2-6.8 3.8-10.4 5.3-5.8 2.3-11.9 3.8-17.9 5.2-2.9.7-5.6 1.7-8 3.5-6.8 5.2-9.2 14.2-5.9 22 3.4 8.2 11.4 12.8 21 11 15.1-2.8 29.5-7.6 42.3-16.2 16.4-11.1 24.6-26.7 25-45.8-.3-19.7-7.9-34.9-23.3-46.2z"/></svg>