<svg xmlns="http://www.w3.org/2000/svg" viewBox="0 0 500 500" style="enable-background:new 0 0 500 500" xml:space="preserve"><path d="M250.1.2c38.5 0 77-.3 115.4.1 27.1.3 52.4 7.7 75 23 28.7 19.4 45.8 46.8 54.3 80 3.3 12.9 5 26.1 5 39.4 0 20.9.1 41.8.1 62.7 0 9.4-4.6 15.6-13 17.9-9.7 2.7-19.8-3.8-21.4-13.7-.4-2.5-.3-5.1-.3-7.6-.3-22.7.8-45.3-.7-68-1.3-18.4-6.1-35.8-15.6-51.6-15.5-25.9-38.8-40.5-68.2-45.7-8.3-1.5-16.7-1.8-25.1-1.8H144c-16.3 0-32.3 1.9-47.5 8.3-29.2 12.2-47.2 34.3-56.3 64.2-4.1 13.6-5.5 27.5-5.5 41.7-.1 67.4-.1 134.8 0 202.2 0 19.7 2.8 38.9 11.3 57 14.6 31.2 39.4 49 73 55.2 8.1 1.5 16.3 1.9 24.5 1.9h212.7c15.1 0 30-1.7 44.2-7.2 30.9-11.8 49.9-34.5 59.3-65.7 3.8-12.6 5.1-25.6 5.4-38.7.2-8 0-16 .1-24 0-2.2-.2-4.1-2.1-5.7-14.9-12.6-29.2-26-45.7-36.6-9.2-6-18.9-10.9-29.9-12.9-15.8-2.9-29.8.7-42.1 10.9-7 5.8-12.6 12.8-17.8 20.1-7 9.9-13.8 19.9-20.8 29.7-6.5 9.1-14 17.3-22.6 24.5-18.3 15.4-38.9 19.6-61.9 14.1-12.2-2.9-23.6-7.9-35.1-12.9-7.5-3.3-15.2-6.1-23.3-7.7-16.7-3.3-30.8 1.4-43.1 12.7-1.6 1.5-3.1 3.1-4.8 4.3-7.3 5.4-17.4 4.5-23.4-2.1-6-6.7-6.2-16.9.1-23.4 16.7-17.4 36.8-27.6 61.3-27.4 13.8.1 27 3.5 39.8 8.6 9.6 3.9 18.9 8.4 28.7 11.7 3.5 1.2 7.1 2.1 10.7 2.9 10.5 2.6 19.6-.2 27.9-6.9 8.9-7.2 15.8-16.2 22.3-25.5 6.2-8.8 12.1-17.7 18.4-26.4 8-11 17-21 28.4-28.5 25.3-16.7 52.3-19.1 80.5-8.4 18.1 6.9 33.7 17.9 48.5 30.2 11.3 9.3 22.3 18.9 33.6 28.4 4.6 3.9 7.2 8.6 7.1 14.7-.2 16 .4 32.1-.5 48-1.3 25.5-8 49.7-21.5 71.6-19.3 31.2-47.2 50.3-82.7 58.6-12.4 2.9-25 3.9-37.8 3.9-71.7 0-143.4-.1-215.1 0-23.4 0-45.9-3.9-67-14.2-34.6-16.9-56.6-44.6-68-81C2.5 389.9.1 374.3 0 358.4c.1-60.4.1-120.6.1-180.7 0-14.5-.3-28.9.4-43.4 1.2-23.9 7.1-46.7 19-67.6C40 31 71.1 10.2 111.4 2.6 122.2.5 133.1 0 144 0h106.1v.2zm-78.2 105.4c-35.4-.3-64.4 28.3-64.6 63.6-.2 34.8 28.6 64 63.5 64.3 35.3.3 64.2-28.3 64.4-63.7.2-35.3-28-63.9-63.3-64.2zm-29.7 63.9c0-16 13-28.9 29.1-28.9s29.2 13.1 29.1 29c-.1 16-13.1 29-29.2 29-15.9-.1-29-13.1-29-29.1z"/></svg>