<svg xmlns="http://www.w3.org/2000/svg" viewBox="0 0 500 500" style="enable-background:new 0 0 500 500" xml:space="preserve"><path d="M249.9 38c-31.3 0-62.5-.1-93.8 0-14.1.1-28 1.5-41.7 5.2-38.6 10.5-62.3 35.4-71.9 74-3.2 12.8-4.4 25.8-4.4 38.9-.1 62.5-.1 125.1 0 187.6 0 15.7 1.8 31.2 6.5 46.2 10.8 34.5 33.8 56.3 68.3 66.2 14 4 28.4 5.5 42.9 5.6 62.9.1 125.8.1 188.8 0 14.9 0 29.7-1.6 44-5.9 37.2-11.1 59.8-35.9 69.1-73.3 3.1-12.6 4.1-25.4 4.4-38.3.1-6.8 2.7-12.1 8.2-16 5.9-4.2 12.5-4.7 18.9-1.7s10.7 8.2 10.9 15.5c.6 34.1-6.1 66.4-25 95.4-17.6 26.9-42.3 44.4-72.8 54.1-16.3 5.2-33 8.2-50.1 8.2-68 .1-136 .3-204-.1-24.7-.1-48.5-5.5-70.7-16.5-35.8-17.7-58.6-46.5-69.9-84.5-4.8-16-7.3-32.4-7.3-49.1C0 283.3 0 216.8 0 150.4c0-2.7.1-5.5.2-8.2 1.5-23 6.4-45.2 16.9-65.9C35 41 63.6 18.7 101.1 7.4c16-4.8 32.4-7.3 49.1-7.3C216.8 0 283.5 0 350.1.1c20.7 0 40.8 3.7 60.1 11.2 42.2 16.4 69.2 46.9 82.3 89.9 4.6 15.2 7.1 30.8 7.3 46.7.2 23.8.1 47.7.2 71.5 0 5.8-1.7 10.7-5.9 14.8-5.7 5.4-12.4 6.3-19.6 3.6-6.9-2.6-11.2-7.6-12.4-15-.3-2.1-.2-4.3-.2-6.4 0-19.5.1-39.1 0-58.6-.1-15.9-1.5-31.6-6.1-46.9-11.1-36.7-35.7-59.1-72.6-68.3-13-3.2-26.2-4.4-39.5-4.5-31.3-.1-62.6-.1-93.8-.1zm.2 176.3c-13.3-13.2-26.5-26.5-39.8-39.8-1.5-1.5-3-3.1-4.7-4.3-6.1-4.3-12.7-4.9-19.4-1.7-6.5 3.2-9.8 8.7-10.3 15.9-.5 6.7 1.9 12.1 6.6 16.8 39.3 39.2 78.5 78.4 117.7 117.6.8.8 1.7 1.7 2.6 2.4 10.6 8.6 26.3 3.9 30.4-9.1 2.5-7.9.1-14.6-5.6-20.3-13.8-13.8-27.6-27.6-41.4-41.5-1.3-1.3-3.3-2.2-3.4-4.7l38.5-38.5c1.5-1.5 3.1-3 4.4-4.7 4.8-6.3 5.5-13.3 2.2-20.4-3.3-7.2-9.2-10.9-17.2-11.1-6-.2-10.9 2.2-15.1 6.5-13.5 13.6-27.1 27.1-40.8 40.8-2.2-.9-3.3-2.5-4.7-3.9zm-46.6 109.9c6.6-6.3 13.3-12.7 19.4-19.5 6.7-7.4 6-18.4-.9-25.5-6.7-6.9-17.6-8.1-25-1.9-7.6 6.3-14.7 13.4-21 21.1-4.9 5.9-5.1 13-1.8 19.8 3.4 6.9 9.3 10.2 15.1 10.4 6.9.1 10.7-1 14.2-4.4z"/></svg>