<svg xmlns="http://www.w3.org/2000/svg" viewBox="0 0 500 500" style="enable-background:new 0 0 500 500" xml:space="preserve"><path d="M0 235c1.7-65.8 33-131.4 95.4-182 5.6-4.5 11.6-6.5 18.5-4.4 6.7 2.1 10.9 6.8 12.2 13.7 1.4 7.2-1.3 13-6.6 17.8-8 7.2-16.4 13.9-23.9 21.7-31.4 32.5-50.5 71.2-57.1 116C23.6 319.1 80 415 175.5 451.1c85.8 32.4 185.2 4.6 241.8-67.7 34.4-44 50.5-94 45.8-149.6-6.2-73.4-41.8-129.7-104.5-168.2-38.3-23.5-80.5-32.3-125.2-29.4-5.3.3-10.5 1.2-15.7 1.9-10.3 1.3-19.4-5.5-20.7-15.4-1.4-10.3 5.2-19 15.6-20.5 54.1-7.5 105.7.2 153.8 26.3 66.9 36.3 110.9 91.5 127 166.1 20.1 93.3-5.7 174.1-74.8 239.8-37.5 35.8-83 56.6-134.5 63.6C167.6 513.9 57 447.7 15.5 337.3 5.2 310 0 280.3 0 235zm340.8-39.2c-7.7-1.7-13.6 1.2-18.9 6.6-22.4 22.7-44.9 45.3-67.4 67.9-4.7 4.7-3.9 5.3-8.9.2-22-22.2-44.1-44.4-66.2-66.6-1.7-1.7-3.3-3.4-5.1-4.8-10.4-7.9-25.1-3.1-28.9 9.4-2.4 8 .3 14.4 6 20.1 27.8 27.8 55.4 55.8 83.1 83.6 10.2 10.3 20.4 10.4 30.6.2 11.1-11 22.1-22.2 33.1-33.3 16.8-16.9 33.6-33.9 50.5-50.8 4-4.1 6.6-8.6 6.7-13.5 0-9.7-6-17.1-14.6-19z"/></svg>