<svg xmlns="http://www.w3.org/2000/svg" viewBox="0 0 500 500" style="enable-background:new 0 0 500 500" xml:space="preserve"><path d="M235.1 500c-65.8-1.7-131.4-33-182-95.4-4.5-5.6-6.5-11.6-4.4-18.5 2.1-6.7 6.8-10.9 13.7-12.2 7.2-1.4 13 1.3 17.8 6.6 7.2 8 13.9 16.4 21.7 23.9 32.5 31.4 71.2 50.5 116 57.1 101.3 14.9 197.2-41.5 233.3-137 32.4-85.8 4.6-185.2-67.7-241.8-44-34.4-94-50.5-149.6-45.8-73.4 6.2-129.7 41.8-168.2 104.5-23.5 38.3-32.3 80.5-29.4 125.2.3 5.3 1.2 10.5 1.9 15.7 1.3 10.3-5.5 19.4-15.4 20.7-10.3 1.4-19-5.2-20.5-15.6-7.5-54.1.2-105.7 26.3-153.8 36.3-66.9 91.5-110.9 166.1-127 93.3-20.1 174.1 5.7 239.8 74.8 35.8 37.5 56.6 83 63.6 134.5C514 332.4 447.8 443 337.4 484.5c-27.3 10.3-57 15.5-102.3 15.5zm-39.2-340.8c-1.7 7.7 1.2 13.6 6.6 18.9 22.7 22.4 45.3 44.9 67.9 67.4 4.7 4.7 5.3 3.9.2 8.9-22.2 22-44.4 44.1-66.6 66.2-1.7 1.7-3.4 3.3-4.8 5.1-7.9 10.4-3.1 25.1 9.4 28.9 8 2.4 14.4-.3 20.1-6 27.8-27.8 55.8-55.4 83.6-83.1 10.3-10.2 10.4-20.4.2-30.6-11-11.1-22.2-22.1-33.3-33.1-16.9-16.8-33.9-33.6-50.8-50.5-4.1-4-8.6-6.6-13.5-6.7-9.7 0-17.1 6-19 14.6z"/></svg>