<svg xmlns="http://www.w3.org/2000/svg" viewBox="0 0 500 500" style="enable-background:new 0 0 500 500" xml:space="preserve"><path d="M250.7-.1c80.1 1.8 145.6 33.3 196.2 95.8 7 8.6 5.9 19.9-.5 26-7.6 7.3-19.4 6.7-26.6-1.5-3.4-3.8-6.3-7.9-9.7-11.7-33.2-37.1-74.2-60.9-123.3-68.9-65.5-10.7-124.4 5.1-175.4 48.1C74 119.2 50 159.3 40.7 207.3c-13 67.2 2.4 127.9 46.5 180.7 28.6 34.2 64.8 57.4 108.1 68.3 67.1 17 129.1 4.8 184.4-36.9 38.9-29.3 64.3-68.1 76.9-115.2 7.5-27.9 9-56.2 4.7-84.8-1.7-11.1 4.9-20.2 13.5-22.2 10.7-2.5 20.7 4.1 22.4 15 2.9 18.6 3.5 37.4 2.1 56.1-2.2 30.3-9.3 59.4-22.6 86.7-35.3 72.8-92.2 119.2-170.8 138.6-29.5 7.3-59.5 8.2-89.6 4-59.8-8.3-110.1-34.9-150.8-79.1-32.9-35.7-54-77.8-61.8-125.9-12.2-75.1 5.5-142.8 53.7-201.7 38.9-47.5 89.4-76.5 150.1-87.2 5-.9 10-1.6 15.1-2.2C231.9.3 241.2.1 250.7-.1zm-19.6 244.5c21.9-21.8 43.8-43.5 65.6-65.3 1.7-1.7 3.4-3.3 4.7-5.2 4.2-6.2 4.6-12.8 1.1-19.4-3.5-6.6-9.2-9.9-16.7-9.9-5.9 0-10.4 2.8-14.4 6.8-25 25-50.1 49.9-75.2 74.8-3 3-6.1 6-9.1 9.1-9.3 9.4-9.4 20-.2 29.3l.4.4c27.8 27.7 55.7 55.4 83.5 83.1 1.1 1.1 2.2 2.2 3.4 3.2 6.3 5.1 15 5.6 21.9 1.3 6.8-4.3 9.9-12.4 8-20.4-1-4.4-3.7-7.6-6.8-10.7l-66.9-66.6c-1.5-1.5-3.3-2.7-4.7-6.1 1.8-1.4 3.7-2.8 5.4-4.4z"/></svg>