<svg xmlns="http://www.w3.org/2000/svg" viewBox="0 0 500 500" style="enable-background:new 0 0 500 500" xml:space="preserve"><path d="M249.6 499.8c-38.3 0-76.6.4-114.9-.1-28.2-.4-54.3-8.4-77.4-24.8-26.3-18.5-42.5-44.1-51.1-74.8-3.8-13.8-6-27.9-6-42.2C.1 322.9.1 288 .1 253c0-37.1-.2-74.2.2-111.4.3-29.9 7.9-57.9 24.6-83 19.4-29.2 46.9-46.9 80.8-54.7C118.1 1 130.7 0 143.4 0c71.1 0 142.2.1 213.3 0 23.2 0 45.5 3.6 66.5 13.7 36.8 17.6 59.4 47.1 70.5 85.9 4.5 15.9 6.3 32.1 6.2 48.6 0 67.8-.1 135.6 0 203.4 0 24.7-3.9 48.6-14.4 71.1-19.4 41.4-52.1 65.7-96.6 74.6-11.2 2.2-22.5 2.7-33.8 2.7H249.6v-.2zm-2.3-49.6h93.1c7.6 0 15.2-.2 22.8-1 24.9-2.8 46-13.1 62.2-32.4 16.3-19.5 23.9-42.4 24.6-67.4.5-17.4-4.8-33.1-17.5-45.7-7.5-7.4-15.1-14.7-22.9-21.9-7.5-6.9-15.5-13.1-24.3-18.3-12.8-7.6-25.5-7.3-38 .8-6.1 4-11.2 9.1-15.4 15.1-3.2 4.6-6.3 9.4-9.3 14.2-7.6 12.3-14.8 24.8-23.6 36.3-8 10.3-17.1 19.3-28.3 25.9-19.2 11.4-38.9 12.6-59.2 3.1-6.4-3-12.3-6.7-18.2-10.6-7.3-4.9-14.6-9.8-22.4-13.8-10-5.1-19.5-4.3-28.9 1.4-3.2 2-6.1 4.2-8.9 6.7-5.4 4.9-10.3 10.1-14.8 15.8-7.7 9.6-15.3 19.2-23 28.8-5.4 6.7-10.8 13.3-16 20.2-7.7 10.2-5.2 22.7 5.8 29.1 5.7 3.4 11.8 6 18.1 8.1 12.4 4.1 25.1 5.5 38.1 5.5 35.3.1 70.6.1 106 .1zM100 162.2c-.1 34.4 28 63 62.4 62.8 35.3-.2 62.4-28 62.6-62.6.2-34.3-28-62.3-62.1-62.4-34.5-.2-62.8 27.8-62.9 62.2z"/></svg>