<svg xmlns="http://www.w3.org/2000/svg" viewBox="0 0 500 500" style="enable-background:new 0 0 500 500" xml:space="preserve"><path d="M250.1 499.9c-38.3 0-76.6.4-114.9-.1-28-.3-53.9-8.2-77-24.3-26.7-18.5-43.2-44.1-51.9-75-3.8-13.4-5.9-27.1-6.1-41-.1-8.4-.1-16.8-.1-25.2C0 273.1.2 211.9 0 150.8c-.1-23.5 2.9-46.4 12.1-68.1C31.1 38 64.8 11.6 112.3 2.5 122.7.5 133.2 0 143.8 0c70.9 0 141.9.1 212.8 0 22.6 0 44.4 3.3 65 12.8C458 29.5 481 58 492.8 95.9c4.7 15.2 7.2 30.8 7.2 46.7.1 71.5 0 143 0 214.6 0 2.5-.1 5.1-.2 7.6-1.5 23.9-7.1 46.7-18.9 67.7-19.2 34.1-48.4 54.9-86.3 63.8-12.8 3-25.8 3.8-39 3.8H250.1v-.2zm-29-221.1c-2.4-2.2-3.8-3.5-5.1-4.9-12.9-12.8-25.7-25.7-38.5-38.5-5.1-5.1-11.2-7.9-18.4-7.1-8.9 1-15.4 5.6-18.5 14.1-3.2 8.7-1.3 16.7 5.1 23.2 19.7 19.8 39.4 39.6 59.4 59.1 9 8.8 21.8 8.4 31.1-.3.6-.5 1.1-1.1 1.7-1.6L352.7 208c1.2-1.2 2.5-2.5 3.6-3.8 5.4-7.2 6.4-15.1 2.6-23.1-3.7-7.9-10.3-12-19.1-12.3-7.4-.3-13 3.1-18.1 8.2-32.1 32.2-64.3 64.4-96.5 96.6-1.6 1.4-2.7 3.3-4.1 5.2z"/></svg>