<svg xmlns="http://www.w3.org/2000/svg" viewBox="0 0 500 500" style="enable-background:new 0 0 500 500" xml:space="preserve"><path d="M411.3 113.3c.4 1.6 1.4 2.2 2.3 3 32.7 31 57.4 67.8 76.8 108.3 2.7 5.6 5.3 11.3 7.8 17 2.3 5.2 2.5 10.6.3 15.9-18.3 42.7-42.1 81.9-74.3 115.6-26.2 27.4-56.3 49.3-91.6 63.7-32.2 13.1-65.7 18.3-100.3 15.5-40-3.2-76.2-17.2-109.4-39.6-1.6-1.1-3.2-2.1-4.8-3.2-2.3 1.2-3.7 3.1-5.4 4.8-13.6 13.7-27.3 27.4-40.8 41.2-4.2 4.2-8.9 6.9-15 6.7-7.6-.3-12.9-4.1-16-10.9-3.1-6.9-2.1-13.4 2.8-19.1 2.3-2.7 4.9-5 7.4-7.5C159.8 315.3 268.4 205.7 377 96.1c17-17.2 34-34.5 50.9-51.9 4-4.1 8.5-6.7 14.4-6.6 7.6.1 13.1 3.6 16.4 10.3 3.2 6.5 2.5 12.9-1.7 18.8-1.1 1.6-2.6 2.9-3.9 4.3-12.6 12.8-25.3 25.5-37.9 38.3-1.4 1.4-2.7 2.8-3.9 4zM196.2 331.6c34.1 24.6 88.7 23.9 124.4-14.1 36.1-38.5 31.7-92.9 10-121.4-8.7 8.5-17.5 17-26.3 25.5 10.9 25.5 9 49.7-10.2 70.2-20.4 21.8-45.4 24.4-71.1 13.7-9.3 9-18.1 17.5-26.8 26.1zM347.8 70.1C321 57 292.8 49.2 263 47.5c-44.9-2.6-86.7 8-125.5 30.5-28.2 16.3-52.3 37.4-73.5 62-26.4 30.8-46.6 65.4-62.5 102.5-2.2 5.1-2.1 10.3.1 15.4 15.4 35.9 34.9 69.3 59.9 99.3.7.9 1.3 2 3 1.9.6-.5 1.3-1.2 2-1.8 28.2-28.4 56.3-56.9 84.6-85.2 2.6-2.6 2.8-5.2 2.4-8.4-4.5-38 8.3-69.2 38.5-92.6 20.1-15.5 43.4-21.8 68.8-18.5 5.5.7 9.3-.4 13.3-4.5 14.7-15.4 29.9-30.3 44.8-45.4 10.2-10.3 20.3-20.5 30.8-31.2-.9-.8-1.4-1.2-1.9-1.4z"/></svg>