<svg xmlns="http://www.w3.org/2000/svg" viewBox="0 0 500 500" style="enable-background:new 0 0 500 500" xml:space="preserve"><path d="M249.9.2c38.5 0 77-.3 115.5.1 25.5.2 49.4 6.9 71.1 20.4 29.6 18.4 47.9 45.3 57.2 78.5 3.8 13.4 5.9 27.1 6 41 .1 11.7.1 23.4.1 35.2 0 57.8.1 115.7 0 173.5-.1 22.8-3.3 45.1-11.7 66.5-9.9 25.3-25.7 46-48.3 61.1-19.5 13-41 20.2-64.5 22.3-16.8 1.5-33.6 1.1-50.3 1.2-60.6.1-121.1 0-181.7.1-23.4 0-45.9-3.8-67.1-13.9-34.9-16.7-57.3-44.3-68.8-81-4.6-14.8-7-30-7.3-45.5-.1-3.3-.1-6.6-.1-10 0-66.5.1-132.9 0-199.4 0-23.4 2.9-46.4 12.1-68.1 18.7-44.3 52.1-70.4 99.1-79.6C122.2.5 133.3 0 144.4 0h105.5v.2zm215.4 279.4v-4.8c0-42.2.1-84.4 0-126.5 0-13.9-1.4-27.7-5.5-41.1-8.7-28.5-25.6-50.1-53.1-62.7-15.7-7.2-32.4-9.7-49.6-9.7H143.3c-8.2 0-16.4.4-24.5 1.9C85.2 43 60.5 60.9 46 92.2c-8.4 18.1-11.1 37.3-11.2 57-.1 67-.1 134 0 201 0 10.7.7 21.5 3.1 32 1.6 7 3.2 13.9 6.4 20.3 2.1-.4 2.8-2 3.7-3.1 14.5-17.6 29-35.3 43.5-52.9 9.4-11.3 19.8-21.6 32.6-29.1 14.4-8.5 29.7-12.8 46.5-9.8 8.6 1.5 16.5 4.6 24.1 8.6 8.8 4.6 17.1 10.2 25.5 15.6 4.4 2.8 8.9 5.6 13.9 7.4 9.2 3.3 17.6 2.1 25.1-4.6 4.7-4.2 8.8-8.9 12.8-13.7 13.1-15.8 25.1-32.4 36.9-49.2 5.3-7.5 11.5-14.2 18.6-20.2 26.9-22.4 62.8-24.4 91.8-5 13.3 8.9 26.3 18.2 39.1 27.9 1.9 1.4 3.9 2.9 6.9 5.2zM162.5 225c33.7.4 62.3-27.8 62.5-61.6.2-35-29.2-63-62.2-63.4-34.5-.4-62.5 27.1-62.8 61.5.1 34.1 26.8 63.1 62.5 63.5z"/></svg>