<svg xmlns="http://www.w3.org/2000/svg" viewBox="0 0 500 500" style="enable-background:new 0 0 500 500" xml:space="preserve"><path d="M.2 106.5c0-15.4-.4-30.9.1-46.3 1-32 28-59.2 59.9-59.9 30.3-.6 60.5-.6 90.8 0 28.6.5 53.5 22.2 59.1 50.3.8 3.8 1.3 7.7 1.3 11.6 0 29.7.6 59.4-.2 89-.8 27.1-14.7 46.3-39.4 57.3-8.1 3.6-16.9 4.7-25.7 4.8-26.9.1-53.9.1-80.8 0-34.6-.1-55-22.7-61.8-43.4-2.5-7.5-3.4-15.2-3.3-23v-40.4c-.1 0-.1 0 0 0zM.1 393.2c0 15.2-.4 30.5.1 45.7C1.2 472 27.9 499 61 499.7c29.9.6 59.8.6 89.6 0 33-.7 60.1-28.1 60.6-61 .5-30.1.7-60.2-.1-90.2-.6-25.1-13.1-43.6-35.4-55.2-9.8-5.1-20.3-6.6-31.2-6.6H68.9c-4.1 0-8.2.2-12.3.6-31 3.1-55.6 29.1-56.5 60.2-.3 15.2.1 30.5 0 45.7.1 0 .1 0 0 0zm499.6-333c-1-32-27.9-59.3-59.8-59.9-30.3-.6-60.5-.6-90.8 0-32.9.7-59.9 28.3-60.3 61.3-.4 30.1-.5 60.2.1 90.2.5 22.2 10.9 39.5 29.5 51.7 11.3 7.4 24 10 37.3 10h74.4c4.5 0 9-.2 13.4-.7 30.7-3.1 55.3-29.1 56.2-59.9.5-15.4.1-30.8.1-46.3s.4-30.9-.1-46.4zM394.8 500H434c6.5 0 12.8-.5 19.1-2.2 25.8-6.9 47-31.5 46.8-62.2-.1-28.1 0-56.2 0-84.4 0-7.1-1-14-3.2-20.7-7-21.4-27.2-43.8-62.1-43.9-26.9-.1-53.9-.1-80.8 0-9.6 0-19.1 1.4-27.9 5.7-23.4 11.5-36.6 30.3-37.2 56.4-.7 29.7-.2 59.4-.2 89 0 3.7.5 7.4 1.2 11 5.2 28 30.3 50 58.7 50.8 15.4.5 30.8.1 46.3.1.1.3.1.3.1.4z"/></svg>