<svg xmlns="http://www.w3.org/2000/svg" viewBox="0 0 500 500" style="enable-background:new 0 0 500 500" xml:space="preserve"><path d="M249 49.4c52.4.4 98.4 17.1 139.6 47.7 34.6 25.7 61.7 57.9 83.9 94.6 9.6 15.9 18 32.5 25.5 49.5 2.5 5.7 2.6 11.3.1 17-18.3 41.5-41.7 79.7-73.2 112.4-31 32.2-66.9 56.9-110.1 69.9-62.4 18.8-122 11-178.4-21.3-39.6-22.6-70.7-54.4-96.5-91.8-14.9-21.5-27.2-44.5-37.8-68.5-2.6-5.9-2.8-11.6-.2-17.6 17.7-40.4 40.5-77.6 70.8-109.9 25.8-27.4 55.4-49.3 90.1-64.1 27.8-11.8 56.9-17.7 86.2-17.9zm.9 297.6c53.5.1 97.3-43.4 97.4-96.7.1-53.7-43.5-97.7-97.2-97.5-57.5.3-97.9 46.9-97.7 97 .2 53.7 43.5 97.1 97.5 97.2zm-60.8-100c-1.4 35 26.7 63.9 61.6 63.3 33.4-.5 60.4-27.8 60.1-60.8-.3-33.3-28-60.7-61.3-60.4-2.7 0-5.4 0-7.8 1.4-6.2 31.4-18.8 43.2-51.4 48.1-.7 3-1.1 5.6-1.2 8.4z"/></svg>