<svg xmlns="http://www.w3.org/2000/svg" viewBox="0 0 500 500" style="enable-background:new 0 0 500 500" xml:space="preserve"><path d="M246.2 399.5c-24 .4-48-.3-72-1.9-18.5-1.3-37.1-2.1-55.3-5.8-25.5-5.2-47.2-17.4-63.5-38-11.6-14.7-17.2-31.8-17.8-50.5-.4-11.6.3-23 3.4-34.2 2.7-9.8 7-18.6 13.4-26.4 1.7-2.1 3.5-4.2 5.2-6.3 15.3-17.6 22.1-38.3 22.6-61.3.1-6.6.1-13.3.1-19.9.1-54.5 24.6-95.7 69.2-125.6C176.1 13 203.4 3.3 232.9.8c48.9-4.2 92.8 8.9 130.9 40.1 19.2 15.7 34 34.9 43.6 57.9 6.6 15.9 9.3 32.6 10.1 49.6.4 8.2.2 16.4.2 24.6.2 23.7 7.2 44.9 22.5 63.2 3.1 3.7 6.2 7.5 9 11.5 7.2 10.3 10.7 22 12.2 34.4 1.7 14.1 1.5 28.1-2.2 41.8-5.4 19.5-16.2 35.3-32.5 47.3-18.4 13.6-38.9 21.1-61.7 22.8-29.2 2.2-58.4 4.6-87.7 5.3-10.3.4-20.7.2-31.1.2zm-44.3 30.9c-6.3.7-12.1 2.8-17.3 6.5-5.5 3.9-8.2 9.2-7.5 16.1.9 10.1 5.7 18.2 13.1 24.7 33.5 29.4 84.4 29.7 118.1.7 7.2-6.2 12-13.7 13.7-23.2 1.4-7.5-1-13.5-7-18-5.2-4-11.3-6.1-17.8-6.9-15.9-1.8-32-1.1-48-1.6-15.7.6-31.6-.1-47.3 1.7z"/></svg>