<svg xmlns="http://www.w3.org/2000/svg" viewBox="0 0 500 500" style="enable-background:new 0 0 500 500" xml:space="preserve"><path d="M83.9 496.4c-14.8 0-29.5.5-44.3.5-1.3 0-2.6.1-3.9.1-7.2-.3-10.7-3-12.4-10.1-4-16.9-7.9-33.8-11.7-50.7-3.5-15.6-7.3-31.2-10.5-46.9-3.5-17.4 1-33.1 11.8-47 17.2-22.3 34.5-44.6 51.7-66.9 39.5-51.1 79-102.3 118.6-153.4.4-.5.8-1.1 1.2-1.6 4.7-5.8 9-6.4 15-1.7 13.6 10.7 27.2 21.6 40.8 32.4 9.7 7.7 19.6 15.1 28.9 23.2 13.7 11.9 38.1 5.8 41.7-16.4 1.8-10.8-2.9-19.4-11.3-26.2-21.6-17.4-43.3-34.8-65-52.1l-1.5-1.2c-6.9-5.7-7.7-10.8-2.3-17.8 5.6-7.4 11.4-14.8 17.1-22.2 2.5-3.3 5-6.5 7.5-9.8C277 .5 309.7-7.5 341.9 7.1c7.4 3.3 14.1 7.6 20.4 12.6C377.1 31.4 392 43 406.5 55.1c13.3 11.1 22.6 25 27.2 41.9 5.7 21.1 2 40.5-10.8 57.9-10.3 14-21.1 27.6-31.7 41.3-70.8 91.6-141.7 183.2-212.5 274.8-8.9 11.6-20.1 19.7-34.4 23-5.5 1.3-11.1 1.8-16.8 1.8-14.5.1-29.1.6-43.6.6 0 .3 0-.4 0 0zm333.6 3.6c18.2 0 36.5.2 54.7-.1 18.9-.3 31.8-18 26.8-36.1-3.7-13.1-14.4-20.8-29.5-20.8-51.2-.1-102.4 0-153.6 0-3.1 0-6.1.3-9 1-14.3 3.3-24 18.4-21 32.8 2.9 14 13.8 23.1 28.2 23.2 26.3.1 52.5 0 78.8 0h24.6z"/></svg>