<svg xmlns="http://www.w3.org/2000/svg" viewBox="0 0 500 500" style="enable-background:new 0 0 500 500" xml:space="preserve"><path d="M250.5.2c38.3 0 76.6-.3 114.8.1 28 .3 53.9 8.2 77 24.4 27.8 19.5 44.3 46.7 52.6 79.2 3.8 14.8 5.1 30 5.1 45.3-.1 67.4-.1 134.8 0 202.2 0 24.3-3.7 47.9-13.8 70.1-18.1 39.8-48.8 64.4-91.2 74.6-12.4 3-25 3.9-37.8 3.9-71.3 0-142.6-.1-213.9 0-23.4 0-45.9-3.8-67-14-35.1-17-57.3-45-68.8-81.8C2.8 389 .3 373.4.3 357.5.2 304.4.2 251.2.2 198.1c0-20.9-.6-41.8.5-62.7 1.6-32.1 11.2-61.7 31.8-87C53.1 23.2 80 8.6 111.8 2.7 122.6.7 133.5.1 144.4.1h106.1v.1zm-.3 219.8c-16.2-.1-29.8 13.2-30.2 29.6-.4 16.3 13.4 30.3 29.9 30.5 16.2.1 29.8-13.2 30.2-29.6.4-16.4-13.4-30.4-29.9-30.5zM168 250.1c.1-16.6-13.7-30.3-30.1-30.1s-29.7 13.5-29.7 29.9c0 16.6 13.6 30.3 30.1 30.2 16.2-.2 29.7-13.7 29.7-30zm223.8-.1c0-16.4-13.3-29.9-29.7-30-16.3-.1-29.9 13.4-30 29.7-.1 16.6 13.5 30.4 30 30.3 16.3 0 29.7-13.6 29.7-30z"/></svg>