<svg xmlns="http://www.w3.org/2000/svg" viewBox="0 0 500 500" style="enable-background:new 0 0 500 500" xml:space="preserve"><path d="M250.1 475.1H72c-36.3 0-65-23.9-71-59.6-2.4-14.5-.4-28.7 7.2-41.8C67.7 270.3 127.2 167 186.6 63.6c7.7-13.4 17.7-24.1 31.6-31.1 32.9-16.6 73.5-5.1 92.7 26.6 12 19.9 23.3 40.2 34.9 60.3 48.3 83.9 96.5 167.8 145 251.5 24 41.5-.7 94-48.5 103-4.6.9-9.3 1.2-14 1.2-59.5-.1-118.8 0-178.2 0zm21.7-241.2V207c0-3.7 0-7.4-.4-11.1-1.7-13-14.6-21.3-27.1-17.8-10.2 2.9-16.2 11-16.3 22.3-.1 22.2 0 44.5 0 66.7 0 1.2 0 2.3.1 3.5 1.2 10.8 9.5 19 20.3 20.1 9.4.9 19-5.5 22.2-14.8 1.2-3.4 1.3-6.9 1.3-10.4 0-10.6-.1-21.1-.1-31.6zm-21.8 98c-12.1 0-22.2 10.1-22 21.9.1 11.6 10.2 21.5 21.9 21.5 12.1.1 21.8-9.8 21.8-22.1-.1-11.8-9.6-21.3-21.7-21.3z"/></svg>