<svg xmlns="http://www.w3.org/2000/svg" viewBox="0 0 500 500" style="enable-background:new 0 0 500 500" xml:space="preserve"><path d="M250.5.1c6.4 0 12.9-.2 19.3 0 24 .7 45.1 18.6 49.8 42 .6 2.7.8 5.4.6 8.2-2 19.9 13.4 39.5 34.4 45.1 12.9 3.4 25.1 1.9 36.9-4.3 8.1-4.3 16.6-6.7 25.8-6.4 18 .5 32.6 7.9 42.7 22.7 8 11.8 15.1 24.2 21.5 36.9 11.5 22.9 3.7 50.4-17.7 64.5-2 1.3-4 2.5-5.9 3.8-21.8 14.8-29.2 47.4-5.7 71.3 2.5 2.5 5.6 4.2 8.6 6 14.9 9.2 24.8 21.9 26.4 39.9 1 10.8-1.7 21-7 30.4-6 10.7-12.3 21.3-18.9 31.7-15.3 24-45.7 31.9-70.4 17.5-29-16.8-69.5 2.7-70.8 40.2-1 28-22.2 49.3-50.3 50.1-13.5.4-27 .3-40.4 0-25-.5-49.2-20.5-50-49.8-.6-23-15.8-41.2-38.1-45.6-11-2.2-21.6-1-31.7 4.8-26 14.9-56.9 6.8-72.4-18.8-5.9-9.7-11.6-19.4-17.2-29.3-15.2-26.6-7.4-55.6 19-71.2 13.2-7.8 20.8-19.3 22.4-34.4 1.7-16.1-4-29.5-16.2-40.1-2.8-2.4-6-4.3-9.1-6.3-21.8-14.4-29.6-42.4-17.6-65.5 6.2-11.9 13-23.6 20.3-34.9C53.5 85.9 82 78.3 106.4 90.2c6.7 3.3 13.5 6.1 21 6.8 18.7 1.8 41.3-8.3 49.6-29.9 1.8-4.8 2.9-9.8 2.5-14.9-1.8-23.5 19.6-49.8 48.7-52 7.4-.5 14.8-.1 22.3-.1zm.4 320.5c4.5-.1 9.5-.4 14.5-1.4 52.4-10.9 74.4-72.5 40.7-113.7-23.7-29-67.5-34.6-98.3-12.6-27.4 19.6-37.3 53.5-24.6 84.1 10.8 26.3 37.4 43.6 67.7 43.6z"/></svg>