<svg xmlns="http://www.w3.org/2000/svg" viewBox="0 0 500 500" style="enable-background:new 0 0 500 500" xml:space="preserve"><path d="M252.1 329.8c23.5-.4 47 .9 70.3 3.6 25.7 3 51 7.7 74.9 18.3 9.9 4.4 19 10 27.1 17.3 27.1 24.4 27.3 70.3-2.9 94.5-12.2 9.8-26.2 16.3-41 21-19.6 6.3-39.8 9.6-60.3 11.9-36.9 4.1-73.8 4.3-110.8 3-29.9-1-59.7-3.8-88.9-11.4-18.3-4.7-35.8-11.2-51.1-22.6-27.5-20.4-31-53-20.4-76.9 5.4-12.2 14.5-21.2 25.5-28.4 15.1-9.9 31.9-15.5 49.3-19.7 17.9-4.3 36.1-6.8 54.4-8.4 12.3-1.1 24.6-2 36.9-2.2 12.4-.2 24.7 0 37 0zm124.5-197.1C376.7 57.3 316-.1 244.2 0c-73.5.1-132.6 58.5-132.8 131.8-.2 73.6 58.7 132.5 132.5 132.7 73.5.1 132.6-58.5 132.7-131.8z"/></svg>