<svg xmlns="http://www.w3.org/2000/svg" viewBox="0 0 500 500" style="enable-background:new 0 0 500 500" xml:space="preserve"><path d="M249.4 431.9c-22.9-.3-44.7-1-66.4-4.2-16.7-2.5-33.2-6-48.4-13.7-7-3.5-13.5-7.8-18.9-13.7-16.9-18.6-15.3-47.8 3.5-64.5 9.9-8.8 21.7-13.9 34.2-17.7 15.3-4.7 31.1-7 47-8.5 19.3-1.8 38.6-2.4 58-2 24.7.5 49.3 1.9 73.5 7.2 10.9 2.4 21.6 5.7 31.6 10.8 6.7 3.4 12.8 7.6 18 13.1 16.5 17.3 17 49.9-6.8 67.7-10.4 7.8-22.2 12.5-34.6 15.9-15.3 4.2-30.9 6.3-46.7 7.7-14.9 1.3-30 1.6-44 1.9zm95-267.7c0-53.6-41.9-96-95.5-96.1-54.2-.1-95.6 43.1-95.9 95.7-.3 53.5 42.4 96.6 95.5 96.7 51.9.1 95.9-40.9 95.9-96.3zM133.1 85c-7.9-1.2-15.9-1.3-23.9 0-57.7 9.5-86.5 72.8-57.1 122.3 17.2 28.9 44.1 40.8 77.5 38.7 7-.5 9.9-2.4 5.1-9.8-12.1-18.5-18.5-39.1-19.9-61-1.9-30 5.3-57.7 22-82.8 1-1.4 2.4-2.7 2.3-5-1.7-2.2-4-2.1-6-2.4zm227.8 3.6c.8 1.4 1.6 2.8 2.5 4.1 19.1 29.4 25.7 61.5 20 96.1-2.9 17.6-9.4 33.7-18.9 48.7-3.2 5-2.2 7.4 3.2 8 25.4 2.9 47.9-3.7 66.7-21.3 32.4-30.2 33.4-83.4 2.2-115.4-19-19.5-42.3-27.2-69.2-24-2.2.3-4.6.3-6.6 2.2 0 .9-.1 1.3.1 1.6zM377 281.4c10 5.5 19.2 12 27.5 19.9 20.3 19.4 30.8 43 29.7 71.3-.1 1.8-.2 3.5-.3 5.3-.1 4.7 1.4 6.2 6 5.5 2.8-.4 5.6-.9 8.4-1.5 12.7-3 24.9-7.2 35.3-15.4 22.2-17.6 21.7-51.1-1-68.1-8.3-6.1-17.6-9.9-27.5-12.3-26-6.5-52.5-8.2-79.2-8.4-.8 0-1.8-.3-2.6 1.2 1.1 1.4 2.5 1.8 3.7 2.5zm-252.8-3.6c-27 .1-53.9 2-80.2 8.5-9.9 2.5-19.2 6.3-27.3 12.6-12.6 9.9-18 23-16.4 38.8 1.4 13.8 8.4 24.2 20 31.7C31.5 376.7 44 380.5 57 383c8.4 1.6 9.3.7 8.8-7.9-1.5-23.9 5.2-45.3 20.4-63.8 9.9-12.1 21.9-21.7 35.6-29.3 1.7-.9 3.7-1.4 4.8-3.3-.9-1-1.7-.9-2.4-.9z"/></svg>