<svg xmlns="http://www.w3.org/2000/svg" viewBox="0 0 500 500" style="enable-background:new 0 0 500 500" xml:space="preserve"><path d="M187.8 488.3c-40.6-1.3-81-2.9-120.3-13.9-18-5-35.1-12-48.7-25.3-28-27.5-24.2-71.4 8-93.9 19.3-13.5 41.4-19.7 64-23.8 41.9-7.7 84.4-8.2 126.8-6.8 29.1.9 58.3 3.5 86.6 11.3 18.7 5.1 36.4 12.2 51.4 25.2 26.4 22.6 26.1 68.4-.8 90.6-20.8 17.1-45.6 23.8-71.2 28.6-7.6 1.4-15.3 2.8-23.1 3.4-24.2 1.7-48.4 3.1-72.7 4.6zM312.1 139c.2-70.7-54.7-127-123.8-127.3-67.5-.3-125 53.5-124.9 126.1.1 74 58.6 126.3 123.7 126 69.2 0 124.8-55.5 125-124.8zm71.5 49.5h-9.3c-14.8.1-25.1 9.7-25.1 23.4-.1 13.8 10.1 23.4 24.9 23.6 7 .1 14 .3 21 0 5.2-.2 6.8 1.9 6.6 6.9-.3 7-.1 14-.1 21 .1 14.2 9.3 23.7 22.5 23.8 13.4 0 23.1-9.8 23.4-23.8.1-7.2.2-14.4 0-21.6-.1-4.5 1.5-6.4 6.1-6.2 7.2.2 14.4.1 21.6 0 14.4-.2 24.7-10 24.8-23.5.1-13.4-10.3-23.3-24.6-23.6-7.2-.1-14.4-.2-21.6 0-4.5.1-6.4-1.5-6.2-6.1.2-7.4.2-14.8 0-22.2-.3-13.8-10.3-23.5-23.8-23.4-13 .2-21.9 9.7-22.1 23.6-.1 7.6-.1 15.2 0 22.8.1 3.7-1.5 5.3-5.2 5.2-4.3 0-8.6.1-12.9.1z"/></svg>