<svg xmlns="http://www.w3.org/2000/svg" viewBox="0 0 500 500" style="enable-background:new 0 0 500 500" xml:space="preserve"><path d="M428.9 216.1c-.5 94.3-57.9 172.9-139.4 203.7-32.3 12.2-65.7 16.2-100 12.1-48.6-5.8-90.3-26.2-125-60.5-32.1-31.7-52.3-70-60.5-114.5-8.3-45.6-3.3-89.8 16.5-131.8 26-54.8 67.3-93.6 125-112.8 74.7-24.8 143.8-12 205 37.5 42 33.9 66.4 78.8 75.5 132 1.9 11.6 2.4 23.3 2.9 34.3zm70.6 246.3c-1.4-8.3-4-15.8-11.7-20.6-1.6-1-3.1-2.4-4.6-3.6-19.9-16.1-39.7-32.1-59.6-48.2-12.1-9.7-28.9-6.8-37 6.3-6.2 10.1-5.5 22.3 2.5 31.6 17.7 20.5 35.5 41 53.5 61.2 9.3 10.5 23.6 13.5 36.3 8.4 12.7-5.1 20.8-17.1 20.8-31.6 0-.8.1-2.1-.2-3.5z"/></svg>