<svg xmlns="http://www.w3.org/2000/svg" viewBox="0 0 500 500" style="enable-background:new 0 0 500 500" xml:space="preserve"><path d="M249.5 500.2c-38 0-75.9.4-113.9-.1-30.5-.4-58.6-9.3-82.9-28.1-25.2-19.4-40.2-45.3-47.9-75.9-3.6-14.5-5.1-29.2-5-44.2 0-67.9.1-135.8 0-203.7 0-25.6 4.2-50.3 15.5-73.4 18.8-38.5 49.5-62.1 91.2-71.5C118.2.7 130-.4 142-.4c72.2 0 144.4.1 216.6 0 22.6 0 44.4 3.8 64.9 13.5 35.7 17 58.2 45.2 69.7 82.6 4.7 15.2 7.2 30.8 7.2 46.8.1 71.8 0 143.6 0 215.4 0 2.5 0 5.1-.2 7.6-1.7 23.7-7.2 46.3-18.9 67.2-19.2 34.2-48.4 55-86.4 63.9-13 3-26.3 3.8-39.6 3.8H249.6c-.1-.1-.1-.1-.1-.2zm-30.9-250.9c-1 2.4-2.5 3.4-3.7 4.7-12.5 12.4-24.9 24.8-37.4 37.3-1.5 1.5-3.1 3-4.4 4.7-5.1 6.7-6.6 14.1-3.2 22.1 3.2 7.6 9 12.1 17.2 13.4 7.8 1.2 14.1-1.7 19.6-7.1 13-13 26.1-25.9 39.1-38.9 1.4-1.3 2.4-3.1 4.4-3.7 2.2.7 3.3 2.6 4.8 4.1 13.5 13.3 26.9 26.7 40.5 40 6 5.9 13.4 7.3 21.2 4.8 8-2.6 13.1-8.2 14.8-16.7 1.6-8-1-14.6-6.6-20.2l-39-39c-1.5-1.5-3.4-2.7-4.1-4.9.8-1.9 2.4-3 3.8-4.4 12.3-12.3 24.6-24.6 36.9-37 1.8-1.8 3.7-3.6 5.1-5.6 5.3-7.3 6-15.3 1.8-23.2-4-7.7-10.7-11.7-19.5-11.7-6.7 0-12 3-16.6 7.6-13.1 13.2-26.2 26.4-39.3 39.5-1.2 1.2-2.1 2.9-4 3.1-.4-.2-.8-.4-1-.7-8.3-8.3-16.6-16.6-24.9-24.8-6.1-6.1-12.1-12.2-18.3-18.2-5.9-5.7-13-7.9-21-5.9-16.3 4.1-22 23.7-10.4 36.4 5.1 5.6 10.7 10.8 16.1 16.2l28.1 28.1z"/></svg>