<svg xmlns="http://www.w3.org/2000/svg" viewBox="0 0 242.75 499.12"><g id="Calque_2" data-name="Calque 2"><g id="Calque_1-2" data-name="Calque 1"><path d="M0,467.07c5.67-7.53,11-15.38,17.07-22.54,24.66-28.92,49.55-57.65,74.39-86.41q36.6-42.4,73.28-84.73c6-6.91,11.78-14,17.9-20.73,2.5-2.76,2.06-4.69-.16-7.24q-30.22-34.74-60.33-69.61Q86.86,134.9,51.64,93.94C37,77,22.22,60.13,7.73,43.05,4.66,39.43,2.55,35,0,30.94V17C2.92,9.06,8.62,3.77,15.93,0H31.87c8.56,3.16,13.65,10.33,19.27,16.84Q109.85,85,168.52,153.09c21.8,25.28,43.22,50.9,65.64,75.62,11.75,12.95,11,28.51.42,40.4-32.35,36.34-63.8,73.48-95.57,110.34Q93.16,432.67,47.34,485.92c-4.42,5.13-8.74,10.5-15.89,12.24C18.55,501.29,8.23,496.77,1.82,485c-.55-1-1.21-2-1.82-3Z"/></g></g></svg>