<svg xmlns="http://www.w3.org/2000/svg" viewBox="0 0 293.54 499.32"><g id="Calque_2" data-name="Calque 2"><g id="Calque_1-2" data-name="Calque 1"><path d="M293.54,256.49c-10.6,13.15-20.92,26.55-31.86,39.42-22.26,26.2-44.85,52.13-67.33,78.15s-44.77,51.77-67.17,77.63c-11.31,13.06-22.72,26-33.95,39.15-4.92,5.74-11.24,8.24-18.46,8.32-16.61.19-33.22.23-49.82,0-10.75-.16-19.06-5-23-15.27-3.62-9.49-2.35-18.54,4.57-26.53q41.1-47.46,82.09-95,42.84-49.56,85.73-99.1c3-3.51,5.83-7.27,9-10.65,2.32-2.48,2.17-4.41,0-6.86Q163.6,223,143.93,200.14q-30.62-35.46-61.2-70.93Q55.36,97.54,27.92,65.93C20.86,57.76,14,49.42,6.74,41.44-3.65,30-2.26,9.19,14.41,1.38A17.32,17.32,0,0,0,16.48,0H82.26C87.36,4.11,93,7.69,97.44,12.44c9,9.71,17.36,20.07,26,30.1q30.78,35.55,61.61,71.06c29.07,33.63,58.19,67.21,87,101,7.6,8.9,14.3,18.57,21.41,27.88Z"/></g></g></svg>