<svg xmlns="http://www.w3.org/2000/svg" viewBox="0 0 499.12 242.75"><g id="Calque_2" data-name="Calque 2"><g id="Calque_1-2" data-name="Calque 1"><path d="M32.06,0c7.53,5.67,15.37,11,22.53,17.07C83.51,41.73,112.24,66.62,141,91.46q42.39,36.6,84.73,73.28c6.9,6,14,11.78,20.72,17.9,2.76,2.5,4.69,2.06,7.24-.16q34.76-30.22,69.62-60.33,40.89-35.29,81.87-70.51C422.16,37,439,22.22,456.08,7.73c3.62-3.07,8.05-5.18,12.11-7.73h14c7.9,2.93,13.2,8.62,17,15.93V31.87C496,40.43,488.8,45.52,482.28,51.14Q414.18,109.85,346,168.52c-25.28,21.8-50.9,43.22-75.61,65.64-13,11.75-28.52,11-40.41.42-36.34-32.35-73.47-63.8-110.34-95.57Q66.47,93.16,13.2,47.34C8.08,42.92,2.7,38.6,1,31.45-2.17,18.55,2.36,8.22,14.12,1.82c1-.55,2-1.21,3-1.82Z"/></g></g></svg>