<svg xmlns="http://www.w3.org/2000/svg" viewBox="0 0 499.36 293.64"><g id="Calque_2" data-name="Calque 2"><g id="Calque_1-2" data-name="Calque 1"><path d="M499.36,273.07c-1.68,6.63-4.62,12.37-10.63,16.22-9.61,6.14-21.51,5.77-30.17-1.65-25-21.4-49.79-43-74.69-64.45Q341.43,186.59,299,150c-15.22-13.12-30.51-26.16-45.57-39.45-3.14-2.76-5.11-2.35-8,.16q-43.31,37.53-86.74,74.88-46.54,40.25-93,80.59c-8.66,7.49-17.18,15.19-26.21,22.22a24.58,24.58,0,0,1-37.72-9.65,22.77,22.77,0,0,1-1.53-8.7c-.14-16.77.2-33.55-.18-50.31a25.33,25.33,0,0,1,9.33-21Q29,181.86,48.55,164.9q31.13-26.84,62.29-53.65,42.47-36.57,84.94-73.15C206.72,28.66,217.47,19,228.56,9.76,233,6.08,238.08,3.23,242.87,0h14c8.36,6.47,17,12.6,25,19.48,32.87,28.18,65.52,56.61,98.29,84.89q53.13,45.84,106.35,91.57c5.84,5,11.3,10.31,12.85,18.33Z"/></g></g></svg>