<svg xmlns="http://www.w3.org/2000/svg" viewBox="0 0 499.36 293.64"><g id="Calque_2" data-name="Calque 2"><g id="Calque_1-2" data-name="Calque 1"><path d="M0,20.57C1.68,13.94,4.61,8.2,10.63,4.35,20.24-1.79,32.14-1.42,40.8,6c25,21.4,49.79,43,74.68,64.45q42.44,36.6,84.9,73.18c15.22,13.12,30.51,26.16,45.58,39.45,3.14,2.77,5.11,2.35,8-.16Q297.25,145.39,340.7,108q46.55-40.25,93-80.59c8.67-7.49,17.19-15.19,26.22-22.22a24.58,24.58,0,0,1,37.72,9.65,22.77,22.77,0,0,1,1.53,8.7c.14,16.77-.21,33.55.18,50.31a25.31,25.31,0,0,1-9.34,21q-19.62,16.91-39.21,33.86-31.12,26.85-62.28,53.65Q346,219,303.58,255.54c-10.94,9.44-21.69,19.09-32.79,28.34-4.41,3.68-9.51,6.53-14.3,9.76h-14c-8.36-6.47-17-12.6-25-19.48C184.62,246,152,217.55,119.19,189.26Q66.08,143.44,12.85,97.7C7,92.67,1.55,87.39,0,79.37Z"/></g></g></svg>