<svg xmlns="http://www.w3.org/2000/svg" viewBox="0 0 243.48 499.48"><g id="Calque_2" data-name="Calque 2"><g id="Calque_1-2" data-name="Calque 1"><path d="M243.48,31.94c-5.67,7.52-11,15.37-17.08,22.53q-37,43.38-74.38,86.42-36.62,42.39-73.29,84.73c-6,6.9-11.77,14-17.9,20.72-2.5,2.76-2.06,4.69.16,7.24q30.24,34.74,60.33,69.62,35.31,40.89,70.52,81.87c14.63,17,29.41,33.8,43.91,50.89,3.07,3.61,5.18,8.05,7.73,12.1v14c-1.89,3.1-3.52,6.39-5.69,9.29-8.27,11-28.45,10.47-36.79.69-9.16-10.74-18.45-21.36-27.68-32q-28.18-32.6-56.34-65.2-33.18-38.47-66.29-77c-14.53-16.85-29.14-33.64-43.63-50.52-9.73-11.33-9.25-24.36.5-35.58,24.51-28.2,48.79-56.6,73.19-84.89q29.93-34.71,59.92-69.36Q168,45.74,195.29,14C200.63,7.8,206,1.67,214.59,0h9c9.84,1.88,15.75,8.39,19.92,17Z"/></g></g></svg>