<svg xmlns="http://www.w3.org/2000/svg" viewBox="0 0 293.64 499.36"><g id="Calque_2" data-name="Calque 2"><g id="Calque_1-2" data-name="Calque 1"><path d="M273.07,0c6.62,1.68,12.37,4.61,16.22,10.63,6.14,9.61,5.77,21.51-1.65,30.16-21.39,25-43,49.79-64.44,74.69q-36.62,42.44-73.19,84.9c-13.12,15.22-26.16,30.51-39.45,45.58-2.76,3.13-2.35,5.11.16,8,25,28.86,49.89,57.84,74.88,86.74q40.25,46.55,80.58,93c7.5,8.67,15.2,17.18,22.23,26.21a24.59,24.59,0,0,1-9.65,37.73,23,23,0,0,1-8.7,1.53c-16.77.14-33.54-.21-50.31.18a25.29,25.29,0,0,1-21-9.34q-16.92-19.62-33.87-39.2-26.84-31.14-53.65-62.29Q74.68,346.05,38.1,303.58C28.66,292.64,19,281.89,9.76,270.79c-3.68-4.41-6.53-9.51-9.76-14.3v-14c1.8-3,3.24-6.25,5.46-8.87,12.43-14.68,25-29.23,37.61-43.78q37.29-43.06,74.64-86.11Q157.24,58,196.6,12.1C201.44,6.48,206.66,1.51,214.27,0Z"/></g></g></svg>