<svg xmlns="http://www.w3.org/2000/svg" viewBox="0 0 499.48 243.48"><g id="Calque_2" data-name="Calque 2"><g id="Calque_1-2" data-name="Calque 1"><path d="M467.54,243.48c-7.53-5.67-15.37-11-22.53-17.07-28.92-24.66-57.65-49.55-86.42-74.39q-42.39-36.62-84.73-73.29c-6.9-6-14-11.77-20.72-17.89-2.76-2.51-4.69-2.07-7.24.15q-34.76,30.24-69.62,60.33-40.89,35.31-81.87,70.52c-17,14.63-33.8,29.41-50.89,43.91-3.61,3.07-8.05,5.18-12.11,7.73h-14c-3.1-1.88-6.39-3.52-9.29-5.69-11-8.27-10.47-28.45-.69-36.79,10.74-9.16,21.36-18.45,32-27.68Q72.1,145.15,104.7,117q38.47-33.18,77-66.29c16.85-14.53,33.63-29.14,50.52-43.63,11.33-9.73,24.36-9.25,35.58.5,28.2,24.5,56.6,48.79,84.89,73.19q34.71,29.93,69.35,59.92,31.68,27.33,63.41,54.62c6.21,5.34,12.35,10.7,14,19.3v9c-1.88,9.84-8.4,15.75-17,19.92Z"/></g></g></svg>