<svg xmlns="http://www.w3.org/2000/svg" viewBox="0 0 494.79 495.2"><g id="Calque_2" data-name="Calque 2"><g id="Calque_1-2" data-name="Calque 1"><path d="M494.78,247.3c.22,58.91-18.18,111.43-55.54,157-41.05,50-94,79.85-158,88.47-69.62,9.37-132.91-7.85-187.92-51.65C40.71,399.21,9.86,344.14,1.9,277.32c-6.75-56.56,4.45-109.84,34.26-158.81a23.35,23.35,0,0,1,31.73-8.45c10.55,5.93,14.19,19.25,8.65,30.79-6.75,14.07-15,27.7-19.65,42.45C34.93,253.24,46,317.93,92.2,375.2c34,42.14,78.84,66.5,132.68,72.44,56.57,6.24,107.56-8.73,151.36-45.4,41.17-34.47,65.56-78.58,71.4-132.18,6.31-57.89-9.51-109.59-47.3-153.72C367.41,77.9,325.32,55,274.88,47.93a201.07,201.07,0,0,0-72.77,3.3c-13.24,3-25.79-4.11-28.53-16-3.2-13.91,3.68-25.47,17.66-28.73A249,249,0,0,1,368.33,31.23,241.15,241.15,0,0,1,432.2,82.45c21.07,23.83,37.4,50.38,48.15,80.33,8.83,24.59,14.22,49.83,14.43,76.05C494.8,241.65,494.78,244.48,494.78,247.3ZM287.86,224.46q-30.18,0-60.36,0c-23.28,0-46.56-.09-69.84,0-12.94.07-22.38,9.66-22.46,22.37-.09,14.46,9,23.68,23.62,23.7q64.6.06,129.21,0c1.87,0,3.75.17,6.5.3l-4,6.27c-5.84,9.09-12.25,17.87-17.39,27.34-8.18,15.09,2.78,32.7,19.82,33,9.25.19,15.93-3.75,20.84-11.28q21-32.17,41.92-64.36,9.42-14.46-.08-28.93c-12.12-18.49-24.18-37-36.34-55.49-3.1-4.71-6-9.65-9.81-13.76-6.46-7-17.89-8.36-26.8-3.89-8.21,4.11-13.42,13.46-11.76,22.79A38.3,38.3,0,0,0,276,195.38c5.72,9.49,12,18.65,18.73,29.08ZM112.9,44.83c-13.12,0-22.56,9.47-22.61,22.67-.05,13.74,9.09,23.33,22.34,23.43S135.49,81.28,135.51,68C135.52,54.38,126.2,44.82,112.9,44.83Z"/></g></g></svg>