<svg xmlns="http://www.w3.org/2000/svg" viewBox="0 0 494.93 496.28"><g id="Calque_2" data-name="Calque 2"><g id="Calque_1-2" data-name="Calque 1"><path d="M.05,251.86c-.43-50,11.79-92.62,35.32-132.17,5.5-9.25,15-14,24.2-12.13,11.37,2.29,17.65,8.87,19.42,20.51,1,6.73-2.43,12.13-5.17,17.87C67.65,158.83,60.54,171.48,56.2,185c-16,49.72-14.3,99.13,8.07,146.56,30.56,64.84,81.63,104.63,152.42,115.71C282.36,457.54,340,438.49,388.11,392c30.76-29.74,50-65.89,57.4-108,7.15-40.88,3-80.74-14.49-118.66-24-52-63-88.09-116.77-107.64-26.72-9.72-54.48-13.57-82.9-10.58-10.38,1.09-20.71,2.88-31,4.68C188,54,176,46.81,173.28,35.32,170.14,22.16,177.12,9.86,190,6.76A247.94,247.94,0,0,1,382.18,39.84c33.44,21.61,60,49.92,79.92,84.4A237.92,237.92,0,0,1,493.21,218c5,45.05-.69,88.67-19.21,130.39a245.45,245.45,0,0,1-54.1,77.84c-37.75,36.42-82.56,59.15-134.45,67-62.79,9.53-121.16-3.08-174.27-37.88C66.41,426,34.61,385.76,15.6,335.59,4.92,307.42-.57,278.28.05,251.86ZM219.45,292c-9.09-5.85-18-12-27.28-17.53-11.2-6.73-24.73-3.5-31.55,7.09-6.94,10.78-4.09,24.6,7.07,32q33.48,22.19,67.25,43.92c8.15,5.24,16.81,5.21,25-.05q33.75-21.76,67.24-43.93c11-7.27,13.87-20.87,7.23-31.59-6.74-10.87-20.46-14.21-31.86-7.39-7.42,4.43-14.5,9.42-21.77,14.1-3.14,2-6.37,3.88-10.67,6.48v-7.5c0-43.31.09-86.61-.15-129.92a24.63,24.63,0,0,0-3.37-12.19C261,136.38,250.63,133,240.47,136c-9.82,2.93-15.77,11.24-15.77,22.23q0,64.71,0,129.42V295C222.19,293.59,220.78,292.85,219.45,292ZM112.84,44.93C99.84,44.8,90,54.76,90,68s9.73,23.25,22.74,23.22,22.66-10,22.64-23.33C135.31,54.88,125.68,45.05,112.84,44.93Z"/></g></g></svg>