<svg xmlns="http://www.w3.org/2000/svg" viewBox="0 0 243.71 159.02"><g id="Calque_2" data-name="Calque 2"><g id="Calque_1-2" data-name="Calque 1"><path d="M67.43,0h10c8.09,3.15,14.43,8.05,17.06,16.77C97.55,27,93.54,35.17,87,42.65c-3.31,3.78-6.47,7.68-9.7,11.52l.61,1.26h6.24q65.2,0,130.41,0c16.63,0,23.56,4.86,29.17,20.07v8c-5.51,15.08-11.27,19.1-27.37,19.1q-66.71,0-133.42,0c-2,0-4,.17-7.07.3,5.62,6.83,10.72,12.5,15.21,18.6,7.12,9.68,5.52,23.89-3.11,31.18-10.29,8.69-23.89,8.62-32.62-1.14Q30.49,123.77,6.54,95.19c-9.16-11-8.53-21.9.81-32.8C22.11,45.15,37.11,28.11,51.72,10.76A33,33,0,0,1,67.43,0Z"/></g></g></svg>