<svg xmlns="http://www.w3.org/2000/svg" viewBox="0 0 495.11 495.35"><g id="Calque_2" data-name="Calque 2"><g id="Calque_1-2" data-name="Calque 1"><path d="M495.11,243.59c-.21,64.5-19.56,118-58.39,163.84-39.66,46.89-90.28,75.39-151,84.77-62.76,9.69-121.16-3-174.27-37.75C66.63,425.18,35,385,15.74,335,2.67,301-1.74,265.72.6,229.68c2.58-40,14.77-77.22,35.71-111.46a23.26,23.26,0,0,1,31.43-8.17C78.35,116,82.08,129.32,76.6,140.8c-6.92,14.53-15.2,28.65-20.15,43.84-16.15,49.56-14.35,98.91,8,146.25C95,395.61,146.1,435.06,216.85,446.44c59.26,9.54,113-5.59,159.26-44.11,41.27-34.36,65.81-78.51,71.39-132.15,6.55-63.05-12.17-117.84-56.45-163.52-33-34-73.38-53.3-120.19-59.19a195.59,195.59,0,0,0-68.35,3.78c-11.26,2.57-21.22-1.15-26.51-10-7-11.8-2.53-30.47,13.71-34.38A249,249,0,0,1,345,19.86q75.93,32.88,117.53,104.57a241.43,241.43,0,0,1,30.91,93.08C494.64,227.55,494.75,237.72,495.11,243.59Zm-277.6,35.18q70.11,0,140.21,0a21.88,21.88,0,0,0,22.21-20.08c1.21-12.2-6.3-22.8-18-25.05a57.6,57.6,0,0,0-10.9-1q-66.36-.09-132.72,0h-7.06c5.62-6.61,10.28-12,14.78-17.43,8.62-10.5,7.26-24.37-3.16-33.4-8.88-7.68-23.12-6.61-31.42,2.88-15.86,18.14-31.63,36.37-47.1,54.84-9.53,11.38-9.42,21.42-.22,32.87,5.93,7.39,12.23,14.47,18.42,21.64,9.77,11.33,19.47,22.72,29.43,33.87A21.07,21.07,0,0,0,211.8,335c18.62-3.08,26.09-23.76,14-38.3-4.73-5.7-9.6-11.28-15.23-17.89ZM113,44.86c-13-.12-22.87,9.81-22.88,23S99.89,91.1,112.9,91.06s22.65-9.94,22.63-23.28C135.51,54.8,125.88,45,113,44.86Z"/></g></g></svg>