<svg xmlns="http://www.w3.org/2000/svg" viewBox="0 0 499.32 425.51"><g id="Calque_2" data-name="Calque 2"><g id="Calque_1-2" data-name="Calque 1"><path d="M60.88,0c5.1,3.06,7,7.77,7,13.47-.28,41.36,9.79,80.28,27.9,117.25A268.29,268.29,0,0,0,160,214.44a274.17,274.17,0,0,0,69.34,44.65A276.12,276.12,0,0,0,301,279.92c4.11.64,5.31-1,5.28-4.83-.1-17,.65-34-.26-50.87-.68-12.58,10.89-21.38,23.18-14.09,26.3,15.61,53,30.62,79.45,45.91q41,23.67,82.05,47.4c5.41,3.12,8.88,7.14,8.64,13.93-.21,6.4-3.89,9.89-8.89,12.77q-69.56,40.13-139.08,80.28c-7.34,4.24-14.58,8.7-22.09,12.61-10.47,5.47-23.34,2.24-23.1-13,.28-18.12-.1-36.25.16-54.36.08-5.24-1.45-6.9-6.88-7.55a335.14,335.14,0,0,1-135.21-46.64,332.8,332.8,0,0,1-71.6-57.74C52,200,23.28,149.6,9.66,91.28c-4.14-17.72-6-36-8.9-54C.58,36.16.26,35.05,0,33.92V0Z"/></g></g></svg>