<svg xmlns="http://www.w3.org/2000/svg" viewBox="0 0 159.04 244.05"><g id="Calque_2" data-name="Calque 2"><g id="Calque_1-2" data-name="Calque 1"><path d="M159,77.68c-2.59,6-5.63,11.65-11.76,14.89-8.88,4.7-17.56,4.45-25.73-1.4-4.57-3.27-8.71-7.12-13.06-10.7-1.21-1-2.47-1.93-4.91-3.84v7.08q0,65.93,0,131.86c0,8-1.29,15.52-7.35,21.47-7,6.86-17.15,9.06-26.14,4.93s-13.61-11.19-13.6-21.25q0-68.41,0-136.84v-8c-5.3,4.41-9.71,7.89-13.91,11.63-5.63,5-11.83,8.58-19.59,8.27C12.85,95.35,5.92,90.2,2,80.9-1.73,72-.33,62.64,6.87,56.26Q35.67,30.75,65.12,6C68.74,3,74,1.94,78.54,0h2C85.71,2.38,91.67,3.81,96,7.3c16.51,13.46,32.49,27.58,48.67,41.44C150.8,54,157,59.27,159,67.72Z"/></g></g></svg>