<svg xmlns="http://www.w3.org/2000/svg" viewBox="0 0 499.29 445.74"><g id="Calque_2" data-name="Calque 2"><g id="Calque_1-2" data-name="Calque 1"><path d="M499.29,247.63c-2.11,10.57-3.75,21.25-6.41,31.68-8.84,34.61-25.5,65.05-49.28,91.76C415,403.22,380.12,425.74,338.69,437c-68.19,18.51-131.83,7.73-189.84-33C107.66,375.11,80.26,336,64.94,288.2c-5.09-15.9-7.36-32.33-9.08-48.9C54.08,222,58.2,225.22,41.17,224.91c-8.31-.14-16.63,0-24.94,0C3,224.73-4.16,212.66,2.58,201.17c7.74-13.19,16-26,24.18-39,13.81-22,28.08-43.61,41.4-65.85,7-11.7,21.19-12.89,29.46.53,20.58,33.39,41.69,66.45,62.57,99.64a68.77,68.77,0,0,1,3.53,6c5.58,11.22-1.36,22.88-14,23.19-10.64.25-21.29,0-31.93.07-6.44,0-6.92.26-6.47,6.83,1.37,19.89,5.63,39.18,14.09,57.28,21.85,46.71,57.21,79,106.92,92.69,64.15,17.69,120.43,1.47,167-46a151.52,151.52,0,0,0,41.06-77.42c11.6-57.79-2.5-108.67-43-151.85-22-23.42-48.7-39.22-79.86-46.59C273.63,50.36,231.69,56,192.5,79c-9.86,5.8-20,7.55-30.29,1.77-18.31-10.32-19.1-36.49-1.2-47.66,27.32-17,57.12-27.24,89.14-31.35A220.79,220.79,0,0,1,422,53.84a222.59,222.59,0,0,1,41.38,47,217.77,217.77,0,0,1,34.29,90.6c.34,2.45,1.06,4.85,1.6,7.28Z"/></g></g></svg>