<svg xmlns="http://www.w3.org/2000/svg" viewBox="0 0 243.7 159.22"><g id="Calque_2" data-name="Calque 2"><g id="Calque_1-2" data-name="Calque 1"><path d="M0,83.48v-8c5.51-15.07,11.28-19.1,27.33-19.1H168c-2.4-3-3.88-5-5.42-6.82-3.26-4-6.75-7.74-9.78-11.86-6.59-9-6.57-21.56,1.2-29.23,4-3.95,10.14-5.75,15.31-8.52h6c6.3,1.27,11.16,4.74,15.28,9.54,15.33,17.82,30.95,35.4,46,53.45,9.93,11.89,9.3,22.61-.83,34.36-15.34,17.81-30.59,35.7-46,53.44-6,6.89-13.83,9.79-22.83,7.83-9.17-2-15.1-7.91-17.75-17-2.95-10.09,1.25-18,7.64-25.37,3.29-3.77,6.45-7.65,9.67-11.48l-.64-1.25h-6.28q-65.19,0-130.37,0C12.54,103.53,5.62,98.68,0,83.48Z"/></g></g></svg>