<svg xmlns="http://www.w3.org/2000/svg" viewBox="0 0 495.47 495.33"><g id="Calque_2" data-name="Calque 2"><g id="Calque_1-2" data-name="Calque 1"><path d="M0,247.38c.22-46.14,12.51-88.69,36.06-128.14,5.55-9.3,15.23-13.82,24.82-11.72C71.94,110,79.1,117.11,79.36,128.6c.12,5.57-2.72,11.42-5,16.79-5.54,12.79-12.87,24.93-17.18,38.09C40.72,233.55,42.2,283.36,65,331.14,96.31,397,148.47,436.8,221,446.85c65.15,9,121.9-10.59,168.92-56.86,33.45-32.92,52.85-72.93,58.05-119.6,4.37-39.12-1.13-76.94-19.39-111.89C396,96.17,345,58.61,274.9,48.05c-24.45-3.68-48.7-2.1-72.77,3.32-10.58,2.39-20.37-1.49-25.66-9.92-5-8-4.69-19.39,2-27a25.92,25.92,0,0,1,12.37-7.61A236.53,236.53,0,0,1,265.52.66,245.09,245.09,0,0,1,364.9,29.29c41.79,22.41,74.41,54.33,98.1,95.37a236.24,236.24,0,0,1,30.72,92.62c5,45-.6,88.5-19.07,130.15A244.66,244.66,0,0,1,421,424.81c-37.77,36.6-82.68,59.43-134.74,67.37-63,9.6-121.73-2.67-174.67-38-61.65-41.12-98-99.08-108.8-172.59C1.1,270.31.89,258.8,0,247.38ZM225.26,208.3c0,42.91-.09,85.83.14,128.74a26.14,26.14,0,0,0,3.24,12.71c5.58,9.33,16.18,12.74,26.47,9.55,9.76-3,15.49-11.26,15.49-22.4q0-64.62,0-129.23c0-2,.3-4,.5-6.7,2.1,1.22,3.4,1.91,4.64,2.7,9.09,5.84,18,11.94,27.29,17.5,11.4,6.85,25.14,3.48,31.87-7.37s3.7-24.28-7.28-31.54q-33.5-22.15-67.29-43.86c-8-5.13-16.55-5.29-24.53-.18q-34.23,21.93-68.12,44.41a23,23,0,0,0,24.79,38.73c7.3-4.3,14.24-9.2,21.38-13.79,3.32-2.14,6.71-4.16,11.38-7ZM113.4,44.86c-13-.12-22.85,9.79-22.86,23s9.7,23.2,22.72,23.16,22.64-9.92,22.61-23.26C135.85,54.77,126.25,45,113.4,44.86Z"/></g></g></svg>