<svg xmlns="http://www.w3.org/2000/svg" viewBox="0 0 499.71 401.67"><g id="Calque_2" data-name="Calque 2"><g id="Calque_1-2" data-name="Calque 1"><path d="M0,73.82c5.19-9.5,13.57-12.12,23.86-12.07q64.86.31,129.73,0c10.86-.06,18.46,3.84,24.56,13,25.1,37.58,50.65,74.87,76,112.29s50.48,74.59,75.67,111.92c1.79,2.67,3.69,4.33,7.19,4.32,31.94-.09,63.87-.05,95.81-.07a31.43,31.43,0,0,0,3.63-.52c-1.56-1.71-2.58-2.92-3.69-4-8.68-8.72-17.49-17.32-26-26.15-6-6.18-6.87-13.16-3.11-20.58,3.5-6.91,10.89-11.4,18.62-9.27,5.12,1.42,10,5,14,8.71,9.61,8.88,18.67,18.35,27.88,27.65,8.63,8.72,17.17,17.53,25.77,26.28,1.16,1.18,2.43,2.26,3.68,3.35,7.31,6.44,8.35,18.07,1.47,25.05q-31.5,32-63.52,63.46c-7.07,6.94-17.94,5.72-24.94-2-6.64-7.29-6-17.53,1.55-25q12.75-12.63,25.5-25.27c1.14-1.13,2.16-2.36,4.21-4.62h-7c-34.43,0-68.86-.23-103.29.15-9.64.11-16.06-3.8-21.16-11.4q-31.56-47-63.26-93.87-34.38-50.79-68.88-101.5c-6.9-10.17-13.94-20.26-20.59-30.6-2.22-3.45-4.88-4.31-8.68-4.3-40.75.09-81.5-.07-122.25.15C12.71,98.92,4.86,96,0,86.78ZM414.17,0c-15.26,8.4-17,20.69-4.64,33Q421,44.41,432.45,55.9c1.22,1.22,2.37,2.52,4.6,4.91h-7.28c-34.26,0-68.51.11-102.76-.07-9.17-.05-15.93,3.36-20.94,11-13.12,20-26.5,39.86-39.62,59.87-6.3,9.6-2.75,21.54,7.54,26.42,8.3,3.94,17.62,1.24,23.14-6.87,10.28-15.11,20.58-30.21,30.63-45.48,3.18-4.84,6.69-7.15,12.91-7.07,29.76.37,59.53.17,89.29.17h7.09c-2.18,2.34-3.24,3.54-4.37,4.67-8.68,8.72-17.58,17.23-26,26.17-10,10.64-4.86,26.69,9.39,29.78,7.1,1.54,12.57-1.47,17.42-6.34Q463,123.39,492.7,93.81c9.18-9.17,9.29-18.69.23-27.8-15.12-15.2-30.13-30.5-45.41-45.54-7.2-7.09-14.9-13.66-22.37-20.47ZM0,327.19c3.84,9.13,11.18,12.88,20.6,12.89q68.12.1,136.21,0c8,0,14.5-3.07,19-10,3.64-5.56,7.42-11,11.14-16.53,11.17-16.52,22.41-33,33.49-49.56,4.54-6.8,4-14.27-1-20.34-8.25-10-21.74-9.83-29.38,1.08-12.29,17.55-24.11,35.44-35.81,53.4-2.67,4.1-5.74,5.08-10.29,5.07-40.41-.15-80.83,0-121.24-.17C12.69,303,4.81,306,0,315.22Z"/></g></g></svg>