<svg xmlns="http://www.w3.org/2000/svg" viewBox="0 0 159.04 244.05"><g id="Calque_2" data-name="Calque 2"><g id="Calque_1-2" data-name="Calque 1"><path d="M0,166.37c2.59-6,5.63-11.65,11.76-14.89,8.88-4.69,17.55-4.44,25.73,1.4,4.56,3.27,8.71,7.13,13,10.7,1.21,1,2.47,1.94,4.92,3.85v-7.09q0-65.93,0-131.85c0-8,1.29-15.53,7.34-21.48C69.8.16,80-2,89,2.08s13.61,11.19,13.6,21.26q-.06,68.41,0,136.83v8c5.29-4.41,9.71-7.89,13.9-11.62,5.63-5,11.83-8.59,19.6-8.27,10.13.4,17.06,5.55,21,14.86,3.75,8.92,2.34,18.26-4.85,24.63q-28.8,25.52-58.26,50.28c-3.61,3-8.9,4-13.41,6h-2c-5.19-2.38-11.14-3.81-15.43-7.3-16.51-13.46-32.48-27.58-48.67-41.44C8.24,190,2,184.78,0,176.33Z"/></g></g></svg>