<?xml version="1.0" encoding="utf-8"?>
<!-- Generator: Adobe Illustrator 25.2.0, SVG Export Plug-In . SVG Version: 6.00 Build 0)  -->
<svg version="1.1" id="Calque_1" xmlns="http://www.w3.org/2000/svg" xmlns:xlink="http://www.w3.org/1999/xlink" x="0px" y="0px"
	 viewBox="0 0 1000 1000" style="enable-background:new 0 0 1000 1000;" xml:space="preserve">
<path d="M1000,188.8c-0.2,0.2-0.7,0.4-0.7,0.6c-4.9,23.8-19.7,40.9-36.3,57.5C776.4,433.6,590,620.4,403.6,807.2
	c-4.1,4.2-8.3,8.3-12.5,12.4c-32.2,30.9-82.2,31.2-114.9,0.8c-1.4-1.3-2.8-2.7-4.2-4.1c-81.9-82.1-163.9-164.2-245.8-246.3
	c-18.5-18.6-27.3-40.7-26.1-67c1.8-39.7,37.6-75.5,77.3-77.3c26.2-1.1,48.3,7.6,66.8,26.2c60,60.3,120.1,120.4,180.2,180.6
	c2.7,2.8,5,6.1,9.6,11.8c3.6-5.2,5.6-9.2,8.5-12.1c170-170.5,340.1-340.9,510.1-511.4c11.5-11.5,24-21,39.7-25.7
	c45.9-13.9,93.4,13.2,105.3,60c0.5,2.1,1.5,4.1,2.3,6.2C1000,170.5,1000,179.7,1000,188.8z"/>
</svg>
