<?xml version="1.0" encoding="utf-8"?>
<!-- Generator: Adobe Illustrator 25.2.0, SVG Export Plug-In . SVG Version: 6.00 Build 0)  -->
<svg version="1.1" id="Calque_1" xmlns="http://www.w3.org/2000/svg" xmlns:xlink="http://www.w3.org/1999/xlink" x="0px" y="0px"
	 viewBox="0 0 1000 1000" style="enable-background:new 0 0 1000 1000;" xml:space="preserve">
<path d="M1000,499.9c0,127.6,0,255.1,0,382.7C1000,951.9,953,999,883.9,999c-256.1,0-512.2,0-768.2,0C47.3,999,0,951.7,0,883.5
	c0-255.6,0-511.1,0-766.7C0,48.4,47.2,1,115.4,1C372,1,628.5,1,885,1c67.4,0,114.9,47.5,114.9,114.8
	C1000,243.9,1000,371.9,1000,499.9z M809.9,201.2C669.8,341.1,529.4,481.2,387.7,622.7C321,556.1,254.8,490,189,424.2
	c-25.7,25.6-50.8,50.7-75,74.7c91.9,91.8,183.9,183.7,274.3,274.1c165.4-165,331.5-330.8,497.3-496.1
	C861.4,252.7,836.3,227.6,809.9,201.2z"/>
</svg>
