<?xml version="1.0" encoding="utf-8"?>
<!-- Generator: Adobe Illustrator 25.2.0, SVG Export Plug-In . SVG Version: 6.00 Build 0)  -->
<svg version="1.1" id="Calque_1" xmlns="http://www.w3.org/2000/svg" xmlns:xlink="http://www.w3.org/1999/xlink" x="0px" y="0px"
	 viewBox="0 0 1000 1000" style="enable-background:new 0 0 1000 1000;" xml:space="preserve">
<path d="M0,561.4c3.6-3,7.5-5.7,10.9-9c34.7-34.6,69.4-69.3,104-104.1c3.1-3.1,5.5-6.8,9.1-11.3c70.7,70.7,139.8,139.9,209.7,209.8
	C514.9,465.5,695.2,285.1,875.1,105c42,42,83.1,83.2,124.9,125c-2.8,3-6.1,6.5-9.4,9.8C775.5,455.1,560.4,670.4,345.3,885.6
	c-1.5,1.5-3.3,3-4.6,4.7c-4.4,5.6-8.7,6.7-13.6,0.4c-1.9-2.4-4.3-4.4-6.5-6.5C217,780.4,113.3,676.7,9.6,572.9
	c-3.1-3.1-6.4-5.9-9.6-8.9C0,563.2,0,562.3,0,561.4z"/>
</svg>
