<svg xmlns="http://www.w3.org/2000/svg" viewBox="0 0 495.5 495.35"><g id="Calque_2" data-name="Calque 2"><g id="Calque_1-2" data-name="Calque 1"><path d="M0,247.37c.24-46.14,12.53-88.7,36.09-128.14,5.55-9.3,15.21-13.8,24.82-11.7,11,2.4,18.23,9.61,18.47,21.09.12,5.57-2.72,11.42-5,16.79-5.54,12.78-12.86,24.93-17.18,38.09C40.73,233.57,42.24,283.38,65,331.16,96.33,397,148.5,436.81,221,446.85c65.16,9,121.91-10.6,168.92-56.87,33.45-32.92,53.16-72.92,58-119.63,6.53-63.64-12.41-118.78-57.38-164.63C357.56,72.14,317.36,53.2,270.92,47.43a191.81,191.81,0,0,0-67.85,3.82c-10,2.35-18.71.19-25.13-7.84A23,23,0,0,1,190.41,6.83,241.3,241.3,0,0,1,265.58.67a245.07,245.07,0,0,1,98.93,28.4c42,22.43,74.75,54.44,98.53,95.63a236.49,236.49,0,0,1,30.71,92.63c5,44.95-.62,88.49-19.09,130.14a244.76,244.76,0,0,1-54,77.73c-37.72,36.39-82.51,59.11-134.39,67-62.78,9.56-121.4-2.62-174.25-37.74C50.09,413.34,13.62,355.29,2.77,281.59,1.11,270.29.89,258.78,0,247.37Zm203.52-14.54c14.61-.09,28.27-10.2,29.52-24.54a291,291,0,0,0,.08-49.66c-1.23-14.48-16.4-26-30.94-26-13,0-25.92-.12-38.88,0-15.37.17-29.5,14-29.75,29.33-.23,13.63-.26,27.26,0,40.88.29,15.36,15.25,29.82,30.59,30,6.48.06,13,0,19.44,0C190.23,232.84,196.87,232.88,203.52,232.83Zm.21,129.74c14.27-.07,28.23-10.7,29.38-24.82a303.47,303.47,0,0,0,.07-49.17c-1.19-14.49-16.25-26.13-30.77-26.2-13.12-.05-26.25-.16-39.38.05-15.53.26-29.26,14-29.49,29.48q-.3,20.19,0,40.38c.25,15.4,15.46,30.2,30.82,30.28,6.65,0,13.3,0,19.94,0C190.77,362.58,197.25,362.61,203.73,362.57Zm159.68-70.41c-.18-14.38-14.77-29.43-29.18-29.71q-20.93-.39-41.86,0c-15.46.31-28.8,13.8-29.06,29.29-.23,13.45-.21,26.92,0,40.37.23,15.92,15.12,30.41,31,30.46q19.44.06,38.88,0a30.37,30.37,0,0,0,30.23-30c0-6.48,0-13,0-19.43C363.43,306.12,363.5,299.14,363.41,292.16Zm0-129.55c-.16-14.48-15.11-29.75-29.53-29.94-13.79-.18-27.58-.2-41.36,0-14.92.22-28.84,13.83-29.19,28.73q-.48,20.91,0,41.85c.37,15.17,15.27,29.46,30.36,29.56,12.79.09,25.58,0,38.37,0,18.27,0,31.34-13.13,31.36-31.36,0-6,0-12,0-17.94C363.43,176.56,363.49,169.58,363.42,162.61ZM113.05,44.86c-12.83.1-22.49,9.92-22.52,22.89,0,13.35,9.58,23.25,22.61,23.31s22.77-9.88,22.77-23.15S126.06,44.75,113.05,44.86Z"/></g></g></svg>