<svg xmlns="http://www.w3.org/2000/svg" viewBox="0 0 495.5 495.34"><g id="Calque_2" data-name="Calque 2"><g id="Calque_1-2" data-name="Calque 1"><path d="M0,247.43c.22-46.14,12.5-88.7,36.05-128.15,5.58-9.33,15.19-13.84,24.8-11.76,11.06,2.39,18.23,9.53,18.52,21,.14,5.57-2.69,11.44-5,16.81-5.59,12.94-13,25.24-17.34,38.55C40.74,233.84,42.3,283.49,65,331.11c31.33,65.86,83.5,105.67,156,115.73,65.35,9.06,122.23-10.66,169.29-57.17,33.25-32.86,52.67-72.75,57.68-119.25,6.24-57.87-9.3-109.59-47.1-153.78-32.92-38.48-75-61.45-125.39-68.56a202,202,0,0,0-73.27,3.31c-10.6,2.39-20.37-1.49-25.66-9.93-5.05-8-4.71-19.39,2-27a26,26,0,0,1,12.36-7.62A236.25,236.25,0,0,1,265.51.66,245.16,245.16,0,0,1,364.9,29.28c41.79,22.41,74.41,54.33,98.11,95.37a236.26,236.26,0,0,1,30.73,92.62c5,45-.59,88.49-19.05,130.14a244.77,244.77,0,0,1-54,77.75c-37.84,36.51-82.78,59.26-134.86,67.11C223.18,501.7,164.73,489.5,112,454.51,50.12,413.39,13.65,355.35,2.77,281.65,1.11,270.35.89,258.84,0,247.43Zm197.17-75q3.54,31.44,7.35,62.86c1.13,9.39,2.16,18.82,3.82,28.13a11.27,11.27,0,0,0,11.09,9.05c5.42-.2,10.14-4.62,11-10.49a19.68,19.68,0,0,0,.05-5q-3.08-26.73-6.25-53.46c-2.15-18.15-4.64-36.26-6.41-54.44-2.38-24.46,19.67-40.94,42.7-32.27,13.69,5.15,20.71,19,18.39,35.46-3.67,26.16-7.12,52.36-10.66,78.53-3,22.07-5.91,44.13-9,66.18-1,7.16-5.16,10.48-12.28,10.37-6.92-.1-11.39-4.77-12.32-12.49a42.74,42.74,0,0,0-2.22-10.59,10.89,10.89,0,0,0-11.28-6.45c-5.17.82-9.35,4.76-9.65,10-.51,8.75.71,17.34,5.24,25,7.52,12.74,22.93,19.94,36.47,17.34A36.11,36.11,0,0,0,282.4,299.9c1.6-10.17,2.8-20.41,4.14-30.62,4.92-37.39,9.95-74.77,14.69-112.19,2.57-20.35-1.11-38.89-17.77-52.81C270.58,93.52,255.79,88.13,239,91.6c-25,5.16-46.35,27.58-44.2,55.07C195.6,155.26,196.21,163.88,197.17,172.45Zm82.5,199.77c-.35-17.78-14.95-33-32.45-33-17.76,0-32.86,15.08-32.81,32.71.06,17.43,15,32.49,32.31,32.53C263.79,405.69,280,388.72,279.67,372.22ZM237.75,372a9.08,9.08,0,0,1,9.42-9.38c5.48.07,9.23,4,9.15,9.55s-3.62,9.08-9,9.09A9.14,9.14,0,0,1,237.75,372ZM113.28,44.86A22.35,22.35,0,0,0,90.53,67.53c-.06,13.63,9.68,23.65,22.88,23.53,12.84-.13,22.47-9.94,22.5-22.92C135.93,54.8,126.3,44.89,113.28,44.86Z"/></g></g></svg>