<?xml version="1.0" encoding="utf-8"?>
<!-- Generator: Adobe Illustrator 25.2.0, SVG Export Plug-In . SVG Version: 6.00 Build 0)  -->
<svg version="1.1" id="Calque_1" xmlns="http://www.w3.org/2000/svg" xmlns:xlink="http://www.w3.org/1999/xlink" x="0px" y="0px"
	 viewBox="0 0 1000 1000" style="enable-background:new 0 0 1000 1000;" xml:space="preserve">
<path d="M500,648.6c-27.5,27.5-54.2,54.1-80.7,80.8C334.5,814.5,249.8,899.6,165,984.7c-20.7,20.8-39.7,20.5-60.4-0.4
	c-28.7-28.9-57.6-57.6-86.4-86.5c-23-23-22.9-41.1,0.3-64.4c107.7-108,215.5-216.1,323.3-324c3.3-3.4,7.5-5.9,11.9-9.4
	c-4.9-5.2-7.9-8.6-11.2-11.9C234.1,380.8,125.7,273.4,17.4,166c-23-22.8-23.1-40.7-0.5-63.5c29-29.2,58-58.5,87.1-87.6
	c20-20,39.4-19.9,59.7,0.2c77.4,76.5,154.7,153,232.1,229.5c32.7,32.3,65.5,64.5,98.2,96.7c1.8,1.8,3.8,3.3,8.8,7.8
	c19.8-21,38.9-42.3,59.1-62.4C653.2,196,744.7,105.5,836.2,14.9c20.1-19.9,40-20.1,59.9-0.2c29.2,29.1,58.1,58.4,87.1,87.6
	c22.7,22.8,22.2,41.8-1,64.6C874.1,273.7,765.9,380.7,657.6,487.6c-3.1,3-6.8,5.4-12.9,13.8c4.2,2.2,9.4,3.5,12.6,6.7
	c107.3,107.3,214.4,214.7,321.6,322.1c3.7,3.7,7.3,7.4,10.7,11.4c13.2,15.4,14.2,33.5,0.2,48c-33.1,34.3-66.9,67.9-101,101.3
	c-11.5,11.3-31,11.4-44.3,1.5c-4.8-3.6-8.8-8.3-13.1-12.6C723.5,872,615.6,764,507.8,656C505.7,653.9,503.4,651.9,500,648.6z"/>
</svg>
