<?xml version="1.0" encoding="utf-8"?>
<!-- Generator: Adobe Illustrator 25.2.0, SVG Export Plug-In . SVG Version: 6.00 Build 0)  -->
<svg version="1.1" id="Calque_1" xmlns="http://www.w3.org/2000/svg" xmlns:xlink="http://www.w3.org/1999/xlink" x="0px" y="0px"
	 viewBox="0 0 1000 1000" style="enable-background:new 0 0 1000 1000;" xml:space="preserve">
<path d="M0.1,657c0-69.7-0.2-139.4,0.1-209.2C0.4,389.4,37.6,338.3,93,321.3c14.2-4.4,29.5-6.5,44.4-6.7
	c51.8-0.8,103.6-0.2,155.5-0.4c24.8-0.1,21.2,3.4,21.3-22c0.2-52.3-0.5-104.6,0.2-156.9c0.7-50.9,23-90.4,66.8-117
	C401.3,6.2,423.6,0.3,447,0.3c139.9-0.2,279.8-0.4,419.7,0c73.1,0.2,132.4,58.9,132.7,132c0.7,140.4,0.7,280.8,0,421.2
	c-0.4,73.6-59.6,131.3-134.2,132.1c-53.2,0.6-106.5,0.1-159.7,0.1c-3.3,0-6.6,0.2-9.9,0c-6.9-0.5-10.9,1.6-10.1,9.4
	c0.3,3.3,0,6.6,0,9.9c0,53.2,0.7,106.5-0.2,159.7c-0.9,53.3-24.8,93.7-71.8,119.6c-18.9,10.4-39.5,15.4-61,15.4
	c-139.9,0.2-279.8,0.5-419.7-0.1C59.1,999.3,0.9,940,0.1,866.1c0-0.9,0-1.9,0-2.8C0.1,794.5,0.1,725.8,0.1,657z M655.7,628.3
	c69.7,0,139.4-0.4,209.1,0.2c37.6,0.3,67.2-25.3,74.6-55.4c2.6-10.4,3.1-21.4,3.1-32.1c0.2-82.9,0.1-165.8,0.1-248.7
	c0-50.4,0-100.8,0-151.2c0-17.2-2.3-33.8-12.1-48.5c-16.9-25.5-41.2-35.6-71.1-35.5c-68.3,0.3-136.6,0.1-204.9,0.1
	c-67.3,0-134.7,0.6-202-0.2c-51.1-0.6-81.9,39.3-81.5,81.6c1.2,136.1,0.4,272.2,0.5,408.3c0,8.4,0.7,17,2.5,25.1
	c5.9,27.1,34.1,56.8,75.3,56.4C518.2,627.8,587,628.3,655.7,628.3z M57.1,655.5c0,66.9-0.1,133.8,0.1,200.7
	c0,10.3,0.4,20.9,3.1,30.8c9.3,34.7,38,55.6,77.3,55.7c136.6,0.3,273.3,0.2,409.9,0c8.4,0,17-0.8,25.1-2.9
	c33-8.7,55.9-39.8,55.6-73.1c-0.4-55.1-0.1-110.2-0.1-165.4c0-15.5-0.1-15.5-15.2-15.5c-53.7,0-107.4,0-161.1,0
	c-27.9,0-54.2-6.5-77.5-22.3c-40-27.2-59.7-65.7-60.2-113.6c-0.6-55.1-0.1-110.2-0.2-165.4c0-6.5,1.5-13.1-9.4-13
	c-58.9,0.5-117.8-0.2-176.7,0.9c-33.1,0.6-61.5,25.3-68.6,57.3c-2,9.1-2.2,18.7-2.2,28.1C57,523.6,57.1,589.5,57.1,655.5z"/>
</svg>
