<?xml version="1.0" encoding="utf-8"?>
<!-- Generator: Adobe Illustrator 25.2.0, SVG Export Plug-In . SVG Version: 6.00 Build 0)  -->
<svg version="1.1" id="Calque_1" xmlns="http://www.w3.org/2000/svg" xmlns:xlink="http://www.w3.org/1999/xlink" x="0px" y="0px"
	 viewBox="0 0 1000 1000" style="enable-background:new 0 0 1000 1000;" xml:space="preserve">
<path d="M500.9,622.8c-71.1,0-123.8-52.4-123.8-123.2c0-70.5,53-122.7,124.4-122.6c69,0.1,124.8,54.1,124,122.4
	C624.6,575.5,561.9,626.7,500.9,622.8z M0,497.7c-0.2,72.3,50.8,125,121.2,125.1c72.1,0.2,126.8-54.1,126.1-125.2
	c-0.7-67.1-55.4-120.6-123.4-120.7C52.9,376.9,0.2,428.2,0,497.7z M879.2,377c-70.7-0.2-126.4,53.1-126.6,121.1
	c-0.2,70.2,53.5,124.6,123,124.7c72.1,0.1,124.3-51.1,124.4-122C1000.1,429.8,948.8,377.2,879.2,377z"/>
</svg>
