<svg xmlns="http://www.w3.org/2000/svg" viewBox="0 0 68.8 278.18"><g id="Calque_2" data-name="Calque 2"><g id="Calque_1-2" data-name="Calque 1"><path d="M.27,139.17c0-19.76,14.59-34.38,34.28-34.37s34.08,14.74,34.05,34.6a34.16,34.16,0,0,1-34,34.51C15.46,174.05.27,158.67.27,139.17ZM68.6,34c0-19.78-14.48-34-34.48-34C14.45,0,.22,14.59.27,34.63c0,19.26,14.93,34,34.23,34C54,68.55,68.62,53.72,68.6,34ZM0,245.06c.52,16.35,15.47,33.83,35.89,33.09,16.1-.57,33.93-15.3,32.85-36A34.33,34.33,0,0,0,34.22,209.3C15.39,208.89-.6,225.81,0,245.06Z"/></g></g></svg>