<svg xmlns="http://www.w3.org/2000/svg" viewBox="0 0 277.91 68.39"><g id="Calque_2" data-name="Calque 2"><g id="Calque_1-2" data-name="Calque 1"><path d="M139.2,68.33c-19.77,0-34.4-14.57-34.4-34.25S119.54,0,139.38,0c19.18,0,34.69,15,34.45,34C173.57,55.18,156.17,69.4,139.2,68.33ZM0,33.55C-.06,53.64,14.12,68.28,33.7,68.33c20,0,35.24-15,35-34.79A34,34,0,0,0,34.43,0C14.71,0,.06,14.25,0,33.55ZM244.35,0c-19.64-.07-35.13,14.75-35.18,33.67-.06,19.5,14.86,34.62,34.18,34.66,20,0,34.53-14.19,34.56-33.91S263.67.07,244.35,0Z"/></g></g></svg>