<?xml version="1.0" encoding="utf-8"?>
<!-- Generator: Adobe Illustrator 25.2.0, SVG Export Plug-In . SVG Version: 6.00 Build 0)  -->
<svg version="1.1" id="Calque_1" xmlns="http://www.w3.org/2000/svg" xmlns:xlink="http://www.w3.org/1999/xlink" x="0px" y="0px"
	 viewBox="0 0 1000 1000" style="enable-background:new 0 0 1000 1000;" xml:space="preserve">
<path d="M500.3,783.3c-146,0-292-0.6-438.1,0.5C27.8,784-0.3,764.9,0,721.6c1.3-163.9,0.5-327.8,0.5-491.7
	c0-42.6,19.3-62.4,61.7-62.4c292-0.1,584.1-0.1,876.1,0c41.9,0,61.6,19.8,61.6,61.1c0,165.4,0,330.7,0,496.1
	c0,39.6-19.1,58.6-58.7,58.7C794.3,783.3,647.3,783.3,500.3,783.3z M368.8,640.1c76.1,0.1,136.8-60.1,136.8-135.7
	c0-75.8-60.4-135.5-136.4-136.4c-67-0.8-136.9,52.7-137.1,136C231.8,585.9,301.3,642.2,368.8,640.1z M783.3,639.1
	c-68.5-118.2-135.5-233.9-203.8-351.8c-4.4,6.9-7.4,11.1-10,15.6c-15.3,26.3-29.9,53-45.9,78.8c-6.3,10.1-5.9,17.2,0.2,27.4
	c40.7,67.1,36,145.3-11.9,207.5c-5.4,7.1-11.2,13.8-18.2,22.4C590.6,639.1,685,639.1,783.3,639.1z M653.7,130.5
	c12.3,0.1,16.2-4.1,13.6-16.6c-6.2-29.7-11.2-59.7-17-89.6c-3.4-17.5-8.9-22.4-26.3-22.5c-82.6-0.2-165.1-0.2-247.7,0
	c-17.2,0-23.5,5.7-26.7,22.4c-5.5,28.9-10.8,57.9-16.1,86.8c-3.2,17.6-2,19.2,16.1,19.3c50.2,0.1,100.4,0,150.6,0
	C551.4,130.4,602.5,130.2,653.7,130.5z M316.7,998.2c13.4,0.4,20.9-5.1,23.5-18.2c9.6-48.4,19.2-96.7,29-145
	c2.1-10.1-1.8-14.6-11.9-14.6c-48.4,0-96.7-0.3-145.1,0.5c-4.8,0.1-12.9,6.2-13.8,10.7c-9.7,47.3-18.6,94.9-26.9,142.5
	c-2.9,16.6,3.7,23.7,20.3,23.9c20.8,0.3,41.6,0.1,62.4,0.1C275.1,998.1,295.9,997.7,316.7,998.2z M644.9,820.3
	c-8.6,0-15.6,1.3-13.2,13.1c10.1,49.2,19.9,98.4,29.8,147.6c2.4,11.6,9.5,17.2,21.5,17.1c42.5-0.1,85,0.2,127.5-0.2
	c15.2-0.1,22.1-8.6,19.4-23.6c-8.4-46.5-17.7-92.9-25.8-139.5c-2-11.7-7.8-14.9-18.6-14.7c-22.7,0.5-45.4,0.1-68.1,0.2
	C693.1,820.3,669,820.3,644.9,820.3z"/>
</svg>
