<?xml version="1.0" encoding="utf-8"?>
<!-- Generator: Adobe Illustrator 25.2.0, SVG Export Plug-In . SVG Version: 6.00 Build 0)  -->
<svg version="1.1" id="Calque_1" xmlns="http://www.w3.org/2000/svg" xmlns:xlink="http://www.w3.org/1999/xlink" x="0px" y="0px"
	 viewBox="0 0 1000 1000" style="enable-background:new 0 0 1000 1000;" xml:space="preserve">
<path d="M500.6,754.7c-94.3,5.2-182.2-18.4-265.9-60.4c-65.8-33-122.5-77.9-171.5-132.4c-20.3-22.6-37.7-47.8-55.8-72.4
	c-10.4-14.1-9.4-29.1,0-43.8c29.4-46.2,66.3-85.6,106.7-122.4c34.7-31.6,73.5-56.9,114.8-78.5c63.7-33.4,131.1-56.4,203.1-62.3
	c65.1-5.3,130.1-5.6,194.5,8.9c64.6,14.6,124.7,39.5,181.1,73.9c67.6,41.2,123.2,95.2,170.4,158.3c3.7,4.9,6.7,10.2,10.1,15.3
	c15.5,23,16.1,35.2,0.7,57.7C929.6,583,854.1,650.3,760,696.9c-62.2,30.8-127.4,50.6-196.3,57.5
	C542.9,756.5,521.7,754.7,500.6,754.7z M509.1,688.4c14.4-1.2,38.2-2.3,61.6-5.3c84.1-11,160.7-41,229.7-90.5
	c44.5-31.9,83.1-69.6,116.1-113.3c6-8,6.2-14-0.1-22.3c-31.9-42.4-69-79.3-112-110.4c-44-31.9-91.2-57.9-143.4-73.7
	c-73.2-22.2-147.9-31-224.3-21c-64.9,8.5-126.8,26.1-184.2,58.4c-65.9,37.1-122.9,84.4-168,145.6c-5.7,7.7-7.7,13.7-1.2,22.5
	c49.9,67.8,113.3,119.5,188.1,157.2C343.1,671.5,419.9,686.8,509.1,688.4z M685.1,466.6c1.7,102.8-86,187.2-184.1,186.6
	c-103.1-0.6-186.8-82.3-186.2-184.8c0.6-105.9,85.3-185.6,187.5-186C595.1,282,686.6,365.7,685.1,466.6z M500.9,581.9
	c63.5,0,114-45.4,113.9-113.8c-0.1-68.4-49.5-114.2-114.6-114.3c-65.6-0.1-114.7,49-114.6,114.5C385.7,533.5,434.8,582,500.9,581.9z
	 M435,503.6c17.9,2,35.5-12.1,39.1-31.2c5.5-29.5,8.6-32.6,37.5-37.3c18-2.9,32.1-19.3,31-36c-1.2-19.5-15.6-32.9-35.5-33.3
	c-53.8-1.1-102.3,45.8-103.3,99.9C403.5,485,417.1,501.6,435,503.6z"/>
</svg>
