<svg xmlns="http://www.w3.org/2000/svg" viewBox="0 0 499.1 287.47"><g id="Calque_2" data-name="Calque 2"><g id="Calque_1-2" data-name="Calque 1"><path d="M225.65,0h48.9c4.1.57,8.19,1.23,12.29,1.7,44.58,5.15,85.53,20.4,123,44.83a294.27,294.27,0,0,1,89.3,91v13c-1.78,2.58-3.55,5.18-5.34,7.75a316.63,316.63,0,0,1-51.91,58.19,290.47,290.47,0,0,1-106,58.86c-31.77,9.88-64.36,12.85-97.51,12.08a281.14,281.14,0,0,1-74.55-12.11A281.3,281.3,0,0,1,92.58,242.3,300.83,300.83,0,0,1,4.09,155.24c-5.22-7.79-5.65-15.52-.1-23.14,7.54-10.32,14.82-20.89,23.13-30.56A295.23,295.23,0,0,1,85.28,49.62,285.17,285.17,0,0,1,187.78,5.87C200.26,3.25,213,1.92,225.65,0Zm24,253.81c2.16,0,4.33.08,6.49,0s4.29-.56,6.44-.64c36.11-1.31,70.2-10.51,102.52-26.4,37.24-18.31,67.82-44.61,93.05-77.37,3.29-4.26,3.22-7.33-.09-11.66-26.82-35.13-60-62.46-100.21-80.82a255.73,255.73,0,0,0-135.11-22q-80,8.41-141.16,60.54a264.74,264.74,0,0,0-40.28,42.67c-3.19,4.24-3.21,7.54.35,11.34C44,152,45.9,155,48.14,157.65c25.17,30.09,55,54.13,90.63,71.06C173.9,245.42,211,253.19,249.67,253.81Z"/><path d="M341.67,142.88c0,51.81-40.26,92.52-91.49,92.51-51,0-92.9-41.07-92.48-91.39.43-50.59,39.66-92.52,93.1-92.41C300.54,51.69,341.67,92.94,341.67,142.88Zm-34.27.61c0-32.2-25.26-57.46-57.52-57.56-31.52-.11-58,26.26-57.89,57.7s26.23,57.47,58,57.47C282.1,201.1,307.42,175.69,307.4,143.49Z"/><path d="M270.77,110.34c0,8.37-6.4,15.2-15.19,16.34-13.17,1.72-16.85,5.3-19.12,18.62S222.2,165.19,211,159.11c-6.32-3.43-9.08-9.26-8.81-16.17,1.05-27.29,21.34-48.16,48.6-50.3C262.48,91.72,270.84,99.12,270.77,110.34Z"/></g></g></svg>