<svg xmlns="http://www.w3.org/2000/svg" viewBox="0 0 389.32 499.35"><g id="Calque_2" data-name="Calque 2"><g id="Calque_1-2" data-name="Calque 1"><path d="M0,452.44V134.08c2.05-1.94,4.14-3.84,6.13-5.84Q67.66,66.71,129.09,5.1A15.76,15.76,0,0,1,141.33,0Q237,.21,332.75,0c12.66,0,24.05,3.44,33.92,11.06,12.81,9.88,22.47,22.21,22.5,39.23q.27,155.12.15,310.24a12.51,12.51,0,0,1-4,9.66c-13.5,13.29-26.85,26.73-40.23,40.15q-44.37,44.49-88.71,89H45.88C34.11,495.83,23.52,490.5,15,481.28,7.23,473,3.09,463,0,452.44Zm92-202.1q0,13.21,0,26.43c0,2.55.39,4.79,3.66,4.7,10.6-.28,21.32.25,31.78-1.12,16.47-2.15,26.1-13.93,26.11-30s-9.64-27.82-26.08-30c-10-1.33-20.19-.75-30.29-1.19-3.91-.17-5.31,1.43-5.23,5.27C92.09,233.05,92,241.69,92,250.34Zm69.81-.11c0,18.29,14.83,32.42,33.91,32.26s33.54-14.2,33.5-32.25-14.94-32.08-33.76-32S161.81,232.2,161.79,250.23Zm133.7-21.56a14.29,14.29,0,0,0-1.36-2c-14.5-14-42.74-9.83-52.44,7.8-7.93,14.39-4.6,30.88,8.29,41.1,11.51,9.13,32.35,8.83,43.12-.7.88-.78,2.07-2.74,1.79-3.09a29.27,29.27,0,0,0-6.23-6.29c-.76-.51-3.14.91-4.5,1.85-9.74,6.67-22.45,4.81-29.38-4.41-6.56-8.73-4.55-22.68,4.26-29.53,6.94-5.39,17.9-5.43,25.52.47,2.85,2.21,4.52,1.86,6.57-.58C292.48,231.71,294,230.24,295.49,228.67ZM0,113.12a44.73,44.73,0,0,0,5.51-4.06Q57.4,57.25,109.19,5.33c1.23-1.23,2.34-2.58,4.37-4.84-3-.18-4.71-.38-6.44-.38C89.83.09,72.54,0,55.26.12,41.15.2,29.12,5.57,18.66,14.87,8.56,23.86,2.94,35.29,0,48.25ZM344.12,499.35c5.38-2.15,11.19-3.61,16.08-6.57C378,482,389.65,467.32,389.31,445.2c-.26-16.94,0-33.89-.07-50.83,0-1.88-.23-3.76-.43-6.89-2.29,2-3.65,3.16-4.88,4.4Q332.31,443.5,280.74,495.15a53.45,53.45,0,0,0-3.45,4.2ZM109.85,229.73c-2.79,0-4.35,1.18-4.34,4.15,0,11-.13,21.9.17,32.84,0,1.44,2.24,3.89,3.6,4a59.57,59.57,0,0,0,13.87-.24c18.09-2.69,19.53-20,14.66-30.42-4.31-9.2-13.07-10.26-22-10.34C113.83,229.73,111.84,229.75,109.85,229.73Zm85.66,41.33c11.79,0,20.08-8.45,20.14-20.54s-8.14-20.8-19.81-20.88c-12.43-.09-20.47,8-20.51,20.54S183.23,271.06,195.51,271.06Z"/></g></g></svg>