<svg xmlns="http://www.w3.org/2000/svg" viewBox="0 0 389.57 499.36"><g id="Calque_2" data-name="Calque 2"><g id="Calque_1-2" data-name="Calque 1"><path d="M0,452.1V133.73q32.61-32.47,65.22-64.95Q99.51,34.46,133.66,0H343.12c4.09,1.38,8.25,2.58,12.24,4.18,17.23,6.91,34.36,28.11,34.21,50.64-.71,101.44-.34,202.89-.23,304.33a14.71,14.71,0,0,1-4.72,11.4q-62,61.77-123.76,123.82a15.23,15.23,0,0,1-11.78,5q-96.74-.21-193.47-.07c-14.58,0-26.71-5.55-37.38-15.15C8.57,475.43,3.37,464.31,0,452.1ZM153.27,280.22c-3.78-5.35-7.21-10.21-10.63-15.07-1.46-2.06-2.36-3.8.55-5.75,8.15-5.45,11.49-13.12,9.27-22.81-2.28-10-9-15.59-18.81-16.61s-19.87-.95-29.81-.94c-1.29,0-3.68,2.47-3.7,3.82q-.36,27.18,0,54.37c0,1.32,2.28,2.91,3.83,3.81,1,.58,2.61,0,3.93.15,4,.4,5.91-1.14,5.58-5.36a31,31,0,0,1,.16-8.45c.31-1.5,2-3.61,3.34-3.84,5.93-1,11.69-.84,14.79,5.86a35,35,0,0,0,3,4.55C140.15,281.86,142.47,282.73,153.27,280.22Zm134.8.2c-3.87-5.47-7.26-10.32-10.71-15.14-1.64-2.31-2.27-4,.78-6.09,7.76-5.23,11-12.67,9.13-22-2-9.79-8.3-15.83-17.85-17-10.33-1.27-20.85-1.08-31.28-1.16-1.16,0-3.34,2.37-3.35,3.66-.23,18.13-.14,36.25-.18,54.38,0,3,1.46,4.19,4.32,4.08,1.66-.06,3.33-.07,5,0,3,.11,4.24-1.27,4.18-4.2a58.49,58.49,0,0,1,.18-9.46c.2-1.45,1.5-3.5,2.75-3.91,6.21-2,11.15-.1,15,5.29a25.84,25.84,0,0,1,3.05,4.55C272.63,281.82,279.29,282.21,288.07,280.42Zm-60.9.64c-1.12-2.69-1.71-4.21-2.37-5.7-7.57-17-15.23-34-22.65-51-1.66-3.83-3.73-5.74-8.15-5.63-4.59.1-8.14.4-10.27,5.56-5.25,12.75-11.1,25.24-16.68,37.86-2.65,6-5.22,12-7.87,18.13,10.55,2.55,12.39,1.79,16.32-7.14,1.54-3.48,3.6-5.18,7.57-5a100.84,100.84,0,0,0,15.93-.05c6.65-.72,10.69,1.42,12.58,8,.54,1.89,2.53,4.31,4.27,4.71C219.1,281.6,222.66,281.06,227.17,281.06ZM4.44,109.77Q57.84,56.46,111.14,3c.94-.93,1.72-2,2.57-3H46.88C36.62,3,27,6.9,18.86,14.27,8.78,23.44,3,34.82,0,47.9v64.87A27.64,27.64,0,0,0,4.44,109.77ZM279.63,499c.73,0,2.5.2,4.26.2,16.27,0,32.55-.23,48.81.1,10.31.22,19.95-1.95,28.5-7.39,17-10.81,28.39-25.23,28.1-46.7-.22-16.94,0-33.89,0-50.83v-5Zm-166-250.31c.32,1.49,2.08,3.63,3.35,3.75a57.39,57.39,0,0,0,13.36-.12c6.93-1,10.59-7.3,8.79-14.08-1.62-6.11-5.49-8.78-13.72-8.88-13.75-.18-11.83-.86-11.94,11.42C113.5,243.47,113.1,246.21,113.66,248.73Zm134.67.27c.26,1.36,1.94,3.39,3.1,3.47a62.23,62.23,0,0,0,13.85-.18c6.69-1,10.25-7.21,8.6-13.78-1.52-6.09-5.22-8.92-13.06-9.08-14.87-.3-12.49-1-12.64,11.65C248.18,243.73,247.83,246.45,248.33,249Zm-54.69-15.59-1.66.09-9.67,23.74h21.28C200,248.58,196.81,241,193.64,233.41Z"/></g></g></svg>