<svg xmlns="http://www.w3.org/2000/svg" viewBox="0 0 389.57 499.36"><g id="Calque_2" data-name="Calque 2"><g id="Calque_1-2" data-name="Calque 1"><path d="M133.66,0H343.12c4.09,1.38,8.25,2.58,12.24,4.18,17.23,6.91,34.36,28.11,34.21,50.64-.71,101.44-.34,202.89-.23,304.33a14.71,14.71,0,0,1-4.72,11.4q-62,61.77-123.76,123.82a15.23,15.23,0,0,1-11.78,5q-96.74-.21-193.47-.07c-14.58,0-26.71-5.55-37.38-15.15-9.66-8.7-14.86-19.82-18.23-32V133.73q32.61-32.47,65.22-64.95Q99.51,34.46,133.66,0ZM239.59,232.63c.56-1,1.1-1.84,1.5-2.73,2.83-6.26,2.32-7.65-4.25-9.68-9.09-2.81-18.26-3.42-27.33.11-8.47,3.29-13.07,9.85-12.69,17.75.35,7.07,5.11,12.42,13.8,15.1,5.54,1.71,11.36,2.69,16.68,4.9,2.46,1,5.28,4,5.68,6.46.62,3.78-3,5.46-6.44,6.28-8,1.91-15.46,0-22.64-3.44-2.19-1.05-4.33-1.83-5.05,1.3-.6,2.62-5,5.72-.26,8,12.28,6,25.11,7.87,37.87,1.79,7-3.32,10.48-9.32,9.83-17.48-.63-7.71-5.56-11.3-12.07-13.52-3.29-1.12-6.71-1.88-10.05-2.85-3.18-.93-6.58-1.48-9.44-3-1.87-1-4.26-3.69-4-5.32.29-2.31,2.34-5.52,4.39-6.24a26.45,26.45,0,0,1,11.64-1.14C230.9,229.43,234.94,231.23,239.59,232.63Zm-89.68,32.95c-1.52,1.79-2.83,3.5-4.3,5.05-2.4,2.52-2.43,4.86.91,6.19,5,2,10.12,4.63,15.35,5.1,12.59,1.14,22-6.7,22.36-18.09.37-13.45.09-26.91.19-40.36,0-3.43-1.47-4.71-4.82-4.67q-12.69.16-25.39,0c-3.57-.05-4.58,1.75-4.56,4.95s.37,5.68,4.45,5.58a94.5,94.5,0,0,1,12.93.19c1.61.19,4.3,2.14,4.32,3.33a307.52,307.52,0,0,1-.43,30.82c-.54,6.64-6.81,9.62-13,6.95C155.23,269.49,152.91,267.51,149.91,265.58ZM18.86,14.27C8.78,23.44,3,34.82,0,47.9v64.87a27.64,27.64,0,0,0,4.44-3Q57.84,56.46,111.14,3c.94-.93,1.72-2,2.57-3H46.88C36.62,3,27,6.9,18.86,14.27Zm265.45,485c16.27,0,32.55-.23,48.81.1,10.51.22,20.28-2.2,28.88-7.84,16.67-10.94,27.76-25.39,27.33-46.68-.34-16.93-.06-33.88-.09-50.82,0-1.88-.24-3.75-.33-5.12L278.81,499C280.47,499.09,282.39,499.24,284.31,499.24Z"/></g></g></svg>