<svg xmlns="http://www.w3.org/2000/svg" viewBox="0 0 389.36 499.48"><g id="Calque_2" data-name="Calque 2"><g id="Calque_1-2" data-name="Calque 1"><path d="M389.36,42.91V366.27c-1.8,1.72-3.63,3.41-5.39,5.17q-61.35,61.37-122.62,122.82a15.8,15.8,0,0,1-12.24,5.09c-64-.14-128-.59-191.94.13-29,.33-57.27-26-57.17-57.24C.32,341.65.14,241.05,0,140.45a13.68,13.68,0,0,1,4.35-10.56Q36.45,98.14,68.25,66.11,101.18,33.1,134,0H343.48C366.66,5.86,382.12,20,389.36,42.91ZM178.68,262.58c0-2.33-.19-4.68,0-7,.48-4.66-1.59-6.16-6.08-6-6.11.26-6.4.31-6.45,6.52,0,1.67,0,3.33,0,5,0,7.69-1.47,9.19-9.25,9.54-1.33.06-2.66.05-4,0-11.09-.29-19.07-8.91-19.16-20.67s7.71-20.28,19-20.76c5.67-.24,10.85.82,15.59,4.11,2.91,2,7.28.26,9.66-3.85,2-3.51-1.48-4.31-3.22-5.47a36.09,36.09,0,0,0-29.56-5c-11.8,2.91-20.37,10-23.73,21.88-3.3,11.69-1.08,22.53,7.87,31.22,10.44,10.14,23,11.65,36.56,8.08,11.77-3.08,12.77-4.31,12.77-16.17C178.69,263.58,178.69,263.08,178.68,262.58ZM223,250c0,8.81.07,17.62,0,26.43,0,3.36,1.25,5,4.7,4.75a37.2,37.2,0,0,1,4.48,0c3.25.18,4.44-1.43,4.36-4.53-.09-4.32.16-8.65,0-13-.19-4.15,1.61-5.61,5.62-5.5,6.47.18,12.95,0,19.43,0,3.55,0,4-2.17,3.94-4.95s.12-5.54-3.88-5.52-8.3,0-12.45,0c-14.09-.17-12.45,1.89-12.67-12.9-.06-4.16,1.69-5.58,5.66-5.49,7.47.15,14.95-.11,22.42.07,4.18.11,4.94-2,5-5.56s-1.27-5.08-5-5c-12.12.13-24.25.15-36.37,0-3.93-.05-5.28,1.49-5.21,5.31C223.11,232.72,223,241.36,223,250Zm-16.44.51c0-8.8-.2-17.61.08-26.41.15-4.81-2.29-5.57-6.18-5.3-3.49.24-7.52-1-7.46,5q.3,26.16,0,52.33c-.07,5.55,3.38,5,6.94,5.05,3.74.07,6.92.13,6.71-5.27C206.32,267.47,206.56,259,206.56,250.51ZM47.24,0C45.5.56,43.78,1.18,42,1.67a57.38,57.38,0,0,0-41.9,55Q0,81.6.15,106.52a65.06,65.06,0,0,0,.75,6.6c2.39-2.12,3.92-3.33,5.29-4.69Q58.33,56.27,110.44,4.09c1.29-1.28,2.42-2.72,3.63-4.09ZM389.36,387.23a34.63,34.63,0,0,0-3.5,2.74q-52.32,52.29-104.6,104.66A51,51,0,0,0,278,498.7a37.75,37.75,0,0,0,3.9.53c19.09,0,38.19.07,57.28-.09a32.72,32.72,0,0,0,9.27-1.63c21.05-6.43,34.25-20.7,40.87-41.42Z"/></g></g></svg>