<svg xmlns="http://www.w3.org/2000/svg" viewBox="0 0 390 499.33"><g id="Calque_2" data-name="Calque 2"><g id="Calque_1-2" data-name="Calque 1"><path d="M0,452.42V134.06c2.05-1.94,4.15-3.84,6.15-5.84q62-61.89,124-123.84A13.7,13.7,0,0,1,140.69,0Q238.15.17,335.6.05a52.51,52.51,0,0,1,27.91,8.19c13.37,8.19,21.89,20.14,26.49,35V366.6q-21.75,21.58-43.5,43.19-44.79,44.73-89.5,89.54H46c-11.8-3.52-22.42-8.85-31-18.07C7.25,473,3.1,463,0,452.42Zm220.75-202c0-8.81-.07-17.62,0-26.43,0-3.29-1.08-5.07-4.61-4.83a37.53,37.53,0,0,1-4.5,0c-3.18-.17-4.53,1.29-4.48,4.46.09,5.32,0,10.64,0,15.95,0,3.11-1.37,4.56-4.53,4.53-6.66-.06-13.32-.1-20,0-3.69.07-5.05-1.61-5-5.14.13-4.65-.26-9.33.09-13.95.41-5.21-2.2-6-6.6-6s-7.23.32-7.12,6c.32,16.12.11,32.24.11,48.37,0,8.27,0,8.14,8.35,8.13,3.9,0,5.38-1.41,5.24-5.28-.2-5.31,0-10.63,0-16-.06-3.37,1.39-4.83,4.78-4.78,6.49.09,13,.14,19.48,0,3.95-.1,5.34,1.66,5.24,5.4-.14,5.15.21,10.32-.08,15.46-.31,5.49,3.21,5.13,6.86,5.15s7,.25,6.82-5.2C220.54,267.7,220.76,259.05,220.75,250.41ZM99.21,250c0,9,.05,18,0,26.94,0,3,1,4.76,4.35,4.59,1.66-.08,3.33-.07,5,0,3,.11,4.28-1.25,4.2-4.19s.15-5.66,0-8.48c-.21-3.92,1.63-5.37,5.39-5.25,4,.13,8,.17,12-.09,13.14-.85,22.09-9.51,22.52-21.6.39-11-7.83-20.34-20.46-21.75-9.22-1-18.6-.61-27.9-1-4.07-.18-5.17,1.71-5.1,5.41C99.31,233,99.21,241.49,99.21,250Zm138-.14c0,8.81-.09,17.63.08,26.44,0,1.62.6,4,1.74,4.69,5.54,3.35,11.69-.21,11.71-6.5,0-1.83.11-3.67,0-5.49-.25-3.79,1.35-5.52,5.24-5.39s8,.16,12-.08c13.15-.79,22.09-9.33,22.65-21.47.51-11-7.78-20.48-20.31-21.87-9.22-1-18.6-.63-27.9-1-3.92-.17-5.32,1.43-5.25,5.27C237.32,232.87,237.21,241.35,237.21,249.83ZM5.17,109.39Q57.55,57.24,109.83,5c1.11-1.12,2.09-2.37,4-4.55-3.15-.16-5-.32-6.94-.32q-25,0-50,0A57.35,57.35,0,0,0,1.36,43.44C1,45.05.46,46.64,0,48.23V113.1A37.87,37.87,0,0,0,5.17,109.39Zm366.9,375.76A64.17,64.17,0,0,0,390,456.42V387.55c-1.52,1.26-3.16,2.4-4.56,3.79Q333.59,443,281.8,494.79c-1.39,1.39-2.54,3-3.8,4.54h67C354.85,496.19,364.27,492.36,372.07,485.15ZM127.46,253c6.66-.4,10.87-4.15,11.51-10.18.66-6.25-2.85-11.19-9.51-12.4-4-.74-8.24-.55-12.37-.71-3.22-.14-4.41,1.64-4.34,4.66s0,6,0,9c0,9.75,0,9.75,9.74,9.7C124.14,253,125.8,253.12,127.46,253ZM251,249.49c.2,1.25,1.76,3.24,2.76,3.27,5.11.18,10.43.59,15.29-.62,2.82-.7,5.89-3.88,7.13-6.69,2.94-6.7-1.07-13.24-8.38-15-13.75-3.4-17-1.36-16.93,10.65A56.37,56.37,0,0,0,251,249.49Z"/></g></g></svg>