<svg xmlns="http://www.w3.org/2000/svg" viewBox="0 0 389.57 499.35"><g id="Calque_2" data-name="Calque 2"><g id="Calque_1-2" data-name="Calque 1"><path d="M0,452.1V133.73q32.61-32.47,65.22-64.95Q99.51,34.46,133.66,0H343.12c4.09,1.38,8.25,2.58,12.24,4.18,17.23,6.91,34.36,28.11,34.21,50.64-.71,101.44-.34,202.89-.23,304.33a14.71,14.71,0,0,1-4.72,11.4q-62,61.77-123.76,123.82a15.23,15.23,0,0,1-11.78,5q-96.74-.21-193.47-.07c-14.58,0-26.71-5.55-37.38-15.15C8.57,475.43,3.37,464.31,0,452.1Zm78.83-190-1.34,0c-.62-1.67-1.29-3.32-1.84-5-3.33-10.28-6.62-20.58-10-30.85-2.52-7.78-7.21-9.66-15.11-6a7.94,7.94,0,0,0,.17,1.87q9,27.73,18.09,55.47c1.74,5.36,6.17,3.27,9.67,3.62,3.26.32,6.13.06,7.41-4,3.45-10.94,7.21-21.78,10.88-32.65.54-1.63,1.29-3.19,2.5-6.11,1.19,3,1.92,4.64,2.47,6.31,3.31,10.11,6.74,20.19,9.77,30.38,1.26,4.24,3,6.58,7.92,6.22,4.6-.34,8.84.65,10.75-5.81,5.09-17.21,11-34.18,16.53-51.26.48-1.48.71-3,1.06-4.59-10.58-2.23-11.66-1.66-14.69,7.61-3.36,10.27-6.66,20.56-10,30.83-.51,1.56-1.3,3-2.47,5.68-1.08-3-1.69-4.48-2.19-6-3.74-11.55-7.58-23.06-11.12-34.66-1.23-4-3.94-4.3-7.31-4.25s-6.49-.14-7.86,4.21c-3.2,10.14-6.78,20.17-10.22,30.23C80.9,256.18,79.86,259.12,78.83,262.06Zm184.55-12.94c1.58-1.74,2.7-2.93,3.78-4.16,5.38-6.17,5-15.36-1.42-20.41-2.88-2.25-6.72-4.24-10.26-4.51-11.4-.85-22.86-.87-34.29-1.15-3.33-.08-3.54,2.33-3.54,4.81,0,17.46.08,34.92-.05,52.37,0,4,1.58,5.22,5.36,5.15,9.13-.16,18.3.35,27.4-.22a45.42,45.42,0,0,0,15.36-3.55c10-4.46,11.12-18.54,2.33-25.19C266.75,251.28,265.34,250.44,263.38,249.12Zm-82.49,32.05c6.48,0,13-.12,19.43,0,3.68.1,5-1.39,5-5s-.76-5.7-4.94-5.58c-6.81.19-13.62,0-20.43,0-8.74,0-8.73,0-8.63-8.93,0-.5,0-1,0-1.5-.25-3.62,1.44-5.09,5-5,6.31.12,12.63-.1,18.94.06,3.61.09,5.07-1.28,5-5,0-3.5-.64-5.77-4.88-5.64-6.14.2-12.3-.13-18.44.09-4.38.15-6.1-1.71-5.7-5.93a17.7,17.7,0,0,0,0-3.49c-.49-4.59,1.61-6.19,6.09-6.06,7.47.23,15-.05,22.42.08,4.1.07,4.45-2.33,4.46-5.51s-.7-5.08-4.39-5q-18.69.15-37.38,0c-3.42,0-4.73,1.37-4.72,4.75q.12,26.43,0,52.86c0,3.8,1.72,4.88,5.19,4.8C168.92,281.06,174.91,281.17,180.89,281.17ZM286.47,249.5c0,8.81-.08,17.63.08,26.44,0,1.62.6,4,1.74,4.7,5.53,3.34,11.66-.22,11.68-6.51,0-1.83.11-3.67,0-5.49-.25-3.79,1.34-5.52,5.23-5.39s8,.16,12-.08c13.11-.79,22-9.33,22.59-21.47.51-11-7.76-20.48-20.26-21.87-9.2-1-18.55-.63-27.83-1-3.91-.17-5.31,1.43-5.23,5.27C286.59,232.54,286.47,241,286.47,249.5ZM4.44,109.77Q57.84,56.46,111.14,3c.94-.93,1.72-2,2.57-3H46.88C36.62,3,27,6.9,18.86,14.27,8.78,23.44,3,34.82,0,47.9v64.87A27.64,27.64,0,0,0,4.44,109.77ZM284.55,499.26c16.44,0,32.87-.19,49.31.05a51.1,51.1,0,0,0,33.66-11.6c13.81-11.11,22.49-24.88,21.86-43.62-.57-16.76-.11-33.56-.15-50.33a44.3,44.3,0,0,0-.43-4.79L278.54,499.26ZM231.2,266.57c0,.17,0,.4.05.49,1.11,1.17,2.23,3.31,3.37,3.32a187,187,0,0,0,19.24-.69c4.1-.37,6.72-3,6.48-7.35S257,256,253.1,255.49a77.67,77.67,0,0,0-9.41-.08C230.4,255.23,230,255.62,231.2,266.57Zm10.67-22a70,70,0,0,0,8.45-.07c3.84-.46,6.51-2.72,6.91-6.71.41-4.14-2-6.94-5.83-7.41a126.56,126.56,0,0,0-17.31-.68c-1,0-2.54,2-2.76,3.33-1.79,10.33-.49,11.75,10,11.75h.5Zm74.86,7.9c6.93-1.18,10.72-7.19,9-14-1.9-7.57-8.71-10.58-21.52-9-7.46.9-3,7-4.2,10.7a10.5,10.5,0,0,0,0,3c0,9.64,0,9.64,9.83,9.73A56.92,56.92,0,0,0,316.73,252.46Z"/></g></g></svg>