<svg xmlns="http://www.w3.org/2000/svg" viewBox="0 0 389.32 499.33"><g id="Calque_2" data-name="Calque 2"><g id="Calque_1-2" data-name="Calque 1"><path d="M389.32,43.24V366.6q-21.69,21.58-43.39,43.19-44.67,44.73-89.27,89.54H46.2c-1.56-.55-3.12-1.13-4.7-1.63C16,489.59.09,468,.09,441.21Q.06,291.3,0,141.41A14.74,14.74,0,0,1,4.6,130Q67.48,67.32,130.11,4.41A13.61,13.61,0,0,1,140.62,0q97.22.17,194.44.05a52.24,52.24,0,0,1,27.83,8.19C376.23,16.43,384.74,28.38,389.32,43.24ZM85.43,249.54c2.07-2.68,4.29-4.81,5.6-7.4,4.81-9.56-1-20.13-13.12-21.63-11.47-1.42-23.17-1.07-34.77-1.15-1.22,0-3.5,2.26-3.52,3.5q-.34,27.42,0,54.86c0,1.26,2.22,3.55,3.44,3.58,10.63.23,21.27.33,31.89-.13a33.65,33.65,0,0,0,12-3,14.89,14.89,0,0,0,2.23-26Zm208.34.89q0,11.46,0,22.93c0,8.42.13,8.42,8.75,8.2,3.35-.09,4.87-1.23,4.78-4.69-.14-5.32.1-10.64-.05-16-.11-3.76,1.29-5.48,5.21-5.38q9.46.25,18.94,0c3.86-.1,5.39,1.52,5.3,5.33-.14,5.48,0,11,0,16.45,0,2.94,1.28,4.3,4.21,4.18,1.66-.06,3.33-.06,5,0,2.86.11,4.3-1.08,4.3-4.09q-.06-27.18,0-54.35c0-2.73-1.3-3.95-4-3.89a42,42,0,0,1-4.49,0c-3.58-.28-5.18,1.19-5.06,4.89.16,5.15,0,10.31,0,15.46,0,3.07-1.25,4.62-4.44,4.59q-10.21-.08-20.44,0c-3.14,0-4.52-1.41-4.48-4.53.06-5-.29-10,.06-15,.37-5.22-2.56-5.61-6.52-5.49-3.77.11-7.38-.47-7.15,5.39C294,233.13,293.77,241.78,293.77,250.43Zm-125.62,30c-.59-1.5-1.11-3-1.76-4.48-7.56-17-15.22-34-22.67-51-1.61-3.68-3.34-6.06-7.95-5.93s-8.39.35-10.66,5.74c-7.4,17.61-15.38,35-23.1,52.46a25.09,25.09,0,0,0-1,3.58c10.88,2.06,11.93,1.66,16-7.54,1.58-3.57,3.83-4.94,7.68-4.8,6.3.24,12.63.28,18.93,0,4.32-.2,6.59,1.44,8.19,5.46C155.16,282.21,158.43,283.41,168.15,280.45Zm114-8.43c-2.56-2.41-4.61-5.32-7.41-6.57-1.33-.6-4.1,1.93-6.18,3.09a21.1,21.1,0,0,1-27-5.09c-5.84-7.32-5.61-19.68.5-26.84,6.57-7.71,18.66-10,27-3.84,5.25,3.91,7.58,1.74,10.84-1.76,2-2.16,1.78-3.56-.37-5.26-17.25-13.66-46.95-8.51-54.16,14.95-7,22.84,10.6,43.25,34.7,41.54C268.2,281.66,276,279.17,282.11,272Zm-88-52.86c-7.14,0-14.29.14-21.42-.06-3.95-.11-5.69,1.12-5.7,5.37s2,5.47,5.84,5.23c2.48-.16,5,0,7.47,0,6.37.06,6.74.4,6.76,6.82,0,13.13,0,26.25.08,39.37,0,1.69.63,4.69,1.37,4.82a27.06,27.06,0,0,0,10.22.16c1-.21,1.75-3.88,1.78-6q.24-19.94.05-39.87c0-3.81,1.43-5.52,5.28-5.34,3,.14,6-.12,9,0,3.78.21,5.86-.77,5.85-5.19,0-4.21-1.62-5.53-5.63-5.41C208,219.31,201.05,219.16,194.08,219.16Zm190.7,172.18Q333.06,443,281.4,494.79c-1.39,1.39-2.53,3-3.79,4.54h66.83c9.82-3.14,19.22-7,27-14.18a64.15,64.15,0,0,0,17.88-28.73V387.56C387.8,388.81,386.17,390,384.78,391.34Zm-273-391c-1.13,0-3-.2-5-.2Q81.91.06,57,.08A57,57,0,0,0,.1,56.78C0,73.4.07,90,.09,106.64c0,1.79.2,3.57.28,5ZM53,266.52c0,.33-.09.79.09,1,1.12,1.17,2.29,3.23,3.47,3.24A184.19,184.19,0,0,0,75.75,270c4.12-.39,6.67-3.1,6.37-7.43s-3.45-6.31-7.36-6.76a81.82,81.82,0,0,0-9.4-.07C52,255.56,52,255.56,53,266.52ZM64.12,245a74.2,74.2,0,0,0,7.46,0c4.06-.41,7-2.55,7.42-6.78.46-4.42-2.25-7.08-6.28-7.57A111.42,111.42,0,0,0,56.38,230c-1.15,0-3,2.05-3.25,3.38-1.85,10.29-.5,11.77,10,11.77h1Zm69.33-11.11-9.6,23.57h21.08c-3.46-8.43-6.56-16-9.66-23.5Z"/></g></g></svg>