<svg xmlns="http://www.w3.org/2000/svg" viewBox="0 0 389.32 499.33"><g id="Calque_2" data-name="Calque 2"><g id="Calque_1-2" data-name="Calque 1"><path d="M389.32,43.24V366.6q-21.69,21.58-43.39,43.19-44.67,44.73-89.27,89.54H46.2c-1.56-.55-3.12-1.13-4.7-1.63C16,489.59.09,468,.09,441.21Q.06,291.3,0,141.41A14.74,14.74,0,0,1,4.6,130Q67.48,67.32,130.11,4.41A13.61,13.61,0,0,1,140.62,0q97.22.17,194.44.05a52.24,52.24,0,0,1,27.83,8.19C376.23,16.43,384.74,28.38,389.32,43.24ZM206.62,232.83c5.62-7.62,4.74-10.38-4-12.77-8.35-2.28-16.71-2.64-25,.31-8.81,3.15-13.64,9.66-13.42,17.76.2,7.23,5.05,12.69,14,15.44,5.54,1.71,11.37,2.69,16.67,4.93,2.42,1,5.48,4.4,5.33,6.51s-3.53,5.1-6.07,5.9c-8,2.51-15.73.26-23-3.31-2.37-1.15-4.29-1.36-5,1.6-.59,2.63-4.85,5.66,0,8,12,5.78,24.45,7.43,37,2.05,7.41-3.16,10.83-9.57,10.47-17.6-.34-7.72-5.25-11.45-11.78-13.7-3.44-1.19-7-2-10.53-3-3.18-.93-6.59-1.49-9.41-3.08-1.84-1-4-3.69-3.88-5.45.16-2.15,2.22-5.31,4.13-5.92a30.09,30.09,0,0,1,12.12-1.17C198.5,229.78,202.54,231.6,206.62,232.83Zm11.89-13.64c1.58,2.41,2.51,3.94,3.54,5.39,5.08,7.18,10.12,14.4,15.35,21.47,2,2.7,2.07,4.91,0,7.57-3.29,4.17-6.34,8.53-9.45,12.83-3.36,4.65-6.67,9.33-10.13,14.17,10.65,2.58,13.91,1.47,19.44-6.44,3.28-4.68,6.46-9.43,9.8-14.32a12,12,0,0,1,2.22,1.7q5.13,7.05,10.15,14.16c4.25,6.06,10.46,7.72,18.08,4.58-.63-1-1.19-2-1.85-2.9-5.34-7.4-10.5-15-16.15-22.12-3.3-4.18-3.74-7.51-.12-11.74,3.77-4.39,6.95-9.3,10.32-14,2.15-3,4.17-6.12,6.39-9.4-9.83-2.45-12.41-1.58-17.57,5.51-1.36,1.88-2.65,3.82-4,5.72-1.94,2.74-3.89,5.47-6.43,9-4.42-6.32-7.93-11.72-11.89-16.77a11.85,11.85,0,0,0-6.14-4.23C226.74,218.66,223.16,219.19,218.51,219.19ZM117.25,266c-1.39,1.64-2.69,3.35-4.18,4.88-2.72,2.79-2.21,5.13,1.18,6.51,4.71,1.9,9.49,4.31,14.43,4.88,12.32,1.42,22.5-6.39,22.89-17.5.49-13.77.16-27.57.23-41.35,0-2.88-1.23-4.27-4.19-4.25q-13.2.09-26.39,0c-3.84,0-4.13,2.41-4.15,5.33s.62,5.24,4.33,5.17a101.35,101.35,0,0,1,12.93.19c1.64.18,4.4,2.08,4.41,3.23.17,10.44.33,20.92-.51,31.31-.49,6.15-6.49,9.06-12.35,6.76C123,270,120.53,268,117.25,266ZM384.78,391.34Q333.06,443,281.4,494.79c-1.39,1.39-2.53,3-3.79,4.54h66.83c9.82-3.14,19.22-7,27-14.18a64.15,64.15,0,0,0,17.88-28.73V387.56C387.8,388.81,386.17,390,384.78,391.34ZM111.46.07H107.1c-16.78,0-33.55,0-50.33,0A57,57,0,0,0,.1,56.51C0,73.3.07,90.09.1,106.87c0,1.75.23,3.49.29,4.32Z"/></g></g></svg>