<svg xmlns="http://www.w3.org/2000/svg" viewBox="0 0 389.57 499.36"><g id="Calque_2" data-name="Calque 2"><g id="Calque_1-2" data-name="Calque 1"><path d="M0,452.1V133.73q32.61-32.47,65.22-64.95Q99.51,34.46,133.66,0H343.12c4.09,1.38,8.25,2.58,12.24,4.18,17.23,6.91,34.36,28.11,34.21,50.64-.71,101.44-.34,202.89-.23,304.33a14.71,14.71,0,0,1-4.72,11.4q-62,61.77-123.76,123.82a15.23,15.23,0,0,1-11.78,5q-96.74-.21-193.47-.07c-14.58,0-26.71-5.55-37.38-15.15C8.57,475.43,3.37,464.31,0,452.1ZM272.72,244.49l1.56-.59c3.89,4.66,7.8,9.31,11.68,14,5.72,6.91,11.41,13.85,17.14,20.75,2.94,3.53,7.1,3.11,10.57,2,1.34-.43,2.16-4.34,2.19-6.68.18-15.63.1-31.26.09-46.9,0-8.53-.06-8.44-8.65-8.29-3.75.06-4.92,1.6-4.86,5.13.14,8,0,16,0,24q0,4,0,8.1l-1.51.48c-1-1.25-2.1-2.48-3.13-3.75q-7.24-8.88-14.47-17.79-5.5-6.76-11-13.51c-2.94-3.58-7.09-3.11-10.55-2-1.33.44-2.12,4.38-2.14,6.74-.18,16.63,0,33.26-.16,49.88,0,4.4,2,5.39,5.81,5.22,3.56-.16,7.15.47,7-5.06-.21-8.64-.07-17.29,0-25.94C272.28,248.31,272.56,246.4,272.72,244.49Zm-93,5.15c-.07,18.4,14.51,32.47,33.67,32.5,18.89,0,33.7-14,33.74-32S232.53,218,213.64,217.86,179.82,231.71,179.74,249.64Zm-14.91-17c.59-1.12,1.11-2,1.51-2.85,2.71-6.14,2.27-7.42-4-9.44-9.05-2.91-18.23-3.55-27.33-.15-8.59,3.21-13.2,9.54-13,17.53.16,7.24,5,12.75,13.94,15.5,5.39,1.65,10.91,2.89,16.29,4.57,3.27,1,6.4,2.8,6.15,6.84s-3.35,5.43-6.78,6.23c-8,1.85-15.47-.07-22.63-3.55-2.3-1.12-4.31-1.53-5,1.49-.6,2.63-4.92,5.68-.1,8,12.17,5.89,24.83,7.69,37.46,1.87,7-3.22,10.68-9.09,10.16-17.29-.48-7.71-5.22-11.46-11.75-13.77-2.81-1-5.71-1.72-8.58-2.55-3.67-1.06-7.56-1.64-10.91-3.31-2-1-4.64-3.94-4.37-5.57.4-2.4,2.73-5.52,5-6.34A24.31,24.31,0,0,1,152,229C156.22,229.51,160.25,231.26,164.83,232.63ZM76.25,265.48c-1.45,1.68-2.75,3.37-4.25,4.87-3,3-2.31,5.38,1.25,6.83,4.55,1.87,9.18,4.16,14,4.75,12.53,1.55,22.79-6.34,23.16-17.76.45-13.6.14-27.23.22-40.85,0-3.12-1.27-4.54-4.46-4.51q-12.94.13-25.9,0c-3.67,0-4.38,2-4.4,5.09,0,3.26.63,5.55,4.6,5.44a89.76,89.76,0,0,1,12.92.19c1.58.19,4.18,2.22,4.21,3.47.25,9.94.53,20-.27,29.85-.63,7.86-7.66,10.92-14.71,7.13A63.12,63.12,0,0,1,76.25,265.48ZM4.44,109.77Q57.84,56.46,111.14,3c.94-.93,1.72-2,2.57-3H46.88C36.62,3,27,6.9,18.86,14.27,8.78,23.44,3,34.82,0,47.9v64.87A27.64,27.64,0,0,0,4.44,109.77ZM284.17,499.24c16.27,0,32.54-.23,48.81.1,10.32.21,19.95-2,28.47-7.52,16.95-10.89,28.24-25.36,27.87-46.85-.3-16.94-.05-33.89-.07-50.83,0-1.9-.18-3.8-.24-5.08L279.19,499C280.37,499.05,282.27,499.24,284.17,499.24ZM213.72,270.71c11.7-.06,19.92-8.66,19.88-20.8s-8.28-20.6-20.07-20.62c-12.32,0-20.27,8.15-20.25,20.81S201.33,270.78,213.72,270.71Z"/></g></g></svg>