<?xml version="1.0" encoding="utf-8"?>
<!-- Generator: Adobe Illustrator 25.2.0, SVG Export Plug-In . SVG Version: 6.00 Build 0)  -->
<svg version="1.1" id="Calque_1" xmlns="http://www.w3.org/2000/svg" xmlns:xlink="http://www.w3.org/1999/xlink" x="0px" y="0px"
	 viewBox="0 0 1000 1000" style="enable-background:new 0 0 1000 1000;" xml:space="preserve">
<path d="M497.8,999.9c-21.6,1.2-41.7-5.9-60.8-16c-31.5-16.7-62.9-33.6-94.3-50.6c-49.4-26.7-98.7-53.6-148-80.4
	c-13.7-7.4-27.5-14.7-41.3-22.1c-3.1-1.7-6.4-3.3-9-5.6c-4.8-4.2-5.3-9.1-1.4-14.2c2.4-3.2,5.5-5.9,8.3-8.7
	c195-195,390.1-389.8,584.6-585.3c17.8-17.9,31.8-11.4,36.8,10.3c4.6,19.9,7.7,40.1,11,60.3c3.4,20.6,6.4,41.3,9.5,61.9
	c4.1,26.8,8,53.6,12.1,80.4c2.9,18.9,5.8,37.8,8.7,56.7c4.2,27.2,8.4,54.4,12.7,81.6c6,38.6,12.1,77.2,18.1,115.9
	c4.7,30.3,9.1,60.6,13.9,90.9c4.3,27.6-7,47.7-30.2,61.6c-13,7.8-26.2,15.2-39.6,22.4c-43.6,23.4-87.3,46.5-131,69.8
	c-37.8,20.1-75.5,40.4-113.2,60.5C530.2,996.9,514.8,1000.7,497.8,999.9z M178.5,621.4c5.4-9.7,10.7-19.5,16.1-29.3
	c17.1-31.3,34-62.7,51.2-93.9c27.3-49.6,54.8-99.1,82.1-148.6c17-30.8,33.9-61.7,50.8-92.6c8.1-14.8,16.2-29.6,24.6-45
	c-4.8-8.8-9.5-17.3-14.1-25.9C361,133.4,332.9,80.7,304.6,28.1c-3.4-6.3-7-12.5-11.2-18.2c-4.2-5.8-9.3-11.6-17.7-9.5
	c-7.6,1.9-11.4,8.1-13.8,15.1c-0.7,2.1-0.8,4.4-1.2,6.6c-1.4,8.3-2.7,16.7-4.1,25c-3.9,23.2-7.9,46.4-11.6,69.7
	c-4.9,31.2-9.4,62.4-14.4,93.5c-5.9,36.9-12.1,73.7-18,110.5c-5.7,35.5-11.2,71.1-16.8,106.7c-4.1,25.9-8.4,51.7-12.7,77.6
	c-5,30.7-10.5,61.3-14.9,92.1c-1.5,10.2-6.4,20.6-1.9,32C173.7,630.1,176.1,625.6,178.5,621.4z M422.3,272.9
	c-10.6,19.1-21.1,38.3-31.6,57.4c-15.9,28.9-31.7,57.9-47.7,86.7c-21.6,39-43.2,78-64.9,116.9c-12.3,22.2-24.7,44.4-37,66.7
	c-11.8,21.5-23.6,43-35.3,64.5c-1.9,3.6-5.7,7.4-1.7,12.4c7.1,1.8,10.1-4.3,13.9-8.1c91-90.8,181.8-181.7,272.7-272.6
	c2.8-2.8,5.3-5.8,8.4-9.3c-23.5-41.3-44.3-83.5-68.8-125.6C426.9,266.6,424.2,269.5,422.3,272.9z M585.8,287.7
	c-20-36.3-39.9-72.7-60-108.9c-2.6-4.6-5.7-9.1-9.2-13.1c-9.4-10.6-25.2-10.8-33.6,0.6c-10.7,14.7-19.5,30.7-26.7,47
	c13.1,24.1,25.5,47.3,38.2,70.3c12.8,23.1,24.3,47.1,38,69.2c19.4-19.4,37.6-37.6,57-57C588.3,293.3,587.2,290.4,585.8,287.7z"/>
</svg>
