<?xml version="1.0" encoding="utf-8"?>
<!-- Generator: Adobe Illustrator 25.2.0, SVG Export Plug-In . SVG Version: 6.00 Build 0)  -->
<svg version="1.1" id="Calque_1" xmlns="http://www.w3.org/2000/svg" xmlns:xlink="http://www.w3.org/1999/xlink" x="0px" y="0px"
	 viewBox="0 0 1000 1000" style="enable-background:new 0 0 1000 1000;" xml:space="preserve">
<path d="M469.9,298.6c142.9,0,285.8-0.1,428.6,0c45.2,0,85.4,29,98.3,71c2,6.6,2.6,13.8,2.6,20.8c0.1,127.1-0.9,254.2,0.7,381.3
	c0.5,40.2-31.6,79.3-64.1,89.8c-9.4,3-19.6,5.1-29.4,5.1c-270.7,0.3-541.3,0.2-812,0.2c-50.2,0-94.4-44.3-94.4-94.7
	c-0.1-144.9,0-289.8,0-434.7c0-25.7,13-38.8,39.1-38.8c130.1-0.1,260.3,0,390.4,0C443,298.6,456.4,298.6,469.9,298.6z M344.2,185.5
	c-18.6-32.2-46.3-51.8-84.8-52.1c-56-0.4-112-0.4-168,0.1c-43.2,0.4-87.9,43.1-91.2,86.1c-1,13.7,0.2,15.2,13.8,15.2
	c112.7,0,225.3,0,338,0c3.5,0,7-0.4,12.8-0.8C357.6,216.6,352.7,200,344.2,185.5z"/>
</svg>
