<svg xmlns="http://www.w3.org/2000/svg" viewBox="0 0 495.81 363.82"><g id="Calque_2" data-name="Calque 2"><g id="Calque_1-2" data-name="Calque 1"><path d="M233,82.06q106.26,0,212.52,0c22.43,0,42.33,14.37,48.72,35.21a36,36,0,0,1,1.28,10.31c.07,63-.43,126.05.33,189.07.24,19.95-15.66,39.32-31.77,44.51a48.82,48.82,0,0,1-14.58,2.53q-201.28.19-402.59.09c-24.87,0-46.78-22-46.79-47Q0,209.07.06,101.32c0-12.76,6.46-19.24,19.38-19.24q96.8,0,193.57,0ZM170.68,26C161.44,10,147.71.27,128.63.14Q87-.13,45.34.17C23.9.35,1.75,21.52.14,42.88-.38,49.7.25,50.42,7,50.42q83.79,0,167.57,0c1.74,0,3.48-.22,6.36-.41C177.32,41.39,174.86,33.18,170.68,26Z"/></g></g></svg>