<svg xmlns="http://www.w3.org/2000/svg" viewBox="0 0 499.38 500"><g id="Calque_2" data-name="Calque 2"><g id="Calque_1-2" data-name="Calque 1"><path d="M0,446V128c4-9.26,9.26-16.1,20.86-16.09q212.76.23,425.53.13c8.45,0,16.56,1.86,23.64,6.68,18.84,12.85,28.85,31.34,29,53.61.57,89.14.35,178.28.14,267.42a65.22,65.22,0,0,1-19.32,46.81c-5.16,5.23-11.8,9-17.76,13.44H37.92a27,27,0,0,0-4.1-2.79,47.25,47.25,0,0,1-24.19-24.1C5.62,464.45,3.15,455.07,0,446ZM38.92,0C32.13,4.63,24.6,8.49,18.71,14.07c-9.36,8.88-14,20.72-17,33.19C1.18,49.52.57,51.75,0,54V69c2.49.06,5,.17,7.47.17H158.92c5.81,0,11.63-.12,17.43,0,4.31.11,5.8-1.51,4.46-5.75q-3-9.51-5.74-19.11C169.26,23.94,158.18,8,137.72,0Z"/></g></g></svg>