<?xml version="1.0" encoding="utf-8"?>
<!-- Generator: Adobe Illustrator 25.2.0, SVG Export Plug-In . SVG Version: 6.00 Build 0)  -->
<svg version="1.1" id="Calque_1" xmlns="http://www.w3.org/2000/svg" xmlns:xlink="http://www.w3.org/1999/xlink" x="0px" y="0px"
	 viewBox="0 0 1000 1000" style="enable-background:new 0 0 1000 1000;" xml:space="preserve">
<path d="M469.9,225.6c142.9,0,285.8-0.1,428.6,0c45.2,0,85.4,39.5,98.3,96.8c2,9,2.6,18.9,2.6,28.3c0.1,173.2-0.9,346.5,0.7,519.7
	c0.5,54.9-31.6,108.1-64.1,122.3c-9.4,4.1-19.6,6.9-29.4,6.9c-270.7,0.4-541.3,0.3-812,0.3c-50.2,0-94.4-60.4-94.4-129.1
	c-0.1-197.5,0-394.9,0-592.4c0-35.1,13-52.9,39.1-52.9c130.1-0.1,260.3,0,390.4,0C443,225.6,456.4,225.6,469.9,225.6z M344.2,71.4
	c-18.6-43.9-46.3-70.6-84.8-71c-56-0.5-112-0.6-168,0.1C48.2,1,3.5,59.2,0.3,117.9c-1,18.7,0.2,20.7,13.8,20.7
	c112.7,0,225.3,0,338,0c3.5,0,7-0.6,12.8-1.1C357.6,113.8,352.7,91.2,344.2,71.4z"/>
</svg>
