<?xml version="1.0" encoding="utf-8"?>
<!-- Generator: Adobe Illustrator 25.2.0, SVG Export Plug-In . SVG Version: 6.00 Build 0)  -->
<svg version="1.1" id="Calque_1" xmlns="http://www.w3.org/2000/svg" xmlns:xlink="http://www.w3.org/1999/xlink" x="0px" y="0px"
	 viewBox="0 0 1000 1000" style="enable-background:new 0 0 1000 1000;" xml:space="preserve">
<path d="M366.2,77c24.9,0,49.8,0.7,74.7-0.2c16-0.6,24.5,5.1,29.5,20.8c44.5,138.1,89.7,276,134.5,414
	c41.3,127.2,82.5,254.4,123.5,381.7c7.7,24,6.2,25.7-18.8,25.8c-39.8,0.2-79.7-0.4-119.5,0.3c-16.1,0.3-24.5-5.9-29.3-21.4
	c-20.3-65.2-42-129.9-62-195.2c-5.1-16.6-13.2-22.6-30.2-22.4c-71.9,0.7-143.7,0.7-215.6,0c-16.4-0.1-23.8,5.8-28.3,21.6
	c-18.3,63.6-38.5,126.6-56.7,190.2c-5.6,19.5-14.7,28.3-35.8,27.4c-34.8-1.5-69.7-0.3-104.6-0.4C-2,919-4.3,915.9,4.5,888.4
	C35,793.6,65.8,698.9,96.2,604c53.9-168,107.7-335.9,160.9-504.1c5.5-17.4,14.4-24,32.2-23.2C314.9,77.8,340.6,77,366.2,77z
	 M461.4,558c-34.8-114.7-69-227.3-102.4-337.1c-32.4,110.4-65.4,223-98.9,337.1C328,558,393.6,558,461.4,558z M832.4,891
	c0,25.4,2.7,28,28.4,28.1c36.3,0.2,72.6-0.4,108.8,0.2c18.1,0.3,25.5-6.7,25.5-25.1c-0.3-187.8-0.3-375.5,0-563.3
	c0-17.9-7.4-23.6-24.4-23.3c-37,0.7-74,0.1-110.9,0.2c-25.8,0.1-27.4,1.7-27.4,28.4c-0.1,91.7,0,183.5,0,275.2
	C832.4,704.6,832.3,797.8,832.4,891z M912.8,56.5c-46.5,0.7-87.9,40.4-88.5,84.7c-0.6,48.5,37.4,86.2,87.1,86.3
	c52.3,0.2,88.5-33.8,88.6-83.2C1000.1,93.4,962.7,55.7,912.8,56.5z"/>
</svg>
