<?xml version="1.0" encoding="utf-8"?>
<!-- Generator: Adobe Illustrator 25.2.0, SVG Export Plug-In . SVG Version: 6.00 Build 0)  -->
<svg version="1.1" id="Calque_1" xmlns="http://www.w3.org/2000/svg" xmlns:xlink="http://www.w3.org/1999/xlink" x="0px" y="0px"
	 viewBox="0 0 1000 1000" style="enable-background:new 0 0 1000 1000;" xml:space="preserve">
<path d="M500,1000c-109.2,0-218.4,0.1-327.6,0c-88.9-0.1-157-58-171-145.5c-1.3-8-1.3-16.2-1.3-24.3C0,610.1-0.1,390,0.1,170
	C0.1,73.8,73.8,0.2,169.9,0.1C389.9,0,610,0,830,0.1c96.2,0.1,169.8,73.7,169.9,169.8c0.1,220.1,0.1,440.1,0,660.2
	c-0.1,96.1-73.7,169.6-169.8,169.9c-55.2,0.1-110.4,0-165.7,0C609.7,1000,554.8,1000,500,1000z M218.2,739.9
	c5.6,0.5,9.4,1.2,13.3,1.2c19.5,0.1,39-0.4,58.5,0.2c9.7,0.3,14.5-2.8,17.3-12.5c10.6-36.2,22.5-72.1,32.9-108.4
	c3.1-10.8,8.5-13.9,19-13.8c41,0.4,82,0.5,123-0.1c11.6-0.2,17.6,3.4,21,14.9c10.7,35.8,22.7,71.1,33.6,106.8
	c2.8,9.3,7.5,13.2,17.4,12.9c17.4-0.6,34.9-0.1,52.4-0.1c24.2,0,24.2,0,16.5-23.4c-21.7-66.4-43.4-132.7-65-199.1
	c-25.9-79.5-51.8-159-77.4-238.6c-2.7-8.5-7.3-11.4-15.9-11.2c-23.5,0.4-47.1,0-70.6,0.2c-27.6,0.2-24-3.3-32.4,23.1
	c-40.4,126.4-81.2,252.7-121.9,379C232.7,693.5,225.7,715.9,218.2,739.9z M695,571.9c0,51.5,0.2,103-0.2,154.5
	c-0.1,11.1,3.6,15.3,14.8,14.9c18.2-0.6,36.5-0.4,54.8-0.1c9,0.2,13.3-2.7,13.3-12.5c-0.2-104.6-0.2-209.3,0-313.9
	c0-8.8-3.3-12.5-12.2-12.3c-18.2,0.3-36.5,0-54.8,0.1c-14.9,0.1-15.7,0.8-15.7,16C695,469.7,695,520.8,695,571.9z M737.5,258.9
	c-29-0.3-46.9,16.2-47.3,43.6c-0.4,26.7,17.8,45.5,44.2,45.9c28.3,0.4,47.7-17.1,48.1-43.3C782.9,277.1,765.5,259.3,737.5,258.9z
	 M416.3,342.8c-18.4,63.5-36.8,127.1-55.3,190.6c-2.8,9.7,2.1,11.1,10,11c32.9-0.2,65.8,0,98.7-0.1c13.2,0,14-1.4,10.1-14.3
	c-18.2-60.6-36.4-121.3-54.6-181.9c-1-3.3-2.5-6.4-4.8-12.3C417.8,340.1,416.7,341.4,416.3,342.8z"/>
</svg>
