<?xml version="1.0" encoding="utf-8"?>
<!-- Generator: Adobe Illustrator 25.2.0, SVG Export Plug-In . SVG Version: 6.00 Build 0)  -->
<svg version="1.1" id="Calque_1" xmlns="http://www.w3.org/2000/svg" xmlns:xlink="http://www.w3.org/1999/xlink" x="0px" y="0px"
	 viewBox="0 0 32 32" style="enable-background:new 0 0 32 32;" xml:space="preserve">
<path d="M0,0v32h32V0H0z M17.4,25c0,3.1-1.8,4.5-4.5,4.5c-2.4,0-3.8-1.2-4.5-2.7l2.5-1.5c0.5,0.8,0.9,1.5,1.9,1.5
	c1,0,1.6-0.4,1.6-1.9V14.7h3V25z M24.5,29.5c-2.8,0-4.6-1.3-5.5-3.1l2.5-1.4c0.6,1.1,1.5,1.8,3,1.8c1.2,0,2-0.6,2-1.5
	c0-1-0.8-1.4-2.2-2L23.6,23c-2.2-0.9-3.6-2.1-3.6-4.5c0-2.3,1.7-4,4.4-4c1.9,0,3.3,0.7,4.3,2.4l-2.3,1.5c-0.5-0.9-1.1-1.3-1.9-1.3
	c-0.9,0-1.4,0.6-1.4,1.3c0,0.9,0.6,1.3,1.9,1.8l0.7,0.3c2.6,1.1,4,2.2,4,4.7C29.5,28,27.4,29.5,24.5,29.5L24.5,29.5z"/>
</svg>
