<?xml version="1.0" encoding="utf-8"?>
<!-- Generator: Adobe Illustrator 25.2.0, SVG Export Plug-In . SVG Version: 6.00 Build 0)  -->
<svg version="1.1" id="Calque_1" xmlns="http://www.w3.org/2000/svg" xmlns:xlink="http://www.w3.org/1999/xlink" x="0px" y="0px"
	 viewBox="0 0 1000 1000" style="enable-background:new 0 0 1000 1000;" xml:space="preserve">
<path d="M339.2,529.4c-3.5,13.5-6.1,25-9.6,36.2c-0.8,2.4-4.7,4.2-7.4,5.6c-1.4,0.7-3.4,0.2-5.2,0.2c-34.1,0.1-68.2,0.3-102.3,0.1
	c-8,0-16-0.6-23.8-2.1c-32.4-6.3-51.9-28.5-53.6-61.5c-1.9-36.1,6.7-69.9,25.7-100.5c20-32.2,49.2-49.4,87.8-48.5
	c10.4,0.2,21-0.1,31.1,1.9c45.2,9.3,65.3,49.7,58,88.5c-4,21-12,41.3-18.3,61.9c-0.8,2.7-2.1,5.2-3,7.8c-3.7,9.7-3.3,10.2,7.5,10.5
	C329.7,529.5,333.5,529.4,339.2,529.4z M240.5,527.8c0,0.1,0,0.1,0,0.2c6.3,0,12.5-0.3,18.8,0.1c7.2,0.5,10.5-2.5,12.3-9.5
	c5.1-19.8,11.1-39.4,16.4-59.2c1.6-6,2.6-12.3,2.9-18.5c1-20.1-8.7-34.3-26.9-37.8c-25.3-4.9-47.2,2.4-59.8,25.2
	c-11.9,21.4-17.3,44.7-15.5,69.2c1.3,18.4,12.5,29.1,31,30.3C226.6,528.2,233.5,527.8,240.5,527.8z M624.1,502.9
	c-14.3,0-28.5-0.1-42.8,0.1c-4.6,0.1-10.2-1.7-12.4,4.8c-2,5.9,0.4,14.7,6,17.6c5.1,2.6,11.1,4.6,16.7,4.8
	c20.5,0.6,41.1,0.4,61.6,0.4c2.8,0,5.6-0.1,8.4,0c7.3,0.4,8,1.1,6.6,8.1c-1.7,8.9-3.7,17.7-5.4,26.6c-0.9,4.7-2.9,7.8-8.1,7.7
	c-29.6-0.6-59.1-0.8-88.6-2c-6.7-0.3-13.5-3.2-19.8-6c-15-6.7-23.6-19-24.4-35c-1.7-33.3,5.1-65.2,22.6-93.9
	c14.3-23.3,37.3-32.6,63.3-35c16-1.5,32-1.3,47.5,3.8c18.5,6.2,28.4,19.3,30.3,38.5c1.8,18.3-2,36-6.2,53.6c-1.3,5.4-5,5.9-9.5,5.8
	C654.7,502.8,639.4,502.9,624.1,502.9z M577,467.2c3.8,0.3,6.8,0.6,9.8,0.6c13.6,0.1,27.2,0.1,40.7,0c11.1,0,15.1-5.8,9.8-15.7
	c-2.2-4.1-7-8.1-11.5-9.6c-10.5-3.4-21.5-2.8-31.6,1.9C585.1,448.7,578.8,455.7,577,467.2z M440.4,571.1c12.5,0,25,0.1,37.6,0
	c10-0.1,10.2-0.1,12.3-10c6.8-31.2,13.4-62.5,20.1-93.8c3.9-18.3,7.8-36.7,11.7-55.1c1.9-9,1.5-9.4-7.8-9.5
	c-8.3-0.1-16.7,0.4-25-0.2c-7.2-0.5-9.9,2.9-11.2,9.2c-2.7,13.6-5.7,27.2-8.7,40.8c-4.9,22.8-9.8,45.5-14.7,68.3
	c-1,4.5-1.5,9.3-7.8,9.2c-9.7,0-19.5,0.4-29.2-0.3c-10.4-0.8-15.3-6.7-15.6-17.3c-0.1-3.1,0.1-6.3,0.7-9.3c2-11.3,4.2-22.5,6.5-33.8
	c3.9-19.4,7.9-38.8,11.6-58.3c1.5-7.9,1.1-8.2-7-8.4c-8.3-0.1-16.7-0.1-25,0c-11,0.1-11,0.1-13.4,11.3
	c-5.3,25.2-11.1,50.2-15.6,75.5c-2.3,13.2-3.5,27-3.1,40.4c0.8,22.3,13.7,36.5,35.8,39.4c15.8,2.1,31.9,1.7,47.8,2.4
	C440.3,571.6,440.4,571.4,440.4,571.1z M867.1,462.5c-1.1-5.1-3.6-7.7-9.3-7.6c-11.5,0.3-23,0-34.4,0.1c-7.9,0.1-8.6,1-6.6,8.6
	c3.2,11.7,5.8,23.7,10.2,35c8.1,20.9,9.8,41.6,1.3,62.7c-0.3,0.6-0.5,1.3-0.6,2c-1.5,7-1.1,7.6,6.4,7.8c8.3,0.2,16.7,0.1,25,0
	c19.3-0.1,16.7,2.1,21-16.5c3.6-15.9,10.1-29.7,20.2-42.7c31.7-41,62.5-82.6,93.6-124.1c1.9-2.6,3.6-5.4,6.2-9.4
	c-16.2,0-30.3,0.4-44.5-0.1c-8.2-0.3-13.4,2.4-18,9.4c-19,28.7-38.6,57-58,85.4c-1.9,2.8-4,5.5-7.3,10
	C870.1,475,868.5,468.8,867.1,462.5z M844.4,444.4c21.6,0,18.5,1.5,14.4-18.4c-2.6-12.7-10.6-19.9-23.5-21.6
	c-3.1-0.4-6.2-1.1-9.3-1.1c-31.3-0.1-62.6,0-93.9-0.1c-6,0-8.6,2.6-9.8,8.3c-10.5,50.3-21.3,100.6-31.9,150.9
	c-1.8,8.5-1.6,8.6,7.4,8.8c7.6,0.1,15.3,0,23,0c13,0,12.8-0.1,15.4-12.6c7-34.4,14.1-68.7,21.3-103.1c2.2-10.5,2.8-10.9,13.9-11
	c13.2-0.1,26.4,0,39.7,0C822.1,444.4,833.3,444.5,844.4,444.4z M40.6,638.3c17.6,0.7,30.2-7.3,38.7-21.8c4.7-8,8.4-16.8,11-25.7
	c3.9-12.9,6.6-26.2,9.5-39.5c6.4-29.1,12.7-58.3,19-87.5c1.8-8.2,1.3-8.8-7.4-8.9c-9.7-0.1-19.5-0.1-29.2,0
	c-9.1,0.1-9.6,0.5-11.7,9.7c-4.4,19.3-8.6,38.6-12.8,58c-3.6,16.3-6.6,32.7-10.7,48.8c-4.9,19.2-11.6,24.4-30.7,25.5
	c-3.9,0.2-6.9,1.1-7.9,5.2c-2.7,11.4-5.4,22.8-8.5,36.2C15,638.2,27.9,637.8,40.6,638.3z M99.2,443.4c5.6,0,11.1-0.2,16.7,0.1
	c5.6,0.3,8.2-2.5,9.3-7.6c1.8-8.8,3.5-17.7,5.7-26.5c1.3-5.4-0.8-6.9-5.7-6.8c-11.1,0.1-22.2,0.1-33.4,0c-4.5-0.1-7.3,1.6-8.3,6.1
	c-2.2,9.5-4.3,19-6.5,28.4c-1.1,4.7,1.2,6.4,5.6,6.4C88.1,443.3,93.6,443.3,99.2,443.4C99.2,443.3,99.2,443.3,99.2,443.4z"/>
</svg>
