<svg xmlns="http://www.w3.org/2000/svg" viewBox="0 0 495.15 495.25"><g id="Calque_2" data-name="Calque 2"><g id="Calque_1-2" data-name="Calque 1"><path d="M495.15,243.27c-.14,64.9-19.54,118.53-58.62,164.43-41.86,49.17-95.31,77.91-159.58,85.62-60,7.19-115.69-5.69-165.76-39.2C49.61,412.91,12.9,355,2.53,281.46c-7.2-51.09,1-100,24.34-146.23,2.92-5.78,6.12-11.44,9.51-17A23.3,23.3,0,0,1,67.78,110c10.61,5.87,14.41,19.26,8.89,30.72-6.62,13.76-14.55,27.1-19.38,41.47-17,50.47-15.57,100.77,7.45,149.06,31.38,65.85,83.58,105.59,156.08,115.6,64.95,9,121.57-10.55,168.52-56.61,33.63-33,53.14-73.13,58.34-120,4.34-39.12-1.18-76.94-19.45-111.89C395.64,96.07,344.59,58.55,274.54,48c-24.45-3.68-48.7-2.09-72.77,3.35-10.35,2.34-20.06-1.43-25.35-9.61a22.94,22.94,0,0,1,1.88-27.4,25.87,25.87,0,0,1,12.41-7.54A236.87,236.87,0,0,1,265.37.67,245.33,245.33,0,0,1,364.3,29.11c41.82,22.34,74.48,54.23,98.24,95.21a241.88,241.88,0,0,1,30.94,93.07C494.7,227.43,494.81,237.6,495.15,243.27ZM368.54,173.49c-5-22.27-18.43-37.77-40-44.44C308,122.72,288.28,126,271.59,140.7c-5.34,4.71-10.29,9.88-15.32,14.93-8.55,8.59-17.11,17.16-25.49,25.91-3.61,3.78-3.45,8.39-.16,12.14A9.15,9.15,0,0,0,243.2,195a31.53,31.53,0,0,0,3.67-3.37c11.06-11,22.06-22.14,33.2-33.1a58.91,58.91,0,0,1,8.87-7.2c17.42-11.42,39.45-7.42,53.54,9.57,12.1,14.6,11.06,38.2-2.59,52.12q-21.12,21.54-42.68,42.67c-15.75,15.41-39,15.69-55.41,1a20.07,20.07,0,0,0-4-2.88,9.49,9.49,0,0,0-11.68,2.52,9.18,9.18,0,0,0,.08,11.53,34.63,34.63,0,0,0,5.35,5.2C256,292.36,289,290.59,311.4,268.62q20.14-19.69,39.86-39.85c11.73-12,18.84-26.05,18.06-43.37C369.09,181.42,369.4,177.33,368.54,173.49ZM225,354.42c13.72-12.81,26.78-26.34,40.07-39.62a11.28,11.28,0,0,0,2.27-3.83,9.08,9.08,0,0,0-6.61-12.32c-4.2-.94-7.35.9-10.22,3.79q-17.94,18-36,36a40.43,40.43,0,0,1-57.62-56.74q20.49-21.12,41.64-41.61c10.15-9.86,22.33-14.15,36.54-11.25a40.48,40.48,0,0,1,20.48,10.7c4.39,4.22,9.94,4.17,13.79.32s3.78-9.72-.71-14.14a53.2,53.2,0,0,0-6.92-5.68c-23.38-16.36-53.68-14.19-72.86,3.55-16.08,14.89-31.34,30.69-46.61,46.44C126.67,286.1,124,305.8,129.05,326.6c5.71,23.38,30.51,44.29,57.06,41.86C200.73,370,214,364.69,225,354.42ZM113,91c12.83-.07,22.51-9.85,22.54-22.81,0-13.39-9.46-23.25-22.5-23.34s-22.8,9.79-22.8,23S100,91.07,113,91Z"/></g></g></svg>