<?xml version="1.0" encoding="utf-8"?>
<!-- Generator: Adobe Illustrator 25.2.0, SVG Export Plug-In . SVG Version: 6.00 Build 0)  -->
<svg version="1.1" id="Calque_1" xmlns="http://www.w3.org/2000/svg" xmlns:xlink="http://www.w3.org/1999/xlink" x="0px" y="0px"
	 viewBox="0 0 1000 1000" style="enable-background:new 0 0 1000 1000;" xml:space="preserve">
<path d="M999.9,95.4c0,4.8,0,8.4,0,11.9c0,54.3,0,108.7,0,163c0,11.8-0.1,11.9-11.8,11.9c-325.2,0-650.4,0-975.6,0
	c-12.3,0-12.3-0.1-12.3-12.6c0-53.5,0-107,0-160.6c0-15.2-1.7-13.6,13.6-13.6c297.2,0,594.4,0,891.7,0
	C936.2,95.4,967,95.4,999.9,95.4z M986.5,594.2c15.1,0,13.3,0.5,13.3-12.9c0-52.7,0.1-105.4,0-158.2c0-18.2,2.7-16.1-16.1-16.1
	c-307,0-614,0-921,0c-16.6,0-33.3,0-49.9,0c-12.7,0-12.7,0-12.7,12.2c0,30,0,60,0,90c0,25.6,0.2,51.1-0.1,76.6
	c-0.1,6.4,2.1,8.9,8.3,8.3c3.2-0.3,6.5,0,9.7,0c160.2,0,320.4,0,480.6,0C661.3,594.2,823.9,594.2,986.5,594.2z M1.1,904.7
	c333.3,0,665.6,0,998.8,0c0-5.2,0-9.5,0-13.9c0-52.3,0.1-104.6,0-156.9c0-15.2,2.8-14.7-15.3-14.7c-323.2,0-646.3,0-969.5,0
	c-4.4,0-8.8,0-14,0C1.1,782.2,1.1,843.6,1.1,904.7z"/>
</svg>
