<?xml version="1.0" encoding="utf-8"?>
<!-- Generator: Adobe Illustrator 25.2.0, SVG Export Plug-In . SVG Version: 6.00 Build 0)  -->
<svg version="1.1" id="Calque_1" xmlns="http://www.w3.org/2000/svg" xmlns:xlink="http://www.w3.org/1999/xlink" x="0px" y="0px"
	 viewBox="0 0 1000 1000" style="enable-background:new 0 0 1000 1000;" xml:space="preserve">
<path d="M500.7,0.3c275.2-2.5,500.5,225.5,499.3,501.8c-1.2,273.9-226.4,499.7-504.2,497.5C222.4,997.6-2.5,772.3,0,495
	C2.5,222.7,225.9-2.8,500.7,0.3z M500.7,454.7c-81.8,0-163.7,0-245.5,0c-19.8,0-27.2,7.2-27.4,26.8c-0.2,11.9-0.1,23.7,0,35.6
	c0.2,20.4,7.3,27.6,27.7,27.6c35.2,0.1,70.4,0,105.5,0c126.6,0,253.1,0,379.7,0c25.6,0,31.4-6,31.4-32c0-9.6,0-19.1,0-28.7
	c-0.1-22.6-6.8-29.3-29.5-29.3C662.1,454.7,581.4,454.7,500.7,454.7z M501.2,273.1c-81.1,0-162.1,0-243.2,0
	c-24.2,0-30.2,6.1-30.3,30.7c0,9.2,0,18.4,0,27.5c0,25.6,6.1,31.7,31.8,31.7c150.3,0,300.6,0,450.8,0c12.6,0,25.2,0.3,37.9-0.1
	c15.7-0.5,23.2-7.9,23.8-23.4c0.5-12.2,0.2-24.5,0.1-36.7c-0.1-23.5-6.3-29.7-30.1-29.7C661.8,273.1,581.5,273.1,501.2,273.1z
	 M499.2,726.3c81.4,0,162.9,0,244.3,0c22,0,28.5-6.7,28.6-28.9c0-9.9,0-19.9,0-29.8c0-25-6.3-31.3-31.1-31.3
	c-97.9,0-195.8,0-293.7,0c-62.7,0-125.4,0-188.1,0c-25.2,0-31.5,6.2-31.5,30.9c0,9.9,0,19.9,0,29.8c0.1,22.8,6.5,29.3,29.4,29.3
	C337.9,726.3,418.5,726.3,499.2,726.3z"/>
</svg>
