<svg xmlns="http://www.w3.org/2000/svg" viewBox="0 0 236.43 236.43"><g id="Calque_2" data-name="Calque 2"><g id="Calque_1-2" data-name="Calque 1"><path id="Calque_2-2" data-name="Calque 2" d="M181.12,0H55.31A55.34,55.34,0,0,0,0,55.31V181.12a55.34,55.34,0,0,0,55.31,55.31H181.12a55.34,55.34,0,0,0,55.31-55.31V55.31A55.51,55.51,0,0,0,181.12,0Zm39.61,181.37a40,40,0,0,1-39.86,39.86H55.06a40,40,0,0,1-39.87-39.86V55.56A40,40,0,0,1,55.06,15.69H180.87a40,40,0,0,1,39.86,39.87ZM98.39,127.44a9,9,0,0,1,8.89,9.11h0v54.71a8.9,8.9,0,0,1-17.79.6q0-.3,0-.6V158.58L49.31,199.77A8.75,8.75,0,0,1,37,200l-.22-.22a9.28,9.28,0,0,1,0-12.89l40.19-41.2H45a9.12,9.12,0,1,1,0-18.24ZM199.24,36.52a9.29,9.29,0,0,1,0,12.9l-40.18,41.2h31.88a9.12,9.12,0,0,1,0,18.23H137.59a9,9,0,0,1-8.89-9.11h0V45a8.89,8.89,0,0,1,17.78,0h0V77.72l40.19-41.2A8.73,8.73,0,0,1,199,36.29l.23.23Z"/></g></g></svg>