<?xml version="1.0" encoding="utf-8"?>
<!-- Generator: Adobe Illustrator 25.2.0, SVG Export Plug-In . SVG Version: 6.00 Build 0)  -->
<svg version="1.1" id="Calque_1" xmlns="http://www.w3.org/2000/svg" xmlns:xlink="http://www.w3.org/1999/xlink" x="0px" y="0px"
	 viewBox="0 0 1000 1000" style="enable-background:new 0 0 1000 1000;" xml:space="preserve">
<path d="M499.4,1000.4C223.6,996.9,0.1,775.5,0,499.8C-0.1,220.5,228.6-0.4,500.1-0.4C771.7-0.3,1000.3,220.9,1000,500
	C999.7,776.9,774.6,997.7,499.4,1000.4z M500,965c259.2,0,464.7-205.2,465.4-464.5C966,241.2,760,34.5,500.5,34.2
	C241.1,33.9,35,239.6,34.6,499.4C34.3,758.8,240.4,965,500,965z M350.1,636.9c-20-5.1-40.2-6-60.1-0.4
	c-40.2,11.3-70.2,33.9-80.9,76.5c-7.7,30.5,5.1,63,30.9,76.3c26.4,13.7,54.2,20.3,84.5,15c55.1-9.5,89.6-49.4,89.6-104.9
	c0-94.3-0.1-188.5,0-282.8c0-14.4,0.2-14.4,13.7-18.4c48.8-14.5,98.3-25.7,148.6-33.3c34-5.1,68.4-8,102.7-11.4
	c9.5-1,10.3,0.2,10.3,9.9c0.1,65.8,0.1,131.6,0,197.4c0,9.3-0.6,9.5-9.8,7.1c-49.8-12.5-92-0.2-126.1,38.5
	c-34,38.6-21.3,99.5,25.4,120.3c22.9,10.2,46.8,14.5,71.8,9c47.9-10.5,90.6-44.5,89.9-106.5c-1.1-90-0.1-180,0-270
	c0-56.2,0-112.4-0.1-168.6c0-14-0.4-14.6-14.7-13.4c-48.2,4-96.4,7.3-144.4,12.8c-71.2,8.2-140.2,26.5-207.2,52
	c-12.3,4.7-12.3,4.7-12.3,17.5c0.1,122,0.2,244,0.2,366c0,4.2,0,8.3,0,13.9C356.8,638.4,353.4,637.8,350.1,636.9z"/>
</svg>
