<?xml version="1.0" encoding="utf-8"?>
<!-- Generator: Adobe Illustrator 25.2.0, SVG Export Plug-In . SVG Version: 6.00 Build 0)  -->
<svg version="1.1" id="Calque_1" xmlns="http://www.w3.org/2000/svg" xmlns:xlink="http://www.w3.org/1999/xlink" x="0px" y="0px"
	 viewBox="0 0 1000 1000" style="enable-background:new 0 0 1000 1000;" xml:space="preserve">
<path d="M321.6,732.9c0.3-5.4,0.7-10.8,0.7-16.3c-0.1-194.4-0.2-388.9-0.3-583.3c0-22.3-0.2-22.3,20.9-30.3c106-40,215-69,327.6-82
	C746.8,12.2,823.5,7,900,0.7c23.1-1.9,23.6-1.1,23.6,22.8c0,130-0.2,260-0.3,390c-0.1,101.2-1.4,202.4,0.4,303.5
	c1.6,89-49.8,143.7-127.7,167.6c-45.3,13.9-89.6,8-131.8-12.1c-72.4-34.5-91-129-37.8-189.5c54.1-61.5,121.2-81.2,200.3-61.4
	c15.2,3.8,15.9,3.6,15.9-12.8c0.1-104,0.1-208,0-312c0-16-1-16.7-17.9-16.2c-75.9,2.4-150.7,14.3-224.8,29.7
	c-58.5,12.1-116.4,27.4-174.3,41.9c-20,5-20.3,6-20.4,26.8c-0.1,153.7-0.1,307.5,0,461.2c0,39-10.7,74.4-39.2,101.5
	c-57,54.1-123.6,72.2-199.8,47.2c-6.4-2.1-12.6-5.1-19-7.2C86,961.4,67.9,900.4,79.6,852.1c16.4-67.8,64.5-103.7,128.3-121.7
	c31.6-8.9,63.7-7.6,95.5,0.6c3.8,1,7.6,2,11.5,2.7C316.5,733.9,318.2,733.3,321.6,732.9z"/>
</svg>
