<?xml version="1.0" encoding="utf-8"?>
<!-- Generator: Adobe Illustrator 25.2.0, SVG Export Plug-In . SVG Version: 6.00 Build 0)  -->
<svg version="1.1" id="Calque_1" xmlns="http://www.w3.org/2000/svg" xmlns:xlink="http://www.w3.org/1999/xlink" x="0px" y="0px"
	 viewBox="0 0 128 128" style="enable-background:new 0 0 128 128;" xml:space="preserve">
<path d="M117.9,98.4c-7-0.2-12.3,0.5-16.9,2.4c-1.3,0.5-3.4,0.6-3.6,2.2c0.7,0.7,0.8,1.9,1.4,2.8c1.1,1.8,2.9,4.1,4.6,5.4
	c1.8,1.4,3.6,2.8,5.6,4c3.4,2.1,7.2,3.3,10.5,5.4c1.9,1.2,3.9,2.8,5.8,4.2c0.9,0.7,1.6,1.8,2.8,2.2v-0.2c-0.6-0.8-0.8-1.9-1.4-2.8
	l-2.6-2.6c-2.5-3.4-5.7-6.3-9.1-8.7c-2.7-1.9-8.8-4.6-9.9-7.7l-0.2-0.2c1.9-0.2,4.2-0.9,6-1.4c3-0.8,5.7-0.6,8.7-1.4l4.2-1.2v-0.8
	c-1.6-1.6-2.7-3.7-4.4-5.2c-4.4-3.8-9.3-7.6-14.3-10.7c-2.8-1.7-6.2-2.9-9.1-4.4c-1-0.5-2.7-0.8-3.4-1.6c-1.5-2-2.4-4.5-3.6-6.7
	c-2.5-4.8-4.9-10-7.1-15.1c-1.5-3.4-2.5-6.8-4.4-9.9c-9-14.8-18.7-23.8-33.8-32.6c-3.2-1.9-7-2.6-11.1-3.6L26,9.7
	c-1.3-0.6-2.7-2.2-4-3c-5-3.1-17.8-10-21.4-1C-1.8,11.4,4,16.9,6.1,19.8c1.5,2,3.3,4.3,4.4,6.5c0.7,1.5,0.8,3,1.4,4.6
	c1.4,3.9,2.7,8.1,4.6,11.7c0.9,1.8,2,3.7,3.2,5.4c0.7,1,2,1.4,2.2,3c-1.2,1.7-1.3,4.4-2,6.5c-3.1,9.8-1.9,21.9,2.6,29.2
	c1.4,2.2,4.6,7,9.1,5.2c3.9-1.6,3-6.5,4.2-10.9c0.3-1,0.1-1.7,0.6-2.4v0.2l3.6,7.1c2.6,4.3,7.3,8.7,11.3,11.7
	c2.1,1.6,3.7,4.3,6.4,5.2v-0.2h-0.2c-0.5-0.8-1.3-1.1-2-1.8c-1.6-1.5-3.3-3.4-4.6-5.2C47.2,90.7,44,85.3,41,79.7
	c-1.4-2.7-2.6-5.6-3.8-8.3c-0.5-1-0.4-2.6-1.4-3.2c-1.3,2-3.2,3.6-4.2,6c-1.6,3.8-1.8,8.3-2.4,13.1l-0.4,0.2c-2.8-0.7-3.7-3.5-4.8-6
	c-2.6-6.2-3.1-16.1-0.8-23.2c0.6-1.8,3.3-7.6,2.2-9.3c-0.5-1.7-2.2-2.7-3.2-4c-1.2-1.6-2.4-3.7-3.2-5.6c-2.1-4.8-3.1-10.2-5.4-15.1
	c-1.1-2.3-2.9-4.7-4.4-6.7c-1.6-2.3-3.5-4-4.8-6.8c-0.5-1-1.1-2.6-0.4-3.6c0.2-0.7,0.5-1,1.2-1.2c1.2-0.9,4.4,0.3,5.6,0.8
	c3.2,1.3,5.8,2.6,8.5,4.4c1.3,0.9,2.6,2.5,4.2,3h1.8c2.8,0.6,5.9,0.2,8.5,1c4.6,1.4,8.8,3.6,12.5,6C58,28.4,67.4,38.7,73.8,50.9
	c1,2,1.5,3.9,2.4,6c1.8,4.2,4.1,8.6,6,12.7c1.8,4.1,3.6,8.3,6.2,11.7c1.3,1.8,6.6,2.8,8.9,3.8c1.7,0.7,4.4,1.4,6,2.4
	c3,1.8,5.9,4,8.7,6C113.3,94.4,117.7,96.6,117.9,98.4z M29.1,22.8c-1.5,0-2.5,0.2-3.6,0.4v0.2h0.2c0.7,1.4,1.9,2.3,2.8,3.6l2,4.2
	l0.2-0.2c1.2-0.9,1.8-2.3,1.8-4.4c-0.5-0.5-0.6-1.2-1-1.8C30.9,23.9,29.8,23.5,29.1,22.8z"/>
</svg>
