<?xml version="1.0" encoding="utf-8"?>
<!-- Generator: Adobe Illustrator 25.2.0, SVG Export Plug-In . SVG Version: 6.00 Build 0)  -->
<svg version="1.1" id="Calque_1" xmlns="http://www.w3.org/2000/svg" xmlns:xlink="http://www.w3.org/1999/xlink" x="0px" y="0px"
	 viewBox="0 0 128 128" style="enable-background:new 0 0 128 128;" xml:space="preserve">
<path d="M0,71.5h4.5V53.7l7,15.5c0.8,1.9,1.9,2.5,4.2,2.5s3.3-0.7,4.1-2.5l7-15.5v17.8h4.5V53.7c0-1.7-0.7-2.6-2.1-3
	c-3.4-1.1-5.7-0.1-6.8,2.2l-6.8,15.3L8.9,52.9c-1-2.3-3.3-3.2-6.8-2.2C0.7,51.1,0,52,0,53.7L0,71.5L0,71.5z M35,57h4.5v9.8
	c0,0.5,0.2,1.8,2.6,1.8c1.3,0,9.7,0,9.8,0V56.9h4.5c0,0,0,15.9,0,16c0,3.9-4.9,4.8-7.1,4.8H35.1v-3c0,0,14.2,0,14.3,0
	c2.9-0.3,2.6-1.7,2.6-2.2v-1.2h-9.6c-4.5,0-7.3-2-7.3-4.2C35,66.9,35.1,57.1,35,57z M59.9,71.5h13c1.5,0,3-0.3,4.2-0.9
	c1.9-0.9,2.9-2.1,2.9-3.7v-3.3c0-1.3-1.1-2.5-3.2-3.3c-1.1-0.4-2.5-0.7-3.9-0.7h-5.5c-1.8,0-2.7-0.5-2.9-1.8c0-0.1,0-0.3,0-0.4v-2.1
	c0-0.1,0-0.2,0-0.4c0.2-0.9,0.7-1.2,2.3-1.3l0.4,0h12.9v-3H67.4c-1.8,0-2.8,0.1-3.6,0.4c-2.7,0.8-3.9,2.2-3.9,4.5v2.6
	c0,2,2.3,3.8,6.2,4.2c0.4,0,0.9,0.1,1.3,0.1h4.7c0.2,0,0.3,0,0.5,0c1.4,0.1,2,0.4,2.5,0.9c0.3,0.3,0.3,0.5,0.3,0.8v2.6
	c0,0.3-0.2,0.7-0.6,1.1c-0.4,0.3-1,0.6-1.9,0.6l-0.5,0H59.9C59.9,68.5,59.9,71.5,59.9,71.5z M108,66.2c0,3.1,2.3,4.8,6.9,5.2
	c0.4,0,0.9,0.1,1.3,0.1H128v-3h-11.8c-2.6,0-3.6-0.7-3.6-2.3V50.7H108L108,66.2L108,66.2z M82.8,66.4V55.7c0-2.7,1.9-4.4,5.7-4.9
	c0.4-0.1,0.8-0.1,1.2-0.1h8.6c0.4,0,0.8,0,1.3,0.1c3.8,0.5,5.7,2.2,5.7,4.9v10.7c0,2.2-0.8,3.4-2.7,4.2l4.4,4h-5.2l-3.6-3.2
	l-3.6,0.2h-4.8c-0.8,0-1.7-0.1-2.6-0.4C84.2,70.4,82.8,68.9,82.8,66.4z M87.7,66.1c0,0.1,0,0.3,0.1,0.5c0.3,1.2,1.4,1.9,3.2,1.9h4.1
	l-3.8-3.4h5.2l3.3,3c0.6-0.3,1-0.8,1.1-1.4c0-0.1,0-0.3,0-0.4V55.9c0-0.1,0-0.3,0-0.4c-0.3-1.2-1.4-1.8-3.2-1.8H91
	c-2,0-3.3,0.9-3.3,2.2L87.7,66.1L87.7,66.1z"/>
</svg>
