<?xml version="1.0" encoding="utf-8"?>
<!-- Generator: Adobe Illustrator 25.2.0, SVG Export Plug-In . SVG Version: 6.00 Build 0)  -->
<svg version="1.1" id="Calque_1" xmlns="http://www.w3.org/2000/svg" xmlns:xlink="http://www.w3.org/1999/xlink" x="0px" y="0px"
	 viewBox="0 0 1000 1000" style="enable-background:new 0 0 1000 1000;" xml:space="preserve">
<path d="M532.7,621.8c-0.3-4-0.7-7.6-0.7-11.2c-0.1-29.5,0.4-58.9-0.3-88.4c-0.3-11.2,4.6-18.2,13.3-23.3
	c25.5-14.8,51.1-29.3,76.7-43.9c8.3-4.7,16.4-3.9,24.5,1.1c4.8,3,9.9,5.6,17,9.5c0-48.5,0-94.6,0-139.1c6-6.9,11.2-5.1,16.1-2.4
	c14.2,7.9,28.4,16.1,42.7,23.8c8,4.3,11.9,10.8,12.1,19.8c0,2.7,0,5.4,0,8.2c0,75.3-0.3,150.5,0.2,225.8
	c0.1,14.8-4.3,24.3-18.1,31.5c-24.9,12.9-48.9,27.7-73.1,42c-7.6,4.5-14.7,3.8-21.9-0.3c-9.9-5.6-19.5-11.5-29.3-17.2
	c-16-9.4-32.1-18.6-48.1-28.1C539.9,627.3,536.4,624.4,532.7,621.8z M662.9,546.7c-8.1-4.7-14.9-9.3-22.2-12.7
	c-3.8-1.8-9.4-3.4-12.8-1.9c-9.4,4.1-18,9.9-26.8,14.9c0,12.4,0,23.6,0,35.7c10.4,6.1,20.8,12.1,31.2,18.2c8.5-4.9,16.7-8.8,24-14.1
	c3.2-2.3,5.9-7.1,6.3-10.9C663.5,566.6,662.9,557.1,662.9,546.7z M372.6,676c28.4-16,56.9-31.9,85.1-48.3
	c6.1-3.6,11.8-8.6,11.7-17.1c-0.1-31.3,0-62.5-0.1-93.8c0-7.3-2.9-13-9.6-16.7c-7.5-4.2-14.8-8.7-22.2-13.1
	c-19.2-11.1-38.5-22.1-57.6-33.4c-8.1-4.8-15.7-5.6-24.3-0.5c-25.2,15.1-50.7,29.9-76.2,44.6c-8.2,4.7-12.4,10.8-12.2,20.7
	c0.5,28.1,1,56.2-0.2,84.2c-0.6,14.3,3.5,23.6,17.3,28.2c2.5,0.8,4.6,2.8,7,4.2c25.1,14.4,50.3,28.8,75.1,42.9
	C370,676.9,371.4,676.6,372.6,676z M204.7,637.3c0.4-12.2,0.1-24.5,0.1-36.7c0-25.8-0.1-51.7,0-77.5c0-12.8-3.9-22.5-16.9-28.1
	c-9.9-4.3-18.9-10.6-28.4-16c-14.9-8.6-30-17-44.8-25.7c-8.3-4.9-16.1-5.3-24.3-0.1c-2.7,1.7-5.7,2.8-8.5,4.4
	c-23.2,13.3-46.2,26.8-69.5,40C4.3,502.3-0.1,508.1,0,518.2c0.4,40.3,0.1,80.7,0.3,121c0,4.3,1.1,8.6,1.9,14.8
	c6.2-1.4,11.1-1.6,15.2-3.6c11.4-5.6,22.2-12.4,33.6-17.9c15-7.3,22.5-17.5,20.7-35.4c-1.7-17-0.4-34.3-0.4-52.4
	c8.6-5.2,16.3-10.6,24.8-14.6c3.6-1.7,9.4-1.7,13,0c8.5,4,16.2,9.5,24.7,14.6c0,5.5,0,10,0,14.5c0,15.4,0.5,30.8-0.2,46.2
	c-0.4,9.8,3.1,16.4,11.5,21.2c13.7,7.9,27.1,16.4,41,24.1c4,2.2,9.1,2.2,15.5,3.5C202.9,647.6,204.5,642.5,204.7,637.3z M990.6,548
	c2.9-1.7,5.6-5,6.9-8.1c6.6-16-0.2-34-15.4-42.9c-24.7-14.4-49.4-28.6-73.8-43.5c-8.2-5-15.1-4-22.8,0.5
	c-25.9,14.9-52,29.6-77.9,44.5c-6.6,3.8-11.2,8.7-11.2,17.2c0.2,32.2,0.2,64.4,0,96.6c0,6,2.1,10.6,7.3,13.6
	c27.2,15.5,54.4,30.8,81.6,46.4c7.4,4.3,14.5,4,21.9-0.1c14.7-8.1,29.7-15.7,44.3-23.8c3.3-1.8,5.8-5,10.4-9
	c-31.4-23.2-66-37.4-96.3-58.1c0-12.4,0-24.1,0-36.2c10.1-5.8,19.9-11.4,30.4-17.4c10.5,6,20.6,11.8,29,16.6
	c5.8,12.6-3.4,26.4,8.5,36.7C953.1,569.7,972,559.1,990.6,548z M896.4,586.6c7.1-4.3,13.8-8.4,19.3-11.7c0-9.7,0-17.2,0-24.5
	c-6.6-3.9-12.3-7.2-19.1-11.2c-7,4.3-14.1,8.7-20.4,12.6c0,8.4,0,15.1,0,22.8C883.4,578.8,889.5,582.5,896.4,586.6z"/>
</svg>
