<?xml version="1.0" encoding="utf-8"?>
<!-- Generator: Adobe Illustrator 25.2.0, SVG Export Plug-In . SVG Version: 6.00 Build 0)  -->
<svg version="1.1" id="Calque_1" xmlns="http://www.w3.org/2000/svg" xmlns:xlink="http://www.w3.org/1999/xlink" x="0px" y="0px"
	 viewBox="0 0 1000 1000" style="enable-background:new 0 0 1000 1000;" xml:space="preserve">
<path d="M387.3,543.7c0,62.7,0,125.4,0,188.1c0,9.1,0,18.3-1,27.4c-10.2,97.7-101.3,115.9-163,88.8c-45.5-19.9-88.2-46.4-131.2-71.5
	c-29.5-17.2-37.3-47.2-37.4-78.7c-0.5-132.1-0.2-264.2-0.2-396.3c0-39.6,17.6-67.9,52-87.6C222,147.6,337.3,80.7,452.6,13.8
	c31.9-18.5,63.3-18.3,95.1,0.2C663.5,81.2,779.3,148.4,895.4,215c34.7,19.9,50.3,49.4,50.2,88.6c-0.1,130.9,0,261.8-0.1,392.7
	c0,40.5-16.7,70.1-53.1,90.7c-113.8,64.5-227,130.2-339.8,196.5c-35.7,21-69,22.7-104.4,0.4c-34.5-21.7-70.2-41.5-105-62.8
	c-5.6-3.4-9.3-10.1-13.9-15.3c5.6-4.1,10.9-8.8,16.9-12.2c5.8-3.2,13.4-3.7,18.5-7.6c23.6-17.8,44.2-11.7,65.8,4.6
	c15.5,11.6,33.8,19.4,49.9,30.2c12.7,8.5,23.6,8.9,36.9,1.1c50.9-30,102.2-59.1,153.4-88.6c60.6-35,121-70.3,182-104.7
	c13.8-7.8,20.1-16.6,20-33c-0.6-129.7-0.6-259.4,0-389c0.1-16.7-5.5-27-19.9-35.3c-113-64.7-225.8-129.8-338.5-195
	c-10.2-5.9-18.7-5.9-28.8,0c-113.7,66.1-227.4,132-341.4,197.5c-12.2,7-16.9,15.6-16.8,29.3c0.3,131.5,0.3,263-0.1,394.5
	c0,13.9,4.7,22.6,16.9,29.2c25.7,13.9,50.1,30.3,76.4,42.9c15.9,7.6,34.3,12.9,51.8,13.8c24.9,1.2,39.4-14.7,40.6-39.7
	c0.9-19.4,0.4-39,0.4-58.4c0-112,0-224,0-336.1c0-35.2,1.4-36.6,37.4-36.5c3.7,0,7.3-0.1,11,0c21,0.5,25.4,4.7,25.5,26.4
	C387.4,407.4,387.3,475.6,387.3,543.7z M656.8,744.7c45.8-4.1,91-11.2,128.6-40.7c41.1-32.3,55.2-75.3,47.7-126.4
	c-6.8-46.4-36.8-71.9-78.7-83.9c-35.6-10.1-72.2-16.5-108.5-23.8c-37.5-7.5-75.3-13.5-112.7-21.6c-13.5-2.9-24.2-11.5-25.1-27.6
	c-0.9-16.9,3.3-31.7,18.4-41c6.6-4.1,14.1-7.3,21.7-9.4c44.4-12.2,89.1-11.3,133.5-0.1c21.9,5.5,41.2,18.3,46.2,40.1
	c7.8,34.3,29.6,38.7,58.1,35.4c3-0.3,6.1,0,9.1-0.1c19.6-0.8,25.4-7.1,22.5-26.1c-8.4-55.3-35.3-97.9-89.8-116.1
	c-29.6-9.9-61.4-15.2-92.6-18.1c-47.1-4.4-93.9,1.1-137.6,20.4c-56.2,24.9-77.4,65.3-76.9,117.3c0.5,55.8,27.8,90.4,87.5,106.4
	c40.9,11,83.7,14.3,125.4,22.4c31.5,6.1,62.8,13.4,93.7,22.1c15.9,4.5,21.6,18.1,20.7,34.7c-1.5,27.1-15.9,44.2-48.1,51.6
	c-51.8,11.8-104,10.8-155.6-1.5c-24.5-5.9-43.7-21.4-49.2-46.7c-9.1-42.2-20.2-35.3-50.9-35.9c-5.5-0.1-11,0-16.4,0.2
	c-13.4,0.3-19.8,6.9-19.7,20.6c0.5,44.1,16.5,80.7,52.6,107c49.4,35.9,106.9,40.5,165.3,41C636.1,744.8,646.5,745.6,656.8,744.7z"/>
</svg>
