<?xml version="1.0" encoding="utf-8"?>
<!-- Generator: Adobe Illustrator 25.2.0, SVG Export Plug-In . SVG Version: 6.00 Build 0)  -->
<svg version="1.1" id="Calque_1" xmlns="http://www.w3.org/2000/svg" xmlns:xlink="http://www.w3.org/1999/xlink" x="0px" y="0px"
	 viewBox="0 0 1000 1000" style="enable-background:new 0 0 1000 1000;" xml:space="preserve">
<path d="M228.6,195.7C191,122.8,196.8,67.7,244,27.9c42.4-35.8,103.6-37,147.3-2.8c49.5,38.7,56.2,92.3,20.7,171.6
	c13.5,4.9,27.1,9.1,40.1,14.7c42,18,67.7,49,68.2,95.8c1,92,0.8,184.1,0.2,276.1c-0.2,35.8-20.1,61.1-52.5,71.6
	c-24.6,8-28.9,21.8-29.4,44.4c-1.5,73.3-4.4,146.6-7.6,219.8c-2.3,54.5-26,77.3-80.6,79.7c-128.7,5.6-143.4-8.5-146.1-138.1
	c-1.1-54.6-3.9-109.2-5.2-163.8c-0.5-20.4-5.5-33.5-27.9-41.7c-37.5-13.7-54.3-43.2-53.6-84.4c1.3-79.1,0.3-158.2,0.4-237.3
	c0-77.9,18.5-103.9,92.4-130.8C216,200.8,221.2,198.6,228.6,195.7z M197,626.2c0-85.1-0.8-166.8,0.6-248.5c0.3-17.3-12.2-48.5,18-48
	c25.3,0.4,14.9,29.9,14.8,46.5c-0.7,176.9,1.2,353.7,9.3,530.4c2.2,49.1,12.1,59,59.3,54.8c7.4-36.5,3-73.8,3.4-110.8
	c0.8-79.1,0.2-158.2,0.6-237.2c0.1-12.6-1.1-29,16.6-30c15.6-0.8,15.9,13.5,15.9,25.2c0.2,50.3,0.2,100.6,0.2,151
	c0,67.3,0,134.6,0,201.4c45.9,5.5,58.5-2.5,63.3-39.3c2.2-17,1.8-34.4,2.4-51.7c5.4-168.1,9.9-336.2,8.1-504.5
	c-0.1-13.9-7.3-37.2,16.8-36.4c19.7,0.6,13.9,21.9,14,35c0.6,64.7-0.1,129.4,0.5,194.1c0.2,22.2-3.9,45.2,4.5,68.4
	c33.2-7.8,43.3-27.9,43.1-57.2c-0.6-82,0.1-163.9-0.3-245.9c-0.3-50.8-20.9-80.5-70.4-87.8c-65.1-9.5-131.5-9.3-196.6,0.1
	c-47.9,6.9-68.3,35.7-68.6,84.1c-0.6,83.4,0.2,166.8-0.3,250.2C151.8,597.3,159.1,617.9,197,626.2z M319.8,199.8
	c47.5-0.2,84.1-37.6,83-84.9c-1-45.4-37.3-80.6-83.1-80.7c-47.6,0-84,37.3-82.8,85C238.1,165.4,273.7,200,319.8,199.8z M661.3,58.9
	c-0.2-18.6,8.4-25.4,26.1-25.2c33,0.3,66,0,99-0.4c11.6-0.1,25.8-0.8,26.9-15.1c1.4-18.6-14.6-18-27.5-18.1
	C744.2-0.1,702.6,0.7,661-0.2c-23.3-0.5-34.1,8.1-33.9,32.5c0.8,64.5,0.7,129.1,0,193.7c-0.2,22.5,10.3,30.7,31.3,30.7
	c64.6-0.2,129.1,0,193.7-0.1c15.1,0,30.2-2.4,31.4-21.5c1.3-21.4,1.1-43,0.1-64.4c-0.5-10.8-7.1-19.9-19.2-18.3
	c-9.8,1.3-12.1,10.2-13.2,19.5c-2.1,16.4,5.3,34.4-7.5,50.2c-58.4,0-116.8,0-182.2,0C661.5,164.6,661.8,111.8,661.3,58.9z
	 M665.2,405.6c41.1,0,78.3,0.3,115.5-0.1c14-0.2,32.7,1.5,32.6-18.5c-0.1-17.7-17.6-15.2-30.1-15.2c-41.7-0.2-83.3,0.5-125-0.3
	c-22.1-0.4-31.1,8.8-30.9,30.7c0.6,64.7,0.8,129.3,0.1,194c-0.2,22.2,9.2,31.1,30.7,31.1c64.7-0.1,129.3,0.5,194,0.5
	c13.1,0,27.6-0.9,30.7-17.3c4.5-24.1,3.2-48.6-0.2-72.8c-1-7.3-6-13.6-14.2-14c-10.3-0.5-15,6.1-16.4,15.8
	c-2.4,16.7,2.6,34.3-6.6,52.9c-58.9,0-118.4,0-180.2,0C665.2,527.5,665.2,468.1,665.2,405.6z M788,776.3c12-0.1,25.1-2.3,25.4-17
	c0.3-15.5-13.2-16.4-25-16.4c-44.6,0-89.2,0.3-133.7,0.2c-17.4,0-26.9,6.9-26.9,25.4c0.1,67.6,0.1,135.2-0.4,202.8
	c-0.1,18,8,27.1,25.5,27.1c69,0.2,138,0.2,207.1-0.1c15.4-0.1,23.9-9.2,24.2-24.5c0.4-20.1,0.5-40.3-0.4-60.3
	c-0.5-11-6.8-20.2-18.9-19c-9.5,0.9-12.6,9.7-13.7,19.2c-2,16.5,5.2,34.4-6.3,49.1c-60.7,0-120.3,0-181.6,0c0-61.8,0-120.2,0-186.2
	C708,776.4,748,776.5,788,776.3z M718,473.5c-6.4-8-14.5-15.6-25.3-8.2c-10.6,7.3-7.9,17.7-1.9,26.5c11.3,16.5,24.3,31.9,35.2,48.6
	c16.6,25.5,31.6,29.2,51.7,2.4c29.1-38.8,60.7-75.8,91.1-113.7c8.7-10.9,23.2-23.7,6.6-36c-16.6-12.3-25,6.6-33.4,16.7
	c-29.2,35-57.5,70.7-88.9,109.5C738.8,500.5,728.7,486.8,718,473.5z M720.7,105.8c-7.1-8.8-14.9-20.4-27.8-11.6
	c-12.5,8.6-6.6,20,0.5,29.9c12.5,17.4,25.3,34.6,37.7,52.1c15.3,21.6,29,17.7,43.8-1.1c31-39.3,62.8-77.8,93.9-117
	c8.5-10.7,23.2-24.1,6.5-36.2c-16.4-11.9-24.9,6.9-33.4,17.1c-29.2,35-57.6,70.7-88.9,109.3C739.7,130.7,730.5,118,720.7,105.8z
	 M723.5,851.7c-7.8-9.4-15.1-25.2-30.2-15.2c-15,9.9-5.3,22.5,2.4,33.1c11.7,16.2,23.6,32.3,35.1,48.6c15.1,21.4,28.9,18.4,43.9-0.5
	c31.9-40.3,64.4-80.2,96.6-120.3c8.2-10.2,18.3-22.5,4.3-33.2c-14.5-11.1-23.1,4.1-30.8,13.5c-30,36.2-59.4,72.9-91.7,112.7
	C740.8,874.3,732.5,862.7,723.5,851.7z"/>
</svg>
