<?xml version="1.0" encoding="utf-8"?>
<!-- Generator: Adobe Illustrator 25.2.0, SVG Export Plug-In . SVG Version: 6.00 Build 0)  -->
<svg version="1.1" id="Calque_1" xmlns="http://www.w3.org/2000/svg" xmlns:xlink="http://www.w3.org/1999/xlink" x="0px" y="0px"
	 viewBox="0 0 1000 1000" style="enable-background:new 0 0 1000 1000;" xml:space="preserve">
<path d="M112.8,657.3c-8,47.3-15.8,94.6-24.2,141.8c-5.8,32.8-25.9,48.9-53.4,44.1C9.6,838.7-5.6,816.7,2,785.8
	C25.2,690.7,19,592.3,36.8,497c10.2-54.6,26.5-108.1,39.8-162.1c5.8-23.5,11.5-47.2,33.9-61.2c11.7-7.3,6-16.8,5.3-26.1
	c-2.7-38,17.3-67.9,51.5-77.6c29.9-8.4,63,5.2,78.9,32.5c17.3,29.7,10.6,67-18.4,91c-10.4,8.6-18.8,14.6-8.7,28.5
	c11.4,15.7,2.1,46.6,35.9,46.1c61.2-0.9,122.4,0.1,183.5-1.1c22.8-0.4,31.7,7.8,29.8,30.7c-1.5,18.3-0.3,36.9-0.3,58.7
	c30-13.8,57.4-22.4,78.1,8c11.7,17.2,10.9,35.6-2.1,51.8c-20.5,25.6-45.3,20.7-69.6,6.7c-9.1,6.2-6.1,14.5-6.3,21.4
	c-1.2,44.5-1.1,44.5,42.9,44.9c4.4,0,8.8-0.1,13.1,0.1c33.8,1.9,43.7,17.5,27.8,46.5c-7,12.7-12.4,23.7,1.1,34.4
	c7.6,6.1,16.9,6,24.4-0.1c13.4-10.9,7.5-21.7,0.4-34.3c-15.2-27.2-5.4-43.9,25.2-46.5c88.8-7.6,88.8-7.6,88.8,79.5
	c0,48.1-1,96.2,0.4,144.2c0.7,23.5-6.1,33-31.2,32.8c-131.1-1-262.2-0.9-393.3-0.1c-22.7,0.1-30.4-6.8-30.1-30
	c1.1-89.6,0.5-179.2,0.3-268.8c0-21.1-30.1-54.5-50.6-54.6c-16.8,0-13.8,15.4-12.4,24.4c3.3,21.5,7.9,43.1,14.8,63.7
	c23.5,69.6,24.4,141.6,25.8,213.7c0.6,27.9-10.6,46.9-40.3,49.5c-27.1,2.4-45.3-15.6-47.2-46.6c-2.9-46.4-5-92.8-7.5-139.2
	C118.1,657.5,115.4,657.4,112.8,657.3z M534.9,613.6c-49.9,0-94.6,0.3-139.3-0.1c-35.6-0.4-44.5-15.3-27.3-47.3
	c6.4-11.9,10-22-1.3-32c-8.7-7.7-17.9-7.4-26.4,0.6c-11.1,10.4-6.9,20.1-0.3,32c17.2,31,7.3,46.2-28.9,46.9
	c-7.6,0.2-15.4,1-22.9-0.1c-22.1-3.2-28.2,6.5-27.7,27.6c1.2,51.3,1.3,102.7,0,154c-0.5,21.7,6.8,28.4,28.2,27.6
	c41.4-1.5,83-1.5,124.5,0c21.8,0.8,33.1-4.2,30.2-28.5c-1.2-10.1-3.7-26,10.7-26.7c18.3-1,14.1,16.6,13.3,27.2
	c-1.4,21.1,5.8,28.7,27.7,28c49.1-1.5,98.3-1.1,147.4-0.1c18.6,0.4,25-6,24.6-24.5c-0.9-41.5-0.2-83-0.3-124.5
	c0-62.3-0.1-62.3-63.4-59.2c-1.5,0.1-3,2.3-6,4.8c15.1,23.7,20.4,48.8-4.2,69.7c-17.9,15.3-39,15-57-0.2
	C511.4,667.4,518.9,642.3,534.9,613.6z M238.3,409.9c-25.2-26.5-30.5-63.7-51.4-91.1c-26.7-35.1-70.5-34.8-79.2-1.8
	c-21.7,82.1-51.8,162.9-56.1,248.3C48,637.5,41.2,708.8,26.8,779.6c-3.3,16.3-8.6,35.8,14.8,39.2c21.3,3,21.8-17.4,24.5-31.9
	c12.5-67.6,25.9-135,23.8-204.4c-0.3-10.2-3.2-25,10.7-27.6c17.2-3.2,16.7,14.3,20.1,24.5c19.3,58.3,30.4,117.7,30.5,179.7
	c0,20.3-12.1,59.3,21.9,58c35.1-1.4,16.7-38.1,17.2-59.3c1.6-64.8-10-127.9-28.3-190c-7.6-25.9-17.2-51.9-7.9-79.8
	c2.4-7.2,1.9-15.4-6.6-19.9c-27.3-14.3-31.4-40.3-32.7-66.9c-0.6-11.8-11.4-31.3,6.2-33.8c20.5-2.9,13,20.4,17.4,32.2
	c5.2,13.8-0.7,32.4,14.3,41.9c32.2,20.4,65.1,39.9,98.2,58.9c10.3,5.9,21.6,5.6,28.2-6.7c6.4-12.1,0.6-21.1-9.6-27.6
	c-17.5-11-34.5-23.5-53.3-31.9c-30.6-13.8-43.4-36.9-45.1-69.1c-0.5-10-5-21.9,7.8-24.4c13.3-2.6,14.2,10.3,15.6,20
	C198.4,385.1,204.6,407.7,238.3,409.9z M388.1,585.3c55,9.4,55,9.3,55.2-42.2c0-3.3-0.1-6.5,0-9.8c0.8-37.4,15.5-46.9,49.2-30.1
	c12.2,6.1,22.7,8.9,32.1-2.4c6.1-7.4,6.1-16.8,0-24.2c-9.4-11.4-19.9-8.4-32-2.2c-33.2,16.9-48.4,7.1-49.2-30.2
	c-0.2-8.7-1-17.6,0.1-26.2c2.9-22.2-7.2-27.8-28-27.2c-42.5,1.2-85.1,0-127.7,0.3c-24.1,0.2-36.7,21.6-23.5,40.6
	c4.7,6.7,13.8,10.3,20.8,15.4c30.4,22.5,30.2,62.5-3.9,76.1c-29.6,11.8-20.2,33-19.1,51c1.6,24.1,23.1,12.2,36.2,14.4
	c6.6,1.1,15.2,3.2,21.4-5.3c-13.1-24.6-18.6-49.5,7.6-69.6c16.4-12.6,34.9-13.2,51.8-1.2C407.7,532.9,400.1,559.2,388.1,585.3z
	 M189.4,192.6c-26-2-47.2,16-49.1,41.6c-1.9,25.2,16.7,47.5,41.6,49.8c23.8,2.2,47.5-18,49.8-42.3
	C234.1,217.3,214.4,194.5,189.4,192.6z M828.6,404.7c-9.9-3-15.3,2-20.2,5.5c-28.1,19.9-55.5,18.6-85.8,3.1
	c-24.6-12.6-50.1-27.7-82.7-19c8.6,24.8,18.5,50.6-9.3,69.4c-16,10.8-33.6,10.7-48.9-1.1c-24.7-19.1-19.6-43.2-3.9-70.5
	c-19.8,0-34.7,0-49.6,0c-3.3,0-6.6-0.1-9.8-0.1c-10.2,0-22.5-0.9-22.6-13.3c-0.2-30-10.1-61.8,6.2-89.4c8.5-14.4,25-9.7,37.9-0.9
	c10.2,7,20,8.9,28.9-1.6c5.8-6.8,5.2-14.3-0.4-20.8c-9.2-10.6-18.2-6.2-29-0.9c-30.3,14.8-45.1,5.6-44.8-28.7
	c0.7-83.4-11.5-71.3,69.9-72.2c42.6-0.5,85.2,0.7,127.8-0.3c23.3-0.5,35.4,7.2,32.6,32.1c-0.9,7.5-1.2,15.5,0.1,22.9
	c3.1,17-9.7,37.9,11.2,50.7c26.6,16.3,55.3,27.8,86.8,22.3c21.9-3.8,8.8-15.9,3.2-25.9c-17.9-32.5-14-66.5,9.9-90.3
	c22.5-22.5,56.3-27.5,84.6-12.5c34,18,47.9,58.5,30,95.7c-6.5,13.5-5.9,21.5,1.1,34.7c14.7,27.5,10.5,59.7,14.6,89.8
	c12.5,92.1,16.4,184.6,15.7,277.6c-0.3,40.9,10.7,82,16.7,123c5,34.1-7.1,55.9-33.9,60.4c-27.3,4.5-45.5-10.9-51.3-45.6
	c-8.6-51.1-16.3-102.5-24.9-157.2c-24.1,39.3-24.4,81.1-31.7,121c-2.5,14-3.7,28.2-6.5,42.1c-5.8,29.2-24.2,43.2-50.1,39.3
	c-24.8-3.8-39.4-24.6-35.1-53.6c10.3-69,16.9-138.9,44.9-203.9C835.8,527,831.2,465.7,828.6,404.7z M957.9,610.9
	c3.2-101.8-13.6-195.7-22.9-290.1c-1.3-12.9-6.5-28.3-19.3-25.6c-25.8,5.5-54.8-3.3-77.5,18.5c-44.6,42.8-93.4,55.7-148.4,17.6
	c-12-8.4-26.6-8.8-33.3,6.7c-7.3,16.7,7,22.4,19,28.3c84.5,42,84.4,42,168.5-5.6c3.8-2.2,7.5-4.5,11.3-6.6
	c6.5-3.5,12.8-3.6,17.4,2.8c4.9,6.9,1.6,13.3-4.4,16.6c-14.5,7.9-14.4,21-13.2,34.1c7.9,84.6-10.3,164.4-39.9,243.1
	c-17,45.2-17.3,94.3-24.9,141.6c-2.1,13.1,0.4,25.6,15.6,27.5c15.3,1.9,19.9-10.5,22.3-22.9c1-5.3,1.5-10.8,2-16.3
	c6.2-72.5,27.2-141.1,54.3-208.1c3.1-7.6,4.7-18.7,16.4-17.3c11.6,1.4,11.1,12,11.8,20.5c1.3,15.2,2.4,30.5,2.5,45.8
	c0.1,58.3,13.9,114.8,21.5,172.1c1.8,13.2,5.9,28.7,22.7,26.7c19.5-2.3,17-19.3,15.5-33.6c-0.7-6.5-1.6-13-2.8-19.4
	C961.9,713.3,952.4,659.5,957.9,610.9z M519.3,306.4c-0.8,11.8-0.7,19.4-1.9,26.8c-4.6,28.6,6.5,41.1,35.8,35.9
	c4.2-0.7,8.7-0.2,13.1-0.1c34.8,0.9,43.3,13.6,28.4,44.7c-5.3,11-9.1,19.9,1.6,28.9c6.8,5.7,14,5.8,20.8,0.3
	c10.9-8.7,8.2-17.6,2.2-28.6c-9.7-18,12.1-93.6,29.1-104.7c4.4-2.9,10.4-6.7,14.8-5.9c45.5,8.5,36.4-23.5,36.6-48.6
	c0.1-14.2-0.7-28.4,0.2-42.6c1.1-17.5-3.9-25.7-23.6-25.2c-45.8,1.2-91.7,0.9-137.6,0.1c-15.3-0.2-22.7,4.8-21.4,20.5
	c1,11.6-2.8,23.7,5,37.7c23.3-16.1,47.2-18.6,66,5.5c12.6,16.2,12.5,35.3-0.7,51.5C569,325.9,546.2,321.7,519.3,306.4z M934.4,226
	c-0.3-26.1-21.9-47-48.3-46.7c-26,0.3-48,22.4-47.5,47.9c0.4,25.6,22.8,47.1,48.7,46.7C913.6,273.5,934.7,252.2,934.4,226z
	 M727.8,294.6c-7.7,18.9,0.9,26.9,16.3,33.2c16.1,6.6,28.1,5.5,38.8-12.8C761.8,313.8,747.9,299.6,727.8,294.6z"/>
</svg>
