<?xml version="1.0" encoding="utf-8"?>
<!-- Generator: Adobe Illustrator 25.2.0, SVG Export Plug-In . SVG Version: 6.00 Build 0)  -->
<svg version="1.1" id="Calque_1" xmlns="http://www.w3.org/2000/svg" xmlns:xlink="http://www.w3.org/1999/xlink" x="0px" y="0px"
	 viewBox="0 0 1000 1000" style="enable-background:new 0 0 1000 1000;" xml:space="preserve">
<path d="M278.7,792.3c1.7,64.3-20.3,113.8-43.5,163c-2.7,5.7-4.6,11.9-7.8,17.3c-13.2,22.6-35.4,30.9-58,22.2
	c-21.1-8.1-32.5-27.6-26-52.6c5.7-21.9,17.6-42,24.4-63.7c6.7-21.4,12.6-43.5,14.7-65.7c5.9-61.8,8.7-123.8,14.6-185.6
	c2-20.9,0-34.7-24.1-37.6c-30.9-3.7-48.8-23.8-61.4-50.6c-13.7-29.2-28.5-57.8-44.7-90.4c-29.5-4.6-29.5-4.6-29.3-43.3
	c0.4-63.9,0.1-68.1,65.8-73c82.9-6.1,151.9-46.3,224-79.3c28.4-13,56.5-19.9,87.7-19.3c52,1.1,104,0.1,156-1.1
	c12.1-0.3,26.7-1.7,35.7-8.5c69.4-53,137.7-107.5,208.6-163.3c-9.1-12.7-16.9-23.8-24.8-34.8C780.3,12,782.2,1.1,800.9,0.7
	c48.2-1,96.4-1,144.6,0.6c6.2,0.2,17.7,12.7,17,18.2c-7.3,55.2-16.5,110.1-25.7,165c-0.5,2.9-5,5.1-10.7,10.5
	c-13.7-15-26.9-29.6-42.3-46.4c-9.7,7.4-19.1,14.5-34,25.9c36.5,10.6,44.2,35.5,48.8,64.5c7.1,45,17.3,89.5,26.8,134.2
	c5.2,24.7,4.5,47.7-12.9,68.1C859,503.6,843.8,574,854.9,655.9c12.1,89,13.8,179.4,35.7,267.2c2.1,8.6,4.6,17.3,5.1,26
	c1.5,25.6-13.7,45.5-37.1,50c-22.4,4.3-46.1-9-51.7-34c-11.7-51.9-20.7-104.3-30.5-156.6c-2.2-11.8-3.1-23.8-4.6-35.6
	c-2.9-0.5-5.7-0.9-8.6-1.4c-11.7,29.8-24.1,59.3-34.9,89.4c-12.8,35.8-22.9,72.5-36.4,108c-10.2,26.8-33.8,36.6-58.1,27.5
	c-24.2-9-34.2-30.1-27.4-58.4c1.8-7.4,3.8-14.8,6.5-21.9c28.3-74.5,54.4-150,85.9-223.2c19-44.3,6.6-87.2,5.5-130.8
	c-0.1-5.6-8.4-11.6-13.9-16.2c-3.7-3.1-9.1-4.4-13.8-6.3c-84.7-34.5-68.3-16.3-96-110.5c-8.2-27.7-13.4-56.3-20.6-87.3
	c1.6,0.9-0.6-1.4-2.7-1.4c-21.5,0.1-49.3-7.4-62.6,3.2c-11.8,9.4-7.7,39-10.4,59.7c-2.3,17.6-6.9,35.4-5.7,52.9
	c3.2,46.3-16.5,77.6-56.7,98.1c-6.7,3.4-11.6,10.2-18.4,13.4c-46.4,21.8-63.5,59.8-66.3,109.1c-1,18,0.2,32.5,10.9,45.7
	c48,59.1,66.7,129.7,80.7,202.3c1.4,7.5,3.1,15,3.4,22.5c1.2,27.7-12.1,45.3-36.6,49.4c-24.5,4-45.1-7.8-52.2-33.3
	c-9.2-32.9-16.2-66.5-23.6-99.8C314.2,838.6,301.6,817.9,278.7,792.3z M859.9,380.8c-0.7,6-0.7,9.8-1.5,13.5
	c-20.6,91.4-80.1,119.5-164.7,78.1c-2.3-1.1-4.4-2.6-6.8-3.4c-21.2-6.8-32.9-20.6-37-43.1c-3.8-21.1-9.3-42.3-17.8-61.9
	c-4.1-9.4-17.1-21.8-25.3-21.3c-17,1-20.3,16.7-16.2,31.9c7.1,26.9,17,53.3,21.8,80.6c5,28.7,19.8,46,47.3,52
	c51.5,11.1,79.7,38.6,71.2,94.6c-1.1,7.2,1.2,15.1,2.5,22.6c4.6,25.8,0.6,49.6-11.3,73.4c-15.9,31.6-30.4,64.1-42.7,97.3
	c-17.6,47.4-33.4,95.6-48.1,144c-2.8,9.1,1.6,21.7,6.2,30.9c1.7,3.4,15.9,5,20.2,1.8c7.4-5.6,13.6-14.8,16.7-23.8
	c11.9-33.4,21.2-67.7,33.6-100.9C725.2,801,744,755.3,763,709.8c2.5-6,10.2-9.8,15.4-14.7c3.7,5.8,8.3,11.3,10.9,17.6
	c1.9,4.5,0.8,10,1.6,15c11.9,73.7,23.9,147.3,35.8,221c2.5,15.2,8.9,28.3,26.6,25.3c20-3.4,21-18.3,16.6-35.1
	c-22.8-87.5-27.6-177.4-37-266.8c-13.2-124.4-13.6-128.1,53.1-234.4c2.7-4.3,5.1-8.8,8.2-12.8c11.2-14.1,11.9-29.1,8.1-46.5
	c-10.1-45.7-18.3-91.9-27.5-137.8c-1.7-8.6-2.3-19.1-7.6-25c-5.7-6.4-16.5-11.9-24.5-11.2c-5.6,0.4-13.4,11.5-14.5,18.7
	c-1.5,9.4,2.1,19.9,4.2,29.7C841.6,296.2,851,339.5,859.9,380.8z M919.9,144.5c5.6-35.4,10.6-66.6,15.6-97.7
	c2.2-13.7-1.6-22.1-17.4-22c-29.9,0.3-59.8,0.1-92,0.1c21.5,41.2,21.6,41.2-11.6,67.5c-37.8,29.9-78.4,56.8-112.9,90.1
	c-59,56.8-124.4,85.6-208,74.1c-80.3-11.1-154.9,10-225.2,50.1c-44.1,25.2-91.3,43.7-143.5,45.5c-15.1,0.5-30.4,2.7-45.2,5.6
	c-29,5.7-17.3,29.5-18.7,46.4C59.1,425.4,75,420.1,87.2,419c68.3-6.1,135.8-14.8,196.9-50.3c24-13.9,49.7-25.6,75.9-34.8
	c22.1-7.8,45.8-14.2,69.1-15.2c54.4-2.4,109-1.8,163.5-1.4c26.7,0.2,48.3-8.1,69.3-25.2c63.8-52.1,129-102.6,193.8-153.5
	C885.9,115,886,115.2,919.9,144.5z M463.6,383.1c0.7-16.8,3.1-37.3-18.5-40c-24.4-3.1-25.8,18.8-27.9,36.5
	c-3.1,26.4-4.7,53.1-9.3,79.3c-2,11.5-7.5,24.4-15.6,32.4c-45.5,44.9-95.2,77-162.2,43.2c-6.6-3.3-15.7-2-21.9-5.7
	c-12.4-7.4-25.6-15.1-34.8-25.8c-13.1-15.3-21.6-34.5-34.8-49.6c-4.8-5.5-20.1-8.2-26.1-4.6c-6,3.6-11.7,19.6-8.6,24.9
	c23.2,40.1,33.3,91.6,93.8,98.9c30.9,3.7,29.4,8.7,24.8,42.4c-5.6,41.3-11.5,82.9-12.5,124.5c-1.6,66.2-2.6,131.9-38,191.1
	c-1.3,2.2-2.1,4.6-3.1,6.9c-6.7,14.8-5.7,28.3,10.6,34.8c14.9,6,24.3-3.8,29.4-16.6c18.1-45.5,45.9-87.8,45-139.7
	c-0.4-21.4,2.8-43,5.6-64.4c0.7-5.2,5.5-12.9,9.6-13.8c4.4-1,12.8,3.3,15.2,7.6c22.7,40.7,53.4,77.3,62.2,125.1
	c5,27.4,10.3,55,19.1,81.3c3,9.1,17.4,20.8,26,20.3c17.1-0.8,20.2-16.2,16.7-31.7c-0.8-3.7-2.6-7.2-3.1-11
	c-11-72.4-34.7-139.4-79.4-198.7c-8.9-11.8-13.9-30.5-12.6-45.2c7.7-88.6,8.5-88.5,81.1-140c1-0.7,2-1.6,3.1-2.2
	c41.8-21.9,64.2-54.3,60.2-103.7C455.9,421.1,461.3,402,463.6,383.1z M799.2,214.1c-49.8,39.1-95.3,74.4-140.2,110.6
	c-4.5,3.7-7.9,13.4-6.5,19.1c7.2,29,16.1,57.7,24.4,86.4c6.3-37.8,18-69.8,55.6-84.4c38.1-14.9,69.3,1.5,102.7,33
	C822.4,319.8,811.5,269.9,799.2,214.1z M814.1,418.2c0.8-28.3-23.6-53.9-51.9-54.7c-27.9-0.7-53.9,24.1-54.7,52.4
	c-0.8,27.8,24.3,54,52.3,54.6C788.1,471.1,813.3,446.8,814.1,418.2z M294.4,419.8c-29-1-53.6,22.3-54.4,51.3
	c-0.8,30.4,20.8,53.5,50.8,54.1c29.8,0.6,54.4-21.9,55.4-50.5C347,446.7,322.6,420.8,294.4,419.8z M398.5,341.8
	c-38.2,17.8-68.5,31.9-98.7,46c42.4,15.7,65.9,42.6,72.6,85.7c3.4-1.1,6.9-2.2,10.3-3.2C387.6,431.3,392.3,392.3,398.5,341.8z
	 M159.3,434.5c18.6,28.2,26.2,56.7,54.6,72.2c3.2-29.2,6-54.5,8.9-81.6C204.2,427.9,184.8,430.8,159.3,434.5z"/>
</svg>
