<svg xmlns="http://www.w3.org/2000/svg" viewBox="0 0 228.91 228.54"><g id="Calque_2" data-name="Calque 2"><g id="Calque_1-2" data-name="Calque 1"><path d="M147.36,0Q186,38.76,224.67,77.46c1.13,1.13,3,1.54,4.24,2.15C218.49,93.05,198.65,96.5,184,88.86c-.58-.31-1.15-.66-1.72-1-8-4.59-8.11-4.66-13.47,2.82-14.09,19.68-28,39.46-42.18,59.1-2,2.84-1.34,5-.06,7.75,8.47,18,6.47,35-5.32,51-2.57,3.5-4.59,3.8-7.84.53q-47.64-48-95.56-95.78c-2.83-2.82-2.88-4.52.37-7,16-12.28,33.15-14.26,51.32-5.68,3.34,1.57,5.54,1.48,8.51-.65,20.73-14.91,41.59-29.62,62.4-44.42,1.33-.94,2.53-2.06,4.07-3.31-5.8-6.76-9.44-14.28-10.19-22.94-1-11.2,2.9-20.83,10-29.31ZM0,223c5.87,6.43,11.55,7.43,17.18,2,15.33-14.88,30.38-30.08,45.36-45.32.86-.87.83-3.79,0-4.88-2.05-2.76-4.77-5-7.23-7.49-5.11-5.07-5.15-5.07-10.19-.07L0,212.07Z"/></g></g></svg>