<?xml version="1.0" encoding="utf-8"?>
<!-- Generator: Adobe Illustrator 25.2.0, SVG Export Plug-In . SVG Version: 6.00 Build 0)  -->
<svg version="1.1" id="Calque_1" xmlns="http://www.w3.org/2000/svg" xmlns:xlink="http://www.w3.org/1999/xlink" x="0px" y="0px"
	 viewBox="0 0 1000 1000" style="enable-background:new 0 0 1000 1000;" xml:space="preserve">
<path d="M1000.5,499.8c-2.7,283-224.5,487.6-474.1,499.6C229.6,1013.6-1.4,778.9-0.5,500.4C0.5,216.3,224,6.8,486.6,0.2
	C771.6-7.1,998.5,219.5,1000.5,499.8z M496.4,216.9c12-1.5,24-3,36.2-4.5c0.9-13-7.7-13.2-16.8-12.8c-40.6,1.7-81.3,3.4-121.9,5.4
	c-2.5,0.1-4.8,2-7.6,3.1c2.4,15.6,9.9,23.4,24.6,27.4c13.6,3.7,25.9,11.8,38.9,17.7c3.6,1.6,7.6,2.2,11.5,3.3
	c-21.5,22.5-47.8,17.6-64.7-12.2c-6.7-11.8-11.9-31.3-20.9-33.3c-11.4-2.6-25.9,9.5-39.4,14.4c-11.3,4.1-15.4,11.5-15.5,23.1
	c-0.2,14.4-1.6,28.9-3,43.3c-1.3,13.8-10,19.5-23.1,21.6c-12.8,2-25.5,5.1-37.8,9c-4.4,1.4-9.2,5.8-11.2,10.1
	c-12.8,27.3-23.9,54.8,0.1,82.3c1.8,2.1,2.6,5.2,3.3,8c5.4,22.6,9.1,47-10.1,63.2c-16.7,14.1-21.2,27.4-14.4,46.8
	c2.1,6.1,4.1,12.8,3.8,19.1c-0.6,14.3,6.7,21,19.3,24.7c24.9,7.4,36,26.3,38.3,50.3c1.4,15-0.6,30.4-0.9,45.6
	c-0.1,4.9-1.2,11.2,1.3,14.4c12,15.1,25,29.4,38.6,44.9c9.6-10.4,25.6-11.4,22.2-29C336,645.3,325.2,587.7,314.6,530
	c-8-43.4-6.1-85.3,20.1-123.2c26-37.7,70.2-47,109-22.7c27.6,17.3,45.8,42.7,55.6,73.2c16.4,51.2,17.6,101.6-16.5,147.2
	c-25.1,33.6-63.6,41.6-100.6,22.3c-5.2-2.7-10.4-5.5-17.5-9.2c5,28.7,8.9,54.4,14.1,79.9c1.8,8.8,5.8,17.4,10.1,25.4
	c6.2,11.4,15.9,21.3,20,33.2c8.4,24.6,20.5,40.9,49.7,35.2c4.1-0.8,8.7,0.6,12.9,1.7c8.3,2.2,12.7-1.2,13.7-9.1
	c1.2-9.3,1.8-18.8,2.6-28.1c2.5-26.4,16.1-42.5,36.9-43.9c17.6-1.1,52.8,15.5,67.4,34c-20.6-11.3-37.6-20.6-52.1-28.5
	c-12.4,13.6-22.9,27.5-35.8,38.7c-14.9,12.9-16,12.6-9.4,34.3c39.3-12.4,78.3-25.5,117.9-37c13.2-3.8,17.8-10.3,14.8-22.8
	c24.7-7.7,48.5-16.8,73.1-22.2c23-5.1,39.3-16.4,50.4-37c6.3-11.6,14.5-22.2,21.8-33.3c-9.6-1.9-16.5-0.7-23.2,1.1
	c-32.7,9.2-65.4,18.4-98.1,27.8c-10.6,3-19,3.4-24.6-9.4c-5.2-11.9-13.9-22.1-19.9-33.7c-16.3-31.4-12.3-66,11.7-85.6
	c18.5-15.1,39-27.2,63.5-31.8c34.8-6.6,69.4-14.6,104-22.1c11.2-2.4,17.4-6.3,13.6-20.7c-5.5-20.9-7.9-42.7-10.8-64.2
	c-1.3-9.6-5.7-12.4-14.7-10.9c-20.7,3.5-41.4,6.9-62.2,10.2c-36.3,5.6-72.2,14.2-109.4,2.8c-27.8-8.6-49.5-29.9-49.4-58.6
	c0.1-22.2,4.6-44.5,8.4-66.6c0.6-3.8,6.9-8.9,11-9.4c22.4-2.4,44.9-3.2,67.3-5.1c20.4-1.7,40.7-4.1,61-6.2c0.4-1.8,0.8-3.5,1.3-5.3
	c-15.8-11-31.8-21.8-47.3-33.2c-10.1-7.5-20.6-8.6-32.7-7.7C580.6,212.4,538.5,214.4,496.4,216.9z M557.6,347
	c17.9,11.5,38.9,19,50.4,33.8c15.7,20.2,32.8,18.8,52.9,15.8c8.6-1.3,17.2-2.4,25.7-3.9c16.5-2.9,33.1-5.9,47.2-8.5
	c-11.2-10.7-23.7-19.7-32.2-31.5c-13.7-19-10.1-41.5-6.9-63.2c1.1-7.5,1.8-15,2.7-23.1c-5.4-0.5-8.2-1.3-11-1
	c-36.9,2.8-73.8,5.5-110.6,9.1c-3.8,0.4-9.3,6.3-10,10.3C562.2,306.3,560,327.9,557.6,347z M764.8,624.4
	c-28.6-41.5-46.6-80.3-3.5-125.2c-39.1,8.7-72.8,16-106.3,24c-3.1,0.7-6.4,5.3-7.6,8.8c-8.8,25.2-21.7,47.4-45.6,62.4
	c4.3,8.5,8,16.2,12.2,23.7c7.4,13.2,12.4,33.3,23.4,37.6c12.1,4.7,29.9-4.9,45.1-8.9C708.8,639.9,735.1,632.5,764.8,624.4z
	 M343.9,495.7c1.7,29.9,11.4,54.7,33.5,74.1c24.7,21.7,57.1,16.7,74.2-11c21.6-35.2,12.2-92.9-19.4-119.1
	c-26.8-22.2-60.8-16.1-76.2,15.2C349.7,467.4,347.7,482.1,343.9,495.7z"/>
</svg>
