<?xml version="1.0" encoding="utf-8"?>
<!-- Generator: Adobe Illustrator 25.2.0, SVG Export Plug-In . SVG Version: 6.00 Build 0)  -->
<svg version="1.1" id="Calque_1" xmlns="http://www.w3.org/2000/svg" xmlns:xlink="http://www.w3.org/1999/xlink" x="0px" y="0px"
	 viewBox="0 0 1000 1000" style="enable-background:new 0 0 1000 1000;" xml:space="preserve">
<path d="M515.8,496.1c0-125.1,0-250.3,0-375.4c0-8.4,1-17-0.1-25.3c-6.8-51,37.3-83.7,88.6-60.5C649,55.2,696,70.2,742,87.6
	c65.7,24.9,131.5,49.5,197,74.9c53.4,20.8,60.9,31.8,60.9,87c0.1,167.3,0.1,334.6,0,501.9c0,53.9-7.4,66.1-57.2,85.3
	c-111.4,43-224.1,82.9-334.6,128.1c-56.4,23.1-94.8-6.7-93.4-63.8C518,766.1,515.8,631.1,515.8,496.1z M553,498.5
	c0,125.2,0,250.3,0,375.5c0,9.8-0.5,19.7,0.3,29.5c2.2,29.1,8.7,33.2,38,24.8c5.4-1.5,10.7-3.4,16-5.4
	c107.8-40.9,215.3-82.5,323.4-122.2c26.5-9.7,32.1-26.6,32-51.6c-0.6-166-0.1-331.9-0.4-497.9c-0.1-37.8-2.3-39.8-40-54
	c-64.4-24.3-128.9-48.6-193.3-72.9c-46-17.4-91.8-35.6-138.2-51.7c-28.7-9.9-35.5-4.4-37.6,25.1c-0.7,9.8-0.2,19.7-0.2,29.5
	C553,251,553,374.8,553,498.5z M237.7,660.2c0,52-1.1,104.1,0.5,156c1.6,52.2,33.1,74.3,81.8,57.8c42.5-14.4,84.3-31.3,126.1-47.7
	c12.8-5,29.7-10.8,20.9-29.4c-8.1-17.3-23.5-10.2-36.8-5.2c-32.8,12.4-65.5,25.3-98.6,37.3c-48.9,17.7-51.3,15.9-51.4-37.3
	c-0.1-194-0.1-388,0-582c0-11.2,0-22.6,1.5-33.6c1.6-11.7,9.9-17,21.2-14.5c9.5,2.1,18.6,6.1,27.8,9.5
	c36.8,13.9,73.5,28.1,110.4,41.6c12.1,4.5,23,1.2,27.3-11.8c3.8-11.6-4.3-18.9-13.9-22.8c-49.5-19.9-98.2-42.4-150-55.6
	c-31-7.9-55.8,9.1-63.6,40.3c-3.3,13.4-3.2,27.8-3.3,41.8c-0.3,98.4-0.1,196.8-0.1,295.2C237.7,553.4,237.7,606.8,237.7,660.2z
	 M0.2,721.2c0,11.2-0.6,22.6,0.7,33.7c3.5,29.7,20.8,48.6,49.5,46.9c48.5-2.9,91.2-26,134.3-46.3c6.7-3.1,9.7-10.6,7.5-18
	c-2.7-9-10.1-14-19.2-13.2c-8.2,0.8-16.4,3.7-24.2,6.5c-22.5,8.1-44.7,16.8-67.1,25.1c-36.1,13.4-43.7,9.3-43.9-27.7
	c-0.5-151.9-0.5-303.8,0-455.7c0.1-36.5,8.3-41.2,44.1-28.6c27.9,9.8,55.4,20.4,83.2,30.4c10.2,3.7,20.2,2.8,25.6-7.7
	c6.9-13.6-2.1-21.5-13.1-26.1c-29.8-12.5-59.7-24.9-90.1-35.7c-57.4-20.4-86.7,0-87.1,60.7c-0.5,77.4-0.1,154.7-0.1,232.1
	C0.2,572.1,0.1,646.6,0.2,721.2z M333.9,450.8c18.6,1.6,19.4-16.5,22.1-30.1c7.1-36.3,7-36.4,51.6-41c10-1,20.4-1,24.5-12.3
	c4.2-11.5-2.6-18.5-12-23.6c-2.5-1.4-5.4-2.1-7.5-3.8c-26.5-21.8-25.5-38.7,4.3-56c10.7-6.2,20.1-12.3,14.8-25.7
	c-4.7-11.8-15.9-15.5-27.9-14.4c-11.4,1.1-21.8,5.7-30.2,13.7c-15.4,14.7-21.2,33.6-18.2,53.8c2.9,19.8-0.9,33.9-17.7,46.7
	c-17.6,13.5-23.3,34.4-23.6,57.1C315,429.9,313.4,449,333.9,450.8z M83.6,462c16.2,0.8,19.1-13.7,20.4-26.7
	c1.5-15,3.5-28.6,24.2-25.3c13.2,2.2,26.5,1.1,32.3-12.8c6.4-15.6-7.7-21.4-16.9-29.7c-15.3-13.9-21.7-27.8,4.9-36.5
	c11.2-3.7,16.4-11.4,12.2-22.4c-4.5-12-15.3-16.6-27.3-14.7c-18.1,2.8-33.8,14.4-35.6,31.3c-3.3,31.2-14,58.4-29.9,84.7
	c-3.4,5.7-3.3,13.5-4.6,19.7C65.3,444.3,65,461.1,83.6,462z M345.7,651.7c-11.3,2.7-21.3,10.3-18.5,23.8c2.8,13.3,14.4,16.6,26.3,14
	c32.6-6.9,65.1-14.5,97.6-22.2c11.7-2.8,22.2-8.8,19.2-22.6c-2.9-13.3-15-14.7-29.3-13.8C410.8,637.4,378.1,643.9,345.7,651.7z
	 M346.6,519c-10,2.7-19.5,6.5-19.6,18.5c-0.1,12.2,9.2,16.9,19.6,17.9c36.7,3.3,72.6-5.8,108.8-9.4c8.6-0.9,14.4-9.1,13.4-18.7
	c-1-9.9-8.5-14.4-17.5-14.9c-12.6-0.7-25.2-0.2-37.9-0.2C391,512.2,368.6,513.2,346.6,519z M175.6,633.9c9.7-2.5,18.6-8.7,16.8-20.5
	c-2.1-14-13.3-17.5-25.1-15.3c-25.9,4.9-51.7,10.6-77.3,16.8c-9.8,2.4-18.5,8.4-16.5,20.4c2.3,13.7,12.6,17,32.5,15.2
	C124.4,646.2,150.1,640.6,175.6,633.9z M124.2,549.4c16.5-1.6,33.2-2.6,49.6-5.1c10-1.5,19.7-7.1,19.6-18.4
	c-0.2-13.6-11.9-19.6-23.2-19.1c-27.6,1.1-55.2,4-82.6,7.5c-8.5,1.1-14.9,8.3-13.8,18c1.1,9.5,8.1,14.6,17.1,15.2
	c11,0.8,22.2,0.2,33.3,0.2C124.2,548.3,124.2,548.9,124.2,549.4z M797.5,283c-10,22.5,1.8,40.1,19.6,58.8
	c21.3,22.4,15.9,52.5,13.1,80.3c-0.9,8.7-7.3,15.1-17.5,14.5c-7.9-0.4-12.8-5.2-15.3-12.2c-1.4-3.9-1.7-8.2-2.4-12.3
	c-8.3-55.4-8.3-55.7-61.8-63.9c-13.8-2.1-28-2.9-41.9-2.7c-35,0.5-43.3,9-46.4,45.1c-1.5,17.3,4.4,39.6-21,44.1
	c-15.4,2.7-23.1-21.3-19.4-52.5c3.5-29.9,15.4-54.8,42.9-68c15.9-7.7,15.6-16.9,11-30.2c-2.2-6.6-4.1-13.6-4.6-20.5
	c-2.1-30.1,15.3-60,41.7-72.4c25.1-11.9,51.3-5,75.6,19.8C790.1,230.4,798.1,251.2,797.5,283z M722.5,227.6
	c-20.2-0.1-26.2,12.5-26.9,29.9c-1,24,16.7,49.7,35.7,49.5c18.9-0.1,26.8-13,28.2-30.1C761.2,254.8,741.5,229,722.5,227.6z
	 M822.7,654.9c-54.7,11.8-109.6,22.7-164.1,35.4c-14.8,3.4-38.7,4.1-32.7,28.4c5.2,20.9,24.1,12.7,39,9.5
	c38.3-8.3,76.6-16.4,114.9-24.6c39.6-8.6,79.3-17,118.8-26.2c11.3-2.6,22.4-8.8,20-22.7c-2.3-13.7-14.3-15.4-28.8-15
	C869.1,644.4,845.9,649.9,822.7,654.9z M819.1,554.7c26.5-1.7,53-4.5,79.4-7.6c10.1-1.2,19.8-5.7,20.1-17.7
	c0.3-12.3-9-16.2-19.5-17.5c-4.2-0.5-8.4-0.5-12.6-0.6c-73-0.6-145.4,8.7-218,13.4c-15.7,1-44.5-3.4-43.4,21.3
	c1.3,29.4,30.3,14.6,48.3,19.7C720.9,555.7,770.2,557.8,819.1,554.7z"/>
</svg>
