<?xml version="1.0" encoding="utf-8"?>
<!-- Generator: Adobe Illustrator 25.2.0, SVG Export Plug-In . SVG Version: 6.00 Build 0)  -->
<svg version="1.1" id="Calque_1" xmlns="http://www.w3.org/2000/svg" xmlns:xlink="http://www.w3.org/1999/xlink" x="0px" y="0px"
	 viewBox="0 0 1000 1000" style="enable-background:new 0 0 1000 1000;" xml:space="preserve">
<path d="M542.1,146.3c120.1,0,240.3,0,360.4,0c15.4,0,15.6,0.2,15.6,15.8c0,112.8,0,225.7,0,338.5c0,18.1,0,18.1,18.5,18.1
	c12.2,0,24.4-0.2,36.6,0.1c18.8,0.4,26.7,8.3,26.7,26.8c0,80.4,0,160.9,0,241.3c0,19.4-7,26.7-26.2,26.8c-38.7,0.1-77.3,0.2-116,0
	c-18.4-0.1-25.8-7.8-25.9-26.3c-0.1-15.3-0.3-30.7,0.1-46c0.2-7.7-2-11.4-10.6-11.3c-75.6,0.2-151.1,0.2-226.7,0
	c-8.3,0-10.9,3.2-10.8,11.1c0.3,33.1-0.2,66.2,0.3,99.2c0.1,9.9-3.1,13.3-13.2,13.3c-186-0.2-371.9-0.2-557.9,0
	c-10,0-13.2-3.3-13.2-13.2c0.2-130.9,0.2-261.9,0-392.8c0-9.7,3.5-12.8,12.8-12.7c46,0.3,91.9,0.1,137.9,0.1
	c14.5,0,14.8-0.2,14.8-14.5c0-86,0-172,0-258c0-16.2,0-16.3,16.2-16.3C301.8,146.3,422,146.3,542.1,146.3z M541.9,188.9
	c-105.2,0-210.3,0-315.5,0c-16.4,0-16.4,0-16.4,16.8c0,71,0,142.1,0,213.1c0,16.2,0,16.3,16,16.3c113.9,0,227.7,0,341.6,0
	c16.4,0,16.5,0.1,16.5,16.1c0,73.8,0.2,147.6-0.2,221.5c0,9.9,3,13.3,13.1,13.2c73.8-0.3,147.6-0.4,221.5,0
	c10.5,0.1,13.8-3.1,13.7-13.7c-0.5-42.1-0.3-84.3-0.2-126.4c0-18.4,8.2-26.5,26.8-27.1c14.9-0.4,14.9-0.4,14.9-15.3
	c0-99.2,0-198.5,0-297.7c0-16.8,0-16.8-16.4-16.8C752.2,188.9,647,188.9,541.9,188.9z M272.4,810.9c71.7,0,143.4-0.1,215.1,0.1
	c7.8,0,10.7-1.6,10.7-10.4c-0.4-101.6-0.2-203.3-0.3-304.9c0-14.2-0.3-14.5-14.8-14.5c-141.3,0-282.6,0-424,0
	c-14.4,0-14.7,0.3-14.7,14.6c0,100.2,0,200.5,0,300.7c0,14.1,0.2,14.3,14.8,14.3C130.4,811,201.4,810.9,272.4,810.9z M976.5,668.1
	c0-30.3-0.3-60.6,0.2-90.9c0.1-9.6-3.4-12.8-12.8-12.7c-32,0.4-64.1,0.4-96.1,0c-8.9-0.1-12.4,2.7-12.3,12
	c0.3,60.2,0.3,120.5,0,180.7c0,9.2,3.2,12.1,12.2,12c32-0.4,64.1-0.5,96.1,0c10.3,0.2,13.1-3.8,13-13.5
	C976.2,726.7,976.5,697.4,976.5,668.1z M556.1,645.9c0.1-8.2-6.1-14.9-13.9-15.2c-7.9-0.3-14.5,6.1-14.8,14.1
	c-0.3,9.3,5.4,15.5,14.1,15.5C549.4,660.4,556.1,653.8,556.1,645.9z"/>
</svg>
