<svg xmlns="http://www.w3.org/2000/svg" viewBox="0 0 494.77 495.28"><g id="Calque_2" data-name="Calque 2"><g id="Calque_1-2" data-name="Calque 1"><path d="M494.75,247.37c.29,60.63-19.23,114.35-58.4,160.44-40.75,47.94-92.87,76.43-155.2,85C221.06,501,164.66,489,113.87,455.83,50.71,414.62,13,356.14,2.5,281.15-4.64,230.07,3.5,181.13,27,135c2.78-5.48,5.87-10.82,9-16.09,6.76-11.33,20.2-15.12,31.56-9,10.79,5.78,14.57,19.33,8.94,31.08-6.82,14.22-15,28-19.81,42.92C40,235,42.06,285.68,66.12,334.18,98,398.46,149.79,436.93,221,447c57.8,8.12,109.85-7.23,154.88-44.44,37.67-31.12,61.42-71,69.88-119.21,7.37-42,2.65-82.77-16-121.56Q398.43,96.61,333.4,65.23c-21.62-10.4-44.51-16.25-68.47-18.4-21.6-1.93-42.77,0-63.85,4.58-12.56,2.76-24.93-4.71-27.51-16.27-3.1-13.82,3.65-25.34,17.24-28.55A248.81,248.81,0,0,1,366.62,30.33a242.46,242.46,0,0,1,65.28,51.8c21.49,24.16,38,51.19,48.83,81.65,8.4,23.64,13.57,47.94,14,73.13C494.8,240.39,494.75,243.88,494.75,247.37ZM346.87,318.88c-10.77-26.47-47.2-35.67-69.22-17.46-3.9,3.22-6.73,3.41-10.89.77-19.79-12.58-39.71-24.93-59.66-37.25-2.52-1.56-3.51-3.22-2.69-6.11a41,41,0,0,0,0-22.63c-.81-2.87.14-4.56,2.67-6.12q29.92-18.47,59.66-37.24c4.15-2.63,7-2.51,10.91.73,8.22,6.81,18.13,9.74,28.75,9.55,26.83-.49,45.5-24.69,44.82-47.28-1-31.62-35.36-53.82-64.17-40.65-17.92,8.2-32,28.23-26.44,52.54.61,2.67,1.13,4.84-2,6.76q-30.84,18.88-61.4,38.22c-3.23,2-5.22,1.8-8.22-.54-21.51-16.75-48.57-13.44-65.44,7.77-14.79,18.59-11.63,47.36,6.85,62.32,18.31,14.82,40.19,15,59,.28,2.69-2.11,4.48-2.3,7.39-.47q30.61,19.21,61.47,38.1c2.49,1.52,3.06,3.21,2.7,6.15-.72,5.7-1.53,11.58-.9,17.23,2.81,24.94,24.13,41.52,50.43,39.73,22-1.51,40.54-22.34,41.7-46C350.43,331.15,349.26,324.76,346.87,318.88Zm-233.82-274c-13.18-.07-22.68,9.32-22.74,22.48-.08,14,9.12,23.61,22.65,23.59,12.88,0,22.48-9.73,22.51-22.76C135.51,54.42,126.35,44.9,113.05,44.84Z"/></g></g></svg>