<svg xmlns="http://www.w3.org/2000/svg" viewBox="0 0 236.56 271.45"><g id="Calque_2" data-name="Calque 2"><g id="Calque_1-2" data-name="Calque 1"><path d="M199.16,0c11.44,3.29,21.54,8.64,28.41,18.82,10.23,15.15,12.2,31.27,3.48,47.49C222.71,81.84,209.57,90.62,191.3,91a43.69,43.69,0,0,1-29.44-10.09c-3.09-2.53-5.45-2.62-8.79-.5-20.19,12.75-40.55,25.25-60.7,38.06A6.54,6.54,0,0,0,90,124a52.67,52.67,0,0,1,0,23.17c-.36,1.61,1,4.54,2.46,5.47,20,12.73,40.23,25.13,60.26,37.83,3.71,2.35,6.16,2,9.6-.69,14.55-11.19,30.79-13.28,47.27-5.56,16.78,7.86,26.2,21.66,26.51,40.56.38,21.93-14.07,40.2-35.24,45.42-20.14,5-41.67-4.94-51.41-24.14a42.61,42.61,0,0,1-3.35-31.43c.87-3.16.11-4.86-2.57-6.51Q113,189.33,82.66,170.31c-3.19-2-5.18-1.89-8.2.47-24.79,19.39-58.11,11.11-71.08-17.52-1.3-2.85-2.26-5.86-3.38-8.79V126.53a28.87,28.87,0,0,0,1.43-3.16c10.65-32.92,46.31-44.12,73.38-22.91,2.67,2.09,4.44,2.36,7.36.53q30.51-19.2,61.27-38c2.95-1.81,3.34-3.68,2.59-7q-5.4-23.43,10.78-41.46C163.5,7.12,172,3.05,181.24,0Z"/></g></g></svg>