<?xml version="1.0" encoding="utf-8"?>
<!-- Generator: Adobe Illustrator 25.2.0, SVG Export Plug-In . SVG Version: 6.00 Build 0)  -->
<svg version="1.1" id="Calque_1" xmlns="http://www.w3.org/2000/svg" xmlns:xlink="http://www.w3.org/1999/xlink" x="0px" y="0px"
	 viewBox="0 0 1000 1000" style="enable-background:new 0 0 1000 1000;" xml:space="preserve">
<path d="M108.3,999.8c0-5.5,0-9.7,0-13.9c0-126.8,0-253.6,0-380.4c0-2.3,0.2-4.7,0-7c-0.4-4.9,1.4-7.1,6.6-7c18,0.2,36,0.2,54,0
	c5.2,0,7,2.2,6.7,7.1c-0.2,3.1,0,6.3,0,9.4c0,103.3,0,206.6,0,310c0,3.1,0.2,6.3,0,9.4c-0.3,5,1.9,7.2,6.9,6.9c2.7-0.2,5.5,0,8.2,0
	c162,0,324,0,486.1,0c16.2,0,15.3,1.8,15.3-15.1c0-102.9,0-205.9,0-308.8c0-3.1,0.3-6.3,0-9.4c-0.6-6.8,1.6-9.9,9.1-9.7
	c16.4,0.5,32.9,0.3,49.3,0.1c5.8-0.1,8.9,1.6,8.2,7.9c-0.3,2.3,0,4.7,0,7c0,126.4,0,252.8,0,379.2c0,3.1,0.5,6.4-0.3,9.3
	c-0.6,1.9-2.9,3.9-4.9,4.7c-2,0.8-4.6,0.2-7,0.2c-209,0-418,0-627,0C116.4,999.8,113.3,999.8,108.3,999.8z M237.5,715.5
	c-0.6,6.1,1.6,8.7,7.5,8.9c5.9,0.3,11.7,0.7,17.6,1.3c46.3,4.3,92.7,8.7,139,13c58.4,5.4,116.9,10.8,175.3,16.1
	c17,1.6,34.1,2.9,52.3,4.5c2.4-25.2,4.8-49.7,6.9-74.2c0.8-9.6,0.5-9.8-9-10.8c-15.2-1.5-30.4-2.7-45.6-4.1
	c-37.4-3.4-74.8-6.9-112.2-10.4c-47.1-4.3-94.3-8.7-141.4-13c-27.2-2.5-54.5-4.9-83.3-7.5C242.2,665.7,240.1,690.6,237.5,715.5z
	 M260.2,535.2c-2.4,8.9-2.3,9.1,7,11.6c39.2,10.7,78.4,21.2,117.6,31.8c80.7,21.7,161.3,43.4,242,65.2c11.2,3,11.3,3,14.3-7.9
	c5.3-19.2,10.8-38.3,15.6-57.6c3.6-14.4,5.9-12.2-9-16.2c-76.5-20.7-153-41.2-229.5-61.8c-45.6-12.3-91.2-24.5-138.5-37.3
	C272.9,487.8,266.5,511.5,260.2,535.2z M891.7,383.7c-4-21.9-8.4-43.8-12.2-65.7c-13.9-79.3-27.6-158.6-41.4-238
	c-4.1-23.9-8.3-47.8-12.3-71.7c-1.1-6.5-3.1-9.5-10.6-8c-21.9,4.3-43.9,7.8-65.8,11.5c-5.4,0.9-8.9,2.8-7,9.2c0.6,2.2,0.6,4.6,1,7
	c16.9,97,33.8,194.1,50.7,291.1c4.3,24.6,8.6,49.3,12.9,73.9c0.8,4.6,1,9.4,8.3,8.1c25.3-4.6,50.7-8.9,76-13.2
	C891.5,386,891.9,384.8,891.7,383.7z M723.6,454.5c23.5-16.1,46-31.5,69.5-47.6c-74.3-109-148-217.3-222-325.9
	c-23.7,16.2-45.9,31.4-69.5,47.5C575.9,237.7,649.5,345.8,723.6,454.5z M705.4,474.8c2.4-4,1.7-6.4-2.3-8.5c-2.1-1.1-4-2.4-6-3.6
	c-93.2-55-186.4-110.1-279.6-165.1c-15.8-9.3-31.5-18.6-48.3-28.4c-14.4,24.4-28.3,48.1-42.7,72.5
	c113.2,66.9,225.5,133.2,339.3,200.4C679.3,519.1,692.3,496.9,705.4,474.8z M243.2,784.2c-10.7,0-10.8,0.1-10.9,11
	c-0.1,20.3-0.1,40.7,0,61c0,11.3,0.1,11.3,11.8,11.4c1.6,0,3.1,0,4.7,0c119.6,0,239.3,0,358.9,0c2.7,0,5.5-0.2,8.2,0
	c6.7,0.7,8.7-2.3,8.6-8.8c-0.3-21.1-0.1-42.2-0.1-63.3c0-11.2-0.1-11.2-11.8-11.2c-61.4,0-122.8,0-184.1,0
	C366.8,784.2,305,784.2,243.2,784.2z"/>
</svg>
