<?xml version="1.0" encoding="utf-8"?>
<!-- Generator: Adobe Illustrator 25.2.0, SVG Export Plug-In . SVG Version: 6.00 Build 0)  -->
<svg version="1.1" id="Calque_1" xmlns="http://www.w3.org/2000/svg" xmlns:xlink="http://www.w3.org/1999/xlink" x="0px" y="0px"
	 viewBox="0 0 1000 1000" style="enable-background:new 0 0 1000 1000;" xml:space="preserve">
<path d="M500.1,839.2c-145,0-290-0.9-434.9,0.6c-40.2,0.4-65.2-34-65.2-65.2c0.4-205,0.1-409.9,0.2-614.9c0-23.3,8.9-42.8,28.8-55.4
	c7.8-5,17.8-6.7,27-9.4c2.8-0.8,6-0.2,9-0.2c290.6,0,581.2,0.1,871.8-0.2c28.9,0,47.7,13.1,59.1,38.2c2.7,5.9,3.9,12.9,3.9,19.4
	c0.2,210.3,0.2,420.6,0.1,631c0,30.7-26.3,56.2-57.9,56.2C794.7,839.3,647.4,839.2,500.1,839.2z M262.4,587
	c0,15.1,4.3,25.7,16.3,31.2c12.5,5.7,25,4.9,36-4c49.5-40.5,99-81,148.3-121.7c17.3-14.3,16.4-37.1-1.6-51.8
	c-36.5-29.9-73-59.9-109.5-89.8c-13.7-11.2-27.1-23.1-41.7-33.1c-18.2-12.5-41.2-3.6-47.7,17.2c-6,19.1,4.8,31.1,18.1,41.9
	c34,27.7,68,55.4,102.2,83c6.2,5,6.9,8.7,0.3,14c-36.1,29.4-71.9,59.1-108,88.5C266.4,569.6,262.2,578.3,262.4,587z M633.7,543.7
	c-27.2,0-54.3-0.2-81.5,0.1c-16.7,0.2-30.4,12.1-31.7,26.6c-1.9,20.8,7,33.5,26.3,37.4c4.2,0.8,8.6,1.4,13,1.5
	c49.3,0.1,98.6,0.2,147.9,0c12.9-0.1,25.8-1.6,33.8-13.8c7.7-11.7,7.9-24.1,1.3-36.2c-6-11.1-16.5-15.3-28.6-15.4
	C687.4,543.6,660.5,543.7,633.7,543.7z"/>
</svg>
