<svg xmlns="http://www.w3.org/2000/svg" viewBox="0 0 499.32 373.97"><g id="Calque_2" data-name="Calque 2"><g id="Calque_1-2" data-name="Calque 1"><path d="M499.32,22.38V351.72c-.44.9-.9,1.78-1.32,2.69-6,12.81-15.6,19.87-30.16,19.55-8.81-.19-17.62,0-26.44,0q-204.28,0-408.59-.1a36.32,36.32,0,0,1-14-2.46C5.28,365.53.1,354.23.1,340.07Q.1,187.16,0,34.25C0,13.68,14.28-.1,34.22,0,125,.44,215.81.19,306.61.19q80.56,0,161.14,0a32.28,32.28,0,0,1,18,4.83C492.37,9.18,496.38,15.35,499.32,22.38ZM195.14,187.06c-6.7,5.63-12.71,10.77-18.83,15.79C163.21,213.6,150,224.24,136.93,235c-8.93,7.36-9.32,18.75-1.05,26,6,5.23,14.86,5.06,21.93-.67q22.26-18.06,44.37-36.31c10.14-8.34,20.39-16.55,30.25-25.21,5.95-5.22,6.8-10.43,3.28-17.51a28.83,28.83,0,0,0-6.86-8.93C216.69,162,204.26,152,191.91,141.93c-11.71-9.58-23.4-19.17-35.2-28.64-5.56-4.46-11.86-5.38-18.2-2-6.08,3.26-8.76,8.52-8.49,15.66.24,6.51,4.27,10.26,8.62,13.87,11.65,9.65,23.43,19.14,35.14,28.71C180.68,175.19,187.57,180.85,195.14,187.06Zm121.45,70.79c13.47,0,26.94,0,40.41,0,5.28,0,9.86-1.44,13.24-5.69,4.22-5.3,5-11.16,2.24-17.31-2.93-6.47-8.58-9.43-15.25-9.49-26.94-.23-53.89-.29-80.82,0-10.37.11-16.79,7.18-16.51,16.78.29,10,6.38,15.62,17.27,15.68C290.31,257.91,303.45,257.85,316.59,257.85Z"/></g></g></svg>