<?xml version="1.0" encoding="utf-8"?>
<!-- Generator: Adobe Illustrator 25.2.0, SVG Export Plug-In . SVG Version: 6.00 Build 0)  -->
<svg version="1.1" id="Calque_1" xmlns="http://www.w3.org/2000/svg" xmlns:xlink="http://www.w3.org/1999/xlink" x="0px" y="0px"
	 viewBox="0 0 1000 1000" style="enable-background:new 0 0 1000 1000;" xml:space="preserve">
<path d="M373.8,683.5c0,89.9,0.6,170.7-0.2,251.4c-0.5,49.8-16.8,64.7-66.6,65c-11.8,0.1-23.5,0.1-35.3-0.1
	c-43.9-0.8-61.6-16.5-63.4-61.3c-2.2-53.4-1.4-107-2.7-160.5c-0.3-10.7,5.2-25-10.4-30.3c-34.5-11.9-37-42.4-45.7-71.5
	c-21.8-72.5-24.1-143,8.7-213c6.1-13,8.6-31.8,22.1-35.4c38.4-10.2,28.4-32.4,26.6-61.7c-5.1-82.5-3.2-165.5-2.2-248.3
	c0.5-37.9,22.1-57.1,64.1-58.4c49.6-1.5,99.4-0.7,149-0.5c18.9,0.1,34.6,0.1,41.8-24.2c6.8-22.9,27.3-34.3,52-34.4
	C591.2,0.2,671-0.5,750.7,0.6c36.8,0.5,58.1,21.6,59.4,59c1.7,50.8,0.5,101.8,0.5,152.7c0,10.6,0.1,21.9-11.7,26.7
	c-9.9,4-18.5-1.7-23.8-9.4c-53.5-76.8-133.2-36.4-201.8-45.2c-12.7-1.6-13.5,10-16.5,18.1c-11.6,31.7-36,42.5-67.7,42.4
	c-60.1-0.2-120.3,0.7-180.4-0.3c-22-0.4-37.6,6.7-50,29.1c25.7-2.8,48.9-5.7,70.5,5.7c21.8,11.4,36.7,28.3,45.2,51.6
	c9.3,25.5-5.1,48.9-4.6,71.9c0.5,21.8,42.3,18.1,49.5,46.1c7.3,28.4,7.8,57.3,5.9,85.5c-2.4,36.6,7.2,59,44,74.7
	c41.3,17.6,43.6,68.1,8.8,91.8c-16.7,11.4-34.5,11-52.4,4.6C412.6,700.9,399.8,694.6,373.8,683.5z M205,720c0-24.4,0.1-37.1,0-49.8
	c-0.3-47-0.7-94-0.7-140.9c0-10.6,1.2-22.5,15.9-21.6c11.6,0.6,13.7,10.9,14.2,20.2c1,20.8,1.7,41.7,2,62.6
	c1.2,113.5,2.2,227.1,3.4,340.6c0.2,15.6-0.7,35.5,21.7,34.1c21.7-1.4,13.5-21.9,13.7-34.3c0.9-61.3-0.7-122.7,1.1-184
	c0.5-18.4-12.9-51.7,14.7-52.2c28.5-0.5,15.8,32.9,16.3,51.3c1.7,63.9,0.5,127.9,1.1,191.8c0.1,10.5-4.5,26.4,13.3,27.4
	c18.3,1.1,18.7-14.5,20.5-27.4c0.4-2.6,0.4-5.2,0.5-7.8c1.5-79.6,3-159.2,4.4-238.8c0.2-9,0.6-18.1-6-25.9
	c-36.4-42.7-19.7-94.5-23.8-142.7c-0.7-8.3,4.7-15.6,13.4-16.6c11.4-1.2,16.7,6.9,17.1,16.9c1.3,27.4,2,54.8,2.4,82.2
	c0.2,16.6,3.5,31.2,20.1,39.2c21.2,10.1,42.2,20.8,63.8,30c12.8,5.4,26.8,5.8,33.4-9.6c6.8-15.8-4.3-27-16.8-30
	c-56.9-13.8-61.2-55-57.2-102.2c1.2-14.2-1.5-28.8-0.4-43c2.2-29.4-11.6-45.4-40-46.1c-42.9-1-85.8-0.2-128.7,1.2
	c-11.3,0.4-22.6,4.5-30.2,15.5C156.7,514.5,158.5,648.4,205,720z M778.4,174.6c0-28.2,0.1-56.5,0-84.7c-0.1-55.7-2.9-58.4-60.5-58.6
	c-52.2-0.1-104.4,0-156.6,0c-76.8,0-78.8,2.2-74.9,79.2c0.1,1.3,0.1,2.6,0.1,3.9c-0.6,25.9,11.2,37.6,38,37.1
	c57.4-1,114.8,0.5,172.2-0.5C724.9,150.5,751.5,151.8,778.4,174.6z M526.5,186.6c-48.2-3.5-75.2-25.1-71.8-74.7
	c1.2-17.9-10.3-21.3-25.3-21.2c-52.3,0.3-104.6,0.2-156.9,0.2c-15.3,0-31.3,2.8-33.8,19.9c-6.1,41.5-4.8,83.2-0.5,135.4
	c24.6-33,49.6-34.5,76.5-33.9c56.2,1.1,112.5,0.3,168.7,0.3C500.5,212.7,518,213.6,526.5,186.6z M289.7,413.5
	c29.2,1.1,55.3-22.9,56.9-52.4c1.7-30.9-23.9-58.4-54.6-58.5c-29.4-0.1-53.9,24.3-54.5,54.3C237,387.4,260,412.4,289.7,413.5z
	 M729.2,999.9c-70.2,0-84.3-13.9-85.3-84.3c-0.5-30-0.4-60-1.7-90c-1.3-28.7,4.8-60.7-38.2-68.8c-15.3-2.9-20.7-21-22-38.1
	c-6.5-84.7-11-169.2,16.9-251.6c3.7-11,5.2-29.2,12.3-31.7c47.1-17.2,31.1-53.9,32.2-87.4c1.7-50.6,51.7-87.6,101.5-78.8
	c50.1,8.9,85.2,59.2,71,107.6c-6.7,22.9-11.8,39.1,18,45.1c3.5,0.7,6.6,4.1,9.5,6.7c30.7,27.2,32.2,168.9-0.7,194.1
	c-17.5,13.4-20.8,27.3-20.9,46.3c-0.6,80.9-1.9,161.7-3.1,242.6C817.6,987.8,805.3,999.9,729.2,999.9z M685.5,441.4
	c-38.7-3.8-50.4,14.3-59.3,45.6C605.7,559,606,631.1,614.3,704.2c1.2,10.6-3.1,27.9,14.4,26.2c16.5-1.6,10-18.7,10.4-29.1
	c1.8-53.5,2.5-107,3.7-160.5c0.2-10.6,0.5-23,14.3-23.8c14.5-0.8,15.1,11.7,15.4,22.3c0.4,15.7,0.3,31.3,0,47
	c-1.9,112.3-2,224.5,3.9,336.6c0.9,17.2-4,43.2,22.1,42.2c28.8-1.1,15.5-28.3,15.9-43.5c1.6-62.6,0.1-125.3,1.2-187.9
	c0.3-14.7-9.4-40.9,16.1-39.8c23,0.9,15.2,26.4,15.4,41.9c0.9,65.3-0.1,130.5,0.8,195.8c0.2,12.4-7.8,32.6,14.5,34
	c21.8,1.4,23-16.7,23.3-33.1c1.9-91.3,3.9-182.7,5.9-274c0.3-13.3-2.1-24.1-12.4-35.1c-28.5-30.4-54.1-63.6-82.2-94.5
	C673.4,502.8,664.8,475.7,685.5,441.4z M831.5,533.1c0-23.1-0.1-38.7,0-54.3c0.1-28.1-20.8-32.8-41.7-37.6c-8.5-2-21.2-9.8-24.7,0.1
	c-6.3,18,15.9,23.2,22.6,36c0.6,1.1,1.7,2,2.5,3c7,8.9,11.5,18.7,1.1,27.4c-9.3,7.8-17.1,0.8-23.6-5.8c-9.2-9.2-17.5-19.4-27-28.3
	c-7.8-7.3-14.7-21.8-28.4-8.8c-10.5,9.9-8.1,21.1,0.2,31.4c15.5,19.3,29.8,39.8,47.3,57.2c17.4,17.3,26.7,55.5,56.1,45.7
	C849.4,587.8,825.9,550.5,831.5,533.1z M728.7,300.8c-31.2,0.8-57.1,27.9-55.6,58.3c1.4,28.5,28,54.1,56.5,54.4
	c30.5,0.4,57-26.3,56.7-57.2C785.9,324.7,760.3,300,728.7,300.8z"/>
</svg>
