<?xml version="1.0" encoding="utf-8"?>
<!-- Generator: Adobe Illustrator 25.2.0, SVG Export Plug-In . SVG Version: 6.00 Build 0)  -->
<svg version="1.1" id="Calque_1" xmlns="http://www.w3.org/2000/svg" xmlns:xlink="http://www.w3.org/1999/xlink" x="0px" y="0px"
	 viewBox="0 0 1000 1000" style="enable-background:new 0 0 1000 1000;" xml:space="preserve">
<path d="M767,244c0-70.5-0.4-133,0.1-195.6C767.5,1.3,770,4.3,815.2,12c49,8.3,99.5,23.9,150,3.8c22.3-8.9,33.8,1.5,34.3,23.6
	c0.9,40,0.4,80.1,0.2,120.2c-0.1,22.8-16.1,31.6-34.3,39.1c-36.6,15.1-73.5,8.1-110.5,2.7c-33.8-4.9-50.1,7.3-47.7,43.6
	c7.1,109-0.3,218,0.2,327.1c0.1,20.8,6.9,37.8,17.3,55.9c58.6,102,116.3,204.5,116.5,327.5c0,14.8,4.5,33-15.3,35.3
	c-20.1,2.4-20.6-17.4-22.9-31.2c-3.8-22.3-8.3-45-8.2-67.5c0.2-41.5-17.9-38.8-46.9-24.4c-56.2,27.9-113.3,53.9-170.1,80.5
	c-9.7,4.5-19.4,8.9-29.5,12.5c-8.2,2.9-16.2,1.1-21-6.8c-6.3-10.2-1.3-18.8,6.9-24c16.6-10.5,34.2-19.4,52.1-29.4
	c-63.1-48.9-75.1-49.3-136.5-6.8c-7.7,5.3-15.4,10.6-23.4,15.5c-8.8,5.3-18,6.5-25.1-2.5c-7.3-9.2-3.9-18.8,4-24.7
	c27.7-20.8,56-40.9,84.6-60.5c9.6-6.6,20.5-4.1,30.7,0.4c11,4.9,23.6,7.8,32.5,15.2c73.7,60.4,139.4,18,206.1-14.7
	c14-6.9,15.1-16.8,8.6-29.6c-21.6-42.9-43.3-85.8-64.4-129c-9.4-19.3-23.9-22.6-43.1-18c-101.2,24.2-203.4,45.2-301,82.3
	c-52.9,20.1-84.3,67.3-133.6,108.5c33.7,5.1,58.2,12.3,70.3,37c5.9,12.1,11.9,26.3-2,36.2c-13.9,9.8-22.3-2-28.2-12.7
	c-10-18.1-26.3-20.8-44.4-20.7c-8,0-16.2,0.8-24-0.4c-96-15.1-175.2,10.3-230.7,94.4c-3.6,5.4-9.1,9.8-14.2,14
	c-8.6,7.2-18.3,13.2-28,2.6c-7.6-8.2-5.9-19.4,1.8-25.2c28-21.3,24.3-46.6,18.2-77.1c-5.8-28.8,10.9-57,18.3-85.3
	c7.4-28.3,18.9-55.6,20.6-85.4c1.6-27.4,4.3-53.1-34-59.8c-17.6-3.1-26-21.6-30.1-39.4C13.9,591.1,9,567.5,3,544.3
	c-6.5-25.2-2.7-47.9,14.8-67.3c36.1-40.1,55.8-95.2,109.4-119.4c11-5,5.3-16.6,6.3-25.3c6.5-57,49-92.7,100.2-84.1
	c48.9,8.2,79.1,55.8,64,109.4c-10.5,37.2,20.6,48.1,37.6,62c15.3,12.5,26.4-14.1,37-26.4c8.6-10,14-25.7,24.6-30.6
	c48.2-22.1,60.2-63.7,66.3-110.4c2.6-19.8,7.8-40.5,26.1-52.3c17.9-11.4,14.3-24.7,9.9-41.3c-13.1-49.6,14.5-95.2,60.8-103.2
	c50.4-8.7,92.1,23.4,96,76.6c1.4,19.2,5.1,30.9,24.9,39.4C712.9,185.3,728.9,220.4,767,244z M227.1,561.6
	c3.7-20.2,6.9-42.7,12.2-64.6c3.3-13.4,2.1-32.1,20.7-35.3c17.7-3.1,24.4,13.6,33.2,24.7c32.7,40.7,32.5,40.8,73.8,5.9
	c6.1-5.2,13.3-9.4,18.4-15.4c13.7-16.3,51.7-31.3,36-48.8c-21.9-24.3-38.3,13.8-54.5,27.1c-20.3,16.6-37.9,28.3-55.6,0.4
	c-21.9-34.2-50.7-48.2-91.4-41.6c-12.1,2-26.9-2.7-38.3-8.5c-35.3-18-61-9.5-81.1,23.5c-7.6,12.5-15.9,25.3-26.6,34.9
	C28.8,504.3,39,551.6,54.5,600c3.2,10.1,5.4,22.9,20,19.1c11.4-3,10.3-14.7,9-23.8c-2.7-18.4-7-36.6-9.9-55.1
	c-5.3-33.9,22.8-48.5,41-68.5c5.6-6.1,15.2-9.2,21.5-2.3c17.5,19.1,4.2,40.2,1.8,60.6c-0.6,5.3-1.7,10.5-2.6,15.8
	c-16.2,94.2-6.8,192-41,283.9c-6.6,17.7-27.4,47.7-5.6,55.3c18,6.3,27.9-28.6,35.4-49.9c22.4-63.4,30.9-129.4,37.4-195.8
	c1.2-12.7,0.2-29.1,16.9-32.8c16.7-3.7,21.6,11.8,29.3,22.3c35.7,48.7,53,100.6,30.3,160.3c-2.8,7.4-3.9,15.5-4.9,23.4
	c-1,8.2,0.1,16.8,9.2,20c12.4,4.3,17.6-5,19.5-14.2c11-55.2,35-109.4,0-166.1C245.6,625.9,228.8,597.3,227.1,561.6z M759.7,397.8
	c9.7-51.8,3.5-98-35.8-138.3c-36.6-37.5-69.5-76.5-129.4-46.1c-6.7,3.4-15.6,2.9-23.5,3.1c-56,1.2-61.3,6.8-75.3,61.1
	c-8,31-2.9,68.4-38.3,88.4c-6.5,3.7-20.9,7.4-13.2,19.8c7.1,11.4,18,12.9,31.3,6.1c26.6-13.6,37.7-35.9,42.3-63.8
	c1.9-11.7,6.4-24.9,21.7-24.6c15.3,0.4,17,13.7,20.7,25.4c15.8,50.1,7.1,98.1-13.7,144.1c-24,53.1-25.9,108-18.3,164.2
	c1.2,8.7-1.5,20.9,12.3,21c11.4,0.1,15.7-9.5,16.2-19.4c0.7-13.3,1.4-26.9-0.4-40c-7.2-53.4,17-98.9,35.8-145.7
	c4.5-11.1,11.4-23.1,26.5-18.6c12.3,3.7,13.3,15.6,13.2,26.5c-0.3,28-0.8,56.1-1.8,84.1c-0.8,23,3,45.2,10.2,66.9
	c3.7,10.9,8.7,20.9,22.4,16.6c12.2-3.8,9.1-14.5,7.2-23.7c-3-14.4-8.6-28.7-8.7-43c-0.9-92.9,13.5-186.5-13.2-278.3
	c-2.7-9.3,0.7-19,10.2-24.1c9.9-5.3,18.3-0.2,25.3,6.3c20.4,19.1,41,37.3,47.8,67.1C736.4,355.5,739.7,379.8,759.7,397.8z
	 M275,532.4c-13.8,21.7-10.6,42.3,0.9,63.7c31.9,59.6,58.8,120.4,33.8,190.3c-0.6,1.8,1.5,4.5,4,11.3c15.6-14.5,29.6-28.2,44.3-41.2
	c27.7-24.6,50.8-56.8,90-64.1c38.9-7.2,50.1-28.9,42.2-65.6c-10.7-49.7-5.2-97.9,14.2-145.1c9.4-22.9,15.4-47.3,25.5-79.2
	c-20.2,12.5-34,18.5-44.5,28C452,461,423.3,496,387.5,524.3C336.3,564.8,328.5,566.8,275,532.4z M959.7,104.8
	c5-27.8-2.3-48.5-43.8-40.4c-13.5,2.6-28.7-3.4-43.2-5.3c-60-7.8-65.8-1.6-65.6,59.3c0.1,27.1,6.4,42.9,37.5,42.2
	c18.3-0.4,36.7,5.7,55.2,7.1C951.6,171.8,959.6,163.9,959.7,104.8z M706.7,397.5c-3,40.8-5.5,80.7-9,120.5c-2.2,25.7,0,50.6,9,74.7
	c4.3,11.6,9.3,23.6,24.9,20.5c12.8-2.5,30.7-4.3,31.7-19.6c2.8-42.4,2.5-85.1,2.7-127.7c0.1-24.6-26.1-23.7-37.6-37
	C720,419.2,713.6,407.6,706.7,397.5z M215.3,375.7c30-0.2,47.8-15.6,48.8-42.9c0.9-26.7-15.1-46.5-43-47.7
	c-27.4-1.2-45.3,14.6-46.4,43.3C173.7,356.4,187.7,373.3,215.3,375.7z M580.1,176.3c22.4-3.7,40.5-16.5,38.6-43.8
	c-1.8-25.5-17.3-42.2-44.8-40.7c-27.9,1.6-39.6,19.9-38.6,46C536.2,163.8,551.8,175.6,580.1,176.3z"/>
</svg>
