<?xml version="1.0" encoding="utf-8"?>
<!-- Generator: Adobe Illustrator 25.2.0, SVG Export Plug-In . SVG Version: 6.00 Build 0)  -->
<svg version="1.1" id="Calque_1" xmlns="http://www.w3.org/2000/svg" xmlns:xlink="http://www.w3.org/1999/xlink" x="0px" y="0px"
	 viewBox="0 0 1000 1000" style="enable-background:new 0 0 1000 1000;" xml:space="preserve">
<path d="M132.9,80.5c-6.4-17.2-1.8-29.8,16.5-34.5c39.3-10.1,78.5-21.3,118.4-28.3c24.7-4.3,49.5,4.9,68,21.5
	c27.4,24.6,55.8,26.7,90,17.3c51.9-14.2,105.1-11.3,156.9,2.2c27.3,7.1,49.9,4.7,71.8-13.8C687,17.5,724.7,9.7,764.9,24.2
	c39,14.1,88.1,6.3,113.7,51.6c2.5,4.5,15.1,3.3,23.1,4.7c80.2,14.6,118.6,83.3,87.6,157.9c-5.3,12.7-13.9,23.8,0.6,35.9
	c2.9,2.4,4.7,6.8,5.6,10.6c10,43.1-44.2,159.7-86.5,177.8c-26.9,11.6-39,28.4-45.1,56c-15.1,67.9-50.4,125.5-99.1,174.4
	c-15.8,15.8-22.8,31.2-19.6,53.8c5,35.6-5.1,68.9-32.9,91.8c-34.1,28.1-47.9,85.6-108.3,77.3c-2.1-0.3-5,5.9-7.7,8.9
	c-82,89.9-166,75.3-209.2-36.5c0,0-0.2-0.3-0.2-0.3c0.6-28,7.1-54.4,21.7-78.6c3.4-6.2,6.7-12.5,10.1-18.7
	c38.6-21.7,78.1-38.3,123-18.6c18.1,8,35.3,27.7,52.5-3.9c9.9-18.3,34.4-29.7,30.5-54.5c-4.9-31.1,0.7-62.1-1.9-92.9
	c-2.1-25.3,6.9-42.7,31.6-49.3c27-7.2,48.3,1.3,60.3,27.5c8.8,19.2,16.2,39.1,25.4,61.8c28.5-25.6,47.1-53.5,61.9-83.8
	c10-20.5,29.8-45.4,19.1-63.3c-10.2-17-38.9-2.2-59.4,0.4c-5.3,0.7-11,0.7-16.1-0.5c-24.4-5.4-36-23.2-40.4-45.7
	c-4-20.3,7.9-32.6,25-41.6c22.6-12,43.8-26.8,67-37.2c23.9-10.7,40.6-24.7,46.4-51.5c3.6-16.7,8.4-35.5,32-35.8
	c18.5,46.1-1.2,89.1-53.5,117.1c-11.5,6.1-27,9.2-19,28.6c7.9,19.1,20.4,11.9,33.3,7.1c85.8-32,115.5-74.6,117.4-172.2
	c-25,13.4-50.6,21.2-78.1,19.4c-59.6-17.6-96.1-53.6-94.4-119.6c0.2-6.6,2.6-16.6-5.2-17.2c-30-2.3-60.6-24.2-89.9-1.6
	c-24.8,19.2-53.7,30.9-79.7,47.7c-20.3,13.1-38.3,12.8-54.5-5c-15.8-17.3-23-37.1-9.8-59.3c6.2-10.4,14.8-19.4,21-29.8
	c8.1-13.7,5.2-23.3-12.4-25.1c-35.1-3.6-70.3-3.6-105.4,0.2c-18,1.9-19.7,11.6-11.1,25.1c5.1,7.9,11.5,15,17,22.7
	c16.8,23.5,13.6,45.8-4.9,66.4c-18.1,20.2-36.7,15.4-58,3c-50.2-29.2-97.4-70.5-163.1-48.6c-2,0.7-5-1.8-7.5-2.8
	c-1.3-2.1-2.7-4.2-4-6.3c0.3-18.8,13.9-24.5,28.6-29c34.9-10.6,68.7-14.2,98.8,13.1c9.7,8.8,21.2,12.2,32.3,1.1
	c6.4-6.4,8-12.6,2.4-21.2c-21.5-33.6-93.4-62.9-135.9-54.4c-34.2,6.9-67,20.4-102.4,22.2C136.1,82.4,134.5,81.5,132.9,80.5z
	 M888.8,260.3c40.6,0.9,73.8-30.3,73.9-69.4c0.1-38.5-34.1-73.4-72-73.2c-37.6,0.1-69,31.2-70.4,69.5
	C818.6,230.1,846.1,259.4,888.8,260.3z M497.3,801.1c-38.9,0.8-69.5,34.4-68.3,75.1c1.1,39.2,31.1,67.7,70.7,67.3
	c40.1-0.4,72.3-32.9,71.6-72.1C570.5,832,537.1,800.3,497.3,801.1z M846.4,85.3c-128-39.3-143.4-37.6-210.6,19.2
	c-10.7,9.1-22.4,16.9-11.4,33c12.2,17.9,24.1,5.8,33.9-1.9c23.9-18.7,51-30.4,78.9-16.6c41.5,20.5,71.5,8.6,98.3-24
	C837.9,92,841.2,89.8,846.4,85.3z M613.7,882.2c62.9-47.6,113-101.1,87.5-189.6c-3.4-11.7-3.9-25.1-21.5-23.5
	c-17.5,1.5-18,13.4-15.8,26.4c5.4,31.9-1.7,62.3-27.6,80.3C593,805.6,599.2,842.1,613.7,882.2z M418.7,790.7
	c-3.4,6.2-6.7,12.5-10.1,18.7c-50.2-19.2-72.3-51.5-73-107.1c-0.2-13.3,2.8-28.1-15.6-32.5c-10.8-2.6-18.3-0.1-20.3,12.5
	c-8.9,56.4-20.6,112.8,34.9,155.3c19.1,14.7,35,33.4,52.4,50.3c0,0,0.2,0.3,0.2,0.3c1.4,32.2-13.8,39.4-35.6,18.1
	c-49.6-48.4-111.4-91.1-97.3-175.5c2.8-16.6-9.4-27.3-20.1-37.9c-51.3-50.9-85.8-111.2-101.6-181.7c-4.1-18.3-12.5-31.5-29.2-41.2
	C28.2,426.2-3.8,348.6,16.7,264.5c1.4-5.6-2.2-12.7-4.4-18.7c-37-99.9,11.5-166.5,120.7-165.3c1.6,1,3.2,1.9,4.7,2.8
	c35.1,11.8,58.5,36.9,76.2,68.2c1.3,2.1,2.7,4.2,4,6.3c4.2,58.7-11,107.5-68.9,134.4c-4.4,2.1-12.7,4.6-8,11.1
	c18.6,25.4,11.2,67,48.8,80.3c25.8,9.1,47.1,26,70.9,38.4c25.2,13.2,39.7,29.3,28.7,57.9c-10.7,27.7-31.7,38.8-61.6,33.2
	c-17.8-3.3-36-4.9-56.7-7.6c15.9,62.6,41.9,112.7,87.3,156.3c9-21.9,16.2-39.1,23.1-56.5c10.3-25.7,28.5-39.8,56.8-35.2
	c29.8,4.9,37,24.7,36.9,53.3C374.6,682.6,363.6,745.6,418.7,790.7z M108.8,260.3c40-0.4,72.3-33.1,71.3-72.2
	c-1-36.1-34.8-69.7-70.8-70.3c-39.1-0.7-71.1,31.7-71.5,72.4C37.3,232.8,65.5,260.6,108.8,260.3z M43.1,286.4
	c9.6,78,28,146.6,115.4,167.1c12.6,3,26.3,13.1,34.8-5.2c8.2-17.7-4.9-24.8-18-29.5c-31-11.1-51.8-34-54.4-64.8
	C116.8,305.8,86.3,293.1,43.1,286.4z"/>
</svg>
