<?xml version="1.0" encoding="utf-8"?>
<!-- Generator: Adobe Illustrator 25.2.0, SVG Export Plug-In . SVG Version: 6.00 Build 0)  -->
<svg version="1.1" id="Calque_1" xmlns="http://www.w3.org/2000/svg" xmlns:xlink="http://www.w3.org/1999/xlink" x="0px" y="0px"
	 viewBox="0 0 1000 1000" style="enable-background:new 0 0 1000 1000;" xml:space="preserve">
<path d="M901.1,253.5c0,42.7,0.2,85.4-0.1,128.1c-0.1,11.2,0.8,24.2-12.7,28.8c-11.2,3.8-20.6-3.8-24.9-12.4
	c-34-67.7-94.3-67.2-156.9-62.4c-17,1.3-34.2,1.3-51.2,0c-27.7-2.1-46.2,2.6-58.3,33.9c-12.8,33.2-45.8,43.6-81.4,43.4
	c-86.8-0.6-173.8,2.5-260.5-1.2c-47.1-2-82.5,8.4-107.9,49.6c-7.6,12.4-17.2,30.9-35.6,24.8c-19-6.3-12.6-26.5-12.8-41.3
	c-0.8-76.8-1.4-153.7-0.8-230.6c0.5-67.2,29.5-95.5,97-96.1c52.7-0.5,105.4-0.9,158,0.3c22,0.5,36.4-3.2,45.5-26.9
	C411.5,57.8,440,42,476.1,41.9c113.9-0.2,227.8-0.8,341.7,0.4c51.8,0.5,81.4,31.1,83,83.1C902.1,168.1,901.1,210.8,901.1,253.5z
	 M866.6,333.3c0-70.4,1.4-140.8-0.7-211.1c-0.8-27-18.5-44.3-47.7-44.3c-115.1-0.1-230.1-0.1-345.2,0.4c-8.1,0-16.8,3-24.1,6.8
	c-8.9,4.6-18,12.7-16.5,23c2,13.4,15.4,9.4,24.5,9.7c22.7,0.8,45.5,0.3,68.2,1.1c10.6,0.4,20.2,4.4,19.3,17.4
	c-0.7,10-8.9,14.6-17.7,15.1c-18.4,1.2-37.1,3-55.3,1.3c-36.2-3.5-45.6,12.6-45.6,46.9c0.2,101.2-1.1,101,101.1,100.6
	c24.8-0.1,50,3.1,48.7-34.3c-0.3-8.2,4.8-16.6,15.4-17.3c10.4-0.7,17.6,6.3,16.9,15c-3.3,40.4,23.5,37.1,49.8,36.6
	c32.7-0.6,65.3-0.4,98-0.1C794.5,300.5,836.6,290.5,866.6,333.3z M134.7,422.9c28.3-48.5,64.5-46.9,102-46.4
	c91,1.3,182,0.4,273.1,0.4c17.2,0,34.5,0.6,47.9-12.9c5.9-5.9,13.1-12.5,9.4-21.8c-3.2-8.2-12-5.9-18.6-5.9
	c-37-0.3-74.1-2-110.9,0.2c-34.4,2.1-49.8-9-47.3-45.5c2.4-35.4-0.3-71.1,0.6-106.6c0.5-21.6-8.3-31.6-29.8-31.4
	c-59.7,0.5-119.5,0.4-179.2,1.1c-26.5,0.3-45.8,14.6-46.6,40.4C133.3,266.2,134.7,338,134.7,422.9z M758,484.7
	c54.4,0.8,97.6,24.7,124.8,73.3c27.2,48.5,26.9,99.3-2.8,145.9c-16.3,25.5-20.2,37.4,14.5,43.3c55.1,9.3,82.1,46.6,92,98.7
	c4.5,23.7,8.5,47.5,11.7,71.4c1.9,13.7,6.2,31.8-13.3,34.9c-20.7,3.3-19.7-15.2-21.5-29.2c-2.2-16.9-4.4-33.8-7.2-50.7
	c-12.3-73.6-82.1-121.1-155.8-105c-28.4,6.2-56,6.8-84.3,0.6c-77-16.7-145.9,29.9-158.3,106.4c-3.4,21-6,42.2-9.3,63.3
	c-1.5,9.5-7,15.6-17.2,15c-10.1-0.6-16.5-7.7-15.7-16.8c5.1-55,6.3-111.4,43.3-157.6c15.2-18.9,37.3-25.8,59.6-30.4
	c29.4-6.1,36.3-14.3,16.7-43c-31.3-45.7-31.2-96.9-4.4-145.6C657.7,510.5,700.5,485.9,758,484.7z M866.4,622.7
	c-3.8-59.8-55.2-106.1-114.1-103.1c-62.1,3.2-106.7,54-103,117.4c3.4,60,53,103,115.2,99.7C824,733.7,870.2,682.1,866.4,622.7z
	 M137.8,734.1c-14.4-24.9-31.3-46.1-36.6-73.3c-12.9-67.2,17.1-131.4,76.3-161.3c55.8-28.1,125.5-16.2,169,28.9
	c46.3,48,56,119.4,18.1,176.5c-19.1,28.7-12.9,37.2,16.8,42.9c78.5,15.1,90.4,78.2,97.6,141.7c2.3,20.3,22.7,56.6-11.2,60.6
	c-28.8,3.4-19.4-35.4-22.4-55c-16-104.3-67.2-141.5-174.6-124.4c-16.6,2.7-35.6,5.5-50.7,0.2c-46.5-16.4-86.1,6.5-127.8,17.7
	c-23.4,6.3-33.9,26-39,47c-7.6,31.7-12.3,64-17.8,96.2c-2.1,12.6-6.7,23-21.2,20.7c-11.8-1.8-15.4-12.2-14-22.9
	C6,883,9.7,836.3,32.6,793.6C55,752.1,101.6,753.4,137.8,734.1z M242.9,737c61-0.2,107.6-46.7,107.9-107.7
	c0.3-60.6-46.9-109.2-106.8-110.1c-60.2-0.9-112.5,51.2-111.5,111.2C133.5,689.9,182.5,737.2,242.9,737z M599.2,135.7
	c-11-6.6-19.1,0.7-25.6,8.4c-19.2,22.9-38,46.1-56.5,69.7c-11.5,14.7-21.9,22.3-35.5,1.8c-6.9-10.4-16.2-24.3-30.6-14.1
	c-16.7,11.8-4.2,25.2,3.5,36.8c5.5,8.3,12.1,15.9,17.5,24.2c15.5,23.5,30.8,26.8,49.3,2.5c24.2-31.7,50-62.1,74.7-93.4
	c5.1-6.5,8.7-14.2,13.7-22.7C605.9,143.8,603.5,138.2,599.2,135.7z"/>
</svg>
