<?xml version="1.0" encoding="utf-8"?>
<!-- Generator: Adobe Illustrator 25.2.0, SVG Export Plug-In . SVG Version: 6.00 Build 0)  -->
<svg version="1.1" id="Calque_1" xmlns="http://www.w3.org/2000/svg" xmlns:xlink="http://www.w3.org/1999/xlink" x="0px" y="0px"
	 viewBox="0 0 1000 1000" style="enable-background:new 0 0 1000 1000;" xml:space="preserve">
<path d="M153.2,87.6c33.2,19,63.5,36.2,93.7,53.8c4.2,2.4,9.8,6.1,10.5,10c4.9,27.3,26.8,25.5,46.1,27.8c7.4,0.9,15.2,0.4,22.5-1
	c57.1-11.3,112,1.6,167.4,13c32.7,6.8,57.5,18.4,54.4,60.8c23.1-13,42.8-23.7,62.1-35.1c34.8-20.4,70.4-38.5,111.1-44
	c6-0.8,15.5-2,16.9-5.7c19.5-48,71.9-49.1,107.2-80.5c8.1,11.3,15.3,19.7,20.7,29c41,70.4,81.9,141,122.5,211.7
	c17.6,30.6,17.2,31.2-12.9,49c-19.4,11.5-38.9,23-58.6,33.9c-6.4,3.5-15.5,9.5-20.3,7.4c-22.9-10.1-31.5,7.6-42.1,20.1
	c-6.3,7.5-10.9,17-14.3,26.3c-20.7,57-60.2,101-101.2,143.3c-13,13.5-32.4,20.9-53.5,34c-0.6,11.5-0.7,29-2.5,46.2
	c-1.6,16.1-4.1,32.2-7.6,48.1c-4.4,20.1-23.3,40.4,2.3,59.2c0.2,35.1,1.1,70.2-0.4,105.2c-0.2,4.5-12.5,12.1-19.3,12.2
	c-90.3,0.9-180.7,0.6-271,1c-16.1,0.1-22.3-6.7-22-22.6c0.7-27.6,0-55.2,0.3-82.8c0.1-6.1-0.7-14.8,2.8-18
	c22.1-20.1,9.8-41.2-2-56.5c-44.5-57.9-70.2-123.8-89.7-193c-2.3-8.3-10.5-16.3-18.1-21.4c-16.6-11.2-35.6-19-51.6-30.9
	c-23.9-17.9-46.4-37.7-68.8-57.5c-9.8-8.7-14.8-21.5-33.6-13.3c-7.6,3.3-22.6-7.7-33-14.2C47.1,388,23.7,371.7,0,355.9
	c12.5-24.3,24.3-49,37.8-72.7c30.9-54.5,62.6-108.7,94.1-162.9C138,109.9,145.1,99.9,153.2,87.6z M313.1,517.5
	c-3.2,1.1-6.4,2.2-9.6,3.3c1,10.6,0.1,21.9,3.3,31.8C324,605,340.4,657.5,375.8,702c12.7,16,21.5,37,26.3,57.1
	c4.6,18.9,12.6,24.1,30.7,23.7c45.2-1,90.4-0.3,135.6-0.3c72.2,0,72.5,0,86.4-71c2.9-14.7,4.6-29.9,4.7-44.8
	c0.5-89.2,0.4-178.3,0.3-267.5c0-16.1,2.2-37.9-19.8-38c-22.7-0.1-19.3,21.9-19.4,37.8c-0.3,36.4,0.5,72.9-0.7,109.2
	c-0.2,7.1-6.6,19.4-11.2,20c-13.8,1.6-13.9-10.8-14.1-20.9c-0.2-7.5-0.1-15.1-0.1-22.6c0-44,0.9-87.9-0.4-131.8
	c-0.6-19.5,9.9-45.8-20.2-53.4c-15.8-4-21.6,10.7-21.6,51.2c0,50.2,0.1,100.5-0.1,150.7c0,10.9,2.5,26.3-12.4,27.2
	c-15.8,0.9-13.4-14.5-13.8-25.4c-0.3-7.5-0.1-15.1-0.1-22.6c0-56.5,0.2-113-0.1-169.5c-0.1-27.4-8-40.8-22.6-41.1
	c-14.9-0.3-23.4,13.4-23.6,40.3c-0.4,55.3-0.1,110.5-0.1,165.8c0,8.8,0.4,17.6-0.1,26.4c-0.6,10.6,3.3,25.1-12.8,25.7
	c-3.3,0.1-8.4-15.3-10.6-24c-1.8-7.1-0.4-15-0.4-22.5c0-52.7,0.2-105.5-0.2-158.2c-0.2-27.8-7.5-39.7-23.1-40.8
	c-16.4-1.2-23.2,9.9-24,38.7c-0.2,7.5,0,15.1,0,22.6c0,79.1,0.1,158.2,0,237.3c0,10,0.1,20.2-1.4,30c-0.6,4.2-5.1,11-8,11.1
	c-5.3,0.2-13.2-2.1-15.7-6.1c-9.2-14.9-16.3-31.1-24.8-46.5C346.9,548.9,334.4,529.1,313.1,517.5z M382.2,550.6
	c0-19.7,0-31.6,0-43.6c0-62.7,0.2-125.4-0.1-188.1c-0.1-19.9-1.4-39.8-2.3-64.5c45-1.7,95.5,8.3,146.8-20.2
	c-13-7.2-21.4-14.6-31-16.6c-53.9-11.6-107.7-22.3-163.7-16.3c-22.9,2.5-47-2.1-70.1-6c-12.9-2.2-20.9-1.6-27.9,10.6
	c-33.9,59.7-68.4,119-101,175.6c32.7,55.9,83.2,84.1,133.6,112.5c10.1,5.7,18.6,8.9,31.1,2.3c17.7-9.4,34.2-1.4,47.3,12.2
	C355.8,519.8,365.9,532,382.2,550.6z M684.3,522.9c10.8-12.3,14.4-19,20.1-22.1c5.4-3,12.8-2.2,19.3-3c0.1,5.8,2.2,12.5,0,17.1
	c-8.8,17.9-20.5,34.6-28.2,53c-4.7,11-4.1,24.3-6.6,41.5c11.7-4.9,17.7-5.6,20.4-8.9c30.2-36.6,62.9-71.6,88.8-111.1
	c23.1-35.1,33.4-78.5,72.9-102.4c-35.9-62.2-70-120.7-103.5-179.5c-6.6-11.7-14.6-14-27.7-12.5c-61.6,7.3-111.5,39-166.9,74.9
	c36.7,9.6,47.8,33.4,49.5,63c4.9,0.9,8.4,1.9,12,2.2c36.1,3.8,46.9,14.1,49.5,48.2c0.9,12.5,0.5,25.1,0.5,37.7
	C684.4,451.9,684.3,482.8,684.3,522.9z M652.2,807.3c-90.1,2.5-175.7-3.3-260.7,3c0,27.7,0,51,0,75.2c88.1,0,173.7,0,260.7,0
	C652.2,859.2,652.2,835.7,652.2,807.3z M770.2,161.1c44.9,77.7,87.9,152,132,228.3c24.3-14.4,45.5-26.9,68.7-40.6
	c-44.3-76.6-87.2-150.9-131.5-227.4C814.6,135.6,793.4,147.7,770.2,161.1z M161.1,121.1c-44.9,77.7-87.6,151.7-131.8,228.3
	c25,14.2,46.3,26.2,69.5,39.3c44.5-77.1,87.3-151.4,131.2-227.4C206.6,147.7,186.4,135.9,161.1,121.1z"/>
</svg>
