<?xml version="1.0" encoding="utf-8"?>
<!-- Generator: Adobe Illustrator 25.2.0, SVG Export Plug-In . SVG Version: 6.00 Build 0)  -->
<svg version="1.1" id="Calque_1" xmlns="http://www.w3.org/2000/svg" xmlns:xlink="http://www.w3.org/1999/xlink" x="0px" y="0px"
	 viewBox="0 0 1000 1000" style="enable-background:new 0 0 1000 1000;" xml:space="preserve">
<path d="M999.7,500.4c0,112.1-0.1,224.1,0.1,336.2c0.1,25.1-10.9,43.8-32.6,54.5c-69.1,34-138.4,67.4-208.1,100.1
	c-25.4,11.9-49.9,8.4-71.3-11.2c-38.9-35.6-78-71-117-106.5c-53.7-48.8-107.5-97.6-161.2-146.5c-35.8-32.6-71.6-65.2-107-98.2
	c-6.4-5.9-10.4-6.1-17.2-0.9c-51.7,39.5-103.6,78.7-155.5,118c-25.6,19.4-44.9,18-68.4-4c-15-14.1-30-28.2-45.8-41.4
	c-21.9-18.3-18.4-54.1,2.7-71.1c28.9-23.4,55.4-49.7,82.9-74.7c17.1-15.6,34-31.4,51.3-46.7c6.4-5.7,6.6-9.8,0.1-15.7
	c-37.3-33.6-74.3-67.5-111.4-101.3c-9.3-8.5-19.1-16.6-28-25.6c-17.7-17.9-17.8-45.6,0.4-63.2c17.6-17.1,35.8-33.6,54.4-49.7
	c19-16.4,38.7-16,60.1,0.2c51.9,39.2,103.8,78.4,155.4,118.1c8.2,6.3,12.8,6.2,20.6-1C357.8,320,412,271.2,465.9,222
	c36-32.9,71.9-65.9,107.9-98.8C612,88.4,650.1,53.6,688.5,19c22.6-20.4,48.2-21.2,74.7-9.1c21.4,9.7,42.4,20.3,63.5,30.5
	c44.9,21.7,89.8,43.4,134.7,65.1c26,12.5,38.7,32.3,38.5,62C999.4,278.4,999.7,389.4,999.7,500.4z M454.1,499.9
	c97.9,74.3,194,147.3,292.3,221.9c0-148.9,0-294.8,0-443.8C648.2,352.6,552,425.5,454.1,499.9z"/>
</svg>
