<svg xmlns="http://www.w3.org/2000/svg" viewBox="0 0 236.43 236.43"><g id="Calque_2" data-name="Calque 2"><g id="Calque_1-2" data-name="Calque 1"><path id="Calque_2-2" data-name="Calque 2" d="M181.12,0H55.31A55.34,55.34,0,0,0,0,55.31V181.12a55.34,55.34,0,0,0,55.31,55.31H181.12a55.34,55.34,0,0,0,55.31-55.31V55.31A55.51,55.51,0,0,0,181.12,0Zm39.61,181.37a40,40,0,0,1-39.86,39.86H55.06a40,40,0,0,1-39.87-39.86V55.56A40,40,0,0,1,55.06,15.69H180.87a40,40,0,0,1,39.86,39.87Zm-34.59-63h0a9.85,9.85,0,0,1-9.86,9.86H60a9.85,9.85,0,0,1-9.86-9.86h0A9.87,9.87,0,0,1,60,108.46h116.3a9.87,9.87,0,0,1,9.87,9.87Z"/></g></g></svg>