<svg xmlns="http://www.w3.org/2000/svg" viewBox="0 0 236.43 236.43"><g id="Calque_2" data-name="Calque 2"><g id="Calque_1-2" data-name="Calque 1"><path id="Calque_2-2" data-name="Calque 2" d="M166.17,70.26a9.77,9.77,0,0,0-13.7,0l-34.38,34.38L83.71,70.26A9.71,9.71,0,0,0,70,84l34.38,34.38L70,152.72a9.79,9.79,0,0,0,0,13.7,9.56,9.56,0,0,0,7,2.74,10.72,10.72,0,0,0,7-2.74L118.34,132l34.38,34.38a9.56,9.56,0,0,0,7,2.74,10.72,10.72,0,0,0,7-2.74,9.79,9.79,0,0,0,0-13.7L132.34,118.3,166.67,84a10.29,10.29,0,0,0-.5-13.7ZM181.12,0H55.31A55.34,55.34,0,0,0,0,55.31V181.12a55.34,55.34,0,0,0,55.31,55.31H181.12a55.34,55.34,0,0,0,55.31-55.31V55.31A55.51,55.51,0,0,0,181.12,0Zm39.61,181.37a40,40,0,0,1-39.86,39.86H55.06a40,40,0,0,1-39.87-39.86V55.56A40,40,0,0,1,55.06,15.69H180.87a40,40,0,0,1,39.86,39.87Z"/></g></g></svg>