<svg xmlns="http://www.w3.org/2000/svg" viewBox="0 0 236.43 236.43"><g id="Calque_2" data-name="Calque 2"><g id="Calque_1-2" data-name="Calque 1"><path id="Calque_2-2" data-name="Calque 2" d="M181.12,0H55.31A55.34,55.34,0,0,0,0,55.31V181.12a55.34,55.34,0,0,0,55.31,55.31H181.12a55.34,55.34,0,0,0,55.31-55.31V55.31A55.51,55.51,0,0,0,181.12,0Zm39.61,181.37a40,40,0,0,1-39.86,39.86H55.06a40,40,0,0,1-39.87-39.86V55.56A40,40,0,0,1,55.06,15.69H180.87a40,40,0,0,1,39.86,39.87ZM43,202.44a9,9,0,0,1-8.89-9.11h0v-54.7A8.9,8.9,0,0,1,51.9,138q0,.3,0,.6v32.69l40.19-41.2a8.73,8.73,0,0,1,12.34-.23c.08.08.16.15.23.23a9.27,9.27,0,0,1,0,12.9L64.49,184.2H96.38a9.12,9.12,0,0,1,0,18.23Zm88.28-96.26a9.28,9.28,0,0,1,0-12.89l40.18-41.2H139.6a9.12,9.12,0,0,1,0-18.24H193A9,9,0,0,1,201.84,43V97.68a8.89,8.89,0,0,1-17.78,0h0V65l-40.19,41.2a8.73,8.73,0,0,1-12.34.23c-.08-.08-.16-.15-.23-.23Z"/></g></g></svg>