<?xml version="1.0" encoding="utf-8"?>
<!-- Generator: Adobe Illustrator 25.2.0, SVG Export Plug-In . SVG Version: 6.00 Build 0)  -->
<svg version="1.1" id="Calque_1" xmlns="http://www.w3.org/2000/svg" xmlns:xlink="http://www.w3.org/1999/xlink" x="0px" y="0px"
	 viewBox="0 0 1000 1000" style="enable-background:new 0 0 1000 1000;" xml:space="preserve">
<path d="M0.3,362.8c0-17.9-0.9-37.1,0.2-56.2c4.6-85.3,76-162.4,160.9-174c11.1-1.5,22.3-2.2,33.5-2.3c27.6-0.3,55.2-0.1,82.9-0.1
	c10.8,0,11-0.1,13.1-10.7c5.6-28.2,18.3-52.9,38-73.6c26.8-28.1,59.6-44.7,98.7-45.5c48-0.9,96.1-1.6,144.1,0.1
	C639,3,695.1,52.5,708.3,118.3c2.4,11.9,2.4,11.9,14.4,11.9c27.6,0,55.3,0.4,82.9-0.1c94-1.7,178.4,67.2,192.9,166.5
	c1.4,9.5,1.7,19.2,1.4,28.7c-0.8,33.2-2.4,66.4-3.1,99.6c-0.2,9.6-3.5,16.6-11.3,22.4c-95.8,71.4-201.7,120-319,143.3
	c-15,3-18.8,1.2-27-11.3c-37.5-57.1-90.9-83.3-158.4-76.7c-51.4,5-91.6,31.2-120.7,74.1c-10.6,15.6-12.6,16.4-30.5,12.8
	C218.4,567,116.8,522,24.9,455.1C2.5,438.8,3.3,444,2.7,413.3C2.4,396.9,1.2,380.6,0.3,362.8z M633.9,129.5c-1.9-5.2-3-9.4-5-13.1
	c-14.2-26.9-36.8-40.5-67-40.7c-41.6-0.4-83.2-0.2-124.8,0c-15.1,0.1-29.3,3.7-41.9,12.4c-14.6,10-24.7,23.2-29.7,41.5
	C455.4,129.5,543.9,129.5,633.9,129.5z M499.7,1000.5c-97.7,0-195.3-0.3-293,0.1c-43.7,0.2-84.1-9.9-119.4-36.3
	C37.1,926.8,9.8,876.2,8.1,813.6c-2.2-86-2.4-172.1-3.4-258.1c0-2-0.2-4,0.1-6c1.1-8.9,6.1-11.5,14.3-7.3c2.1,1.1,4,2.6,6,3.9
	c96.9,63,203,102.5,316.5,122.7c10.2,1.8,20.5,3.9,30.8,4.5c16.8,0.9,30.1-8.4,36.3-24.1c1.2-3,1.9-6.1,3-9.1
	c13-38.3,47-62.7,87.4-62.8c41.4-0.1,75.4,23.9,88.8,62.6c2.1,6,4,12.3,7.5,17.5c9.2,13.8,22.9,18.2,38.8,15.7
	c119.9-18.9,232.5-57.7,335.1-123.5c4.4-2.8,8.6-6,13.3-8.2c6.4-2.9,10.9-0.2,12.1,6.7c0.4,2.3,0.3,4.8,0.2,7.2
	c-1.1,84.4-1.5,168.9-3.6,253.3c-1.9,75.2-35.9,132.3-101.6,169.6c-29.6,16.8-62,22.4-95.8,22.3
	C695.8,1000.3,597.8,1000.5,499.7,1000.5z M536.9,721.1C536.9,721.1,536.9,721.1,536.9,721.1c0-10.8,0.3-21.6,0-32.4
	c-0.6-22.2-15.7-38.1-36.1-38.5c-21.2-0.4-37.7,15.1-38.4,37.6c-0.7,22-0.7,44,0,65.9c0.7,21.7,17.1,37.4,37.5,37.3
	c20.8-0.1,36.2-15.6,37-37.6C537.2,742.7,536.9,731.9,536.9,721.1z"/>
</svg>
