<svg xmlns="http://www.w3.org/2000/svg" viewBox="0 0 500 500" style="enable-background:new 0 0 500 500" xml:space="preserve"><path d="M251.6 329.3c1.8-2.4 3.4-5.1 5.5-7.2 66.1-66.2 132.3-132.4 198.4-198.6 4.7-4.7 9.4-9.1 16.4-10 10.2-1.4 18.4 1.9 24.2 10.5 5.5 8.1 5.1 18.9-.7 27-1.8 2.4-3.9 4.6-6 6.7-72.9 73-145.8 145.9-218.9 218.8-4 4-9 7.5-14.2 9.4-7.8 2.8-15.4.7-21.9-4.7-1.5-1.3-3-2.7-4.4-4.2C156.4 303.5 83 230 9.4 156.6 3.9 151-.2 145 0 136.8c.2-9.8 4.6-17 13.3-21.2 8.6-4.2 17.2-3.4 25 2.3 2.4 1.8 4.5 4 6.6 6.2 66.2 66.2 132.4 132.3 198.5 198.5 1.9 1.9 3.4 4.4 5 6.6 1.1 0 2.1.1 3.2.1z"/></svg>