<svg xmlns="http://www.w3.org/2000/svg" viewBox="0 0 500 500" style="enable-background:new 0 0 500 500" xml:space="preserve"><path d="M248.6 170.6c-1.8 2.4-3.4 5.1-5.5 7.2C177 244 110.8 310.2 44.7 376.4c-4.7 4.7-9.4 9.1-16.4 10-10.2 1.4-18.4-1.9-24.2-10.5-5.5-8.1-5.1-18.9.7-27 1.8-2.4 3.9-4.6 6-6.7 72.9-73 145.8-145.9 218.9-218.8 4-4 9-7.5 14.2-9.4 7.8-2.8 15.4-.7 21.9 4.7 1.5 1.3 3 2.7 4.4 4.2 73.6 73.5 147 147 220.6 220.4 5.5 5.6 9.6 11.6 9.4 19.8-.2 9.8-4.6 17-13.3 21.2-8.6 4.2-17.2 3.4-25-2.3-2.4-1.8-4.5-4-6.6-6.2-66.2-66.2-132.4-132.3-198.5-198.5-1.9-1.9-3.4-4.4-5-6.6-1.1 0-2.1-.1-3.2-.1z"/></svg>