<svg xmlns="http://www.w3.org/2000/svg" viewBox="0 0 1000 1000" style="enable-background:new 0 0 1000 1000" xml:space="preserve"><path d="M500.6 754.7c-94.3 5.2-182.2-18.4-265.9-60.4-65.8-33-122.5-77.9-171.5-132.4-20.3-22.6-37.7-47.8-55.8-72.4-10.4-14.1-9.4-29.1 0-43.8 29.4-46.2 66.3-85.6 106.7-122.4 34.7-31.6 73.5-56.9 114.8-78.5 63.7-33.4 131.1-56.4 203.1-62.3 65.1-5.3 130.1-5.6 194.5 8.9 64.6 14.6 124.7 39.5 181.1 73.9 67.6 41.2 123.2 95.2 170.4 158.3 3.7 4.9 6.7 10.2 10.1 15.3 15.5 23 16.1 35.2.7 57.7C929.6 583 854.1 650.3 760 696.9c-62.2 30.8-127.4 50.6-196.3 57.5-20.8 2.1-42 .3-63.1.3zm8.5-66.3c14.4-1.2 38.2-2.3 61.6-5.3 84.1-11 160.7-41 229.7-90.5 44.5-31.9 83.1-69.6 116.1-113.3 6-8 6.2-14-.1-22.3-31.9-42.4-69-79.3-112-110.4-44-31.9-91.2-57.9-143.4-73.7-73.2-22.2-147.9-31-224.3-21-64.9 8.5-126.8 26.1-184.2 58.4-65.9 37.1-122.9 84.4-168 145.6-5.7 7.7-7.7 13.7-1.2 22.5 49.9 67.8 113.3 119.5 188.1 157.2 71.7 35.9 148.5 51.2 237.7 52.8zm176-221.8c1.7 102.8-86 187.2-184.1 186.6-103.1-.6-186.8-82.3-186.2-184.8.6-105.9 85.3-185.6 187.5-186 92.8-.4 184.3 83.3 182.8 184.2zM500.9 581.9c63.5 0 114-45.4 113.9-113.8-.1-68.4-49.5-114.2-114.6-114.3-65.6-.1-114.7 49-114.6 114.5.1 65.2 49.2 113.7 115.3 113.6zM435 503.6c17.9 2 35.5-12.1 39.1-31.2 5.5-29.5 8.6-32.6 37.5-37.3 18-2.9 32.1-19.3 31-36-1.2-19.5-15.6-32.9-35.5-33.3-53.8-1.1-102.3 45.8-103.3 99.9-.3 19.3 13.3 35.9 31.2 37.9z"/></svg>