<svg xmlns="http://www.w3.org/2000/svg" viewBox="0 0 1000 1000" style="enable-background:new 0 0 1000 1000" xml:space="preserve"><path d="M636.3 153.3c-.8 3.1-1.7 7-2.8 10.8L437.9 841.2c-2 6.9-3.7 13.8-6.2 20.5-4.2 11.3-11.7 15-23.4 12-8.5-2.1-16.9-4.5-25.3-6.9-17.8-5-21.9-12.2-16.9-29.7 18.2-62.9 36.4-125.8 54.5-188.7C469 481 517.3 313.7 565.8 146.3c1.2-4.2 2.5-8.4 4.5-12.2 4.1-7.4 10.8-10.4 19-8.4 11.2 2.7 22.3 5.6 33.3 9.1 8.8 2.9 14 10.3 13.7 18.5zM106 492l154.3-154.3c16.9-16.9 33.8-33.6 50.5-50.7 8.3-8.5 9.7-17 3.2-24.4-9.7-11-20.2-21.4-31.2-31.1-6.7-6-13.3-5.2-20.7.2-2.9 2.1-5.4 4.7-7.9 7.2-63 62.9-126 125.9-188.9 188.8-19.1 19.2-38.4 38.2-57.3 57.5-10.8 11-10.6 18.5-.1 29.8 1.6 1.7 3.4 3.4 5 5.1L169.8 677c28.9 29 57.8 58 86.9 86.8 11.8 11.7 19.8 11.8 31.6.5 5.8-5.5 11.3-11.2 16.9-16.8 17.2-17.3 17.2-22.7-.2-40.2l-.8-.8C248.8 651.1 193.5 595.7 138 540.4c-13.2-13.2-26.8-25.9-40.5-39.2 3.7-4 6-6.7 8.5-9.2zm787.8 16.6c-33.4 33.5-66.9 66.9-100.4 100.3-34.3 34.3-68.7 68.5-102.8 103-11.2 11.3-11.3 19.5-.5 30.8 8 8.3 16 16.6 24.6 24.3 8.8 7.9 16.5 7.5 25.5-.1 1.5-1.3 2.9-2.8 4.3-4.2 71.1-71.1 142.3-142.2 213.4-213.3 11.8-11.8 23.8-23.4 35.3-35.6 9.2-9.7 9-17.3.2-27.2-1.8-2.1-3.9-4-5.8-6L797.9 290.9c-18.3-18.3-36.5-36.6-54.8-54.8-10.2-10.1-18.1-11.6-27.1-3.7-10.4 9.2-20.1 19.2-29.4 29.6-6 6.6-5.5 14.8-.1 21.8 2.2 2.8 4.8 5.3 7.3 7.8 44.4 44.4 88.8 88.9 133.3 133.2 24.8 24.7 49.6 49.2 75.3 74.7-3.7 3.9-6.1 6.6-8.6 9.1z"/></svg>