<svg xmlns="http://www.w3.org/2000/svg" viewBox="0 0 1000 1000" style="enable-background:new 0 0 1000 1000" xml:space="preserve"><path d="M.1 657c0-69.7-.2-139.4.1-209.2.2-58.4 37.4-109.5 92.8-126.5 14.2-4.4 29.5-6.5 44.4-6.7 51.8-.8 103.6-.2 155.5-.4 24.8-.1 21.2 3.4 21.3-22 .2-52.3-.5-104.6.2-156.9.7-50.9 23-90.4 66.8-117C401.3 6.2 423.6.3 447 .3 586.9.1 726.8-.1 866.7.3c73.1.2 132.4 58.9 132.7 132 .7 140.4.7 280.8 0 421.2-.4 73.6-59.6 131.3-134.2 132.1-53.2.6-106.5.1-159.7.1-3.3 0-6.6.2-9.9 0-6.9-.5-10.9 1.6-10.1 9.4.3 3.3 0 6.6 0 9.9 0 53.2.7 106.5-.2 159.7-.9 53.3-24.8 93.7-71.8 119.6-18.9 10.4-39.5 15.4-61 15.4-139.9.2-279.8.5-419.7-.1C59.1 999.3.9 940 .1 866.1V657zm655.6-28.7c69.7 0 139.4-.4 209.1.2 37.6.3 67.2-25.3 74.6-55.4 2.6-10.4 3.1-21.4 3.1-32.1.2-82.9.1-165.8.1-248.7V141.1c0-17.2-2.3-33.8-12.1-48.5-16.9-25.5-41.2-35.6-71.1-35.5-68.3.3-136.6.1-204.9.1-67.3 0-134.7.6-202-.2-51.1-.6-81.9 39.3-81.5 81.6 1.2 136.1.4 272.2.5 408.3 0 8.4.7 17 2.5 25.1 5.9 27.1 34.1 56.8 75.3 56.4 68.9-.6 137.7-.1 206.4-.1zM57.1 655.5c0 66.9-.1 133.8.1 200.7 0 10.3.4 20.9 3.1 30.8 9.3 34.7 38 55.6 77.3 55.7 136.6.3 273.3.2 409.9 0 8.4 0 17-.8 25.1-2.9 33-8.7 55.9-39.8 55.6-73.1-.4-55.1-.1-110.2-.1-165.4 0-15.5-.1-15.5-15.2-15.5H451.8c-27.9 0-54.2-6.5-77.5-22.3-40-27.2-59.7-65.7-60.2-113.6-.6-55.1-.1-110.2-.2-165.4 0-6.5 1.5-13.1-9.4-13-58.9.5-117.8-.2-176.7.9-33.1.6-61.5 25.3-68.6 57.3-2 9.1-2.2 18.7-2.2 28.1 0 65.8.1 131.7.1 197.7z"/></svg>