<svg xmlns="http://www.w3.org/2000/svg" viewBox="0 0 418.05 497.59"><g data-name="Calque 2"><path d="M417.78 248.73c0 54-.5 108.1.26 162.13.28 19.56-7.84 33.42-22.51 44.63-16.82 12.84-36.26 20.17-56.31 25.92-31 8.9-62.66 13.39-94.8 15.13-54.75 2.95-109 .12-162.19-14.2-20.64-5.56-40.55-13-58-25.72C8.67 445.35-.09 431.07 0 410.75Q.71 248.38.05 86C0 67.41 7.65 53.77 21.68 42.85c17-13.22 36.71-20.69 57.08-26.58 31.6-9.14 64-13.86 96.79-15.18C194.3.34 213.13-.46 231.86.31c42.64 1.76 84.82 7 125.22 21.77C375.29 28.75 392.69 37 406 51.83c7.5 8.33 11.83 17.77 11.8 29.28-.1 55.89-.02 111.75-.02 167.62Zm-33.56-8.9c-10.43 4.4-19.87 9-29.7 12.45-43.77 15.48-89.35 20-135.34 21.36a503.21 503.21 0 0 1-85.5-5c-28.85-4.12-57.33-10-84.21-21.89-5.08-2.25-10.06-4.71-15.92-7.47v6.41c0 17.46.45 34.94-.19 52.38-.34 9.25 3.3 15.83 10.74 19.78 11.84 6.28 23.83 12.71 36.47 16.95 37.85 12.69 77.28 16.61 116.92 17.32 22 .39 44.16-1.12 66.17-2.78a310.65 310.65 0 0 0 75.16-14.75c14.07-4.7 27.88-10 39.43-19.78 4.12-3.49 6.42-7.62 6.34-13.37-.25-18.79-.09-37.59-.11-56.38 0-1.65-.16-3.26-.26-5.23ZM34.05 351.26a25.92 25.92 0 0 0-.47 3.13c0 20.11-.3 40.24.24 60.34.1 3.79 2.48 8.81 5.47 11 8 5.82 16.43 11.45 25.48 15.29 33.76 14.35 69.64 19.67 105.89 21.86 22.33 1.35 44.81.79 67.21.29A356.69 356.69 0 0 0 334.56 448c15-4.58 29.62-10 42.21-19.78 5.14-4 8-8.81 7.84-15.73-.33-18.45-.11-36.91-.13-55.36 0-1.73-.17-3.46-.28-5.66-6.2 3-11.58 5.87-17.22 8.18-44.18 18.1-90.76 24-137.92 25.65-22 .78-44.16-.62-66.22-1.67-24.28-1.17-48.17-5.37-71.8-11-19.62-4.78-38.56-11.33-56.99-21.37Zm-.19-224.16c-.14 2.87-.3 4.79-.3 6.7 0 17.63.35 35.27-.17 52.88-.24 8.12 2.9 13.62 9.09 18.15 13.11 9.58 28.08 15 43.38 19.7 30.56 9.31 62.07 13.46 93.8 14.78 30.53 1.27 61.14 1.11 91.6-2.7 25.14-3.14 50.08-7.34 73.78-16.44C356 216 366.19 209.91 376.37 204c5.94-3.42 8.45-9.06 8.27-16.41-.44-17.95-.13-35.91-.16-53.87 0-1.91-.2-3.81-.33-6.14a17.64 17.64 0 0 0-3 .88c-15.78 8.9-32.82 14.53-50.26 18.92-43.77 11-88.3 14.83-133.37 13.83a538.93 538.93 0 0 1-72.91-6.16c-27.67-4.4-54.83-10.68-80.3-22.83-3.19-1.5-6.38-3.11-10.45-5.12Zm175-.18c10.13 0 20.26.23 30.38 0a366.63 366.63 0 0 0 85.15-12.24c18-4.81 35.79-10.49 51-21.83 12-8.9 12.19-16.24-.32-24.32a153.34 153.34 0 0 0-29.2-14.84c-39.75-14.81-81.42-18.84-123.4-20.19A501.66 501.66 0 0 0 143 37.36c-25.65 3.28-51 7.85-75 17.94a136.8 136.8 0 0 0-27.24 15.18c-9.88 7.18-9.1 14.23.77 21.55.66.5 1.36 1 2 1.43 19 13.05 40.77 19.26 62.88 24.29 33.74 7.68 68 10.11 102.48 9.17Zm144.38 178.75a17 17 0 0 0 16.58-17.09 16.62 16.62 0 0 0-33.23.07c-.03 9.26 7.58 17.05 16.65 17.02Zm.13 111.89a16.63 16.63 0 1 0-16.78-16.7 16.5 16.5 0 0 0 16.78 16.7ZM353.14 160a16.76 16.76 0 0 0-16.55 17 16.62 16.62 0 0 0 33.23-.13A16.78 16.78 0 0 0 353.14 160Z" data-name="Calque 1"/></g></svg>