<svg xmlns="http://www.w3.org/2000/svg" viewBox="0 0 1000 1000" style="enable-background:new 0 0 1000 1000" xml:space="preserve"><path d="M614.2 811.8c1.2-41.9 7.8-83.8 21.4-124.6 3.7-11.1 1.9-14-9.3-18-8.6-3.1-16.3-7.7-21.2-15.3-6.1-9.3-13-9.4-22.2-2.6-34.7 25.7-66.1 54.6-92.1 89.4-14.6 19.5-31.8 37.2-48.1 55.5-10.1 11.4-21.2 22-31.1 33.7-28.3 33.6-63 60.4-94.9 90-16.9 15.7-36.1 28.6-59.7 33.2-18.7 3.6-37.4 3-56.1.5-11.2-1.5-22.4-3.9-33.6-5-14.5-1.4-27.4-6.8-39.9-13.7-31.8-17.4-59.9-39.1-82.7-67.6-14.5-18.1-23.4-38.7-29.6-60.8-4.4-15.7-9.3-31.3-13.8-47-.7-2.4-1.2-4.9-1.1-7.3.7-32.4 3.5-64.6 15-95.3 3.7-9.8 8.6-19.8 15.2-27.9 19.4-23.6 40-46.2 68.2-59.9 5.7-2.8 11.2-6.2 16.2-10.2 70.6-56.7 145.1-108.2 219.9-159 29.5-20 56.6-42.7 81.8-67.9 28.3-28.4 57.4-56.1 86.2-84 33.2-32.3 63-67.3 86.6-107.5 14.7-25.1 32-48.5 44.2-75.2 7.5-16.3 21.2-25.4 40.3-23.6 14.5 1.3 29.1 1.4 43.4 3.6 33.2 5.1 62.8 19.8 90.1 38.6 14.8 10.2 27.8 23 41.1 35.2 8.8 8.1 9.1 8.7 17.6-.1 13.1-13.5 26-27.2 39.1-40.7 17.8-18.2 37.7-15.8 50.8 6.3 11.4 19.2 16.4 40.8 22.5 61.8 10.2 35.6 16.3 71.8 18.3 109 1 17.6 2.2 35.3 3.4 52.9 1 14.4-3.9 26.4-10.8 38.1-1.2 2-3.4 3.6-5.4 4.9-8 5.1-15.8 10.6-24.2 15-12.2 6.3-24.3 13.3-37.3 17.4-31.1 9.9-59.7 24.2-85.4 44.3-27.9 21.9-55.7 44.1-83.4 66.2-10.1 8-10.4 9.6-2.8 19.9 12.7 17.1 18.3 35.8 15.3 57-1.3 9.1-1.7 18.4-3.4 27.5-2.8 15.4-.1 28.8 8.4 42.5 23.5 37.7 52.1 70.9 85.5 100.1 9.1 7.9 19 14.8 28.5 22.3 4.1 3.3 8.7 6.4 11.8 10.6 8.5 11.3 3.3 25.3-10.6 27.5-15 2.3-30.3 3.5-45.5 4.4-11.9.7-13.4 2.2-10.9 14.1 4.6 21.6-5.4 32.4-27.6 30-1.9-.2-5.3-.1-5.7.9-.8 1.9-.7 4.8.2 6.8 1.6 3.5 4 6.7 6.1 10 6.9 10.8 5.9 21.6-.6 32.1-6.7 10.8-18.1 14.3-29.5 8.7-10.2-5-19.8-11-29.7-16.6-17.4-9.7-20.2-8.1-20.6 12-.3 11.7-.3 23.5-.7 35.2-.5 11.4-4.4 16.4-15.5 18.1-7.6 1.2-15.5 1-23.3.9-2.2 0-5-1.3-6.5-3-12.7-13.9-26.4-27-37.3-42.2-21.9-29.7-28.4-64-25-101.2zm342-548.1c.4 0 .8-.1 1.1-.1-2-18.3-3.3-36.8-6.2-55-4-25.2-8.9-50.3-13.9-75.3-.9-4.5-4.4-8.5-6.6-12.7-3.5 2.8-7.5 5.2-10.4 8.5-35.9 40.8-74.2 79.3-113.8 116.5-31.5 29.7-62.6 59.8-94.1 89.6-6.4 6.1-9.1 12.4-5.2 20.8 12.3 26.5 21.3 54.1 25.2 83.2 1.1 8.3 4.9 9.5 11.3 4.3 2.8-2.2 5.4-4.6 7.9-7.2 43.9-45.7 95.6-79.8 153.6-104.9 13.3-5.8 25.7-13.5 38.5-20.4 9-4.9 13-12.5 12.7-22.8-.3-8.1-.1-16.3-.1-24.5zM352.8 730.3c-5.9 7.8-10.8 13.3-14.7 19.4-16.5 26-38.8 46-64.5 62.4-19.5 12.5-41.1 17.1-64 15.5-11.7-.8-23.2-2.9-34.9-3.5-13.1-.7-24.8-3.5-34.3-13.6-6-6.4-13.7-11.3-20.4-17.1-19.5-16.9-18.1-39.2 2-55.1 15.8-12.5 30.7-26.2 45.6-39.8 11.3-10.3 21.8-21.4 33-31.8 14.7-13.7 14.4-13.4 6.4-32.4-3.8-8.9-9.5-13.4-18.8-14.8-18.8-2.9-37.4-1.9-56.2.3-28.4 3.4-46.1 20.2-57.9 44.5-10.1 20.7-12 42.9-10.2 65.6 2.5 32.5 10.9 63.6 23.1 93.7 6.4 15.8 16.2 29 29.4 39.8 31 25.5 66.6 38.8 106.6 39.2 9.1.1 19 .2 27.2-3.1 35-14.2 65.8-34.4 88.6-65.6 11.2-15.3 19.2-31.8 20.2-50.7.8-14.5-.9-29.1-1.8-43.6-.2-2.2-2-4.3-4.4-9.3zM182 561.7c.4.9.7 1.8 1.1 2.7 4.2.5 8.4 1.7 12.5 1.5 18.7-.8 31.7 8.1 41.6 23 4.3 6.5 8.4 13.2 13.2 19.3 20.7 26.5 34.6 56 39.8 89.4.4 2.8 1.2 5.6 2.1 8.2 1.2 3.2 3.6 4.3 6.7 2.2 2-1.4 4.3-2.6 5.9-4.4 9.6-10.9 18.9-22.1 28.6-33 4.3-4.8 4.4-9 1-14.3-8.8-13.6-19.4-25.3-32.8-34.5-9.2-6.3-10.1-10-6.1-20.5 3.9-10.1 11.9-15.5 21.4-19.4 27.9-11.5 55.5-23.4 80.7-40.3 31-20.8 61.4-42.3 88.9-67.6 12.5-11.5 13-12.2.4-23.9-17.7-16.4-36.2-31.8-54.8-47.3-9.1-7.6-10.8-7.3-20.5-.4-13.2 9.5-26.2 19.6-39.6 28.8-60.3 41.3-120.8 82.3-181.2 123.5-3.2 2.3-6 4.7-8.9 7zm632.7-393.6c-2-3.9-3.4-7.1-5.2-10.1-14.2-23-33.8-39.8-58.5-50.7-19-8.3-39-12.4-59.4-15.2-10.1-1.4-14.1.4-19.2 9.1-2.5 4.3-4.2 9.3-7.5 12.8-18.7 19.3-32.3 42.2-46 65-13 21.7-26.6 42.7-44.8 60.5-9.4 9.2-8.7 10.7 4.1 14.5 29.8 8.9 57.4 22.2 81.7 41.9 11.2 9.1 12.3 9 23.1-1.2 21.9-20.7 43.9-41.3 65.8-62 19.6-18.5 39.2-37 58.7-55.6 2.7-2.5 4.7-5.8 7.2-9zm-393.4 588c4.8-4.7 7.7-7.2 10.2-10 10.9-12.6 21.6-25.4 32.7-37.8 28.5-31.6 57.1-63.1 85.8-94.6 3.3-3.6 7.2-6.8 11.2-9.7 7.9-5.8 8.6-7.5 5.2-16.9-3.4-9.3-7-18.6-10.6-27.8-5.4-13.9-10.3-28-16.6-41.4-5.7-12.2-9.4-12.4-20.3-4.5-22.7 16.4-45 33.4-68.5 48.6-22.3 14.5-45.9 26.8-68.7 40.5-14.5 8.6-14.6 9.5-3.9 22.8 18.3 22.8 31.4 48.1 35.7 77.3 1.9 13 2.6 26.1 4.1 39.2.5 3.9 2 7.9 3.7 14.3zm256.4 137.3c1.2-.2 2.3-.3 3.5-.5 4.1-15.7 9.1-31.2 12.1-47.1 3-15.7 13.9-21.5 27.6-12.9 5.7 3.6 10.7 8.2 16.5 11.6 3.6 2.1 8 2.8 12.1 4.2-.7-4-1-8.2-2.3-12-15-42.2-27.6-85-30.6-130.1-.7-10.6-4-20.1-10.7-28.4-3.4-4.2-7.4-6.5-12.9-5.7-3.9.5-7.7 1-11.6 1.5-6.2.8-10.4 4.1-12.3 10.2-2 6.1-4.1 12.1-6.1 18.1-3 9.2-1.5 11.7 8.2 14.1 1.4.3 3 .3 4.1 1 3 2.1 7 4.1 8 7 .7 2.1-2.2 6.3-4.5 8.4-5 4.4-11.1 7.7-16.2 12.1-5.3 4.5-3.8 9.7 2.8 11.6 1.7.5 3.5.6 5.2 1 6 1.2 12.1 2.6 14 9.6 2.1 7.8-2.5 12.6-8 17.1-6 4.9-11.9 10.1-17.4 15.6-1.7 1.7-2.1 4.8-3.1 7.3 2.4-.4 4.9-.5 7.3-1.1 1.7-.4 3.2-1.6 4.8-2.2 6.2-2.1 12-1.6 16.4 3.8 4.2 5.1 3.5 10.7.1 15.8-3.9 5.9-7.8 12-12.8 16.9-9 8.9-10.7 18.7-6.1 30.1 2.3 5.6 4.6 11.1 7.2 16.6 1.2 2.4 3.2 4.3 4.7 6.4zm58.2-221.3c2.1 6.8 3.9 12.8 5.9 18.8 1.9 5.7 5.5 11.2 5.9 16.9 2.1 28.6 12 55.3 19 82.7 1 4 3 7.9 5.2 11.5.9 1.4 3.6 2.8 5.2 2.4 1.5-.3 3.2-2.6 3.7-4.4.9-3 .8-6.3 1.3-9.5 3.2-18.7 11.4-24.1 29.7-20 4.8 1.1 9.7 2.2 14.5 2.2 2.7 0 5.4-2.3 8.2-3.6-1.3-2.4-2.3-4.9-3.8-7-1.2-1.7-2.9-3.1-4.5-4.5-28.7-26.6-54.5-55.6-73.7-90.1-2.3-4.1-4.5-11.9-10.9-9.1-3.2 1.6-3.8 9-5.7 13.7zm-79.5-74.7c3.7-4.7 6.2-8 8.9-11.2 7.6-9.1 16.6-7.8 21.4 3.2 2.4 5.5 4 11.4 6.1 17 3.2 8.8 6.6 9.8 14 4 12.5-10 18.3-23.5 18.1-39.2-.2-11.2-5.2-20.5-14.9-26.8-5.3-3.5-10-4.2-15.3.6-11.3 10.2-23.1 20-34.6 30-6.9 5.7-8.1 12.6-3.7 22.4zm-424.8 110c-4.3 3.4-6.9 5.1-9.1 7.1-15.7 14.9-31.3 29.9-46.9 44.9-1.8 1.7-3.5 3.5-5.2 5.4-3 3.4-2.5 6.8 1 9 2.9 1.8 6.3 3.3 9.7 3.6 6.3.7 12.8 0 19.1.6 9.6.9 16.1-3.6 21.5-11 12.6-17.4 12.5-36.9 9.9-59.6zm399.2-185c-.7-4.3-1.2-7.8-1.9-11.2-4.1-18.9-15.2-34-27.4-48.3-2.1-2.4-6.7-5.9-8-5.2-3.6 2-7.3 5.7-8.8 9.5-1.2 3.1-.2 8 1.6 11 10.4 17.2 21.2 34.2 32.2 51.1 3.7 5.7 6.8 5.3 10.1-.6 1.2-2.1 1.7-4.6 2.2-6.3zm46.9-49.8c1.2-.2 2.3-.3 3.5-.5.3-4 1.2-8 .6-11.9-1.4-10.1-2.9-20.3-5.3-30.2-2.8-11.7-6.4-23.1-9.8-34.6-1.2-3.9-3.1-7.3-8.1-6.6-12.1 1.9-18.3 16-12.2 26.7 9.1 15.9 17.7 32.1 26.4 48.2 1.5 3 3.2 5.9 4.9 8.9zm-52.2-26.4c.5-5.4-2-9.5-7.1-11.8-.7-.3-3.2 1.3-3.6 2.4-1.3 4 2.8 8.4 9.1 10.2.3.1.6-.2 1.6-.8zm-1.1-100.1c1 .4 2 .8 3 1.1.7-1.5 2.4-3.5 1.9-4.5-1.2-2.6-3.4-4.7-5.2-7-1 .8-2.8 1.8-2.7 2.4.7 2.7 1.9 5.3 3 8z"/></svg>