<svg xmlns="http://www.w3.org/2000/svg" viewBox="0 0 1000 1000" style="enable-background:new 0 0 1000 1000" xml:space="preserve"><path d="M376.6 500.3c0-71 52.4-123.6 123.2-123.5 70.4.1 122.5 53 122.4 124.4-.1 68.9-53.9 123.5-122.3 124.1-68.7.4-123.3-54.9-123.3-125zm245.6-378c0-71.1-52-122.4-123.9-122.3-70.7.1-121.9 52.5-121.7 124.5.2 69.2 53.7 122.3 123 122.1 70.1-.2 122.7-53.5 122.6-124.3zM375.7 881c1.9 58.8 55.6 121.6 129 119 57.9-2.1 122-55 118.1-129.5-3.4-65.6-56.6-118.6-124.2-118-67.6-1.6-125.1 59.2-122.9 128.5z"/></svg>