<svg xmlns="http://www.w3.org/2000/svg" viewBox="0 0 1000 1000" style="enable-background:new 0 0 1000 1000" xml:space="preserve"><path d="M500.9 622.8c-71.1 0-123.8-52.4-123.8-123.2 0-70.5 53-122.7 124.4-122.6 69 .1 124.8 54.1 124 122.4-.9 76.1-63.6 127.3-124.6 123.4zM0 497.7c-.2 72.3 50.8 125 121.2 125.1 72.1.2 126.8-54.1 126.1-125.2-.7-67.1-55.4-120.6-123.4-120.7C52.9 376.9.2 428.2 0 497.7zM879.2 377c-70.7-.2-126.4 53.1-126.6 121.1-.2 70.2 53.5 124.6 123 124.7 72.1.1 124.3-51.1 124.4-122 .1-71-51.2-123.6-120.8-123.8z"/></svg>