<svg xmlns="http://www.w3.org/2000/svg" viewBox="0 0 105.42 313.28"><g data-name="Calque 2"><path d="M61.42 0c2.31.89 4.58 1.87 6.93 2.66 17.85 6.05 30.21 18.08 35.12 36.21 2.32 8.55 2.33 18.22 1.28 27.12C100 106 94.5 146 89.27 186c-1 7.56-1.85 15.15-3 22.69-2.5 15.6-13.75 27.31-28.93 30.31-13.39 2.65-28.75-4.52-36.25-17.22-4.53-7.66-5.73-16.23-5.27-25 .28-5.26 4.35-9.2 9.49-10.07a10.74 10.74 0 0 1 11.26 6.32 42.61 42.61 0 0 1 2.24 10.57c.9 7.73 5.29 12.44 12.13 12.57 7.11.14 11.29-3.15 12.27-10.25 2.77-19.88 5.34-39.79 8-59.69C75 118 78.76 89.71 82.72 61.45 85 45 78.12 31.13 64.58 26c-22.83-8.78-44.81 7.61-42.5 32 1.72 18.17 4.22 36.26 6.35 54.38q3.13 26.7 6.23 53.39a21.2 21.2 0 0 1 .08 4C34.27 176 30 180.68 24.31 181.3c-5.12.57-10.67-3.35-11.72-9.34-1.63-9.3-2.6-18.72-3.72-28.11-2.53-21.08-5-42.18-7.46-63.26C1 77 .47 73.38 0 69.78V41.87c.31-.77.67-1.52.91-2.31C6.43 21.49 18.26 9.48 35.7 2.86 38.31 1.86 41 1 43.59 0Zm22.07 280.93c-.35-17.74-14.88-32.92-32.25-32.87-17.63.06-32.6 15.12-32.52 32.72.07 17.41 14.92 32.42 32.11 32.45 16.89 1.16 33-15.76 32.66-32.3Zm-32.26 9a9.32 9.32 0 0 1-.33-18.63 8.91 8.91 0 0 1 9.42 9.22c.05 5.77-3.56 9.48-9.09 9.48Z" data-name="Calque 1"/></g></svg>