<svg xmlns="http://www.w3.org/2000/svg" viewBox="0 0 1000 1000" style="enable-background:new 0 0 1000 1000" xml:space="preserve"><path d="M1000 702.4c-.9 31-2.7 61.6-11.2 91.3-3 10.4-6.9 20.7-12.1 30.2-14.1 26.1-39.9 37.1-69.1 30.5-24.5-5.5-44.9-18.8-62.4-35.7-22.7-22-43.7-45.8-65.3-68.9-6.4-6.9-12.2-14.3-18.3-21.4-23.1-26.9-52.5-42-87.6-44.7-37-2.9-74.1-5.5-111.2-5.6-66.8-.2-133.7 1.1-200.5 2.6-18.2.4-36.5 3-54.5 6.2-29.3 5.2-53 20.5-72.7 42.9-24.4 27.9-48.7 56.1-74.6 82.6-18.7 19.1-40.6 34.8-67.5 41.5-31.3 7.8-57.3-3.5-72.3-31.9C5.8 793.7 1.8 762.8.5 731.5c-3.2-78.3 8.6-154.9 26.2-230.9 16.7-72.3 35.2-144.1 65.8-212.1 15.3-34.1 33.6-66.5 61-92.3 51.8-48.7 112.8-62.5 181.5-45.7 32.6 8 65.1 17.1 98.2 22.8 66.5 11.4 132 4.5 196.9-13.3 25.2-6.9 51-14.5 76.8-15.8 64-3.1 116.7 21.9 156.6 72.4 31.2 39.4 50.5 84.9 66.4 131.9 28.4 84 49.4 170 61.7 257.8 4.4 31.9 5.7 64.1 8.4 96.1zM127.2 428c-.1 49.1 37.8 88.1 86.6 89 47.4.9 87.5-39.2 88-87.8.4-48.7-38.4-88.3-86.8-88.6-48.8-.3-87.7 38.5-87.8 87.4zm543.4-94.8c-.3 24.4 18.2 43.7 42.2 44 23.1.3 42.5-18.5 43-41.7.5-24.6-17.5-44-41.4-44.6-24.1-.6-43.5 18.2-43.8 42.3zm-51.2 52.7c-23.6-.1-42.7 18.4-43.1 41.8-.4 24.6 18.1 43.7 42.6 43.8 24 .2 43.8-19.5 43.5-43.3-.3-23.3-19.5-42.2-43-42.3zm188 0c-23.5 0-42.7 18.7-43.1 42.1-.4 24.1 18.8 43.5 43 43.5 23.5 0 42.7-18.7 43-42 .5-24-18.8-43.6-42.9-43.6zm-51.6 137.3c0-24-18.3-42.6-42-42.9-24.6-.3-43.2 18.2-43.2 43 0 24.1 18 42.5 41.9 42.8 24.7.3 43.3-18.2 43.3-42.9z"/></svg>