<svg xmlns="http://www.w3.org/2000/svg" viewBox="0 0 1000 1000" style="enable-background:new 0 0 1000 1000" xml:space="preserve"><path d="M808.6 442.6c-240-73.1-463.2 147.2-390.1 390H97.1c-4.9 20.3 16 46 40 47.7 4.9.4 9.8.3 14.8.3 91.5 0 182.9.2 274.4-.2 9.4 0 14.2 2.8 19.3 10.9 12.8 20.4 27.2 39.8 41.4 60.1-1.5.2-4.4 1-7.3 1-110.7.1-221.5.3-332.2-.1-59.4-.3-105.1-34.4-119.3-87.9-2.4-9-3.9-18.6-3.9-27.9-.2-240.4-.3-480.7-.1-721.1.1-59 48.4-110 107.5-114.4 7.4-.5 14.7-.9 22.1-.9C329.4.1 504.9.1 680.5 0c25.5 0 49.9 3.6 71.8 17.7 35.6 23 56.1 55.5 56.4 98 .8 106.6.3 213.3.3 319.9 0 2-.3 4-.4 7zM405.4 143.3c-63.6 0-127.2-.1-190.7.1-26.8.1-47 19.3-48.1 45.8-.7 16.8-.6 33.6 0 50.4.7 20.7 14.4 38.6 33.7 43.8 7.8 2.1 16.2 2.2 24.4 2.3 119.8.1 239.6.1 359.3.1 4.5 0 9 0 13.5-.3 26.6-2.2 44.4-21.1 44.8-47.7.2-15.6.2-31.2 0-46.8-.1-4.5-.5-9-1.7-13.3-6.1-21.4-23.5-34.3-46.8-34.3-62.9-.2-125.6-.1-188.4-.1zm308.8 333.1c144.7 0 261.9 117.3 261.7 262.2-.1 143.9-117.6 261.3-261.5 261.4-145.1.2-262.3-117.5-262.1-263.1.3-144.1 117.3-260.5 261.9-260.5zM642.6 737c.1 29.5 0 59 .1 88.6 0 12.4 4.9 22.4 16.3 28.2 11.1 5.6 21.2 2.7 31.1-4 41.9-28.8 84-57.2 125.9-86 23.5-16.2 23.1-39.6-1-55.6-27-17.9-54.1-35.5-81.2-53.3-16.1-10.5-32-21.5-48.5-31.4-17.6-10.5-38.6-.1-41.8 20.1-.8 4.8-.8 9.8-.8 14.7-.2 26.3-.1 52.5-.1 78.7z"/></svg>