<svg xmlns="http://www.w3.org/2000/svg" viewBox="0 0 241.72 241.48"><g data-name="Calque 2"><path d="M195.19 0c9.83 3.25 19.08 7.42 27 14.36 24.43 21.29 26.14 61.06 3.78 84.49-15.68 16.44-31.62 32.75-48.67 47.73-21.37 18.79-57.94 16.22-77.25-4-6-6.32-4.17-15.18 4-16.41 3.15-.48 7.5 1.41 10.08 3.64 13.76 11.85 32 14 47.57 4.76a45.28 45.28 0 0 0 8.55-6.76q20.53-20.3 40.85-40.81c16.05-16.23 15.87-40.75-.29-57.17-15.23-15.49-40.54-15.64-56.53-.08-11.77 11.44-23.28 23.19-34.89 34.8a35.3 35.3 0 0 1-3.64 3.39 9.17 9.17 0 0 1-12.6-1c-3.5-3.82-3.65-8.56.13-12.5 8.38-8.72 17-17.25 25.47-25.84 4.2-4.24 8.38-8.5 12.63-12.68 8.14-8 18.14-12.68 28.92-15.91ZM0 195.19c3 6.81 5 14.28 9.14 20.3 11.69 17 27.65 26.19 49.12 26 14.91-.14 28-3.95 38.71-14 13.8-12.91 27-26.48 40.37-39.82 1-1 2.24-2.54 2.2-3.79-.09-3.11.14-7.13-1.63-9.05-2-2.13-6-3-9.16-3.11-2 0-4.37 2.16-6.09 3.84C110.73 187.31 99 199.24 87.06 211a40.32 40.32 0 0 1-57.68-56.35Q50 133.41 71.26 112.82c16.37-15.78 39.4-15.89 56.11-.77 5 4.56 10.53 4.77 14.52.56s3.38-9.79-1.41-14.49c-21.63-21.19-59.26-21.3-80.82-.12-10.18 10-20.17 20.17-30.4 30.1C16.71 140.23 4.08 152.28 0 170.3Z" data-name="Calque 1"/></g></svg>