<svg xmlns="http://www.w3.org/2000/svg" viewBox="0 0 234.52 234.24"><g data-name="Calque 2"><path d="M124.47 0c9 4.94 12.25 12.69 12.12 22.74-.28 22.06-.09 44.14-.08 66.21 0 8.57 0 8.57 8.34 8.57 22.57 0 45.14-.11 67.7.11a29.74 29.74 0 0 1 12 2.42c8.36 3.93 11.06 10.88 9.56 21.89-.88 6.49-6.85 12.3-14.54 13.87a40.86 40.86 0 0 1-7.9.68h-68.7c-6.26 0-6.46.21-6.47 6.44v69.2a37.07 37.07 0 0 1-1 8.85c-2.06 8.25-8.53 13.14-17 13.23-10.88.1-17.4-4-19.82-12.83a36.17 36.17 0 0 1-1.09-9.34c-.09-22.57 0-45.14 0-67.7 0-7.84 0-7.85-8.07-7.85-22.24 0-44.47-.19-66.71.08C12.7 136.72 5 133.45 0 124.47v-14.94c5.25-9.28 13.43-12.26 23.76-12.11 22.52.33 45.05 0 67.57.19 4.8 0 6.31-1.61 6.27-6.33-.18-22.86.11-45.72-.17-68.57C97.32 12.68 100.59 5 109.53 0Z" data-name="Calque 1"/></g></svg>