<svg xmlns="http://www.w3.org/2000/svg" viewBox="0 0 1000 1000" style="enable-background:new 0 0 1000 1000" xml:space="preserve"><path d="M542.1 146.3h360.4c15.4 0 15.6.2 15.6 15.8v338.5c0 18.1 0 18.1 18.5 18.1 12.2 0 24.4-.2 36.6.1 18.8.4 26.7 8.3 26.7 26.8v241.3c0 19.4-7 26.7-26.2 26.8-38.7.1-77.3.2-116 0-18.4-.1-25.8-7.8-25.9-26.3-.1-15.3-.3-30.7.1-46 .2-7.7-2-11.4-10.6-11.3-75.6.2-151.1.2-226.7 0-8.3 0-10.9 3.2-10.8 11.1.3 33.1-.2 66.2.3 99.2.1 9.9-3.1 13.3-13.2 13.3-186-.2-371.9-.2-557.9 0-10 0-13.2-3.3-13.2-13.2.2-130.9.2-261.9 0-392.8 0-9.7 3.5-12.8 12.8-12.7 46 .3 91.9.1 137.9.1 14.5 0 14.8-.2 14.8-14.5v-258c0-16.2 0-16.3 16.2-16.3h360.6zm-.2 42.6H226.4c-16.4 0-16.4 0-16.4 16.8v213.1c0 16.2 0 16.3 16 16.3h341.6c16.4 0 16.5.1 16.5 16.1 0 73.8.2 147.6-.2 221.5 0 9.9 3 13.3 13.1 13.2 73.8-.3 147.6-.4 221.5 0 10.5.1 13.8-3.1 13.7-13.7-.5-42.1-.3-84.3-.2-126.4 0-18.4 8.2-26.5 26.8-27.1 14.9-.4 14.9-.4 14.9-15.3V205.7c0-16.8 0-16.8-16.4-16.8H541.9zm-269.5 622c71.7 0 143.4-.1 215.1.1 7.8 0 10.7-1.6 10.7-10.4-.4-101.6-.2-203.3-.3-304.9 0-14.2-.3-14.5-14.8-14.5h-424c-14.4 0-14.7.3-14.7 14.6v300.7c0 14.1.2 14.3 14.8 14.3 71.2.2 142.2.1 213.2.1zm704.1-142.8c0-30.3-.3-60.6.2-90.9.1-9.6-3.4-12.8-12.8-12.7-32 .4-64.1.4-96.1 0-8.9-.1-12.4 2.7-12.3 12 .3 60.2.3 120.5 0 180.7 0 9.2 3.2 12.1 12.2 12 32-.4 64.1-.5 96.1 0 10.3.2 13.1-3.8 13-13.5-.6-29-.3-58.3-.3-87.6zm-420.4-22.2c.1-8.2-6.1-14.9-13.9-15.2-7.9-.3-14.5 6.1-14.8 14.1-.3 9.3 5.4 15.5 14.1 15.5 7.9.1 14.6-6.5 14.6-14.4z"/></svg>