<svg xmlns="http://www.w3.org/2000/svg" viewBox="0 0 228.26 249.03"><g data-name="Calque 2"><path d="M0 101.62V43.85c4-1.51 7.86-3.46 12-4.47 33.82-8.29 66.72-18.9 96.48-37.55 4.22-2.64 7.93-2.33 12 .33a160.18 160.18 0 0 0 14.61 8.51c26.47 13.48 54.49 22.56 83.37 29.21 9.57 2.21 9.94 2.67 9.81 12.28-.28 19.4-.57 38.81-1.08 58.2a130.11 130.11 0 0 1-13.58 55.14c-15.71 31.57-40.66 54.07-70.73 71.39-7.6 4.38-15.57 8.11-23.37 12.14h-10c-1.34-.65-2.66-1.33-4-1.95-26.35-12-49.89-27.83-69.29-49.66-17.76-20-29.46-42.69-33.34-69.21C1.58 119.4.94 110.48 0 101.62Zm208.7-26-.77-.06v-6c.1-13.15.86-11.4-11.52-14.56-27.59-7-54.36-16.17-78.9-31-1.68-1-4.85-.9-6.72 0-6.43 3.05-12.45 7-18.87 10C71 44 49.05 50.91 26.54 56.15c-4.68 1.09-6.75 3.21-6.52 8.17.86 18.55 1 37.14 2.29 55.65a101.14 101.14 0 0 0 18.12 51c17.62 25.49 41.72 42.85 69.76 55.11a11.56 11.56 0 0 0 8-.08 156 156 0 0 0 39.35-23.1C181.1 184.19 199 161.35 204 131c3.07-18.2 3.25-36.91 4.7-55.4Zm-8.28 6.94c0-4.47-.33-9 .09-13.42.4-4.18-1.09-5.81-5.12-6.79-23.1-5.64-46-12.39-66.75-24-10.89-6.11-18.71-5.91-29.45.13C78.6 50 55.77 56.5 32.89 62.26c-4.06 1-5.4 2.91-5.26 6.87.5 14.25.49 28.53 1.29 42.76.89 15.86 4.18 31.24 12 45.33 16 28.95 40.9 47.82 70.41 61.25a7.59 7.59 0 0 0 6-.25c11.65-6.62 23.87-12.55 34.5-20.56 23.91-18 41.24-41 45.72-71.48 2.11-14.38 2.29-29.05 3.35-43.59Z" data-name="Calque 1"/></g></svg>