<svg xmlns="http://www.w3.org/2000/svg" viewBox="0 0 1000 1000" style="enable-background:new 0 0 1000 1000" xml:space="preserve"><path d="M500.1 839.2c-145 0-290-.9-434.9.6-40.2.4-65.2-34-65.2-65.2.4-205 .1-409.9.2-614.9 0-23.3 8.9-42.8 28.8-55.4 7.8-5 17.8-6.7 27-9.4 2.8-.8 6-.2 9-.2 290.6 0 581.2.1 871.8-.2 28.9 0 47.7 13.1 59.1 38.2 2.7 5.9 3.9 12.9 3.9 19.4.2 210.3.2 420.6.1 631 0 30.7-26.3 56.2-57.9 56.2-147.3 0-294.6-.1-441.9-.1zM262.4 587c0 15.1 4.3 25.7 16.3 31.2 12.5 5.7 25 4.9 36-4 49.5-40.5 99-81 148.3-121.7 17.3-14.3 16.4-37.1-1.6-51.8-36.5-29.9-73-59.9-109.5-89.8-13.7-11.2-27.1-23.1-41.7-33.1-18.2-12.5-41.2-3.6-47.7 17.2-6 19.1 4.8 31.1 18.1 41.9 34 27.7 68 55.4 102.2 83 6.2 5 6.9 8.7.3 14-36.1 29.4-71.9 59.1-108 88.5-8.7 7.2-12.9 15.9-12.7 24.6zm371.3-43.3c-27.2 0-54.3-.2-81.5.1-16.7.2-30.4 12.1-31.7 26.6-1.9 20.8 7 33.5 26.3 37.4 4.2.8 8.6 1.4 13 1.5 49.3.1 98.6.2 147.9 0 12.9-.1 25.8-1.6 33.8-13.8 7.7-11.7 7.9-24.1 1.3-36.2-6-11.1-16.5-15.3-28.6-15.4-26.8-.3-53.7-.2-80.5-.2z"/></svg>