<svg xmlns="http://www.w3.org/2000/svg" viewBox="0 0 253.3 284.12"><g data-name="Calque 2"><path d="M0 261.2c5.12-7.58 12.25-10.2 21.33-10.2 70.38.19 140.76.08 211.14.17a31.86 31.86 0 0 1 10.69 1.68c5.18 1.89 9.19 5.43 9.9 11.41.81 6.79-.21 13-6.55 17.07-1.23.81-2.31 1.86-3.47 2.8H10l-10-10ZM144.87 59.09c1.31 1.24 2.64 2.44 3.91 3.71q21 20.94 41.92 41.89a38.24 38.24 0 0 0 5.66 4.83 16.49 16.49 0 0 0 21.21-2.93c5.4-6.34 5.44-16.53-.32-22.31Q177.58 44.4 137.69 4.69a15.69 15.69 0 0 0-22.42 0q-39.9 39.74-79.55 79.66C27.52 92.62 31.16 107 42 111c7.79 2.93 13.85.15 19.3-5.31Q82.95 84 104.63 62.4c1.2-1.21 2.53-2.3 4.91-4.45v143.79c0 1.82-.07 3.66.07 5.48.73 9.13 6.92 14.35 16.93 14.35s16.15-5.27 16.85-14.43c.14-1.81.07-3.65.07-5.47V59.44Z" data-name="Calque 1"/></g></svg>