<svg xmlns="http://www.w3.org/2000/svg" viewBox="0 0 1000 1000" style="enable-background:new 0 0 1000 1000" xml:space="preserve"><path d="M.3 362.8c0-17.9-.9-37.1.2-56.2 4.6-85.3 76-162.4 160.9-174 11.1-1.5 22.3-2.2 33.5-2.3 27.6-.3 55.2-.1 82.9-.1 10.8 0 11-.1 13.1-10.7 5.6-28.2 18.3-52.9 38-73.6C355.7 17.8 388.5 1.2 427.6.4c48-.9 96.1-1.6 144.1.1C639 3 695.1 52.5 708.3 118.3c2.4 11.9 2.4 11.9 14.4 11.9 27.6 0 55.3.4 82.9-.1 94-1.7 178.4 67.2 192.9 166.5 1.4 9.5 1.7 19.2 1.4 28.7-.8 33.2-2.4 66.4-3.1 99.6-.2 9.6-3.5 16.6-11.3 22.4-95.8 71.4-201.7 120-319 143.3-15 3-18.8 1.2-27-11.3-37.5-57.1-90.9-83.3-158.4-76.7-51.4 5-91.6 31.2-120.7 74.1-10.6 15.6-12.6 16.4-30.5 12.8C218.4 567 116.8 522 24.9 455.1 2.5 438.8 3.3 444 2.7 413.3c-.3-16.4-1.5-32.7-2.4-50.5zm633.6-233.3c-1.9-5.2-3-9.4-5-13.1-14.2-26.9-36.8-40.5-67-40.7-41.6-.4-83.2-.2-124.8 0-15.1.1-29.3 3.7-41.9 12.4-14.6 10-24.7 23.2-29.7 41.5 89.9-.1 178.4-.1 268.4-.1zm-134.2 871c-97.7 0-195.3-.3-293 .1-43.7.2-84.1-9.9-119.4-36.3-50.2-37.5-77.5-88.1-79.2-150.7-2.2-86-2.4-172.1-3.4-258.1 0-2-.2-4 .1-6 1.1-8.9 6.1-11.5 14.3-7.3 2.1 1.1 4 2.6 6 3.9 96.9 63 203 102.5 316.5 122.7 10.2 1.8 20.5 3.9 30.8 4.5 16.8.9 30.1-8.4 36.3-24.1 1.2-3 1.9-6.1 3-9.1 13-38.3 47-62.7 87.4-62.8 41.4-.1 75.4 23.9 88.8 62.6 2.1 6 4 12.3 7.5 17.5 9.2 13.8 22.9 18.2 38.8 15.7 119.9-18.9 232.5-57.7 335.1-123.5 4.4-2.8 8.6-6 13.3-8.2 6.4-2.9 10.9-.2 12.1 6.7.4 2.3.3 4.8.2 7.2-1.1 84.4-1.5 168.9-3.6 253.3-1.9 75.2-35.9 132.3-101.6 169.6-29.6 16.8-62 22.4-95.8 22.3-98.1-.2-196.1 0-294.2 0zm37.2-279.4c0-10.8.3-21.6 0-32.4-.6-22.2-15.7-38.1-36.1-38.5-21.2-.4-37.7 15.1-38.4 37.6-.7 22-.7 44 0 65.9.7 21.7 17.1 37.4 37.5 37.3 20.8-.1 36.2-15.6 37-37.6.3-10.7 0-21.5 0-32.3z"/></svg>