<svg xmlns="http://www.w3.org/2000/svg" viewBox="0 0 1000 1000" style="enable-background:new 0 0 1000 1000" xml:space="preserve"><path d="M939.6 500.1c0 77-.3 154 .3 231.1.1 15.6-6.1 25.2-19 32.6C787 840.6 653.2 917.5 519.6 994.7c-14.5 8.4-27.2 6.3-40.8-1.6-61.5-35.7-123.3-71-184.9-106.5-70.3-40.5-140.4-81.3-211.1-121.2-16.3-9.2-22.7-21.4-22.7-39.4.3-97.4.1-194.8.1-292.2 0-53.2.3-106.4-.2-159.6-.2-18.8 6.7-31.3 23.7-40.9C214.7 158.5 345.5 83.2 476 7.6c17.2-9.9 31.5-10.1 49 .1C642.7 76 760.8 143.4 878.8 211.2c15 8.6 29.9 17.3 44.8 25.9 11.2 6.4 16.3 15.5 16.2 28.9-.4 78-.2 156.1-.2 234.1zM467 406c.6-6.6 1.1-9.9 1.2-13.2.1-14.5-.3-29 .2-43.5.2-7.9-2.8-12.6-9.6-16.5-43.8-24.9-87.4-50.2-131-75.6-3.9-2.3-6.8-6.2-10.2-9.3 3.4-3.5 6.1-8.1 10.2-10.5 42.7-24.9 85.3-49.7 128.4-73.8 9.5-5.3 13-11.7 12.3-22.3-.8-12.7-.1-25.5-.2-38.3-.1-12.7-1.9-13.8-13-7.8-1.5.8-3 1.7-4.5 2.5-75.7 43.6-151.4 87.2-227.1 130.9-9.7 5.6-19.4 11.4-32.2 18.9C284.2 300.8 374.2 352.6 467 406zm67.4-315.9c-.5 5.4-1.1 9-1.1 12.6-.1 13.5.5 27-.2 40.4-.6 10.1 3.4 15.6 12 20.4 43.3 24.4 86.3 49.3 129.3 74.1 13.3 7.7 13.1 11.8-.5 19.5-42.5 24.4-84.8 49-127.6 73-9.6 5.4-14.2 11.4-13.3 22.7 1 13 .2 26.2.3 39.3 0 3.6.8 7.1 1.3 11.9 3.9-1.6 6.6-2.2 8.8-3.5 84.6-48.7 169.3-97.4 253.8-146.2 11.2-6.5 11-7.9-.3-14.5-83.7-48.3-167.3-96.6-251.1-144.8-3-1.6-6.5-2.7-11.4-4.9z"/></svg>