<svg xmlns="http://www.w3.org/2000/svg" viewBox="0 0 1000 1000" style="enable-background:new 0 0 1000 1000" xml:space="preserve"><path d="M234.4 515.7c10.1 18.3 20.1 36.6 30.9 56.2h-35.9c-8.8-17.1-17.7-34.5-26.7-52.2H185v52.2h-32.2V427.8h14.4c15.5.1 31.1-.6 46.5.5 44.8 3.2 52.4 48 35.5 71.8-4 5.4-9.3 9.9-14.8 15.6zM185.5 455v37.6c7.6 0 14.4.3 21.2-.1 10.3-.6 16.9-7.9 17.1-18.3.2-10.5-6-18.2-16.3-19.1-7-.6-14.2-.1-22-.1zm483 116.9h102.6v-29.1h-69.8v-30.1h50.1v-28.6h-50v-27.5H766v-28.5h-97.5v143.8zm-385-.2h102.6v-28.5h-69.9v-31h50.5V484h-50.3v-27.6h64.9v-28.2h-97.7c-.1 48.6-.1 96-.1 143.5zm254.7.4h-35.8c-3.6-10.4-7.3-21-11.1-32h-50.7c-3.7 10.3-7.6 21.2-11.4 32H395c18.1-48.5 35.8-95.9 53.7-143.7h36.9c17.4 47.4 34.7 94.7 52.6 143.7zm-71-108.2c-.9-.2-1.7-.3-2.6-.5-4.7 16.4-11.5 32.3-15.3 49.5h33.9c-5.5-16.8-10.8-32.9-16-49zM48.3 428.5c-33 12-49.6 42.1-48.2 75.4 1.5 36.7 24.1 63.4 57.2 70.5 30.4 6.5 65.9-6.8 78.3-29.7-6.9-6.4-13.9-12.8-20.9-19.2-25.3 22.4-50.7 24.8-68.1 7-16.2-16.7-16.3-48.9.1-66 6.9-7.2 15.4-11 25.5-12 17.5-1.8 30.3 6.3 41.5 19.8 7.1-7.7 13.7-14.7 20.8-22.4-17.9-27.3-57.3-33.9-86.2-23.4zm522 143.3h33.1V456.7h45v-28.2H523.6v28.4h46.7v114.9zm420.3-133.1c-15.6-16.6-47.4-18.5-66.7-9.3-13.8 6.5-21.2 17.7-22.1 32.4-.9 14.4 5.2 26.4 17.6 34 6.6 4 14.4 6.3 21.8 9 8.1 2.9 16.5 4.9 24.4 8.1 9.8 4 13.7 11.9 12.7 22.4-.9 9.5-6 16.2-16 19.2-16.9 5.2-31.9 1.1-45.2-10.2-2.6-2.2-5-4.5-7.8-7-5 4.6-9.5 8.7-13.9 12.8 14.6 22.4 55.1 35.1 84 18 13.5-8 20.7-20.2 20.7-35.8 0-16.4-7.2-29.4-22.1-37-6.4-3.2-13.5-5.1-20.3-7.4-7.5-2.5-15.2-4.4-22.5-7.5-8.3-3.6-12.6-10.2-11.5-19.8 1-8.8 6.5-13.5 14.1-16.1 13.9-4.7 26.5-1.4 38 7 2.1 1.5 4 3.3 6.2 5.2 4.6-4.2 8.6-7.9 13.4-12.3-2.3-2.5-3.4-4.2-4.8-5.7zM830.8 576.2c21 .6 35.9-7.4 43.2-25.3 2.9-7.1 3.9-15.3 4-23.1.4-30.3.2-60.6.2-91 0-2.7-.4-5.3-.6-8.5h-20.9v12.8c-.1 30 .4 60-.4 89.9-.5 20.3-15.5 30.1-34.9 23.5-6.3-2.2-11.8-6.6-18.6-10.5-4 3.5-8.5 7.5-13.5 11.9 11.3 14.2 25.2 19.8 41.5 20.3z"/></svg>