<svg xmlns="http://www.w3.org/2000/svg" viewBox="0 0 1000 1000" style="enable-background:new 0 0 1000 1000" xml:space="preserve"><path d="M501.1 0h429.3c19.2 0 18.5 0 16.4 19.4-4.6 43.6-8.3 87.3-12.4 131-4.3 46.5-8.6 93.1-12.9 139.6-4.6 48.9-9.3 97.9-13.9 146.8-5.5 58.6-11 117.3-16.4 175.9-4.4 47.3-8.7 94.7-13 142-4.2 46.5-8.5 93-12.5 139.6-.8 9.2-6.8 12-14.4 14-40.9 10.9-81.9 22-122.8 33-70 18.9-140 38-210.2 56.3-9.8 2.5-21.3 3.5-30.9 1-111.1-29.3-221.9-59.6-333-89-13.5-3.6-17.6-10.1-18.6-23.6-3.7-49.4-8.8-98.7-13.4-148.1-4.3-46.5-8.7-93-13-139.5-5.5-59.1-11.1-118.1-16.5-177.2C87.7 364 82.7 307 77.4 249.9 72.1 192.5 66.6 135 61.1 77.6c-2.1-22.2-4.4-44.5-7-66.7C53.3 3.6 55.7 0 63.2 0c4.1 0 8.2-.1 12.2-.1 142 .1 283.8.1 425.7.1zm12 293.5c.1 1 .3 2 .4 3.1-31.5 13.1-62.9 26.3-94.4 39.4-54.9 22.8-109.8 45.7-164.8 68.3-7.9 3.2-10.3 8.2-9.6 16 2.4 25.5 5.5 50.9 6.4 76.5.5 14.1 6.5 16.2 18.8 16.2 116.6-.3 233.2-.1 349.8 0 15.8 0 17.1.8 16.2 16.7-2.1 38.1-5.1 76.2-6.9 114.3-.5 10.9-4.4 15.8-14.8 18.5-35 9.3-69.8 19.5-104.8 29.2-4.6 1.3-9.9 2.3-14.3 1.3-36.5-8.7-72.9-17.7-109-27.5-4.1-1.1-9.1-7.3-9.6-11.6-2.6-21.4-4.3-42.9-5.3-64.4-.4-9.4-3.7-13-13.1-12.8-28.5.4-57.1.3-85.6 0-8.7-.1-12.3 1.8-11.3 11.7 4.6 47.3 8.7 94.7 12.3 142 .7 9.1 3.7 13.6 12.7 16.1 68.5 19.7 136.9 40 205.4 59.8 5.2 1.5 11.6 2.1 16.7.6 69-19.6 137.8-39.7 206.7-59.5 7.1-2.1 11.1-5.6 11.7-13.4 1.8-20.2 4.3-40.4 6.1-60.6 7.4-83.3 14.6-166.7 22.1-250.1.9-10-1.3-14.9-12.8-14.9-78.3.4-156.5.4-234.8.4-2.1 0-4.2-.6-6.3-.9 11-7.3 22.3-12.4 33.7-17.3 72.7-30.9 145.4-61.9 218.2-92.6 7.9-3.4 12.3-8 13.2-16.9 2.4-25.5 5.7-50.9 8.3-76.3 1.8-17.3.6-18.4-17.5-18.4H237.1c-4.8 0-9.5.5-15.6.8.5 6.3.8 11.5 1.4 16.6 3 23.8 6.1 47.6 9.1 71.3 2.2 17.6 2.2 17.7 20 17.7 84.4 0 168.8-.1 253.1-.1 2.7.1 5.4.6 8 .8z"/></svg>