<svg xmlns="http://www.w3.org/2000/svg" viewBox="0 0 1000 1000" style="enable-background:new 0 0 1000 1000" xml:space="preserve"><path d="M500.3 783.3c-146 0-292-.6-438.1.5C27.8 784-.3 764.9 0 721.6c1.3-163.9.5-327.8.5-491.7 0-42.6 19.3-62.4 61.7-62.4 292-.1 584.1-.1 876.1 0 41.9 0 61.6 19.8 61.6 61.1v496.1c0 39.6-19.1 58.6-58.7 58.7-146.9-.1-293.9-.1-440.9-.1zM368.8 640.1c76.1.1 136.8-60.1 136.8-135.7 0-75.8-60.4-135.5-136.4-136.4-67-.8-136.9 52.7-137.1 136-.3 81.9 69.2 138.2 136.7 136.1zm414.5-1c-68.5-118.2-135.5-233.9-203.8-351.8-4.4 6.9-7.4 11.1-10 15.6-15.3 26.3-29.9 53-45.9 78.8-6.3 10.1-5.9 17.2.2 27.4 40.7 67.1 36 145.3-11.9 207.5-5.4 7.1-11.2 13.8-18.2 22.4 96.9.1 191.3.1 289.6.1zM653.7 130.5c12.3.1 16.2-4.1 13.6-16.6-6.2-29.7-11.2-59.7-17-89.6-3.4-17.5-8.9-22.4-26.3-22.5-82.6-.2-165.1-.2-247.7 0-17.2 0-23.5 5.7-26.7 22.4-5.5 28.9-10.8 57.9-16.1 86.8-3.2 17.6-2 19.2 16.1 19.3 50.2.1 100.4 0 150.6 0 51.2.1 102.3-.1 153.5.2zm-337 867.7c13.4.4 20.9-5.1 23.5-18.2 9.6-48.4 19.2-96.7 29-145 2.1-10.1-1.8-14.6-11.9-14.6-48.4 0-96.7-.3-145.1.5-4.8.1-12.9 6.2-13.8 10.7-9.7 47.3-18.6 94.9-26.9 142.5-2.9 16.6 3.7 23.7 20.3 23.9 20.8.3 41.6.1 62.4.1 20.9 0 41.7-.4 62.5.1zm328.2-177.9c-8.6 0-15.6 1.3-13.2 13.1 10.1 49.2 19.9 98.4 29.8 147.6 2.4 11.6 9.5 17.2 21.5 17.1 42.5-.1 85 .2 127.5-.2 15.2-.1 22.1-8.6 19.4-23.6-8.4-46.5-17.7-92.9-25.8-139.5-2-11.7-7.8-14.9-18.6-14.7-22.7.5-45.4.1-68.1.2h-72.5z"/></svg>