<svg xmlns="http://www.w3.org/2000/svg" viewBox="0 0 1000 1000" style="enable-background:new 0 0 1000 1000" xml:space="preserve"><path d="M0 456.8c0-24.5-.1-49 0-73.6.1-11.7.4-12 12.2-12.1 32.1-.1 64.3-.1 96.4 0 11 0 11 .2 11.2 11.5.1 4.6.1 9.3 0 14-.2 10.9-.3 11-11.7 11.1-19 .1-38.1 0-57.1.1-9.5.1-9.7.2-9.7 10 .2 22.9-2.8 19.5 19.2 19.8 9.7.1 19.5-.1 29.2 0 12.3.1 12.4.3 12.5 13.1 0 3.8.1 7.6 0 11.4-.2 11.4-.2 11.5-11.2 11.6-13.1.1-26.2 0-39.3.1-10.2.1-10.2.2-10.4 10.6-.1 5.1.3 10.2-.1 15.2-.5 6.8 2.4 8.7 8.9 8.6 19.9-.3 39.7-.1 59.6-.1 16.8 0 16.7 0 16.9 16.7.3 24.4-1.7 19.8-20 19.9-30.9.2-61.7.1-92.6 0-13.8 0-14-.3-14.1-14.4.1-24.5.1-49 .1-73.5zM467 529c0 15.7.1 15.8 15.3 15.8 29.2 0 58.4.3 87.5-.1 24.8-.3 24.2 5.5 23.9-24.9-.1-10.9-1-11.6-11.6-11.7-21.6-.1-43.1-.2-64.7.1-6.3.1-9.6-1.6-9-8.5.4-4.6 0-9.3.1-14 .1-11.9.1-12 11.6-12 13.1-.1 26.2.1 39.3-.1 9.5-.1 9.7-.5 10-10.2.1-5.1.1-10.2 0-15.2-.3-9.7-.7-10.4-9.9-10.6-10.1-.2-20.3.1-30.5-.1-23.6-.4-20.4 3.9-20.5-20.9-.1-8.6.3-8.8 9.6-8.9 14.8-.1 29.6.1 44.4-.1 28.5-.4 24.1 4.6 24.4-25 .1-11.3-.2-11.5-11.2-11.5-32.1-.1-64.3-.1-96.4 0-11.9 0-12.3.4-12.4 12-.1 24.5 0 49.1 0 73.6.1 24.1.1 48.2.1 72.3zM214 371.1c-16.7.1-14.2-1.3-19.8 13.5-13.5 35.9-27 71.9-40.4 107.8-5.2 13.8-10.5 27.6-15.5 41.5-3.2 8.9-2 10.6 7.1 10.8 7.6.2 15.2-.3 22.8.2 7.3.5 10.8-2.8 12.6-9.4 2.1-7.3 5.2-14.3 7.1-21.6 1.6-6.1 5.2-8 11-7.9 14.4.2 28.8.3 43.1 0 5.6-.1 8.4 2.1 10 7.3 2.6 8.5 5.8 16.7 8.4 25.2 1.3 4.3 3.8 6.3 8.2 6.3 10.1-.1 20.3.2 30.4-.1 6.3-.2 7.4-2 5.7-8-.8-2.8-1.9-5.6-3-8.3-16.6-45.1-33.1-90.3-49.9-135.4-9.8-26.4-3.9-21.2-30.5-21.8-2.2-.1-4.7-.1-7.3-.1zm6.2 43.1c2.5 7.8 4.2 13.1 6 18.4 3.5 10.8 6.9 21.6 10.7 32.2 1.9 5.4 1 7.9-5.1 7.9-9.6-.1-19.2 0-30.8 0 6.4-19.9 12.3-37.8 19.2-58.5zm129.5-40.6c-19.7 8.4-29.7 24.9-30 46-.3 20.5 10.1 35.3 28.4 44.2 6.8 3.3 14.2 5.2 21.3 7.8 8.3 3 16.7 5.8 24.8 9.3 5.8 2.5 9.1 7.2 9 14-.2 6.9-4.4 10.9-9.9 13.5-3.3 1.6-7.2 2.3-10.9 2.7-15.8 1.5-28.9-4.6-40.2-15.1-4.3-4-7.6-4.5-11.5.2-4.6 5.5-9.8 10.5-14.4 16-6.3 7.5-6.2 7.8 1 14.2 14.6 13.2 32.2 19.4 51.5 22 22 2.9 42-1.7 59.7-15 27.2-20.4 24.3-63 .6-80.5-10.8-8-23.1-11.9-35.6-15.7-6.8-2-13.7-4.2-20.1-7.2-8.4-3.9-11.1-8.8-9.9-15.7 1-5.8 6.9-10.7 14.9-11.7 8.9-1.1 17.6-.4 25.9 3.8 5.8 3 12.6 8.5 17.6 7.4 5.5-1.2 9.5-8.9 14.1-13.8l.9-.9c7.3-8.2 7.2-10-1.8-16.8-15.1-11.5-32.5-15.5-56.7-16.4-6.2 1.4-18.1 3.1-28.7 7.7zm557.3.4c-33.1 15.9-35.8 59.5-4.9 79.4 9.3 6 20.8 8.7 31.5 12.6 7.9 2.9 16.2 4.8 23.9 8.2 10.9 4.8 15.5 13.7 14.4 25.6-1.1 11-7.4 17.8-17.4 21.1-19.7 6.4-37.8 2.7-52.9-11.3-10.6-9.8-9.2-10.6-20.9.3-.9.9-1.8 1.9-2.8 2.6-5.1 3.8-4.2 7.6-.3 11.5 24 24.5 64.2 33.5 95.5 16.4 17.3-9.5 27.1-24.6 26.9-44.3-.2-19.9-9.2-35.8-27.7-45-5.6-2.8-11.7-4.7-17.7-6.7-10.4-3.4-21.2-5.9-31.2-10.1-11.9-4.9-15.7-12.6-14.1-24 1.3-9.4 10.1-16.7 21.6-18 14.9-1.8 28.8.6 40.2 11 4.4 4 7.7 4.5 11.7 0 .8-.9 1.8-1.7 2.8-2.6 9.6-8.9 9.5-11.1-.9-19.5-13-10.6-28.4-14.2-50.1-15.3-6.1 1.6-17.6 3.3-27.6 8.1zM616.1 532.9c0 11.7.2 11.8 12.2 11.9 28.7.1 57.5.2 86.2 0 28.3-.2 24.4 4.3 24.6-25 .1-11.5-.2-11.6-12.4-11.7-19-.1-38 0-57.1 0-12 0-12-.1-12.1-11.6-.1-14 0-27.9 0-41.9v-68.5c0-15-.1-15-15.6-15.1-5.1 0-10.1-.1-15.2 0-10.4.3-10.6.3-10.6 10.8-.1 25.4 0 50.7 0 76.1 0 25.1-.1 50 0 75zm211-95.2c0 19.4.4 38.9-.1 58.3-.4 17.5-12 27.8-29.5 27.4-9.7-.2-18.3-3.6-24.9-10.6-4.5-4.7-8.4-4.8-12.8-.3-1.8 1.8-3.9 3.3-5.7 5-6.8 6.5-6.9 7.3.1 14 19.4 18.3 42.2 21.5 67 14.1 17.9-5.3 28.2-18.1 32-35.9 1.8-8.2 2.3-16.7 2.3-25.1.3-32.1.1-64.2.1-96.4 0-17.6 0-17.6-17.4-17.1-10.3.3-10.8.6-10.9 10.8-.2 18.6-.1 37.2-.2 55.8.1 0 .1 0 0 0z"/></svg>