<svg xmlns="http://www.w3.org/2000/svg" viewBox="0 0 1000 1000" style="enable-background:new 0 0 1000 1000" xml:space="preserve"><path d="M324.9 533.5c0 13.1.2 26.1 0 39.1s.9 26.1-.9 39.7h-11.9c-.4-.4-.7-.6-.9-.9-.2-.3-.6-.5-.6-.8-.3-2-.7-4.1-.7-6.1 0-69.2.1-138.4.2-207.5 0-1 .5-1.9 1.1-3.8h11.9v28.4l1.8.3c2.7-3.8 5.1-8 8.2-11.5 15.7-17.8 35.5-23.6 58.8-21 30.4 3.3 47.4 21.4 57.4 48.5 10.3 28.1 8.5 55.5-3.6 82.5-9.8 21.7-26.9 33.3-50.3 37-17.3 2.7-33.9 1.1-49.2-7.6-7.4-4.4-13.7-10.5-21.3-16.3zm116.5-62.3c-.6-4-1.1-10.9-2.6-17.5-2.4-10.8-6.2-21.3-13-30.2-12.6-16.4-29.3-22.7-49.9-20.9-22 2-37.2 13.1-44.9 33.1-9.1 23.5-9.4 47.8-2.2 72 7.1 23.9 24.8 35.3 48.3 37.6 21.2 2.1 38.8-5.9 50.8-23.9 9.5-14.3 13-30.4 13.5-50.2zm-299.3 29c.7 11.8-4.4 22-11.3 31-27.1 35.9-77.6 34.4-107 8.3-12.3-11-18.3-25.9-21.6-41.7-3.6-17.5-2.6-34.8 1.9-52.2 8.4-32.5 32.5-54.2 64.7-57.4 31.2-3.1 64.3 17.5 73.2 54.8 2.6 10.8 3.3 21.7 1.5 33.9-21.2 1.5-42.2.5-63.2.6-21.1.2-42.2 0-63.3 0-3.5 8.8-.6 16.8 1.4 24 8.2 28.5 25.7 41.7 53.8 43.7 24.1 1.7 44.7-12.5 53.4-35.1.9-2.3 1.7-4.6 2.9-6.6 3.2-5.6 4.8-6 13.6-3.3zm-14.4-38c4.4-25.5-18.1-56-42.9-58.9-38.8-4.6-64.5 17.2-68.5 58.9h111.4zm569 38.2c-1.4 31.4-30.9 55-57.1 57-10.5.8-20.7.6-30.8-1.7-23.5-5.4-39.1-20.3-47-42.7-10.6-30.1-9.1-59.8 5.7-88.3 9.6-18.6 25.2-30.4 45.6-34.5 26.6-5.3 50.2 1.2 68.4 22.2 4.9 5.6 9 12.4 11.6 19.4 5.2 13.9 6.9 28.6 7.7 44.6-4.4.4-8.4 1.1-12.4 1.1-35 .1-70 0-105 0h-10.8c-6.1 27.6 13.5 59.4 39.3 65.7 14.6 3.6 28.7 3.2 42.4-3.6 12.5-6.2 20.5-16.1 25.8-28.6 1.1-2.5 1.8-5.3 3.1-7.6 3.2-5.2 5.8-5.8 13.5-3zm-13.3-38c2-23.1-13.9-45.4-26.2-52.9-17.5-10.7-47.5-8.6-62.7 4.2-14.9 12.6-23 28.4-23 48.6 37.9.1 74.6.1 111.9.1zm36.9 49.3c3.3 15.6 11.4 28 25.6 36 19.1 10.7 39.9 11.3 60.6 8 8.6-1.4 17.3-5.3 24.9-9.8 11.7-7 17.5-18.4 18.4-32 1.1-16.5-7.2-36.5-30.9-42.2-14.5-3.5-28.8-7.3-43.2-11.3-7.7-2.1-15.5-4-22.7-7.4-20.2-9.5-15.6-34.9-3.3-41.7 18.9-10.4 38.7-12.5 58.9-4.7 12.2 4.7 19.4 14.1 21.5 27.2.4 2.3 1 4.6 1.7 7.6h10.5c5.2-17.5-5.2-37.1-22.6-45.1-26.3-12-52.4-11.6-77.7 2.9-13.7 7.8-20.4 24.8-16.8 40.3 2.7 11.9 8.6 21 20.7 25.3 10.4 3.7 20.7 7.8 31.3 11.2 13.2 4.2 26.6 7.5 39.8 11.9 9.8 3.3 16.6 9.7 17.6 20.8 1.1 12.6-2.9 22.7-14.3 28.7-21.5 11.2-43.2 11.2-64.7 0-10-5.2-16.1-13.9-19.9-24.3-1.4-3.8-2.3-7.8-3.6-12.3h-11.7c-.2 4.2-.8 7.7-.1 10.9zm273.8-74.1c.4-16-5.3-29.5-19.2-37.8-26.6-15.8-53.9-15.5-81.1-1.2-7.6 4-13 10.1-16.2 18.2-7 17.6-1.4 42 19.9 48.7 8.2 2.6 16.2 6 24.5 8.6 15.2 4.7 30.5 9.2 45.7 13.7 9.1 2.7 15.3 8.3 16.7 17.8 1.6 11 .3 21.4-9.5 29-25.6 19.9-68.9 15.5-86.4-18.8-2.5-4.9-4.5-10-7.1-15.7-3.7.3-7.2.6-10.7.8-.3 3-.6 4.7-.6 6.4 0 1.4 0 2.8.3 4.1 4.1 19.3 14.8 33.5 33.3 40.7 7.3 2.8 15.3 4.4 23.1 5.7 20.3 3.2 39.3-1.3 56.4-12.4 13.9-9.1 19.9-27.1 15.5-43-4.1-14.8-13.2-25.1-28-29.4-20.2-5.9-40.7-11.1-61.1-16.5-6.5-1.7-12.3-4.3-16.2-10.4-9-14.2-3.2-32 13-38.5 15.2-6.2 30.6-7.5 46.6-2.9 15.7 4.4 24.9 14.3 27.2 30.2.3 2.3 1.1 4.5 1.7 7.1h10.5c.7-1.9 1.7-3.1 1.7-4.4zm-731.3-36.2c-10.9 14.3-21.4 28.9-32.2 43.3-3 4.1-6.2 8-9.8 12.6-2.6-3.1-4.5-5-6.1-7.2-12-16.1-23.9-32.3-35.9-48.4-7.2-9.7-13.2-11.6-25.3-7.4 19.2 25.2 38.1 50 56.9 74.6-2.3 3.4-3.8 5.8-5.4 8-16.5 22.2-33.1 44.3-49.6 66.6-2.1 2.8-3.8 6-5.9 9.6 10 3.6 16.4.2 21.7-5.9 2.9-3.4 5.3-7.2 8-10.9 13.5-18.4 27-36.7 41-55.8 3.7 5 7 9.4 10.2 13.8 12.4 17.1 24.7 34.2 37.1 51.3 6.6 9.1 12.8 10.9 23.8 7-1.2-2.1-2.3-4.2-3.6-6-17-22.7-34.1-45.3-51.1-68-6.6-8.8-6.5-9.3 0-17.9 14.4-19 28.9-38 43.3-57 2.2-2.9 4-6.1 6.1-9.4-10.9-3.7-16.3-2.1-23.2 7.1zm218-4.7c-.1 49.4-.2 98.9-.2 148.3 0 2.4.4 4.8.7 7.2 0 .3.4.5.6.8.2.3.5.5 1.4 1.5 3-.2 6.5-.5 10.8-.8v-12.6c0-25.6-.1-51.2 0-76.8.2-26.2 16.4-52 47-57.6 4.7-.9 9.4-1.6 14.5-2.5v-12.1c-25.2-.3-45.3 8.5-62.2 26.9v-26.2H482c-.6 2-1.2 2.9-1.2 3.9z"/></svg>