<svg xmlns="http://www.w3.org/2000/svg" viewBox="0 0 1000 1000" style="enable-background:new 0 0 1000 1000" xml:space="preserve"><path d="M497.8 999.9c-21.6 1.2-41.7-5.9-60.8-16-31.5-16.7-62.9-33.6-94.3-50.6-49.4-26.7-98.7-53.6-148-80.4-13.7-7.4-27.5-14.7-41.3-22.1-3.1-1.7-6.4-3.3-9-5.6-4.8-4.2-5.3-9.1-1.4-14.2 2.4-3.2 5.5-5.9 8.3-8.7 195-195 390.1-389.8 584.6-585.3 17.8-17.9 31.8-11.4 36.8 10.3 4.6 19.9 7.7 40.1 11 60.3 3.4 20.6 6.4 41.3 9.5 61.9 4.1 26.8 8 53.6 12.1 80.4l8.7 56.7c4.2 27.2 8.4 54.4 12.7 81.6 6 38.6 12.1 77.2 18.1 115.9 4.7 30.3 9.1 60.6 13.9 90.9 4.3 27.6-7 47.7-30.2 61.6-13 7.8-26.2 15.2-39.6 22.4-43.6 23.4-87.3 46.5-131 69.8-37.8 20.1-75.5 40.4-113.2 60.5-14.5 7.6-29.9 11.4-46.9 10.6zM178.5 621.4c5.4-9.7 10.7-19.5 16.1-29.3 17.1-31.3 34-62.7 51.2-93.9 27.3-49.6 54.8-99.1 82.1-148.6 17-30.8 33.9-61.7 50.8-92.6 8.1-14.8 16.2-29.6 24.6-45-4.8-8.8-9.5-17.3-14.1-25.9-28.2-52.7-56.3-105.4-84.6-158-3.4-6.3-7-12.5-11.2-18.2-4.2-5.8-9.3-11.6-17.7-9.5-7.6 1.9-11.4 8.1-13.8 15.1-.7 2.1-.8 4.4-1.2 6.6-1.4 8.3-2.7 16.7-4.1 25-3.9 23.2-7.9 46.4-11.6 69.7-4.9 31.2-9.4 62.4-14.4 93.5-5.9 36.9-12.1 73.7-18 110.5-5.7 35.5-11.2 71.1-16.8 106.7-4.1 25.9-8.4 51.7-12.7 77.6-5 30.7-10.5 61.3-14.9 92.1-1.5 10.2-6.4 20.6-1.9 32 7.4.9 9.8-3.6 12.2-7.8zm243.8-348.5c-10.6 19.1-21.1 38.3-31.6 57.4-15.9 28.9-31.7 57.9-47.7 86.7-21.6 39-43.2 78-64.9 116.9-12.3 22.2-24.7 44.4-37 66.7-11.8 21.5-23.6 43-35.3 64.5-1.9 3.6-5.7 7.4-1.7 12.4 7.1 1.8 10.1-4.3 13.9-8.1 91-90.8 181.8-181.7 272.7-272.6 2.8-2.8 5.3-5.8 8.4-9.3-23.5-41.3-44.3-83.5-68.8-125.6-3.4 4.7-6.1 7.6-8 11zm163.5 14.8c-20-36.3-39.9-72.7-60-108.9-2.6-4.6-5.7-9.1-9.2-13.1-9.4-10.6-25.2-10.8-33.6.6-10.7 14.7-19.5 30.7-26.7 47 13.1 24.1 25.5 47.3 38.2 70.3 12.8 23.1 24.3 47.1 38 69.2l57-57c-1.2-2.5-2.3-5.4-3.7-8.1z"/></svg>