<svg xmlns="http://www.w3.org/2000/svg" viewBox="0 0 1000 1000" style="enable-background:new 0 0 1000 1000" xml:space="preserve"><path d="M497.7 999.8c-22 1.3-41.8-6-60.9-16.2-28.7-15.3-57.3-30.8-86-46.2-42.3-22.9-84.6-45.8-127-68.7-24-13-47.8-25.7-71.8-38.7-2.4-1.2-4.8-2.4-6.8-4.2-5.5-4.6-6.2-9.4-1.7-15.1 4-5.4 8.2-10.6 12.9-15.4C349 602.5 541.7 409.6 734.6 216.9c2.8-2.8 5.8-5.6 9.2-7.6 10.3-5.9 19.4-3.6 24.4 7.1 3.5 7.5 6 15.8 7.5 24.1 5.8 34.6 11 69.2 16.5 103.8 6 37.6 12.3 75.3 18.1 113 5.9 38.2 11 76.5 16.7 114.6 5.8 37.8 12.2 75.3 18.1 113 4.7 29.9 9.5 59.6 13.5 89.5 3.9 29.1-4.7 48.2-31.7 63.1-30.4 16.7-61.1 33.2-91.6 49.8-41.1 22.4-82.2 44.7-123.3 66.8-21.6 11.7-43.5 22.6-65.2 34.2-15.4 8.2-31.5 12.6-49.1 11.5zM157.2 723.1c5.5-9.6 10.7-19.6 16.1-29.2 22.8-41.2 45.8-82.5 68.4-123.9 18.2-33.2 36-66.6 54.1-99.8 25.3-46.5 50.9-92.9 76.3-139.4 7.2-13.3 15-26.3 22.2-39.6 8.7-15.9 17.1-32.1 25.8-48.6-12.5-22.9-24.8-45-36.7-67.4-24.9-46.7-49.4-93.8-74.6-140.5-5.6-10.4-12.7-20.4-20.5-29.5-6.3-7.5-14.3-6.8-20.5.8-3.2 4-5.6 9.1-6.7 14.2-3.1 14.7-5.2 29.7-7.6 44.6-2.9 17.5-5.8 35.1-8.6 52.5-5.1 32-10 64-15.1 95.9-3.9 24.5-7.8 49-11.8 73.5-4.2 25.8-8.4 51.7-12.7 77.4-2.8 17.5-5.9 35-8.6 52.5-4.8 31.1-9.2 62.3-14.2 93.3-4.8 30.7-10.3 61.2-15.3 91.9-5.2 31.5-10.7 62.9-15.1 94.6-1.5 10.2-6.4 20.6-1.3 33.6 3.1-3.1 5.2-4.7 6.4-6.9zm-9.2 63.8c122.4-122.8 244.7-245.8 367.8-369.5-9.6-17.9-18.9-35.6-28.4-53.3-9.4-17.3-19-34.3-28.3-51.6-9.2-17.4-17.8-35.1-29.1-52.1-1.9 2.4-2.8 3.3-3.5 4.4-17.8 31.9-35.6 63.8-53.3 95.6-27.9 50.2-55.7 100.4-83.4 150.8-20.2 36.7-40.2 73.4-60.5 110-28.4 50.9-56.9 101.8-85.4 152.7-2.3 4.2-5.5 8.6-.5 13.8 1.2-.1 3.5.1 4.6-.8zm457.1-463.1c-2.4-4.8-5.5-11.2-8.8-17.5-19-34.7-38.2-69.5-57.5-104.1-6.4-11.7-12.9-23.6-20.6-34.3-10-13.8-27.1-13-37 .8-2.5 3.6-4.8 7.5-7.1 11.4-9.8 17.5-19 35.2-29.3 52.5-4 6.6-4.3 11.1-.3 18.1 20.1 35.2 39.4 70.8 59.1 106.2 8.2 14.7 16.6 29.3 24.8 43.7 25.8-25.9 51-51 76.7-76.8z"/></svg>