<svg xmlns="http://www.w3.org/2000/svg" viewBox="0 0 32 32" style="enable-background:new 0 0 32 32" xml:space="preserve"><path d="m31.4 14.6-14-14c-.8-.8-2.1-.8-2.9 0l-2.9 2.9 3.7 3.7c1.3-.4 2.7.2 3.1 1.5.2.5.2 1.1 0 1.6l3.5 3.5c1.3-.4 2.7.2 3.1 1.5s-.2 2.7-1.5 3.1c-1.3.4-2.7-.2-3.1-1.5-.2-.6-.2-1.2.1-1.7l-3.3-3.3v8.7c1.2.6 1.7 2.1 1.1 3.3-.6 1.2-2.1 1.7-3.3 1.1-1.2-.6-1.7-2.1-1.1-3.3.3-.5.7-1 1.3-1.2v-8.8c-1.3-.5-1.9-1.9-1.3-3.2l-3.6-3.6-9.6 9.6c-.8.8-.8 2.1 0 2.9l14 14c.8.8 2.1.8 2.9 0l13.9-13.9c.7-.8.7-2.1-.1-2.9"/></svg>