<svg xmlns="http://www.w3.org/2000/svg" viewBox="0 0 500 500" style="enable-background:new 0 0 500 500" xml:space="preserve"><path d="M295.3 366.6c9.9-1.8 18.5-3.1 27.1-4.9 16.2-3.3 31.1-9.9 44.8-19.1 14.8-9.9 25.2-23.5 31.7-40.1 9.6-24.8 12.3-50.5 8.8-76.8-2.1-16.1-8.7-30.4-18.7-43.1-1.6-2-3.3-4-5.3-6.5 8.5-21.9 6.1-43.8-2.5-65.6-5.6-2-11.2-1.3-16.7.2-16.4 4.4-31.4 11.9-45.6 21.1-4.6 3-8.6 3.5-13.8 2.2-37-9.2-74.2-9-111.2.2-4.7 1.2-8.1.5-11.9-2-14.5-9.7-30.2-16.7-47-21.5-5.1-1.5-10.3-1.6-16.1-.7-8.7 21.6-11.1 43.6-2.4 66-4.3 5.1-8.4 10-11.7 15.5-8.7 14.5-13.2 30.2-13.7 47.2-.6 23.3 2.4 45.8 11.7 67.4 8 18.6 21.1 32.3 38.7 42.1 16.6 9.2 34.5 14.3 53.2 16.6 3 .4 5.9 1 9.6 1.6-2.5 3-4.5 5.3-6.3 7.8-4.4 6.3-7.1 13.4-8.3 20.9-.6 3.9-2.4 5.6-5.9 6.9-11.4 4.2-23.1 5.6-35 3.7-11.3-1.8-19.9-8.6-26.8-17.4-3.1-3.9-5.5-8.3-8.4-12.3-8.5-11.8-19.7-19.7-34.3-22-4.2-.7-9.7-1.4-11.7 2.6-2.3 4.6 2.7 7.8 6 10 8.6 5.5 15.6 12.3 21 20.8 3.8 6 6.9 12.4 9.6 19 6.6 16.1 18.9 25 35.6 28.3 15.7 3 31.5 3.4 47.1.2 1.4 1.8 1.1 3.5 1.1 5.1.1 13 .3 26.1.2 39.1 0 12.4-7.5 17.8-19.2 13.8-38.5-13.3-72-34.5-100-64.3-19.9-21.3-36.2-45-48.1-71.7-10.4-23.3-16.7-47.7-19.4-73.1-2.1-20.2-2.1-40.3.4-60.3 4.2-33.3 14.9-64.5 32-93.4C56.2 92.2 86.2 62.1 124 40c27.3-16 56.5-26.5 87.8-31.1 39.8-5.8 79-3.1 117.2 9.8 54.8 18.6 98.4 52.2 130.4 100.6 17.3 26.2 29.2 54.7 35.5 85.4 5.2 25 6.2 50.3 3.9 75.7-1.9 21.1-6.4 41.6-13.6 61.5-9.7 26.5-23.8 50.5-41.6 72.4-29.9 36.8-67.3 62.9-112.1 78.4-9.4 3.3-16.9.3-19-7.7-.6-2.2-.5-4.7-.5-7.1 0-20.9-.1-41.8 0-62.6 0-7.1-.4-14.2-1.9-21.2-2-10.2-6.3-19.3-14.8-27.5z"/></svg>