<svg xmlns="http://www.w3.org/2000/svg" viewBox="0 0 500 500" style="enable-background:new 0 0 500 500" xml:space="preserve"><path d="M208.4 88.3C194 79.6 180.2 70.5 163.1 71c-6.3 12.3-7.1 28.7-2.4 44.3-21.4 25-20.8 53.5-10.7 82.4 11.2 31.9 38.7 40.8 67.9 44.7-3.3 7.4-6.6 14.7-10.3 23-16.6 8.9-35.4 4.2-46.2-12.7-5.4-8.4-11.8-15.2-21.7-17.9-4.9-1.3-8.6-.8-12.9 2.3 2.2 2.2 4 4.7 6.4 6.2 8.3 5.3 14.2 12.7 17.7 21.7 7 17.9 20.9 24.6 38.8 25.1 6.1.2 12.3-.9 18.9-1.5.1 1.4.3 2.8.3 4.2.1 8.2.1 16.3.1 24.5 0 8.5-5 12.1-13.2 9.4-18.3-6.1-34.9-15.3-49.9-27.5-34.2-27.8-54.9-63.5-61-107.1-9.8-70.8 25-137.7 86.7-170.3 92.2-48.7 203.5-3.9 237 94.7 28.8 85-17.6 179.9-102.4 209.8-8.8 3.1-15.4.3-15-10.7.6-13.9.1-27.8.2-41.6.1-11.4-2.3-22-10.5-30.9 8.3-1.9 16.4-3.2 24.3-5.5 29.4-8.4 46.3-28.6 49.9-59.1 1.9-16.1 2.5-32-5.2-46.9-2.9-5.6-6.7-10.8-10.3-16.7 4.6-14 3.7-28.5-2.2-43.7-17.5-.5-31.4 8.7-45.6 17.3-27.7-7.3-55.5-7.5-83.4-.2zM86.2 366.5c-11.2-3.5-22.8-4.3-34.4-3.6-25.1 1.5-41 13.9-47.5 37.2-5.4 19.3-5.8 39-1 58.6 4.5 18 15 31 33.5 36.2 13.6 3.8 27.3 4.2 41.1 1.2 7.3-1.6 14.4-4 20.2-8.2V421H52.8v24.3h17.6v25.8c-4.6.2-8.9.6-13.3.6-13.6.1-21.9-5.8-25.7-18.8-4.3-14.6-4.3-29.3 0-43.9 2.9-9.8 9.3-16.8 19.5-18.5 6.8-1.2 14-1 20.9-.6 5.3.3 10.4 1.9 16.4 3 1.8-7.6 3.6-15.1 5.5-23.1-2.8-1.3-5.1-2.5-7.5-3.3zm199 1.5v46.9h-36.9V368h-27.2v127h27.5v-54h36.7v54h27.2V368h-27.3zm151.2 127c.7-2.2 1.2-3.8 1.8-5.3 3.5 1.8 6.6 3.7 9.9 4.9 3.5 1.3 7.2 2.3 10.8 2.8 19.8 2.3 32.5-3.8 37.5-21.4 4.3-15.2 4.8-30.6 1.2-46-2.9-12.3-9.9-21.3-23.1-23.7-8.8-1.6-17.5-.6-25.9 3-1.3.5-2.6 1-4.6 1.7v-42.8h-27.2V495h19.6zm19.1-66.5c8.4-1.2 13.4 2.2 15.5 10.5 2.3 9.2 1.8 18.4-.3 27.6-1.4 5.9-4.3 8.6-10.3 8.5-5.4-.1-10.7-1.5-16.2-2.3v-41.1c3.9-1.2 7.5-2.7 11.3-3.2zm-78.3 43.4c-5.1 1.2-9.8 2.9-14.7 3.3-6.3.5-9.2-2.4-10.2-8.7-.3-1.9-.3-3.9-.3-5.9v-46.5c0-1.7-.2-3.5-.3-5.2h-27.4v55.8c0 3.3-.1 6.6.3 9.8 1.4 11.8 8 19.6 19.1 22.1 12.5 2.8 24.6 1.4 36.1-4.4 1.5-.8 3.1-1.4 4.7-2 .6 2 1.1 3.5 1.6 4.9h18.2v-86.3h-27.1v63.1zm-214.7-35c.1 12.1 0 24.2.4 36.2.2 7.3 3.1 13.6 8.8 18.4 7.9 6.8 27.7 8.4 37.7 2.8v-19.2h-7c-10.3-.1-13-3.7-12.7-11.9.2-5.1 0-10.1 0-15.2v-16.9h19.2v-23.2h-19.6v-24.3h-26.9v25c-5 1.4-9.6 2.6-14 3.8V431h14c.1 2.4 0 4.2.1 5.9zm-23.4-28.2h-26.9v86.2h26.9v-86.2zM126 370.5c-8.6 0-15.3 6.9-15.3 15.6.1 8.4 6.9 15.4 15.1 15.4 8.4 0 15.4-7.2 15.3-15.7 0-8.3-6.8-15.2-15.1-15.3z"/></svg>