<svg xmlns="http://www.w3.org/2000/svg" viewBox="0 0 500 500" style="enable-background:new 0 0 500 500" xml:space="preserve"><path d="M250.3.1C387.8-.4 500.2 112.6 500 250.4c-.2 137.4-112.8 249.9-250.6 249.6C112 499.7-.7 386.9 0 248.7.7 111.8 112.8-.7 250.3.1zm-44 351.9c-1.3-1.5-2.6-1.4-3.9-1.5-11.8-1.4-23.4-3.9-34.6-7.8-27.1-9.4-46.6-26.9-56.5-54.2-6.1-16.7-8-34-7.9-51.7.1-21.7 6.9-40.9 20.6-57.6 1.9-2.4 2.5-4.2 1.5-7.3-5.6-18.2-3.8-36.1 2.3-53.9.9-2.7 2.5-3.7 5.3-3.7 4.8 0 9.5.7 14.1 1.9 14.4 3.7 27.3 10.6 39.5 18.7 3.8 2.5 7.1 3.1 11.6 2 34.6-8.4 69.2-8.4 103.7.4 3.2.8 5.7.6 8.6-1.4 10.6-7.2 21.9-13.4 34-17.6 6.8-2.4 13.6-4.1 20.9-4 3.1 0 4.6 1.2 5.5 4.1 4.9 14.4 7.1 29.1 4.5 44.3-.8 4.5-2.1 8.9-3.1 13.2.1.3.2.5.3.6l2.4 3c11.9 14.6 18.7 31.4 20 50.1 1.2 16.3-.2 32.5-4.3 48.4-7.6 29.3-24.8 50.5-53.1 62.1-9.1 3.8-18.6 6.4-28.3 8.2-5.6 1-11.3 1.9-17.8 3 5 5.2 8.3 10.6 10.6 16.7 3.4 8.9 4.4 18 4.3 27.4-.2 20.1-.1 40.3-.1 60.4 0 9.3 6.4 14 15.4 11.4 2.6-.8 5.2-1.7 7.8-2.6 98.8-37.6 156.6-135.3 147.5-234.9-2.1-22.5-7-44.3-15.4-65.3C429.4 82.7 352.1 24.6 260 20c-22.6-1.1-44.9 1.2-66.8 6.9-31 8-59.3 21.7-84.4 41.7C55 111.7 26 167.9 21.2 236.4c-1.8 25.1 1 50 7.9 74.4C43.4 361 71.3 402.1 113 433.5c19 14.3 39.9 25 62.2 33.1 8.4 3.1 18.1-.9 17.4-12.5-.7-10.4-.2-20.9-.2-31.3 0-1.6.4-3.3-.7-4.9-.8.1-1.7.2-2.6.4-9 1.7-18.2 2.4-27.3 1.5-22-2.2-38.1-12.8-46.7-33.7-.8-2-1.7-4-2.7-6C107 368.8 99.9 359 89 352.4c-2.5-1.5-4.8-3.4-6.6-5.8-2.3-3.1-1.6-5.7 2-6.8 2.8-.8 5.6-1.4 8.7-.9 7.6 1.1 14.4 4 20.4 8.7s10.5 10.6 14.5 17c6.7 10.9 15.8 18.7 28.4 21.7 11.8 2.8 23.2.6 34.3-3.8 2.1-.8 2.5-2.2 2.8-4.1 1.9-9.8 5.7-18.9 12.8-26.4z"/></svg>