<svg xmlns="http://www.w3.org/2000/svg" viewBox="0 0 500 500" style="enable-background:new 0 0 500 500" xml:space="preserve"><path d="M70.4 290.6v-25.8H52.9v-24.2h45.2v67c-6 4.4-13.5 7-21.2 8.5-11.9 2.2-23.9 2.2-35.7-.3-19.9-4.2-32.3-16.5-37.4-35.9-5.2-20-5-40.2.6-60 6.5-22.9 20.8-34.4 44.7-36.8 12.5-1.3 24.9-.4 37.1 3.3 2.5.7 4.8 2 7.7 3.2-1.9 8-3.8 15.6-5.5 22.9-7.2-1.2-13.3-2.5-19.6-3.1-4.5-.4-9.2-.3-13.7.2-12.5 1.2-20.4 8.1-23.7 20-3.9 14.2-3.8 28.6.1 42.8 3.7 13.1 12.1 19.1 25.7 19 4.3-.3 8.6-.6 13.2-.8zm177.8-102.8h-27v126.9h27.4v-54.1h36.6v54.1h27.1v-127h-27.2v46.9h-36.9v-46.8zm168.6-.1v127h19.6c.6-2 1.1-3.6 1.7-5.7 9.7 6.8 20.2 8.9 31.4 8.3 12.1-.6 21.2-5.9 25.3-17.4 6.5-18.1 7-36.7 1.2-55-4-12.8-14.3-19.3-27.7-19.7-8.3-.3-16 1.8-24.1 5.3v-42.9c-9.5.1-18.2.1-27.4.1zm30.5 62.6c14.5-6 23.3-1.1 24.5 14.4.5 6.8-.1 13.7-1 20.5-.9 6.6-4.6 9.2-11.3 9.6-5.4.3-10.9-1.2-15.5-4.3V252c1.2-.5 2.2-1.2 3.3-1.7zm-43.2-21.9h-27v62.1c-1.9 1-3.4 1.9-5.1 2.5-1.5.6-3 1-4.6 1.3-11.1 2.2-15.2-1-15.3-12.2-.1-15.9 0-31.7-.1-47.6 0-2-.4-4-.5-5.9h-27.3c0 21.9-.7 43.2.3 64.5.7 14.3 8.5 21.8 21.9 23.7 10.9 1.6 21.8.9 32-4.3 1.8-.9 3.7-1.8 5.7-2.7.8 1.9 1.4 3.5 2 5H404c.1-29.2.1-57.6.1-86.4zm-195.1-.7h-19.6v-24.4h-26.9v25c-5 1.4-9.5 2.6-13.9 3.9V251h13.8v6.4c0 10.9-.1 21.8.1 32.7.2 8.4 2.7 16 9.6 21.4 8.4 6.7 27.6 8 37.2 2.6v-19.3c-4.5-.2-8.5-.2-12.4-.7s-6.7-3-6.8-6.9c-.3-11.9-.1-23.8-.1-36.2h19.2c-.2-7.9-.2-15.2-.2-23.3zm-96.9 86.9c9.1.9 17.7.7 27 .1v-86.8h-27v86.7zM126 190.2c-8.4-.1-15.4 6.9-15.5 15.3 0 8.4 6.9 15.5 15.2 15.6 8.4.1 15.4-6.8 15.4-15.4.1-8.5-6.6-15.4-15.1-15.5z"/></svg>