<svg xmlns="http://www.w3.org/2000/svg" viewBox="0 0 1000 1000" style="enable-background:new 0 0 1000 1000" xml:space="preserve"><path d="M366.2 77c24.9 0 49.8.7 74.7-.2 16-.6 24.5 5.1 29.5 20.8 44.5 138.1 89.7 276 134.5 414 41.3 127.2 82.5 254.4 123.5 381.7 7.7 24 6.2 25.7-18.8 25.8-39.8.2-79.7-.4-119.5.3-16.1.3-24.5-5.9-29.3-21.4-20.3-65.2-42-129.9-62-195.2-5.1-16.6-13.2-22.6-30.2-22.4-71.9.7-143.7.7-215.6 0-16.4-.1-23.8 5.8-28.3 21.6-18.3 63.6-38.5 126.6-56.7 190.2-5.6 19.5-14.7 28.3-35.8 27.4-34.8-1.5-69.7-.3-104.6-.4-29.6-.2-31.9-3.3-23.1-30.8C35 793.6 65.8 698.9 96.2 604c53.9-168 107.7-335.9 160.9-504.1 5.5-17.4 14.4-24 32.2-23.2 25.6 1.1 51.3.3 76.9.3zm95.2 481c-34.8-114.7-69-227.3-102.4-337.1-32.4 110.4-65.4 223-98.9 337.1h201.3zm371 333c0 25.4 2.7 28 28.4 28.1 36.3.2 72.6-.4 108.8.2 18.1.3 25.5-6.7 25.5-25.1-.3-187.8-.3-375.5 0-563.3 0-17.9-7.4-23.6-24.4-23.3-37 .7-74 .1-110.9.2-25.8.1-27.4 1.7-27.4 28.4-.1 91.7 0 183.5 0 275.2 0 93.2-.1 186.4 0 279.6zm80.4-834.5c-46.5.7-87.9 40.4-88.5 84.7-.6 48.5 37.4 86.2 87.1 86.3 52.3.2 88.5-33.8 88.6-83.2.1-50.9-37.3-88.6-87.2-87.8z"/></svg>