<svg xmlns="http://www.w3.org/2000/svg" viewBox="0 0 1000 1000" style="enable-background:new 0 0 1000 1000" xml:space="preserve"><path d="M500 1000c-109.2 0-218.4.1-327.6 0-88.9-.1-157-58-171-145.5-1.3-8-1.3-16.2-1.3-24.3C0 610.1-.1 390 .1 170 .1 73.8 73.8.2 169.9.1 389.9 0 610 0 830 .1c96.2.1 169.8 73.7 169.9 169.8.1 220.1.1 440.1 0 660.2-.1 96.1-73.7 169.6-169.8 169.9-55.2.1-110.4 0-165.7 0H500zM218.2 739.9c5.6.5 9.4 1.2 13.3 1.2 19.5.1 39-.4 58.5.2 9.7.3 14.5-2.8 17.3-12.5 10.6-36.2 22.5-72.1 32.9-108.4 3.1-10.8 8.5-13.9 19-13.8 41 .4 82 .5 123-.1 11.6-.2 17.6 3.4 21 14.9 10.7 35.8 22.7 71.1 33.6 106.8 2.8 9.3 7.5 13.2 17.4 12.9 17.4-.6 34.9-.1 52.4-.1 24.2 0 24.2 0 16.5-23.4-21.7-66.4-43.4-132.7-65-199.1-25.9-79.5-51.8-159-77.4-238.6-2.7-8.5-7.3-11.4-15.9-11.2-23.5.4-47.1 0-70.6.2-27.6.2-24-3.3-32.4 23.1-40.4 126.4-81.2 252.7-121.9 379-7.2 22.5-14.2 44.9-21.7 68.9zm476.8-168c0 51.5.2 103-.2 154.5-.1 11.1 3.6 15.3 14.8 14.9 18.2-.6 36.5-.4 54.8-.1 9 .2 13.3-2.7 13.3-12.5-.2-104.6-.2-209.3 0-313.9 0-8.8-3.3-12.5-12.2-12.3-18.2.3-36.5 0-54.8.1-14.9.1-15.7.8-15.7 16v153.3zm42.5-313c-29-.3-46.9 16.2-47.3 43.6-.4 26.7 17.8 45.5 44.2 45.9 28.3.4 47.7-17.1 48.1-43.3.4-28-17-45.8-45-46.2zm-321.2 83.9c-18.4 63.5-36.8 127.1-55.3 190.6-2.8 9.7 2.1 11.1 10 11 32.9-.2 65.8 0 98.7-.1 13.2 0 14-1.4 10.1-14.3-18.2-60.6-36.4-121.3-54.6-181.9-1-3.3-2.5-6.4-4.8-12.3-2.6 4.3-3.7 5.6-4.1 7z"/></svg>