<svg xmlns="http://www.w3.org/2000/svg" viewBox="0 0 1000 1000" style="enable-background:new 0 0 1000 1000" xml:space="preserve"><path d="M130 161.8c-3.8 10-7.7 20-11.5 30-26.8 70.6-32.1 143.1-18 216.9 18.2 94.9 59.1 178.7 124.1 250.6 67.8 75 149 130.1 244.6 163.5 44 15.3 89.5 23.6 136.2 26.6 68.7 4.4 135.9-1.7 201.1-24.2 47.8-16.5 90.5-41.7 127.5-76.4 10.3-9.7 20.7-19.3 31.1-28.8 3-2.7 6.4-4.9 9.6-7.3.7.6 1.5 1.2 2.2 1.9-4.5 8.1-9 16.2-13.6 24.3-45.2 80.2-107.1 143.7-189.6 186.1-50.3 25.9-104.2 41.2-160.3 46.8-81.1 8.1-161.5 4.3-239.2-23-67.6-23.8-127.7-60.9-182-107.2-49.1-41.9-91.3-89.8-123-146.3C19.7 607.2-6.4 513.1 1.4 411.6 6.6 343 32 281.2 73.7 226.4c15.8-20.8 32.9-40.7 49.4-61 1.4-1.8 3.4-3.1 5.1-4.7.6.4 1.2.7 1.8 1.1zm252-90.5c-3.9 5.2-7.9 10.4-11.7 15.7-22.4 31.4-46 61.9-60.5 98.2-27.1 67.8-24.6 136.1-3.7 204.7 21.3 69.9 60.7 128.2 116 175.5 39.7 34 83.3 62.6 133 80.1 60.7 21.3 123.4 24.3 186.6 15.4 119.9-16.9 205.9-79.7 256.4-190 1-2.2 1.3-4.7 2-7-.9-.6-1.8-1.2-2.7-1.7-12.1 12.3-23.7 25.1-36.2 36.9-31.7 29.8-68.7 50.7-110.2 63.8-55.4 17.6-111.4 16.8-167.9 5.8-84.8-16.5-158.8-53-218.6-116.1-31.4-33.1-56.3-70.9-76.2-111.8-21-43.2-33.2-88.7-33.3-136.9-.1-42.3 10.2-82.6 26.7-121.4 1.3-3.1 2.5-6.2 3.7-9.3-1.3-.7-2.4-1.3-3.4-1.9zm584 213c-4.3 3.5-8.9 6.7-13 10.4-27.5 25-59.7 39.3-96.9 40.4-86 2.5-160.3-24-217.4-90.6-27.1-31.6-47-67.1-55.3-108.4-6.3-31.2-4.1-61.8 4.8-92.2 1.8-6 3-12.2 4.5-18.3-1-.4-1.9-.8-2.9-1.2-4.4 5.8-8.7 11.6-13.1 17.5-47.4 64.3-51.4 133.1-18.5 204.1 42.3 91.2 145.5 157.3 253.3 145.4 57-6.3 103.3-30.3 138.2-75.7 7-9.2 12.8-19.2 19.2-28.9-1-.8-2-1.7-2.9-2.5z"/></svg>