<svg xmlns="http://www.w3.org/2000/svg" viewBox="0 0 1000 1000" style="enable-background:new 0 0 1000 1000" xml:space="preserve"><path d="M996 499.9c0 140.3.1 280.5 0 420.8 0 47.9-26.7 76-74.6 79-6.9.4-13.9.2-20.9.2H100.7c-9.6 0-19.2.3-28.7-.9-41.8-5.2-67-33.3-67.7-75.7-.5-30.5-.1-61-.1-91.5V92.1c0-7.8-.4-15.7.2-23.5C7.2 34.1 30 8.5 64.3 2.3 75.3.3 86.8.1 98.1.1 366.4 0 634.8 0 903.1 0c7.8 0 15.7-.3 23.5.4 43.3 4.1 69.3 32.4 69.4 76 .1 141.2 0 282.3 0 423.5zm-458.4-56.7c0-14.7-.5-26.9.1-39 .7-12.7-2.8-19.3-17.3-19-38.3.7-76.7.7-115 0-14.8-.3-17 6.8-17 19.3.2 137.7.2 275.3-.3 413-.1 15.3 5.8 19.2 19.9 18.9 34.8-.7 69.7-.1 104.5-.2 24.8-.1 25-.2 25-26.3.1-74.9.2-149.9 0-224.8-.1-29.6 9.2-54.7 32.3-73.9 42.1-34.9 101.9-18.8 117.6 33 6.2 20.4 8.6 42.7 9 64.1 1.1 67.1.4 134.2.4 201.3 0 26.3.2 26.4 24.9 26.5 34 .1 68 .2 101.9 0 21.4-.1 21.7-.4 21.8-21.4.2-72.3.5-144.6-.2-216.9-.3-26.9-1.1-54.2-5.7-80.5-10.7-61.2-41.2-109.6-102.2-131.1-69.2-24.5-149.6-10.6-191.9 52.6-.7 1-2.7 1.5-7.8 4.4zM154.2 611.6c0 67.9.4 135.8-.3 203.7-.2 15.6 3.8 21.6 20.3 21.1 37.4-1.1 74.9-.9 112.3-.1 15.1.3 19.4-5.6 19.3-19.9-.3-136.7-.4-273.4.1-410.1.1-15.7-4.7-21.7-20.9-21.3-35.7.9-71.4.1-107.1.3-23.5.1-23.6.3-23.7 25.1v201.2zm74.9-288.4c42.9.2 74.3-21.4 83-57 13.4-54.5-24.4-98.4-83.8-97.4-49.5.9-81.8 32.4-80.9 79 .8 45.3 33.2 75.2 81.7 75.4z"/></svg>