<svg xmlns="http://www.w3.org/2000/svg" viewBox="0 0 128 128" style="enable-background:new 0 0 128 128" xml:space="preserve"><path d="M0 71.5h4.5V53.7l7 15.5c.8 1.9 1.9 2.5 4.2 2.5s3.3-.7 4.1-2.5l7-15.5v17.8h4.5V53.7c0-1.7-.7-2.6-2.1-3-3.4-1.1-5.7-.1-6.8 2.2l-6.8 15.3-6.7-15.3c-1-2.3-3.3-3.2-6.8-2.2-1.4.4-2.1 1.3-2.1 3v17.8zM35 57h4.5v9.8c0 .5.2 1.8 2.6 1.8h9.8V56.9h4.5v16c0 3.9-4.9 4.8-7.1 4.8H35.1v-3h14.3c2.9-.3 2.6-1.7 2.6-2.2v-1.2h-9.6c-4.5 0-7.3-2-7.3-4.2-.1-.2 0-10-.1-10.1zm24.9 14.5h13c1.5 0 3-.3 4.2-.9 1.9-.9 2.9-2.1 2.9-3.7v-3.3c0-1.3-1.1-2.5-3.2-3.3-1.1-.4-2.5-.7-3.9-.7h-5.5c-1.8 0-2.7-.5-2.9-1.8v-2.9c.2-.9.7-1.2 2.3-1.3h13.3v-3H67.4c-1.8 0-2.8.1-3.6.4-2.7.8-3.9 2.2-3.9 4.5v2.6c0 2 2.3 3.8 6.2 4.2.4 0 .9.1 1.3.1h5.2c1.4.1 2 .4 2.5.9.3.3.3.5.3.8v2.6c0 .3-.2.7-.6 1.1-.4.3-1 .6-1.9.6h-13v3.1zm48.1-5.3c0 3.1 2.3 4.8 6.9 5.2.4 0 .9.1 1.3.1H128v-3h-11.8c-2.6 0-3.6-.7-3.6-2.3V50.7H108v15.5zm-25.2.2V55.7c0-2.7 1.9-4.4 5.7-4.9.4-.1.8-.1 1.2-.1h8.6c.4 0 .8 0 1.3.1 3.8.5 5.7 2.2 5.7 4.9v10.7c0 2.2-.8 3.4-2.7 4.2l4.4 4h-5.2l-3.6-3.2-3.6.2h-4.8c-.8 0-1.7-.1-2.6-.4-3-.8-4.4-2.3-4.4-4.8zm4.9-.3c0 .1 0 .3.1.5.3 1.2 1.4 1.9 3.2 1.9h4.1l-3.8-3.4h5.2l3.3 3c.6-.3 1-.8 1.1-1.4V55.5c-.3-1.2-1.4-1.8-3.2-1.8H91c-2 0-3.3.9-3.3 2.2v10.2z"/></svg>