<svg xmlns="http://www.w3.org/2000/svg" viewBox="0 0 1000 1000" style="enable-background:new 0 0 1000 1000" xml:space="preserve"><path d="M532.7 621.8c-.3-4-.7-7.6-.7-11.2-.1-29.5.4-58.9-.3-88.4-.3-11.2 4.6-18.2 13.3-23.3 25.5-14.8 51.1-29.3 76.7-43.9 8.3-4.7 16.4-3.9 24.5 1.1 4.8 3 9.9 5.6 17 9.5V326.5c6-6.9 11.2-5.1 16.1-2.4 14.2 7.9 28.4 16.1 42.7 23.8 8 4.3 11.9 10.8 12.1 19.8v8.2c0 75.3-.3 150.5.2 225.8.1 14.8-4.3 24.3-18.1 31.5-24.9 12.9-48.9 27.7-73.1 42-7.6 4.5-14.7 3.8-21.9-.3-9.9-5.6-19.5-11.5-29.3-17.2-16-9.4-32.1-18.6-48.1-28.1-3.9-2.3-7.4-5.2-11.1-7.8zm130.2-75.1c-8.1-4.7-14.9-9.3-22.2-12.7-3.8-1.8-9.4-3.4-12.8-1.9-9.4 4.1-18 9.9-26.8 14.9v35.7c10.4 6.1 20.8 12.1 31.2 18.2 8.5-4.9 16.7-8.8 24-14.1 3.2-2.3 5.9-7.1 6.3-10.9.9-9.3.3-18.8.3-29.2zM372.6 676c28.4-16 56.9-31.9 85.1-48.3 6.1-3.6 11.8-8.6 11.7-17.1-.1-31.3 0-62.5-.1-93.8 0-7.3-2.9-13-9.6-16.7-7.5-4.2-14.8-8.7-22.2-13.1-19.2-11.1-38.5-22.1-57.6-33.4-8.1-4.8-15.7-5.6-24.3-.5-25.2 15.1-50.7 29.9-76.2 44.6-8.2 4.7-12.4 10.8-12.2 20.7.5 28.1 1 56.2-.2 84.2-.6 14.3 3.5 23.6 17.3 28.2 2.5.8 4.6 2.8 7 4.2 25.1 14.4 50.3 28.8 75.1 42.9 3.6-1 5-1.3 6.2-1.9zm-167.9-38.7c.4-12.2.1-24.5.1-36.7 0-25.8-.1-51.7 0-77.5 0-12.8-3.9-22.5-16.9-28.1-9.9-4.3-18.9-10.6-28.4-16-14.9-8.6-30-17-44.8-25.7-8.3-4.9-16.1-5.3-24.3-.1-2.7 1.7-5.7 2.8-8.5 4.4-23.2 13.3-46.2 26.8-69.5 40C4.3 502.3-.1 508.1 0 518.2c.4 40.3.1 80.7.3 121 0 4.3 1.1 8.6 1.9 14.8 6.2-1.4 11.1-1.6 15.2-3.6 11.4-5.6 22.2-12.4 33.6-17.9 15-7.3 22.5-17.5 20.7-35.4-1.7-17-.4-34.3-.4-52.4 8.6-5.2 16.3-10.6 24.8-14.6 3.6-1.7 9.4-1.7 13 0 8.5 4 16.2 9.5 24.7 14.6v14.5c0 15.4.5 30.8-.2 46.2-.4 9.8 3.1 16.4 11.5 21.2 13.7 7.9 27.1 16.4 41 24.1 4 2.2 9.1 2.2 15.5 3.5 1.3-6.6 2.9-11.7 3.1-16.9zM990.6 548c2.9-1.7 5.6-5 6.9-8.1 6.6-16-.2-34-15.4-42.9-24.7-14.4-49.4-28.6-73.8-43.5-8.2-5-15.1-4-22.8.5-25.9 14.9-52 29.6-77.9 44.5-6.6 3.8-11.2 8.7-11.2 17.2.2 32.2.2 64.4 0 96.6 0 6 2.1 10.6 7.3 13.6 27.2 15.5 54.4 30.8 81.6 46.4 7.4 4.3 14.5 4 21.9-.1 14.7-8.1 29.7-15.7 44.3-23.8 3.3-1.8 5.8-5 10.4-9-31.4-23.2-66-37.4-96.3-58.1v-36.2c10.1-5.8 19.9-11.4 30.4-17.4 10.5 6 20.6 11.8 29 16.6 5.8 12.6-3.4 26.4 8.5 36.7 19.6-11.3 38.5-21.9 57.1-33zm-94.2 38.6c7.1-4.3 13.8-8.4 19.3-11.7v-24.5c-6.6-3.9-12.3-7.2-19.1-11.2-7 4.3-14.1 8.7-20.4 12.6v22.8c7.2 4.2 13.3 7.9 20.2 12z"/></svg>