<svg xmlns="http://www.w3.org/2000/svg" viewBox="0 0 1000 1000" style="enable-background:new 0 0 1000 1000" xml:space="preserve"><path d="M387.3 543.7v188.1c0 9.1 0 18.3-1 27.4-10.2 97.7-101.3 115.9-163 88.8-45.5-19.9-88.2-46.4-131.2-71.5-29.5-17.2-37.3-47.2-37.4-78.7-.5-132.1-.2-264.2-.2-396.3 0-39.6 17.6-67.9 52-87.6C222 147.6 337.3 80.7 452.6 13.8c31.9-18.5 63.3-18.3 95.1.2 115.8 67.2 231.6 134.4 347.7 201 34.7 19.9 50.3 49.4 50.2 88.6-.1 130.9 0 261.8-.1 392.7 0 40.5-16.7 70.1-53.1 90.7-113.8 64.5-227 130.2-339.8 196.5-35.7 21-69 22.7-104.4.4-34.5-21.7-70.2-41.5-105-62.8-5.6-3.4-9.3-10.1-13.9-15.3 5.6-4.1 10.9-8.8 16.9-12.2 5.8-3.2 13.4-3.7 18.5-7.6 23.6-17.8 44.2-11.7 65.8 4.6 15.5 11.6 33.8 19.4 49.9 30.2 12.7 8.5 23.6 8.9 36.9 1.1 50.9-30 102.2-59.1 153.4-88.6 60.6-35 121-70.3 182-104.7 13.8-7.8 20.1-16.6 20-33-.6-129.7-.6-259.4 0-389 .1-16.7-5.5-27-19.9-35.3-113-64.7-225.8-129.8-338.5-195-10.2-5.9-18.7-5.9-28.8 0-113.7 66.1-227.4 132-341.4 197.5-12.2 7-16.9 15.6-16.8 29.3.3 131.5.3 263-.1 394.5 0 13.9 4.7 22.6 16.9 29.2 25.7 13.9 50.1 30.3 76.4 42.9 15.9 7.6 34.3 12.9 51.8 13.8 24.9 1.2 39.4-14.7 40.6-39.7.9-19.4.4-39 .4-58.4V349.3c0-35.2 1.4-36.6 37.4-36.5 3.7 0 7.3-.1 11 0 21 .5 25.4 4.7 25.5 26.4.2 68.2.1 136.4.1 204.5zm269.5 201c45.8-4.1 91-11.2 128.6-40.7 41.1-32.3 55.2-75.3 47.7-126.4-6.8-46.4-36.8-71.9-78.7-83.9-35.6-10.1-72.2-16.5-108.5-23.8-37.5-7.5-75.3-13.5-112.7-21.6-13.5-2.9-24.2-11.5-25.1-27.6-.9-16.9 3.3-31.7 18.4-41 6.6-4.1 14.1-7.3 21.7-9.4 44.4-12.2 89.1-11.3 133.5-.1 21.9 5.5 41.2 18.3 46.2 40.1 7.8 34.3 29.6 38.7 58.1 35.4 3-.3 6.1 0 9.1-.1 19.6-.8 25.4-7.1 22.5-26.1-8.4-55.3-35.3-97.9-89.8-116.1-29.6-9.9-61.4-15.2-92.6-18.1-47.1-4.4-93.9 1.1-137.6 20.4-56.2 24.9-77.4 65.3-76.9 117.3.5 55.8 27.8 90.4 87.5 106.4 40.9 11 83.7 14.3 125.4 22.4 31.5 6.1 62.8 13.4 93.7 22.1 15.9 4.5 21.6 18.1 20.7 34.7-1.5 27.1-15.9 44.2-48.1 51.6-51.8 11.8-104 10.8-155.6-1.5-24.5-5.9-43.7-21.4-49.2-46.7-9.1-42.2-20.2-35.3-50.9-35.9-5.5-.1-11 0-16.4.2-13.4.3-19.8 6.9-19.7 20.6.5 44.1 16.5 80.7 52.6 107 49.4 35.9 106.9 40.5 165.3 41 10.1-.1 20.5.7 30.8-.2z"/></svg>