<svg xmlns="http://www.w3.org/2000/svg" viewBox="0 0 1000 1000" style="enable-background:new 0 0 1000 1000" xml:space="preserve"><path d="M980.4 550.9c0 111.7 0 223.4-.1 335.1 0 6.4-.4 12.8-1.3 19.1-4.7 32.6-21.6 49.7-54.5 54.2-15.8 2.1-31.7 3.1-47.6 4-65.5 3.9-130.9 7.6-196.4 11.5-75.4 4.6-150.7 9.4-226.1 14-53.1 3.2-106.2 6.2-159.2 9.2-15.9.9-31.9 1.3-47.8 2-27 1.1-47.9-10-64.1-31.2-18.3-24-36.7-47.8-55.1-71.7-24.4-31.7-48.9-63.4-73.3-95.2-14.1-18.4-27-37.5-32-60.6-1.8-8.2-3.1-16.8-3.2-25.2-.2-201.1-.1-402.2-.1-603.2 0-3.5 0-7.1.4-10.6 4.5-37.7 25.8-57 63.9-59.6 53.7-3.6 107.4-8 161.2-12 43.1-3.2 86.3-6.1 129.4-9.3 43.5-3.2 86.9-6.6 130.4-9.8 32.9-2.4 65.7-4.9 98.6-7 25.5-1.7 50.9-3 76.4-4.3 25.4-1.3 48.2 6.3 69 20.6 18.1 12.5 36 25.2 54 37.8 45 31.6 89.9 63.2 134.8 94.8 8.7 6.1 17.1 12.6 25.6 19.1 12.2 9.3 17.3 21.5 17.3 36.9-.3 113.7-.2 227.6-.2 341.4zm-67.1 4.2V271c0-4.6.1-9.2-.2-13.8-1.5-21.7-12.5-30.7-34.3-29.2-43.5 2.9-87 5.3-130.6 7.9-41.4 2.4-82.8 4.7-124.2 7.1-53.8 3.2-107.6 6.6-161.4 9.7-54.9 3.2-109.7 6.1-164.6 9.3-16.6 1-33.3 2.1-49.9 3.5-17.6 1.5-25.4 8.7-28.3 26-.8 4.9-1 9.9-1 14.8 0 191.5-.1 383 0 574.5 0 5.6.7 11.3 1.8 16.8 2.5 13.2 10.6 22.2 23.7 24 12.9 1.7 26.1 1.9 39.1 1.3 30.5-1.3 60.9-3.6 91.3-5.4 43.2-2.5 86.4-4.7 129.6-7.3 54.1-3.2 108.3-6.6 162.4-9.7 55.9-3.2 111.9-6.2 167.8-9.4 15.9-.9 31.9-1.8 47.7-3.6 16.8-1.9 26.1-10.6 29.4-27.4 1.5-7.6 1.6-15.5 1.6-23.3.2-93.7.1-187.7.1-281.7zM248.1 196.9c37.4-2.2 69.3-3.9 101.1-5.8 52.7-3.2 105.4-6.6 158.1-9.8 41.7-2.5 83.5-4.7 125.2-7.2 55.5-3.3 111.1-6.7 166.6-10.1 12-.7 24.1-1.3 36.1-2.3 2.5-.2 4.9-2 7.3-3.1-1.2-2.5-1.9-5.4-3.6-7.3-2.3-2.6-5.4-4.6-8.2-6.6-29.6-21.4-59.5-42.3-88.6-64.3-23.5-17.8-49.3-25.8-78.4-23.8-45.6 3.2-91.2 6.3-136.8 9.6-62.2 4.6-124.4 9.5-186.5 14-63.3 4.6-126.5 9-189.8 13.5-9.9.7-19.8 1.4-29.6 2.7-5.9.8-12.6 2.4-14.4 9.2-1.8 6.8 4.3 9.9 8.6 13.4 23 18.3 46.6 36 69 55 20.4 17.2 42.8 26 63.9 22.9zm445.4 446.2c-27-41.2-54-82.4-80.9-123.6-34.7-53.1-69.5-106.1-104.2-159.2-2.9-4.4-5.1-8.4-12.2-7.8-45.9 3.5-91.9 6.3-137.9 9.6-20 1.4-33.6 17.1-33.3 37.1.1 5.8 2.1 8.3 7.9 8.6 11 .6 21.9 2.1 32.9 2.3 7 .1 9.7 2.7 8.8 9.5-.2 1.4 0 2.8 0 4.3v357.4c0 2.1-.2 4.3 0 6.4.5 4.3-1.6 6.4-5.6 7.5-8.5 2.3-17 5.2-25.6 7.1-11.3 2.5-16.8 9.7-18.8 20.4-1.9 9.7 0 12 10.1 11.4 31.2-1.6 62.3-3.2 93.4-5 15.9-.9 31.9-1.7 47.6-3.8 15-2 26.3-10.1 31.5-25.1 2.4-7 1.5-8.6-5.8-10.3-14.8-3.5-29.6-7.2-44.6-9.9-6.6-1.2-8.6-3.9-8.5-10.5.2-90.1.1-180.1.2-270.2 0-2.1.6-4.2 1.2-8 2.8 4.3 4.6 6.9 6.3 9.5 58.8 92.3 117.6 184.7 176.6 276.9 6.5 10.1 14.3 19.4 21.8 28.8 14.3 17.9 33.6 22.4 55.3 19.9 18.2-2.1 34.9-8.9 51.3-16.5 6.7-3.1 9-7.1 9-14.5-.3-69.9-.2-139.7-.2-209.6V387.9c0-10.1.1-10.1 9.9-12.2 5.2-1.1 10.3-2.9 15.6-3.3 16.8-1.4 23.1-12.5 22.3-28.9-.5-9.1-1-9.5-10.2-8.9l-71.1 4.2c-18.4 1.1-36.8 2.2-55.2 3.7-17.1 1.4-29.9 14-30.9 29.7-.5 7.7.7 9.2 8.5 10.1 10.6 1.2 21.1 2.4 31.7 3.7 10.6 1.4 10.6 1.5 10.6 11.9v243.6c0 3-.3 6.1-.6 11.5-3.1-4.3-5.1-7.1-6.9-9.9z"/></svg>