<svg xmlns="http://www.w3.org/2000/svg" viewBox="0 0 1000 1000" style="enable-background:new 0 0 1000 1000" xml:space="preserve"><path d="M500 1000c-109.2 0-218.4.1-327.6 0-88.9-.1-157-58-171-145.5-1.3-8-1.3-16.2-1.3-24.3C0 610.1-.1 390 .1 170 .1 73.8 73.8.2 169.9.1 389.9 0 610 0 830 .1c96.1.1 169.8 73.7 169.9 169.8.1 220.1.1 440.1 0 660.2-.1 96.1-73.7 169.6-169.8 169.9-55.2.1-110.4 0-165.7 0H500zM202.8 500.1V718c0 15.1.7 15.7 15.9 15.8 16.6.1 33.3.1 49.9 0 16.1-.1 16.4-.4 16.4-16.3 0-49.1 0-98.2.1-147.3 0-13.8 2.2-13.9 15.8-14.1 29-.4 58.4-.3 87-4.5 38.7-5.7 73.2-22.6 98.6-53.2 31.6-38.1 37.3-83.4 27.8-130-11.6-57.1-50.5-89-105.8-101.5-62.3-14-125-8.5-187.6-1.5-18.3 2.1-18.2 2.8-18.2 21.7.1 71 .1 142 .1 213zM573 661.7c-4 14.6-7.6 29.9-12.5 44.8-3.1 9.3-.9 13.6 8.2 17.4 37.6 15.8 76.9 19.7 117 16.3 26.9-2.3 52.3-10.4 74.8-26.5 43.6-31.2 50.1-102.6 12.9-141.5-21.6-22.6-49.7-32.9-77.4-44.4-11.6-4.8-23.3-9.7-33.8-16.5-20.6-13.4-22.3-39.2-3.1-54.4 7.4-5.9 18.1-9.3 27.7-10.5 24.3-2.9 47.8 1.9 69.8 12.6 8.9 4.3 12.4 1.7 14.6-6.9 3.2-12.6 6.5-25.2 10.3-37.5 2.3-7.2-.2-10.9-7-12.4-23.2-5.2-46.3-13.1-69.8-14.9-44.1-3.5-84.4 7.2-115.6 42.1-31.1 34.8-31.1 91 3.5 122.1 16.5 14.8 37.5 25 57.2 35.8 15.6 8.5 32.8 14.1 48.5 22.4 14.7 7.8 20.3 21.7 18.5 38.1-1.8 16.4-12 25.9-27.1 31-18.7 6.3-37.7 6-56.4 1.1-19.8-5.4-39.3-11.9-60.3-18.2zM284.9 476.5c-.3 10.4 3.9 15.1 13.7 15.7 29.2 1.8 58.2 2.9 86.1-9.1 34.7-14.9 51.7-43.8 49.8-86.2-1.5-33.1-22.4-59.3-56.5-69.8-26.5-8.1-53.6-6.2-80.8-3.5-9.2.9-12.4 5.2-12.2 14.2.4 23.1.1 46.2.1 69.3 0 23.2.4 46.3-.2 69.4z"/></svg>