<svg xmlns="http://www.w3.org/2000/svg" viewBox="0 0 32 32" style="enable-background:new 0 0 32 32" xml:space="preserve"><path d="M9.3 13.6H8.1l-.7 3.5h1.1c.7 0 1.3-.1 1.7-.4.4-.3.6-.7.7-1.4.1-.6.1-1.1-.2-1.3-.2-.3-.7-.4-1.4-.4zm6.7-6C7.2 7.6 0 11.4 0 16s7.2 8.4 16 8.4 16-3.8 16-8.4-7.2-8.4-16-8.4zm-4.3 9.9c-.3.3-.8.6-1.2.7-.4.1-1 .2-1.7.2H7.1l-.4 2.2H4.9l1.6-8.4H10c1.1 0 1.8.3 2.3.8.5.6.6 1.3.4 2.3-.1.4-.2.8-.4 1.1-.1.5-.3.8-.6 1.1zm5.3 1 .7-3.7c.1-.4.1-.7-.1-.9-.1-.2-.4-.2-.9-.2h-1.5l-.9 4.8h-1.8l1.6-8.4H16l-.4 2.2h1.6c1 0 1.7.2 2.1.5.4.4.5.9.4 1.7l-.8 3.9-1.9.1zm10.1-3c-.1.4-.2.8-.4 1.1-.2.3-.4.7-.7.9-.3.3-.8.6-1.2.7-.4.1-1 .2-1.7.2h-1.6l-.5 2.3h-1.8l1.6-8.4h3.5c1.1 0 1.8.3 2.3.8.6.6.7 1.4.5 2.4zm-3.4-1.9h-1.3l-.7 3.5h1.1c.7 0 1.3-.1 1.7-.4.4-.3.6-.7.7-1.4.1-.6.1-1.1-.2-1.3-.1-.3-.6-.4-1.3-.4z"/></svg>