<svg xmlns="http://www.w3.org/2000/svg" viewBox="0 0 1000 1000" style="enable-background:new 0 0 1000 1000" xml:space="preserve"><path d="M103.7 641.2c-6.6 33-12.8 64.4-19.1 96.2H0c24.4-125.6 48.5-249.8 72.8-375 6.6-.9 11.9-2.2 17.3-2.2 41.1-.2 82.2-.9 123.2.3 23.5.7 47.4 2.3 70.3 7.4 48.1 10.7 74.1 43.1 76.4 92 2.4 50.1-12.9 94.4-47.8 130.6-24.8 25.9-55.9 42-91.8 44.9-34.5 2.9-69.3 2.7-104 3.9-3.8.2-7.7 1.1-12.7 1.9zm12.4-65c4.6.6 7.1 1.3 9.5 1.3 23.3-.8 46.7-.4 69.8-2.8 33.1-3.4 57.3-20.7 66.6-53.4 5.1-17.9 7.4-37 8.4-55.7 1.2-22.3-10.7-35.1-33.2-38.2-15.3-2.1-30.8-3.6-46.3-4.4-14.3-.7-28.6-.2-44.9-.2-9.7 50.1-19.6 101.1-29.9 153.4zm596.3-214.1c6.9-.8 12.3-2 17.7-2 40.7-.1 81.4-.5 122.1.2 19.9.3 40.1 1.1 59.6 4.6 61.2 11.2 91.5 49.9 88 112-3 53.9-25.5 98.2-69 131.1-25.3 19.1-54.4 28.5-85.7 29.9-29.5 1.3-59.1.5-88.6.9-3.9 0-7.8 1.5-13.1 2.6-6.4 31.9-12.8 63.6-19.3 95.8h-84.6c24.4-125.5 48.5-249.5 72.9-375.1zM755.8 576c4.2.7 6.3 1.5 8.4 1.4 23.6-.8 47.3-.7 70.8-3 29.6-2.8 53.9-16.6 63.6-45.9 6.6-20 9.8-41.6 11.5-62.7 1.8-22.3-10.4-35.2-32.7-38.4-15-2.1-30-3.7-45.1-4.4-15-.7-30-.2-46.7-.2-9.8 50.1-19.7 101-29.8 153.2zm-414.7 61.1h84c13.8-70.6 27.6-140.7 41.2-209.8 3-1.2 4-1.9 5-1.9 26.3-.1 52.6-1 78.8.3 18.7.9 25.7 10.2 25.2 29.3-.1 5.5-.8 11.1-1.8 16.5-8 42.1-16.2 84.3-24.2 126.4-2.5 13.2-4.7 26.5-7.1 39.9 3.4 1 5.2 2.1 6.9 2 23.3-.5 46.6-.6 69.8-2.2 3.7-.2 9.2-6.5 10-10.8 12.1-61.3 24.2-122.6 35-184.2 5.7-32.6-11.1-60.2-41.7-71-10.4-3.7-21.4-6.5-32.3-7.2-31.3-2.2-62.7-3-94.1-4.5-4.7-.2-9.3-.7-15.9-1.2 6-32.5 11.8-63.7 17.7-96.1h-83.7c-24.4 125.1-48.4 249-72.8 374.5z"/></svg>