<svg xmlns="http://www.w3.org/2000/svg" viewBox="0 0 1000 1000" style="enable-background:new 0 0 1000 1000" xml:space="preserve"><path d="M490 566.8c-37.8 0-66.1-28.7-66-67.1.1-37.5 28.7-66.4 65.8-66.5 37.3-.1 66.6 29.7 66.2 67.3-.4 37.8-28.7 66.3-66 66.3zm35.5-67.4c-.2-18.9-11.1-34.3-26.7-37.9-20.3-4.7-37.1 5.4-43 25.8-6.1 21.3 3.7 43.7 21.9 50.2 24.6 8.8 48.2-10 47.8-38.1zm169 64.2v-125c22.4 0 44.7-2.3 66.3.5 35.9 4.8 50.9 32.7 48.5 66.6-2.5 35.1-23 54.8-59.6 57.6-17.9 1.5-36 .3-55.2.3zm29-101v74.9c19.5.3 39.4 3.3 50.8-16.7 8.3-14.7 7.8-30.7-2-44.5-12-16.9-30.6-14.1-48.8-13.7zm-573.8 54.8h-15.3v46.1h-27.5V437c21.7 1 43.9-3.8 65.3 2.9 27.3 8.6 34.6 45.8 13.9 66.3-2.4 2.4-5.1 4.4-8.3 7.3 8.8 16.1 17.5 32.1 27.4 50.3-11.1 0-20.4.4-29.6-.3-2-.2-4.2-4-5.5-6.5-7.1-13.3-13.8-26.6-20.4-39.6zM135 493.8c11.6-.7 23.9 4 30.5-7.6 2.7-4.8 2.6-14.1-.3-18.7-7.2-11-19.2-5.6-30.1-6.4-.1 11.2-.1 21.2-.1 32.7zm468-56.5h32.4c15.2 41.6 30.4 83.3 46 126H650c-3.2-9.1-6.4-18.3-9.8-27.9h-44.1c-3.2 8.9-6.4 18-9.9 27.8h-30c15.6-42 31.1-83.6 46.8-125.9zm16.4 31.8h-2.5c-4.5 13.7-8.9 27.3-13.7 42h29.7c-4.7-14.6-9.1-28.3-13.5-42zm-308.3 94.3v-25.6h-60.5v-27H294v-24.6h-43.7v-24.1h56.5v-24.4h-85.2v125.7h89.5zM27.2 518.9v44.4H0V437.7c19.5 0 39-1.7 58 .5 21.1 2.4 33.5 21 32 43-1.3 20.9-17.2 36.5-38.6 37.7-7.4.3-14.9 0-24.2 0zm.5-23.2c11.1-2.2 23.1 4.2 30.5-7.8 4.3-6.8 4.2-14.8-1-21-8-9.5-18.8-6.2-29.5-5.9v34.7zm334-58.2h-28.3v125.9H421v-25.9h-59.3v-100zM963 566.2c20-2.2 34.5-15.5 36.7-33.9 2.2-18.3-8.1-33-28-39.9-8.7-3-17.6-5.1-26.2-8.2-8.4-3.1-13.9-8.8-12.4-18.7 1.3-9.2 7.7-13 16-14.7 13.5-2.8 24.6 2.5 34.9 11.5 3.9-3.7 7.6-7.1 10.9-10.3-9.8-20.7-55.4-27.1-74-4.2-10.5 12.9-10.1 32.7 2.5 43.6 6.9 6 16.3 9.3 24.9 13 7.1 3.1 14.9 4.6 22.1 7.6 7.8 3.3 10.7 9.8 10.4 18.2-.4 8.6-4.8 14.9-12.5 16.9-7.3 1.9-15.8 3-22.8 1-9.1-2.7-17.2-8.8-26.5-13.8-3 2.7-6.9 6.3-11.3 10.3 15.2 17.7 33.6 24 55.3 21.6zm-103.1.1c18.6-1.9 31.6-13.5 32.2-32 1-31.6.4-63.3.4-95 0-.5-.7-1.1-1.3-1.8h-17V449c0 26.2.2 52.5-.2 78.7-.3 16.5-12.8 25.7-28.5 20.9-6.3-1.9-11.9-6-18.6-9.6-3.1 2.7-6.8 6.1-11.4 10.2 12.1 15.4 27.3 18.9 44.4 17.1z"/></svg>