<svg xmlns="http://www.w3.org/2000/svg" viewBox="0 0 1000 1000" style="enable-background:new 0 0 1000 1000" xml:space="preserve"><path d="M499.7 0h270.1c29.4 0 34.4 5.1 34.4 34.3v443.4c0 23.3.1 23.4 22.8 23.4 40 0 79.9-.1 119.9.1 6.3 0 13 .1 18.9 1.9 13.7 4.1 18.2 17.5 9.9 29-3.4 4.7-7.8 8.7-12 12.8-146.5 146.3-293 292.6-439.6 438.8-21.7 21.6-26.6 21.7-48 .3C329.2 837.4 182.2 690.8 35.3 544.1c-3-3-6.2-5.9-8.9-9.1-11.9-14.2-6.4-29.7 11.9-33 5.2-.9 10.6-.8 15.9-.8 40.5-.1 81-.6 121.5.2 15.5.3 20.1-5 20-20.2-.5-149.4-.3-298.8-.3-448.2 0-30.2 2.7-33 32.5-33h271.8zM257.4 465.3c7.5-3 12.3-4.4 16.6-6.8 151.5-83.3 302.9-166.8 454.5-249.9 10.4-5.7 14.1-12.6 13.9-24-.5-32.9-.1-65.9-.2-98.8 0-21.1-.4-21.5-21.3-21.5H280c-22.2 0-22.6.3-22.6 22v379z"/></svg>