<svg xmlns="http://www.w3.org/2000/svg" viewBox="0 0 1000 1000" style="enable-background:new 0 0 1000 1000" xml:space="preserve"><path d="M1000.5 499.8c-2.7 283-224.5 487.6-474.1 499.6C229.6 1013.6-1.4 778.9-.5 500.4.5 216.3 224 6.8 486.6.2c285-7.3 511.9 219.3 513.9 499.6zM496.4 216.9c12-1.5 24-3 36.2-4.5.9-13-7.7-13.2-16.8-12.8-40.6 1.7-81.3 3.4-121.9 5.4-2.5.1-4.8 2-7.6 3.1 2.4 15.6 9.9 23.4 24.6 27.4 13.6 3.7 25.9 11.8 38.9 17.7 3.6 1.6 7.6 2.2 11.5 3.3-21.5 22.5-47.8 17.6-64.7-12.2-6.7-11.8-11.9-31.3-20.9-33.3-11.4-2.6-25.9 9.5-39.4 14.4-11.3 4.1-15.4 11.5-15.5 23.1-.2 14.4-1.6 28.9-3 43.3-1.3 13.8-10 19.5-23.1 21.6-12.8 2-25.5 5.1-37.8 9-4.4 1.4-9.2 5.8-11.2 10.1-12.8 27.3-23.9 54.8.1 82.3 1.8 2.1 2.6 5.2 3.3 8 5.4 22.6 9.1 47-10.1 63.2-16.7 14.1-21.2 27.4-14.4 46.8 2.1 6.1 4.1 12.8 3.8 19.1-.6 14.3 6.7 21 19.3 24.7 24.9 7.4 36 26.3 38.3 50.3 1.4 15-.6 30.4-.9 45.6-.1 4.9-1.2 11.2 1.3 14.4 12 15.1 25 29.4 38.6 44.9 9.6-10.4 25.6-11.4 22.2-29-11.2-57.5-22-115.1-32.6-172.8-8-43.4-6.1-85.3 20.1-123.2 26-37.7 70.2-47 109-22.7 27.6 17.3 45.8 42.7 55.6 73.2 16.4 51.2 17.6 101.6-16.5 147.2-25.1 33.6-63.6 41.6-100.6 22.3-5.2-2.7-10.4-5.5-17.5-9.2 5 28.7 8.9 54.4 14.1 79.9 1.8 8.8 5.8 17.4 10.1 25.4 6.2 11.4 15.9 21.3 20 33.2 8.4 24.6 20.5 40.9 49.7 35.2 4.1-.8 8.7.6 12.9 1.7 8.3 2.2 12.7-1.2 13.7-9.1 1.2-9.3 1.8-18.8 2.6-28.1 2.5-26.4 16.1-42.5 36.9-43.9 17.6-1.1 52.8 15.5 67.4 34-20.6-11.3-37.6-20.6-52.1-28.5-12.4 13.6-22.9 27.5-35.8 38.7-14.9 12.9-16 12.6-9.4 34.3 39.3-12.4 78.3-25.5 117.9-37 13.2-3.8 17.8-10.3 14.8-22.8 24.7-7.7 48.5-16.8 73.1-22.2 23-5.1 39.3-16.4 50.4-37 6.3-11.6 14.5-22.2 21.8-33.3-9.6-1.9-16.5-.7-23.2 1.1-32.7 9.2-65.4 18.4-98.1 27.8-10.6 3-19 3.4-24.6-9.4-5.2-11.9-13.9-22.1-19.9-33.7-16.3-31.4-12.3-66 11.7-85.6 18.5-15.1 39-27.2 63.5-31.8 34.8-6.6 69.4-14.6 104-22.1 11.2-2.4 17.4-6.3 13.6-20.7-5.5-20.9-7.9-42.7-10.8-64.2-1.3-9.6-5.7-12.4-14.7-10.9-20.7 3.5-41.4 6.9-62.2 10.2-36.3 5.6-72.2 14.2-109.4 2.8-27.8-8.6-49.5-29.9-49.4-58.6.1-22.2 4.6-44.5 8.4-66.6.6-3.8 6.9-8.9 11-9.4 22.4-2.4 44.9-3.2 67.3-5.1 20.4-1.7 40.7-4.1 61-6.2.4-1.8.8-3.5 1.3-5.3-15.8-11-31.8-21.8-47.3-33.2-10.1-7.5-20.6-8.6-32.7-7.7-41.7 2.9-83.8 4.9-125.9 7.4zM557.6 347c17.9 11.5 38.9 19 50.4 33.8 15.7 20.2 32.8 18.8 52.9 15.8 8.6-1.3 17.2-2.4 25.7-3.9 16.5-2.9 33.1-5.9 47.2-8.5-11.2-10.7-23.7-19.7-32.2-31.5-13.7-19-10.1-41.5-6.9-63.2 1.1-7.5 1.8-15 2.7-23.1-5.4-.5-8.2-1.3-11-1-36.9 2.8-73.8 5.5-110.6 9.1-3.8.4-9.3 6.3-10 10.3-3.6 21.5-5.8 43.1-8.2 62.2zm207.2 277.4c-28.6-41.5-46.6-80.3-3.5-125.2-39.1 8.7-72.8 16-106.3 24-3.1.7-6.4 5.3-7.6 8.8-8.8 25.2-21.7 47.4-45.6 62.4 4.3 8.5 8 16.2 12.2 23.7 7.4 13.2 12.4 33.3 23.4 37.6 12.1 4.7 29.9-4.9 45.1-8.9 26.3-6.9 52.6-14.3 82.3-22.4zM343.9 495.7c1.7 29.9 11.4 54.7 33.5 74.1 24.7 21.7 57.1 16.7 74.2-11 21.6-35.2 12.2-92.9-19.4-119.1-26.8-22.2-60.8-16.1-76.2 15.2-6.3 12.5-8.3 27.2-12.1 40.8z"/></svg>