<svg xmlns="http://www.w3.org/2000/svg" viewBox="0 0 1000 1000" style="enable-background:new 0 0 1000 1000" xml:space="preserve"><path d="M207.5 333.4c-3.3-20.4-6.3-39.5-9.6-58.5-3.9-22.3-3.9-44.7-4.1-67.2-.2-23 2.4-45.6 8.5-67.7 6.1-22 15.8-42 32.2-58.4 8.6-8.6 18.9-13.7 29.9-18.1 17.1-6.8 35.2-6.9 52.2-3.8 27.2 4.9 53.5 13.9 77.8 28 29.2 16.9 55.9 37.1 82.3 57.9 7.6 6 14.7 12.5 22.8 19.5 6.6-5.5 13.2-10.9 19.7-16.4 28.7-24.7 59.1-46.9 92.2-65.3C631.9 72 654 63.7 676.7 60.2c26.6-4.2 54.1-4.3 77.9 12.8 15.7 11.3 26.1 26.7 33.8 43.9 9.5 21.4 14.3 44 15.3 67.4.4 9 1.8 17.9 1.8 26.9.1 37.8-4.9 75.1-12.8 112.1-2.2 10.3-2.3 10.7 7.9 14 29.8 9.5 58.4 21.8 86.2 35.9 26.1 13.3 50.3 29.5 72 48.9 15.6 13.9 28.3 30.8 35.4 50.7 9.2 25.8 7.1 51-6.8 75-14.4 24.9-35.4 43.3-58.6 59.4-34.6 24.1-72.4 42-112.1 56-7.8 2.8-15.7 5.3-24.6 8.3 1.4 7.5 2.7 14.9 4.1 22.2 4.8 25.5 9 51 9.5 77.1.1 7.6 2.1 15.2 1.6 22.7-1.7 25.1-2.4 50.5-10.2 74.8-6.7 20.9-15.2 41-32.1 56.1-4.9 4.3-10.1 8.5-15.9 11.6-22.6 11.9-46.1 14.7-71.3 8.6-19.6-4.7-38.8-10.2-57-18.8-19.5-9.2-37.8-20.5-54.9-33.6-20.3-15.5-40.2-31.7-60.2-47.6-4.9-3.9-5.8-3.8-11.4 1-25.6 22.2-52.2 43.3-80.8 61.7-25.2 16.2-52.1 28.4-81.2 36.3-17.2 4.7-34.4 5-51.4 3.4-13.6-1.3-26.7-7-37.9-15.7-25-19.4-36.2-46.7-42.8-76.2-5.7-25.7-8.2-52.1-6.3-78.4 1.8-24.8 5.6-49.4 8.9-74 1.3-9.9 3.6-19.6 5.6-30-3.4-1.4-6.1-2.8-9-3.8-32-10.5-62.9-23.5-92.7-39.4-28-14.9-54-32.6-75.7-55.9-13.1-14-24.2-29.7-28.8-48.7-6.6-27.5-1.1-52.8 15.2-75.9 16.2-23 37.5-40.4 60.8-55.6 38-24.8 79.2-42.6 122.1-56.8 2.9-1 4.9-2.2 7.2-3.2zm300.4 331.3c20.6-1.3 48.5-3.1 76.5-4.6 5.5-.3 8.8-2.6 11.6-7.1 9.4-15.4 19-30.6 28.6-45.8 20.3-31.9 38.3-65 53.6-99.6 1.9-4.3 1.7-7.7-.4-11.7-7.4-14.5-14.5-29.1-21.9-43.6-18-34.8-39.4-67.5-61.1-100.1-2.5-3.7-5.1-6.1-9.9-6.4-17.2-1.1-34.4-3.5-51.6-3.5-31.5-.1-62.9 1-94.4 1.8-7.6.2-15.1 1.7-22.7 1.7-6.1 0-9.4 3.1-12.3 7.8-11.1 17.6-23 34.6-33.4 52.6-15 26.1-29.4 52.6-43.1 79.3-9.2 17.9-8.4 18.2.4 36.4 13.7 28.4 28.8 56 45.7 82.7 10.4 16.4 20.8 32.7 31.5 48.9 1.7 2.6 4.7 5.3 7.6 6.1 5.3 1.5 10.9 2 16.4 2.2 23.8 1 47.7 1.8 78.9 2.9zm-42.3 142.1c-4-5.3-6.4-9.2-9.5-12.3-24.7-24.8-46.2-52.3-66.6-80.6-4.7-6.5-10.7-9-18.3-10-21.5-2.9-43.1-5.8-64.5-9.5-16.9-2.9-33.7-6.8-51-10.3-1.1 4.7-2.2 9-3 13.4-4.2 24.1-7.6 48.3-9.3 72.9-1.7 24.1-.5 47.6 3.5 71.1 2.4 14.1 6.8 27.4 14.8 39.5 7.9 12.1 19 17.5 33.1 18.2 20.7 1 39.6-5.7 58-13.9 28.6-12.7 54.1-30.7 78.7-49.8 11.3-8.9 22-18.6 34.1-28.7zm278-486c1-3 1.9-5.2 2.5-7.5 6.9-29.3 10.1-59.2 11.3-89.2.6-13.7-1.1-27.6-1.7-41.4-.8-17.9-5.3-35-13.1-50.9-7.6-15.5-19.4-24.9-38.3-25.3-25.7-.6-48.3 8.6-70 20-17.4 9.2-33.6 20.6-49.9 31.6-17.9 12.2-34.6 26-49.9 41.8 1.2 1.4 2.1 2.5 3 3.5 14.6 16.6 29.5 33 43.6 49.9 11.3 13.5 21.9 27.6 32.5 41.7 2.3 3 4.6 4.8 8.4 5.1 3.8.3 7.5 1.2 11.2 1.8 31.3 5.3 62.6 10.6 93.9 16 5.5.9 10.8 1.9 16.5 2.9zM254.9 322c10.6-2.5 20.2-5.4 30-7.1 29.9-5.1 59.9-10.1 89.9-14.4 6.2-.9 9.8-3.4 13.3-8.1 22.8-30.8 46.4-61.1 73.5-88.4 1.1-1.1 1.6-2.8 3.4-5.9-3-2.4-6-4.8-8.9-7.1-3-2.4-6.1-4.6-8.9-7.1-30.2-26.2-62.9-48.5-99.5-64.8-17.2-7.7-35-13.2-54.1-12.2-8 .4-15.8 1.6-22.3 7.1-8.6 7.4-15 16.2-18.7 27-6.6 19.5-9.9 39.4-10.4 60-.7 25.6.9 51.1 4.6 76.5 1.9 14.6 5.2 29.1 8.1 44.5zm280.7 483.4c23.1 23.3 49.1 41.6 75.9 58.8 25.8 16.6 53 29.9 83.9 34 18.2 2.4 33.6-2.2 44.1-18.4 12.7-19.5 16.6-41.7 17.9-64.2 2-34.3-.3-68.4-6.3-102.3-1.7-9.8-4.1-19.4-6.3-29.8-12.6 2.8-23.9 5.8-35.4 7.7-27.6 4.6-55.2 8.6-82.9 12.8-6 .9-10.7 3.2-14.7 8.5-19.4 26.5-39 52.9-62.4 76.2-4.8 4.9-8.8 10.6-13.8 16.7zm243.9-181.9c3.5-1 6.4-1.7 9.3-2.7 29.6-9.8 58.1-22.4 85.8-36.7 23.8-12.4 45.5-27.5 62.6-48.5 17.3-21.1 18.6-40.8 2.2-63.3-12.1-16.5-27.8-29-44.8-39.6-34.8-21.7-72.6-37.2-111.5-50-1.2-.4-2.6-.2-4.8-.4-1.8 5.8-3.4 11.3-5.2 16.8-10.6 32.6-21.2 65.2-35.8 96.2-2.1 4.4-2.3 8.3-.2 12.8 14.3 30.8 24.9 63 35.7 95.2 2.1 6.6 4.3 13.1 6.7 20.2zm-559.3-242c-7.3 2.6-13.7 5-20.2 7.2-32.1 11.3-63.4 24.4-92.3 42.4C88 443.4 69.3 457.2 57 477.8c-5.4 9-9.7 18.6-8 29.4 1.6 10.4 6.5 19.7 13.1 27.9 10.8 13.2 23.6 24.2 37.8 33.6 28.1 18.8 58.7 32.5 90.2 44.4 9.9 3.8 20 7.1 30.6 10.9 2.4-6.8 4.3-12.3 6.2-17.8 9.8-29.9 18.9-60.1 32.4-88.6 4.5-9.6 5.9-18.1.5-27.4-.7-1.2-1.3-2.5-1.7-3.8-11.1-30.6-22.1-61.2-33.2-91.7-1.5-4.1-3-8.2-4.7-13.2zm225.9-87.1h107.1c-18.2-20.7-35.4-40.4-53.6-61.1-18.4 21-35.6 40.6-53.5 61.1zm.6 416.8c17.8 20.1 35 39.6 53 59.9 20.1-18.7 35.7-39.6 53.1-59.9H446.7zm208.1-59c26.7-4.7 52.1-8.5 77.8-16-8.2-25.2-15.6-49.7-26.6-73.9-17.2 30.4-33.7 59.3-51.2 89.9zM267.9 368.3c5.9 26.1 15.8 49.8 25.5 75 17.2-29.9 33.6-58.5 51.2-89.2-27.4 2.6-51.6 8.7-76.7 14.2zM656.2 356c16.8 28.9 33.3 57.5 50.6 87.2 8.9-25.7 17.3-49.8 25.6-73.8-16.5-6.4-66.3-15.3-76.2-13.4zM345.4 652.1c-18-30.9-34.8-59.6-52.5-89.9-8.8 25.7-17 49.5-25.4 74 25.7 7.9 50.9 11.3 77.9 15.9zm248.5-148.5c.5-48.2-36.7-95.4-94.3-95.2-56.4.3-93 45.6-93.7 93.8-.7 49.9 40.9 96 92.7 93.7 57 2.7 94.7-45.2 95.3-92.3z"/></svg>