<svg xmlns="http://www.w3.org/2000/svg" viewBox="0 0 32 32" style="enable-background:new 0 0 32 32" xml:space="preserve"><path d="M22.2 22c1.2-.1 2.1-1.1 2-2.3-.1-1.2-1.1-2.2-2.3-2.2h-.1c-1.3 0-2.2 1.1-2.2 2.4 0 .6.3 1.2.7 1.5-1.4 2.7-3.5 4.7-6.7 6.4-2.1 1.1-4.4 1.5-6.6 1.2-1.8-.3-3.3-1.1-4.2-2.4-1.3-2-1.4-4.2-.3-6.3.8-1.6 2-2.7 2.8-3.3-.2-.5-.4-1.4-.6-2.1-5.9 4.2-5.3 10-3.5 12.8 1.3 2 4.1 3.3 7.1 3.3.8 0 1.6-.1 2.5-.3 5.2-.9 9.1-4.1 11.4-8.7zm7.1-5c-3.1-3.6-7.7-5.6-12.8-5.6h-.7c-.3-.7-1.1-1.2-2-1.2h-.1c-1.3 0-2.2 1.1-2.2 2.3 0 1.2 1.1 2.2 2.3 2.2h.1c.9 0 1.7-.6 2-1.4h.7c3.1 0 6 .9 8.7 2.7 2 1.3 3.5 3.1 4.3 5.2.7 1.7.7 3.4-.1 4.8-1.1 2.2-3.1 3.4-5.6 3.4-1.6 0-3.2-.5-4-.9-.5.4-1.3 1.1-1.9 1.5 1.8.8 3.5 1.3 5.3 1.3 3.9 0 6.8-2.2 7.9-4.3 1.3-2.5 1.2-6.6-1.9-10zM8.7 22.7c0 1.2 1.1 2.2 2.3 2.2 1.3 0 2.3-1.1 2.2-2.4 0-1.2-1-2.2-2.3-2.2h-.4c-1.7-2.8-2.4-5.8-2.1-9 .2-2.4 1-4.6 2.4-6.3 1.2-1.5 3.5-2.2 5-2.3 4.3-.1 6.1 5.3 6.3 7.4l2 .6c-.5-6.6-4.5-10-8.4-10-3.7 0-7 2.7-8.4 6.6-1.9 5.2-.6 10.2 1.6 14.2-.2.3-.3.8-.2 1.2z"/></svg>