<svg xmlns="http://www.w3.org/2000/svg" viewBox="0 0 1000 1000" style="enable-background:new 0 0 1000 1000" xml:space="preserve"><path d="M728.5 603.3c-9.4-25.9-18-49.8-27.1-74.9-8.5 14.8-16.6 29.4-25.1 43.9-7.7 13.2-15 26.7-23.8 39.2-6.5 9.3-7.7 17.7-4.3 28.6 3.3 10.8 4.5 22.4 5.2 33.8 1.8 27.8-12.3 46.9-34.8 61.4-21 13.5-43.5 20.9-68.5 20.6-3.2 0-6.4.1-9.5-.5-13.8-2.6-19.5-13.2-12.8-25.5 4.2-7.8 10-14.8 15.6-21.7 13.3-16.3 26.9-32.3 40.4-48.4 1.6-2 3-4.1 4.7-6.1 8.5-9.8 9.6-19.6 3-31.4-6.2-11-11.1-23-15.4-35-3.2-8.9-4.6-18.4-7.6-30.9-3.2 6.1-5.3 9.4-6.7 13-23.8 59.3-51.7 116.6-84.7 171.3-5.9 9.8-11.9 19.5-22.9 25-17.2 8.6-32.4 3.1-37.2-15.5-2.8-11-3.1-22.7-4.4-34-.4-3.7-.6-7.3-3.2-11.5-3.3 7.4-6.5 14.9-10 22.1-5.9 12.1-11.5 24.2-18.1 35.9-7.8 13.9-19.4 20.8-36.1 20.3-15.4-.5-24.6-8.1-31.5-21-16.4-30.8-24.2-62.8-17.1-97.8 2.9-14.3 4.5-28.9 6.7-43.3-12.2-.3-27.7 7.6-50.3 26 14.2 34.7 14.3 70.8 5.4 106.4-12.7 50.7-44.9 85.8-92 108.4-29 13.9-58.5 14.9-89.6 10.4-23.5-3.1-34-18.8-39.8-38.4-11.1-38-1.4-71.6 25-100.9 24.2-26.9 53.2-47.4 84.3-65.4 15.3-8.9 30.8-17.5 48.7-27.6-7.1-5.9-12.5-11-18.4-15.2-24.4-17.4-49.2-34.2-73.3-52-16.9-12.5-34.1-24.9-48.9-39.7-20-19.8-36.9-42.3-47.8-68.7-11.8-28.6-6-56.4 5.7-83.2 11.6-26.4 27.7-50.2 47.4-71.4 39.8-43.1 86.3-77.1 137.7-105.2 55.7-30.5 113.1-56.2 175.3-69.9 44.4-9.8 89.1-12.7 134.7-4.2 28.2 5.2 54.1 14.3 77.8 30 37.8 25.1 50 62 44.1 104.9C621 326.2 587 372 539.5 409c-40.3 31.4-86.4 48.6-136.4 55.7-21.4 3-43 6-64.5 6-29.7 0-58-7.3-82.9-25.1-9.8-7-16.9-15.6-20.9-26.6-1.8-4.9-1.6-10.6-2.8-19.1 6.9 4.4 10.9 6.2 14.1 9.1 27.3 23.7 59 30.5 94.2 27 22.4-2.2 44.1-6.9 65.5-13.1 58.8-16.9 107.8-48.7 144.7-97.9 14.8-19.7 25-42.1 25.8-66.8.7-19.3-4.2-37.5-22.3-49.9-14.7-10-30.9-16-47.8-18.4-20.6-2.8-41.3-4.7-62.6-3.1-72.3 5.3-137.8 30.9-200.4 65.1-38.6 21.1-76.1 44.4-108.3 74.8-27.2 25.6-49.5 54.7-57.9 92.7-5.1 23.2-.7 44.2 10.3 64.4 12.8 23.5 32 41.2 52.3 57.9 26 21.5 52.3 42.6 78.4 64.1 4.4 3.6 8.2 7.8 13.8 13.1 12.6-6.4 25.8-12.6 38.5-19.5 17.9-9.7 35.7-19.8 53.2-30.2 4.8-2.9 9.1-6.9 13.2-10.8 8.7-8.5 17-17.4 25.7-25.8 14.1-13.7 31-22.4 50.1-26.5 19-4.1 34.3 4.2 37.6 22.7 2.1 11.7 2.4 23.8 3.6 37.3 1.7-.5 4.9-1.6 8.2-2.2 14.4-2.6 24.9 8.1 21.5 22.3-7.6 32.3-15.8 64.4-23.2 96.7-1.8 7.9-1.5 16.2.9 25.5 2.4-3 5.6-5.7 7.2-9.1 13-27 26-54.1 38.4-81.4 12.6-27.9 24.9-55.9 36.7-84.1 5.9-14.1 10.9-28.6 15.4-43.1 5.3-17.2 8.7-20.5 26.8-21.3 8.3-.4 16.7-.6 24.9.1 12.7 1.1 15.6 5.6 12.2 17.6-1.4 4.9-3.4 9.6-4.7 14.6-8.5 30.7-7.2 60.2 10.9 89.6 2.9-3.4 5.6-5.6 7.2-8.5 16.5-30.2 33.3-60.3 48.9-91 5.1-10 7.1-21.8 9.4-33 2.4-11.8 9.6-17.7 20.8-18.7 10.1-1 20.4-1.7 30.5-.9 12.3 1 16.7 8.3 12.1 20.1-7.1 18.2-9.7 36.6-8.9 56.2 1 22.8 10.7 41.5 21.7 59.8 18.6-5.1 36.1-11 54-14.5 37.2-7.4 74-4.9 108.7 10.9 37.1 16.9 61.4 44.7 66.5 86.9 3.8 31.7-17.3 62.8-48.6 70.5-1 .2-2.3-.8-4.2-1.7-.2-7.5 6.5-10.2 10.9-13.9 23.7-19.5 27.3-40.8 14.1-67.6-11.4-23.1-30.5-36.4-53.1-44.1-38.1-13-77.4-15.6-116.9-5.3-3.1.8-6 2.1-9.1 3-6.7 1.9-9.3 6.2-7.9 13 1 5 1.8 10 3.1 15 7 27.1-6.1 47.6-23.7 64.9-16.1 15.7-36.7 25.2-58.8 30.6-20.7 5.1-32-3.8-32.4-24.8-.3-20.9 9.1-38.3 20.3-54.7 6.8-9.9 15.6-18.4 23.6-27.5 3.7-4.8 7.7-8.8 11.4-12.7zm-509.2 58c-37.4 21.9-71.6 43.8-99.8 74-13.1 14-21 30.5-25.1 48.6-4.9 22.1 8.1 36.9 30 34.5 10.5-1.2 21.8-3.6 30.9-8.7 24.2-13.7 44.4-32.3 56.4-57.9 13.3-28.5 18.3-58 7.6-90.5zm124.6 16.4c2.3 12.4 3.9 25.1 7.3 37.2 2.2 8 9.4 8.9 14.4 2 5.2-7.2 9.8-15 12.9-23.2 13.7-35.6 27.1-71.3 40-107.2 3.2-8.9 4.6-18.5 6.4-27.9.8-4.1 3.1-9.7-2.6-11.7-3.8-1.3-9.5-1.7-12.6.3-8 5-16.5 10.4-22.2 17.7-25.5 32.9-40.7 70.2-43.6 112.8zm399.5-54.2c-16.6 14.5-25.9 33.1-34.1 52.3-1.8 4.1-1 9.2-1.5 14.7 31.5-9.8 45.4-36.7 35.6-67zM610 674.3c-14.5 13.8-28.1 28.4-37.6 46.3 20.5-8.9 35.1-22.6 37.6-46.3z"/></svg>