<svg xmlns="http://www.w3.org/2000/svg" viewBox="0 0 1000 1000" style="enable-background:new 0 0 1000 1000" xml:space="preserve"><path d="M338.7 685.8c-12-9.3-21.4-17.1-31.3-24.1-27.9-19.9-56.5-38.9-84-59.3-20.9-15.5-40.6-32.6-60.8-49.1-21.1-17.3-39-37.7-53.7-60.5-13.6-21.1-25.3-43.5-28.2-69.1-3.2-27.5 2.6-53.6 13.2-78.9 23-55.2 60.5-99.8 104.7-138.5 40.4-35.4 84.3-66.4 130.8-93.6C380.8 82.6 434.6 58 490.6 37.5c40.5-14.9 81.9-25.6 124.3-32.4 36.1-5.8 72.7-6 108.9-3 41.3 3.4 81.7 13.1 118.7 33.5 30.1 16.5 54.3 38.7 67.1 71.1 4.6 11.7 7.8 24.4 9.2 37 6.2 56.9-10.2 108.1-41.9 154.8-33.7 49.6-76.7 88.8-130.4 116.3-39 20-80 33.9-123 42.1-13 2.5-26.4 2.7-39.6 4-6.1.6-12.1 1.7-18.2 1.9-9.2.3-18.4.1-27.5-.2-5.6-.2-11.1-1.5-16.7-1.7-23.1-.9-45.7-4.2-67.6-12-27.7-9.9-48.2-28.4-63.1-53.3-2.8-4.7-4-10.5-4.9-16-.9-5.6 1.2-10.1 9.4-11.7 2.9 2.5 6.6 5.8 10.4 9 32.1 27.3 69.3 42.5 111.4 39.6 30.4-2.1 60.6-7.8 90.3-15.9 54.6-14.8 104.9-38.8 148.1-75.2 30.5-25.8 58.1-54.7 75.4-92.1 10.8-23.5 16.3-47.4 13.7-72.9-2.1-20.8-13.8-35.8-30.3-47.8-15.7-11.5-34-16.5-52.3-21.3-30.6-8-62.1-8.1-93.1-5.8-32.5 2.5-64.7 8.1-96.3 16.8-40.1 11.1-78.5 26.2-116.1 44-57.1 27-111.8 58-161.6 96.9-33.6 26.2-64.4 55.5-87.2 92.2-18.9 30.5-28.3 63.7-24.5 99.5 2.7 26.2 15.7 48.1 31.7 68.8 20 25.8 45.7 45.2 70.8 65.4 35 28.3 72.6 53.3 104.2 88.1 16.6-9.1 32.9-18.5 49.6-27.1 30.5-15.7 60.5-32.7 92-45.9 39.4-16.4 81.7-19.3 123.8-15.8 41.8 3.5 79.8 18.8 111.4 46.7 25.7 22.7 41.1 51.3 45 86.3 5.1 45.4-20.2 78.8-53 94.7-8.1 3.9-16.3 6.1-23.7-.9-.7-6.4 3.8-8.4 7.3-11.2 7.5-6.1 15.3-11.9 22.1-18.6 11.5-11.3 15.2-26.3 18.1-41.6-1.2-6.4-2-13-3.8-19.4-7.9-27.7-26.4-47.1-50.1-61.7-20.7-12.7-43.7-20.6-67.6-24-14.6-2.1-29.8-2.2-44.5-.6-30.5 3.3-60.4 9.5-89.6 19.4-28 9.5-53.1 24.2-78.2 39-10 5.9-21.3 10.2-29.2 21.1.9 3.4 1.8 7.3 2.9 11.2 5.1 18.7 9.3 37.4 10.4 57.1 1.7 31-1.1 61.1-12 90-22.7 60.4-62.2 104.8-123.1 129.6-39.4 16.1-79.5 17.3-120.5 10.4-10.1-1.7-19.3-6.2-26.6-14.3-16.7-18.6-26.1-39.8-27-65.1-.8-23.9 1-47.3 12.6-68.6 7-12.9 14.6-25.9 24.1-37 33.5-38.9 75.8-67 119.7-92.7 14.6-8.6 29.8-16 44.6-24.1 4-2.1 7.8-4.5 14.1-8.3zm33.2 31.8c-2.3 1-4.8 1.8-6.8 3.1-21.8 14.2-44 28.1-65.3 43-20.5 14.4-40.5 29.7-57.3 48.4-17.4 19.4-29.9 41.7-34.3 67.6-2.9 17.1.3 32.8 17.3 42 86.6 12.2 181-104.2 146.4-204.1z"/></svg>