<svg xmlns="http://www.w3.org/2000/svg" viewBox="0 0 1000 1000" style="enable-background:new 0 0 1000 1000" xml:space="preserve"><path d="M469.5 424.1h32.4c10.2 15.2 20.8 31.1 31.5 47.1 10.6 15.9 21.3 31.7 31.9 47.6.7-.3 1.4-.5 2.2-.8v-93.8h33.8v151c-10.2 1.9-20.6.3-31.1 1-21.7-32.3-43.2-64.1-64.6-95.9-.7.2-1.3.5-2 .7v95.3c-11.9 0-24-.1-34.8-.1 0-8.6-1.3-125.8.7-152.1zm-254.6-4.4c-50.6.2-79.5 41.2-79 81.3.5 39.7 30.2 79.5 80.1 79.1 46.5-.4 79.1-36.9 78.2-80.7.8-40.7-29.8-79.9-79.3-79.7zm40 97.6c-6.1 19.1-22.2 30.8-40.8 30.2-19.5-.7-35.9-14.2-40.4-33.9-2.5-11.2-2.3-22.4 1.6-33.3 6.3-17.6 21.6-29.2 42.2-28.2 19.9 1 35.5 15.5 39.1 35.1.7 3.9.9 8 1.6 13.7-.8 4.3-1.4 10.5-3.3 16.4zM687 575.9c8-.1 16-.7 23.8-2.3 26.6-5.4 46.1-20.2 53.9-46.7 3-10.2 3.4-21.5 3.3-32.3-.4-38.1-24.1-65.2-62.2-68.9-24.2-2.3-48.7-1.4-73.1-1.8-.6 0-1.2.7-2.4 1.5v150.7c19.7-.1 38.2.2 56.7-.2zm14.2-119.5c20.4 3.9 31.9 21.4 31.2 45-.6 24.9-12.7 39.1-37.5 42.9-9.2 1.4-18.7 1.1-29.8 1.6-.5-30.7-.2-60.3-.2-92.1 13.4.9 25.1.4 36.3 2.6zm-293.6-20.2c0 25.5.1 51-.1 76.5-.1 5.8-.8 11.7-2.4 17.2-2.7 9.1-9.2 14.6-18.8 16-25.8 4-36.9-9.8-36.2-29.9.1-3.6-.1-7.3-.1-10.9v-69.9c0-3.5-.4-7-.6-11.1h-33.6c-.4 3-.9 5.4-1 7.9-.1 28.8-.1 57.6.1 86.3 0 5.8.5 11.7 1.9 17.3 6.6 25.9 24.2 40 50 43.8 38.7 5.8 76.7-15.7 75.7-62.3-.6-27.7-.1-55.4-.1-83 0-3.2-.4-6.3-.6-10h-34.2v12.1zM13.3 565.6c26.5 16.6 54.3 20.6 82.7 5.8 16.7-8.7 25.8-23.2 24.7-42.8-1.1-18.9-11.1-31.9-28.2-39.5-6.6-2.9-13.8-4.5-20.6-6.9-6.5-2.3-13-4.5-19.2-7.4-4.9-2.3-8-6.7-7.7-12.2.3-5.6 4.1-9.2 9.1-11.2 3-1.2 6.2-2 9.4-2.3 9.1-.8 17.1 2.5 24.7 7 3 1.8 6 3.8 9.3 5.9 6.7-7.4 12.9-14.3 20.5-22.8-2.6-1.7-4.5-2.8-6.3-4-2.1-1.5-4-3.2-6.1-4.5-19.5-11.6-40.3-14.2-61.9-8.1-21.3 6-33.6 21.4-34.2 41.4-.6 21.4 10.1 36.4 31.8 44.1C46.7 510 52.5 511 58 513c6.4 2.4 13.1 4.6 18.9 8.2 8.9 5.7 8.9 16.7.3 22.7-3.1 2.2-7.1 3.7-11 4.4-13 2.2-24.3-2.4-34.5-10-2.9-2.1-5.6-4.4-8.4-6.6-1.4.8-2.5 1.1-3.2 1.9-6.3 6.6-12.5 13.2-20.1 21.3 5 4 8.8 7.9 13.3 10.7zm954.2 11c19.7-6.7 32.1-22.2 32.5-40.7.5-20.9-10.1-36.4-30.6-44.2-5.4-2.1-11.1-3.3-16.7-5.1-6.9-2.2-14.1-3.9-20.6-6.9-9.6-4.4-13.9-12.1-12.9-20.7 1.1-9.2 8.6-16.9 19-18.4 13-1.9 25.4-.1 36.1 8.5 2.2 1.7 4.5 3.3 6.9 5.1 4.8-4.4 9-8.3 13.1-12-5.8-9.1-9.9-12.8-19-16.7-15.3-6.6-31.1-7.2-47-2.8-19.4 5.4-30.1 18.1-31.4 35.9-1.4 18.7 7.4 33 25.8 41.3 5.9 2.6 12.4 4.1 18.6 6.2 7.9 2.7 15.9 5 23.5 8.3 6.7 2.9 10.9 8.1 12 15.7 2.1 14.7-6.3 26.4-21.6 28.6-16.8 2.4-31.8-1.3-44.2-13.5-2-2-4.1-3.7-6.5-5.9-5.2 4.7-10 9-14.8 13.3 16.8 23.3 50.1 33.4 77.8 24zm-118-139.3v87.5c0 3.6.2 7.3-.4 10.9-1.7 10.8-6.5 19.8-17.8 22.5-10.2 2.4-20.3 1.3-29-5.6-2.8-2.3-5.6-4.5-8.8-7.1-5 4.5-9.8 8.8-15.1 13.5 16.2 19.1 35.7 24.4 58.5 19.6 18.6-3.9 30.6-15.9 33.7-34.2 1-5.7.9-11.6.9-17.4.1-31 .1-62 0-92.9 0-3.2-.4-6.3-.8-10.5-3.9 0-7.1-.1-10.3 0-3.2.1-6.4.3-10.9.6v13.1z"/></svg>