<svg xmlns="http://www.w3.org/2000/svg" viewBox="0 0 1000 1000" style="enable-background:new 0 0 1000 1000" xml:space="preserve"><path d="M475.4 718.6v240c0 27.8-7.5 35.4-34.9 35.5-48.9.1-97.8.1-146.7 0-20.4 0-28.7-7.3-31.5-27.4-.8-5.8-.9-11.8-.9-17.7 0-152.1.2-304.2-.3-456.3 0-15.3 4.6-24 18.8-30.9 60.7-29.9 122.2-25.3 184.6-7.2 11.6 3.4 11.1 12.1 11.1 21.2-.2 80.8-.2 161.8-.2 242.8zm-1.9-313c.8-6 1.8-9.8 1.8-13.6.1-118 .1-236 0-354 0-19.9-9.9-31.3-29.5-31.6-51.3-.8-102.7-.7-154-.1-17.4.2-25.7 8.7-28.8 26-1.1 6.3-1.5 12.7-1.5 19.1-.1 114.6-.1 229.1 0 343.7 0 5.7.7 11.4 1.4 20.7 70.4-32.7 139.9-27.7 210.6-10.2zm265.2-247.8c0-6.9-.2-13.9-1.4-20.6-3.1-17.8-11.2-24.7-29.2-24.8-51.3-.2-102.6-.2-153.9 0-20 .1-29.3 9.1-29.4 28.9-.2 90.8-.3 181.6.3 272.3 0 5.9 5.2 13.7 10.3 17.1 13.5 9 28 16.7 42.6 23.8 47.3 23.2 94.6 46.5 142.3 68.6 16.2 7.5 18.4 5 18.4-13.3.1-59.7 0-119.4 0-179.1 0-57.4.1-115.1 0-172.9zM524.6 499.9c-.1 118.5-.1 237.1 0 355.6 0 25.1 9.7 34.6 35.3 34.7 45.9.1 91.9.1 137.8 0 31.4 0 40.8-9.1 40.9-40.3.2-84-.1-167.9.3-251.9.1-13-4.4-19.4-17-23.3-52.2-15.8-101.1-39.5-148.2-66.8-14.7-8.5-29.8-16.3-47.4-25.8-.8 8.5-1.7 13.1-1.7 17.8zM.1 544.9c0 19.3 1.7 21.5 20.6 16.2 20.8-5.9 43-11.1 60.7-22.5 43.1-27.7 84.1-58.6 125.3-89.1 4.7-3.5 7.2-12.8 7.2-19.4.6-51.4.5-102.7.2-154.1-.1-26.5-10.3-36-37.3-36-46.9-.1-93.8-.1-140.7 0-26.9 0-36 9.3-36.1 36.8-.1 44.4 0 88.9 0 133.3.1 44.9 0 89.8.1 134.8zm999.8-223.6c-.1-28.9-10.2-39.1-39.4-39.3-44.9-.3-89.9-.2-134.8 0-29.7.1-40 10.7-40 40.4-.1 62.2-.2 124.4 0 186.6.1 37.7-5.4 34.8 34 40.1 53.2 7.1 106.8 10.6 160.3 15.6 19.5 1.8 19.8 1.6 19.9-18.2.1-38 0-76 0-114.1 0-37.1.1-74.1 0-111.1zM214 547.9c-.3-9.7-.9-23.3-6.9-28-11.1-8.6-19.3 5.4-27.1 11.4-50.2 38.9-103.2 71.5-167.5 80.8-10 1.5-12.6 7.4-12.5 16.6.2 34.6-.1 69.2.2 103.7.2 24.8 9.2 33.4 34.5 33.4 47.4.1 94.8 0 142.3 0 27.7 0 37.2-9.3 37.4-37.2.2-31.6 0-63.2.1-94.8-.2-28.6.4-57.3-.5-85.9zm753.8 170.4c21.2-.2 31.6-10.4 32-31.9.4-19.2-.2-38.5.2-57.7.2-10.6-4.2-14.4-14.8-15.4-61.7-5.6-123.4-11.6-185-18.3-11.9-1.3-14.8 2.4-14.7 13.1.3 25.6-.3 51.3.3 76.9.5 23.1 11 33 34.1 33.2 24.2.2 48.3 0 72.5 0 25.1.2 50.2.3 75.4.1z"/></svg>