<svg xmlns="http://www.w3.org/2000/svg" viewBox="0 0 1000 1000" style="enable-background:new 0 0 1000 1000" xml:space="preserve"><path d="M108.3 999.8V605.5c0-2.3.2-4.7 0-7-.4-4.9 1.4-7.1 6.6-7 18 .2 36 .2 54 0 5.2 0 7 2.2 6.7 7.1-.2 3.1 0 6.3 0 9.4v310c0 3.1.2 6.3 0 9.4-.3 5 1.9 7.2 6.9 6.9 2.7-.2 5.5 0 8.2 0h486.1c16.2 0 15.3 1.8 15.3-15.1V610.4c0-3.1.3-6.3 0-9.4-.6-6.8 1.6-9.9 9.1-9.7 16.4.5 32.9.3 49.3.1 5.8-.1 8.9 1.6 8.2 7.9-.3 2.3 0 4.7 0 7v379.2c0 3.1.5 6.4-.3 9.3-.6 1.9-2.9 3.9-4.9 4.7-2 .8-4.6.2-7 .2h-627c-3.1.1-6.2.1-11.2.1zm129.2-284.3c-.6 6.1 1.6 8.7 7.5 8.9 5.9.3 11.7.7 17.6 1.3 46.3 4.3 92.7 8.7 139 13 58.4 5.4 116.9 10.8 175.3 16.1 17 1.6 34.1 2.9 52.3 4.5 2.4-25.2 4.8-49.7 6.9-74.2.8-9.6.5-9.8-9-10.8-15.2-1.5-30.4-2.7-45.6-4.1-37.4-3.4-74.8-6.9-112.2-10.4-47.1-4.3-94.3-8.7-141.4-13-27.2-2.5-54.5-4.9-83.3-7.5-2.4 26.4-4.5 51.3-7.1 76.2zm22.7-180.3c-2.4 8.9-2.3 9.1 7 11.6 39.2 10.7 78.4 21.2 117.6 31.8 80.7 21.7 161.3 43.4 242 65.2 11.2 3 11.3 3 14.3-7.9 5.3-19.2 10.8-38.3 15.6-57.6 3.6-14.4 5.9-12.2-9-16.2-76.5-20.7-153-41.2-229.5-61.8C372.6 488 327 475.8 279.7 463c-6.8 24.8-13.2 48.5-19.5 72.2zm631.5-151.5c-4-21.9-8.4-43.8-12.2-65.7-13.9-79.3-27.6-158.6-41.4-238-4.1-23.9-8.3-47.8-12.3-71.7-1.1-6.5-3.1-9.5-10.6-8-21.9 4.3-43.9 7.8-65.8 11.5-5.4.9-8.9 2.8-7 9.2.6 2.2.6 4.6 1 7 16.9 97 33.8 194.1 50.7 291.1 4.3 24.6 8.6 49.3 12.9 73.9.8 4.6 1 9.4 8.3 8.1 25.3-4.6 50.7-8.9 76-13.2.2-1.9.6-3.1.4-4.2zm-168.1 70.8c23.5-16.1 46-31.5 69.5-47.6-74.3-109-148-217.3-222-325.9-23.7 16.2-45.9 31.4-69.5 47.5 74.3 109.2 147.9 217.3 222 326zm-18.2 20.3c2.4-4 1.7-6.4-2.3-8.5-2.1-1.1-4-2.4-6-3.6-93.2-55-186.4-110.1-279.6-165.1-15.8-9.3-31.5-18.6-48.3-28.4-14.4 24.4-28.3 48.1-42.7 72.5C439.7 408.6 552 474.9 665.8 542.1c13.5-23 26.5-45.2 39.6-67.3zM243.2 784.2c-10.7 0-10.8.1-10.9 11-.1 20.3-.1 40.7 0 61 0 11.3.1 11.3 11.8 11.4H607.7c2.7 0 5.5-.2 8.2 0 6.7.7 8.7-2.3 8.6-8.8-.3-21.1-.1-42.2-.1-63.3 0-11.2-.1-11.2-11.8-11.2H428.5c-61.7-.1-123.5-.1-185.3-.1z"/></svg>