<svg xmlns="http://www.w3.org/2000/svg" viewBox="0 0 1000 1000" style="enable-background:new 0 0 1000 1000" xml:space="preserve"><path d="M287.5 400.7c-22.4-13-42.5-25.6-63.5-36.6-17.3-9-35.3-16.8-53.5-23.7-15.2-5.8-27.7-.3-32.2 12-4.6 12.6.7 24.1 15.7 30.8 46.3 20.8 91 44.1 130.2 76.9 62.3 52.1 108 116.6 141.3 190.2 9.4 20.7 17.4 42.1 27 65.6 5.5-14.7 10.3-27.4 15-40.1 26.4-72.3 56.4-142.9 94.2-210 4.9-8.8 4.5-14.8-2.4-22.7-45.2-51-64.4-111-62.8-179 2.8-119.2 106.2-233.5 224.7-248.2 77.1-9.6 145.5 8.7 202.2 62 75.9 71.4 97.4 184.1 55.9 280.9C935.7 460.1 839.1 523.3 729.5 521c-36.7-.8-71.9-9.6-104.1-27.6-11.2-6.3-16.9-4-21.9 7.2-26.1 58.8-52.6 117.5-79.1 176.2-5.2 11.5-1.9 16.6 9.9 21 37.9 14 70.6 35.5 93 70.4 30.5 47.3 24.6 109.6-13.5 150.9-39.1 42.3-88.1 62-144.5 66.5-64.7 5.2-122.7-10.6-173.1-52.5-56.9-47.3-61.8-132.4-10.6-185.9 23-24 49.9-41.5 81.5-51.1 12.1-3.7 16.1-7.5 10-20.9-31.7-69.7-74.4-130.8-133.4-180.2-8.5-7.1-14.7-6.7-24-1.7-91.2 49.7-198.2-.1-217.2-100.7-15-79.3 40.8-158.5 120.1-170.2C207 209.8 282 265.8 291.9 348.2c2.1 17.3 2.5 33.9-4.4 52.5z"/></svg>