<svg xmlns="http://www.w3.org/2000/svg" viewBox="0 0 1000 1000" style="enable-background:new 0 0 1000 1000" xml:space="preserve"><path d="M243 482.2c-8.4 31.2-16.7 62.5-25.2 94h-37.1c-12.6-50.3-25.3-100.7-38.2-152.1h37.6c7 34 14 68.3 21.1 102.6.8.1 1.6.2 2.5.3 8.3-32.8 16.7-65.6 25.2-98.9h32c8.5 33.2 17 66.2 25.4 99.1.8 0 1.6 0 2.3-.1 7-34.2 13.9-68.4 21-103.1h36.2c-13.1 51.4-25.9 101.8-38.7 152.2H270c-8.3-31.4-16.5-62.5-24.7-93.7-.8 0-1.6-.2-2.3-.3zm418.2-1.9c21.7 32.3 43.4 64.5 64.5 95.9h31.7V424.5h-34.5v93.6c-.6.1-1.3.2-1.9.3-21.1-31.5-42.1-63-62.9-94h-33.3v151.4h34.1v-94.9c.7-.2 1.5-.4 2.3-.6zM469.9 576v-30.3h-74.1v-32.4h53.5v-29.8h-53.2v-29.3h68.4v-29.9H360.6V576h109.3zm126.3-121.6v-30H493.1c-2.5 18.7-1.5 144 1.1 151.7h107v-30.5h-72.9v-32.5H581v-29.5h-52.8v-29.2h68zm-511.4-.3h48.1v-29.6H0v30.3h49.3v121.6h35.5V454.1zm890.6-28.9c-17-7.4-34.3-8.1-51.7-1.8-15.8 5.7-25.9 16.4-27.6 33.9-1.9 18.7 6 32.3 22.2 40.9 6.4 3.4 13.7 5.2 20.7 7.5 7.3 2.4 15 4.1 22 7 12.6 5.3 16.9 13.2 15.4 26.1-1.2 10.3-9.9 18.6-21.9 20.2-16.6 2.3-31.5-1.3-43.8-13.3-2.1-2-4.3-4-6.9-6.5-5.1 4.9-10 9.5-14.8 14.1 18.7 24.3 52.8 33.8 80.5 23.1 18.8-7.2 30.7-23.5 30.7-41.9 0-19.6-10.4-34.5-29.8-42.3-6.5-2.6-13.3-4.1-19.9-6.3-7-2.3-14.1-4.3-20.7-7.5-7.4-3.6-11.8-10-11.1-18.8.7-8.6 5.6-15.1 13.4-17.3 7.5-2.1 16.3-3.3 23.7-1.5 8.9 2.1 16.9 7.7 26.2 12.3 3.5-3.2 7.9-7.1 12.9-11.7-5.4-8.2-11.9-12.9-19.5-16.2zM835.9 579.1c18.8-3.9 31.4-17.2 33.7-36 .7-5.8 1.2-11.7 1.3-17.6.1-30.2.1-60.5 0-90.7 0-3.5-.5-7-.7-10.3h-22.3v37.3c0 24 .1 47.9-.2 71.9-.2 13.3-7.8 23.4-18.9 25.3-10.5 1.8-20.6.3-29.1-6.8-2.5-2.1-4.9-4.1-7.7-6.4-5.1 4.6-9.8 8.7-15.4 13.7 16.4 19.1 36.2 24.4 59.3 19.6z"/></svg>