<svg xmlns="http://www.w3.org/2000/svg" viewBox="0 0 1000 1000" style="enable-background:new 0 0 1000 1000" xml:space="preserve"><path d="M999.7 500.4c0 112.1-.1 224.1.1 336.2.1 25.1-10.9 43.8-32.6 54.5-69.1 34-138.4 67.4-208.1 100.1-25.4 11.9-49.9 8.4-71.3-11.2-38.9-35.6-78-71-117-106.5-53.7-48.8-107.5-97.6-161.2-146.5-35.8-32.6-71.6-65.2-107-98.2-6.4-5.9-10.4-6.1-17.2-.9-51.7 39.5-103.6 78.7-155.5 118-25.6 19.4-44.9 18-68.4-4-15-14.1-30-28.2-45.8-41.4-21.9-18.3-18.4-54.1 2.7-71.1 28.9-23.4 55.4-49.7 82.9-74.7 17.1-15.6 34-31.4 51.3-46.7 6.4-5.7 6.6-9.8.1-15.7-37.3-33.6-74.3-67.5-111.4-101.3-9.3-8.5-19.1-16.6-28-25.6-17.7-17.9-17.8-45.6.4-63.2 17.6-17.1 35.8-33.6 54.4-49.7 19-16.4 38.7-16 60.1.2 51.9 39.2 103.8 78.4 155.4 118.1 8.2 6.3 12.8 6.2 20.6-1C357.8 320 412 271.2 465.9 222c36-32.9 71.9-65.9 107.9-98.8C612 88.4 650.1 53.6 688.5 19c22.6-20.4 48.2-21.2 74.7-9.1 21.4 9.7 42.4 20.3 63.5 30.5l134.7 65.1c26 12.5 38.7 32.3 38.5 62-.5 110.9-.2 221.9-.2 332.9zm-545.6-.5c97.9 74.3 194 147.3 292.3 221.9V278C648.2 352.6 552 425.5 454.1 499.9z"/></svg>