<svg xmlns="http://www.w3.org/2000/svg" viewBox="0 0 430.1 430.1" style="enable-background:new 0 0 430.1 430.1" xml:space="preserve"><path d="M0 215.1c0 118.8 96.3 215.1 215.1 215.1s215.1-96.3 215.1-215.1C430.1 96.3 333.8 0 215.1 0 96.3 0 0 96.3 0 215.1zm16.6 0c0-28.8 6.2-56.1 17.2-80.8l94.7 259.4C62.2 361.5 16.6 293.6 16.6 215.1zm198.5 198.4c-19.5 0-38.3-2.8-56.1-8.1l59.6-173 61 167.1c.4 1 .9 1.9 1.4 2.7-20.7 7.4-42.8 11.3-65.9 11.3zm160.4-202.2c11.3-28.3 15.1-51 15.1-71.1 0-7.3-.5-14.1-1.4-20.4 15.5 28.3 24.3 60.7 24.3 95.2 0 73.2-39.7 137.2-98.7 171.5l60.7-175.2zm-42.8-61c7.5 13.2 16.4 30.2 16.4 54.7 0 17-5.1 38.4-15.1 64.2l-19.8 66.1L242.4 122c12-.7 22.7-1.9 22.7-1.9 10.7-1.3 9.4-17-1.2-16.4 0 0-32.2 2.5-52.9 2.5-19.5 0-52.3-2.5-52.3-2.5-10.7-.6-11.9 15.8-1.3 16.4 0 0 10.1 1.2 20.8 1.9l30.9 84.7L165.7 337 93.4 122c12-.7 22.7-1.9 22.7-1.9 10.7-1.3 9.4-17-1.3-16.4 0 0-32.1 2.5-52.9 2.5-3.7 0-8.1-.1-12.8-.2 35.5-53.9 96.5-89.5 165.8-89.5 51.7 0 98.7 19.8 134 52.1-.8-.1-1.7-.2-2.5-.2-19.5 0-33.3 17-33.3 35.2.1 16.5 9.5 30.4 19.6 46.7z"/></svg>