<svg xmlns="http://www.w3.org/2000/svg" viewBox="0 0 90.2 90.2" style="enable-background:new 0 0 90.2 90.2" xml:space="preserve"><path d="M5.2 23.2C12.7 9.2 27.7 0 45.1 0c11.2 0 21.5 4.8 29.4 11.5-2.3-.4-4.7.1-7.2 1.5-5.8 3.3-7.7 12.7-.2 17.5 4.7 2.9 6.4 10.3 6.2 14.8-.2 4.5-10.9 25.1-10.9 25.1l-10.5-36s-.4-2.5-.4-3.3c0-.9.3-2 .9-2.7.4-.4 1-1.3 1.7-1.3h5v-4h-27v4h.8c.9 0 1.7 1.2 2.6 2 1 1 2.2 4.8 3.7 8.8l4 13.1-8.5 19.6-9.3-39.1s.3-2.7.8-3.1c.4-.3.9-1.1 1.6-1.1h.3v-4c0-.1-22.9-.1-22.9-.1zm5.3 6.7S8.3 27.1 6 27.1H3.6C1.3 32.1.1 38.8.1 45c0 18.5 11.4 34.4 27.5 41.2L10.5 29.9zm73.3-7.1c.9 4.1.7 9-1 14.4-4.4 14.1-15.1 39.4-19.3 49.1 15.7-7 26.6-22.6 26.6-40.7 0-8.4-2.3-16.1-6.3-22.8zM46 60.8 34.5 88.9c3.4.8 6.9 1.3 10.6 1.3 3.8 0 7.4-.5 11-1.3L46 60.8z"/></svg>