<svg xmlns="http://www.w3.org/2000/svg" viewBox="0 0 495.09 495.35"><g data-name="Calque 2"><path d="M495.09 244.67c-.46 65.26-20.9 120.32-62.45 167.21-40.45 45.65-91.25 72.71-151.51 81-59.13 8.12-114.51-3.78-165.2-35.53-49.13-30.77-83.11-74-102.51-128.48C1.31 294.82-2 259.63 1.13 223.71c3.31-37.43 15.09-72.06 34.32-104.23 5.52-9.24 15-14 24.19-12.13 11.36 2.28 17.66 8.83 19.44 20.45 1 6.71-2.41 12.11-5.16 17.83-6.17 12.86-13.27 25.49-17.62 39-16 49.61-14.31 98.92 8 146.27C94.91 395.59 146 435 216.75 446.42c59.07 9.51 112.61-5.59 158.91-43.77 37.69-31.08 61.42-71 69.94-119.18 7.2-40.79 3-80.58-14.48-118.42C407 113 367.87 76.89 313.9 57.44 287.16 47.8 259.39 44 231 47.07c-9.89 1.06-19.75 2.61-29.53 4.45-13 2.44-25.22-4.42-28.06-16.24-3.24-13.49 4-25.57 17.69-28.78A248.4 248.4 0 0 1 381 39c34.17 21.76 61.19 50.4 81.44 85.43a242.82 242.82 0 0 1 30.91 93.09c1.18 9.85 1.29 19.85 1.74 27.15Zm-266.16-29c-.13 14.88 1.95 12.83-13 12.9-21.78.11-43.56 0-65.35.07-10.59 0-19.72 7.89-19.89 19.18-.18 12.69 10 19.76 19.7 19.84H222.23c6.53 0 6.72.2 6.72 6.73 0 22.95 0 45.9.05 68.85a37.79 37.79 0 0 0 .93 8.88c2.19 8.94 8.76 13.5 18.89 13.48 9.67 0 16.13-4.72 18.27-13.59a36.37 36.37 0 0 0 .9-8.39c.07-22.78 0-45.57 0-68.35 0-7.6 0-7.61 7.83-7.61h67.85a38 38 0 0 0 7.9-.74c7.67-1.63 13.55-7.59 14.29-14.15 1.29-11.32-1.75-18.37-10.33-22a29.82 29.82 0 0 0-11.14-2q-35.18-.27-70.35 0c-4.47 0-6.27-1.33-6.13-6 .28-8.81.08-17.63.08-26.44 0-15.46.12-30.93-.07-46.39-.12-9.25-6-17.84-13.5-18.8-10.92-1.4-17.2-1.26-22.93 9.26-1.74 3.18-2.36 7.29-2.46 11-.3 11.63-.11 23.28-.11 34.92.08 9.68.08 19.5.01 29.31ZM112.5 44.84c-12.85.15-22.42 9.95-22.44 23C90 81.12 99.72 91 112.74 91s22.71-9.91 22.69-23.22-9.93-23.09-22.93-22.94Z" data-name="Calque 1"/></g></svg>