<svg xmlns="http://www.w3.org/2000/svg" viewBox="0 0 495.15 495.25"><g data-name="Calque 2"><path d="M495.15 243.22c-.13 64.9-19.52 118.54-58.59 164.45-41.85 49.17-95.3 77.92-159.57 85.64-60 7.21-115.68-5.67-165.76-39.17-61.59-41.2-98.31-99.06-108.69-172.64-7.24-51.26 1-100.36 24.53-146.68 2.86-5.62 6-11.13 9.29-16.51A23.29 23.29 0 0 1 67.74 110c10.62 5.84 14.46 19.25 9 30.7-6.62 13.76-14.55 27.1-19.39 41.46-17 50.47-15.6 100.78 7.42 149.07 31.38 65.83 83.58 105.37 156 115.7 59.76 8.52 113.28-7.91 158.8-47.36 39.23-34 62.38-77.28 68.12-129.24 4.32-39.12-1.16-76.94-19.43-111.9C395.67 96.11 344.63 58.57 274.58 48c-24.45-3.68-48.7-2.09-72.77 3.35-10.37 2.34-20.06-1.41-25.36-9.57a22.89 22.89 0 0 1 1.83-27.4 25.69 25.69 0 0 1 12.39-7.57A236.52 236.52 0 0 1 265.32.67a245.3 245.3 0 0 1 98.94 28.42c41.83 22.33 74.49 54.21 98.26 95.19a241.84 241.84 0 0 1 31 93.07c1.17 10.04 1.29 20.21 1.63 25.87Zm-291.24 27.47h144.03c9.9 0 17-4.74 20.84-13.54 4.07-9.34 2.56-18.22-4.47-25.89-5.76-6.26-13.31-7.77-21.31-7.78H203.14c2.08-2.61 3.15-4 4.24-5.32 3.75-4.65 7.87-9.06 11.2-14 6.61-9.8 4.25-24-4.76-31.09-10-7.88-24-7.32-32.09 1.93q-24.62 28.13-48.64 56.76c-8.42 10.08-8.64 20.89-.25 30.93q24.6 29.43 50.21 58c9.41 10.43 27.31 8.19 35.16-3.54 6.68-9.95 5.48-21.11-3.37-31.55L203.29 272ZM113 91c12.83-.07 22.51-9.85 22.54-22.81 0-13.39-9.46-23.25-22.5-23.34s-22.8 9.79-22.8 23S100 91.07 113 91Z" data-name="Calque 1"/></g></svg>