<svg xmlns="http://www.w3.org/2000/svg" viewBox="0 0 495.26 495.18"><g data-name="Calque 2"><path d="M0 247.56c0-46.11 12.23-88.69 35.76-128.14 5.5-9.22 15-13.9 24.24-12 11.33 2.29 17.63 8.91 19.36 20.51 1 6.52-2.3 11.82-5 17.4-6.22 13-13.46 25.77-17.85 39.41-15.95 49.62-14.34 99 8.13 146.26 31.42 66 83.75 105.64 156.42 116 57.79 8.2 109.87-7.16 154.93-44.34 38-31.34 61.76-71.59 70.09-120.19 7-40.61 2.65-80.25-14.94-117.89-24.29-52-63.48-88-117.54-107.26-35.91-12.76-72.78-14.53-110-6.19-11.45 2.56-21.05-.51-26.65-8.66-9.12-13.26-2.53-31.78 13.05-35.59A241 241 0 0 1 265.14.65a245.32 245.32 0 0 1 99.41 28.55c41.8 22.39 74.44 54.3 98.17 95.31a234.89 234.89 0 0 1 30.85 93.09c6.87 63.49-7.11 121.91-44.49 174.18-30.76 43-71.45 72.86-121.24 90.24a240.08 240.08 0 0 1-61.4 12.42 243.86 243.86 0 0 1-135.69-28.57c-41.84-22.32-74.41-54.33-98.1-95.37a241.82 241.82 0 0 1-30.73-92.63C.71 267.84.61 257.67 0 247.56Zm272.56 73.95c43.32-7.43 77.44-29.51 102.53-65.46 4.49-6.42 4.71-11.05-.11-16.81-8.19-9.76-16-20.06-25.46-28.5-34.06-30.47-74.32-43.33-119.67-37.91-46.13 5.52-82.23 28.53-109.06 66.26-5 7-5 10.08.09 17.17C152 299.81 194.33 322.19 250.34 324c5.77-.6 14.07-1.09 22.22-2.49Zm71.17-91.28c4.28 4.14 7.83 9 11.78 13.5 2.21 2.51 2.36 4.77.21 7.52-22.83 29.26-52.37 47.27-89.27 52.11-39.23 5.14-74.63-4.58-105-30.14-8-6.67-14.43-15.08-21.63-22.65-2-2.11-1.64-3.86.06-6.06 22.4-29.16 51.66-46.86 88-52.54 6.54-1 13.22-1.11 19.83-1.63 37.53.15 69.29 14.04 96.02 39.89ZM113.06 44.86a22.35 22.35 0 0 0-22.74 22.67c-.06 13.64 9.69 23.66 22.89 23.53 12.84-.13 22.46-10 22.48-22.93.03-13.33-9.62-23.25-22.63-23.27ZM248.48 199c-28.23.28-48.51 21.5-49.16 48.74-.61 26.12 22 48.26 48.76 48.53 26.17.26 48.14-21.79 48.23-48.4.08-26.33-21.68-49.17-47.83-48.87Zm-.11 78.41a29.36 29.36 0 0 1-30-29.92c0-16.53 13.24-29.49 29.83-29.66 15.53-.15 30.45 14.53 29 29.79-.01 16.86-12.4 29.67-28.83 29.75Zm-26-30.29c0 5 3.94 9.64 8.58 10.12 4.25.44 9.66-2.89 10-7.26.5-7.2 4.28-10.06 10.88-11.22a8.71 8.71 0 0 0 7.4-9.69c-.57-4.95-4.75-8.47-10-8.47-13.74-.03-26.85 12.95-26.83 26.48Z" data-name="Calque 1"/></g></svg>