<svg xmlns="http://www.w3.org/2000/svg" viewBox="0 0 495.5 495.35"><g data-name="Calque 2"><path d="M0 247.37c.24-46.14 12.53-88.7 36.09-128.14 5.55-9.3 15.21-13.8 24.82-11.7 11 2.4 18.23 9.61 18.47 21.09.12 5.57-2.72 11.42-5 16.79-5.54 12.78-12.86 24.93-17.18 38.09-16.47 50.07-14.96 99.88 7.8 147.66C96.33 397 148.5 436.81 221 446.85c65.16 9 121.91-10.6 168.92-56.87 33.45-32.92 53.16-72.92 58-119.63 6.53-63.64-12.41-118.78-57.38-164.63-32.98-33.58-73.18-52.52-119.62-58.29a191.81 191.81 0 0 0-67.85 3.82c-10 2.35-18.71.19-25.13-7.84a23 23 0 0 1 12.47-36.58A241.3 241.3 0 0 1 265.58.67a245.07 245.07 0 0 1 98.93 28.4c42 22.43 74.75 54.44 98.53 95.63a236.49 236.49 0 0 1 30.71 92.63c5 44.95-.62 88.49-19.09 130.14a244.76 244.76 0 0 1-54 77.73c-37.72 36.39-82.51 59.11-134.39 67-62.78 9.56-121.4-2.62-174.25-37.74-61.93-41.12-98.4-99.17-109.25-172.87C1.11 270.29.89 258.78 0 247.37Zm203.52-14.54c14.61-.09 28.27-10.2 29.52-24.54a291 291 0 0 0 .08-49.66c-1.23-14.48-16.4-26-30.94-26-13 0-25.92-.12-38.88 0-15.37.17-29.5 14-29.75 29.33-.23 13.63-.26 27.26 0 40.88.29 15.36 15.25 29.82 30.59 30 6.48.06 13 0 19.44 0 6.65 0 13.29.04 19.94-.01Zm.21 129.74c14.27-.07 28.23-10.7 29.38-24.82a303.47 303.47 0 0 0 .07-49.17c-1.19-14.49-16.25-26.13-30.77-26.2-13.12-.05-26.25-.16-39.38.05-15.53.26-29.26 14-29.49 29.48q-.3 20.19 0 40.38c.25 15.4 15.46 30.2 30.82 30.28h19.94c6.47.01 12.95.04 19.43 0Zm159.68-70.41c-.18-14.38-14.77-29.43-29.18-29.71q-20.93-.39-41.86 0c-15.46.31-28.8 13.8-29.06 29.29-.23 13.45-.21 26.92 0 40.37.23 15.92 15.12 30.41 31 30.46q19.44.06 38.88 0a30.37 30.37 0 0 0 30.23-30v-19.43c.01-7.02.08-14-.01-20.98Zm0-129.55c-.16-14.48-15.11-29.75-29.53-29.94-13.79-.18-27.58-.2-41.36 0-14.92.22-28.84 13.83-29.19 28.73q-.48 20.91 0 41.85c.37 15.17 15.27 29.46 30.36 29.56 12.79.09 25.58 0 38.37 0 18.27 0 31.34-13.13 31.36-31.36v-17.94c.01-6.95.07-13.93 0-20.9ZM113.05 44.86c-12.83.1-22.49 9.92-22.52 22.89 0 13.35 9.58 23.25 22.61 23.31s22.77-9.88 22.77-23.15-9.85-23.16-22.86-23.05Z" data-name="Calque 1"/></g></svg>