<svg xmlns="http://www.w3.org/2000/svg" viewBox="0 0 495.19 495.28"><g data-name="Calque 2"><path d="M495.19 244.09c-.1 64.07-19.51 117.7-58.58 163.61-41.85 49.18-95.3 77.9-159.56 85.64-59.4 7.15-114.7-5.48-164.53-38.33C51.29 414.65 14.17 357.62 3.06 285c-8.42-55 .45-107.63 27.7-156.67 1.86-3.34 3.63-6.74 5.64-10A23.37 23.37 0 0 1 67.8 110c10.61 5.84 14.4 19.23 8.93 30.72-6.86 14.38-15.3 28.3-20 43.38-21.61 69.62-10.48 134 35.4 191 33.95 42.16 78.79 66.56 132.63 72.56 56.59 6.34 107.51-8.66 151.45-45.2 37.88-31.47 61.85-71.68 69.89-120.3 9.84-59.54-3.73-113.85-41.8-161C370 78.66 325 54.13 270.67 47.41a194.89 194.89 0 0 0-67.85 3.79c-11.3 2.6-21.32-1-26.57-9.83-6.67-11.21-3.85-30.08 13.46-34.37A237.1 237.1 0 0 1 264.86.67a253.78 253.78 0 0 1 55.29 10.13A248.24 248.24 0 0 1 471.6 141.53a233.66 233.66 0 0 1 22.28 80.32c.78 8.59 1.03 17.24 1.31 22.24ZM291 278.06c-3.75 4.65-7.87 9.06-11.2 14a23.49 23.49 0 0 0 4.76 31.08c10 7.87 24 7.29 32.1-1.94q24.45-27.93 48.35-56.34c8.59-10.22 8.68-20.89.55-31.39-5.28-6.82-10.93-13.37-16.6-19.88-11.12-12.79-22.08-25.72-33.64-38.09-9.57-10.25-27.37-8.12-35.17 3.59-6.75 10.13-5.42 21.3 3.73 31.92 3.82 4.43 7.53 9 12.18 14.51H149.91c-9.71 0-16.62 4.93-20.32 13.54-3.91 9.09-2.75 17.86 4.12 25.49 5.84 6.49 13.48 8.13 21.7 8.13h139.88c-2.1 2.67-3.18 4.03-4.29 5.38ZM113.15 44.9c-13.32-.06-22.79 9.51-22.8 23s9.41 23.17 22.7 23.1c13.07 0 22.59-9.85 22.56-23.28-.03-13.23-9.39-22.72-22.46-22.82Z" data-name="Calque 1"/></g></svg>