<svg xmlns="http://www.w3.org/2000/svg" viewBox="0 0 494.77 496.27"><g data-name="Calque 2"><path d="M494.74 247.88c.3 60.75-19.23 114.58-58.4 160.75-40.75 48-92.87 76.58-155.21 85.13-60.09 8.25-116.48-3.83-167.27-37C50.7 415.44 13 356.84 2.5 281.7c-7.16-51.36 1.07-100.55 24.67-146.92 2.72-5.34 5.73-10.53 8.8-15.68 6.77-11.34 20.22-15.13 31.57-9 10.79 5.81 14.57 19.38 8.92 31.16-6.76 14.07-14.83 27.74-19.65 42.51C40 235.16 42 286.09 66.12 334.86c31.87 64.41 83.69 103 154.93 113 57.8 8.14 109.85-7.24 154.88-44.53 37.67-31.19 61.42-71.15 69.87-119.46 7.37-42.08 2.65-82.93-16-121.8q-31.35-65.27-96.39-96.69a196.4 196.4 0 0 0-68.48-18.43c-21.6-1.94-42.77 0-63.84 4.59-12.56 2.76-24.93-4.74-27.51-16.32-3.08-13.85 3.66-25.38 17.27-28.6a248.3 248.3 0 0 1 175.8 23.8 242.27 242.27 0 0 1 65.28 51.91c21.49 24.2 38 51.29 48.82 81.81 8.4 23.69 13.57 48 14 73.27.05 3.48-.01 6.97-.01 10.47Zm-221.57 46.49V150.08c0-9.83-5.3-18-13.9-21.15-9.51-3.49-18.24-2.31-25.77 5.06-6 5.83-7.41 13.16-7.42 21v140.16c-2.64-2.07-4-3.11-5.35-4.2-4.37-3.57-8.57-7.4-13.14-10.7-8.78-6.34-19.78-5.82-28.74 1-7.62 5.8-11.19 16.78-7 26.06 2.37 5.19 6.67 9.85 11 13.71q25.35 22.5 51.35 44.26c10.08 8.42 20.62 8.35 31 .31 6.82-5.29 13.37-10.94 19.88-16.63 12.92-11.23 25.92-22.34 38.44-34.04 9.65-9 7.76-26.56-3-34.3-10.2-7.29-21.66-6.29-32.36 2.83q-6.78 5.79-13.6 11.55ZM113.05 44.93c-13.19-.06-22.68 9.35-22.74 22.53-.08 14.07 9.12 23.66 22.69 23.63 12.89 0 22.48-9.75 22.51-22.81 0-13.75-9.17-23.28-22.46-23.35Z" data-name="Calque 1"/></g></svg>