<svg xmlns="http://www.w3.org/2000/svg" viewBox="0 0 495.1 495.36"><g data-name="Calque 2"><path d="M495.1 243.57c-.19 64.52-19.55 118-58.36 163.86-39.67 46.89-90.28 75.39-151 84.78-62.76 9.7-121.16-3-174.27-37.74C66.64 425.2 35 385 15.75 335 2.67 301-1.73 265.75.59 229.71c2.59-40 14.78-77.22 35.71-111.47a23.28 23.28 0 0 1 31.43-8.19c10.61 5.91 14.35 19.27 8.88 30.75-6.92 14.53-15.2 28.64-20.15 43.83-16.16 49.56-14.37 98.91 8 146.26C95 395.6 146.09 435.06 216.83 446.45c59.26 9.54 113-5.58 159.27-44.1 41.27-34.35 65.82-78.5 71.4-132.15 6.56-63-12.16-117.83-56.44-163.52-33-34-73.38-53.3-120.18-59.19a195.1 195.1 0 0 0-68.35 3.77c-11.27 2.57-21.14-1.19-26.54-10-8-13-1.19-30.72 13.71-34.37A240.76 240.76 0 0 1 264.87.65 244.49 244.49 0 0 1 345 19.86q75.89 32.9 117.5 104.57a241.29 241.29 0 0 1 30.92 93.07c1.22 10.04 1.33 20.21 1.68 26.07Zm-166.36-62.24c-6.69-43.59-47.37-78.05-98-68.33A79.68 79.68 0 0 0 166 193.36 19.8 19.8 0 0 0 190.16 212c10.06-2.36 15.66-9.9 16.12-21.72.75-19.24 14.73-34.47 34.8-37.92 18.4-3.16 38.38 8 44.86 25 7.9 20.78 1.05 39.78-17.87 51.6a102 102 0 0 0-19.85 15.62c-12.94 13.6-19.18 30.33-20.8 49.06-1.1 12.69 6.89 23.69 19.05 24.72 11.07.94 21.2-8.57 21.56-20.84.46-15.54 7.48-26.55 20.86-34.42 26.51-15.59 39.93-39 39.93-69.87 0-3.94.51-8-.08-11.9Zm-51.1 175.86c.2-14.26-12.45-26.91-26.76-26.77S224 343 224.14 357.31c.15 15.64 13.92 27.62 26.29 26.25 15.57.04 27-11.02 27.21-26.37Zm-165-312.32c-12.86.17-22.41 10-22.43 23 0 13.31 9.67 23.23 22.69 23.22s22.7-9.92 22.68-23.23-9.99-23.15-22.99-22.99Z" data-name="Calque 1"/></g></svg>