<svg xmlns="http://www.w3.org/2000/svg" viewBox="0 0 495.09 495.34"><g data-name="Calque 2"><path d="M495.09 244.68c-.46 65.25-20.9 120.31-62.46 167.2-40.45 45.64-91.24 72.71-151.51 81-59.12 8.12-114.5-3.79-165.19-35.53-49.13-30.78-83.11-74-102.51-128.49C1.31 294.81-2 259.62 1.13 223.7c3.32-37.43 15.09-72.06 34.33-104.23 5.51-9.24 15-14 24.19-12.12 11.38 2.28 17.66 8.83 19.43 20.45 1 6.71-2.42 12.11-5.16 17.83-6.17 12.86-13.28 25.49-17.62 39-16 49.62-14.3 98.92 8 146.27C94.92 395.59 146 435 216.76 446.42c59.07 9.51 112.61-5.6 158.9-43.78 37.7-31.08 61.42-71 69.94-119.19 7.2-40.78 3-80.57-14.48-118.41C407 113 367.86 76.88 313.89 57.43A184.38 184.38 0 0 0 231 47.07c-9.89 1.06-19.76 2.6-29.53 4.44-13 2.44-25.22-4.42-28.06-16.24-3.23-13.5 4-25.57 17.7-28.77a248.43 248.43 0 0 1 191.15 33.26c33.58 21.65 60.2 50.05 80.17 84.65a243 243 0 0 1 30.9 93.09c1.2 9.87 1.31 19.88 1.76 27.18ZM362 178.94c-.1-13.87 2-13.31-13.8-17.16-33.41-8.13-65.88-18.73-95.18-37.35-3.43-2.18-6.74-2.36-10.28-.23-5.13 3.08-10.26 6.18-15.56 9-27.47 14.35-56.85 23.24-86.88 30.27-6.27 1.47-7.37 2.87-7.27 9.29.32 20.77.3 41.56 1.26 62.3 1 22.21 6.5 43.39 18.23 62.54 21.19 34.58 52 57.64 88.66 73.69 4.82 2.12 9.59 1.57 14.47-.56a206.24 206.24 0 0 0 56.43-36.16c21.27-19.28 37-42.18 44.34-70.26 5.72-21.78 5.48-44.1 5.58-66.37v-19Zm-25.6 80.5c-5.47 28.17-23.25 49.16-45.25 66.67a153.48 153.48 0 0 1-39.42 23.13 12.1 12.1 0 0 1-8.45-.06c-27.39-12.08-51.08-29-68.59-53.74a103.68 103.68 0 0 1-19.27-54.76c-1-17.73-1.31-35.51-2.14-53.25-.22-4.84 1.48-7.22 6.31-8.33 22.9-5.26 45.21-12.38 66.45-22.52 6.28-3 12.16-6.86 18.43-9.9 1.74-.84 4.73-1 6.28-.06 25.43 15.5 53.25 24.76 81.91 31.92 9.1 2.26 9.09 2.28 9 11.54v8l1.27.12c-2.06 20.42-2.66 41.15-6.56 61.24ZM112.79 44.83a22.35 22.35 0 0 0-22.73 22.68C90 81.14 99.75 91.16 113 91c12.83-.12 22.46-9.94 22.48-22.92-.02-13.31-9.67-23.22-22.69-23.25Zm221.3 160.78c0-4.66-.34-9.35.11-14 .4-4.13-1.31-5.43-5-6.34-23.31-5.71-46.42-12.58-67.38-24.26-10.56-5.89-18-6-28.6 0-20.74 11.78-43.8 18.33-66.9 24.11-4.41 1.1-5.54 3.18-5.39 7.27.51 14.11.5 28.25 1.26 42.34 1.08 19.94 6.31 38.67 17.87 55.28 16.52 23.76 39 40.16 65.1 51.82 1.63.72 4.24.22 6-.54A148.76 148.76 0 0 0 290.47 317c18.71-16 34-34.8 38.86-59.43 3.39-17 4-34.55 5.84-51.86Z" data-name="Calque 1"/></g></svg>