<svg xmlns="http://www.w3.org/2000/svg" viewBox="0 0 495.38 495.29"><g data-name="Calque 2"><path d="M495.38 243.33c-.88 73.75-25.64 133.18-75.08 181.8-38.8 38.15-85.71 61.18-139.7 67.93-75.26 9.43-142-11-198.71-61.63-45.17-40.31-71.76-91.06-79.62-151.1-7.51-57.33 3.6-111.11 33.4-160.84 5.76-9.61 14.88-14 24.65-12 10.6 2.12 18 9.31 18.67 20.41a29 29 0 0 1-4 15.49c-13.85 23.72-23.37 49-26.85 76.15-4.74 37-1.13 73.15 14.38 107.36 30.32 66.9 81.82 107.87 154.33 119.51 62.7 10.06 118.7-7.25 166-49.88 37.31-33.59 59.16-75.74 64.53-125.75C454 210.09 437 156.59 395.68 111.4 363.19 75.82 322.71 55 275 48.17c-25-3.57-49.68-1.85-74.26 3.4-12.7 2.71-24.8-5-27.44-17.09-2.78-12.76 4.42-24.7 17.31-27.78a243.36 243.36 0 0 1 74.67-6c48.26 3.52 91.89 19.47 130.41 48.49 54.05 40.72 86.21 95 96.92 161.75 1.9 12.06 2.11 24.41 2.77 32.39Zm-284 28.73Q193 253 174.58 234.05c-5.3-5.46-11.78-8.15-19.35-7.14-9.34 1.26-16.15 6.33-19.08 15.39s-1.14 17.37 5.66 24.4c19.29 20 38.5 40 57.83 59.95 12.16 12.53 27.29 11.55 38.06-2.3q9.8-12.6 19.54-25.24Q300.52 243 343.79 187c4.79-6.19 6.71-13 4.82-20.58-2.37-9.45-8.66-15.24-18.12-17.15s-17.08 1.47-22.84 8.91Q267.47 210 227.42 261.93c-3.63 4.7-7.34 9.35-12.33 15.71-1.69-2.54-2.5-4.27-3.75-5.58ZM113 44.82a22.71 22.71 0 0 0-22.89 22.72C90 81 100 91.29 113.06 91.18a22.69 22.69 0 0 0 22.62-23c.03-13.12-9.85-23.31-22.68-23.36Z" data-name="Calque 1"/></g></svg>