<svg xmlns="http://www.w3.org/2000/svg" viewBox="0 0 495.21 495.3"><g data-name="Calque 2"><path d="M495.21 244.12c-.09 64-19.62 117.74-58.81 163.81-40.65 47.79-92.6 76.27-154.75 84.83-61.56 8.49-119-4.27-170.67-38.84-60.3-40.38-96.76-97-107.89-168.86-7.39-47.68-1.66-94.18 18.59-138.38 4.35-9.5 9.3-18.76 14.5-27.83a23.09 23.09 0 0 1 31.55-8.92c10.77 5.85 14.47 19.36 8.84 31.13-6.95 14.52-15.44 28.62-20.1 43.87C35.26 254.24 46.48 318.33 92.1 375c33.93 42.16 78.74 66.61 132.58 72.63 56.56 6.37 107.49-8.63 151.45-45.14 37.9-31.45 61.92-71.63 70-120.25 9.92-59.91-3.81-114.47-42.31-161.77-34.29-42.11-79-66.4-132.94-73.12A194.17 194.17 0 0 0 203 51.1c-10.76 2.47-20.35-.69-25.85-8.39-7.66-10.71-5.5-31.46 12.92-35.89A243.5 243.5 0 0 1 265.24.66a247.62 247.62 0 0 1 206.31 140.69 234.12 234.12 0 0 1 22.33 80.31c.78 8.59 1.03 17.23 1.33 22.46Zm-171.1-71.94c-9.08-9.78-24.05-9.72-34.28.37-12.56 12.37-25 24.91-37.43 37.37-4.66 4.66-4.67 4.66-9.22.11-12.59-12.58-25.1-25.24-37.79-37.72-6.8-6.69-15-9.11-24.29-6.22-8.32 2.59-13.4 8.46-15.29 16.91-2 9.13 1.16 16.7 7.54 23.11 12.32 12.38 24.59 24.81 37.1 37 3.37 3.28 3.66 5.37.12 8.8-12.65 12.28-25.07 24.79-37.45 37.35-9.34 9.48-10.48 22.59-3.06 32.16 8.67 11.18 24.77 11.79 35.58 1.15 12.56-12.38 25-24.92 37.43-37.38 4.66-4.66 4.67-4.66 9.22-.11 12.59 12.58 25.1 25.24 37.78 37.72 6.81 6.69 15 9.11 24.29 6.22 8.32-2.59 13.4-8.45 15.29-16.91 2-9.12-1.15-16.69-7.53-23.1-12.32-12.38-24.59-24.81-37.11-37-3.37-3.28-3.65-5.36-.12-8.79 12.54-12.16 24.79-24.61 37.11-37 5-5 8.28-10.8 8.21-18.11a23.33 23.33 0 0 0-6.1-15.93Zm-211-127.32c-13.15 0-22.66 9.4-22.72 22.56C90.33 81.39 99.61 91 113.12 91c12.87 0 22.46-9.78 22.49-22.82.03-13.72-9.21-23.28-22.49-23.32Z" data-name="Calque 1"/></g></svg>