<svg xmlns="http://www.w3.org/2000/svg" viewBox="0 0 495.04 495.29"><g data-name="Calque 2"><path d="M495 244.3c-.1 61.92-18.5 114.43-55.86 160-41.05 50-94.05 79.61-158 88.48-60.07 8.33-116.48-3.77-167.27-36.89C50.74 414.67 13 356.2 2.51 281.22c-7.12-50.9.91-99.7 24.18-145.75 2.92-5.78 6.15-11.41 9.49-17a23.31 23.31 0 0 1 31.73-8.4C78.29 116 82 129.18 76.65 140.48c-6.83 14.39-15.12 28.34-20 43.37C40 235 42.43 285.46 66 334.21c24.49 50.68 63.39 86.23 116.72 103.87 68.72 22.74 133 11.55 190.09-33 40-31.22 65-72.85 73.27-123.18 9.81-59.92-4-114.45-42.57-161.7-34.34-42.06-79.06-66.28-133-73a194.35 194.35 0 0 0-67.84 3.83c-11.24 2.59-21.35-1-26.53-9.92-6.61-11.39-3.63-30.07 13.65-34.28A241.46 241.46 0 0 1 265.42.69a247.62 247.62 0 0 1 205.9 140.48 233.52 233.52 0 0 1 22.38 80.29c.78 8.59 1.02 17.23 1.3 22.84Zm-269 20.52-42.36-42.3a37.55 37.55 0 0 0-6.14-5.06c-5.78-3.69-13.49-2.91-19 1.69-5.39 4.47-7.9 12.36-4.58 18.37 2.57 4.63 6.57 8.55 10.3 12.44q16 16.74 32.31 33.16 19.25 19.45 38.71 38.71c8.11 8 20 7.11 27.3-1.62 2.13-2.54 4.34-5 6.7-7.36 10.07-9.88 20.27-19.62 30.3-29.54q18.93-18.71 37.65-37.64c4.84-4.92 8.16-10.65 5.92-18s-7.22-11.37-14.68-12.48c-6.27-.93-10.86 2.29-15 6.38Q291.7 243.27 270 265c-1.21 1.21-2.54 2.3-4.94 4.46v-144c0-2 .07-4-.11-6-.6-6.43-5.2-12.32-11-13.33-13.62-2.34-23 2.54-22.9 18.06.21 46.07.08 92.14.08 138.2v7.22c-2.54-2.39-3.87-3.54-5.13-4.79Zm132.85 125.51c7.51 0 14.55-5.28 15.84-11.8 1.93-9.69-1-16.22-9.46-19.43a30.68 30.68 0 0 0-10.68-1.78q-106.49-.15-213-.07c-1.49 0-3.18-.4-4.45.15-4.45 2-9.65 3.34-12.9 6.6-4.75 4.75-4.19 11.6-1.56 17.32s7.67 9.12 14.73 9.09c36.91-.15 73.81-.07 110.72-.07ZM112.84 90.9c12.93 0 22.54-9.62 22.59-22.63 0-13.82-9-23.3-22.29-23.4s-22.81 9.29-22.82 22.86 9.16 23.16 22.52 23.17Z" data-name="Calque 1"/></g></svg>