<svg xmlns="http://www.w3.org/2000/svg" viewBox="0 0 494.93 495.32"><g data-name="Calque 2"><path d="M.05 251.35c-.44-49.78 11.78-92.35 35.3-131.83 5.51-9.25 15-14 24.18-12.14 11.39 2.28 17.67 8.82 19.47 20.43 1 6.72-2.4 12.12-5.15 17.84-6.17 12.86-13.27 25.49-17.62 39-16 49.61-14.31 98.92 8 146.26 30.57 64.7 81.67 104.16 152.41 115.54 59.26 9.54 113-5.58 159.27-44.1 41.27-34.36 65.81-78.51 71.39-132.16 6.56-63.05-12.16-117.83-56.44-163.52-33-34-73.39-53.3-120.19-59.18a195.34 195.34 0 0 0-68.35 3.77c-10.89 2.49-20.53-1-26-9.15-8.74-13.11-2.12-31.43 13.2-35.19A240.37 240.37 0 0 1 264.68.65a244.25 244.25 0 0 1 80.09 19.22q75.94 32.88 117.54 104.57a235.81 235.81 0 0 1 30.89 93.07c5 45-.67 88.5-19.19 130.14a244.74 244.74 0 0 1-54.09 77.69c-37.74 36.36-82.55 59-134.44 66.91-62.79 9.51-121.16-3.06-174.27-37.78C66.44 425.2 34.62 385.06 15.61 335 4.93 306.88-.57 277.8.05 251.35ZM267.9 215c0-6.1-.4-6.45-6.55-6.47-9 0-18 .1-26.92-.06-3.9-.07-5.77 1.07-5.76 5.35q.14 67.82 0 135.64c0 3.87 1.47 5.33 5.31 5.26 9.14-.15 18.28 0 27.43-.05 6.09 0 6.47-.37 6.48-6.52v-66.33q.02-33.45.01-66.82Zm4.1-50.57c0-13.53-9.87-23.52-23.45-23.69a24.34 24.34 0 0 0-24.67 24.55C224 179 234.12 189 248 189c14.62 0 24-9.63 24-24.57ZM112.68 44.87A22.35 22.35 0 0 0 90 67.57c-.1 13.43 9.33 23.32 22.37 23.5s22.94-9.76 23-22.94-9.67-23.24-22.69-23.26Z" data-name="Calque 1"/></g></svg>