<svg xmlns="http://www.w3.org/2000/svg" viewBox="0 0 494.82 495.42"><g data-name="Calque 2"><path d="M.06 250.12C-.39 203 11.15 161.65 33.34 123.29a39.43 39.43 0 0 1 11.8-13c8.63-5.65 19.76-3.61 27.06 3.49a23.07 23.07 0 0 1 4.46 26.66c-5.94 12.25-13.07 24.06-17.73 36.77C40.06 228.65 41.14 280 63.75 330.08c23.62 52.32 63.11 88.21 117 107.74 26.72 9.69 54.45 13 82.93 10.61 39.93-3.31 75.87-16.91 107.16-41.72 43.81-34.74 70-79.87 76.45-135.76 4.48-38.9-1.26-76.39-18.89-111.51-23.54-46.95-59.78-80.44-108.84-99.73a191.9 191.9 0 0 0-81.1-13.13c-12.55.68-25 3.13-37.46 5.2-10 1.65-18.12-1-24.2-9.11C167.47 30.18 173.77 11 189 7.28a256.72 256.72 0 0 1 34.83-6 241.91 241.91 0 0 1 96.08 9.65 247.91 247.91 0 0 1 162.21 157.58 237.16 237.16 0 0 1 12.6 70.39c.72 28.33-2.4 56-11 83.13a246.76 246.76 0 0 1-50.34 89.26c-28.49 32.45-63.2 55.7-103.81 70.14a247.47 247.47 0 0 1-63.25 13.19A247.65 247.65 0 0 1 12.77 327.3C6 307.57-.74 279.77.06 250.12Zm325.13 20.74c14.22-.06 24-10.1 23.72-24-.26-12.65-10.41-22.22-23.94-22.25q-52.62-.1-105.24 0c-16.8 0-33.59-.1-50.38 0-13.93.12-23.66 10.09-23.47 23.71.18 12.76 10.22 22.44 23.69 22.49 25.94.1 51.88 0 77.81 0s51.88.19 77.81.05ZM112.73 91.23c12.8 0 22.59-9.9 22.64-22.8 0-13.38-9.49-23.3-22.52-23.42S90 54.84 90 68.06s9.72 23.21 22.73 23.17Z" data-name="Calque 1"/></g></svg>