<svg xmlns="http://www.w3.org/2000/svg" viewBox="0 0 1000 1000" style="enable-background:new 0 0 1000 1000" xml:space="preserve"><path d="M583.7 847.9V1000h-93.2V850.9h-72.3v148.7h-94.5V847.4H137.5c3.4-21.2 6.3-40.5 9.5-59.9 2.3-13.8 5.5-27.6 7-41.5.9-8.3 4.6-10 11.9-9.9 18 .3 36.1.4 54.1 0 26.2-.6 37.5-12.3 37.5-38.4V298.5c0-26.4-13.8-42.8-39.8-47.3-6.9-1.2-14-1.6-21-1.7-18-.3-36.1-.2-54.1-.2-.8 0-1.7-.4-3.4-.8v-98.1H323V-.1c32 .1 62.5.1 94 .1v145.9h72.6V-.1H584v22.4c0 37.8.4 75.5-.2 113.3-.2 11.4 2.4 15.8 14.8 16.9 39.5 3.6 78 11.6 114.9 27.1 85.1 35.7 105.6 112.8 91.6 187.3-7.4 39.3-30.2 68.4-64.4 88.9-2.3 1.3-4.4 2.9-6.6 4.3-.3.2-.5.7-1.4 2.3 8.2 2.8 16.1 5.4 24 8.3 57 20.3 107 64 105.8 148.2-.5 37.3-4.1 73.5-19.4 107.8-22.7 50.9-63.3 81.9-115.3 96.6-36.1 10.3-73.8 14.9-110.9 21.6-10.3 1.9-20.9 2-33.2 3zM419.5 738.4c40.6-1.5 79.7-1.6 118.6-4.8 31.9-2.7 63.4-8.9 92.4-24.1 31.9-16.8 48.3-42.8 46.7-78.7-1.5-34.9-20.4-58.8-51.4-73.5-28.5-13.5-58.9-20.7-90.3-21.7-38.4-1.2-76.9-.3-116-.3v203.1zm-.1-481.4v181.8c35.7 8.2 132.3-1.6 163.8-16.4 36.2-17 53.3-42.9 51.6-77.9-1.7-34.8-23-61.4-59.3-74.2-50.5-17.9-102.7-14.9-156.1-13.3z"/></svg>