<svg xmlns="http://www.w3.org/2000/svg" viewBox="0 0 1000 1000" style="enable-background:new 0 0 1000 1000" xml:space="preserve"><path d="M194.2 509.1C296.5 339.3 398.2 170.6 501 0c102.8 170.5 204.5 339.4 306.7 509-2.7 1.9-4.9 3.7-7.4 5.1-96.5 57-193 113.9-289.3 171.2-7.5 4.5-12.7 4.3-20.1-.1-96-57.1-192.1-113.9-288.2-170.7-2.6-1.5-5.1-3.2-8.5-5.4zm-1.9 62.5c101.1 142.5 202.2 285 303.9 428.4 102.2-144 203.3-286.3 304.4-428.7-5.6.7-9.5 2.8-13.3 5.1-93.9 55.4-187.9 110.7-281.7 166.3-6.4 3.8-11.1 4.5-18 .4-72.4-43.2-145.1-85.9-217.7-128.7-25.3-15-50.7-29.9-76-44.9-.5.7-1.1 1.4-1.6 2.1z"/></svg>