<svg xmlns="http://www.w3.org/2000/svg" viewBox="0 0 1000 1000" style="enable-background:new 0 0 1000 1000" xml:space="preserve"><path d="M500.3 0c275.9.3 501.9 226.1 499.3 503.2-2.7 283.8-230.4 496-498.9 496.8C222.9 1000.8-2.7 774.8.4 496.1 3.6 210.6 233.7 1.5 500.3 0zm-43.9 265.2c-37.4-9.2-73.4-18-110.2-27.1-4.9 19.6-9.6 38.2-14.4 57.4 14.6 3.9 28.4 7 41.9 11.2 19.3 6 26.4 19 21.6 38.4-19.2 77.3-38.5 154.5-57.8 231.8-4.8 19.1-13.6 24.3-32.7 19.7-11.6-2.8-23.1-5.6-35-8.5-9.2 21-17.9 40.9-26.9 61.6 37 9.4 72.8 18.5 109.7 27.9-7.6 30.9-15 60.6-22.5 91.2 18.3 4.5 35.9 8.9 54.1 13.3 7.8-30.7 15.2-60 22.8-89.9 15.3 4 29.2 7.6 44 11.5-7 30.1-13.9 59.5-20.9 89.4 18.4 4.6 35.8 9 54 13.6 4-15.7 7.9-30.8 11.7-45.8 3.8-14.9 7.4-29.9 10.8-43.4 26.5 2.1 51.2 5.6 75.9 5.8 35.8.3 68.9-8.7 93.5-37.6 13.9-16.3 22-35.4 27.8-55.7 14.6-51.1-.2-88.2-45.8-115.8-2.2-1.3-4.2-3-7.4-5.2 3.1-1 4.7-1.7 6.3-2.2 61.5-15.1 81.8-104.7 46.6-146.5-16.4-19.5-36.8-33-59.6-43.4-10.9-5-22-9.4-33.8-14.3 7.4-29.7 14.6-59.1 22.1-89-18.4-4.6-35.7-9-54-13.6-7.3 29.4-14.5 58.1-21.9 87.6-15.1-3.6-29.4-6.9-44.7-10.6 7.3-29.9 14.3-58.9 21.5-88.5-18.8-4.6-36.1-8.9-54.1-13.3-7.6 30.2-14.9 59.3-22.6 90zm85.8 379.4c27.5-2.2 46.2-16.1 52.5-38.9 6.4-23.3-1.8-44.2-25.2-60.1-9.9-6.7-20.6-12.9-31.8-16.7-26.6-9-53.7-16.4-81.4-24.7-10.6 42.4-20.5 82.1-30.3 121.6 29 12 86.4 21.2 116.2 18.8zm22.3-179.1c29.8-2.7 47.6-20.5 49.2-48.6 1.1-20.8-9.8-35-26.1-45.6-27.2-17.7-58.4-23.8-90.5-30.3-9.2 36.7-18.1 72.6-27.4 109.9 31.8 9 62.4 17.6 94.8 14.6z"/></svg>