<svg xmlns="http://www.w3.org/2000/svg" viewBox="0 0 500 500" style="enable-background:new 0 0 500 500" xml:space="preserve"><path d="M249.9 499.7c-30.8-.5-61.4-2.3-91.6-7.9-25.1-4.7-49.2-12.2-71.4-25.1-28.9-16.8-49.5-40.8-63-71.1-11-24.6-16.7-50.6-20-77.2C.1 287.9-.3 257.3.5 226.7c1-34.4 4.5-68.5 15.1-101.5C25.7 93.3 42.2 65.5 69 44.5c20.3-15.9 43.5-25.9 68.2-32.5 23.7-6.3 47.8-9.8 72.3-10.6C231.6.7 253.7 0 275.7.6c33.5.9 66.6 4.6 98.7 14.8 32.2 10.3 60.2 26.9 81.3 53.8 16.8 21.4 27 45.9 33.4 72.1 7.5 30.7 10.2 61.9 10.7 93.3.4 25 .1 49.9-2.5 74.8-3.4 31.7-9.6 62.8-23.7 91.8-18.8 38.4-48.9 64-88.7 78.8-25.3 9.4-51.5 14.4-78.3 16.4-18.9 1.5-37.8 2.3-56.7 3.3zm-213-250.6c.6 14.6 1 29.2 1.9 43.8 1.4 23.4 5 46.5 11.9 69 13.7 44.7 43 73.5 87.9 86.9 27.6 8.2 55.8 11.8 84.3 12.5 23.8.6 47.7 0 71.5-1 23.1-1 45.8-4.9 67.9-11.7 42.2-12.8 71-39.4 85.3-81.4 10-29.5 13.8-60 14.6-90.9.6-23.4 0-46.8-1-70.2-1-23.2-4.9-46.1-11.7-68.4-12.9-42.3-39.6-71.3-81.9-85.5-28.8-9.7-58.6-13.3-88.7-14.5-28.3-1.1-56.7-1-84.9 2-22.6 2.4-44.8 6.3-66.2 14.2-31.9 11.8-55.6 32.6-69.7 63.8-7.1 15.8-11.6 32.3-14.6 49.2-4.9 27.2-6.3 54.6-6.6 82.2zm230.9 65.3c7.4-4.7 14.9-9.5 21.3-15.3 24.5-22.1 44.1-48.4 63.1-75.1 3.1-4.3 4.2-9.3 2.8-14.5-1.9-7.4-6.5-12.3-14.2-14-7.9-1.7-14.3 1-19 7.3-6.6 8.7-12.9 17.7-19.6 26.3-12.6 16.2-25.4 32.2-41.3 45.3-11.4 9.4-10.5 9.9-21.8-.3-11.1-10-21.4-21.1-31.1-32.6-10.3-12.2-19.6-25.3-29.2-38.1-4.6-6.1-10.5-9.4-18.1-8.3-14.3 2-20.8 17.3-12.4 29.4 15.4 22.1 31.9 43.4 50.5 62.9 8.8 9.2 18 17.9 29 24.5 6.6 4 13.6 6.8 19.5 6.9 8.5.3 15-1 20.5-4.4z"/></svg>