<svg xmlns="http://www.w3.org/2000/svg" viewBox="0 0 500 500" style="enable-background:new 0 0 500 500" xml:space="preserve"><path d="M499.8 250.1c-.5 30.8-2.3 61.4-7.9 91.6-4.7 25.1-12.2 49.2-25.1 71.4-16.8 28.9-40.8 49.5-71.1 63-24.6 11-50.6 16.7-77.2 20-30.5 3.8-61.1 4.2-91.7 3.4-34.4-1-68.5-4.5-101.5-15.1-31.9-10.1-59.7-26.6-80.7-53.4-15.9-20.3-25.9-43.5-32.5-68.2-6.3-23.7-9.8-47.8-10.6-72.3-.7-22.1-1.4-44.2-.8-66.2.9-33.5 4.6-66.6 14.8-98.7 10.3-32.2 26.9-60.2 53.8-81.3 21.4-16.8 45.9-27 72.1-33.4C172.1 3.4 203.3.7 234.7.2c25-.4 49.9-.1 74.8 2.5 31.7 3.4 62.8 9.6 91.8 23.7 38.4 18.8 64 48.9 78.8 88.7 9.4 25.3 14.4 51.5 16.4 78.3 1.5 18.9 2.3 37.8 3.3 56.7zm-250.6 213c14.6-.6 29.2-1 43.8-1.9 23.4-1.4 46.5-5 69-11.9 44.7-13.7 73.5-43 86.9-87.9 8.2-27.6 11.8-55.8 12.5-84.3.6-23.8 0-47.7-1-71.5-1-23.1-4.9-45.8-11.7-67.9-12.8-42.2-39.4-71-81.4-85.3-29.5-10-60-13.8-90.9-14.6-23.4-.6-46.8 0-70.2 1-23.2 1-46.1 4.9-68.4 11.7-42.3 12.9-71.3 39.6-85.5 81.9-9.7 28.8-13.3 58.6-14.5 88.7-1.1 28.3-1 56.7 2 84.9 2.4 22.6 6.3 44.8 14.2 66.2 11.8 31.9 32.6 55.6 63.8 69.7 15.8 7.1 32.3 11.6 49.2 14.6 27.2 4.9 54.6 6.3 82.2 6.6zm65.3-230.9c-4.7-7.4-9.5-14.9-15.3-21.3-22.1-24.5-48.4-44.1-75.1-63.1-4.3-3.1-9.3-4.2-14.5-2.8-7.4 1.9-12.3 6.5-14 14.2-1.7 7.9 1 14.3 7.3 19 8.7 6.6 17.7 12.9 26.3 19.6 16.2 12.6 32.2 25.4 45.3 41.3 9.4 11.4 9.9 10.5-.3 21.8-10 11.1-21.1 21.4-32.6 31.1-12.2 10.3-25.3 19.6-38.1 29.2-6.1 4.6-9.4 10.5-8.3 18.1 2 14.3 17.3 20.8 29.4 12.4 22.1-15.4 43.4-31.9 62.9-50.5 9.2-8.8 17.9-18 24.5-29 4-6.6 6.8-13.6 6.9-19.5.3-8.5-1-15-4.4-20.5z"/></svg>