<svg xmlns="http://www.w3.org/2000/svg" viewBox="0 0 500 500" style="enable-background:new 0 0 500 500" xml:space="preserve"><path d="M246.7 499.9c-17 .2-37.3-.5-57.5-2.7-29-3.1-57.4-8.7-84.3-20.5-37.4-16.4-64.5-43.2-81.1-80.5-11-24.7-16.6-50.7-19.9-77.3-4.1-32.7-4.4-65.5-3.2-98.3 1.2-32.2 4.9-64.2 14.9-95.1C25 96.4 39.5 70.5 62.8 50c18.3-16.1 39.6-27 62.7-34.3 22.2-7.1 45.1-10.9 68.2-13.1 29-2.8 58.1-3 87.2-1.8 31.8 1.3 63.4 5 93.9 14.9 28.7 9.3 54.3 23.6 74.7 46.4 16.5 18.4 27.5 39.9 35 63.4 7 22 10.7 44.7 13 67.7 2.8 28.6 3 57.3 1.9 86-1.2 32.2-4.9 64.2-14.8 95.1-9.5 29.5-24.3 55.7-47.9 76.4-19 16.6-41.1 27.4-65.1 34.8-21.2 6.5-42.9 10-64.9 12.1-18.9 1.8-37.8 2.3-60 2.3zm.1-37.5c21.8 0 40.2-.5 58.4-2.4 19.3-2 38.3-5 56.8-10.9 20.3-6.4 39-15.8 54.5-30.9 16.2-15.8 26.1-35.3 32.7-56.7 8.5-27 11.6-55 12.6-83.1 1.1-27.9 1-55.8-1.9-83.7-2-19.3-5-38.3-10.8-56.8-6.5-20.7-16.1-39.7-31.6-55.3-15.7-15.8-34.9-25.4-55.8-32-26.8-8.4-54.6-11.6-82.5-12.6-31.6-1.2-63.2-1-94.7 3.1-19.4 2.5-38.5 6.3-56.8 13.2-21.6 8.1-40.4 20.3-54.6 38.9-12.2 15.9-19.6 34-24.8 53.2-6.4 23.7-9.2 47.9-10.2 72.3-1.4 35.9-1.2 71.8 4.4 107.5 2.9 18.5 7.4 36.7 15 53.9 11.5 26.2 29.6 46 55.4 58.8 21.6 10.8 44.7 16.1 68.3 19.4 23 3.3 46 4.4 65.6 4.1zm-62-194.6c4 7.9 9.3 14.9 15.3 21.3 22.3 24.3 48.4 44.1 75.3 62.9 8.8 6.2 20.1 4 25.9-4.4 6.1-8.7 4.1-19.7-4.8-26.3-3.7-2.8-7.6-5.5-11.4-8.2-17.6-13-34.8-26.4-50.4-41.8-5.1-5.1-10.1-10.3-14.2-16.3-3.2-4.7-3.2-5.1.1-9.9 2-2.9 4.2-5.6 6.6-8.2 13.8-15.5 29.9-28.5 46.3-41.1 7.7-5.9 15.8-11.5 23.5-17.4 7-5.3 9.4-14 6.3-22-3-7.6-10.8-12.4-19.1-11.7-3.8.3-7.1 1.9-10.2 4.1-21.2 15-41.8 30.8-60.8 48.6-9 8.4-17.5 17.3-24.3 27.6-4.9 7.4-8.6 15.3-8.8 24.4.2 6.4 1.7 12.6 4.7 18.4z"/></svg>