<svg xmlns="http://www.w3.org/2000/svg" viewBox="0 0 500 500" style="enable-background:new 0 0 500 500" xml:space="preserve"><path d="M0 249.6c-.2-19.9.6-39.8 2.6-59.7 3.1-29.4 8.7-58.2 20.7-85.5C40 66.6 67.3 39.5 105.1 23c24.4-10.6 50-16.1 76.3-19.4C214.3-.5 247.3-.8 280.3.5c32 1.2 63.8 5 94.5 14.9 29.3 9.5 55.3 24.3 75.8 47.8 15.7 17.9 26.2 38.7 33.5 61.2 7.2 22.2 11 45 13.2 68.2 2.8 28.3 3 56.6 2 84.9-1.2 32.8-4.8 65.4-14.9 96.9-9.4 29.3-24.1 55.4-47.5 76-19 16.7-41.1 27.5-65 34.9-21.1 6.5-42.9 10-64.9 12.1-28.5 2.8-57 3-85.5 1.9-32.7-1.2-65-4.9-96.3-15C92.5 473.8 64.1 456.7 43 429c-15.9-20.8-25.7-44.5-32-69.7-5.5-22-8.3-44.4-9.9-67.1-.8-14.1-.9-28.3-1.1-42.6zm462.4.2c-.1-14.1-.2-28.1-1.3-42.1-1.8-23.6-4.9-47-12-69.6-7-22.3-17.6-42.5-35-58.6-15.1-13.9-33-22.7-52.4-28.7-27.2-8.5-55.3-11.6-83.7-12.7-22.8-.9-45.7-.9-68.5.7-24.2 1.7-48.1 4.8-71.4 12-22.1 6.9-42.2 17.3-58.2 34.5-14.1 15.2-23.1 33.2-29.2 52.8C42 165.9 39 194.6 38 223.5c-.8 23-.8 46.1.9 69.1 1.7 23.6 4.9 47 12 69.6 5.9 18.8 14.4 36.2 27.7 51 16.2 18 36.7 28.8 59.4 35.9 27 8.5 55 11.7 83.1 12.7 32 1.2 64 1 95.9-3.2 18.8-2.5 37.3-6.3 55.1-13 33.6-12.5 57.7-34.8 71.5-68.2 7.8-18.9 12.3-38.6 15-58.8 2.9-22.7 4.1-45.7 3.8-68.8zM226 315.1c-9.7-9.7-18.6-20-27.1-30.8-9.2-11.6-18.1-23.5-26.4-35.8-3.5-5.1-8.1-8.5-14.3-9-7.7-.7-13.8 2.3-17.8 8.9-4.3 7-3.7 14.2.9 20.9 17.8 25.7 36.6 50.7 58.7 72.8 9.3 9.3 19.1 17.9 30.9 23.9 12.5 6.3 25 6.6 37.6.2 3.5-1.8 6.8-3.7 10.1-5.9 7.8-5.3 14.8-11.5 21.4-18.2 22.1-22.2 40.9-47.2 58.8-72.8.6-.8 1-1.6 1.5-2.5 4.5-8.7 1.9-18.9-6.1-24.3-7.8-5.2-18.1-3.9-24.4 3.2-1.4 1.6-2.6 3.4-3.8 5.2-15.9 22.5-32.4 44.5-51.9 64.1-1.5 1.5-2.7 3.3-4.9 4-.7-2.3-.4-4.5-.4-6.6V152.5c0-2 .1-3.9-.1-5.9-.7-9.9-8.7-17.4-18.6-17.4-9.9 0-18 7.4-18.8 17.3-.2 1.9-.1 3.9-.1 5.9v166.8c-2.7-1.1-3.9-2.8-5.2-4.1z"/></svg>