<svg xmlns="http://www.w3.org/2000/svg" viewBox="0 0 500 500" style="enable-background:new 0 0 500 500" xml:space="preserve"><path d="M128.6 270.1H21.4C11 270.1 3.9 265 1 256c-3.5-11.1 3.2-23.1 14.6-25.5 3.3-.7 6.7-.8 10.1-.8h209.9c9.1 0 8 .6 8-7.7V117.4c0-2.5-.1-5.2.5-7.6 3-13.6 17.7-20.1 30-13.1 7.9 4.5 15.5 9.6 23.3 14.5 63.1 39.8 126.2 79.5 189.3 119.3 1.8 1.1 3.6 2.2 5.3 3.5 10.7 8.2 10.9 23.6.4 32-1.5 1.2-3.1 2.2-4.8 3.2-69.9 44.1-139.8 88.1-209.8 132.2-1.6 1-3.2 2.1-4.9 2.9-13.2 6.5-28.4-2.3-29.2-17-.3-6.1-.1-12.3-.1-18.5v-91.9c0-6.6 0-6.6-6.6-6.6-36.1-.2-72.2-.2-108.4-.2zM441.9 250c-52.7-33.2-104.6-65.9-157.2-99v198.1c52.6-33.2 104.5-65.9 157.2-99.1z"/></svg>