<svg xmlns="http://www.w3.org/2000/svg" viewBox="0 0 500 500" style="enable-background:new 0 0 500 500" xml:space="preserve"><path d="M257.2 229.1c2.8.8 5.3.4 7.9.4h209.7c2.1 0 4.3-.1 6.4.1 10.7.8 18.9 9.6 18.8 20.3 0 10.7-8.1 19.5-18.9 20.3-2.1.2-4.2.1-6.4.1H265c-2.5 0-5.1-.4-7.6.4-1.3 2.2-.7 4.6-.7 6.8-.1 34.4 0 68.8-.1 103.3 0 2.3 0 4.7-.2 7-1.2 13.7-15.3 22.2-28.1 16.8-1.9-.8-3.8-1.9-5.6-3.1C152.5 357.3 82.2 313 12 268.8c-.9-.6-1.8-1.1-2.7-1.7-12.6-8.8-12.7-25.7.1-34.2 9-6 18.3-11.6 27.4-17.4 61.8-38.9 123.6-77.9 185.3-116.8 5.9-3.8 12-6.3 19.2-4.4 8.4 2.3 14.3 9.1 15 17.8.2 2.3.2 4.7.2 7 0 34.2 0 68.4.1 102.6.1 2.3-.3 4.7.6 7.4zM58.8 250c52.8 33.3 104.4 65.8 156.3 98.4 1.4-8.7 1-191.9-.5-196.6-51.7 32.6-103.3 65.1-155.8 98.2z"/></svg>