<svg xmlns="http://www.w3.org/2000/svg" viewBox="0 0 500 500" style="enable-background:new 0 0 500 500" xml:space="preserve"><path d="M229.9 128.5V21.3c0-10.4 5.1-17.5 14.1-20.4 11.1-3.5 23.1 3.2 25.5 14.6.7 3.3.8 6.7.8 10.1v209.9c0 9.1-.6 8 7.7 8h104.6c2.5 0 5.2-.1 7.6.5 13.6 3 20.1 17.7 13.1 30-4.5 7.9-9.6 15.5-14.5 23.3-39.8 63.1-79.5 126.2-119.3 189.3-1.1 1.8-2.2 3.6-3.5 5.3-8.2 10.7-23.6 10.9-32 .4-1.2-1.5-2.2-3.1-3.2-4.8-44.1-69.9-88.1-139.8-132.2-209.8-1-1.6-2.1-3.2-2.9-4.9-6.5-13.2 2.3-28.4 17-29.2 6.1-.3 12.3-.1 18.5-.1h91.9c6.6 0 6.6 0 6.6-6.6.2-36.1.2-72.2.2-108.4zM250 441.8c33.2-52.7 65.9-104.6 99-157.2H150.9c33.2 52.6 65.9 104.5 99.1 157.2z"/></svg>