<svg xmlns="http://www.w3.org/2000/svg" viewBox="0 0 500 500" style="enable-background:new 0 0 500 500" xml:space="preserve"><path d="M249.8 499.8c-38.3 0-76.6.3-114.9-.1-28-.3-53.9-8.2-77-24.3-28-19.6-44.7-46.9-53-79.6C1.7 383.1 0 370.1 0 357c0-71.5-.1-143 .1-214.5.1-22.5 4.6-44.2 14.1-64.7 19.3-41.7 52.2-66.1 96.9-75.1C121.9.5 132.8 0 143.7 0c70.9 0 141.9.1 212.8 0 23.6 0 46.3 3.8 67.6 14.1 32.4 15.7 54 41.1 66.2 74.7 6.2 17.2 9.4 35 9.5 53.4.2 34.1.2 68.3.2 102.5 0 37.9.2 75.8-.2 113.7-.3 27.4-6.7 53.4-20.9 77.1-20.5 34.4-51.2 54.3-90.3 61.8-11 2.1-22.1 2.6-33.2 2.6-35.2 0-70.3 0-105.6-.1 0 .1 0 0 0 0zM268.7 194c2.5 1.1 3.6 2.8 5 4.1 17.8 17.8 35.6 35.7 53.4 53.6 1.5 1.5 3 3.1 4.6 4.5 10.6 8.8 26.3 3.8 30-9.4 2.1-7.5-.4-13.8-5.7-19.2-10.9-10.9-21.8-21.9-32.7-32.8-19.6-19.7-39.2-39.3-58.7-59-6.3-6.4-13.5-8.1-21.9-5.2-3.2 1.1-5.6 3.5-8 5.8-30 30.2-60.1 60.4-90.1 90.6-1.1 1.1-2.2 2.2-3.2 3.5-8.4 11-2.9 26.5 10.6 29.6 7.5 1.7 13.7-.8 19.1-6.3 18.4-18.6 36.8-37.2 55.3-55.8 1.3-1.3 2.4-3.1 4.4-3.7.8 2.2.4 4.3.4 6.4v146.5c0 2.1-.1 4.3.1 6.4.9 9.8 9.2 17.2 19.1 17 9.7-.2 17.5-7.5 18.3-17.2.2-1.9.1-3.9.1-5.9V201c-.1-2-.1-4.2-.1-7z"/></svg>