<svg xmlns="http://www.w3.org/2000/svg" viewBox="0 0 500 500" style="enable-background:new 0 0 500 500" xml:space="preserve"><path d="M499.8 250.2c0 38.3.3 76.6-.1 114.9-.3 28-8.2 53.9-24.3 77-19.6 28-46.9 44.7-79.6 53-12.7 3.2-25.7 4.9-38.8 4.9-71.5 0-143 .1-214.5-.1-22.5-.1-44.2-4.6-64.7-14.1-41.7-19.3-66.1-52.2-75.1-96.9C.5 378.1 0 367.2 0 356.3c0-70.9.1-141.9 0-212.8 0-23.6 3.8-46.3 14.1-67.6 15.7-32.4 41.1-54 74.7-66.2C106 3.5 123.8.3 142.2.2 176.3 0 210.5 0 244.7 0c37.9 0 75.8-.2 113.7.2 27.4.3 53.4 6.7 77.1 20.9 34.4 20.5 54.3 51.2 61.8 90.3 2.1 11 2.6 22.1 2.6 33.2v105.5c0 .1-.1.1-.1.1zM194 231.3c1.1-2.5 2.8-3.6 4.1-5 17.8-17.8 35.7-35.6 53.6-53.4 1.5-1.5 3.1-3 4.5-4.6 8.8-10.6 3.8-26.3-9.4-30-7.5-2.1-13.8.4-19.2 5.7-10.9 10.9-21.9 21.8-32.8 32.7-19.7 19.6-39.3 39.2-59 58.7-6.4 6.3-8.1 13.5-5.2 21.9 1.1 3.2 3.5 5.6 5.8 8 30.2 30 60.4 60.1 90.6 90.1 1.1 1.1 2.2 2.2 3.5 3.2 11 8.4 26.5 2.9 29.6-10.6 1.7-7.5-.8-13.7-6.3-19.1-18.6-18.4-37.2-36.8-55.8-55.3-1.3-1.3-3.1-2.4-3.7-4.4 2.2-.8 4.3-.4 6.4-.4h146.5c2.1 0 4.3.1 6.4-.1 9.8-.9 17.2-9.2 17-19.1-.2-9.7-7.5-17.5-17.2-18.3-1.9-.2-3.9-.1-5.9-.1H201c-2 .1-4.2.1-7 .1z"/></svg>