<svg xmlns="http://www.w3.org/2000/svg" viewBox="0 0 1000 1000" style="enable-background:new 0 0 1000 1000" xml:space="preserve"><path d="M321.6 732.9c.3-5.4.7-10.8.7-16.3l-.3-583.3c0-22.3-.2-22.3 20.9-30.3 106-40 215-69 327.6-82C746.8 12.2 823.5 7 900 .7c23.1-1.9 23.6-1.1 23.6 22.8 0 130-.2 260-.3 390-.1 101.2-1.4 202.4.4 303.5 1.6 89-49.8 143.7-127.7 167.6-45.3 13.9-89.6 8-131.8-12.1-72.4-34.5-91-129-37.8-189.5 54.1-61.5 121.2-81.2 200.3-61.4 15.2 3.8 15.9 3.6 15.9-12.8.1-104 .1-208 0-312 0-16-1-16.7-17.9-16.2-75.9 2.4-150.7 14.3-224.8 29.7-58.5 12.1-116.4 27.4-174.3 41.9-20 5-20.3 6-20.4 26.8-.1 153.7-.1 307.5 0 461.2 0 39-10.7 74.4-39.2 101.5-57 54.1-123.6 72.2-199.8 47.2-6.4-2.1-12.6-5.1-19-7.2-61.2-20.3-79.3-81.3-67.6-129.6 16.4-67.8 64.5-103.7 128.3-121.7 31.6-8.9 63.7-7.6 95.5.6 3.8 1 7.6 2 11.5 2.7 1.6.2 3.3-.4 6.7-.8z"/></svg>