<svg xmlns="http://www.w3.org/2000/svg" viewBox="0 0 1000 1000" style="enable-background:new 0 0 1000 1000" xml:space="preserve"><path d="M886.3 682.2c72.8-142.8 58.8-358.4-100.2-500.7C627.9 39.9 396.9 33.7 231.4 166.6 65.4 299.8 33.6 520 113.4 682.7c2.6-1.8 5.4-3.3 7.7-5.2 23.8-20.2 51.3-31.7 82.4-34.1 7.8-.6 11-2.2 12.2-10.8 4.7-35.3 35.3-61.3 70.4-61 36.4.3 66.9 28.1 70.6 64.5.4 4.2.4 8.4.4 12.6 0 91.7-.1 183.4.1 275.1.1 27.7-10.1 50-33.6 65-43 27.6-100.7 1.3-107.8-49.3-1.3-9.6-5.4-11.2-13.2-11.7-59.7-3.6-114.9-48.9-127.7-112.5-2.5-12.6-3.3-25.9-2.3-38.8.9-11.8-1.4-21.4-7.3-31.5-32.6-56.3-53.2-116.9-61.1-181.3-14.2-115.6 7.6-224.5 69-323.8C149.3 117 258.7 37.4 400.7 10.6c187.5-35.4 347.8 19.6 476.1 161.6 67.6 74.9 106.6 164.3 119.1 264.3 13.5 108-6.1 210.3-59.5 305.4-6.9 12.3-9.8 23.9-8.5 38.1 6.2 70.3-51.9 139.3-122.9 147.1-3.2.4-6.5.8-9.7.8-7.5-.1-9.8 3.5-10.9 11-5.2 37.2-36.7 62.4-74.6 60.7-35.2-1.6-64.3-30.7-66.6-66.9-.6-8.8-.3-17.7-.3-26.5 0-86.1.1-172.2 0-258.4 0-30 11.7-53.4 38.4-67.8 42.8-23.1 96 3.8 103.2 52 .9 5.7.3 10.8 8.7 11.3 34.2 1.9 64 14.6 89.5 37.6.8.7 2.3.9 3.6 1.3z"/></svg>