<svg xmlns="http://www.w3.org/2000/svg" viewBox="0 0 1000 1000" style="enable-background:new 0 0 1000 1000" xml:space="preserve"><path d="M499.4 1000.4C223.6 996.9.1 775.5 0 499.8-.1 220.5 228.6-.4 500.1-.4 771.7-.3 1000.3 220.9 1000 500c-.3 276.9-225.4 497.7-500.6 500.4zm.6-35.4c259.2 0 464.7-205.2 465.4-464.5.6-259.3-205.4-466-464.9-466.3C241.1 33.9 35 239.6 34.6 499.4 34.3 758.8 240.4 965 500 965zM350.1 636.9c-20-5.1-40.2-6-60.1-.4-40.2 11.3-70.2 33.9-80.9 76.5-7.7 30.5 5.1 63 30.9 76.3 26.4 13.7 54.2 20.3 84.5 15 55.1-9.5 89.6-49.4 89.6-104.9 0-94.3-.1-188.5 0-282.8 0-14.4.2-14.4 13.7-18.4 48.8-14.5 98.3-25.7 148.6-33.3 34-5.1 68.4-8 102.7-11.4 9.5-1 10.3.2 10.3 9.9.1 65.8.1 131.6 0 197.4 0 9.3-.6 9.5-9.8 7.1-49.8-12.5-92-.2-126.1 38.5-34 38.6-21.3 99.5 25.4 120.3 22.9 10.2 46.8 14.5 71.8 9 47.9-10.5 90.6-44.5 89.9-106.5-1.1-90-.1-180 0-270 0-56.2 0-112.4-.1-168.6 0-14-.4-14.6-14.7-13.4-48.2 4-96.4 7.3-144.4 12.8-71.2 8.2-140.2 26.5-207.2 52-12.3 4.7-12.3 4.7-12.3 17.5.1 122 .2 244 .2 366v13.9c-5.3-1-8.7-1.6-12-2.5z"/></svg>