<svg xmlns="http://www.w3.org/2000/svg" viewBox="0 0 236.43 236.43"><g data-name="Calque 2"><g data-name="Calque 1"><path data-name="Calque 2" d="M181.12 0H55.31A55.34 55.34 0 0 0 0 55.31v125.81a55.34 55.34 0 0 0 55.31 55.31h125.81a55.34 55.34 0 0 0 55.31-55.31V55.31A55.51 55.51 0 0 0 181.12 0Zm39.61 181.37a40 40 0 0 1-39.86 39.86H55.06a40 40 0 0 1-39.87-39.86V55.56a40 40 0 0 1 39.87-39.87h125.81a40 40 0 0 1 39.86 39.87ZM98.39 127.44a9 9 0 0 1 8.89 9.11v54.71a8.9 8.9 0 0 1-17.79.6v-33.28l-40.18 41.19A8.75 8.75 0 0 1 37 200l-.22-.22a9.28 9.28 0 0 1 0-12.89l40.19-41.2H45a9.12 9.12 0 1 1 0-18.24Zm100.85-90.92a9.29 9.29 0 0 1 0 12.9l-40.18 41.2h31.88a9.12 9.12 0 0 1 0 18.23h-53.35a9 9 0 0 1-8.89-9.11V45a8.89 8.89 0 0 1 17.78 0v32.72l40.19-41.2a8.73 8.73 0 0 1 12.33-.23l.23.23Z"/></g></g></svg>