<svg xmlns="http://www.w3.org/2000/svg" viewBox="0 0 236.43 236.43"><g data-name="Calque 2"><g data-name="Calque 1"><path data-name="Calque 2" d="M166.17 70.26a9.77 9.77 0 0 0-13.7 0l-34.38 34.38-34.38-34.38A9.71 9.71 0 0 0 70 84l34.38 34.38L70 152.72a9.79 9.79 0 0 0 0 13.7 9.56 9.56 0 0 0 7 2.74 10.72 10.72 0 0 0 7-2.74L118.34 132l34.38 34.38a9.56 9.56 0 0 0 7 2.74 10.72 10.72 0 0 0 7-2.74 9.79 9.79 0 0 0 0-13.7l-34.38-34.38L166.67 84a10.29 10.29 0 0 0-.5-13.7ZM181.12 0H55.31A55.34 55.34 0 0 0 0 55.31v125.81a55.34 55.34 0 0 0 55.31 55.31h125.81a55.34 55.34 0 0 0 55.31-55.31V55.31A55.51 55.51 0 0 0 181.12 0Zm39.61 181.37a40 40 0 0 1-39.86 39.86H55.06a40 40 0 0 1-39.87-39.86V55.56a40 40 0 0 1 39.87-39.87h125.81a40 40 0 0 1 39.86 39.87Z"/></g></g></svg>