<svg xmlns="http://www.w3.org/2000/svg" viewBox="0 0 236.43 236.43"><g data-name="Calque 2"><g data-name="Calque 1"><path data-name="Calque 2" d="M181.12 0H55.31A55.34 55.34 0 0 0 0 55.31v125.81a55.34 55.34 0 0 0 55.31 55.31h125.81a55.34 55.34 0 0 0 55.31-55.31V55.31A55.51 55.51 0 0 0 181.12 0Zm39.61 181.37a40 40 0 0 1-39.86 39.86H55.06a40 40 0 0 1-39.87-39.86V55.56a40 40 0 0 1 39.87-39.87h125.81a40 40 0 0 1 39.86 39.87ZM43 202.44a9 9 0 0 1-8.89-9.11v-54.7A8.9 8.9 0 0 1 51.9 138v33.29l40.19-41.2a8.73 8.73 0 0 1 12.34-.23c.08.08.16.15.23.23a9.27 9.27 0 0 1 0 12.9L64.49 184.2h31.89a9.12 9.12 0 0 1 0 18.23Zm88.28-96.26a9.28 9.28 0 0 1 0-12.89l40.18-41.2H139.6a9.12 9.12 0 0 1 0-18.24H193a9 9 0 0 1 8.84 9.15v54.68a8.89 8.89 0 0 1-17.78 0V65l-40.19 41.2a8.73 8.73 0 0 1-12.34.23c-.08-.08-.16-.15-.23-.23Z"/></g></g></svg>