<svg xmlns="http://www.w3.org/2000/svg" viewBox="0 0 236.43 236.43"><g data-name="Calque 2"><g data-name="Calque 1"><path data-name="Calque 2" d="M181.12 0H55.31A55.34 55.34 0 0 0 0 55.31v125.81a55.34 55.34 0 0 0 55.31 55.31h125.81a55.34 55.34 0 0 0 55.31-55.31V55.31A55.51 55.51 0 0 0 181.12 0Zm39.61 181.37a40 40 0 0 1-39.86 39.86H55.06a40 40 0 0 1-39.87-39.86V55.56a40 40 0 0 1 39.87-39.87h125.81a40 40 0 0 1 39.86 39.87Zm-34.59-63a9.85 9.85 0 0 1-9.86 9.86H60a9.85 9.85 0 0 1-9.86-9.86 9.87 9.87 0 0 1 9.86-9.91h116.3a9.87 9.87 0 0 1 9.87 9.87Z"/></g></g></svg>