<svg xmlns="http://www.w3.org/2000/svg" viewBox="0 0 500 500" style="enable-background:new 0 0 500 500" xml:space="preserve"><path d="M421.1 272.9H29.4c-2.6 0-5.2.1-7.8-.1C9.2 272.1-.2 262.1 0 249.6c.2-12.3 9.8-22.2 22.2-22.7 1.7-.1 3.5 0 5.2 0h444.5c2 0 3.9-.1 5.9 0 9.3.5 16 5 19.9 13.4s2.8 16.5-2.8 23.8c-1.4 1.9-3.2 3.6-4.8 5.3-59.2 59.9-118.4 119.7-177.6 179.6-3.5 3.6-7.2 6.9-12.2 8.3-9.4 2.7-19-.6-24.7-8.6-5.7-7.8-6-18.2-.5-26.2 1.7-2.5 3.8-4.7 6-6.8 44.8-45.4 89.7-90.7 134.5-136 1.8-1.9 3.9-3.4 5.5-6.8zm-149-214.6c-2.5 9.2.1 17 6.7 23.7 14.8 14.9 29.6 29.9 44.4 44.8 18.3 18.5 36.5 37.1 54.9 55.5 9.7 9.8 23.4 10.1 32.5 1.2 9.4-9.1 9.4-23.2 0-33.3-1.2-1.3-2.4-2.5-3.6-3.7-17.7-17.9-35.4-35.7-53.1-53.6-14.2-14.3-28.4-28.7-42.5-43-4.9-5-10.5-8.3-17-8.1-10.9.1-19.6 6.7-22.3 16.5z"/></svg>