<svg xmlns="http://www.w3.org/2000/svg" viewBox="0 0 1000 1000" style="enable-background:new 0 0 1000 1000" xml:space="preserve"><path d="M404.9 309.5c-22.8 19.2-41.1 34.1-58.7 49.6-19.4 17.1-40.8 29.6-66.8 32.3-41.8 4.3-78.4-17.6-96.6-57.2-17.7-38.5-12.1-77.8 19.9-106.2C280 159.6 358 91.7 437.3 25.6c41.9-35 86.4-33.7 128.2 1.4C643.1 92.1 720 158.2 796.3 224.8c38.1 33.3 40.9 90.3 8.8 131.2-29.8 38-87.9 47.5-128.8 19.5-20.1-13.8-38.1-30.6-57.1-46.1-5.1-4.1-10.3-8.2-19.3-15.5-.6 12.9-1.4 21.3-1.4 29.7-.1 180.3 0 360.6-.2 540.9 0 34.4-6.6 66.6-34.4 90.3-31.6 27-67.6 32.3-104.7 15.4-35-15.8-54.2-44.5-54.2-84-.1-187.8 0-375.6 0-563.4-.1-8.6-.1-17.4-.1-33.3z"/></svg>