<svg xmlns="http://www.w3.org/2000/svg" viewBox="0 0 1000 1000" style="enable-background:new 0 0 1000 1000" xml:space="preserve"><path d="M690.5 404.9c-19.2-22.8-34.1-41.1-49.6-58.7-17.1-19.4-29.6-40.8-32.3-66.8-4.3-41.8 17.6-78.4 57.2-96.6 38.5-17.7 77.8-12.1 106.2 19.9C840.4 280 908.3 358 974.4 437.3c34.9 41.9 33.7 86.4-1.4 128.2-65.1 77.6-131.2 154.5-197.8 230.8-33.3 38.1-90.3 40.9-131.2 8.8-38-29.8-47.5-87.9-19.5-128.8 13.8-20.1 30.6-38.1 46.1-57.1 4.1-5.1 8.2-10.3 15.5-19.3-12.9-.6-21.3-1.4-29.7-1.4-180.3-.1-360.6 0-540.9-.2-34.4 0-66.6-6.6-90.3-34.4C-2 532.4-7.2 496.4 9.6 459.2c15.8-35 44.5-54.2 84-54.2 187.8-.1 375.6 0 563.4 0 8.8-.1 17.6-.1 33.5-.1z"/></svg>