<svg xmlns="http://www.w3.org/2000/svg" viewBox="0 0 1000 1000" style="enable-background:new 0 0 1000 1000" xml:space="preserve"><path d="M309.5 595.1c19.2 22.8 34.1 41.1 49.6 58.7 17.1 19.4 29.6 40.8 32.3 66.8 4.3 41.8-17.6 78.4-57.2 96.6-38.5 17.7-77.8 12.1-106.2-19.9C159.6 720 91.7 642 25.6 562.7c-35-41.9-33.7-86.4 1.4-128.2C92.1 356.9 158.2 280 224.8 203.7c33.3-38.1 90.3-40.9 131.2-8.8 38 29.8 47.5 87.9 19.5 128.8-13.8 20.1-30.6 38.1-46.1 57.1-4.1 5.1-8.2 10.3-15.5 19.3 12.9.6 21.3 1.4 29.7 1.4 180.3.1 360.6 0 540.9.2 34.4 0 66.6 6.6 90.3 34.4 27 31.6 32.3 67.6 15.4 104.7-15.8 35-44.5 54.2-84 54.2-187.8.1-375.6 0-563.4 0-8.6.1-17.4.1-33.3.1z"/></svg>