<svg xmlns="http://www.w3.org/2000/svg" viewBox="0 0 389.57 499.35"><g data-name="Calque 2"><path d="M133.66 0h209.46c4.09 1.38 8.25 2.58 12.24 4.18 17.23 6.91 34.36 28.11 34.21 50.64-.71 101.44-.34 202.89-.23 304.33a14.71 14.71 0 0 1-4.72 11.4q-62 61.77-123.76 123.82a15.23 15.23 0 0 1-11.78 5q-96.74-.21-193.47-.07c-14.58 0-26.71-5.55-37.38-15.15-9.66-8.7-14.86-19.82-18.23-32V133.73q32.61-32.47 65.22-64.95Q99.51 34.46 133.66 0Zm108.22 281.17v.45c6.27-.5 12.61-.56 18.8-1.59 15.68-2.64 25.38-14.18 25.45-29.65.08-15.9-9.41-28.08-25.22-30.24-10.78-1.47-21.84-1-32.77-1.07-1.17 0-3.36 2.67-3.38 4.12-.24 17.78-.12 35.57-.19 53.35 0 3.45 1.47 4.77 4.82 4.66 4.19-.14 8.34-.03 12.49-.03ZM102 250c0 8.81-.13 17.63.12 26.44 0 1.57 1.32 4.08 2.57 4.48 7.63 2.46 10.79.05 10.8-7.69a31.24 31.24 0 0 0 0-3.49c-.5-4.64 1.3-6.8 6.18-6.47a79.7 79.7 0 0 0 11.46-.08c12.91-1 21.55-9.41 22.14-21.39.55-11-7.74-20.53-20.21-21.91-9.2-1-18.55-.64-27.83-1.05-3.86-.17-5.36 1.33-5.28 5.22.12 8.59.05 17.24.05 25.94Zm104.33-17.47c5.67-7.49 4.78-10.34-4-12.73-8.35-2.29-16.7-2.66-25 .28-8.85 3.14-13.66 9.59-13.46 17.72.17 7.24 5 12.73 14 15.48 5.54 1.71 11.36 2.69 16.67 4.92 2.43 1 5.5 4.37 5.37 6.49s-3.5 5.13-6 5.93c-8 2.54-15.72.26-23-3.28-2.33-1.13-4.3-1.45-5 1.54-.59 2.63-4.89 5.68 0 8 12.17 5.86 24.83 7.66 37.45 1.82 7-3.23 10.66-9.11 10.13-17.31-.49-7.71-5.24-11.47-11.78-13.73-3.44-1.19-7-2-10.53-3-3-.87-6.31-1.33-9-2.86-2-1.15-4.61-4-4.33-5.6.41-2.41 2.75-5.51 5-6.32A24.3 24.3 0 0 1 194 229c4.15.52 8.18 2.26 12.28 3.48ZM18.86 14.27C8.78 23.44 3 34.82 0 47.9v64.87a27.64 27.64 0 0 0 4.44-3Q57.84 56.46 111.14 3c.94-.93 1.72-2 2.57-3H46.88C36.62 3 27 6.9 18.86 14.27Zm260.88 484.78c.65 0 2.42.19 4.2.19 16.27 0 32.54-.22 48.8.1 10.13.2 19.62-1.87 28.07-7.17 17.24-10.81 28.78-25.27 28.49-47-.22-16.94 0-33.89 0-50.83v-4.84Zm-41.61-249.34v7c.4 15.81-3.38 14.41 15.47 13.77 12.28-.42 18.89-8 18.95-19.9.06-12.81-6.24-19.94-18.86-21.06-3.62-.32-7.29 0-10.94-.12-3.44-.09-4.69 1.65-4.64 4.92.1 5.14 0 10.28 0 15.43ZM115.67 249c.27 1.35 2 3.35 3.14 3.43a62.23 62.23 0 0 0 13.85-.18c6.69-1 10.21-7.19 8.55-13.8-1.52-6.08-5.23-8.9-13.07-9.06-14.84-.29-12.47-1-12.61 11.68 0 2.69-.36 5.42.14 7.93Z" data-name="Calque 1"/></g></svg>