<svg xmlns="http://www.w3.org/2000/svg" viewBox="0 0 389.32 499.33"><g data-name="Calque 2"><path d="M256.66 499.33H46.2c-1.56-.55-3.12-1.13-4.7-1.63C16 489.59.09 468 .09 441.21Q.06 291.3 0 141.41A14.74 14.74 0 0 1 4.6 130Q67.48 67.32 130.11 4.41A13.61 13.61 0 0 1 140.62 0q97.22.17 194.44.05a52.24 52.24 0 0 1 27.83 8.19c13.34 8.19 21.85 20.14 26.43 35V366.6q-21.69 21.58-43.39 43.19-44.67 44.73-89.27 89.54Zm-33.31-278.8c3.33 9.13 3.33 9.13 12.35 9.14h2.5c6.3.07 6.67.41 6.68 6.91 0 13.14 0 26.27.08 39.41 0 1.66.72 4.63 1.47 4.76a27.08 27.08 0 0 0 10.23 0c1-.22 1.65-3.93 1.67-6.06q.23-19.69 0-39.41c-.05-4 1.33-5.9 5.48-5.67 3 .17 6-.14 9 .06 4 .26 5.63-1.19 5.65-5.41 0-4.44-2.06-5.22-5.84-5.19-17.29.11-34.59.52-51.84-.17-8-.32-13.16 2.06-16.93 8.94-2.25 4.11-5.32 7.77-8.64 12.5-4.38-6.26-7.82-11.72-11.87-16.69-1.67-2.06-4.63-4.29-7-4.33-20.1-.34-40.21-.14-60.32-.24-3.81 0-4.86 1.72-4.82 5.18 0 3.29.66 5.59 4.63 5.38 2.32-.13 4.65 0 7 0 8.39 0 8.4 0 8.41 8.19 0 12.64.22 25.28-.09 37.91-.13 5.37 2.55 5.89 6.78 5.81 4-.07 7.1 0 6.93-5.63-.35-12-.1-23.94-.1-35.91 0-10.36 0-10.36 10.2-10.37 8.64 0 8.63 0 10.22-8 0-.22.51-.35 1.34-.87 6.38 9 12.89 18 19 27.21.74 1.1 0 3.85-.93 5.27-3 4.59-6.4 8.9-9.61 13.35-3.34 4.63-6.64 9.29-10.14 14.21 9.06 2 16.17 1.24 20.3-7.58 1.33-2.83 3.41-5.31 5.24-7.88 1.29-1.8 2.73-3.49 4.61-5.87 4 5.56 7.43 10.39 10.87 15.23 5.11 7.21 9.64 8.66 18.43 5.9 0-.33.13-.75 0-1-4.21-6-8.51-11.89-12.67-17.9-2.82-4.07-7.59-8.26-7.59-12.4s4.74-8.34 7.57-12.4c3.62-5.24 7.4-10.4 11.75-16.38Zm148.09 264.62a64.15 64.15 0 0 0 17.88-28.73v-68.86c-1.52 1.25-3.15 2.4-4.54 3.78Q333.06 443 281.4 494.79c-1.39 1.39-2.53 3-3.79 4.54h66.83c9.82-3.14 19.22-6.97 27-14.18ZM2.74 113.6 114 2.35l-1.41-2c-1.76-.1-3.51-.27-5.27-.27Q82.13.06 57 .08A57 57 0 0 0 .1 56.81C0 73.43.07 90.06.09 106.68c0 1.77.2 3.55.31 5.33Z" data-name="Calque 1"/></g></svg>