<svg xmlns="http://www.w3.org/2000/svg" viewBox="0 0 389.32 499.33"><g data-name="Calque 2"><path d="M389.32 43.24V366.6q-21.69 21.58-43.39 43.19-44.67 44.73-89.27 89.54H46.2c-1.56-.55-3.12-1.13-4.7-1.63C16 489.59.09 468 .09 441.21Q.06 291.3 0 141.41A14.74 14.74 0 0 1 4.6 130Q67.48 67.32 130.11 4.41A13.61 13.61 0 0 1 140.62 0q97.22.17 194.44.05a52.24 52.24 0 0 1 27.83 8.19c13.34 8.19 21.85 20.14 26.43 35ZM211 280.26c2.23-1.21 4.12-2.2 6-3.25a31 31 0 0 0 12.84-39.73c-6.68-14.35-21.93-21.34-39.33-18-13.41 2.56-24.58 14.86-25.35 27.91-.91 15.51 7.42 28.65 21.5 32.68a34.67 34.67 0 0 1 14.4 8.18c8.88 8.13 20.17 9.49 29.43 4.11 2.1-1.22 5.6-2.28 3.56-5.83-1.7-2.95-3.8-5.11-8.06-2.75-5.75 3.16-10.99 1.82-14.99-3.32Zm-100.53-13.41c-.87 1.85-2.24 3.84-2.67 6-.26 1.31.52 3.76 1.53 4.25 12 5.82 24.41 7.51 37 2.14 7.41-3.16 10.83-9.56 10.48-17.6-.33-7.72-5.24-11.45-11.77-13.71-3.45-1.19-7-2-10.53-3-3.18-.93-6.59-1.49-9.42-3.07-1.84-1-4-3.69-3.89-5.45.16-2.15 2.22-5.32 4.13-5.93a30.07 30.07 0 0 1 12.12-1.17c4.18.45 8.21 2.28 12.3 3.51 4.55-6.13 4.85-9.24.63-11-11.58-4.79-23.23-5.37-34.53.88-6.14 3.38-8.66 9.16-8.39 15.88s4.26 11 10.15 13.62a81.19 81.19 0 0 0 9 2.86c4.29 1.29 8.79 2.09 12.78 4 2 1 4.21 4 4.08 5.92s-2.67 4.79-4.74 5.46a24.86 24.86 0 0 1-11.19 1c-5.62-.89-11.08-2.91-17.07-4.59Zm134.44-16.52c0 8.81.07 17.62 0 26.43 0 3.37 1.26 4.8 4.7 4.77q17.44-.15 34.89 0c3.65 0 5-1.38 5-5s-.8-5.71-5-5.59c-6.31.19-12.63.06-18.94 0-7 0-7.16-.22-7.17-7.39 0-12.8-.25-25.61.11-38.4.15-5.55-2.44-6.28-6.95-6.1-6.4.26-6.63.25-6.66 6.31-.02 8.35 0 16.64.02 24.97Zm139.87 141Q333.06 443 281.4 494.79c-1.39 1.39-2.53 3-3.79 4.54h66.83c9.82-3.14 19.22-7 27-14.18a64.15 64.15 0 0 0 17.88-28.73v-68.86c-1.52 1.25-3.15 2.44-4.54 3.78ZM107 .07H56.17C26.15.17.37 25.67.12 55.62 0 72.74.07 89.86.1 107a40.92 40.92 0 0 0 .32 4.16L111.57.07Zm112 250c.06-12.11-7.79-20.31-19.57-20.44-12.39-.14-20.62 7.69-20.75 19.76-.13 12.39 7.74 20.59 19.82 20.66 12.31.07 20.41-7.83 20.5-19.99Z" data-name="Calque 1"/></g></svg>