<svg xmlns="http://www.w3.org/2000/svg" viewBox="0 0 389.36 499.48"><g data-name="Calque 2"><path d="M134 0h209.48c23.18 5.86 38.64 20 45.88 42.91v323.36c-1.8 1.72-3.63 3.41-5.39 5.17q-61.35 61.37-122.62 122.82a15.8 15.8 0 0 1-12.24 5.09c-64-.14-128-.59-191.94.13-29 .33-57.27-26-57.17-57.24.32-100.59.14-201.19 0-301.79a13.68 13.68 0 0 1 4.35-10.56q32.1-31.75 63.9-63.78Q101.18 33.1 134 0Zm149.38 279.36c-3.88-5.51-7.35-10.5-10.89-15.44-1.62-2.28-1.71-3.86 1-5.68 7.74-5.26 11-12.64 9.19-22-2-10-8.51-16-18.28-17.16-10.18-1.19-20.52-1-30.8-1.05-1.19 0-3.4 2.64-3.42 4.08-.24 17.95-.14 35.91-.17 53.87 0 3 1.35 4.26 4.26 4.15 1.66-.06 3.32-.07 5 0 2.9.12 4.31-1.15 4.25-4.13a59.65 59.65 0 0 1 .17-9.46c.2-1.46 1.45-3.54 2.7-4 6.08-2.06 11.22-.09 15 5.22a25.84 25.84 0 0 1 3 4.55c3.61 8.39 10.15 9.02 18.99 7.05Zm-61.84.7c-1.12-2.69-1.71-4.21-2.37-5.7-7.57-17-15.23-34-22.65-51-1.66-3.84-3.74-5.73-8.16-5.63-4.59.1-8.13.41-10.26 5.57-5.25 12.74-11.1 25.24-16.68 37.85-2.64 6-5.22 12-7.87 18.14 10.57 2.53 12.39 1.78 16.33-7.15 1.53-3.49 3.6-5.18 7.56-5a99.66 99.66 0 0 0 15.93-.05c6.66-.72 10.69 1.43 12.59 8.05.54 1.89 2.53 4.3 4.26 4.71 3.26.75 6.78.21 11.32.21ZM112.7 264.25c-1.68 1.95-3 3.66-4.48 5.16-3.06 3-2.11 5.42 1.36 6.81 4.72 1.89 9.53 4.24 14.47 4.72 12.49 1.21 22.26-6.58 22.61-17.84.42-13.6.12-27.23.2-40.85 0-3.18-1.4-4.47-4.53-4.44-8.47.08-16.93.13-25.4 0-3.79-.06-4.87 1.75-4.84 5.2s.77 5.49 4.69 5.37c4.31-.13 8.63 0 12.94 0 2.85 0 4.36 1.32 4.35 4.2 0 9.14.15 18.28-.13 27.4-.12 4-1.1 7.94-5.6 9.73s-8.44.41-12.07-2.34c-1.05-.8-1.99-1.73-3.57-3.12ZM47.24 0C45.5.56 43.78 1.18 42 1.67a57.38 57.38 0 0 0-41.9 55Q0 81.6.15 106.52a65.06 65.06 0 0 0 .75 6.6c2.39-2.12 3.92-3.33 5.29-4.69Q58.33 56.27 110.44 4.09c1.29-1.28 2.42-2.72 3.63-4.09Zm342.12 387.23a34.63 34.63 0 0 0-3.5 2.74q-52.32 52.29-104.6 104.66a51 51 0 0 0-3.26 4.07 37.75 37.75 0 0 0 3.9.53c19.09 0 38.19.07 57.28-.09a32.72 32.72 0 0 0 9.27-1.63c21.05-6.43 34.25-20.7 40.87-41.42ZM243.67 247.84c.27 1.39 1.85 3.54 3 3.61a62.94 62.94 0 0 0 14.33-.25c6.47-1.07 9.86-7.14 8.34-13.53s-5.33-9.12-13.43-9.26c-14.36-.23-12.2-.89-12.33 11.5-.04 2.65-.39 5.36.09 7.93Zm-45.8 8.21c-3.55-8.51-6.71-16.08-9.88-23.65l-1.63.15-9.65 23.5Z" data-name="Calque 1"/></g></svg>