<svg xmlns="http://www.w3.org/2000/svg" viewBox="0 0 389.57 499.36"><g data-name="Calque 2"><path d="M0 452.1V133.73q32.61-32.47 65.22-64.95Q99.51 34.46 133.66 0h209.46c4.09 1.38 8.25 2.58 12.24 4.18 17.23 6.91 34.36 28.11 34.21 50.64-.71 101.44-.34 202.89-.23 304.33a14.71 14.71 0 0 1-4.72 11.4q-62 61.77-123.76 123.82a15.23 15.23 0 0 1-11.78 5q-96.74-.21-193.47-.07c-14.58 0-26.71-5.55-37.38-15.15C8.57 475.43 3.37 464.31 0 452.1Zm149.42-207.46 1.15.32c.09 1.74.26 3.48.27 5.22 0 8.82.14 17.63 0 26.44-.08 4.48 2.62 4.73 5.88 4.55 3-.16 6.7.92 6.68-4.21-.05-18 0-35.91-.13-53.87a5.13 5.13 0 0 0-2.1-3.9c-3.81-1.87-8.83 0-11.08 3.77-6 10-11.87 20-17.84 30-.89 1.5-2 2.88-3.5 5.05-1.85-2.7-3.31-4.62-4.55-6.68-5.86-9.66-11.76-19.31-17.42-29.09-2.52-4.35-6.43-3.69-10.09-3.18-3.91.55-2.63 4.1-2.65 6.51-.1 16.45.08 32.92-.13 49.37-.07 4.73 1.4 6.44 6.24 6.38 4.58-.05 6.65-1.17 6.44-6.17-.33-8.13-.11-16.29-.06-24.43 0-1.63.29-3.26.45-4.89 6.35 8.19 11.39 16.56 16.55 24.85 3.06 4.91 7 4.9 9.95 0 4.51-7.36 8.9-14.81 13.37-22.21.77-1.31 1.7-2.55 2.57-3.83Zm30.33 5.09c0 8.81.05 17.63 0 26.44 0 3.14.77 5.23 4.43 5 1.66-.1 3.33-.08 5 0 3 .12 4.18-1.39 4.1-4.27-.07-2.66.15-5.33 0-8-.26-4 1.33-5.85 5.47-5.66 3.81.17 7.65.14 11.46-.06 13.15-.69 22-9 22.85-21.22.73-11.1-7.63-20.74-20.47-22.16-9.53-1.05-19.22-.68-28.83-1-3.54-.1-4 2.16-4 4.94.01 8.7-.01 17.34-.01 25.99Zm77 7-.87-1.4 25.61-35.83c-8.45-1.7-14.31-.58-18.75 6.76-4.71 7.79-10.8 14.73-16.25 22.06a107.6 107.6 0 0 0-6.61 9.36c-3.42 5.79-1.24 9.6 5.27 9.63h18.44c8.72 0 8.64 0 9 8.6.08 1.65.54 4 1.67 4.74 5.33 3.38 11.87-.24 11.66-6.42-.16-4.6.81-7.43 6.2-7 4 .32 3.83-2.7 3.87-5.46s-.36-5.26-3.91-4.91c-5.47.54-6.37-2.47-6.21-7 .06-1.56-.69-4-1.83-4.59-5.25-2.87-10.4.25-10.71 6.18-.14 2.61-.22 5.21-3.78 5.26-4.26.01-8.55-.03-12.82-.03ZM4.44 109.77Q57.84 56.46 111.14 3c.94-.93 1.72-2 2.57-3H46.88C36.62 3 27 6.9 18.86 14.27 8.78 23.44 3 34.82 0 47.9v64.87a27.64 27.64 0 0 0 4.44-3ZM279.23 499c1.15.07 3 .26 4.93.26 16.27 0 32.55-.23 48.81.1 10.33.21 19.95-2 28.47-7.52 17-10.88 28.25-25.36 27.88-46.85-.3-16.94-.05-33.88-.07-50.83 0-1.9-.18-3.79-.24-5.1Zm-86-250.66c0 2.78 1.08 4.42 4.07 4.39 4-.05 8 .25 11.91-.17 7.67-.8 11.77-7.36 9.56-14.77-1.71-5.75-5.57-8.28-13.62-8.38-13.72-.16-11.78-.84-11.91 11.47.04 2.47.07 4.96.03 7.44Z" data-name="Calque 1"/></g></svg>