<svg xmlns="http://www.w3.org/2000/svg" viewBox="0 0 389.32 499.35"><g data-name="Calque 2"><path d="M0 452.44V134.08c2.05-1.94 4.14-3.84 6.13-5.84Q67.66 66.71 129.09 5.1A15.76 15.76 0 0 1 141.33 0Q237 .21 332.75 0c12.66 0 24.05 3.44 33.92 11.06 12.81 9.88 22.47 22.21 22.5 39.23q.27 155.12.15 310.24a12.51 12.51 0 0 1-4 9.66c-13.5 13.29-26.85 26.73-40.23 40.15q-44.37 44.49-88.71 89H45.88c-11.77-3.51-22.36-8.84-30.88-18.06C7.23 473 3.09 463 0 452.44Zm197.7-202.3c0 8.81.1 17.62 0 26.43-.06 3.63 1.35 5 5 5q18.94-.18 37.88 0c4 0 4.64-2 4.66-5.32s-.87-5.36-4.74-5.26c-6.48.15-13 0-19.44 0-10.25 0-10.11 0-9.87-10.24.1-3.91 1.64-5.31 5.41-5.22 6.31.15 12.63-.1 18.93.06 3.91.11 4.73-1.88 4.72-5.26s-.76-5.42-4.68-5.32c-6.15.16-12.3-.12-18.44.07-4.18.13-6.32-1.31-5.89-5.74a22 22 0 0 0 0-4c-.43-4.43 1.72-5.84 5.9-5.74 7.47.19 14.95-.07 22.42.08 3.94.08 4.65-2 4.67-5.33s-.83-5.3-4.73-5.26q-18.44.21-36.87 0c-3.72 0-5 1.52-4.92 5.08.08 8.68-.01 17.33-.01 25.97Zm-64.83.07c0 8.81.06 17.63 0 26.44 0 3.25 1 4.8 4.56 4.93 8.77.31 8.95.27 9-8.46 0-1.5.09-3 0-4.49-.22-3.65 1.53-5.11 5.07-5 3.82.11 7.65.12 11.47-.05 13.38-.57 22.53-9 23.22-21.37.63-11.12-7.69-20.57-20.61-22.06-9-1-18.23-.57-27.34-1-4.27-.21-5.46 1.69-5.37 5.64.13 8.46-.01 16.94 0 25.42Zm181-20.9c-2.95-2.54-4.29-4-5.89-5a36.48 36.48 0 0 0-29.12-4.94c-11.84 2.81-20.48 9.76-24 21.62-3.43 11.64-1.2 22.41 7.51 31.35 12.48 12.82 32.32 12.38 46.56 4.16 1.58-.91 2.72-3.72 2.88-5.74.41-5.13-.07-10.31.21-15.45.27-4.87-2.45-5.34-6.25-5.3s-6.71.19-6.34 5.18a40.84 40.84 0 0 1-.16 10 7.14 7.14 0 0 1-3.43 4.69c-8.9 4-20.43.34-25.55-7.72-5.35-8.45-4.08-20.46 2.87-27.11s18.65-7.61 27.68-1.6c3 2 4.95 1.77 7.41-.43a44.64 44.64 0 0 1 5.61-3.71ZM82.09 266c-1.27 1.46-2.58 3.14-4.07 4.63-2.91 2.91-2.47 5.39 1.17 6.85 4.71 1.9 9.52 4.28 14.46 4.79 12.73 1.31 22.44-6.59 22.76-18.21.37-13.44.1-26.9.17-40.36 0-3.07-1.17-4.59-4.4-4.56q-12.95.14-25.9 0c-3.64 0-4.45 1.92-4.46 5.05s.54 5.59 4.55 5.49a89.92 89.92 0 0 1 12.93.19c1.59.18 4.22 2.19 4.24 3.41.18 10.27.36 20.6-.47 30.82-.52 6.44-6.58 9.43-12.61 7-2.84-1.1-5.32-3.19-8.37-5.1ZM0 113.12a44.73 44.73 0 0 0 5.51-4.06Q57.4 57.25 109.19 5.33c1.23-1.23 2.34-2.58 4.37-4.84-3-.18-4.71-.38-6.44-.38C89.83.09 72.54 0 55.26.12 41.15.2 29.12 5.57 18.66 14.87 8.56 23.86 2.94 35.29 0 48.25Zm344.12 386.23c5.38-2.15 11.19-3.61 16.08-6.57 17.8-10.78 29.45-25.46 29.11-47.58-.26-16.94 0-33.89-.07-50.83 0-1.88-.23-3.76-.43-6.89-2.29 2-3.65 3.16-4.88 4.4q-51.62 51.62-103.19 103.27a53.45 53.45 0 0 0-3.45 4.2Zm-197.53-250c.27 1.36 1.95 3.38 3.11 3.46a62.93 62.93 0 0 0 13.86-.17c6.69-1 10.22-7.19 8.58-13.79-1.52-6.09-5.22-8.92-13.06-9.08-14.87-.3-12.49-.95-12.63 11.66 0 2.66-.36 5.38.14 7.93Z" data-name="Calque 1"/></g></svg>