<svg xmlns="http://www.w3.org/2000/svg" viewBox="0 0 389.36 499.48"><g data-name="Calque 2"><path d="M134 0h209.48c23.18 5.86 38.64 20 45.88 42.91v323.36c-1.8 1.72-3.63 3.41-5.39 5.17q-61.35 61.37-122.62 122.82a15.8 15.8 0 0 1-12.24 5.09c-64-.14-128-.59-191.94.13-29 .33-57.27-26-57.17-57.24.32-100.59.14-201.19 0-301.79a13.68 13.68 0 0 1 4.35-10.56q32.1-31.75 63.9-63.78Q101.18 33.1 134 0Zm42.6 244.63 1.54.54v5.89c0 8.64.08 17.29 0 25.93 0 4.74 3.24 4.19 6.21 4.17s6.31.68 6.3-4.08c-.05-18.12 0-36.24-.13-54.36a4.7 4.7 0 0 0-2-3.53c-3.61-1.85-9 0-11.14 3.66-6 10.13-12 20.3-18.11 30.42-.87 1.45-2.05 2.71-3.67 4.82-3-4.92-5.51-9-8-13.07-4.64-7.68-9.3-15.35-13.85-23.08-2.55-4.32-6.68-3.51-10.17-2.62-1.24.32-2.27 4-2.29 6.11-.18 17 0 33.92-.16 50.87 0 5.2 3.13 4.84 6.6 4.92s6.16-.28 6-5c-.23-8.47-.08-16.95 0-25.43 0-1.67.26-3.34.4-5a10.37 10.37 0 0 1 3.81 3.89q5.73 9.34 11.43 18.72c5 8.17 7.79 8.13 12.83-.18 2.84-4.69 5.61-9.43 8.45-14.12 1.98-3.1 3.98-6.3 5.95-9.47ZM207 250v26.42c0 2.54.32 4.83 3.62 4.75 10.6-.28 21.32.26 31.78-1.11 16.5-2.15 26.14-13.91 26.15-29.95s-9.64-27.86-26-30.07c-10-1.34-20.19-.76-30.29-1.2-3.87-.17-5.35 1.34-5.27 5.23.16 8.59.01 17.23.01 25.93ZM47.24 0C45.5.56 43.78 1.18 42 1.67a57.38 57.38 0 0 0-41.9 55Q0 81.6.15 106.52a65.06 65.06 0 0 0 .75 6.6c2.39-2.12 3.92-3.33 5.29-4.69Q58.33 56.27 110.44 4.09c1.29-1.28 2.42-2.72 3.63-4.09Zm342.12 387.23a34.63 34.63 0 0 0-3.5 2.74q-52.32 52.29-104.6 104.66a51 51 0 0 0-3.26 4.07 37.75 37.75 0 0 0 3.9.53c19.09 0 38.19.07 57.28-.09a32.72 32.72 0 0 0 9.27-1.63c21.05-6.43 34.25-20.7 40.87-41.42ZM220.55 249.76c0 5.31.07 10.62 0 15.93-.06 3.24 1.13 5 4.6 4.95 3.64-.09 7.31.19 10.94-.12 10.2-.85 17.47-7 18.72-15.56 1.71-11.71-1.84-20.5-11.12-23.35-6.3-1.94-13.33-1.68-20-1.91-1 0-2.81 2.63-2.91 4.14-.37 5.29-.14 10.61-.14 15.92Z" data-name="Calque 1"/></g></svg>