<svg xmlns="http://www.w3.org/2000/svg" viewBox="0 0 389.36 499.48"><g data-name="Calque 2"><path d="M134 0h209.48c23.18 5.86 38.64 20 45.88 42.91v323.36c-1.8 1.72-3.63 3.41-5.39 5.17q-61.35 61.37-122.62 122.82a15.8 15.8 0 0 1-12.24 5.09c-64-.14-128-.59-191.94.13-29 .33-57.27-26-57.17-57.24.32-100.59.14-201.19 0-301.79a13.68 13.68 0 0 1 4.35-10.56q32.1-31.75 63.9-63.78Q101.18 33.1 134 0Zm55.08 249.5c0 9 .06 17.95 0 26.92 0 3.35 1.23 5 4.68 4.76a37.37 37.37 0 0 1 4.49 0c3.24.18 4.44-1.41 4.37-4.52-.1-4.49.1-9 0-13.46-.1-3.65 1.54-5 5.1-5 6.64.11 13.29 0 19.93 0 3.55 0 4-2.16 3.94-4.94s.14-5.55-3.86-5.53-8.31 0-12.46 0c-14.09-.17-12.46 1.89-12.67-12.89-.06-4.16 1.67-5.59 5.65-5.5 7.47.15 14.95-.11 22.42.08 4.16.1 4.95-2 5-5.57s-1.25-5.08-4.95-5c-12.12.13-24.25.15-36.37 0-3.92-.05-5.3 1.47-5.22 5.3.07 8.39-.05 16.85-.04 25.35Zm57.84.28v25.92a4.17 4.17 0 0 1 0 .5c-.32 3.61 1.27 5.29 4.94 5a26.44 26.44 0 0 1 4 0c3.51.25 4.71-1.5 4.6-4.81-.13-4.15.17-8.32-.06-12.46-.25-4.42 1.69-5.87 5.9-5.74 6.3.21 12.62 0 18.93.06 3.85.06 4.18-2.29 4.18-5.24s-.31-5.36-4.16-5.28c-4.15.09-8.3 0-12.46 0-13.79-.15-12.14 1.72-12.4-12.67-.08-4.43 1.77-5.84 5.94-5.74 7.47.18 14.95-.07 22.42.08 3.94.08 4.66-2 4.67-5.33s-.82-5.3-4.72-5.26q-18.44.21-36.87 0c-3.71 0-5 1.5-4.93 5.07.1 8.61.03 17.25.03 25.9ZM124 218.83c-7.3 0-14.61.12-21.91 0-3.82-.09-4.85 1.73-4.81 5.19 0 3.28.67 5.59 4.63 5.37 2.15-.12 4.32 0 6.47 0 8.92 0 8.92 0 8.93 8.67 0 12.46.24 24.93-.11 37.38-.16 5.84 3 5.75 7.21 5.88 4.53.14 6.62-1 6.51-6.07-.29-13.28 0-26.58-.17-39.86-.07-4.6 1.69-6.35 6.16-6 3 .21 6-.13 9 .06 4.14.26 5-1.93 5-5.53s-1.22-5.14-4.93-5.06c-7.41.14-14.72-.03-21.98-.03ZM160.15 250c0 8.48.26 17-.09 25.42-.23 5.35 2.5 5.92 6.75 5.82 4-.09 7.05.06 6.95-5.6q-.45-25.66 0-51.33c.1-5.7-3-5.46-7-5.57-4.28-.12-6.94.54-6.72 5.85.37 8.47.11 16.95.11 25.41ZM47.24 0C45.5.56 43.78 1.18 42 1.67a57.38 57.38 0 0 0-41.9 55Q0 81.6.15 106.52a65.06 65.06 0 0 0 .75 6.6c2.39-2.12 3.92-3.33 5.29-4.69Q58.33 56.27 110.44 4.09c1.29-1.28 2.42-2.72 3.63-4.09Zm342.12 387.23a34.63 34.63 0 0 0-3.5 2.74q-52.32 52.29-104.6 104.66a51 51 0 0 0-3.26 4.07 37.75 37.75 0 0 0 3.9.53c19.09 0 38.19.07 57.28-.09a32.72 32.72 0 0 0 9.27-1.63c21.05-6.43 34.25-20.7 40.87-41.42Z" data-name="Calque 1"/></g></svg>