<svg xmlns="http://www.w3.org/2000/svg" viewBox="0 0 389.57 499.35"><g data-name="Calque 2"><path d="M0 452.1V133.73q32.61-32.47 65.22-64.95Q99.51 34.46 133.66 0h209.46c4.09 1.38 8.25 2.58 12.24 4.18 17.23 6.91 34.36 28.11 34.21 50.64-.71 101.44-.34 202.89-.23 304.33a14.71 14.71 0 0 1-4.72 11.4q-62 61.77-123.76 123.82a15.23 15.23 0 0 1-11.78 5q-96.74-.21-193.47-.07c-14.58 0-26.71-5.55-37.38-15.15C8.57 475.43 3.37 464.31 0 452.1Zm59.06-202.2v26.43c0 2.5.24 4.86 3.56 4.78 10.61-.26 21.32.27 31.79-1.1 16.53-2.15 26.17-13.86 26.19-29.91s-9.62-27.88-26-30.1c-9.8-1.34-19.86-.74-29.79-1.23-4.27-.21-6 1.29-5.84 5.7.26 8.47.08 16.95.09 25.43Zm70.81.21c0 18 14.68 32 33.64 32s33.72-14 33.77-32-14.58-32.11-33.49-32.25c-19.06-.18-33.94 13.96-33.92 32.25Zm138.44-30.53c6.4 9 12.36 17.58 18.55 26 2.13 2.9 2.09 5.19-.12 8-3.31 4.15-6.35 8.51-9.46 12.83-3.32 4.61-6.57 9.26-10.08 14.21 13.1 1.86 14 1.49 20.6-8.23 2-2.88 3.86-5.82 5.87-8.66 1-1.39 2.19-2.62 3.77-4.49 3.95 5.53 7.41 10.36 10.85 15.21 5.06 7.14 9.77 8.63 18.45 5.81 0-.32.07-.72-.08-1q-6.62-9.34-13.27-18.66c-10-14-10-9.19 0-23.19 4.08-5.74 8.12-11.52 12.32-17.46-8.91-2.75-12.59-1.65-17.21 4.78-3.43 4.78-6.81 9.59-10.8 15.22-3.49-4.9-6.4-8.87-9.18-12.93-6.34-9.17-8.01-9.85-20.21-7.44Zm-62.68 30.1c.09 13.44 6.27 23.46 18.27 29 13 6 25.89 4.42 37.52-4.35.84-.64 1.76-2.74 1.41-3.16a28.5 28.5 0 0 0-6.38-6.13c-.75-.47-3.07 1.21-4.49 2.16-8.91 6-20.75 4.77-27.72-2.91-6.62-7.3-7-20-.79-27.6 6.56-8 18.72-10.43 27.34-4.26 4.78 3.43 7.18 2.28 10.5-1.35 2.29-2.5 2.47-4.55-.47-5.85-6-2.64-12-6.17-18.34-6.88-20.38-2.35-37.02 12.46-36.85 31.33ZM4.44 109.77Q57.84 56.46 111.14 3c.94-.93 1.72-2 2.57-3H46.88C36.62 3 27 6.9 18.86 14.27 8.78 23.44 3 34.82 0 47.9v64.87a27.64 27.64 0 0 0 4.44-3Zm280.12 389.49c16.43 0 32.87-.19 49.31.05a51.06 51.06 0 0 0 33.66-11.61c13.81-11.11 22.48-24.88 21.85-43.62-.57-16.76-.11-33.55-.15-50.33a45.29 45.29 0 0 0-.43-4.75L278.56 499.26Zm-212-242.81c0 15.47.73 16.1 16.26 14.05 12.71-1.67 18.43-8.67 18.17-22.22-.21-10.84-7.32-17.92-19.13-18.83-3.46-.27-7 0-10.44-.11-3.7-.12-5 1.73-4.87 5.21.12 5.14 0 10.29 0 15.43q-.01 3.24 0 6.47Zm111.18-6c.14-12.41-8.12-21.09-20.08-21.11-12.12 0-20.15 8-20.24 20.32-.1 12.72 7.78 21.05 20 21.1 11.83 0 20.18-8.33 20.31-20.36Z" data-name="Calque 1"/></g></svg>