<svg xmlns="http://www.w3.org/2000/svg" viewBox="0 0 389.32 499.35"><g data-name="Calque 2"><path d="M0 452.44V134.08c2.05-1.94 4.14-3.84 6.13-5.84Q67.66 66.71 129.09 5.1A15.76 15.76 0 0 1 141.33 0Q237 .21 332.75 0c12.66 0 24.05 3.44 33.92 11.06 12.81 9.88 22.47 22.21 22.5 39.23q.27 155.12.15 310.24a12.51 12.51 0 0 1-4 9.66c-13.5 13.29-26.85 26.73-40.23 40.15q-44.37 44.49-88.71 89H45.88c-11.77-3.51-22.36-8.84-30.88-18.06C7.23 473 3.09 463 0 452.44Zm285.75-224.11a44.77 44.77 0 0 0-4.67-4 36.46 36.46 0 0 0-29.11-5c-11.85 2.79-20.49 9.73-24 21.58-3.45 11.64-1.23 22.4 7.46 31.36 12.44 12.81 32.23 12.45 46.55 4.23 1.59-.92 2.75-3.7 2.93-5.72.43-4.79-.09-9.65.22-14.45s-1.35-6.48-6.21-6.42c-4.59.05-6.89 1.22-6.4 6.2a31.1 31.1 0 0 1-.14 8.94 7.34 7.34 0 0 1-3.39 4.73c-8.47 3.88-19.57.67-25-6.84s-5.1-19.59.88-26.48c6.88-7.92 19.21-9.64 28.6-3.37 3.6 2.41 5.94 2 8.56-.82Zm-139.22 4.56c5.48-8 4.65-10.44-4.22-12.84-8.54-2.3-17-2.62-25.43.57s-13.12 9.72-12.83 17.66c.27 7.07 5 12.53 13.66 15.2 5.07 1.57 10.29 2.66 15.36 4.22 3.7 1.14 7.76 2.66 7.32 7.48s-4.56 5.82-8.4 6.39c-7.47 1.12-14.51-.64-21.17-4-2.07-1.05-4.09-1.45-4.67 1.31s-5.06 5.77-.45 8.09c12.41 6.22 25.41 8 38.3 1.71 7-3.41 10.28-9.54 9.49-17.66-.72-7.46-5.58-10.94-11.89-13.12-3.29-1.13-6.7-1.9-10-2.87-3.18-.93-6.62-1.42-9.43-3-2-1.12-4.37-3.93-4.18-5.72.24-2.23 2.58-5.34 4.68-6a27.45 27.45 0 0 1 11.66-.92c4.13.5 8.15 2.28 12.2 3.5ZM157 219.24c.92 2.48 1.36 3.86 1.93 5.19 7.48 17.4 15.14 34.72 22.37 52.21 1.78 4.32 4.5 5 8.5 5s7.21-.31 9.12-4.89c7.22-17.32 14.83-34.47 22.24-51.71a48.39 48.39 0 0 0 1.57-5c-10.43-2.36-11.88-1.61-15.71 7.37q-6.85 16-13.82 32a53 53 0 0 1-2.88 4.82c-1.33-2.9-2.19-4.65-3-6.44-4.82-11.3-9.53-22.66-14.54-33.88-.82-1.85-2.74-4.07-4.51-4.46-3.27-.72-6.82-.21-11.27-.21ZM0 113.12a44.73 44.73 0 0 0 5.51-4.06Q57.4 57.25 109.19 5.33c1.23-1.23 2.34-2.58 4.37-4.84-3-.18-4.71-.38-6.44-.38C89.83.09 72.54 0 55.26.12 41.15.2 29.12 5.57 18.66 14.87 8.56 23.86 2.94 35.29 0 48.25Zm344.12 386.23c5.38-2.15 11.19-3.61 16.08-6.57 17.8-10.78 29.45-25.46 29.11-47.58-.26-16.94 0-33.89-.07-50.83 0-1.88-.23-3.76-.43-6.89-2.29 2-3.65 3.16-4.88 4.4q-51.62 51.62-103.19 103.27a53.45 53.45 0 0 0-3.45 4.2Z" data-name="Calque 1"/></g></svg>