<svg xmlns="http://www.w3.org/2000/svg" viewBox="0 0 389.36 499.48"><g data-name="Calque 2"><path d="M134 0h209.48c23.18 5.86 38.64 20 45.88 42.91v323.36c-1.8 1.72-3.63 3.41-5.39 5.17q-61.35 61.37-122.62 122.82a15.8 15.8 0 0 1-12.24 5.09c-64-.14-128-.59-191.94.13-29 .33-57.27-26-57.17-57.24.32-100.59.14-201.19 0-301.79a13.68 13.68 0 0 1 4.35-10.56q32.1-31.75 63.9-63.78Q101.18 33.1 134 0Zm42.4 244.41 1.57-.47q5.84 7 11.67 14.05 8.42 10.18 16.79 20.39c3.06 3.74 7.31 3.39 11 2.23 1.31-.42 2-4.42 2.07-6.79.17-16.62-.06-33.26.16-49.88.08-5.5-3.21-5.12-6.85-5.15s-7-.2-6.78 5.23c.31 9 .1 17.95.06 26.93 0 1.68-.22 3.36-.34 5a236.2 236.2 0 0 1-18.52-20.81c-3.69-4.5-7.38-9-11-13.55-3-3.81-7.29-3.39-10.93-2.22-1.31.42-2 4.44-2 6.83-.17 16.63 0 33.26-.16 49.89 0 5 2.8 5.08 6.43 5.1S176 281 175.9 276c-.22-8.64-.08-17.29 0-25.94-.01-1.86.32-3.75.5-5.65Zm-78.08 5.33c0 8.81.05 17.62 0 26.44 0 3.14.78 5.22 4.44 5 1.65-.1 3.32-.08 5 0 3 .12 4.17-1.4 4.1-4.28s.11-5.66 0-8.48c-.16-3.56 1.32-5.22 5-5.13 4 .1 8 .13 12-.08 13.14-.69 22.05-9 22.84-21.23.72-11.1-7.64-20.73-20.48-22.15-9.53-1.05-19.22-.68-28.83-1-3.55-.1-4 2.17-4 5-.05 8.61-.07 17.26-.07 25.91Zm192.08 12.83a67.7 67.7 0 0 1 0-7c.47-4.67-1.61-6.14-6.09-6-6.11.26-6.39.31-6.44 6.53v4.49c0 8.25-1.5 9.79-9.75 10.05h-3.49c-11.09-.3-19.07-8.92-19.15-20.67s7.71-20.29 19-20.76c5.67-.24 10.86.81 15.58 4.11 2.9 2 7.29.26 9.67-3.85 2-3.51-1.49-4.31-3.23-5.47a36.06 36.06 0 0 0-29.56-5c-11.81 3-20.38 10-23.74 22-3.3 11.7-1.08 22.54 7.88 31.23 10.44 10.13 23 11.64 36.56 8.07 11.76-3.09 12.76-4.31 12.76-16.18ZM47.24 0C45.5.56 43.78 1.18 42 1.67a57.38 57.38 0 0 0-41.9 55Q0 81.6.15 106.52a65.06 65.06 0 0 0 .75 6.6c2.39-2.12 3.92-3.33 5.29-4.69Q58.33 56.27 110.44 4.09c1.29-1.28 2.42-2.72 3.63-4.09Zm342.12 387.23a34.63 34.63 0 0 0-3.5 2.74q-52.32 52.29-104.6 104.66a51 51 0 0 0-3.26 4.07 37.75 37.75 0 0 0 3.9.53c19.09 0 38.19.07 57.28-.09a32.72 32.72 0 0 0 9.27-1.63c21.05-6.43 34.25-20.7 40.87-41.42ZM112 248.77c.26 1.41 1.82 3.61 2.9 3.67 4.93.27 10 .51 14.82-.36 6.22-1.11 9.38-7.09 7.93-13.33-1.49-6.43-5.43-9.25-13.87-9.35-13.74-.18-11.81-.85-11.91 11.44 0 2.65-.34 5.36.13 7.93Z" data-name="Calque 1"/></g></svg>