<svg xmlns="http://www.w3.org/2000/svg" viewBox="0 0 389.57 499.35"><g data-name="Calque 2"><path d="M133.66 0h209.46c4.09 1.38 8.25 2.58 12.24 4.18 17.23 6.91 34.36 28.11 34.21 50.64-.71 101.44-.34 202.89-.23 304.33a14.71 14.71 0 0 1-4.72 11.4q-62 61.77-123.76 123.82a15.23 15.23 0 0 1-11.78 5q-96.74-.21-193.47-.07c-14.58 0-26.71-5.55-37.38-15.15-9.66-8.7-14.86-19.82-18.23-32V133.73q32.61-32.47 65.22-64.95Q99.51 34.46 133.66 0Zm.06 257c-1.44-2-2.45-3.22-3.28-4.57-2.86-4.67-5.66-9.39-8.49-14.09-3.51-5.84-7.08-11.64-10.54-17.51-2.42-4.11-6.34-3.11-9.8-2.64-1 .14-2.51 2.56-2.53 4C98.91 240.07 99 258 99 276c0 5.14 3.7 4 6.7 4.2 3.27.18 5.93-.12 5.84-4.58-.17-8.48-.06-17 0-25.44 0-1.73.17-3.47.26-5.2a8 8 0 0 1 3.77 3.49c4.34 7.08 8.6 14.22 13 21.26 3.07 4.89 6.94 4.86 10 0 4.68-7.66 9.24-15.39 13.9-23.06a48.45 48.45 0 0 1 3.14-4c.16 3.12.32 4.86.32 6.61 0 8.81.14 17.63 0 26.44-.08 4.52 2.7 4.65 5.92 4.51 3-.14 6.67.85 6.65-4.27-.07-18 0-35.91-.15-53.86a5 5 0 0 0-2.14-3.87c-3.89-1.84-8.78 0-11.05 3.82-6 10-11.88 20-17.85 30-1.02 1.43-2.11 2.8-3.59 4.95Zm51-8.22v26.44c0 3.16.8 5.21 4.45 5a48.66 48.66 0 0 1 5 0c3 .11 4.16-1.43 4.09-4.3s.11-5.66 0-8.48c-.16-3.57 1.35-5.21 5-5.12 4 .1 8 .13 12-.08 13.13-.69 22.05-9.05 22.83-21.24.71-11.1-7.64-20.72-20.5-22.14-9.52-1.06-19.21-.68-28.83-1-3.54-.1-3.95 2.2-3.94 5-.06 8.6-.08 17.25-.08 25.89Zm86.58-20.41a24.37 24.37 0 0 1-1.8 3.52c-3 3.53-6.61 6.7-9 10.6-1.47 2.4-1.63 5.93-1.34 8.85.09.83 3.81 1.44 5.91 1.88 2.26.48 4.69.26 6.84 1 5.48 1.84 7.28 7.9 3.23 11.86-1.94 1.9-5.22 3.56-7.8 3.43a76 76 0 0 1-16.92-2.93c-4.15-1.19-4.91 1.51-6.26 3.86-1.18 2.06-2.44 4.49.68 5.9 12 5.42 24.26 7.34 36.36.77 6.36-3.46 10-9.42 9.44-16.9-.55-7.65-4.62-13-12.18-15.32a33.41 33.41 0 0 1-4.3-2.12c1.44-1.79 2.42-3.06 3.45-4.3 3-3.55 6.27-6.9 8.92-10.69 3.26-4.66 1.75-9.78-2.65-9.83-11.78-.14-23.56 0-35.35-.06-2.7 0-3.77 1.26-3.93 3.94-.33 5.53.39 6.51 5.84 6.55 6.56 0 13.17-.04 20.88-.04ZM4.44 109.77Q57.84 56.46 111.14 3c.94-.93 1.72-2 2.57-3H46.88C36.62 3 27 6.9 18.86 14.27 8.78 23.44 3 34.82 0 47.9v64.87a27.64 27.64 0 0 0 4.44-3Zm280.1 389.49c16.43 0 32.87-.19 49.3.05a51.06 51.06 0 0 0 33.67-11.6c13.81-11.1 22.5-24.87 21.87-43.61-.57-16.76-.11-33.55-.15-50.33a46.19 46.19 0 0 0-.43-4.83L278.51 499.26ZM198.47 248.1c.24 1.34 2 3.29 3.19 3.39a63.55 63.55 0 0 0 13.34-.09c7-1 10.69-7.16 8.95-14-1.6-6.29-5.55-8.95-14.12-9-13.21-.12-11.5-.81-11.54 11.3.03 2.8-.29 5.68.18 8.4Z" data-name="Calque 1"/></g></svg>