<svg xmlns="http://www.w3.org/2000/svg" viewBox="0 0 389.36 499.48"><g data-name="Calque 2"><path d="M389.36 42.91v323.36c-1.8 1.72-3.63 3.41-5.39 5.17q-61.35 61.37-122.62 122.82a15.8 15.8 0 0 1-12.24 5.09c-64-.14-128-.59-191.94.13-29 .33-57.27-26-57.17-57.24.32-100.59.14-201.19 0-301.79a13.68 13.68 0 0 1 4.35-10.56q32.1-31.75 63.9-63.78Q101.18 33.1 134 0h209.48c23.18 5.86 38.64 20 45.88 42.91ZM178.68 262.58c0-2.33-.19-4.68 0-7 .48-4.66-1.59-6.16-6.08-6-6.11.26-6.4.31-6.45 6.52v5c0 7.69-1.47 9.19-9.25 9.54-1.33.06-2.66.05-4 0-11.09-.29-19.07-8.91-19.16-20.67s7.71-20.28 19-20.76c5.67-.24 10.85.82 15.59 4.11 2.91 2 7.28.26 9.66-3.85 2-3.51-1.48-4.31-3.22-5.47a36.09 36.09 0 0 0-29.56-5c-11.8 2.91-20.37 10-23.73 21.88-3.3 11.69-1.08 22.53 7.87 31.22 10.44 10.14 23 11.65 36.56 8.08 11.77-3.08 12.77-4.31 12.77-16.17.01-.43.01-.93 0-1.43ZM223 250c0 8.81.07 17.62 0 26.43 0 3.36 1.25 5 4.7 4.75a37.2 37.2 0 0 1 4.48 0c3.25.18 4.44-1.43 4.36-4.53-.09-4.32.16-8.65 0-13-.19-4.15 1.61-5.61 5.62-5.5 6.47.18 12.95 0 19.43 0 3.55 0 4-2.17 3.94-4.95s.12-5.54-3.88-5.52-8.3 0-12.45 0c-14.09-.17-12.45 1.89-12.67-12.9-.06-4.16 1.69-5.58 5.66-5.49 7.47.15 14.95-.11 22.42.07 4.18.11 4.94-2 5-5.56s-1.27-5.08-5-5c-12.12.13-24.25.15-36.37 0-3.93-.05-5.28 1.49-5.21 5.31.08 8.61-.03 17.25-.03 25.89Zm-16.44.51c0-8.8-.2-17.61.08-26.41.15-4.81-2.29-5.57-6.18-5.3-3.49.24-7.52-1-7.46 5q.3 26.16 0 52.33c-.07 5.55 3.38 5 6.94 5.05 3.74.07 6.92.13 6.71-5.27-.33-8.44-.09-16.91-.09-25.4ZM47.24 0C45.5.56 43.78 1.18 42 1.67a57.38 57.38 0 0 0-41.9 55Q0 81.6.15 106.52a65.06 65.06 0 0 0 .75 6.6c2.39-2.12 3.92-3.33 5.29-4.69Q58.33 56.27 110.44 4.09c1.29-1.28 2.42-2.72 3.63-4.09Zm342.12 387.23a34.63 34.63 0 0 0-3.5 2.74q-52.32 52.29-104.6 104.66a51 51 0 0 0-3.26 4.07 37.75 37.75 0 0 0 3.9.53c19.09 0 38.19.07 57.28-.09a32.72 32.72 0 0 0 9.27-1.63c21.05-6.43 34.25-20.7 40.87-41.42Z" data-name="Calque 1"/></g></svg>