<svg xmlns="http://www.w3.org/2000/svg" viewBox="0 0 389.32 499.33"><g data-name="Calque 2"><path d="M389.32 43.24V366.6q-21.69 21.58-43.39 43.19-44.67 44.73-89.27 89.54H46.2c-1.56-.55-3.12-1.13-4.7-1.63C16 489.59.09 468 .09 441.21Q.06 291.3 0 141.41A14.74 14.74 0 0 1 4.6 130Q67.48 67.32 130.11 4.41A13.61 13.61 0 0 1 140.62 0q97.22.17 194.44.05a52.24 52.24 0 0 1 27.83 8.19c13.34 8.19 21.85 20.14 26.43 35ZM271.81 233c.55-1 1.1-1.8 1.5-2.69 2.86-6.29 2.36-7.67-4.19-9.71-9.09-2.81-18.26-3.43-27.33.08-8.49 3.28-13.09 9.81-12.73 17.72.32 7.09 5.08 12.45 13.75 15.13 5.55 1.72 11.37 2.69 16.69 4.9 2.47 1 5.3 4 5.72 6.44.64 3.78-3 5.49-6.4 6.31-8.18 2-15.78-.08-23.09-3.64-2.16-1.05-4.07-1.22-4.63 1.47s-5 5.74-.31 8.06c12.27 6.08 25.1 7.88 37.87 1.83 7-3.31 10.51-9.29 9.87-17.46-.61-7.71-5.51-11.33-12-13.54-3.45-1.17-7-2-10.53-3-3.18-.93-6.55-1.56-9.41-3.11-1.74-.94-3.85-3.49-3.68-5.09.24-2.22 2.06-5.45 3.92-6.08a29.52 29.52 0 0 1 12.1-1.34c4.16.42 8.21 2.27 12.88 3.72Zm-131 26.16c4.23 5.91 7.69 10.73 11.12 15.57 5.14 7.25 9.46 8.64 18.82 5.82-.71-1.16-1.3-2.29-2-3.31-5.44-7.54-10.74-15.19-16.43-22.53-2.89-3.74-3.17-6.68-.12-10.52 5.05-6.37 9.63-13.1 14.36-19.72 1-1.36 1.68-2.9 2.66-4.62-7.9-1.57-14.07-1.38-18 6.35-2.43 4.75-6.08 8.89-9.17 13.28-1.11-.63-1.67-.76-1.93-1.12-3-4.16-6.06-8.31-9-12.54-4.79-6.92-10.29-8.63-18.82-5.5 6.1 8.58 12.07 17.15 18.25 25.56 2.11 2.87 2.21 5.17 0 8-3.31 4.15-6.35 8.52-9.45 12.83-3.33 4.62-6.61 9.28-10.08 14.17 9.06 1.92 16 1.14 20.36-7.6 2.26-4.73 5.78-8.79 9.47-14.16Zm38.22-8.81c0 8.81.07 17.62 0 26.43 0 3.34 1.21 4.82 4.67 4.79q17.44-.15 34.89 0c3.63 0 5.06-1.33 5-5s-.75-5.73-4.94-5.61c-6.64.19-13.3-.17-19.93.1-4.84.21-6.35-1.76-6.27-6.44.21-13.29-.16-26.6.17-39.89.14-5.62-2.9-5.58-6.92-5.64-4.21-.07-7 .41-6.78 5.8.41 8.45.15 16.94.15 25.42Zm192.41 234.8a64.15 64.15 0 0 0 17.88-28.73v-68.86c-1.52 1.25-3.15 2.4-4.54 3.78Q333.06 443 281.4 494.79c-1.39 1.39-2.53 3-3.79 4.54h66.83c9.82-3.14 19.22-6.97 27-14.18ZM111.69.29c-1 0-2.93-.2-4.84-.2Q81.94.06 57 .08A57 57 0 0 0 .1 56.76C0 73.38.07 90 .09 106.62c0 1.79.19 3.57.27 5Z" data-name="Calque 1"/></g></svg>