<svg xmlns="http://www.w3.org/2000/svg" viewBox="0 0 389.32 499.33"><g data-name="Calque 2"><path d="M256.66 499.33H46.2c-1.56-.55-3.12-1.13-4.7-1.63C16 489.59.09 468 .09 441.21Q.06 291.3 0 141.41A14.74 14.74 0 0 1 4.6 130Q67.48 67.32 130.11 4.41A13.61 13.61 0 0 1 140.62 0q97.22.17 194.44.05a52.24 52.24 0 0 1 27.83 8.19c13.34 8.19 21.85 20.14 26.43 35V366.6q-21.69 21.58-43.39 43.19-44.67 44.73-89.27 89.54ZM197 250.27v22.94c0 8.59 0 8.48 8.59 8.36 3.67-.06 5-1.43 4.95-5-.16-5.48 0-11 0-16.46 0-3.14 1.39-4.52 4.52-4.5 6.64.06 13.29.1 19.93 0 3.7-.07 5 1.66 4.94 5.16-.11 5 .3 10-.09 15-.46 5.79 2.88 5.85 7.13 5.94 4.48.1 6.65-.92 6.56-6-.26-16.12-.09-32.24-.1-48.37 0-8.27 0-8.13-8.33-8.11-3.89 0-5.37 1.43-5.22 5.29.19 5 0 10 0 15 .05 3.36-1.45 4.81-4.81 4.77q-10-.15-19.93 0c-3.47.05-4.72-1.61-4.66-4.89.08-5-.24-10 .06-15 .32-5.53-3.21-5.11-6.84-5.14s-7-.2-6.79 5.22c.33 8.52.09 17.15.09 25.79ZM179 233c.55-.92 1.12-1.72 1.53-2.6 2.89-6.29 2.39-7.75-4.09-9.76-9.42-2.92-18.91-3.52-28.25.41-7.89 3.33-12.19 9.69-11.89 17.29.28 7 5 12.43 13.21 15 5.54 1.74 11.23 3 16.77 4.72 3.43 1.07 7.32 3.06 6.17 7.08-.72 2.49-4.12 5.13-6.85 5.94-7.67 2.29-15.08.05-22.1-3.3-2.47-1.18-4.53-1.72-5.34 1.6-.64 2.62-4.71 5.63.21 7.94 11.89 5.59 24.15 7.24 36.61 2.1 7.42-3.06 11.11-9.49 10.77-17.41-.31-7.16-3.68-11.34-11.93-14.08-4.88-1.62-10-2.56-14.85-4.16-4.06-1.33-9.46-1.66-9-8 .27-4.08 4.14-6.53 10.7-6.94a19.2 19.2 0 0 1 5.91.45c3.97.97 7.89 2.3 12.42 3.72Zm192.45 252.2a64.15 64.15 0 0 0 17.88-28.73v-68.91c-1.52 1.25-3.15 2.4-4.54 3.78Q333.06 443 281.4 494.79c-1.39 1.39-2.53 3-3.79 4.54h66.83c9.82-3.14 19.22-6.97 27-14.18ZM107.55.08C90.28.07 73 0 55.73.09 26.34.2.46 25.72.13 55.06c-.2 17.45-.06 34.9 0 52.35A34.06 34.06 0 0 0 .7 112L112.31.32c-1.5-.08-3.13-.23-4.76-.24Z" data-name="Calque 1"/></g></svg>