<svg xmlns="http://www.w3.org/2000/svg" viewBox="0 0 389.57 499.35"><g data-name="Calque 2"><path d="M0 452.1V133.73q32.61-32.47 65.22-64.95Q99.51 34.46 133.66 0h209.46c4.09 1.38 8.25 2.58 12.24 4.18 17.23 6.91 34.36 28.11 34.21 50.64-.71 101.44-.34 202.89-.23 304.33a14.71 14.71 0 0 1-4.72 11.4q-62 61.77-123.76 123.82a15.23 15.23 0 0 1-11.78 5q-96.74-.21-193.47-.07c-14.58 0-26.71-5.55-37.38-15.15C8.57 475.43 3.37 464.31 0 452.1Zm219.23-202c0-18-14.63-32.11-33.52-32.26s-33.82 13.85-33.89 31.78c-.08 18.4 14.5 32.47 33.67 32.5 18.89.05 33.69-14 33.74-32Zm66.82 12.48c0-2.33-.19-4.68 0-7 .47-4.64-1.55-6.18-6.06-6-6.13.26-6.42.31-6.47 6.51v5c0 7.71-1.47 9.21-9.24 9.56-1.49.07-3 .06-4.48 0-10.76-.41-18.59-9.08-18.68-20.64s7.6-20.16 18.45-20.76c5.81-.32 11.2.65 16.08 4.08 2.92 2 7.24.3 9.67-3.82 2.07-3.52-1.46-4.32-3.2-5.47a36.08 36.08 0 0 0-29.55-5c-11.77 2.96-20.34 9.96-23.71 21.89-3.31 11.69-1.09 22.53 7.85 31.23 10.44 10.14 23 11.66 36.56 8.1 11.78-3.09 12.78-4.32 12.78-16.17ZM103 249.51c0 9 .07 18 0 26.93 0 3.38 1.28 4.79 4.71 4.76q17.44-.15 34.89 0c3.66 0 5-1.4 5-5s-.81-5.72-5-5.58c-5.64.19-11.3 0-16.95 0-9.14 0-9.14 0-9.15-8.91v-36.4c0-6.45-.13-6.54-6.84-6.53-6.5 0-6.63.13-6.65 6.76-.09 8.01-.07 15.99-.01 23.97ZM18.86 14.27C8.78 23.44 3 34.82 0 47.9v64.87a27.64 27.64 0 0 0 4.44-3Q57.84 56.46 111.14 3c.94-.93 1.72-2 2.57-3H46.88C36.62 3 27 6.9 18.86 14.27Zm260.93 484.78c.61 0 2.38.19 4.16.19 16.27 0 32.54-.22 48.81.1 10.12.2 19.61-1.88 28.06-7.18 17.24-10.81 28.78-25.28 28.48-47-.23-16.94 0-33.89 0-50.83v-4.83Zm-94.13-228.34c11.75 0 20-8.55 20-20.67s-8.22-20.7-19.94-20.75c-12.36 0-20.38 8.08-20.39 20.68s8 20.77 20.33 20.74Z" data-name="Calque 1"/></g></svg>