<svg xmlns="http://www.w3.org/2000/svg" viewBox="0 0 389.33 499.33"><g data-name="Calque 2"><path d="M389.33 43.24V366.6q-21.69 21.58-43.39 43.19-44.67 44.73-89.27 89.54H46.21c-1.56-.55-3.12-1.13-4.7-1.63C16 489.59.1 468 .1 441.21Q.07 291.3 0 141.41A14.74 14.74 0 0 1 4.61 130Q67.49 67.32 130.12 4.41A13.61 13.61 0 0 1 140.63 0q97.22.17 194.44.05a52.24 52.24 0 0 1 27.83 8.19c13.34 8.19 21.85 20.14 26.43 35Zm-205.1 175.44v.5c-4.32 0-8.68-.32-12.94.17-1.49.17-3.91 2.33-3.93 3.6q-.39 27.42 0 54.85c0 1.24 2.3 3.51 3.52 3.5 10.93-.08 22 .36 32.76-1.14 15.62-2.16 25.08-14.27 25.07-29.88s-9.58-27.22-25.15-29.92c-6.38-1.1-12.9-1.15-19.33-1.68Zm-81.95 31.56c0 8.81.07 17.63 0 26.44 0 3.3 1.11 4.76 4.61 4.88 8.75.29 8.9.28 8.92-8.51 0-1.5.09-3 0-4.49-.22-3.69 1.61-5.06 5.12-5 3.82.1 7.65.12 11.47 0 13.39-.59 22.53-9.09 23.17-21.42.59-11.13-7.69-20.55-20.66-22-9.53-1.07-19.22-.68-28.83-.93-3.22-.08-3.79 2-3.78 4.61 0 8.79-.02 17.61-.02 26.42Zm138.64-.24c0 8.64.17 17.28-.07 25.92-.13 4.43 1.62 6.1 5.86 5.63a23.9 23.9 0 0 1 3.49 0c2.91.13 4.26-1.19 4.22-4.15-.07-4.49.13-9 0-13.46-.13-3.79 1.35-5.46 5.25-5.36 6.14.17 12.29-.1 18.43.08 3.77.11 5.36-1.15 5.39-5.14 0-4.16-1.54-5.7-5.59-5.47-3.65.22-7.31.08-11 0-14-.17-12.34 1.89-12.52-13 0-3.82 1.44-5.41 5.28-5.34 7.48.13 14.95-.1 22.42.07 3.82.08 5.36-1.28 5.33-5.21 0-3.72-1.06-5.47-5.1-5.41q-18.18.26-36.38 0c-4.05 0-5.13 1.75-5.07 5.44.14 8.4.06 16.89.06 25.4Zm130.53 235.15a64.15 64.15 0 0 0 17.88-28.73v-68.86c-1.52 1.25-3.15 2.4-4.54 3.78Q333.07 443 281.41 494.79c-1.39 1.39-2.53 3-3.79 4.54h66.83c9.82-3.14 19.22-6.97 27-14.18ZM107.64.09C90.19.07 72.75 0 55.31.1 26.76.23.75 25.51.19 54c-.36 17.94-.1 35.89-.07 53.84a28 28 0 0 0 .56 4.07L112.19.32c-1.31-.07-2.93-.23-4.55-.23Zm73 250.39c0 2.16-.05 4.32 0 6.47.4 15.87-3.36 14.47 15.42 13.82 12.81-.44 19.11-8.18 19-21.34-.1-11.66-7-18.8-19.31-19.66-3.46-.25-7 0-10.44-.08s-4.74 1.57-4.69 4.87c.1 5.3 0 10.61 0 15.92Zm-64.86-3.23c-.34 4.21 1.32 6.18 5.7 5.87 3.13-.23 6.31.09 9.44-.14 8.65-.63 13.13-7.8 10.14-15.93-2.25-6.12-7.51-7.17-12.91-7.28-14.31-.28-12.15-.93-12.34 11.52-.03 1.99.11 3.99-.06 5.96Z" data-name="Calque 1"/></g></svg>