<svg xmlns="http://www.w3.org/2000/svg" viewBox="0 0 390 499.34"><g data-name="Calque 2"><path d="M390 42.91v323.36c-1.8 1.72-3.64 3.41-5.4 5.17Q323 433 261.38 494.52a14.73 14.73 0 0 1-11.38 4.82q-97.41-.19-194.82-.08c-14 0-25.81-5.41-36.21-14.47C8.91 476 3.43 464.67 0 452.1V133.73q32.7-32.47 65.39-64.95Q99.77 34.46 134 0h210c23.25 5.86 38.74 20 46 42.91ZM215.21 249.64v26.94c0 3.05 1.05 4.76 4.35 4.59 1.66-.08 3.33-.07 5 0 2.95.11 4.28-1.25 4.2-4.19s.15-5.66 0-8.48c-.21-3.92 1.63-5.37 5.39-5.25 4 .13 8 .17 12-.08 13.14-.85 22.08-9.51 22.52-21.61.4-11-7.83-20.34-20.46-21.75-9.22-1-18.6-.61-27.9-1-4.07-.18-5.17 1.71-5.1 5.41.1 8.46 0 16.94 0 25.42Zm-61.27-20.3.74 1.77c-3.17 4-6.31 8-9.52 11.92-7.13 8.77-14.57 17.32-21.26 26.41-1.9 2.56-1.9 6.66-1.9 10.07 0 .54 4.57 1.56 7 1.59 13.48.16 27 0 40.45.12 3.73 0 5.43-1.07 5.46-5.09s-1.47-5.63-5.57-5.53c-7.82.21-15.65.09-23.47 0-1.88 0-3.75-.27-6.49-.48 1.34-2.06 2-3.35 2.93-4.46 6.29-7.74 12.64-15.44 19-23.16 3.68-4.51 7.71-8.79 10.81-13.67 1.4-2.21 1.43-5.72.93-8.43-.16-.88-4-1.52-6.12-1.55-13-.14-26 0-39-.11-3.76 0-6 .75-5.94 5.18 0 4.19 1.73 5.65 5.72 5.42 3.32-.2 6.66 0 10 0Zm44.8 20.66c0-8.48-.27-17 .09-25.42.24-5.34-2.45-5.94-6.73-5.83-4 .1-7.09-.07-7 5.59q.43 25.66 0 51.33c-.09 5.67 3.06 5.47 7 5.58 4.29.12 7-.51 6.72-5.84-.35-8.41-.08-16.94-.08-25.41ZM4.45 109.77Q58 56.46 111.43 3c.93-.93 1.72-2 2.57-3H47C36.72 3 27 6.9 18.91 14.27 8.8 23.44 3 34.82 0 47.9v64.87a27.29 27.29 0 0 0 4.45-3Zm381.34 280.9Q334 442.27 282.33 493.92c-1.24 1.23-2.36 2.59-4.42 4.88 3.13.2 5 .44 6.89.44h49.94c23.84 0 45.8-15.8 53.59-38.47.54-1.57 1.11-3.13 1.67-4.69v-68.85a53.9 53.9 0 0 0-4.21 3.44ZM229 249.16c.2 1.26 1.77 3.24 2.77 3.28 5.11.18 10.43.58 15.29-.63 2.81-.7 5.88-3.88 7.12-6.7 2.94-6.7-1.07-13.23-8.38-15-13.76-3.4-17-1.36-16.93 10.66a56.24 56.24 0 0 0 .13 8.39Z" data-name="Calque 1"/></g></svg>