<svg xmlns="http://www.w3.org/2000/svg" viewBox="0 0 389.32 499.33"><g data-name="Calque 2"><path d="M389.32 43.24V366.6q-21.69 21.58-43.39 43.19-44.67 44.73-89.27 89.54H46.2c-1.56-.55-3.12-1.13-4.7-1.63C16 489.59.09 468 .09 441.21Q.06 291.3 0 141.41A14.74 14.74 0 0 1 4.6 130Q67.48 67.32 130.11 4.41A13.61 13.61 0 0 1 140.62 0q97.22.17 194.44.05a52.24 52.24 0 0 1 27.83 8.19c13.34 8.19 21.85 20.14 26.43 35Zm-212.7 203.23 1.48-.51c.88 1.31 1.81 2.59 2.64 3.93 4.17 6.8 8.29 13.63 12.47 20.42 3.6 5.84 7.23 5.89 10.73.13 4.58-7.52 9.07-15.11 13.64-22.63a40 40 0 0 1 3.12-3.75c.13 3.09.27 4.87.28 6.64 0 8.81.12 17.62 0 26.43-.07 4.62 2.94 4.43 6 4.38s6.55.64 6.53-4.41c-.1-17.78 0-35.57-.16-53.36 0-1.47-1.09-3.71-2.28-4.24-4.1-1.83-8.63 0-11 3.95-6 10-11.87 20-17.85 30-.88 1.47-2 2.8-3.48 4.82-1.43-2-2.43-3.28-3.26-4.64-3.79-6.25-7.53-12.54-11.31-18.8-2.66-4.41-4.77-9.36-8.25-13-1.91-2-6.14-2-9.38-2.32-.68-.07-2.33 2.31-2.34 3.57q-.23 27.18 0 54.36a4.77 4.77 0 0 0 1.84 3.63c5.5 2.89 10.55-.21 10.56-6.28q.04-14.16.02-28.32Zm-50.1-6.22c-3.61-5-6.74-9.21-9.7-13.51-5.67-8.2-9.33-9.54-19.52-6.63 1.46 2.12 2.81 4.18 4.23 6.18 4.72 6.63 9.37 13.31 14.23 19.83 2 2.72 1.94 4.93-.13 7.56-3.28 4.17-6.33 8.53-9.44 12.83-3.35 4.64-6.65 9.32-10.12 14.19 11.49 2.48 13.82 1.62 19.8-7 1.23-1.77 2.4-3.59 3.62-5.36 1.93-2.79 3.87-5.56 6.41-9.19 4.41 6.18 8.17 11.38 11.86 16.63 4.19 6 10.85 7.7 18.2 4.34-6.46-8.91-12.79-17.82-19.34-26.56-2.25-3-2.32-5.42 0-8.44 5.11-6.74 10-13.67 14.91-20.56 1-1.38 1.78-2.91 3-4.87-7.6-1-13.85-1.81-17.82 5.92-2.6 4.92-6.37 9.2-10.19 14.64ZM249.89 250c0 8.82.08 17.63 0 26.44 0 3.48 1 5.2 4.83 5.16q17.44-.21 34.89 0c3.76 0 4.86-1.61 4.89-5.13 0-3.68-1-5.58-5.09-5.46-6.47.19-13 .07-19.44 0-6.12-.05-6.51-.43-6.53-6.51 0-13.47-.16-26.94.05-40.4.08-5.17-3-5-6.53-4.93s-7.24-.8-7.09 4.88c.19 8.61.02 17.26.02 25.95Zm134.89 141.34Q333.06 443 281.4 494.79c-1.39 1.39-2.53 3-3.79 4.54h66.83c9.82-3.14 19.22-7 27-14.18a64.15 64.15 0 0 0 17.88-28.73v-68.86c-1.52 1.25-3.15 2.44-4.54 3.78ZM107.66.09C90.22.07 72.77 0 55.33.1 26.34.23.48 25.87.13 55c-.2 17.45-.06 34.9 0 52.35a34.64 34.64 0 0 0 .54 4.57C37.88 74.61 74.9 37.56 112.11.33c-1.22-.07-2.84-.24-4.45-.24Z" data-name="Calque 1"/></g></svg>