<svg xmlns="http://www.w3.org/2000/svg" viewBox="0 0 1000 1000" style="enable-background:new 0 0 1000 1000" xml:space="preserve"><path d="M469.9 298.6c142.9 0 285.8-.1 428.6 0 45.2 0 85.4 29 98.3 71 2 6.6 2.6 13.8 2.6 20.8.1 127.1-.9 254.2.7 381.3.5 40.2-31.6 79.3-64.1 89.8-9.4 3-19.6 5.1-29.4 5.1-270.7.3-541.3.2-812 .2-50.2 0-94.4-44.3-94.4-94.7-.1-144.9 0-289.8 0-434.7 0-25.7 13-38.8 39.1-38.8 130.1-.1 260.3 0 390.4 0h40.2zM344.2 185.5c-18.6-32.2-46.3-51.8-84.8-52.1-56-.4-112-.4-168 .1-43.2.4-87.9 43.1-91.2 86.1-1 13.7.2 15.2 13.8 15.2h338c3.5 0 7-.4 12.8-.8-7.2-17.4-12.1-34-20.6-48.5z"/></svg>