<svg xmlns="http://www.w3.org/2000/svg" viewBox="0 0 1000 1000" style="enable-background:new 0 0 1000 1000" xml:space="preserve"><path d="M469.9 225.6c142.9 0 285.8-.1 428.6 0 45.2 0 85.4 39.5 98.3 96.8 2 9 2.6 18.9 2.6 28.3.1 173.2-.9 346.5.7 519.7.5 54.9-31.6 108.1-64.1 122.3-9.4 4.1-19.6 6.9-29.4 6.9-270.7.4-541.3.3-812 .3C44.4 999.9.2 939.5.2 870.8.1 673.3.2 475.9.2 278.4c0-35.1 13-52.9 39.1-52.9 130.1-.1 260.3 0 390.4 0 13.3.1 26.7.1 40.2.1zM344.2 71.4C325.6 27.5 297.9.8 259.4.4c-56-.5-112-.6-168 .1C48.2 1 3.5 59.2.3 117.9c-1 18.7.2 20.7 13.8 20.7h338c3.5 0 7-.6 12.8-1.1-7.3-23.7-12.2-46.3-20.7-66.1z"/></svg>