<svg xmlns="http://www.w3.org/2000/svg" viewBox="0 0 1000 1000" style="enable-background:new 0 0 1000 1000" xml:space="preserve"><path d="M112.8 657.3c-8 47.3-15.8 94.6-24.2 141.8-5.8 32.8-25.9 48.9-53.4 44.1C9.6 838.7-5.6 816.7 2 785.8 25.2 690.7 19 592.3 36.8 497 47 442.4 63.3 388.9 76.6 334.9c5.8-23.5 11.5-47.2 33.9-61.2 11.7-7.3 6-16.8 5.3-26.1-2.7-38 17.3-67.9 51.5-77.6 29.9-8.4 63 5.2 78.9 32.5 17.3 29.7 10.6 67-18.4 91-10.4 8.6-18.8 14.6-8.7 28.5 11.4 15.7 2.1 46.6 35.9 46.1 61.2-.9 122.4.1 183.5-1.1 22.8-.4 31.7 7.8 29.8 30.7-1.5 18.3-.3 36.9-.3 58.7 30-13.8 57.4-22.4 78.1 8 11.7 17.2 10.9 35.6-2.1 51.8-20.5 25.6-45.3 20.7-69.6 6.7-9.1 6.2-6.1 14.5-6.3 21.4-1.2 44.5-1.1 44.5 42.9 44.9 4.4 0 8.8-.1 13.1.1 33.8 1.9 43.7 17.5 27.8 46.5-7 12.7-12.4 23.7 1.1 34.4 7.6 6.1 16.9 6 24.4-.1 13.4-10.9 7.5-21.7.4-34.3-15.2-27.2-5.4-43.9 25.2-46.5 88.8-7.6 88.8-7.6 88.8 79.5 0 48.1-1 96.2.4 144.2.7 23.5-6.1 33-31.2 32.8-131.1-1-262.2-.9-393.3-.1-22.7.1-30.4-6.8-30.1-30 1.1-89.6.5-179.2.3-268.8 0-21.1-30.1-54.5-50.6-54.6-16.8 0-13.8 15.4-12.4 24.4 3.3 21.5 7.9 43.1 14.8 63.7 23.5 69.6 24.4 141.6 25.8 213.7.6 27.9-10.6 46.9-40.3 49.5C148.1 846 129.9 828 128 797c-2.9-46.4-5-92.8-7.5-139.2-2.4-.3-5.1-.4-7.7-.5zm422.1-43.7c-49.9 0-94.6.3-139.3-.1-35.6-.4-44.5-15.3-27.3-47.3 6.4-11.9 10-22-1.3-32-8.7-7.7-17.9-7.4-26.4.6-11.1 10.4-6.9 20.1-.3 32 17.2 31 7.3 46.2-28.9 46.9-7.6.2-15.4 1-22.9-.1-22.1-3.2-28.2 6.5-27.7 27.6 1.2 51.3 1.3 102.7 0 154-.5 21.7 6.8 28.4 28.2 27.6 41.4-1.5 83-1.5 124.5 0 21.8.8 33.1-4.2 30.2-28.5-1.2-10.1-3.7-26 10.7-26.7 18.3-1 14.1 16.6 13.3 27.2-1.4 21.1 5.8 28.7 27.7 28 49.1-1.5 98.3-1.1 147.4-.1 18.6.4 25-6 24.6-24.5-.9-41.5-.2-83-.3-124.5 0-62.3-.1-62.3-63.4-59.2-1.5.1-3 2.3-6 4.8 15.1 23.7 20.4 48.8-4.2 69.7-17.9 15.3-39 15-57-.2-25.1-21.4-17.6-46.5-1.6-75.2zM238.3 409.9c-25.2-26.5-30.5-63.7-51.4-91.1-26.7-35.1-70.5-34.8-79.2-1.8C86 399.1 55.9 479.9 51.6 565.3 48 637.5 41.2 708.8 26.8 779.6c-3.3 16.3-8.6 35.8 14.8 39.2 21.3 3 21.8-17.4 24.5-31.9 12.5-67.6 25.9-135 23.8-204.4-.3-10.2-3.2-25 10.7-27.6 17.2-3.2 16.7 14.3 20.1 24.5 19.3 58.3 30.4 117.7 30.5 179.7 0 20.3-12.1 59.3 21.9 58 35.1-1.4 16.7-38.1 17.2-59.3 1.6-64.8-10-127.9-28.3-190-7.6-25.9-17.2-51.9-7.9-79.8 2.4-7.2 1.9-15.4-6.6-19.9-27.3-14.3-31.4-40.3-32.7-66.9-.6-11.8-11.4-31.3 6.2-33.8 20.5-2.9 13 20.4 17.4 32.2 5.2 13.8-.7 32.4 14.3 41.9 32.2 20.4 65.1 39.9 98.2 58.9 10.3 5.9 21.6 5.6 28.2-6.7 6.4-12.1.6-21.1-9.6-27.6-17.5-11-34.5-23.5-53.3-31.9-30.6-13.8-43.4-36.9-45.1-69.1-.5-10-5-21.9 7.8-24.4 13.3-2.6 14.2 10.3 15.6 20 3.9 24.4 10.1 47 43.8 49.2zm149.8 175.4c55 9.4 55 9.3 55.2-42.2 0-3.3-.1-6.5 0-9.8.8-37.4 15.5-46.9 49.2-30.1 12.2 6.1 22.7 8.9 32.1-2.4 6.1-7.4 6.1-16.8 0-24.2-9.4-11.4-19.9-8.4-32-2.2-33.2 16.9-48.4 7.1-49.2-30.2-.2-8.7-1-17.6.1-26.2 2.9-22.2-7.2-27.8-28-27.2-42.5 1.2-85.1 0-127.7.3-24.1.2-36.7 21.6-23.5 40.6 4.7 6.7 13.8 10.3 20.8 15.4 30.4 22.5 30.2 62.5-3.9 76.1-29.6 11.8-20.2 33-19.1 51 1.6 24.1 23.1 12.2 36.2 14.4 6.6 1.1 15.2 3.2 21.4-5.3-13.1-24.6-18.6-49.5 7.6-69.6 16.4-12.6 34.9-13.2 51.8-1.2 28.6 20.4 21 46.7 9 72.8zM189.4 192.6c-26-2-47.2 16-49.1 41.6-1.9 25.2 16.7 47.5 41.6 49.8 23.8 2.2 47.5-18 49.8-42.3 2.4-24.4-17.3-47.2-42.3-49.1zm639.2 212.1c-9.9-3-15.3 2-20.2 5.5-28.1 19.9-55.5 18.6-85.8 3.1-24.6-12.6-50.1-27.7-82.7-19 8.6 24.8 18.5 50.6-9.3 69.4-16 10.8-33.6 10.7-48.9-1.1-24.7-19.1-19.6-43.2-3.9-70.5h-49.6c-3.3 0-6.6-.1-9.8-.1-10.2 0-22.5-.9-22.6-13.3-.2-30-10.1-61.8 6.2-89.4 8.5-14.4 25-9.7 37.9-.9 10.2 7 20 8.9 28.9-1.6 5.8-6.8 5.2-14.3-.4-20.8-9.2-10.6-18.2-6.2-29-.9-30.3 14.8-45.1 5.6-44.8-28.7.7-83.4-11.5-71.3 69.9-72.2 42.6-.5 85.2.7 127.8-.3 23.3-.5 35.4 7.2 32.6 32.1-.9 7.5-1.2 15.5.1 22.9 3.1 17-9.7 37.9 11.2 50.7 26.6 16.3 55.3 27.8 86.8 22.3 21.9-3.8 8.8-15.9 3.2-25.9-17.9-32.5-14-66.5 9.9-90.3 22.5-22.5 56.3-27.5 84.6-12.5 34 18 47.9 58.5 30 95.7-6.5 13.5-5.9 21.5 1.1 34.7 14.7 27.5 10.5 59.7 14.6 89.8 12.5 92.1 16.4 184.6 15.7 277.6-.3 40.9 10.7 82 16.7 123 5 34.1-7.1 55.9-33.9 60.4-27.3 4.5-45.5-10.9-51.3-45.6-8.6-51.1-16.3-102.5-24.9-157.2-24.1 39.3-24.4 81.1-31.7 121-2.5 14-3.7 28.2-6.5 42.1-5.8 29.2-24.2 43.2-50.1 39.3-24.8-3.8-39.4-24.6-35.1-53.6 10.3-69 16.9-138.9 44.9-203.9 25.6-59.5 21-120.8 18.4-181.8zm129.3 206.2c3.2-101.8-13.6-195.7-22.9-290.1-1.3-12.9-6.5-28.3-19.3-25.6-25.8 5.5-54.8-3.3-77.5 18.5-44.6 42.8-93.4 55.7-148.4 17.6-12-8.4-26.6-8.8-33.3 6.7-7.3 16.7 7 22.4 19 28.3 84.5 42 84.4 42 168.5-5.6 3.8-2.2 7.5-4.5 11.3-6.6 6.5-3.5 12.8-3.6 17.4 2.8 4.9 6.9 1.6 13.3-4.4 16.6-14.5 7.9-14.4 21-13.2 34.1 7.9 84.6-10.3 164.4-39.9 243.1-17 45.2-17.3 94.3-24.9 141.6-2.1 13.1.4 25.6 15.6 27.5 15.3 1.9 19.9-10.5 22.3-22.9 1-5.3 1.5-10.8 2-16.3 6.2-72.5 27.2-141.1 54.3-208.1 3.1-7.6 4.7-18.7 16.4-17.3 11.6 1.4 11.1 12 11.8 20.5 1.3 15.2 2.4 30.5 2.5 45.8.1 58.3 13.9 114.8 21.5 172.1 1.8 13.2 5.9 28.7 22.7 26.7 19.5-2.3 17-19.3 15.5-33.6-.7-6.5-1.6-13-2.8-19.4-10.2-54-19.7-107.8-14.2-156.4zM519.3 306.4c-.8 11.8-.7 19.4-1.9 26.8-4.6 28.6 6.5 41.1 35.8 35.9 4.2-.7 8.7-.2 13.1-.1 34.8.9 43.3 13.6 28.4 44.7-5.3 11-9.1 19.9 1.6 28.9 6.8 5.7 14 5.8 20.8.3 10.9-8.7 8.2-17.6 2.2-28.6-9.7-18 12.1-93.6 29.1-104.7 4.4-2.9 10.4-6.7 14.8-5.9 45.5 8.5 36.4-23.5 36.6-48.6.1-14.2-.7-28.4.2-42.6 1.1-17.5-3.9-25.7-23.6-25.2-45.8 1.2-91.7.9-137.6.1-15.3-.2-22.7 4.8-21.4 20.5 1 11.6-2.8 23.7 5 37.7 23.3-16.1 47.2-18.6 66 5.5 12.6 16.2 12.5 35.3-.7 51.5-18.7 23.3-41.5 19.1-68.4 3.8zM934.4 226c-.3-26.1-21.9-47-48.3-46.7-26 .3-48 22.4-47.5 47.9.4 25.6 22.8 47.1 48.7 46.7 26.3-.4 47.4-21.7 47.1-47.9zm-206.6 68.6c-7.7 18.9.9 26.9 16.3 33.2 16.1 6.6 28.1 5.5 38.8-12.8-21.1-1.2-35-15.4-55.1-20.4z"/></svg>