<svg xmlns="http://www.w3.org/2000/svg" viewBox="0 0 1000 1000" style="enable-background:new 0 0 1000 1000" xml:space="preserve"><path d="M132.9 80.5c-6.4-17.2-1.8-29.8 16.5-34.5 39.3-10.1 78.5-21.3 118.4-28.3 24.7-4.3 49.5 4.9 68 21.5 27.4 24.6 55.8 26.7 90 17.3 51.9-14.2 105.1-11.3 156.9 2.2 27.3 7.1 49.9 4.7 71.8-13.8C687 17.5 724.7 9.7 764.9 24.2c39 14.1 88.1 6.3 113.7 51.6 2.5 4.5 15.1 3.3 23.1 4.7 80.2 14.6 118.6 83.3 87.6 157.9-5.3 12.7-13.9 23.8.6 35.9 2.9 2.4 4.7 6.8 5.6 10.6 10 43.1-44.2 159.7-86.5 177.8-26.9 11.6-39 28.4-45.1 56-15.1 67.9-50.4 125.5-99.1 174.4-15.8 15.8-22.8 31.2-19.6 53.8 5 35.6-5.1 68.9-32.9 91.8-34.1 28.1-47.9 85.6-108.3 77.3-2.1-.3-5 5.9-7.7 8.9-82 89.9-166 75.3-209.2-36.5l-.2-.3c.6-28 7.1-54.4 21.7-78.6 3.4-6.2 6.7-12.5 10.1-18.7 38.6-21.7 78.1-38.3 123-18.6 18.1 8 35.3 27.7 52.5-3.9 9.9-18.3 34.4-29.7 30.5-54.5-4.9-31.1.7-62.1-1.9-92.9-2.1-25.3 6.9-42.7 31.6-49.3 27-7.2 48.3 1.3 60.3 27.5 8.8 19.2 16.2 39.1 25.4 61.8 28.5-25.6 47.1-53.5 61.9-83.8 10-20.5 29.8-45.4 19.1-63.3-10.2-17-38.9-2.2-59.4.4-5.3.7-11 .7-16.1-.5-24.4-5.4-36-23.2-40.4-45.7-4-20.3 7.9-32.6 25-41.6 22.6-12 43.8-26.8 67-37.2 23.9-10.7 40.6-24.7 46.4-51.5 3.6-16.7 8.4-35.5 32-35.8 18.5 46.1-1.2 89.1-53.5 117.1-11.5 6.1-27 9.2-19 28.6 7.9 19.1 20.4 11.9 33.3 7.1 85.8-32 115.5-74.6 117.4-172.2-25 13.4-50.6 21.2-78.1 19.4-59.6-17.6-96.1-53.6-94.4-119.6.2-6.6 2.6-16.6-5.2-17.2-30-2.3-60.6-24.2-89.9-1.6-24.8 19.2-53.7 30.9-79.7 47.7-20.3 13.1-38.3 12.8-54.5-5-15.8-17.3-23-37.1-9.8-59.3 6.2-10.4 14.8-19.4 21-29.8 8.1-13.7 5.2-23.3-12.4-25.1-35.1-3.6-70.3-3.6-105.4.2-18 1.9-19.7 11.6-11.1 25.1 5.1 7.9 11.5 15 17 22.7 16.8 23.5 13.6 45.8-4.9 66.4-18.1 20.2-36.7 15.4-58 3-50.2-29.2-97.4-70.5-163.1-48.6-2 .7-5-1.8-7.5-2.8-1.3-2.1-2.7-4.2-4-6.3.3-18.8 13.9-24.5 28.6-29 34.9-10.6 68.7-14.2 98.8 13.1 9.7 8.8 21.2 12.2 32.3 1.1 6.4-6.4 8-12.6 2.4-21.2-21.5-33.6-93.4-62.9-135.9-54.4-34.2 6.9-67 20.4-102.4 22.2-1.5-1.1-3.1-2-4.7-3zm755.9 179.8c40.6.9 73.8-30.3 73.9-69.4.1-38.5-34.1-73.4-72-73.2-37.6.1-69 31.2-70.4 69.5-1.7 42.9 25.8 72.2 68.5 73.1zM497.3 801.1c-38.9.8-69.5 34.4-68.3 75.1 1.1 39.2 31.1 67.7 70.7 67.3 40.1-.4 72.3-32.9 71.6-72.1-.8-39.4-34.2-71.1-74-70.3zM846.4 85.3C718.4 46 703 47.7 635.8 104.5c-10.7 9.1-22.4 16.9-11.4 33 12.2 17.9 24.1 5.8 33.9-1.9 23.9-18.7 51-30.4 78.9-16.6 41.5 20.5 71.5 8.6 98.3-24 2.4-3 5.7-5.2 10.9-9.7zM613.7 882.2c62.9-47.6 113-101.1 87.5-189.6-3.4-11.7-3.9-25.1-21.5-23.5-17.5 1.5-18 13.4-15.8 26.4 5.4 31.9-1.7 62.3-27.6 80.3-43.3 29.8-37.1 66.3-22.6 106.4zm-195-91.5c-3.4 6.2-6.7 12.5-10.1 18.7-50.2-19.2-72.3-51.5-73-107.1-.2-13.3 2.8-28.1-15.6-32.5-10.8-2.6-18.3-.1-20.3 12.5-8.9 56.4-20.6 112.8 34.9 155.3 19.1 14.7 35 33.4 52.4 50.3l.2.3c1.4 32.2-13.8 39.4-35.6 18.1-49.6-48.4-111.4-91.1-97.3-175.5 2.8-16.6-9.4-27.3-20.1-37.9-51.3-50.9-85.8-111.2-101.6-181.7-4.1-18.3-12.5-31.5-29.2-41.2C28.2 426.2-3.8 348.6 16.7 264.5c1.4-5.6-2.2-12.7-4.4-18.7-37-99.9 11.5-166.5 120.7-165.3 1.6 1 3.2 1.9 4.7 2.8 35.1 11.8 58.5 36.9 76.2 68.2 1.3 2.1 2.7 4.2 4 6.3 4.2 58.7-11 107.5-68.9 134.4-4.4 2.1-12.7 4.6-8 11.1 18.6 25.4 11.2 67 48.8 80.3 25.8 9.1 47.1 26 70.9 38.4 25.2 13.2 39.7 29.3 28.7 57.9-10.7 27.7-31.7 38.8-61.6 33.2-17.8-3.3-36-4.9-56.7-7.6 15.9 62.6 41.9 112.7 87.3 156.3 9-21.9 16.2-39.1 23.1-56.5 10.3-25.7 28.5-39.8 56.8-35.2 29.8 4.9 37 24.7 36.9 53.3-.6 59.2-11.6 122.2 43.5 167.3zM108.8 260.3c40-.4 72.3-33.1 71.3-72.2-1-36.1-34.8-69.7-70.8-70.3-39.1-.7-71.1 31.7-71.5 72.4-.5 42.6 27.7 70.4 71 70.1zm-65.7 26.1c9.6 78 28 146.6 115.4 167.1 12.6 3 26.3 13.1 34.8-5.2 8.2-17.7-4.9-24.8-18-29.5-31-11.1-51.8-34-54.4-64.8-4.1-48.2-34.6-60.9-77.8-67.6z"/></svg>