<svg xmlns="http://www.w3.org/2000/svg" viewBox="0 0 1000 1000" style="enable-background:new 0 0 1000 1000" xml:space="preserve"><path d="M515.8 496.1V120.7c0-8.4 1-17-.1-25.3-6.8-51 37.3-83.7 88.6-60.5C649 55.2 696 70.2 742 87.6c65.7 24.9 131.5 49.5 197 74.9 53.4 20.8 60.9 31.8 60.9 87 .1 167.3.1 334.6 0 501.9 0 53.9-7.4 66.1-57.2 85.3-111.4 43-224.1 82.9-334.6 128.1-56.4 23.1-94.8-6.7-93.4-63.8 3.3-134.9 1.1-269.9 1.1-404.9zm37.2 2.4V874c0 9.8-.5 19.7.3 29.5 2.2 29.1 8.7 33.2 38 24.8 5.4-1.5 10.7-3.4 16-5.4 107.8-40.9 215.3-82.5 323.4-122.2 26.5-9.7 32.1-26.6 32-51.6-.6-166-.1-331.9-.4-497.9-.1-37.8-2.3-39.8-40-54-64.4-24.3-128.9-48.6-193.3-72.9-46-17.4-91.8-35.6-138.2-51.7-28.7-9.9-35.5-4.4-37.6 25.1-.7 9.8-.2 19.7-.2 29.5v371.3zM237.7 660.2c0 52-1.1 104.1.5 156 1.6 52.2 33.1 74.3 81.8 57.8 42.5-14.4 84.3-31.3 126.1-47.7 12.8-5 29.7-10.8 20.9-29.4-8.1-17.3-23.5-10.2-36.8-5.2-32.8 12.4-65.5 25.3-98.6 37.3-48.9 17.7-51.3 15.9-51.4-37.3-.1-194-.1-388 0-582 0-11.2 0-22.6 1.5-33.6 1.6-11.7 9.9-17 21.2-14.5 9.5 2.1 18.6 6.1 27.8 9.5 36.8 13.9 73.5 28.1 110.4 41.6 12.1 4.5 23 1.2 27.3-11.8 3.8-11.6-4.3-18.9-13.9-22.8-49.5-19.9-98.2-42.4-150-55.6-31-7.9-55.8 9.1-63.6 40.3-3.3 13.4-3.2 27.8-3.3 41.8-.3 98.4-.1 196.8-.1 295.2.2 53.6.2 107 .2 160.4zM.2 721.2c0 11.2-.6 22.6.7 33.7 3.5 29.7 20.8 48.6 49.5 46.9 48.5-2.9 91.2-26 134.3-46.3 6.7-3.1 9.7-10.6 7.5-18-2.7-9-10.1-14-19.2-13.2-8.2.8-16.4 3.7-24.2 6.5-22.5 8.1-44.7 16.8-67.1 25.1-36.1 13.4-43.7 9.3-43.9-27.7-.5-151.9-.5-303.8 0-455.7.1-36.5 8.3-41.2 44.1-28.6 27.9 9.8 55.4 20.4 83.2 30.4 10.2 3.7 20.2 2.8 25.6-7.7 6.9-13.6-2.1-21.5-13.1-26.1-29.8-12.5-59.7-24.9-90.1-35.7-57.4-20.4-86.7 0-87.1 60.7-.5 77.4-.1 154.7-.1 232.1-.1 74.5-.2 149-.1 223.6zm333.7-270.4c18.6 1.6 19.4-16.5 22.1-30.1 7.1-36.3 7-36.4 51.6-41 10-1 20.4-1 24.5-12.3 4.2-11.5-2.6-18.5-12-23.6-2.5-1.4-5.4-2.1-7.5-3.8-26.5-21.8-25.5-38.7 4.3-56 10.7-6.2 20.1-12.3 14.8-25.7-4.7-11.8-15.9-15.5-27.9-14.4-11.4 1.1-21.8 5.7-30.2 13.7-15.4 14.7-21.2 33.6-18.2 53.8 2.9 19.8-.9 33.9-17.7 46.7-17.6 13.5-23.3 34.4-23.6 57.1.9 14.7-.7 33.8 19.8 35.6zM83.6 462c16.2.8 19.1-13.7 20.4-26.7 1.5-15 3.5-28.6 24.2-25.3 13.2 2.2 26.5 1.1 32.3-12.8 6.4-15.6-7.7-21.4-16.9-29.7-15.3-13.9-21.7-27.8 4.9-36.5 11.2-3.7 16.4-11.4 12.2-22.4-4.5-12-15.3-16.6-27.3-14.7-18.1 2.8-33.8 14.4-35.6 31.3-3.3 31.2-14 58.4-29.9 84.7-3.4 5.7-3.3 13.5-4.6 19.7 2 14.7 1.7 31.5 20.3 32.4zm262.1 189.7c-11.3 2.7-21.3 10.3-18.5 23.8 2.8 13.3 14.4 16.6 26.3 14 32.6-6.9 65.1-14.5 97.6-22.2 11.7-2.8 22.2-8.8 19.2-22.6-2.9-13.3-15-14.7-29.3-13.8-30.2 6.5-62.9 13-95.3 20.8zm.9-132.7c-10 2.7-19.5 6.5-19.6 18.5-.1 12.2 9.2 16.9 19.6 17.9 36.7 3.3 72.6-5.8 108.8-9.4 8.6-.9 14.4-9.1 13.4-18.7-1-9.9-8.5-14.4-17.5-14.9-12.6-.7-25.2-.2-37.9-.2-22.4 0-44.8 1-66.8 6.8zm-171 114.9c9.7-2.5 18.6-8.7 16.8-20.5-2.1-14-13.3-17.5-25.1-15.3-25.9 4.9-51.7 10.6-77.3 16.8-9.8 2.4-18.5 8.4-16.5 20.4 2.3 13.7 12.6 17 32.5 15.2 18.4-4.3 44.1-9.9 69.6-16.6zm-51.4-84.5c16.5-1.6 33.2-2.6 49.6-5.1 10-1.5 19.7-7.1 19.6-18.4-.2-13.6-11.9-19.6-23.2-19.1-27.6 1.1-55.2 4-82.6 7.5-8.5 1.1-14.9 8.3-13.8 18 1.1 9.5 8.1 14.6 17.1 15.2 11 .8 22.2.2 33.3.2v1.7zM797.5 283c-10 22.5 1.8 40.1 19.6 58.8 21.3 22.4 15.9 52.5 13.1 80.3-.9 8.7-7.3 15.1-17.5 14.5-7.9-.4-12.8-5.2-15.3-12.2-1.4-3.9-1.7-8.2-2.4-12.3-8.3-55.4-8.3-55.7-61.8-63.9-13.8-2.1-28-2.9-41.9-2.7-35 .5-43.3 9-46.4 45.1-1.5 17.3 4.4 39.6-21 44.1-15.4 2.7-23.1-21.3-19.4-52.5 3.5-29.9 15.4-54.8 42.9-68 15.9-7.7 15.6-16.9 11-30.2-2.2-6.6-4.1-13.6-4.6-20.5-2.1-30.1 15.3-60 41.7-72.4 25.1-11.9 51.3-5 75.6 19.8 19 19.5 27 40.3 26.4 72.1zm-75-55.4c-20.2-.1-26.2 12.5-26.9 29.9-1 24 16.7 49.7 35.7 49.5 18.9-.1 26.8-13 28.2-30.1 1.7-22.1-18-47.9-37-49.3zm100.2 427.3c-54.7 11.8-109.6 22.7-164.1 35.4-14.8 3.4-38.7 4.1-32.7 28.4 5.2 20.9 24.1 12.7 39 9.5 38.3-8.3 76.6-16.4 114.9-24.6 39.6-8.6 79.3-17 118.8-26.2 11.3-2.6 22.4-8.8 20-22.7-2.3-13.7-14.3-15.4-28.8-15-20.7 4.7-43.9 10.2-67.1 15.2zm-3.6-100.2c26.5-1.7 53-4.5 79.4-7.6 10.1-1.2 19.8-5.7 20.1-17.7.3-12.3-9-16.2-19.5-17.5-4.2-.5-8.4-.5-12.6-.6-73-.6-145.4 8.7-218 13.4-15.7 1-44.5-3.4-43.4 21.3 1.3 29.4 30.3 14.6 48.3 19.7 47.5-10 96.8-7.9 145.7-11z"/></svg>