<svg xmlns="http://www.w3.org/2000/svg" viewBox="0 0 1000 1000" style="enable-background:new 0 0 1000 1000" xml:space="preserve"><path d="M153.2 87.6c33.2 19 63.5 36.2 93.7 53.8 4.2 2.4 9.8 6.1 10.5 10 4.9 27.3 26.8 25.5 46.1 27.8 7.4.9 15.2.4 22.5-1 57.1-11.3 112 1.6 167.4 13 32.7 6.8 57.5 18.4 54.4 60.8 23.1-13 42.8-23.7 62.1-35.1 34.8-20.4 70.4-38.5 111.1-44 6-.8 15.5-2 16.9-5.7 19.5-48 71.9-49.1 107.2-80.5 8.1 11.3 15.3 19.7 20.7 29 41 70.4 81.9 141 122.5 211.7 17.6 30.6 17.2 31.2-12.9 49-19.4 11.5-38.9 23-58.6 33.9-6.4 3.5-15.5 9.5-20.3 7.4-22.9-10.1-31.5 7.6-42.1 20.1-6.3 7.5-10.9 17-14.3 26.3-20.7 57-60.2 101-101.2 143.3-13 13.5-32.4 20.9-53.5 34-.6 11.5-.7 29-2.5 46.2-1.6 16.1-4.1 32.2-7.6 48.1-4.4 20.1-23.3 40.4 2.3 59.2.2 35.1 1.1 70.2-.4 105.2-.2 4.5-12.5 12.1-19.3 12.2-90.3.9-180.7.6-271 1-16.1.1-22.3-6.7-22-22.6.7-27.6 0-55.2.3-82.8.1-6.1-.7-14.8 2.8-18 22.1-20.1 9.8-41.2-2-56.5-44.5-57.9-70.2-123.8-89.7-193-2.3-8.3-10.5-16.3-18.1-21.4-16.6-11.2-35.6-19-51.6-30.9-23.9-17.9-46.4-37.7-68.8-57.5-9.8-8.7-14.8-21.5-33.6-13.3-7.6 3.3-22.6-7.7-33-14.2C47.1 388 23.7 371.7 0 355.9c12.5-24.3 24.3-49 37.8-72.7 30.9-54.5 62.6-108.7 94.1-162.9 6.1-10.4 13.2-20.4 21.3-32.7zm159.9 429.9-9.6 3.3c1 10.6.1 21.9 3.3 31.8 17.2 52.4 33.6 104.9 69 149.4 12.7 16 21.5 37 26.3 57.1 4.6 18.9 12.6 24.1 30.7 23.7 45.2-1 90.4-.3 135.6-.3 72.2 0 72.5 0 86.4-71 2.9-14.7 4.6-29.9 4.7-44.8.5-89.2.4-178.3.3-267.5 0-16.1 2.2-37.9-19.8-38-22.7-.1-19.3 21.9-19.4 37.8-.3 36.4.5 72.9-.7 109.2-.2 7.1-6.6 19.4-11.2 20-13.8 1.6-13.9-10.8-14.1-20.9-.2-7.5-.1-15.1-.1-22.6 0-44 .9-87.9-.4-131.8-.6-19.5 9.9-45.8-20.2-53.4-15.8-4-21.6 10.7-21.6 51.2 0 50.2.1 100.5-.1 150.7 0 10.9 2.5 26.3-12.4 27.2-15.8.9-13.4-14.5-13.8-25.4-.3-7.5-.1-15.1-.1-22.6 0-56.5.2-113-.1-169.5-.1-27.4-8-40.8-22.6-41.1-14.9-.3-23.4 13.4-23.6 40.3-.4 55.3-.1 110.5-.1 165.8 0 8.8.4 17.6-.1 26.4-.6 10.6 3.3 25.1-12.8 25.7-3.3.1-8.4-15.3-10.6-24-1.8-7.1-.4-15-.4-22.5 0-52.7.2-105.5-.2-158.2-.2-27.8-7.5-39.7-23.1-40.8-16.4-1.2-23.2 9.9-24 38.7-.2 7.5 0 15.1 0 22.6 0 79.1.1 158.2 0 237.3 0 10 .1 20.2-1.4 30-.6 4.2-5.1 11-8 11.1-5.3.2-13.2-2.1-15.7-6.1-9.2-14.9-16.3-31.1-24.8-46.5-11.5-20.9-24-40.7-45.3-52.3zm69.1 33.1V507c0-62.7.2-125.4-.1-188.1-.1-19.9-1.4-39.8-2.3-64.5 45-1.7 95.5 8.3 146.8-20.2-13-7.2-21.4-14.6-31-16.6-53.9-11.6-107.7-22.3-163.7-16.3-22.9 2.5-47-2.1-70.1-6-12.9-2.2-20.9-1.6-27.9 10.6-33.9 59.7-68.4 119-101 175.6 32.7 55.9 83.2 84.1 133.6 112.5 10.1 5.7 18.6 8.9 31.1 2.3 17.7-9.4 34.2-1.4 47.3 12.2 10.9 11.3 21 23.5 37.3 42.1zm302.1-27.7c10.8-12.3 14.4-19 20.1-22.1 5.4-3 12.8-2.2 19.3-3 .1 5.8 2.2 12.5 0 17.1-8.8 17.9-20.5 34.6-28.2 53-4.7 11-4.1 24.3-6.6 41.5 11.7-4.9 17.7-5.6 20.4-8.9 30.2-36.6 62.9-71.6 88.8-111.1 23.1-35.1 33.4-78.5 72.9-102.4-35.9-62.2-70-120.7-103.5-179.5-6.6-11.7-14.6-14-27.7-12.5-61.6 7.3-111.5 39-166.9 74.9 36.7 9.6 47.8 33.4 49.5 63 4.9.9 8.4 1.9 12 2.2 36.1 3.8 46.9 14.1 49.5 48.2.9 12.5.5 25.1.5 37.7 0 30.9-.1 61.8-.1 101.9zm-32.1 284.4c-90.1 2.5-175.7-3.3-260.7 3v75.2h260.7v-78.2zm118-646.2c44.9 77.7 87.9 152 132 228.3 24.3-14.4 45.5-26.9 68.7-40.6-44.3-76.6-87.2-150.9-131.5-227.4-24.8 14.2-46 26.3-69.2 39.7zm-609.1-40c-44.9 77.7-87.6 151.7-131.8 228.3 25 14.2 46.3 26.2 69.5 39.3 44.5-77.1 87.3-151.4 131.2-227.4-23.4-13.6-43.6-25.4-68.9-40.2z"/></svg>