<svg xmlns="http://www.w3.org/2000/svg" viewBox="0 0 1000 1000" style="enable-background:new 0 0 1000 1000" xml:space="preserve"><path d="M901.1 253.5c0 42.7.2 85.4-.1 128.1-.1 11.2.8 24.2-12.7 28.8-11.2 3.8-20.6-3.8-24.9-12.4-34-67.7-94.3-67.2-156.9-62.4-17 1.3-34.2 1.3-51.2 0-27.7-2.1-46.2 2.6-58.3 33.9-12.8 33.2-45.8 43.6-81.4 43.4-86.8-.6-173.8 2.5-260.5-1.2-47.1-2-82.5 8.4-107.9 49.6-7.6 12.4-17.2 30.9-35.6 24.8-19-6.3-12.6-26.5-12.8-41.3-.8-76.8-1.4-153.7-.8-230.6.5-67.2 29.5-95.5 97-96.1 52.7-.5 105.4-.9 158 .3 22 .5 36.4-3.2 45.5-26.9 13-33.7 41.5-49.5 77.6-49.6 113.9-.2 227.8-.8 341.7.4 51.8.5 81.4 31.1 83 83.1 1.3 42.7.3 85.4.3 128.1zm-34.5 79.8c0-70.4 1.4-140.8-.7-211.1-.8-27-18.5-44.3-47.7-44.3-115.1-.1-230.1-.1-345.2.4-8.1 0-16.8 3-24.1 6.8-8.9 4.6-18 12.7-16.5 23 2 13.4 15.4 9.4 24.5 9.7 22.7.8 45.5.3 68.2 1.1 10.6.4 20.2 4.4 19.3 17.4-.7 10-8.9 14.6-17.7 15.1-18.4 1.2-37.1 3-55.3 1.3-36.2-3.5-45.6 12.6-45.6 46.9.2 101.2-1.1 101 101.1 100.6 24.8-.1 50 3.1 48.7-34.3-.3-8.2 4.8-16.6 15.4-17.3 10.4-.7 17.6 6.3 16.9 15-3.3 40.4 23.5 37.1 49.8 36.6 32.7-.6 65.3-.4 98-.1 38.8.4 80.9-9.6 110.9 33.2zm-731.9 89.6c28.3-48.5 64.5-46.9 102-46.4 91 1.3 182 .4 273.1.4 17.2 0 34.5.6 47.9-12.9 5.9-5.9 13.1-12.5 9.4-21.8-3.2-8.2-12-5.9-18.6-5.9-37-.3-74.1-2-110.9.2-34.4 2.1-49.8-9-47.3-45.5 2.4-35.4-.3-71.1.6-106.6.5-21.6-8.3-31.6-29.8-31.4-59.7.5-119.5.4-179.2 1.1-26.5.3-45.8 14.6-46.6 40.4-2 71.7-.6 143.5-.6 228.4zM758 484.7c54.4.8 97.6 24.7 124.8 73.3 27.2 48.5 26.9 99.3-2.8 145.9-16.3 25.5-20.2 37.4 14.5 43.3 55.1 9.3 82.1 46.6 92 98.7 4.5 23.7 8.5 47.5 11.7 71.4 1.9 13.7 6.2 31.8-13.3 34.9-20.7 3.3-19.7-15.2-21.5-29.2-2.2-16.9-4.4-33.8-7.2-50.7-12.3-73.6-82.1-121.1-155.8-105-28.4 6.2-56 6.8-84.3.6-77-16.7-145.9 29.9-158.3 106.4-3.4 21-6 42.2-9.3 63.3-1.5 9.5-7 15.6-17.2 15-10.1-.6-16.5-7.7-15.7-16.8 5.1-55 6.3-111.4 43.3-157.6 15.2-18.9 37.3-25.8 59.6-30.4 29.4-6.1 36.3-14.3 16.7-43-31.3-45.7-31.2-96.9-4.4-145.6 26.9-48.7 69.7-73.3 127.2-74.5zm108.4 138c-3.8-59.8-55.2-106.1-114.1-103.1-62.1 3.2-106.7 54-103 117.4 3.4 60 53 103 115.2 99.7 59.5-3 105.7-54.6 101.9-114zM137.8 734.1c-14.4-24.9-31.3-46.1-36.6-73.3-12.9-67.2 17.1-131.4 76.3-161.3 55.8-28.1 125.5-16.2 169 28.9 46.3 48 56 119.4 18.1 176.5-19.1 28.7-12.9 37.2 16.8 42.9 78.5 15.1 90.4 78.2 97.6 141.7 2.3 20.3 22.7 56.6-11.2 60.6-28.8 3.4-19.4-35.4-22.4-55-16-104.3-67.2-141.5-174.6-124.4-16.6 2.7-35.6 5.5-50.7.2-46.5-16.4-86.1 6.5-127.8 17.7-23.4 6.3-33.9 26-39 47-7.6 31.7-12.3 64-17.8 96.2-2.1 12.6-6.7 23-21.2 20.7-11.8-1.8-15.4-12.2-14-22.9 5.7-46.6 9.4-93.3 32.3-136 22.4-41.5 69-40.2 105.2-59.5zm105.1 2.9c61-.2 107.6-46.7 107.9-107.7.3-60.6-46.9-109.2-106.8-110.1-60.2-.9-112.5 51.2-111.5 111.2 1 59.5 50 106.8 110.4 106.6zm356.3-601.3c-11-6.6-19.1.7-25.6 8.4-19.2 22.9-38 46.1-56.5 69.7-11.5 14.7-21.9 22.3-35.5 1.8-6.9-10.4-16.2-24.3-30.6-14.1-16.7 11.8-4.2 25.2 3.5 36.8 5.5 8.3 12.1 15.9 17.5 24.2 15.5 23.5 30.8 26.8 49.3 2.5 24.2-31.7 50-62.1 74.7-93.4 5.1-6.5 8.7-14.2 13.7-22.7-3.8-5.1-6.2-10.7-10.5-13.2z"/></svg>