<svg xmlns="http://www.w3.org/2000/svg" viewBox="0 0 1000 1000" style="enable-background:new 0 0 1000 1000" xml:space="preserve"><path d="M81.1 511.5c45.5 2.9 59.7-7.4 53.2-47.2-6.4-39.1 10.5-55.4 43.3-65.5 13-4 25.7-9.4 37.9-15.5 23.3-11.5 39.8-6.7 56.1 14.7 32.3 42.1 46.7 42.4 77.9 1.7 17-22.2 33.5-29.4 59-15.4 15.5 8.5 32.5 14.4 49.1 20.5 25.5 9.3 35.8 24.4 30.9 53.3-7.9 46.2 3.5 58.5 48.9 53.3 33.2-3.8 51.9 8.1 61.2 39.2 3.9 13 9.4 25.7 15.5 37.9 13 26 8.2 44.8-15.9 63.3-33.9 26.1-35 48.2-2.7 72.4 27.6 20.7 31.5 41.2 15.8 69.8-7.2 13.1-12.6 27.4-17 41.7-8.5 27.4-26.5 34.3-53.6 30.8-46.8-6.2-60.8 6.9-53.3 53.7 4.7 29.2-5.4 43.9-31.1 52.7-15.5 5.3-31 11-45.5 18.4-26 13.3-44.6 9.4-63-15.2-27.4-36.7-45-37.2-73.6-1-20 25.4-39.8 29-66.9 15.2-14.5-7.4-30-13.2-45.4-18.7-24.4-8.7-32.6-23.3-28.7-50.2 7.5-52.4-2.4-61.9-53.4-55.5-25.4 3.2-42.5-3.5-51.4-28.4-5.5-15.4-11.1-31.1-19.1-45.2-16.6-29.2-10.5-49.1 17.1-69 35.1-25.3 34.9-44.2.3-70-26.9-20.2-33.7-40.9-17-69.9 6.1-10.6 10.4-22.4 13.9-34.1 9.5-30.9 27.9-46.3 57.5-37.8zm365.3 388.2c-2.5-47.1 29.2-78.9 75.5-76.3 19.8 1.1 37.1 4.6 45.4-21.1 7.7-23.7 12.4-41.8-11.2-61.3-37.9-31.3-36.8-75.9 1.6-106.9 20-16.2 21.5-31 12.2-53.1-9-21.5-18.3-32.4-45.2-28.3-45.3 6.8-81.4-28.8-77.5-74.9 2.2-26.5-7.2-39.9-31-49.8-23.2-9.7-36.7-4.3-52 15-26.4 33.5-79.6 33.9-105.6.7-16.5-21.1-31.2-24.3-55.7-14.4-25.4 10.3-31.6 24.6-27.9 50.4 5.7 40-31.2 78.6-70.9 73.9-24.3-2.8-40.8-2.3-51.6 24.6-10.5 25.9-7.1 41.4 15.6 58.9 32.9 25.5 32.3 76.8-.4 102.4-20.4 15.9-26.7 29.9-16.8 55.2 9.9 25.4 24.3 30.8 49.9 28.8 45-3.5 80.5 32.3 74 74.6-4.2 27.3 6.1 38.6 29.4 49.5 25.7 12.1 38.6 4.4 54.3-16 27.5-35.7 77.3-35.5 104.7.8 16.2 21.4 30.1 25.6 54.9 15.4 25.3-10.2 33.5-25.4 28.3-48.1zm504.3-487.5c-.1 38.9-71.6 85.7-103.8 70-27.1-13.2-45.2-9.6-51.7 21.7-8.9 42.8-41.8 34.8-71.3 35.7-28.4.9-55.2 1.6-62.7-35.7-6.3-31.5-27-36.3-51.9-20.3-42.8 27.5-56.9-13.8-80.3-32.2-21.9-17.3-30.7-37.1-12-63.3 19.2-26.9 7.3-45-21.3-50.6-42.7-8.4-37.4-39.9-38.3-69.8-.9-30.3.1-57.2 39.7-64 26.6-4.6 38.8-22.7 21.1-47.7-21.3-30.1-8.2-50.4 14.8-69.9 22.4-19 38-54.2 77.8-27.3 25.8 17.4 44.4 7.5 51.1-22.4C672.1-9.5 708.6 4.6 738 2.1c28.6-2.4 51.4 2.7 57.8 36.6 6.2 33 27.6 35.1 51.7 19.5 42.8-27.5 56.9 13.4 80.4 31.9 22 17.4 30.7 37.1 12.2 63.3-18.9 26.8-7.7 44.7 21.2 50.7 44.9 9.2 36.8 43.2 38.5 74 1.7 30.4-3.6 53-39.7 59.8-29.7 5.6-37.2 24.7-20.1 51.5 5 7.8 8 17 10.7 22.8zm-85.2 35.1c25.2.7 41.6-28.1 32.7-53.4-14.6-41.5-4.7-71.3 32-87.6 16.9-7.5 27.5-15.8 27.4-35.5-.1-19.5-10.1-28.2-27.2-35.8-35.6-15.8-49.1-48.8-33.5-83.3 8.7-19.2 7.7-32.2-7.4-47.1-15.4-15.3-28.2-8.9-44.1-1.8-30.9 13.8-68.6-.5-81.3-31.3-7.1-17.2-11.7-31.7-35.2-32.7-26.3-1.1-30.3 16.2-38.1 34.2-13.4 30.5-51.6 44.5-81.7 29.2-17-8.7-29.2-10.6-43.3 4.3-13 13.7-15.7 25.4-7.2 43.6 16.5 35.2 4 69.5-29.8 84.4-16.4 7.2-28.6 14-29.2 34.2-.7 21.6 10.5 30.5 29 38.6 34.8 15.3 47.2 49.5 30.5 83.8-8.7 17.9-6.9 29.7 6.4 43.6 13.9 14.7 26.2 13.6 43.5 5.6 35.7-16.5 72.4-1.6 85.4 34.6 6.3 17.6 13 28.2 33.7 27.6 19.8-.6 28.1-10.4 35.3-27.5 15.5-37.2 48.9-50 85.5-35.3 6.2 2.5 12.3 5.6 16.6 7.6zm-557.2 55.2c68.4-.9 117.5 64.4 94.3 129.1-8.4 23.6-10.1 34.6 17.2 45 33.2 12.6 60.4 88.2 48.3 121.4-2.5 6.9-6.1 12.2-13.7 13.4-9.6 1.5-16.6-3.5-19-11.8-3.3-11.7-5-24-6.3-36.1-4-38-25.3-61.2-62.5-64.3-37.6-3.1-75.8-3.3-113.3-.2-41.5 3.4-62 29.9-64.1 71.3-.6 12.2-.5 24.8-8.5 35.3-4.6 5.9-10.8 8.5-18 6.3-7.2-2.2-10.1-8-12.1-15-10.9-38.6 17-106.4 54.2-122.3 21.2-9 20.1-17.1 13.2-36.2-24.9-68.5 20.3-134.9 90.3-135.9zm59.3 98.7c-.2-34.4-26-61.2-58.5-60.9-31.6.4-60.9 29.5-60.9 60.4 0 32.6 27 58.7 60.8 59 36.5.4 58.8-21.9 58.6-58.5zm363-489c59.5 1.5 102.1 58.4 84.7 117.5-6.8 22.9-4.6 32.8 17.6 43.8 27.4 13.5 49.7 76.2 42 104.6-2.3 8.3-6 15.6-15.1 17.4-12 2.3-17-5.9-20.5-15.4-1.4-3.8-2.3-7.8-3.3-11.8-18.1-72.8-21.8-75.5-99.5-74.3-13.6.2-27.3-1.3-40.9-.9-50.2 1.4-64 13.6-72.9 63.3-1.4 8-2.9 16.1-5.4 23.9-3.1 9.7-8.7 17.6-20.6 15.3-9.1-1.8-12.7-9.1-14.9-17.5-7.3-28.9 14.9-91.2 42.2-104.6 22.3-10.9 24.2-20.9 17.5-43.8-17.8-60.7 28-119.1 89.1-117.5zm-2.4 144.5c32.1-2.3 51.9-20.9 52.6-51.1.7-30.2-17.2-50.8-50.2-52.4-30.4-1.5-58.1 23.1-55.3 51.9 3.1 30.3 20.9 48.9 52.9 51.6z"/></svg>