<svg xmlns="http://www.w3.org/2000/svg" viewBox="0 0 1000 1000" style="enable-background:new 0 0 1000 1000" xml:space="preserve"><path d="M767 244c0-70.5-.4-133 .1-195.6.4-47.1 2.9-44.1 48.1-36.4 49 8.3 99.5 23.9 150 3.8 22.3-8.9 33.8 1.5 34.3 23.6.9 40 .4 80.1.2 120.2-.1 22.8-16.1 31.6-34.3 39.1-36.6 15.1-73.5 8.1-110.5 2.7-33.8-4.9-50.1 7.3-47.7 43.6 7.1 109-.3 218 .2 327.1.1 20.8 6.9 37.8 17.3 55.9C883.3 730 941 832.5 941.2 955.5c0 14.8 4.5 33-15.3 35.3-20.1 2.4-20.6-17.4-22.9-31.2-3.8-22.3-8.3-45-8.2-67.5.2-41.5-17.9-38.8-46.9-24.4-56.2 27.9-113.3 53.9-170.1 80.5-9.7 4.5-19.4 8.9-29.5 12.5-8.2 2.9-16.2 1.1-21-6.8-6.3-10.2-1.3-18.8 6.9-24 16.6-10.5 34.2-19.4 52.1-29.4-63.1-48.9-75.1-49.3-136.5-6.8-7.7 5.3-15.4 10.6-23.4 15.5-8.8 5.3-18 6.5-25.1-2.5-7.3-9.2-3.9-18.8 4-24.7 27.7-20.8 56-40.9 84.6-60.5 9.6-6.6 20.5-4.1 30.7.4 11 4.9 23.6 7.8 32.5 15.2 73.7 60.4 139.4 18 206.1-14.7 14-6.9 15.1-16.8 8.6-29.6-21.6-42.9-43.3-85.8-64.4-129-9.4-19.3-23.9-22.6-43.1-18-101.2 24.2-203.4 45.2-301 82.3-52.9 20.1-84.3 67.3-133.6 108.5 33.7 5.1 58.2 12.3 70.3 37 5.9 12.1 11.9 26.3-2 36.2-13.9 9.8-22.3-2-28.2-12.7-10-18.1-26.3-20.8-44.4-20.7-8 0-16.2.8-24-.4-96-15.1-175.2 10.3-230.7 94.4-3.6 5.4-9.1 9.8-14.2 14-8.6 7.2-18.3 13.2-28 2.6-7.6-8.2-5.9-19.4 1.8-25.2 28-21.3 24.3-46.6 18.2-77.1-5.8-28.8 10.9-57 18.3-85.3 7.4-28.3 18.9-55.6 20.6-85.4 1.6-27.4 4.3-53.1-34-59.8-17.6-3.1-26-21.6-30.1-39.4C13.9 591.1 9 567.5 3 544.3-3.5 519.1.3 496.4 17.8 477c36.1-40.1 55.8-95.2 109.4-119.4 11-5 5.3-16.6 6.3-25.3 6.5-57 49-92.7 100.2-84.1 48.9 8.2 79.1 55.8 64 109.4-10.5 37.2 20.6 48.1 37.6 62 15.3 12.5 26.4-14.1 37-26.4 8.6-10 14-25.7 24.6-30.6 48.2-22.1 60.2-63.7 66.3-110.4 2.6-19.8 7.8-40.5 26.1-52.3 17.9-11.4 14.3-24.7 9.9-41.3C486.1 109 513.7 63.4 560 55.4c50.4-8.7 92.1 23.4 96 76.6 1.4 19.2 5.1 30.9 24.9 39.4 32 13.9 48 49 86.1 72.6zM227.1 561.6c3.7-20.2 6.9-42.7 12.2-64.6 3.3-13.4 2.1-32.1 20.7-35.3 17.7-3.1 24.4 13.6 33.2 24.7 32.7 40.7 32.5 40.8 73.8 5.9 6.1-5.2 13.3-9.4 18.4-15.4 13.7-16.3 51.7-31.3 36-48.8-21.9-24.3-38.3 13.8-54.5 27.1-20.3 16.6-37.9 28.3-55.6.4-21.9-34.2-50.7-48.2-91.4-41.6-12.1 2-26.9-2.7-38.3-8.5-35.3-18-61-9.5-81.1 23.5-7.6 12.5-15.9 25.3-26.6 34.9C28.8 504.3 39 551.6 54.5 600c3.2 10.1 5.4 22.9 20 19.1 11.4-3 10.3-14.7 9-23.8-2.7-18.4-7-36.6-9.9-55.1-5.3-33.9 22.8-48.5 41-68.5 5.6-6.1 15.2-9.2 21.5-2.3 17.5 19.1 4.2 40.2 1.8 60.6-.6 5.3-1.7 10.5-2.6 15.8-16.2 94.2-6.8 192-41 283.9-6.6 17.7-27.4 47.7-5.6 55.3 18 6.3 27.9-28.6 35.4-49.9 22.4-63.4 30.9-129.4 37.4-195.8 1.2-12.7.2-29.1 16.9-32.8 16.7-3.7 21.6 11.8 29.3 22.3 35.7 48.7 53 100.6 30.3 160.3-2.8 7.4-3.9 15.5-4.9 23.4-1 8.2.1 16.8 9.2 20 12.4 4.3 17.6-5 19.5-14.2 11-55.2 35-109.4 0-166.1-16.2-26.3-33-54.9-34.7-90.6zm532.6-163.8c9.7-51.8 3.5-98-35.8-138.3-36.6-37.5-69.5-76.5-129.4-46.1-6.7 3.4-15.6 2.9-23.5 3.1-56 1.2-61.3 6.8-75.3 61.1-8 31-2.9 68.4-38.3 88.4-6.5 3.7-20.9 7.4-13.2 19.8 7.1 11.4 18 12.9 31.3 6.1 26.6-13.6 37.7-35.9 42.3-63.8 1.9-11.7 6.4-24.9 21.7-24.6 15.3.4 17 13.7 20.7 25.4C576 379 567.3 427 546.5 473c-24 53.1-25.9 108-18.3 164.2 1.2 8.7-1.5 20.9 12.3 21 11.4.1 15.7-9.5 16.2-19.4.7-13.3 1.4-26.9-.4-40-7.2-53.4 17-98.9 35.8-145.7 4.5-11.1 11.4-23.1 26.5-18.6 12.3 3.7 13.3 15.6 13.2 26.5-.3 28-.8 56.1-1.8 84.1-.8 23 3 45.2 10.2 66.9 3.7 10.9 8.7 20.9 22.4 16.6 12.2-3.8 9.1-14.5 7.2-23.7-3-14.4-8.6-28.7-8.7-43-.9-92.9 13.5-186.5-13.2-278.3-2.7-9.3.7-19 10.2-24.1 9.9-5.3 18.3-.2 25.3 6.3 20.4 19.1 41 37.3 47.8 67.1 5.2 22.6 8.5 46.9 28.5 64.9zM275 532.4c-13.8 21.7-10.6 42.3.9 63.7 31.9 59.6 58.8 120.4 33.8 190.3-.6 1.8 1.5 4.5 4 11.3 15.6-14.5 29.6-28.2 44.3-41.2 27.7-24.6 50.8-56.8 90-64.1 38.9-7.2 50.1-28.9 42.2-65.6-10.7-49.7-5.2-97.9 14.2-145.1 9.4-22.9 15.4-47.3 25.5-79.2-20.2 12.5-34 18.5-44.5 28-33.4 30.5-62.1 65.5-97.9 93.8-51.2 40.5-59 42.5-112.5 8.1zm684.7-427.6c5-27.8-2.3-48.5-43.8-40.4-13.5 2.6-28.7-3.4-43.2-5.3-60-7.8-65.8-1.6-65.6 59.3.1 27.1 6.4 42.9 37.5 42.2 18.3-.4 36.7 5.7 55.2 7.1 51.8 4.1 59.8-3.8 59.9-62.9zm-253 292.7c-3 40.8-5.5 80.7-9 120.5-2.2 25.7 0 50.6 9 74.7 4.3 11.6 9.3 23.6 24.9 20.5 12.8-2.5 30.7-4.3 31.7-19.6 2.8-42.4 2.5-85.1 2.7-127.7.1-24.6-26.1-23.7-37.6-37-8.4-9.7-14.8-21.3-21.7-31.4zm-491.4-21.8c30-.2 47.8-15.6 48.8-42.9.9-26.7-15.1-46.5-43-47.7-27.4-1.2-45.3 14.6-46.4 43.3-1 28 13 44.9 40.6 47.3zm364.8-199.4c22.4-3.7 40.5-16.5 38.6-43.8-1.8-25.5-17.3-42.2-44.8-40.7-27.9 1.6-39.6 19.9-38.6 46 .9 26 16.5 37.8 44.8 38.5z"/></svg>