<svg xmlns="http://www.w3.org/2000/svg" viewBox="0 0 1000 1000" style="enable-background:new 0 0 1000 1000" xml:space="preserve"><path d="M228.6 195.7C191 122.8 196.8 67.7 244 27.9c42.4-35.8 103.6-37 147.3-2.8 49.5 38.7 56.2 92.3 20.7 171.6 13.5 4.9 27.1 9.1 40.1 14.7 42 18 67.7 49 68.2 95.8 1 92 .8 184.1.2 276.1-.2 35.8-20.1 61.1-52.5 71.6-24.6 8-28.9 21.8-29.4 44.4-1.5 73.3-4.4 146.6-7.6 219.8-2.3 54.5-26 77.3-80.6 79.7-128.7 5.6-143.4-8.5-146.1-138.1-1.1-54.6-3.9-109.2-5.2-163.8-.5-20.4-5.5-33.5-27.9-41.7-37.5-13.7-54.3-43.2-53.6-84.4 1.3-79.1.3-158.2.4-237.3 0-77.9 18.5-103.9 92.4-130.8 5.6-1.9 10.8-4.1 18.2-7zM197 626.2c0-85.1-.8-166.8.6-248.5.3-17.3-12.2-48.5 18-48 25.3.4 14.9 29.9 14.8 46.5-.7 176.9 1.2 353.7 9.3 530.4 2.2 49.1 12.1 59 59.3 54.8 7.4-36.5 3-73.8 3.4-110.8.8-79.1.2-158.2.6-237.2.1-12.6-1.1-29 16.6-30 15.6-.8 15.9 13.5 15.9 25.2.2 50.3.2 100.6.2 151V961c45.9 5.5 58.5-2.5 63.3-39.3 2.2-17 1.8-34.4 2.4-51.7 5.4-168.1 9.9-336.2 8.1-504.5-.1-13.9-7.3-37.2 16.8-36.4 19.7.6 13.9 21.9 14 35 .6 64.7-.1 129.4.5 194.1.2 22.2-3.9 45.2 4.5 68.4 33.2-7.8 43.3-27.9 43.1-57.2-.6-82 .1-163.9-.3-245.9-.3-50.8-20.9-80.5-70.4-87.8-65.1-9.5-131.5-9.3-196.6.1-47.9 6.9-68.3 35.7-68.6 84.1-.6 83.4.2 166.8-.3 250.2-.4 27.2 6.9 47.8 44.8 56.1zm122.8-426.4c47.5-.2 84.1-37.6 83-84.9-1-45.4-37.3-80.6-83.1-80.7-47.6 0-84 37.3-82.8 85 1.2 46.2 36.8 80.8 82.9 80.6zM661.3 58.9c-.2-18.6 8.4-25.4 26.1-25.2 33 .3 66 0 99-.4 11.6-.1 25.8-.8 26.9-15.1C814.7-.4 798.7.2 785.8.1 744.2-.1 702.6.7 661-.2c-23.3-.5-34.1 8.1-33.9 32.5.8 64.5.7 129.1 0 193.7-.2 22.5 10.3 30.7 31.3 30.7 64.6-.2 129.1 0 193.7-.1 15.1 0 30.2-2.4 31.4-21.5 1.3-21.4 1.1-43 .1-64.4-.5-10.8-7.1-19.9-19.2-18.3-9.8 1.3-12.1 10.2-13.2 19.5-2.1 16.4 5.3 34.4-7.5 50.2H661.5c0-57.5.3-110.3-.2-163.2zm3.9 346.7c41.1 0 78.3.3 115.5-.1 14-.2 32.7 1.5 32.6-18.5-.1-17.7-17.6-15.2-30.1-15.2-41.7-.2-83.3.5-125-.3-22.1-.4-31.1 8.8-30.9 30.7.6 64.7.8 129.3.1 194-.2 22.2 9.2 31.1 30.7 31.1 64.7-.1 129.3.5 194 .5 13.1 0 27.6-.9 30.7-17.3 4.5-24.1 3.2-48.6-.2-72.8-1-7.3-6-13.6-14.2-14-10.3-.5-15 6.1-16.4 15.8-2.4 16.7 2.6 34.3-6.6 52.9H665.2V405.6zM788 776.3c12-.1 25.1-2.3 25.4-17 .3-15.5-13.2-16.4-25-16.4-44.6 0-89.2.3-133.7.2-17.4 0-26.9 6.9-26.9 25.4.1 67.6.1 135.2-.4 202.8-.1 18 8 27.1 25.5 27.1 69 .2 138 .2 207.1-.1 15.4-.1 23.9-9.2 24.2-24.5.4-20.1.5-40.3-.4-60.3-.5-11-6.8-20.2-18.9-19-9.5.9-12.6 9.7-13.7 19.2-2 16.5 5.2 34.4-6.3 49.1H663.3V776.6c44.7-.2 84.7-.1 124.7-.3zm-70-302.8c-6.4-8-14.5-15.6-25.3-8.2-10.6 7.3-7.9 17.7-1.9 26.5 11.3 16.5 24.3 31.9 35.2 48.6 16.6 25.5 31.6 29.2 51.7 2.4 29.1-38.8 60.7-75.8 91.1-113.7 8.7-10.9 23.2-23.7 6.6-36s-25 6.6-33.4 16.7c-29.2 35-57.5 70.7-88.9 109.5-14.3-18.8-24.4-32.5-35.1-45.8zm2.7-367.7c-7.1-8.8-14.9-20.4-27.8-11.6-12.5 8.6-6.6 20 .5 29.9 12.5 17.4 25.3 34.6 37.7 52.1 15.3 21.6 29 17.7 43.8-1.1 31-39.3 62.8-77.8 93.9-117 8.5-10.7 23.2-24.1 6.5-36.2-16.4-11.9-24.9 6.9-33.4 17.1-29.2 35-57.6 70.7-88.9 109.3-13.3-17.6-22.5-30.3-32.3-42.5zm2.8 745.9c-7.8-9.4-15.1-25.2-30.2-15.2-15 9.9-5.3 22.5 2.4 33.1 11.7 16.2 23.6 32.3 35.1 48.6 15.1 21.4 28.9 18.4 43.9-.5 31.9-40.3 64.4-80.2 96.6-120.3 8.2-10.2 18.3-22.5 4.3-33.2-14.5-11.1-23.1 4.1-30.8 13.5-30 36.2-59.4 72.9-91.7 112.7-12.3-16.1-20.6-27.7-29.6-38.7z"/></svg>