<svg xmlns="http://www.w3.org/2000/svg" viewBox="0 0 1000 1000" style="enable-background:new 0 0 1000 1000" xml:space="preserve"><path d="M373.8 683.5c0 89.9.6 170.7-.2 251.4-.5 49.8-16.8 64.7-66.6 65-11.8.1-23.5.1-35.3-.1-43.9-.8-61.6-16.5-63.4-61.3-2.2-53.4-1.4-107-2.7-160.5-.3-10.7 5.2-25-10.4-30.3-34.5-11.9-37-42.4-45.7-71.5-21.8-72.5-24.1-143 8.7-213 6.1-13 8.6-31.8 22.1-35.4 38.4-10.2 28.4-32.4 26.6-61.7-5.1-82.5-3.2-165.5-2.2-248.3.5-37.9 22.1-57.1 64.1-58.4 49.6-1.5 99.4-.7 149-.5 18.9.1 34.6.1 41.8-24.2 6.8-22.9 27.3-34.3 52-34.4C591.2.2 671-.5 750.7.6c36.8.5 58.1 21.6 59.4 59 1.7 50.8.5 101.8.5 152.7 0 10.6.1 21.9-11.7 26.7-9.9 4-18.5-1.7-23.8-9.4-53.5-76.8-133.2-36.4-201.8-45.2-12.7-1.6-13.5 10-16.5 18.1-11.6 31.7-36 42.5-67.7 42.4-60.1-.2-120.3.7-180.4-.3-22-.4-37.6 6.7-50 29.1 25.7-2.8 48.9-5.7 70.5 5.7 21.8 11.4 36.7 28.3 45.2 51.6 9.3 25.5-5.1 48.9-4.6 71.9.5 21.8 42.3 18.1 49.5 46.1 7.3 28.4 7.8 57.3 5.9 85.5-2.4 36.6 7.2 59 44 74.7 41.3 17.6 43.6 68.1 8.8 91.8-16.7 11.4-34.5 11-52.4 4.6-13-4.7-25.8-11-51.8-22.1zM205 720c0-24.4.1-37.1 0-49.8-.3-47-.7-94-.7-140.9 0-10.6 1.2-22.5 15.9-21.6 11.6.6 13.7 10.9 14.2 20.2 1 20.8 1.7 41.7 2 62.6 1.2 113.5 2.2 227.1 3.4 340.6.2 15.6-.7 35.5 21.7 34.1 21.7-1.4 13.5-21.9 13.7-34.3.9-61.3-.7-122.7 1.1-184 .5-18.4-12.9-51.7 14.7-52.2 28.5-.5 15.8 32.9 16.3 51.3 1.7 63.9.5 127.9 1.1 191.8.1 10.5-4.5 26.4 13.3 27.4 18.3 1.1 18.7-14.5 20.5-27.4.4-2.6.4-5.2.5-7.8 1.5-79.6 3-159.2 4.4-238.8.2-9 .6-18.1-6-25.9-36.4-42.7-19.7-94.5-23.8-142.7-.7-8.3 4.7-15.6 13.4-16.6 11.4-1.2 16.7 6.9 17.1 16.9 1.3 27.4 2 54.8 2.4 82.2.2 16.6 3.5 31.2 20.1 39.2 21.2 10.1 42.2 20.8 63.8 30 12.8 5.4 26.8 5.8 33.4-9.6 6.8-15.8-4.3-27-16.8-30-56.9-13.8-61.2-55-57.2-102.2 1.2-14.2-1.5-28.8-.4-43 2.2-29.4-11.6-45.4-40-46.1-42.9-1-85.8-.2-128.7 1.2-11.3.4-22.6 4.5-30.2 15.5-37.5 54.4-35.7 188.3 10.8 259.9zm573.4-545.4c0-28.2.1-56.5 0-84.7-.1-55.7-2.9-58.4-60.5-58.6-52.2-.1-104.4 0-156.6 0-76.8 0-78.8 2.2-74.9 79.2.1 1.3.1 2.6.1 3.9-.6 25.9 11.2 37.6 38 37.1 57.4-1 114.8.5 172.2-.5 28.2-.5 54.8.8 81.7 23.6zm-251.9 12c-48.2-3.5-75.2-25.1-71.8-74.7 1.2-17.9-10.3-21.3-25.3-21.2-52.3.3-104.6.2-156.9.2-15.3 0-31.3 2.8-33.8 19.9-6.1 41.5-4.8 83.2-.5 135.4 24.6-33 49.6-34.5 76.5-33.9 56.2 1.1 112.5.3 168.7.3 17.1.1 34.6 1 43.1-26zM289.7 413.5c29.2 1.1 55.3-22.9 56.9-52.4 1.7-30.9-23.9-58.4-54.6-58.5-29.4-.1-53.9 24.3-54.5 54.3-.5 30.5 22.5 55.5 52.2 56.6zm439.5 586.4c-70.2 0-84.3-13.9-85.3-84.3-.5-30-.4-60-1.7-90-1.3-28.7 4.8-60.7-38.2-68.8-15.3-2.9-20.7-21-22-38.1-6.5-84.7-11-169.2 16.9-251.6 3.7-11 5.2-29.2 12.3-31.7 47.1-17.2 31.1-53.9 32.2-87.4 1.7-50.6 51.7-87.6 101.5-78.8 50.1 8.9 85.2 59.2 71 107.6-6.7 22.9-11.8 39.1 18 45.1 3.5.7 6.6 4.1 9.5 6.7 30.7 27.2 32.2 168.9-.7 194.1-17.5 13.4-20.8 27.3-20.9 46.3-.6 80.9-1.9 161.7-3.1 242.6-1.1 76.2-13.4 88.3-89.5 88.3zm-43.7-558.5c-38.7-3.8-50.4 14.3-59.3 45.6-20.5 72-20.2 144.1-11.9 217.2 1.2 10.6-3.1 27.9 14.4 26.2 16.5-1.6 10-18.7 10.4-29.1 1.8-53.5 2.5-107 3.7-160.5.2-10.6.5-23 14.3-23.8 14.5-.8 15.1 11.7 15.4 22.3.4 15.7.3 31.3 0 47-1.9 112.3-2 224.5 3.9 336.6.9 17.2-4 43.2 22.1 42.2 28.8-1.1 15.5-28.3 15.9-43.5 1.6-62.6.1-125.3 1.2-187.9.3-14.7-9.4-40.9 16.1-39.8 23 .9 15.2 26.4 15.4 41.9.9 65.3-.1 130.5.8 195.8.2 12.4-7.8 32.6 14.5 34 21.8 1.4 23-16.7 23.3-33.1 1.9-91.3 3.9-182.7 5.9-274 .3-13.3-2.1-24.1-12.4-35.1-28.5-30.4-54.1-63.6-82.2-94.5-23.6-26.1-32.2-53.2-11.5-87.5zm146 91.7c0-23.1-.1-38.7 0-54.3.1-28.1-20.8-32.8-41.7-37.6-8.5-2-21.2-9.8-24.7.1-6.3 18 15.9 23.2 22.6 36 .6 1.1 1.7 2 2.5 3 7 8.9 11.5 18.7 1.1 27.4-9.3 7.8-17.1.8-23.6-5.8-9.2-9.2-17.5-19.4-27-28.3-7.8-7.3-14.7-21.8-28.4-8.8-10.5 9.9-8.1 21.1.2 31.4 15.5 19.3 29.8 39.8 47.3 57.2 17.4 17.3 26.7 55.5 56.1 45.7 33.5-11.3 10-48.6 15.6-66zM728.7 300.8c-31.2.8-57.1 27.9-55.6 58.3 1.4 28.5 28 54.1 56.5 54.4 30.5.4 57-26.3 56.7-57.2-.4-31.6-26-56.3-57.6-55.5z"/></svg>