<svg xmlns="http://www.w3.org/2000/svg" viewBox="0 0 500 500" style="enable-background:new 0 0 500 500" xml:space="preserve"><path d="M414.2 393.5c1 2.1 2.6 3.2 3.9 4.5 22.3 22.3 44.5 44.5 66.8 66.7 1.7 1.7 3.5 3.4 5.1 5.3 6.3 7.3 6 17.8-.7 24.6-6.5 6.5-16.9 7.2-24.2 1.3-1.8-1.4-3.3-3.1-4.9-4.7-22.8-22.8-45.6-45.5-68.5-68.3-1.3-1.3-2.5-2.8-4-4.4-66 49.5-138.5 64.3-217.4 40.5-56.3-17-99.9-51.9-130.6-102.2C-20.7 257.8-.2 128 92.6 52.5c93-75.6 227.7-68.9 313.2 15.5 86 84.8 96.5 228.1 8.4 325.5zM240.8 36.3C131.1 36 41.9 125 41.8 234.9c-.1 109.5 88.5 198.4 198.2 198.8 109.6.4 199-88.5 199.3-198.4.2-109.7-88.6-198.8-198.5-199z"/></svg>