<svg xmlns="http://www.w3.org/2000/svg" viewBox="0 0 500 500" style="enable-background:new 0 0 500 500" xml:space="preserve"><path d="M249.8.8c38.4 0 76.7-.3 115.1.1 25.9.3 50.3 7.1 72.2 21 30.4 19.3 48.6 47.3 57.6 81.7 4 15.2 5.3 30.7 5.3 46.4v199.8c0 23.1-3.1 45.5-12.1 66.9-17.9 42.5-49.6 68.6-94.5 78.9-12.1 2.8-24.3 3.7-36.7 3.7-71.2 0-142.5-.1-213.7 0-23.2 0-45.6-3.8-66.6-13.8-35.2-16.9-57.5-44.8-69-81.6C2.7 388.7.2 373.1.2 357.2.1 300 .1 242.7.1 185.5c0-16.8-.4-33.6.4-50.4 1.4-27.6 9-53.4 24.6-76.5 19.5-28.9 46.8-46.4 80.7-54.2C118.5 1.5 131.3.6 144.2.6c35.2.1 70.4 0 105.7 0-.1.1-.1.2-.1.2zm.3 37.4H145c-7.4 0-14.8.1-22.2 1.3-37 6-63 25.9-76.9 60.9-6.4 16.2-8.3 33.2-8.2 50.5.1 66 0 132 0 198 0 3.1.1 6.2.1 9.4.2 11 1.9 21.8 5 32.3 8.1 27.3 24.1 48.4 50.2 61 16 7.7 33 10.3 50.7 10.3 70.8-.1 141.7 0 212.5-.1 7 0 14.1-.2 21.1-1.3 34.1-5.5 59.3-23 74.2-54.4 8.3-17.5 11-36.1 11-55.2V149.3c0-13.7-1.3-27.3-5.3-40.5-8.5-27.9-25.2-49.1-52.2-61.3-15.4-7-31.7-9.4-48.6-9.3-35.5.1-70.9 0-106.3 0zM106.4 308.7c-10.9 11.4-21.8 23-32.7 34.5-2.1 2.3-4.5 4.4-6.4 6.9-7.6 9.9-3.7 24.3 7.9 28.7 7.6 2.9 14.7 1.5 20.5-4.4 5.7-5.9 11.4-11.9 17-17.8 6.9-7.2 13.8-14.4 20.6-21.7 4-4.2 8.8-6.3 14.7-5.8 4.4.3 7.6 2.7 10.6 5.7 8 8.1 15.6 16.5 24 24.1 23.2 20.9 57.7 18.5 78-5.1 2.9-3.4 5.8-6.9 8.6-10.3 15.7-19 31.6-37.8 47-57 10.2-12.7 27.6-11.7 36.9-1.5 15.7 17.1 32.4 33.4 48.7 50 1.4 1.4 2.7 2.8 4.2 4.1 8.1 6.6 19.5 5.3 26.3-2.6 5.1-5.9 6.3-17.8-2-26-17.7-17.7-34.8-35.9-52.6-53.5-15.5-15.3-34.4-20.2-55.6-15.9-14.6 3-26.1 11-35.4 22.4-8 9.8-16.2 19.6-24.3 29.4-9.8 11.9-19.7 23.8-29.5 35.7-3.3 4-7.2 6.5-12.4 6.9-5.9.4-10.7-1.8-14.7-5.9-7.1-7.3-14.2-14.6-21.4-21.7-10.4-10.4-23-15.8-37.1-16.1-16.6-.4-30 5.4-40.9 16.9zm57.7-67.3c-34.5-.1-62.8-28.3-62.5-62.7.3-34.5 27.8-62.4 63-62.3 34.7 0 62.6 28.4 62.5 62.8-.2 34.5-28.4 62.3-63 62.2zm.4-37.5c13.8-.1 24.9-11.2 24.9-24.9 0-13.8-11.5-25.4-25.4-25.2-13.6.1-24.9 11.5-25 25.1 0 13.8 11.4 25.1 25.5 25z"/></svg>