<svg xmlns="http://www.w3.org/2000/svg" viewBox="0 0 500 500" style="enable-background:new 0 0 500 500" xml:space="preserve"><path d="M256.6 499.7c-29.3.7-58.6.2-87.7-3.8-23.8-3.3-47.2-8.4-69.1-18.8-13.5-6.4-25.5-14.7-34.9-26.6-10.7-13.6-14.9-29.2-14.3-46.3 1-28.9 15.9-49 40.5-62.8 17.3-9.7 36.1-15.2 55.5-18.9 23-4.4 46.3-6.3 69.7-7.3 25.8-1.1 51.5-1.1 77.2.3 30.5 1.6 60.7 5.3 89.7 15.3 17.6 6.1 34 14.4 47.1 28.1 11.9 12.5 18.1 27.4 18.8 44.6 1.3 30-11.5 52.3-36.8 67.8-16.8 10.3-35.3 16-54.4 20.1-24.9 5.3-50.1 7.4-75.5 8.3-8.5.3-17.1 0-25.8 0zm-8.1-147.4c-29.8.4-61 1.3-91.9 7-13.5 2.5-26.9 5.7-39.4 11.6-7.4 3.4-14.2 7.6-19.7 13.7-7.3 8.1-10.3 17.4-8.5 28.3 1.7 10.6 8 18.2 16.4 24.2 8.6 6.1 18.2 10.1 28.2 13.1 27 8 54.7 10.6 82.6 11.7 28.1 1.2 56.2 1 84.3-.9 18.3-1.3 36.4-3.4 54.2-7.5 12.7-2.9 25-6.8 36.3-13.6 4.2-2.6 8.1-5.5 11.5-9.2 12.4-13.4 12.5-32.4.1-45.9-6.9-7.6-15.7-12.3-25.1-16.1-18.4-7.4-37.8-10.6-57.3-12.8-23.4-2.7-46.8-3.4-71.7-3.6zM383.8 134c-.5 74.4-60.8 133.9-135.2 133.3-73.9-.6-132.8-60.6-132.3-134.7C116.8 59 177.4-.3 251 0c70.1.3 132.4 57.2 132.8 134zm-231.5-1.9c.3 28.5 9.7 51.3 28.2 70.4 18.8 19.4 42.5 27.3 68.6 29.9 26.3-2.2 50.4-9.8 69.5-29.1s29.1-42.6 29.1-69.9c0-54-44.2-97.8-98.3-97.5-53.6.2-97.3 44.4-97.1 96.2z"/></svg>