<svg xmlns="http://www.w3.org/2000/svg" viewBox="0 0 500 500" style="enable-background:new 0 0 500 500" xml:space="preserve"><path d="M88.1 384.9c-.2-1.4-1.3-2-2.1-2.8-30.1-28.3-53.4-61.5-72.1-98.2-4.3-8.3-8.1-16.9-12-25.4-2.5-5.4-2.6-11-.2-16.5 19.6-44.8 45.2-85.6 80.1-120.1 29.8-29.4 64.2-51.5 104.7-63.1 60.2-17.2 117.9-10.1 173 19.2 7.6 4 14.8 8.7 21.8 13.3 2.1-.5 3-2.1 4.2-3.3 15.8-15.7 31.5-31.4 47.3-47.2 5.9-5.9 12.6-8.4 20.8-5.6 12 4.1 16.4 18.8 8.7 28.8-1.3 1.7-2.9 3.2-4.4 4.7C355 171.7 252 274.6 149.1 377.5l-78.3 78.3c-1.9 1.9-3.8 3.9-5.9 5.7-7.3 6.2-18.3 5.8-25.1-.7-6.8-6.6-7.6-17.5-1.7-25.1 1.2-1.5 2.6-2.9 4-4.3L84 389.5c1.5-1.4 3.3-2.6 4.1-4.6zm216.1-216.6 49.8-49.8c-.2-.1-.6-.5-1.1-.8-38.4-24-80-34.6-125.1-29.3-35.7 4.2-67.6 18.2-96.1 40-40.9 31.4-69.3 72.5-91.1 118.7-1 2.1-1.1 3.9 0 6 3.1 6.1 6 12.3 9.1 18.3 15.9 30.1 35.2 57.6 59.9 81.2 1.9 1.8 3.4 4.2 5.4 3.9 17.6-17.6 35.2-35.3 53-53-26.2-40.5-18.2-90.8 12-121.8 30.3-31.1 81.2-41 124.2-13.4zM276.1 196c-16.4-10-48.1-9.8-69.3 11.9-21.9 22.4-19.7 54.7-10.7 68.1l80-80zm134.2 135.5c-22.1 26.3-47.8 48.3-79 63.3-36.8 17.8-75.3 23.6-115.7 15.8-8.5-1.6-16.6-4.3-24.9-6.4-9.2-2.2-18.4 2.9-21.6 11.7-3.8 10.3 1.6 21 12.7 24.6 15.8 5.1 32 8.5 48.6 10 30.4 2.8 60-.8 88.9-10.4 41.3-13.7 76-37.8 105.8-69.1 31.4-32.9 54.7-71 72.9-112.4 2.6-5.9 2.5-11.6-.2-17.5-7.9-17.9-16.8-35.2-27-51.9-6-9.8-12.4-19.4-19.4-28.6-4.6-6.2-10.9-8.9-18.5-7.6-13.3 2.3-19.8 17.1-12.6 28.5 3.1 4.9 6.8 9.5 10.1 14.4 11.6 17.2 21.6 35.3 30.1 54.2-13 29.4-29.4 56.7-50.2 81.4zm-74-84c-6.6-3.5-13.2-2.8-19.4 1.4-5.1 3.4-6.9 8.6-8.3 14.3-5.7 23-20.1 37.8-42.6 44.8-2.4.8-5 1-7.4 1.8-7.2 2.2-12.7 8.9-13.1 16.4-.4 7.9 3 14 9.9 17.9 4.7 2.7 9.8 2.6 14.8 1.4 32.8-7.7 56.1-27.1 69.8-57.8 3.3-7.5 5.7-15.3 6.3-23.3-.1-7.7-3.4-13.4-10-16.9z"/></svg>