<svg xmlns="http://www.w3.org/2000/svg" viewBox="0 0 500 500" style="enable-background:new 0 0 500 500" xml:space="preserve"><path d="M249.7 499.9c-38.3 0-76.6.4-114.9-.1-27.7-.4-53.5-8.1-76.5-24.1-26.8-18.6-43.4-44.4-52.1-75.5-3.9-13.8-6-27.9-6-42.2-.1-35.8-.1-71.5-.1-107.3 0-36.5-.2-73.1.2-109.6.3-27.4 6.9-53.4 21.1-77 19.5-32.4 48.1-52 84.8-60.3C118.5 1 130.9 0 143.4 0c71.1 0 142.2.1 213.3 0 23.2 0 45.5 3.6 66.5 13.7 36.8 17.6 59.4 47.1 70.5 85.9 3.9 13.6 6.1 27.5 6.1 41.6.1 72.5.2 145 0 217.4-.1 22.1-4.7 43.4-14 63.6-19.4 41.9-52.4 66.4-97.4 75.2-11 2.2-22.1 2.6-33.2 2.6l-105.5-.1zm.5-462.3H144.7c-7.4 0-14.8.1-22.2 1.3-36.4 6-62.2 25.5-76.3 59.9-6.8 16.5-8.7 33.9-8.7 51.6.1 63.7 0 127.3 0 191 0 5.7 0 11.3.1 17 .2 11 1.8 21.8 4.9 32.3 8.1 27.6 24.1 48.8 50.3 61.5 16.1 7.8 33.3 10.4 51.2 10.3 70.5-.1 141 0 211.5-.1 7.2 0 14.4-.2 21.6-1.3 36.7-5.9 62.6-25.6 76.7-60.2 6.7-16.5 8.6-33.9 8.6-51.6-.1-66.2 0-132.4 0-198.6 0-3.1-.1-6.2-.1-9.4-.2-11-1.9-21.8-5-32.3-9.2-30.8-28-53.2-58.6-64.7-13.7-5.2-28-6.8-42.5-6.8-35.3.1-70.6.1-106 .1zm-31 216.5c-13.4 13.4-26.8 26.8-40.1 40.2-1.4 1.4-2.8 2.8-4 4.3-4.8 6.4-4.9 15.4-.3 21.9 4.8 6.7 12.9 9.4 20.7 7.1 3.9-1.2 6.9-3.6 9.6-6.4 13.7-13.7 27.3-27.4 41-41 1.2-1.2 2.1-2.8 4-3.2 1.9.9 3.1 2.5 4.4 3.9l40.2 40.2c1.2 1.2 2.5 2.5 3.9 3.6 10.3 7.8 25.1 3.3 29.1-9.1 2.4-7.6.4-14.2-5.2-19.8-13.8-13.8-27.6-27.6-41.4-41.5-1.5-1.5-3.4-2.6-4-5.1l43.5-43.5c1.8-1.8 3.6-3.6 5-5.7 3.9-6.1 4.3-12.5.8-18.9-3.4-6.3-8.8-9.6-16.1-9.9-6.1-.2-10.8 2.5-15 6.7-13.6 13.7-27.3 27.4-41 41-1.3 1.3-2.4 3.1-4.6 3.7-1.4-1.3-2.8-2.6-4.2-4l-39.8-39.8c-1.5-1.5-3-3.1-4.7-4.3-6.1-4.3-12.8-4.7-19.4-1.4-6.4 3.2-9.8 8.7-10.1 16-.3 6.1 2.3 10.9 6.5 15.1 13.7 13.6 27.4 27.3 41 41 1.4 1.4 2.7 2.8 4 4.1-.7 2.3-2.4 3.4-3.8 4.8z"/></svg>