<svg xmlns="http://www.w3.org/2000/svg" viewBox="0 0 500 500" style="enable-background:new 0 0 500 500" xml:space="preserve"><path d="M250.4 0h106.2c17 0 33.7 1.9 49.9 7.1 41.1 13.4 68.6 40.8 83.6 81 6.6 17.7 9.7 36.1 9.8 54.9.1 71.4.3 142.7-.1 214.1-.1 28.6-6.9 55.8-22.1 80.3-19.9 32.2-49 51.3-85.8 59-11 2.3-22.2 3.3-33.5 3.3H141.6c-25.3 0-49.4-4.9-71.7-17.2-31.7-17.4-51.8-44.2-62.4-78.4C2.2 387 .1 369.3.1 351.5 0 284 0 216.3.1 148.5c0-23.8 3.6-47 13.4-69C32.3 37.4 64.9 12.2 110 3.1c11.2-2.3 22.7-3 34.1-3C179.5 0 214.9 0 250.4 0zM34.9 249.5v100.8c0 14 1.3 27.9 5.3 41.4 8.3 28.4 24.8 50.2 51.9 63.1 15.8 7.5 32.7 10.3 50.2 10.3h215.2c8.4 0 16.7-.6 24.9-2.2 31.5-6.1 55.3-22.9 69.9-51.7 8.8-17.3 12.6-35.9 12.7-55.2.2-70.6.1-141.3 0-211.9 0-12.6-1.9-25-5.5-37-8.6-28.1-25.3-49.5-52.3-62.2-15.8-7.4-32.5-10-49.8-10H142.2c-7.1 0-14.1.5-21.1 1.7-42.4 7.2-69.2 31.7-81.2 72.8-3.8 13.2-5 26.7-5 40.4v99.7zm197.8 44.1c0 14-.1 28 .1 41.9.2 9.4 7.3 16.4 16.5 17 8.4.5 16.1-5.7 17.8-14.5.4-2.1.5-4.3.5-6.5v-57.7c0-2-.4-4 .5-5.9 1.9-1 3.9-.6 5.9-.6h57.2c2.2 0 4.4 0 6.5-.3 8.3-1 14.8-8.3 15.1-16.7.2-8.3-6-16-14.3-17.4-2.3-.4-4.7-.5-7-.5h-57.7c-1.9 0-4 .5-5.7-.7-.7-2.1-.4-4.1-.4-6.1v-57.2c0-2.5 0-5.1-.6-7.6-1.7-6.5-5.7-10.9-12.1-12.8-6.7-2-12.5-.2-17.4 4.7-3.7 3.7-4.8 8.3-4.7 13.5.1 20 0 39.9 0 59.9 0 1.9.6 4-.7 5.7-2 .8-4 .5-6 .5h-56.6c-2.5 0-5.1.1-7.6.5-8 1.3-13.9 8-14.3 16.2-.5 7.7 4.8 15.2 12.2 17.5 2.8.9 5.7.8 8.6.8h57.7c2 0 4-.4 6.7.8-.2 8.4-.2 16.9-.2 25.5z"/></svg>