<svg xmlns="http://www.w3.org/2000/svg" viewBox="0 0 500 500" style="enable-background:new 0 0 500 500" xml:space="preserve"><path d="M249.2 48.5c48.6.3 92 14.9 131.3 42 34.9 24.1 62.7 55.1 85.6 90.6 12.3 19.1 22.7 39.1 31.9 59.9 2.6 5.9 2.8 11.6.2 17.6-16.2 37.1-36.6 71.6-63.4 102.2-29.4 33.6-64 60.1-106 76.1-28.5 10.9-58 15.9-88.4 14.4-40.1-1.9-77-14-111-35.2-36.2-22.6-65.2-52.7-89.3-87.6-15-21.8-27.4-45-38-69.2-2.8-6.3-2.7-12.3 0-18.6 16.4-37.5 37.2-72.2 64.4-102.9s58.9-55.3 96.8-71.4c27.6-11.8 56.5-17.6 85.9-17.9zM248.1 86c-17.6.3-36.5 3.1-54.8 9.2-32.3 10.7-60 28.8-84.3 52.4-29.4 28.5-51.3 62.3-68.5 99.2-1.2 2.6-.7 4.7.4 7.1 11.8 25.2 25.9 49 43.2 70.8 23.9 30.1 52.1 55 87.2 71.3 39.4 18.3 80.4 23 122.8 12.4 35.1-8.8 65.2-26.7 91.6-51 32-29.4 55.4-64.9 73.7-104 1.2-2.6 1.1-4.6-.1-7.1-7.9-17-16.9-33.4-27.4-49.1-20.4-30.7-45-57.5-75.9-78-32.2-21.3-67.5-33-107.9-33.2zm2 261.9c-53.6.3-97.6-43.5-97.9-97.4-.3-54.2 43.4-98.1 97.6-98.2 54-.1 97.6 43.2 97.9 97.3.3 54-43.4 98-97.6 98.3zm-60.3-98.2c-.2 33.3 26.7 60.4 60.1 60.6 33 .1 60-26.6 60.3-59.8.4-33.4-26.4-60.5-59.8-60.7-33.6-.2-60.5 26.4-60.6 59.9z"/></svg>