<svg xmlns="http://www.w3.org/2000/svg" viewBox="0 0 500 500" style="enable-background:new 0 0 500 500" xml:space="preserve"><path d="M195.5 498c-28.1.1-56.1-1-83.8-5.3-26.3-4.1-52.1-10.2-75-24.5C12.6 453.2-1 431.6.1 402.7c1-27.8 14.8-48.2 38.7-62 21-12 43.9-18.1 67.5-21.4 17.1-2.4 34.4-4 51.7-4.8 22.5-1 45.2-1.6 67.7-1 34.7 1 69.2 4.3 102.3 15.6 17.9 6.1 34.3 14.6 47.6 28.5 24.8 25.8 24.7 71.1-.1 96.9-16 16.7-36.3 25.2-57.9 31.2-23.9 6.6-48.4 9.7-73.2 10.7-16.2.5-32.6 1-48.9 1.6zm-2.4-38.7c20.4-.8 36.3-1.3 52.3-1.9 19.7-.8 39.1-3.6 58.3-8.2 13.3-3.2 26-8 37.3-16.2 17.6-12.7 19.4-35.3 4.3-50.7-7.5-7.6-16.7-12.1-26.5-15.6-30.6-11-62.7-13.2-94.8-14.2-22.3-.7-44.7.4-67.1.8-20.3.4-40.3 3-60.2 7.3-15.5 3.3-30.6 7.9-43.4 17.8-18.3 13.8-19.7 35.6-3 51.3 4.9 4.6 10.9 8.2 16.9 11.1 20.1 9.7 42 13.1 63.9 15.1 22.1 2 44.3 2.4 62 3.4zm4.3-190.3c-74.7.3-133.3-60.8-133.4-132.9C63.8 63.7 121.5 1.8 197.4 2c72.8.2 133 57.4 133 133.5 0 76.2-61 133.2-133 133.5zm-94.5-133.3c-1.3 50.4 41.5 94.5 93.6 94.5 52.4 0 95.5-41.6 95.2-95.1-.3-53.1-42.7-94.4-94.8-94.3-55.6.1-95.2 46.8-94 94.9zm364.9 102.9c4.9 0 9.7.3 14.6-.1 11.9-.8 19.9-12 17.1-23.6-2.2-9-9.5-14.7-19.8-15.1-8-.3-16-.1-23.9-.1-6.4 0-6.7-.3-6.7-6.5-.1-8.2.1-16.4-.1-24.6-.3-9.9-7.9-17.6-17.7-18.3-11.7-.8-20.5 7.4-21 19.9-.3 7.6 0 15.2-.1 22.8 0 6.3-.4 6.6-6.6 6.7-8.2.1-16.4-.2-24.5.1-11.9.5-19.6 8.9-19.3 20.5.3 10.6 8.7 18.2 20.2 18.3 8.2.1 16.3.2 24.5-.1 4.4-.1 5.8 1.7 5.7 5.9-.2 8-.1 16 0 24 .1 6.1 2.1 11.6 6.9 15.5 6 4.9 12.8 6.6 20.2 3.3 7.4-3.3 11.6-9.1 11.7-17.4.1-8.6.2-17.2 0-25.7-.1-3.9 1.3-5.8 5.4-5.6 4.4.3 8.9.1 13.4.1z"/></svg>