<svg xmlns="http://www.w3.org/2000/svg" viewBox="0 0 500 500" style="enable-background:new 0 0 500 500" xml:space="preserve"><path d="M89.8 492.1c-15.6 0-31.2.6-46.8.6-10.9 0-18.1-5.3-20.5-15.7-7.1-29.7-14.2-59.5-20.9-89.3-4.1-18.4-.2-35.4 11.5-50.3 16.6-21.1 33.4-42 50.2-62.9C126.5 195.4 189.8 116.3 253 37.2c16.7-20.9 38.4-30.8 65-29.8 15.6.6 29.8 5.7 42.2 15.3 14.3 11 28.5 22.1 42.7 33.1 1.6 1.2 3.2 2.4 4.9 3.5 31 20.8 41.6 61.7 24.6 95.1-2.4 4.7-5.5 8.8-8.8 12.8-79.3 99.3-158.6 198.6-237.8 298-11.1 13.9-24.8 23.1-42.5 25.7-3 .4-6 .6-9 .6-14.8 0-29.6.6-44.5.6 0 .4 0-.4 0 0zm-33.2-38.2c1.6.1 2.6.2 3.5.2 24.8-.3 49.6-.7 74.5-1 2.6 0 5.2-.6 7.7-1.3 6.3-1.9 10.3-6.6 14.2-11.5C210 373.1 263.6 306 317.2 239c6.6-8.3 13.2-16.5 20.1-25.2-36.6-28.1-72.8-55.9-109.1-83.8-1.3 1.6-2.3 2.7-3.1 3.8-18.3 22.8-36.5 45.6-54.8 68.4C128.5 254.4 86.8 306.6 45 358.7c-5.9 7.3-7.6 15.1-5.2 24.1 2.8 11 5.2 22.2 7.8 33.3 2.9 12.4 5.9 24.9 9 37.8zm304.7-270.2c12.1-15.2 23.8-29.9 35.5-44.7 1.9-2.4 2.9-5.2 3.8-8.1 4.1-14.6-1-29.5-13.3-39-2.9-2.2-5.8-4.3-8.7-6.5C365 75 351.5 64.3 337.8 54c-18.1-13.5-40.4-10.6-54.4 6.9-9.3 11.5-18.6 23.1-27.8 34.7-1.1 1.4-2.7 2.5-2.7 4.9 35.8 27.4 71.8 55.1 108.4 83.2zm114.9 309c2 0 4 .1 6-.1 9.3-.7 16.6-8 17.7-17.5.9-8.5-4.9-17.1-13.3-19.9-2.9-1-5.9-1-8.9-1H298.1c-1.4 0-2.8-.1-4.2 0-9.2.6-16.8 7.5-18.1 16.4-1.3 9.3 4.2 18 13.2 21.1 2.9 1 5.9 1 8.9 1h178.3z"/></svg>