<svg xmlns="http://www.w3.org/2000/svg" viewBox="0 0 500 500" style="enable-background:new 0 0 500 500" xml:space="preserve"><path d="M249.7 499.9c-38.3 0-76.6.4-114.9-.1-27.9-.4-53.9-8.3-77-24.4-26.6-18.6-43-44.3-51.6-75.2-3.9-13.8-6-27.9-6-42.2-.1-34.6-.2-69.2-.2-103.8 0-37.5-.2-75 .2-112.5.3-27.4 6.8-53.4 20.9-77.1 19.4-32.7 48.2-52.4 85.1-60.8C118.4 1 130.9 0 143.4 0c71.1 0 142.2.1 213.3 0 23.2 0 45.5 3.6 66.5 13.7 36.8 17.6 59.4 47.1 70.5 85.9 4.5 15.9 6.3 32.1 6.3 48.6v203.4c0 24.5-3.8 48.2-14.2 70.6-19.4 41.9-52.4 66.4-97.4 75.2-11 2.2-22.1 2.6-33.2 2.6l-105.5-.1zm-.3-37.4h105.5c7.4 0 14.8-.1 22.2-1.3 37-5.9 62.9-25.7 77-60.6 6.6-16.4 8.5-33.5 8.5-51.1-.1-66.2 0-132.4 0-198.6 0-2.9-.1-5.9-.1-8.8-.1-11.2-1.8-22.2-5-32.9-9.2-30.9-27.9-53.2-58.5-64.8-13.7-5.2-27.9-6.8-42.5-6.8-70.9.1-141.8 0-212.7 0-7.4 0-14.8.2-22.2 1.5C87.9 44.9 63 62.6 48.4 93.9c-8.3 17.9-10.9 36.9-10.8 56.4.1 63.5 0 127 0 190.4 0 6.1 0 12.1.1 18.2.2 10.8 1.9 21.4 4.9 31.7 8 27.6 24 48.8 50.2 61.6 15.9 7.8 32.9 10.5 50.6 10.4 35.3-.2 70.6-.1 106-.1zm-71.7-222.3c-1.5-1.5-3-3.1-4.6-4.5-10.7-9-26.8-3.8-30.2 9.8-1.9 7.6.8 13.7 6.2 19 17.9 17.7 35.6 35.6 53.4 53.4 1.8 1.8 3.5 3.7 5.4 5.3 5.3 4.6 11.3 5.8 18 3.9 4.1-1.2 7-4 10-6.9 37.9-38 75.9-75.9 113.9-113.9 1.2-1.2 2.5-2.5 3.6-3.8 5.1-6.2 5.8-14.5 1.8-21.3s-11.4-10.2-19.4-8.9c-5.2.8-8.8 3.8-12.3 7.3-32.7 32.7-65.4 65.4-98.1 98.2-1.5 1.5-2.7 3.4-4.5 5.8-15.2-15.1-29.2-29.2-43.2-43.4z"/></svg>