<svg xmlns="http://www.w3.org/2000/svg" viewBox="0 0 500 500" style="enable-background:new 0 0 500 500" xml:space="preserve"><path d="M252.3 442.8c-21.2-.3-40.8-.5-60.2-3-21.2-2.7-42.1-6.9-61.3-17-12.6-6.7-23.3-15.5-29.5-28.7-9-19-8-48.4 13.3-66.9 10.5-9.1 22.7-15 35.7-19.2 14.4-4.7 29.2-7.3 44.1-9 29.7-3.4 59.4-3 89.2-1.8 23.1 1 46.1 4 68.1 11.6 11.6 4 22.4 9.4 32 17.2 27.1 22 27.4 66.9-1.7 89.2-11.7 9-25 14.5-39.1 18.4-15.3 4.2-30.9 6.3-46.6 7.6-15.2 1.2-30.4 1.1-44 1.6zm-2.8-34.5c23.1-.3 46.2-.9 69.1-5 11.1-2 22.1-4.6 32.3-9.6 4.7-2.3 9-5.1 12.6-9 7.9-8.6 8.2-20.4.8-29.4-2.7-3.2-5.9-5.7-9.5-7.8-5.7-3.4-11.9-5.8-18.3-7.7-18.5-5.5-37.6-7.5-56.7-8.4-27.8-1.2-55.5-1.2-83.2 1.9-12.1 1.4-24.1 3.5-35.7 7.2-7.5 2.4-14.8 5.4-21 10.5-12.6 10.3-12.6 26.1-.1 36.5 4.3 3.6 9.2 6.1 14.4 8.2 10.9 4.4 22.2 6.8 33.7 8.5 20.4 3.3 41 3.8 61.6 4.1zm-.1-141.4c-55.7.4-104.7-45.2-104.3-105.4.4-57.5 46.6-104.5 105.1-104.3 61 .2 105.2 50.2 104.6 105.8-.5 58.2-48.5 104.6-105.4 103.9zm71-98.7c.2-43-29.4-76.4-70.5-76.6-38.7-.2-70.4 31.8-70.3 70.6 0 18.9 6.7 35.3 19.8 49 13.6 14.2 30.7 21.5 49.9 21.6 18.9.1 36.1-6.6 49.9-20.4 13.9-13.9 21-30.7 21.2-44.2zm82.1-86.1c-4.3-1.3-8.6-2.6-13.1-2.6-8.4-.1-15.6 6.1-17 14.3-1.4 7.8 3.3 16.1 11 18.9 1.8.7 3.8 1 5.7 1.4 22.3 5 37.8 24 38.2 46.6.4 22.9-14.6 42.5-36.8 48.2-2.6.7-5.3 1-7.8 1.8-6.6 2-11.2 7.9-11.7 14.6-1 12 8.8 20.5 21.1 18.6 39.8-6.4 69.7-41.6 69.8-82.1-.2-37-24.2-69.2-59.4-79.7zM98.3 241.6c4.6 1.3 9.3 2.7 14.2 2.5 8.5-.2 15.3-6.2 16.6-14.7 1.2-8.3-3.7-16.2-11.8-18.7-1.7-.5-3.5-.8-5.2-1.1-20.1-3.9-35.7-20.4-38.9-41-3.1-19.9 7.3-40.3 25.5-49.9 5-2.6 10.3-3.9 15.7-5.2 9.5-2.3 15.1-11.2 13.2-20.3s-10.8-14.9-20.3-13.3c-39.6 6.7-68.8 41.2-68.9 81.6-.2 36.8 24.5 69.8 59.9 80.1zM.6 348c.2 1.4.3 2.9.6 4.2 5.2 20.6 19.8 31.9 38.9 37.9 11 3.4 21.5-5.9 20.9-17.4-.4-7-4-12.1-10.4-15-3.9-1.8-7.9-3.4-11.3-6.1-6.1-5.1-6.5-12.6-1-18.3 1.6-1.7 3.6-3 5.6-4.1 4.6-2.5 9.5-4.2 14.6-5.3 5.2-1.2 10.6-2 15.8-3.3 8.7-2.2 13.8-10.2 12.6-19.3-1.1-8.1-8.3-14.2-16.9-14.3-3.3-.1-6.4.7-9.6 1.3-13.3 2.5-26.1 6.3-37.6 13.7C8.4 311.2.4 324.2 0 342.4c.1 1.3.3 3.5.6 5.6zm486.2-38.4c-5.1-5.1-11.1-9.1-17.6-12.1-12.1-5.7-24.8-9.3-38.1-10.4-9.1-.8-16.8 5.8-18 14.2-1.3 9.1 4.1 17.1 13.2 19.3 3.3.8 6.7 1.2 10 2 8.1 1.7 16.1 3.6 23 8.6 8.6 6.3 8.5 15.6-.3 21.7-3.1 2.2-6.7 3.4-10 5.1-8.6 4.2-12.3 13.6-8.7 22.1 3.6 8.5 12.9 12.6 21.9 9.5 8.9-3.1 16.9-7.8 23.7-14.4 9.3-9.1 13.9-20.2 14.3-33.7-.4-12-4.5-22.9-13.4-31.9z"/></svg>