<svg xmlns="http://www.w3.org/2000/svg" viewBox="0 0 500 500" style="enable-background:new 0 0 500 500" xml:space="preserve"><path d="M249.9 499.9c-35.8 0-71.7-.1-107.5 0-23 .1-45.2-3.8-66-13.9-35.2-16.9-57.5-44.9-69-81.9C2.7 388.9.2 373.3.1 357.3c-.1-56-.1-112-.1-168 0-18-.4-36.1.4-54C1.7 107.5 9.3 81.3 25 58c19.5-29 46.8-46.6 80.7-54.3C118.3 1 130.9 0 143.7 0c70.9 0 141.7.1 212.6 0 22.4 0 44.1 3.3 64.5 12.7 36.6 16.8 59.6 45.3 71.6 83.2 5.4 17.1 7.5 34.7 7.5 52.7-.1 67.5-.1 135.1 0 202.6 0 24.8-3.8 48.7-14.3 71.3-19.3 41.5-52.1 65.9-96.7 74.9-10.8 2.2-21.7 2.7-32.7 2.7-35.4-.2-70.8-.2-106.3-.2zm212.5-220.5v-45.2c0-30-.1-59.9-.1-89.9 0-12-1.6-23.8-5-35.3-8.4-28.5-25.2-50.1-52.8-62.4-15.3-6.8-31.4-9-48.1-9-70.9.1-141.8 0-212.6.1-7.2 0-14.5.2-21.7 1.4-33.9 5.6-58.9 23.2-73.6 54.6-8.3 17.7-11 36.5-10.9 56 .1 34.1 0 68.1 0 102.2 0 32.7.1 65.4 0 98.1 0 12.4.9 24.6 4 36.7.8 3.3 1.2 6.8 3.3 9.7 1.9-.7 2.4-2.3 3.3-3.6 4.7-6.5 9.2-13.2 14-19.6 12.1-16.1 25.2-31.5 40.6-44.7 9.3-8 19.7-13.5 31.8-15.2 10.8-1.5 21.5-.4 32 2.5 13.8 3.8 26.8 9.8 40 15.1 9.1 3.7 18.3 6.8 28 8.5 8.3 1.5 15.5-.3 21.7-5.9 4.2-3.8 8.2-7.9 11.8-12.3 9.2-11.2 17.4-23.2 25.9-34.9 9.4-12.8 18.9-25.4 31.1-35.9 13.8-11.9 29.5-18.2 48-16.3 7.2.8 14.3 2.1 21.3 4.2 20 6 37.4 16.8 53.7 29.4 4.5 3.5 8.8 7.2 14.3 11.7zM66.8 433.2c9.6 10.1 20.6 17 33 21.8 13.7 5.3 27.9 7.4 42.5 7.4 71.7-.1 143.3 0 215 0 2.9 0 5.9-.1 8.8-.2 11.4-.5 22.5-2.6 33.2-6.8 32-12.3 50.6-36.2 59.2-68.7 4.6-17.3 4-34.9 4-52.5 0-2-.9-3.3-2.2-4.6-14.6-14.8-29.5-29.2-46.9-40.7-11.8-7.9-24.4-14-38.5-16.7-9.7-1.9-18.2.1-25.5 6.9-5.2 4.8-9.9 10-14.4 15.5-8.7 10.8-16.5 22.4-24.7 33.6-8.8 12-17.9 23.8-29.2 33.6-14.6 12.6-31.1 18-50.5 14.9-13.5-2.1-26.2-6.3-38.7-11.3-12.3-4.9-24.4-10.6-37.3-14-11.1-2.9-20.6-.8-29.2 7.2-23.5 21.6-41.3 47.5-58.6 74.6zm40.1-262.9c-.2-35.9 28.9-65.2 64.6-65.3 35.8-.1 65 28.9 65.2 64.8s-28.8 65.2-64.6 65.4c-35.7.1-65-29-65.2-64.9zm37.6-.3c0 15.1 12 27.3 27 27.5 15.2.2 27.6-12.2 27.6-27.5s-12.4-27.6-27.6-27.5c-14.9.2-27 12.4-27 27.5z"/></svg>