<svg xmlns="http://www.w3.org/2000/svg" viewBox="0 0 500 500" style="enable-background:new 0 0 500 500" xml:space="preserve"><path d="M250.3.2c38.3 0 76.6-.3 114.9.1 27.8.3 53.5 8.1 76.5 24 26.8 18.6 43.4 44.4 52.1 75.5 4.5 15.9 6.2 32.1 6.2 48.6-.1 67.8 0 135.6 0 203.4 0 24.5-3.9 48.2-14.3 70.6-18.3 39.5-49 63.8-91.2 73.8-12.4 2.9-25 3.8-37.8 3.8-71.1 0-142.2-.1-213.3 0-23.6 0-46.2-3.8-67.5-14.2-34.9-17-57-44.8-68.4-81.4C2.7 389 .2 373.2.2 357.1.1 300.1.1 243 .1 186c0-17-.4-34 .4-51 1.4-27.6 8.9-53.4 24.4-76.6 19.4-29 46.6-46.6 80.3-54.5C118 .9 131 0 144.1 0c35.4.1 70.7 0 106.1 0 .1.1.1.1.1.2zm-.4 462.2h105.5c7.2 0 14.4-.1 21.6-1.3 37.2-5.9 63.3-25.9 77.2-61.1 6.4-16.2 8.3-33.2 8.3-50.5-.1-56.1 0-112.1 0-168.2 0-13.1 0-26.2-.1-39.3-.1-11.2-1.8-22.2-5-32.9-9.1-30.7-27.9-53.1-58.4-64.7-13.7-5.2-27.9-6.9-42.5-6.9-70.9.1-141.8 0-212.7.1-7 0-14 .2-21 1.3-36.9 6-62.9 25.8-76.9 60.8-6.5 16.4-8.4 33.5-8.4 51.1.1 66.2 0 132.4 0 198.6 0 3.1.1 6.2.1 9.4.2 11 1.9 21.8 5 32.3 8.1 27.3 24 48.4 50 61 15.9 7.8 32.9 10.5 50.5 10.4 35.7-.1 71.3-.1 106.8-.1zm-1-237c-14.1-.2-25.6 10.9-25.6 24.8-.1 13.5 11.3 25 24.9 25.2s25.1-11 25.2-24.7c.2-13.8-10.7-25.1-24.5-25.3zm99.7 50c13.7.1 25-11 25.2-24.8.2-13.9-11.2-25.3-25.3-25.2-13.9.1-24.8 11-24.8 25 .1 13.7 11.1 24.9 24.9 25zm-200.7 0c13.9.3 25.3-11.1 25.3-25.2-.1-13.9-11-24.8-24.9-24.8s-24.9 10.8-25 24.7c-.1 13.9 10.7 25 24.6 25.3z"/></svg>