<svg xmlns="http://www.w3.org/2000/svg" viewBox="0 0 500 500" style="enable-background:new 0 0 500 500" xml:space="preserve"><path d="M248.1 500c-6.2-.2-14.1.3-22-.7-27.8-3.6-50.9-26.2-54.7-53.9-.4-3.2-.8-6.4-.9-9.5-1-20.7-21.5-33-40.3-24-5.1 2.4-10.1 4.9-15.6 6.5-27.3 7.7-56.2-3.1-71.4-27.1-6.4-10.2-12.5-20.6-18.2-31.2-15.9-30-6.4-65.9 22.2-84.4 1.1-.7 2.3-1.4 3.3-2.1 16.9-11.5 17-35.2.2-46.8-4.3-3-8.8-5.7-12.7-9.4-22.4-21-27.2-53.4-11.6-80.1 5.6-9.6 11.4-19.1 17.4-28.4 17.5-27.4 52.7-37.2 82-22.9 1.9.9 3.7 1.9 5.5 2.8 17.7 9 37.8-4.3 39.2-22.3.6-7.9 1.1-15.8 3.8-23.3 8.9-25.1 31.6-42 58.2-42.8 11.9-.3 23.7-.4 35.6 0 32.1 1 58.6 26.7 60.9 58.7.2 2.8.3 5.6.6 8.5 2 18.5 20.8 29.6 38 22.6 2.3-.9 4.4-2.1 6.6-3.2 29.6-14.9 65.2-5.4 83 22.5 6.9 10.8 13.5 21.7 19 33.3 13.7 29.2 4.1 63.4-22.8 81.2-1.4.9-2.9 1.8-4.2 2.8-16.8 11.7-16.7 35.4.4 46.6 8.3 5.4 16 11.4 21.5 19.7 13.7 20.7 15.6 42.5 4.8 64.8-6 12.5-13.4 24.4-21.4 35.8-17.7 25.3-52.3 33.7-80.1 20-4.2-2.1-8.4-4.1-13-5.2-11.5-2.7-29.5 5.8-31.5 23.6-.8 6.5-.7 13.2-2.4 19.6-7.3 28-32.2 47.7-61.6 48.4-5.6 0-10.8-.1-17.8-.1zM97.8 115.6c-10.4.2-18.5 4.6-24 13.4s-10.9 17.6-16.2 26.5c-8 13.5-4.2 29.5 8.9 38.2 1.6 1 3.2 2 4.7 3.1 30.5 20.7 37.4 62.8 15.1 92.1-5.4 7.2-12.3 12.6-19.8 17.4-12.5 8-16.6 23.3-9.7 36.2 5.3 10 11.1 19.7 17 29.3 4.3 6.9 10.7 10.9 18.7 12.4 7.3 1.3 13.7-.6 20.1-3.9 14.2-7.5 29.2-9.6 44.9-5.9 29.1 6.8 49 33.4 49.3 60.7.2 16.3 11.5 28 27.4 28.7 10.5.4 21.1.4 31.6 0 15-.6 25.5-11 27.1-26 .2-2.2.4-4.5.5-6.8 2.1-37.9 39.3-66 76.2-57.8 7.1 1.6 13.5 4.4 20 7.6 13 6.5 28.2 2.8 36-9.1 6.3-9.6 12.2-19.5 17.7-29.6 6.6-12.2 2.7-27-8.6-35.2-2-1.4-4.1-2.7-6.1-4-21.3-14.2-32.1-40.6-26.8-65.5 3.9-18.5 13.9-32.6 30-42.6 14.5-9.1 18.6-24.1 10.5-39.1-4.8-9-9.9-17.8-15.2-26.4-6.8-10.9-19.2-15.6-31.4-12.2-3.5 1-6.6 2.8-9.7 4.4-37 18.9-82.3-2.6-91.3-43-1.3-5.9-1.1-12-1.9-18-1.8-13.4-12.4-23.6-25.8-24-11.3-.4-22.6-.3-33.9 0-11.6.3-21.7 8.6-24.9 19.7-1 3.5-1.3 7-1.4 10.6-.3 9.4-2.9 18.2-7.2 26.5-12.8 24.5-39.7 37.4-64.3 34-8.1-1.1-15.7-3.6-22.9-7.6-4.6-2.6-9.3-4.3-14.6-4.1zM250 168.2c44.9.3 81.6 36 81.6 81.7 0 46.8-37.8 81.8-82 81.8-44.8-.1-81.5-37.1-81.4-81.9.1-44.9 37-81.6 81.8-81.6zm.8 36.3c-24.6-.7-45.6 19.4-46.4 44.3-.7 24.7 19.4 45.9 44.1 46.6 25.3.7 46.7-19.4 46.9-44.9.2-26.3-20.5-45.6-44.6-46z"/></svg>