<svg xmlns="http://www.w3.org/2000/svg" viewBox="0 0 500 500" style="enable-background:new 0 0 500 500" xml:space="preserve"><path d="M249.2 499.9c-34.4-.3-68.8.5-103.2-1.1-33.7-1.6-60.4-23.9-68.3-56.7-2.7-11.3-3.4-22.8-4.6-34.2-2-19.2-3.8-38.5-5.6-57.7-1.8-19.6-3.4-39.3-5.1-59-1.8-20.8-3.6-41.6-5.4-62.5-1-13.4-2-26.9-3-40.3-.3-4.4.5-8.5 3.1-12.2 4.3-6.1 11.5-9.2 18.3-7.8 8.1 1.7 14.2 7.3 15.4 15 1 6.4 1.4 12.8 2 19.2 2.1 25.5 4.1 51 6.3 76.5 2.5 28.6 5.1 57.2 7.8 85.8 1.9 20.2 4 40.4 6 60.6.4 3.9 1.2 7.7 2.5 11.4 5 14.9 15.6 23.1 31.2 24.3 18.7 1.4 37.5 1.1 56.3 1.2 46.7.3 93.4.2 140.1-.4 5.9-.1 11.7-.4 17.4-1.9 11.6-3.1 19.5-10.2 23.8-21.4 2.9-7.6 3.5-15.6 4.3-23.5 2.4-23.3 4.6-46.6 6.8-70 1.8-19.6 3.4-39.3 5.1-59l5.4-63c1-11.9 2-23.7 2.8-35.6.6-8.1 4-14.2 11.5-17.6 12.5-5.6 26.1 3 26 16.7-.1 8.2-1 16.4-1.7 24.5-1.4 16.9-2.8 33.9-4.3 50.8-1.8 20.2-3.6 40.5-5.4 60.7-1.3 15-2.6 30-4 44.9-2.1 22.4-3.6 44.8-7.1 67-3.8 24-15.2 43.3-37.1 55.3-9.9 5.4-20.6 8.3-31.9 9.1-18.3 1.3-36.7.9-55.1 1.1-16.7 0-33.5-.2-50.3-.2zM457 124.7c2.3 0 4.7.1 7-.1 11.3-1 19.1-12.2 16.2-23.2-2.3-8.7-9.5-14.2-19.1-14.2-26.4-.1-52.8 0-79.1 0-13 0-21.3-7-23.9-19.6-1.9-9-3.8-17.9-5.5-27C348.4 17.8 327.4 0 303.4 0c-35.6.1-71.1.1-106.7 0-23.2-.1-44.9 16.8-49.7 42.3-1.6 8.4-3.2 16.9-5 25.3-2.7 12.7-11.1 19.5-24 19.5H61.7c-8.2 0-16.4-.2-24.6.1-10.2.4-18 8.8-17.9 18.8 0 10 7.9 18.1 18.1 18.6 2.1.1 4.3.1 6.4.1H457zM183.7 50.1c1.9-9.1 6.1-12.5 15.5-12.5 34 0 67.9-.1 101.9 0 9.5 0 13.2 3.1 15.2 12.6 2.6 12.1 4.5 24.4 8 36.7H175.6c3.7-12.3 5.5-24.6 8.1-36.8z"/></svg>