<svg xmlns="http://www.w3.org/2000/svg" viewBox="0 0 500 500" style="enable-background:new 0 0 500 500" xml:space="preserve"><path d="M500 392c-1.1 15.9-1.4 31.8-3.3 47.6-3.3 28.1-19.9 46.3-47.1 53.8-13.7 3.8-27.8 5.2-41.9 5.7-19.9.7-39.8.7-59.6-2.1-14.7-2.1-29-5.7-41.2-14.7-14.2-10.4-21-25.1-23.5-42.1-3.5-23.4-2.5-46.9-2.1-70.3.2-10.7 1.6-21.4 3.1-32 4.1-27.7 20.9-43.6 47.4-50.6 13.7-3.6 27.8-5.1 41.9-5.7 21.3-.9 42.6-.5 63.7 3.3 13.1 2.3 25.6 6.1 36.4 14.1 12.6 9.2 18.9 22.3 21.8 37.2 3.5 18.3 3.8 37 4.4 55.8zm-40.9-1.1h.2v-4.2c-.5-12.9-.4-25.9-1.6-38.7-1.3-14.1-8.4-21.5-21.6-24.2-6.2-1.3-12.6-2.3-18.9-2.4-18.1-.3-36.2-.5-54.3.1-7.9.2-15.8 1.8-23.5 3.7-8.8 2.3-14.2 8.7-16 17.6-1.2 6.2-2.2 12.6-2.4 18.9-.3 17.7-.3 35.4-.1 53.2.1 6.3.7 12.7 1.3 19 1.1 11.3 6.8 19.1 18.3 21.3 9.3 1.8 18.8 3.6 28.3 4 14.1.7 28.3.6 42.4 0 11.1-.4 22.2-1.6 32.8-5.6 6.7-2.5 11.1-7.1 12.5-14 1.2-5.8 2.2-11.8 2.5-17.7.4-10.3.1-20.7.1-31zM280.2 112.3c1.1-16.9 1.6-33.4 3.4-49.8 2-18.2 8.5-34.4 24.3-45.3 9.2-6.4 19.5-10 30.3-12 22.4-4.3 44.9-5.4 67.7-4.1 14.9.9 29.7 2.1 44.2 6.1 30.8 8.6 42.6 27.2 46.6 54.7 3.7 25.3 2.7 50.9 2.1 76.3-.2 8.7-1.5 17.4-3.1 26-4.6 25.3-20.2 40.8-44.4 48-13 3.9-26.5 5.6-40 6-14.1.4-28.3.4-42.4 0-12.9-.4-25.7-2.1-38.3-5.5-27.3-7.5-43.5-25.1-47.1-53.1-2-15.8-2.3-31.8-3.3-47.3zm178.9-1.9c0-10.4.3-20.7-.1-31.1-.2-5.5-1.1-11.1-2.2-16.5-2-10.2-8.2-16.9-18.3-19-8.7-1.8-17.7-3.1-26.5-3.4-14.5-.6-29.1-.6-43.6 0-9.5.4-19 1.8-28.3 3.8-9.1 2-14.8 8.5-16.6 17.7-1.2 5.8-2.3 11.8-2.4 17.7-.3 17.7-.3 35.5-.1 53.2.1 6.7.7 13.5 1.3 20.2 1 11 6.4 18.7 17.6 21.3 4.6 1.1 9.3 2.1 14 2.8 21.4 2.8 42.9 3 64.3 1 8.1-.7 16.1-2.6 24-4.6 8.3-2.1 13.4-7.6 14.7-16.2.8-5.3 1.9-10.6 2.1-15.9.4-10.3.1-20.6.1-31zM219 387.9c-.8 18.1-1.2 32-2 45.9-.6 9.4-2.9 18.5-6.8 27.1-6.9 15-18.7 24.5-33.9 30.1-10.9 4.1-22.3 6.4-33.8 7-16.5.9-33 1.4-49.5 1.1-15.5-.3-30.9-2-45.9-6.6-26.8-8.4-41.1-27-44.6-54.2-3.6-28-2.8-56-.9-84.1.7-10 2.9-20.1 5.8-29.7 4.3-14.4 14.1-24.7 27.7-31.3 13.6-6.6 28.3-9.5 43.2-10.6 15.1-1 30.2-1.4 45.3-1.1 14.9.3 29.8 1.8 44.3 5.8s27.6 10.3 36.6 23c6.3 9 10.1 19.2 11.1 29.9 1.7 17.2 2.5 34.5 3.4 47.7zm-179.5 2.3h.6c0 6.6-.1 13.1 0 19.7.2 6.6.4 13.1 1.1 19.6 1.9 17.5 5.7 22.7 22.3 26.3 7.9 1.7 16.1 2.9 24.2 3.2 14.5.5 29.1.7 43.6-.1 9.8-.5 19.7-2.6 29.4-4.6 9.1-1.9 14.3-8.1 16-17.2.5-2.9 1.2-5.9 1.4-8.8 1.6-25.1 1.8-50.1-.1-75.2-.4-5.1-1.8-10.2-3.4-15.1-1.9-5.8-6.1-9.9-11.7-12.1-4.2-1.6-8.7-3.2-13.2-3.6-26.6-2.5-53.3-2.6-79.9-.1-17.4 1.6-24.9 8.6-28.1 24.8-.3 1.4-.4 2.8-.5 4.1-.6 13.3-1.2 26.2-1.7 39.1zM219 107.6c-.8 18.1-.9 32.3-2.1 46.3-1.5 17.3-7 33.1-20.7 44.9-10.1 8.7-22.1 13.6-35 15.7-12.1 2-24.5 3.4-36.7 3.7-16.5.4-33-.3-49.5-1.1-12-.6-23.7-3.2-34.8-7.8-23.4-9.6-34.9-28.1-37.7-52.4-2.7-23-2.7-46-1.5-69.1.5-11.8 1.1-23.4 3.6-35C9.5 30.1 23.2 15.6 45.2 8.5c13.4-4.3 27.1-6.7 41-7 15.5-.4 31-.4 46.5 0 13.5.4 26.9 2.6 39.9 6.6 25.8 7.8 39.8 25.7 43 51.7 2.1 17.1 2.5 34.5 3.4 47.8zm-179.5 2.2c.6 13.1 1 26.2 1.7 39.3.9 16.4 6.4 22.7 22.3 26.4.8.2 1.6.3 2.3.4 9.9 1 19.8 2.1 29.7 2.9 19.9 1.5 39.8.7 59.4-3.3 16.8-3.5 20.6-9 22.4-23.6.2-2 .7-3.9.8-5.9.4-17.7 1-35.4.9-53.1 0-9.3-.9-18.7-2.3-27.9-1.6-10.7-7.4-18.7-18.5-21-9.1-1.9-18.4-3.2-27.7-3.6-13.9-.6-27.9-.6-41.8 0-9.5.4-19 1.7-28.3 3.6-9.3 1.9-15.2 8.3-17.6 17.6-.8 3.3-1.5 6.6-1.6 10-.7 12.7-1.2 25.4-1.7 38.2z"/></svg>