<svg xmlns="http://www.w3.org/2000/svg" viewBox="0 0 500 500" style="enable-background:new 0 0 500 500" xml:space="preserve"><path d="M189 488.3c-21.5.2-43-.3-64.4-2.5-25.7-2.6-51-7-74.9-17.6-13.5-6-25.6-14-35.2-25.6-20.4-24.7-22-71.4 12.7-97.6 14.1-10.7 30-17.3 46.8-22.1 21.3-6.1 43.2-8.9 65.2-10.6 26.7-2 53.5-1.8 80.3-1 29.5.9 58.9 3.5 87.5 11.4 15.7 4.4 30.6 10.5 44 19.9 34.2 24 35.3 68.9 18 94.3-6 8.9-13.7 16-22.6 21.8-15.2 9.9-32.1 15.9-49.7 20-32.1 7.5-64.8 9.6-97.7 9.6h-10zm-2.8-37.6c32.6.1 61.4-1 90-6 14.3-2.5 28.3-5.9 41.3-12.3 6.5-3.2 12.5-7.2 17.3-12.8 10-11.6 10.2-27.9.4-39.8-5.1-6.2-11.7-10.3-18.8-13.7-10.8-5.2-22.3-8.2-34-10.5-23.6-4.7-47.6-6.5-71.6-6.9-26.4-.5-52.7-.4-79 2.2-16.3 1.7-32.5 4-48.4 8.4-11.7 3.3-22.9 7.7-32.7 15.2-17.1 13.3-17.7 36.7-.5 50.4 6.5 5.2 13.8 8.8 21.5 11.7 15.3 5.7 31.2 8.5 47.3 10.5 23.6 2.9 47.2 3.8 67.2 3.6zm4-439c70.6-.3 128.3 58 128.4 128.7.1 67.5-54.4 128-128.3 128.1-71.2.2-129.1-58-128.7-129.1.3-72.4 59.9-128.2 128.6-127.7zm-.2 37.5c-50.3 0-91 40.7-90.9 90.9 0 50 41 90.9 91.1 90.9 50.3 0 90.8-40.6 90.7-91-.1-50.3-40.6-90.8-90.9-90.8zm248.9 40.2c-16.2-27.8-40.4-44.5-72.2-49.7-10-1.6-18.9 5.3-20.8 15.4-1.7 9.1 4.3 18.5 13.6 21.1 1.7.5 3.4.8 5.1 1.2 27.1 5.9 47.6 28.9 49.8 56 2.4 28.5-13.8 54.7-40 65.2-5.3 2.1-10.9 3-16.4 4.4-9.6 2.3-15.2 10.8-14.1 20.7 1.1 9 8.6 15.8 18 16 2.5 0 5.1-.2 7.6-.7 47.7-9.2 82.4-51 82.5-99.3.2-17.9-4-34.8-13.1-50.3zm56.4 253.1c-5.5-12-14.5-20.6-25.8-27.1-11.6-6.8-24.2-10.8-37.2-13.6-5.5-1.2-11-2.6-16.7-2.6-9.6-.1-17.7 6.9-18.8 15.9-1.2 9.9 4.5 18.3 14 20.8 1.9.5 3.8.8 5.7 1.1 8.8 1.5 17.6 3.5 26 6.8 4.6 1.8 8.9 4 12.6 7.2 10.2 8.8 9.8 21.3-1 29.4-3.9 3-8.4 4.9-12.9 6.8-10.3 4.5-14.8 14.7-10.8 24.5 3.9 9.8 14.3 14.1 24.7 10.3 6.6-2.5 12.9-5.6 18.7-9.6 16.7-11.3 25.7-26.8 26.1-45.4.1-9.7-1.5-17.7-4.6-24.5z"/></svg>