<svg xmlns="http://www.w3.org/2000/svg" viewBox="0 0 500 500" style="enable-background:new 0 0 500 500" xml:space="preserve"><path d="M249.3 217.5c28.9.1 57.7 1.2 86.4 4 15.3 1.5 30.3 4.8 45.3 8.7 22 5.7 41.6 32 33.9 59.8-4.5 15.9-10.9 31.1-18.6 45.6-22.7 42.8-49.7 82.9-81 119.9-9.1 10.8-19.2 20.7-29.7 30.1-16.1 14.5-34.5 18.1-54.9 10.6-6-2.2-11.1-5.8-15.8-10.1-19.9-17.9-37.3-38.1-53.2-59.6-23.9-32.3-46-65.7-63.6-101.9-5.9-12.1-10.4-24.7-13.6-37.8-4.7-19.6 6.4-48.1 33.9-56.4 15.2-4.6 30.7-7.4 46.5-9 28.1-2.8 56.2-3.8 84.4-3.9zM250.1 0c-24.3-.2-44.2 20.7-42 44.6 3.1 34.1 6 68.2 9 102.3 1.5 17.5 15.5 30.3 33 30.2 17.2-.1 31.1-12.7 32.6-29.9 1.4-15.8 2.8-31.5 4.2-47.3 1.7-18.6 3.3-37.1 5-55.7 2-22.5-16.5-44-41.8-44.2z"/></svg>