<svg xmlns="http://www.w3.org/2000/svg" viewBox="0 0 500 500" style="enable-background:new 0 0 500 500" xml:space="preserve"><path d="M282.4 244.8c-.1 33.5-1.3 62.1-4 90.6-1.5 15.8-4.5 31.3-9.1 46.5-6.3 20.8-26.6 35.3-48.2 34.7-7-.2-13.6-2.3-20.2-4.5-18.4-6.1-35.6-14.8-52.3-24.4-36.7-21.1-71.7-44.7-103.9-72.3-12.2-10.4-23.8-21.6-33.8-34.2C-5 261-3.3 233.7 14 214.6c26.1-28.9 56.8-52.1 88.8-73.9 23.5-16 47.6-30.9 73.3-43.1 11.4-5.4 23.1-10.1 35.4-12.7 19.3-4.1 35.5 1.7 48.5 16.3 5.3 5.9 8.6 12.9 10.6 20.6 5.1 20 8.1 40.3 9.5 60.9 1.4 22.2 2.2 44.6 2.3 62.1zm143.1-34.1c-24.8 2.2-49.6 4.2-74.4 6.6-15.8 1.5-28.1 15.8-28.2 32.2-.1 16.8 12.1 31.2 28 33 8.6 1 17.3 1.7 25.9 2.4 23.3 2.1 46.6 4.2 69.9 6.2 6.9.6 13.8 1.5 20.7-.1 20.9-4.9 35.2-25.2 32.3-46.2-3.4-24.7-24.6-38.5-43.8-36.9-10.2.9-20.3 1.9-30.4 2.8z"/></svg>