<svg xmlns="http://www.w3.org/2000/svg" viewBox="0 0 500 500" style="enable-background:new 0 0 500 500" xml:space="preserve"><path d="M251.3 387.2c-18.9-.3-35.3-5.6-50.9-13.8-23.7-12.4-43.9-29.4-62.9-47.9-34.7-34-64.3-72.2-92.2-111.9-14.2-20.2-27.8-40.8-40.6-61.9-2.8-4.6-4.8-9.4-4.7-14.9.1-10 5.9-18.7 15.2-22.3 9.3-3.6 19.4-1.4 26.4 5.9 2.5 2.6 4.1 5.7 6 8.7 29 46.7 60.5 91.7 96.7 133.1 18.8 21.5 38.8 41.7 62.2 58.3 8 5.7 16.6 10.5 25.7 14.3 11.5 4.8 22.9 5 34.5.4 12.6-4.9 23.8-12.1 34.4-20.3 23.7-18.3 44-39.9 63.2-62.8 33-39.2 62.2-81.1 89-124.8 4.1-6.7 9-12.1 17-13.9 9.5-2.2 17.5.5 23.8 7.7 6.4 7.3 7.4 15.8 4.1 24.8-.9 2.3-2.2 4.5-3.5 6.7-30.6 49.6-64 97.2-102.4 141.2-21.3 24.4-43.9 47.3-70.5 66-16.6 11.7-34.2 21.3-54.3 25.4-5.8 1.2-11.6 1.6-16.2 2z"/></svg>