<svg xmlns="http://www.w3.org/2000/svg" viewBox="0 0 500 500" style="enable-background:new 0 0 500 500" xml:space="preserve"><path d="M111.1 251.1c.4-18 5.2-34 13-49.2 8.9-17.4 20.5-32.9 33.2-47.6 22.1-25.4 47.1-47.6 73.4-68.6 36.7-29.3 75.1-56 115.1-80.5 4.8-2.9 9.7-5.2 15.5-5.1 10.3.1 19.3 6.3 22.7 15.8 3.5 9.6.8 20.1-7.2 26.7-3.1 2.5-6.7 4.5-10.1 6.7-53.4 33.6-104.9 69.8-150.6 113.6-18.4 17.6-35.6 36.4-47.8 59.1-2 3.8-3.7 7.7-5.3 11.7-4.5 11-4.3 22 0 33.1 5.1 13.1 12.6 24.6 21.2 35.6 18.1 23.2 39.4 43.2 61.8 62 38.8 32.7 80.3 61.7 123.5 88.2 7.3 4.5 13.6 9.4 15.4 18.5 1.8 9.3-.8 17-7.7 23.2-7 6.2-15.2 7.3-24 4.5-1.9-.6-3.7-1.6-5.4-2.6-58.9-36.4-115.3-76-165.4-124-19.3-18.5-37.1-38.4-51.2-61.4-10.3-16.7-18-34.3-19.6-54.2-.2-2.3-.4-4.3-.5-5.5z"/></svg>