<svg xmlns="http://www.w3.org/2000/svg" viewBox="0 0 500 500" style="enable-background:new 0 0 500 500" xml:space="preserve"><path d="M387.3 248.7c-.3 18.9-5.6 35.3-13.8 50.9-12.4 23.7-29.4 43.9-47.9 62.9-34 34.7-72.2 64.3-111.9 92.2-20.2 14.2-40.8 27.8-61.9 40.6-4.6 2.8-9.4 4.8-14.9 4.7-10-.1-18.7-5.9-22.3-15.2-3.6-9.3-1.4-19.4 5.9-26.4 2.6-2.5 5.7-4.1 8.7-6 46.7-29 91.7-60.5 133.1-96.7 21.5-18.8 41.7-38.8 58.3-62.2 5.7-8 10.5-16.6 14.3-25.7 4.8-11.5 5-22.9.4-34.5-4.9-12.6-12.1-23.8-20.3-34.4-18.3-23.7-39.9-44-62.8-63.2-39.2-33-81.1-62.2-124.8-89-6.7-4.1-12.1-9-13.9-17-2.2-9.5.5-17.5 7.7-23.8C128.5-.5 137-1.5 146 1.8c2.3.9 4.5 2.2 6.7 3.5 49.6 30.6 97.2 64 141.2 102.4 24.4 21.3 47.3 43.9 66 70.5 11.7 16.6 21.3 34.2 25.4 54.3 1.2 5.8 1.6 11.6 2 16.2z"/></svg>