<svg xmlns="http://www.w3.org/2000/svg" viewBox="0 0 500 500" style="enable-background:new 0 0 500 500" xml:space="preserve"><path d="M78.9 227.4h398.2c12.6.3 22.3 9.4 22.9 21.6.6 11.8-8.6 22.3-20.9 23.7-2.8.3-5.7.2-8.5.2H87.8c-2.8 0-5.6-.5-8.5.5.9 2.7 3.2 4.1 5 5.9 44.9 44.8 89.9 89.6 134.9 134.3 4.1 4 7.8 8.2 9 14.1 1.9 9.2-1.6 18.4-9.3 23.6-7.4 5.1-17.9 5.1-25.4.1-1.9-1.3-3.7-2.9-5.4-4.6C127.9 387 67.8 327.2 7.8 267.4c-5.6-5.5-8.3-11.8-7.7-19.7.5-6 3.4-10.7 7.5-14.8 9.9-9.9 19.8-19.7 29.7-29.6 50-49.8 100-99.5 150-149.3 3.9-3.9 7.9-7.4 13.6-8.5 9.9-2 19.3 1.9 24.4 10.3 5 8.2 4.4 18.3-1.7 25.9-1.8 2.2-3.9 4.2-5.9 6.2-44.8 44.6-89.5 89.2-134.3 133.9-1.5 1.3-3.3 2.5-4.5 5.6z"/></svg>