<svg xmlns="http://www.w3.org/2000/svg" viewBox="0 0 500 500" style="enable-background:new 0 0 500 500" xml:space="preserve"><path d="M420.7 272.6H23.4c-13.2-.3-23-9.5-23.3-22-.2-12.4 9.2-22.3 22.2-23.2 2.6-.2 5.2-.1 7.8-.1h392.4c-3-3.2-4.8-5.2-6.8-7.2-44.8-44.7-89.6-89.5-134.5-134.2-4.2-4.2-8.2-8.5-9.1-14.8-1.5-9.6 1.5-17.5 9.6-22.8 8-5.4 16.6-5.2 24.8-.1 2.6 1.6 4.8 3.9 7 6 59.1 59 118.2 118 177.3 176.9 4.3 4.3 8.2 8.7 9.1 14.9 1.2 8.3-1.3 15.3-7.4 21.3-13.4 13.1-26.6 26.4-39.8 39.7-46.7 46.6-93.4 93.1-140 139.8-5.5 5.5-11.4 9.3-19.3 8.9-8.8-.4-15.4-4.6-19.2-12.6-4-8.2-3.1-16.2 2.2-23.5 1.6-2.3 3.8-4.2 5.8-6.2 44.6-44.6 89.3-89.2 133.9-133.8 1.8-1.8 3.5-3.7 5.3-5.5-.3-.5-.5-1-.7-1.5z"/></svg>