<svg xmlns="http://www.w3.org/2000/svg" viewBox="0 0 500 500" style="enable-background:new 0 0 500 500" xml:space="preserve"><path d="M272.8 79.3v397.3c-.3 13.2-9.5 23-22 23.3-12.4.2-22.3-9.2-23.2-22.2-.2-2.6-.1-5.2-.1-7.8V77.5c-3.2 3-5.2 4.8-7.2 6.8-44.7 44.8-89.5 89.6-134.2 134.5-4.2 4.2-8.5 8.2-14.8 9.1-9.6 1.5-17.5-1.5-22.8-9.6-5.4-8-5.2-16.6-.1-24.8 1.6-2.6 3.9-4.8 6-7 59-59.1 118-118.2 176.9-177.3C235.6 4.9 240 1 246.2.1c8.3-1.2 15.3 1.3 21.3 7.4 13.1 13.4 26.4 26.6 39.7 39.8 46.6 46.7 93.1 93.4 139.8 140 5.5 5.5 9.3 11.4 8.9 19.3-.4 8.8-4.6 15.4-12.6 19.2-8.2 4-16.2 3.1-23.5-2.2-2.3-1.6-4.2-3.8-6.2-5.8-44.6-44.6-89.2-89.3-133.8-133.9-1.8-1.8-3.7-3.5-5.5-5.3-.5.3-1 .5-1.5.7z"/></svg>