<svg xmlns="http://www.w3.org/2000/svg" viewBox="0 0 500 500" style="enable-background:new 0 0 500 500" xml:space="preserve"><path d="M256.6 229.3c3.4 1.2 6 .8 8.6.8h207.6c2.8 0 5.6-.1 8.5.1 10.6.8 18.7 9.4 18.7 19.7 0 10.3-8.1 18.9-18.7 19.7-2.8.2-5.6.2-8.5.2H257.4c-1.1 2.7-.7 5.1-.7 7.4v101.5c0 2.8.1 5.7-.5 8.4-2.7 11.8-15.5 18.5-27 14.1-2.4-.9-4.7-2.3-6.9-3.6C152.8 355 83.4 312.3 14 269.6c-1.7-1-3.3-2-4.9-3.1-12-8.4-12.1-24.8.1-32.9 9.7-6.5 19.9-12.4 29.8-18.5 61.3-37.7 122.6-75.4 183.8-113.2 4.7-2.9 9.6-4.9 15.3-4.4 10 .8 17.8 8.5 18.5 18.5.1 2.2.1 4.3.1 6.5v99.6c-.1 2.3-.1 4.7-.1 7.2z"/></svg>