<svg xmlns="http://www.w3.org/2000/svg" viewBox="0 0 500 500" style="enable-background:new 0 0 500 500" xml:space="preserve"><path d="M230.2 242.6v-217c0-2.6-.1-5.2.2-7.8.9-10 9.8-18 19.8-17.9 9.8.1 18.4 7.9 19.4 17.6.3 2.8.2 5.6.2 8.5v216.5c2.9 1.3 5.3.8 7.6.8h102.2c2.8 0 5.6-.2 8.4.7 11.4 3.4 17.6 15.7 13.3 27-.9 2.4-2.3 4.7-3.6 6.9-42.8 69.6-85.7 139.2-128.5 208.9-.9 1.5-1.8 3-2.8 4.4-8.5 11.9-24.5 11.7-32.9-.3-1-1.4-1.9-2.9-2.8-4.4-42.7-69.4-85.5-138.9-128.2-208.3-2-3.3-4.2-6.6-4.8-10.6-2.4-15.6 10-24.4 20.5-24.3 34.7.3 69.4.1 104.2.1 2.3 0 4.7.4 7.8-.8z"/></svg>