<svg xmlns="http://www.w3.org/2000/svg" viewBox="0 0 500 500" style="enable-background:new 0 0 500 500" xml:space="preserve"><path d="M242.7 269.8h-217c-2.6 0-5.2.1-7.8-.2-10-.9-18-9.8-17.9-19.8.1-9.8 7.9-18.4 17.6-19.4 2.8-.3 5.6-.2 8.5-.2h216.5c1.3-2.9.8-5.3.8-7.6V120.4c0-2.8-.2-5.6.7-8.4 3.4-11.4 15.7-17.6 27-13.3 2.4.9 4.7 2.3 6.9 3.6 69.6 42.8 139.2 85.7 208.9 128.5 1.5.9 3 1.8 4.4 2.8 11.9 8.5 11.7 24.5-.3 32.9-1.4 1-2.9 1.9-4.4 2.8-69.4 42.7-138.9 85.5-208.3 128.2-3.3 2-6.6 4.2-10.6 4.8-15.6 2.4-24.4-10-24.3-20.5.3-34.7.1-69.4.1-104.2 0-2.3.4-4.7-.8-7.8z"/></svg>