<svg xmlns="http://www.w3.org/2000/svg" viewBox="0 0 500 500" style="enable-background:new 0 0 500 500" xml:space="preserve"><path d="M250 .4c138.2-.1 250.4 112 250.1 249.9C499.8 388 387.9 499.6 250 499.6 111.8 499.6-.4 387.5-.1 249.7.2 111.6 111.8.5 250 .4zM355.7 214c0-8.7-5.3-15.8-13.7-18.3-7.8-2.3-14.1.4-19.6 5.9-22.9 23-45.8 45.9-68.7 68.8-3.6 3.6-3.7 3.6-7.2.1L215 239l-37.7-37.7c-5-5-10.9-7.6-18-6-7.3 1.6-12.2 6.1-14.3 13.2-2.2 7.4 0 13.7 5.5 19.2 28.3 28.3 56.5 56.8 84.8 85.1 9.3 9.3 20.1 9.4 29.4.2 6.4-6.3 12.7-12.7 19.1-19.1 21.8-21.9 43.5-43.8 65.3-65.6 3.9-3.9 6.7-8.4 6.6-14.3z"/></svg>