<svg xmlns="http://www.w3.org/2000/svg" viewBox="0 0 500 500" style="enable-background:new 0 0 500 500" xml:space="preserve"><path d="M250.2 499.5C112 499.6-.2 387.5.1 249.6.4 111.9 112.3.3 250.2.3c138.2 0 250.4 112.1 250.1 249.9-.3 138.1-111.9 249.2-250.1 249.3zM144.5 285.9c0 8.7 5.3 15.8 13.7 18.3 7.8 2.3 14.1-.4 19.6-5.9 22.9-23 45.8-45.9 68.7-68.8 3.6-3.6 3.7-3.6 7.2-.1l31.5 31.5 37.7 37.7c5 5 10.9 7.6 18 6 7.3-1.6 12.2-6.1 14.3-13.2 2.2-7.4 0-13.7-5.5-19.2-28.3-28.3-56.5-56.8-84.8-85.1-9.3-9.3-20.1-9.4-29.4-.2-6.4 6.3-12.7 12.7-19.1 19.1-21.8 21.9-43.5 43.8-65.3 65.6-3.9 3.9-6.7 8.4-6.6 14.3z"/></svg>