<svg xmlns="http://www.w3.org/2000/svg" viewBox="0 0 500 500" style="enable-background:new 0 0 500 500" xml:space="preserve"><path d="M250.4 0C387.7-.4 499.8 111.8 500 249.8c.2 138-111.9 250.1-250 250.1C112.3 500.1.2 387.5 0 250.4-.2 112.8 112-.4 250.4 0zm-24.3 249.7c1.1-1.2 2-2.2 2.9-3.2 11.7-11.7 23.5-23.4 35.3-35.1 11.3-11.3 22.6-22.6 34-33.9 4.4-4.3 7.1-9.4 6.6-15.6-.7-7.7-4.6-13.2-11.8-16.1-7.2-2.9-13.8-1.6-19.5 3.7-4.5 4.3-8.9 8.8-13.3 13.2-24.2 24.1-48.5 48.2-72.7 72.2-3.1 3.1-5.8 6.3-6.7 10.7-1.5 7.3.6 13.4 5.9 18.6 11.6 11.4 23 22.8 34.5 34.2 17.2 17.1 34.5 34 51.4 51.3 7.4 7.5 19.4 7.3 26.4.7 7.7-7.3 7.8-18.6.4-26.8-1.2-1.3-2.5-2.5-3.7-3.7-21.6-21.5-43.2-43-64.7-64.5-1.7-1.6-3.6-3-5-5.7z"/></svg>