<svg xmlns="http://www.w3.org/2000/svg" viewBox="0 0 500 500" style="enable-background:new 0 0 500 500" xml:space="preserve"><path d="M.5 250C.4 111.8 112.5-.4 250.4-.1 388.1.2 499.7 112.1 499.7 250c0 138.2-112.1 250.4-249.9 250.1C111.7 499.8.6 388.2.5 250zm213.6-105.7c-8.7 0-15.8 5.3-18.3 13.7-2.3 7.8.4 14.1 5.9 19.6 23 22.9 45.9 45.8 68.8 68.7 3.6 3.6 3.6 3.7.1 7.2L239.1 285l-37.7 37.7c-5 5-7.6 10.9-6 18 1.6 7.3 6.1 12.2 13.2 14.3 7.4 2.2 13.7 0 19.2-5.5 28.3-28.3 56.8-56.5 85.1-84.8 9.3-9.3 9.4-20.1.2-29.4-6.3-6.4-12.7-12.7-19.1-19.1-21.9-21.8-43.8-43.5-65.6-65.3-3.9-3.9-8.4-6.7-14.3-6.6z"/></svg>