<svg xmlns="http://www.w3.org/2000/svg" viewBox="0 0 500 500" style="enable-background:new 0 0 500 500" xml:space="preserve"><path d="M384.7 252.7c-.1 5.5-3.7 11.8-9.4 17.3-13.1 12.7-26.2 25.6-39.3 38.4-61.4 60.3-123 120.6-184.5 180.9-4.8 4.7-9.7 8.8-16.5 10.2-11 2.1-21.9-2.4-27.7-11.9-5.8-9.5-4.9-21.2 2.6-29.9 1.3-1.5 2.7-2.8 4.1-4.2l222.3-217.8c5.7-5.6 11.5-10.4 19.9-11.2 15.1-1.4 28.5 10.4 28.5 28.2zm-87-98.7c-48.9-47.8-97.6-95.6-146.5-143.4-1.9-1.9-3.9-3.8-6-5.3-15.3-11.3-36.9-3.4-41.1 15-2.4 10.3 1.6 18.5 8.9 25.6 48.7 47.6 97.3 95.2 146 142.9 2.3 2.2 4.5 4.6 7 6.4 8.7 6.2 18.1 7.1 27.6 2.3 9.3-4.7 13.9-12.6 14-23 .2-8.6-4.1-14.9-9.9-20.5z"/></svg>