<svg xmlns="http://www.w3.org/2000/svg" viewBox="0 0 500 500" style="enable-background:new 0 0 500 500" xml:space="preserve"><path d="M247.3 384.6c-5.5-.1-11.8-3.7-17.3-9.4-12.7-13.1-25.6-26.2-38.4-39.3-60.3-61.4-120.6-123-180.9-184.5-4.7-4.8-8.8-9.7-10.2-16.5-2.1-11 2.4-21.9 11.9-27.7 9.5-5.8 21.2-4.9 29.9 2.6 1.5 1.3 2.8 2.7 4.2 4.1l217.8 222.3c5.6 5.7 10.4 11.5 11.2 19.9 1.4 15.1-10.4 28.5-28.2 28.5zm98.7-87c47.8-48.9 95.6-97.6 143.4-146.5 1.9-1.9 3.8-3.9 5.3-6 11.3-15.3 3.4-36.9-15-41.1-10.3-2.4-18.5 1.6-25.6 8.9-47.6 48.7-95.2 97.3-142.9 146-2.2 2.3-4.6 4.5-6.4 7-6.2 8.7-7.1 18.1-2.3 27.6 4.7 9.3 12.6 13.9 23 14 8.6.2 14.9-4.1 20.5-9.9z"/></svg>