<svg xmlns="http://www.w3.org/2000/svg" viewBox="0 0 1000 1000" style="enable-background:new 0 0 1000 1000" xml:space="preserve"><path d="M612.3 566.3c-105.3 0-210.6-.3-315.9.2-26 .1-46-8.8-58.5-31.8-12.9-23.7-12.5-48 1-71.3 12.6-21.8 32.3-30.1 57.5-30 137.2.5 274.3.2 411.5.2 75.5 0 151-.1 226.5.1 32.1.1 52.5 15.1 62.2 44.8 9 27.6-.7 59.5-23.1 76.6-12.2 9.3-26.2 11.3-41.1 11.3-106.7-.2-213.4-.1-320.1-.1zm-318-379.6c-48.7-.7-77.2 48.8-60.7 92.1 10.7 28.1 31.6 41.5 64.9 41.5 203 .1 405.9 0 608.9 0 10.4 0 20.8.3 31.2-.1 26.1-1 44.5-14.2 55.1-37.6 19.7-43.3-8.8-97.2-61.4-96.1-105.9 2.2-212 .6-318 .7-106.6 0-213.3 1.1-320-.5zm626 626.1c6.9 0 13.9-.1 20.8-.2 24-.5 40.3-13 51-33.5 22.8-43.8-6-100.2-60.2-99.9-212 1.2-424 1.1-635.9.1-53.3-.2-81.3 54.8-59.9 98.8 12.2 25.1 32.9 35.1 60.8 35 106-.6 212-.2 318-.2 101.8-.1 203.6-.1 305.4-.1zM170 254.4c.9-45.3-38.1-85.2-84.1-86-45.6-.8-85.2 37.9-85.8 84-.6 46.3 37.4 85 83.8 85.4 46.6.4 85.1-37 86.1-83.4zM0 746.5c-.1 46.1 38.7 85.1 84.7 85.1 45.8.1 85.2-39.2 85.3-84.9.1-45.9-38.7-84.4-85.1-84.5C38.3 662.2.2 700 0 746.5zm170-246.1c.4-45.7-38.4-84.7-84.7-85.1C39 415 .3 453.2.1 499.6c-.3 46.3 37.9 84.8 84.4 85 46.1.3 85.1-38.1 85.5-84.2z"/></svg>