<svg xmlns="http://www.w3.org/2000/svg" viewBox="0 0 1000 1000" style="enable-background:new 0 0 1000 1000" xml:space="preserve"><path d="M500.7.3c275.2-2.5 500.5 225.5 499.3 501.8-1.2 273.9-226.4 499.7-504.2 497.5C222.4 997.6-2.5 772.3 0 495 2.5 222.7 225.9-2.8 500.7.3zm0 454.4H255.2c-19.8 0-27.2 7.2-27.4 26.8-.2 11.9-.1 23.7 0 35.6.2 20.4 7.3 27.6 27.7 27.6 35.2.1 70.4 0 105.5 0h379.7c25.6 0 31.4-6 31.4-32V484c-.1-22.6-6.8-29.3-29.5-29.3H500.7zm.5-181.6H258c-24.2 0-30.2 6.1-30.3 30.7v27.5c0 25.6 6.1 31.7 31.8 31.7h450.8c12.6 0 25.2.3 37.9-.1 15.7-.5 23.2-7.9 23.8-23.4.5-12.2.2-24.5.1-36.7-.1-23.5-6.3-29.7-30.1-29.7H501.2zm-2 453.2h244.3c22 0 28.5-6.7 28.6-28.9v-29.8c0-25-6.3-31.3-31.1-31.3H259.2c-25.2 0-31.5 6.2-31.5 30.9V697c.1 22.8 6.5 29.3 29.4 29.3h242.1z"/></svg>