<svg xmlns="http://www.w3.org/2000/svg" viewBox="0 0 1000 1000" style="enable-background:new 0 0 1000 1000" xml:space="preserve"><path d="M500.8 63c125 0 250-.1 375 .1 52.7.1 98.7 32.1 116.5 81.6 29 81.1-27.4 164.6-114.4 168.2-2.8.1-5.6.1-8.4.1H131.4c-37.6 0-70.8-11.5-96.4-39.5-35.9-39.3-44.6-85.2-24.2-133.9 20.7-49.3 60-75.9 113.8-76.2 125.4-1 250.8-.4 376.2-.4zm-.4 186.9h363.1c5.6 0 11.2.2 16.7-.3 23.9-2.1 41.3-14.2 51.2-35.7 10-21.5 7.9-42.7-5.7-62.2-14.4-20.5-35.4-26.7-59.4-26.7-244.1.1-488.2 0-732.2.1-6.3 0-12.8.5-19 1.6-23 4-39.3 17.1-47.6 38.7-8.5 22.1-5.1 43.1 9.8 61.7 13.8 17.1 32.3 23 53.9 23 123.1-.4 246.1-.3 369.2-.2zm-.8 687.2c-125 0-250 .1-375-.1-52.6 0-98.7-32.3-116.3-81.8-28.8-81 27.5-164.5 114.8-167.9 3.6-.1 7.2-.1 10.7-.1 244.4 0 488.9.1 733.3-.1 32.1 0 61.4 7.8 86.6 28.3 42.1 34.3 55.9 87.7 39.8 136.7-16.6 50.7-63.6 84.8-116.5 84.9-125.8.3-251.6.1-377.4.1zm.7-186.8H137.2c-5.6 0-11.2-.2-16.7.3-23.9 2.1-41.3 14.2-51.3 35.6-10 21.5-7.9 42.7 5.7 62.2 14.3 20.5 35.4 26.8 59.3 26.7 244.1-.1 488.2 0 732.2-.1 6.3 0 12.7-.5 19-1.6 23-3.9 39.3-17 47.6-38.7 8.5-22.1 5.2-43.1-9.8-61.7-13.8-17.1-32.2-23-53.8-23-123 .4-246.1.3-369.1.3zm0-125.5c-123.5 0-246.9-.2-370.4.1-39.4.1-72.8-13-98.4-43C-1.8 543-8.7 498.2 11 451.4c20-47.4 57.7-72.6 109.4-75.9 4.4-.3 8.8-.2 13.1-.2 244.5 0 489.1.1 733.6-.1 26.5 0 51.4 4.6 74 18.9 44.2 27.9 66.1 78.1 56.5 129.7-9.3 49.8-48.9 89.5-99.6 98.9-10.1 1.9-20.6 2-30.9 2-122.3.1-244.5.1-366.8.1zm.4-187.2H134c-5.6 0-11.2 0-16.7.8-35.4 5.4-59 36.9-53.2 70.9 5.6 33 30.3 53.1 66 53.1 246.8.1 493.7.1 740.5-.1 7.1 0 14.4-.8 21.2-2.7 42.3-11.3 59.4-63.3 32.3-97.8-13.9-17.7-32.6-24.4-54.5-24.4-122.8.3-245.8.2-368.9.2z"/></svg>