<svg xmlns="http://www.w3.org/2000/svg" viewBox="0 0 1000 1000" style="enable-background:new 0 0 1000 1000" xml:space="preserve"><path d="M999.9 95.4v174.9c0 11.8-.1 11.9-11.8 11.9H12.5C.2 282.2.2 282.1.2 269.6V109c0-15.2-1.7-13.6 13.6-13.6h986.1zm-13.4 498.8c15.1 0 13.3.5 13.3-12.9 0-52.7.1-105.4 0-158.2 0-18.2 2.7-16.1-16.1-16.1H12.8C.1 407 .1 407 .1 419.2v90c0 25.6.2 51.1-.1 76.6-.1 6.4 2.1 8.9 8.3 8.3 3.2-.3 6.5 0 9.7 0h480.6c162.7.1 325.3.1 487.9.1zM1.1 904.7h998.8v-13.9c0-52.3.1-104.6 0-156.9 0-15.2 2.8-14.7-15.3-14.7H1.1v185.5z"/></svg>