<svg xmlns="http://www.w3.org/2000/svg" viewBox="0 0 1000 1000" style="enable-background:new 0 0 1000 1000" xml:space="preserve"><path d="M500.9 0h369c67 0 118.3 43.3 129.2 109.4 1 6 .8 12.3.8 18.5 0 247.8.1 495.6 0 743.4 0 69.1-58.4 128.4-127.9 128.5-250.3.3-500.7.3-751 0C56.5 999.7.2 943.4.1 878.8c-.3-250.3-.3-500.7 0-751C.3 58.2 59.3.1 128.7 0h372.2zm-1.3 717.8c80.4 0 160.8 0 241.2-.1 5.4 0 11-.3 16.2-1.4 14.2-3.1 23.8-15.6 23.6-30-.2-14-9.6-26.2-23.3-29.3-5.6-1.2-11.5-1.5-17.3-1.5-160.1-.1-320.1.2-480.2-.3-29.6-.1-40.2 15.6-40.3 31.2-.1 15.8 10.7 31.9 39.9 31.6 80.1-.7 160.1-.2 240.2-.2zm.6-374.9h145.1c34.2 0 68.4.2 102.6-.1 22.1-.1 36.5-17.7 31.8-38.3-3.3-14.5-15.3-23.2-32.6-23.2H252.8c-1.5 0-2.9 0-4.4.1-18 1.2-30.7 16.4-28.5 34.3 2 16.7 14.8 27.2 33.8 27.2h246.5zm.5 125.7H260.6c-4.7 0-9.5-.1-14.2.4-14.7 1.6-25.2 12.5-26.7 27.2-1.5 14.9 7.3 28.4 21.8 32.3 5.5 1.5 11.5 1.8 17.2 1.8 160.8.1 321.5.1 482.3 0 5.4 0 11-.2 16.2-1.5 17.5-4.3 27.1-21.6 21.9-38.9-4.1-13.9-15.8-21.4-34.1-21.4-81.4 0-162.9.1-244.3.1z"/></svg>