<svg xmlns="http://www.w3.org/2000/svg" viewBox="0 0 1000 1000" style="enable-background:new 0 0 1000 1000" xml:space="preserve"><path d="M499.5 410.6c135.1 0 270.3.1 405.4 0 27 0 51 7.7 69.4 27.9 25.1 27.6 33 59.5 18.4 94.7-14.5 34.8-41.6 52.9-79 56.1-3.4.3-6.9.2-10.4.2-269.1 0-538.2 0-807.3.1-30.1 0-55.9-9.3-75.2-33-46.4-57.2-9.1-132.5 51.6-143.7 8.2-1.5 16.8-2 25.2-2 133.9-.3 267.9-.3 401.9-.3zm403.7-106.9c9.2 0 18.5-.5 27.4-2.4 47.4-10.3 78.7-61.7 66.5-107.4-11.9-44.9-52.7-69.4-90.8-69.4-271.1.3-542.2.1-813.3.4-10.5 0-21.4 2-31.5 5.2-48.4 15.6-76.8 72.4-53.1 121.2 16.9 34.8 45.1 52.4 83.7 52.4 135.9.2 271.9.1 407.8.1 134.5 0 268.9.1 403.3-.1zM96.8 696.3c-9.2 0-18.6.4-27.4 2.4C14.7 711.3-10 769.3 4.1 811.5c12.3 36.6 48.2 63.9 87.9 63.9 271.5-.1 542.9-.1 814.4.1 12.2 0 23.4-2.6 34.8-6.5 43.7-15.3 74.5-71 49.6-121.1-17-34.2-45-51.5-83.1-51.5-135.5-.1-271.1-.1-406.6-.1-134.8-.1-269.6-.1-404.3 0z"/></svg>