<svg xmlns="http://www.w3.org/2000/svg" viewBox="0 0 491.79 491.79"><g data-name="Calque 2"><path d="M107.12 214.11c-12 0-24-.43-35.91.09-24.91 1.08-43.52-10-57.95-29.25C4.57 173.38-.2 160.43 0 145.57c.38-26.94.06-53.89.12-80.83C.2 29.63 29.58.25 64.75.17 91.19.1 117.64.56 144.08 0c23.69-.48 41.52 9.9 55.64 27.88a65 65 0 0 1 14.47 42.51c-.43 26.27-.07 52.55-.13 78.83C214 184.49 184.34 214 149 214.1c-13.93.04-27.91.01-41.88.01Zm48.39 277.44a41.84 41.84 0 0 0 10.33-1.36c27.71-7.37 48.17-34 48.22-62.64q.08-41.66 0-83.31a46.12 46.12 0 0 0-.56-7.43c-4.2-26.34-29.5-58.74-68.42-58.89-27.76-.11-55.54-.19-83.26.81C27.48 280 .17 309.2.12 343.53q-.06 41.66 0 83.31a41.58 41.58 0 0 0 .63 8.43C5 455.5 16.2 471 33.27 482.42a53 53 0 0 0 32.45 9.33c14.12-.56 28.27-.13 42.4-.13 15.8-.01 31.6.07 47.39-.07ZM491.72 67.8c.74-15.38-4.55-28.42-13.75-40.08C463.82 9.78 445.91-.49 422.21 0c-26.76.57-53.54-.19-80.3.35A61.09 61.09 0 0 0 319.68 5c-28.12 12-41.32 34.35-41.81 64.36-.41 24.77-.16 49.55-.06 74.32A67.27 67.27 0 0 0 291.68 185c14.53 19.16 33.07 29.92 58 29.24 25.42-.69 50.88-.26 76.32-.09a67.65 67.65 0 0 0 27.13-5.55c22.14-9.33 39.9-34.8 38.63-58-.77-14.09-.14-28.26-.14-42.4-.03-13.46-.55-26.96.1-40.4ZM429 491.71a54.35 54.35 0 0 0 32.51-9.31c19-12.71 30.26-29.86 30.15-53.51-.14-29.76 0-59.52-.11-89.29a35.2 35.2 0 0 0-1.61-11.26c-9.37-27.11-33.19-50.17-66.15-50.39-28.59-.19-57.19-.11-85.75.91-17.18.61-31.35 9-42.94 21.65-12.5 13.63-17.13 30.12-17.24 48.13-.15 22.94.24 45.89-.12 68.83-.31 19.51 5.17 36.8 18.27 51.3 12.7 14.05 27.61 23.66 47.69 22.94 13.95-.5 27.93-.09 41.9-.09 14.4 0 28.9-.32 43.4.09Z" data-name="Calque 1"/></g></svg>