<svg xmlns="http://www.w3.org/2000/svg" viewBox="0 0 500 500" style="enable-background:new 0 0 500 500" xml:space="preserve"><path d="M230.3 242.6v-217c0-2.6-.1-5.2.2-7.8.9-10 9.8-18 19.8-17.9 9.8.1 18.4 7.8 19.4 17.6.3 2.8.2 5.6.2 8.5v216.5c2.8 1.4 5.2.8 7.6.9h102c2.8 0 5.6-.2 8.4.6 9.8 2.9 15.6 12 14.4 22.6-1.1 9.6-9 16.8-18.9 17.3-2.4.1-4.8.1-7.1.1H153.5c32.3 52.5 64.1 104.3 96.1 156.4 2.5-1.5 3.4-3.8 4.5-5.7 20.1-32.7 40.2-65.3 60.2-98 3.4-5.6 7.6-10 14.3-11.2 7.6-1.4 14.3.6 19.1 6.8 4.9 6.3 6 13.3 3 20.8-.8 2-2 3.8-3.1 5.7-26.2 42.7-52.4 85.3-78.5 128-1 1.7-2 3.3-3.2 4.9-8.2 11-23.4 11.1-31.7.2-1-1.4-1.9-2.9-2.8-4.4-43-70-86-140-129-209.9-2.6-4.3-4.8-8.7-4.7-13.9.1-11.3 8.3-19.8 19.5-20.2 1.7-.1 3.5 0 5.2 0h100.1c2.2-.1 4.6.3 7.8-.9z"/></svg>