<svg xmlns="http://www.w3.org/2000/svg" viewBox="0 0 500 500" style="enable-background:new 0 0 500 500" xml:space="preserve"><path d="M257.4 230.2h217c2.6 0 5.2-.1 7.8.2 10 .9 18 9.8 17.9 19.8-.1 9.8-7.8 18.4-17.6 19.4-2.8.3-5.6.2-8.5.2H257.5c-1.4 2.8-.8 5.2-.9 7.6v102c0 2.8.2 5.6-.6 8.4-2.9 9.8-12 15.6-22.6 14.4-9.6-1.1-16.8-9-17.3-18.9-.1-2.4-.1-4.8-.1-7.1V153.4c-52.5 32.3-104.3 64.1-156.4 96.1 1.5 2.5 3.8 3.4 5.7 4.5 32.7 20.1 65.3 40.2 98 60.2 5.6 3.4 10 7.6 11.2 14.3 1.4 7.6-.6 14.3-6.8 19.1-6.3 4.9-13.3 6-20.8 3-2-.8-3.8-2-5.7-3.1-42.7-26.2-85.3-52.4-128-78.5-1.7-1-3.3-2-4.9-3.2-11-8.2-11.1-23.4-.2-31.7 1.4-1 2.9-1.9 4.4-2.8 70-43 140-86 209.9-129 4.3-2.6 8.7-4.8 13.9-4.7 11.3.1 19.8 8.3 20.2 19.5.1 1.7 0 3.5 0 5.2v100.1c.1 2.2-.3 4.6.9 7.8z"/></svg>