<svg xmlns="http://www.w3.org/2000/svg" viewBox="0 0 500 500" style="enable-background:new 0 0 500 500" xml:space="preserve"><path d="M247.7 270.6H26.8c-2.4 0-4.8.1-7.1-.1-10.1-.6-18.3-8.4-19.4-18.4s5.4-19.3 15.2-22c3.4-.9 6.8-.9 10.3-.9h221.6c.4-6.3.9-12.1 1.1-17.9.7-20.3 2.4-40.5 5.5-60.5 1.4-9 3.2-17.8 6.4-26.3 2.2-6 5.2-11.4 9.9-15.7 7.4-6.7 16.4-8.3 25.9-7.3 10.2 1 19.8 4.2 29.2 7.9 18.5 7.3 36 16.5 53.1 26.6 32 18.9 62.8 39.5 90.4 64.5 8 7.3 15.5 15 21.7 23.9 1.7 2.5 3.3 5.1 4.7 7.7 6.4 11.9 6.3 23.9-.1 35.8-4.8 9.1-11.3 16.8-18.4 24-16.5 16.9-35.1 31.3-54.3 44.8-25.3 17.8-51.5 34-79.4 47.2-12.7 6-25.6 11.3-39.5 14-6 1.1-12.1 1.4-18 .4-10.3-1.6-17.6-7.6-22.5-16.7-5.1-9.4-7.3-19.8-9.1-30.2-4.2-23.9-5.2-48-6.2-72.1-.2-2.6-.1-5.2-.1-8.7zm50.1 86.1c2.5-.7 4.7-1.2 6.9-1.9 7.4-2.3 14.5-5.4 21.5-8.8 32.1-15.5 62-34.8 90.3-56.4 11.2-8.5 21.9-17.5 31.6-27.7 3.6-3.7 7.1-7.4 9.7-12.4-4.3-6.7-9.8-12.2-15.5-17.4-25.7-23.6-54.5-42.8-84.5-60.5-16.2-9.5-32.7-18.4-50.3-25-3.1-1.2-6.2-2.8-9.6-2.7-1 1-1.1 2.1-1.4 3.1-3.7 16.9-5.2 34.1-6.2 51.3-2.6 44.6-2.6 89.2 2.4 133.7 1.1 8.4 2.2 16.5 5.1 24.7z"/></svg>