<svg xmlns="http://www.w3.org/2000/svg" viewBox="0 0 500 500" style="enable-background:new 0 0 500 500" xml:space="preserve"><path d="M253.5 229.4h219.7c2.6 0 5.2-.1 7.8.1 9.8.7 17.8 8.4 19 18.1 1.1 9.7-5 19.1-14.3 22.1-3.6 1.1-7.2 1.1-10.9 1.1H252.9c-.4 7.2-.9 14.1-1.2 20.9-1 21.8-2.7 43.5-6.7 64.9-1.6 8.3-3.5 16.4-7.3 24-6.8 13.5-18.4 19.7-33.4 18-13.2-1.5-25.6-6-37.6-11.3-27.7-12.2-53.6-27.6-78.8-44.4-22.5-15-44.2-31-63.5-49.9-7.1-7-13.6-14.5-18.6-23.1-7.6-13.1-7.6-26.2-.2-39.3 4.7-8.3 10.8-15.5 17.5-22.4 17.3-17.7 36.8-32.6 57-46.7 27.1-18.9 55.2-36 85.6-49.4 10.1-4.4 20.4-8.2 31.3-10.2 5.8-1.1 11.6-1.2 17.4-.4 10.3 1.5 17.7 7.4 22.7 16.5 5.1 9.4 7.4 19.7 9.2 30.2 4.2 24.3 5.3 48.9 6.3 73.4-.1 2.4-.5 4.8.9 7.8zM42.3 249.8c1.4 3.2 3.4 5.2 5.2 7.3 6.5 7.5 13.9 14.2 21.5 20.5 27.7 22.9 57.6 42.3 89.1 59.5 12.1 6.6 24.5 12.7 37.5 17.2 2.2.7 4.3 1.8 6.9 1.4.6-2.7 1.4-5.2 1.8-7.7 1.9-10.6 3.2-21.3 4.1-32 2.4-28.2 3.1-56.4 2.6-84.7-.4-24.2-1.6-48.3-5.2-72.2-.8-5.2-1.3-10.6-3.8-15.7-6.8 1.2-13 3.7-19 6.4-44.7 20.3-85.2 47-122 79.3-6.9 6.1-13.5 12.6-18.7 20.7z"/></svg>