<svg xmlns="http://www.w3.org/2000/svg" viewBox="0 0 500 500" style="enable-background:new 0 0 500 500" xml:space="preserve"><path d="M229.4 247.6V26.7c0-2.4-.1-4.8.1-7.1.6-10.1 8.4-18.3 18.4-19.4 10-1.1 19.3 5.4 22 15.2.9 3.4.9 6.8.9 10.3v221.6c6.3.4 12.1.9 17.9 1.1 20.3.7 40.5 2.4 60.5 5.5 9 1.4 17.8 3.2 26.3 6.4 6 2.2 11.4 5.2 15.7 9.9 6.7 7.4 8.3 16.4 7.3 25.9-1 10.2-4.2 19.8-7.9 29.2-7.3 18.5-16.5 36-26.6 53.1-18.9 32-39.5 62.8-64.5 90.4-7.3 8-15 15.5-23.9 21.7-2.5 1.7-5.1 3.3-7.7 4.7-11.9 6.4-23.9 6.3-35.8-.1-9.1-4.8-16.8-11.3-24-18.4-16.9-16.5-31.3-35.1-44.8-54.3-17.8-25.3-34-51.5-47.2-79.4-6-12.7-11.3-25.6-14-39.5-1.1-6-1.4-12.1-.4-18 1.6-10.3 7.6-17.6 16.7-22.5 9.4-5.1 19.8-7.3 30.2-9.1 23.9-4.2 48-5.2 72.1-6.2 2.6-.2 5.2-.1 8.7-.1zm-86.1 50.1c.7 2.5 1.2 4.7 1.9 6.9 2.3 7.4 5.4 14.5 8.8 21.5 15.5 32.1 34.8 62 56.4 90.3 8.5 11.2 17.5 21.9 27.7 31.6 3.7 3.6 7.4 7.1 12.4 9.7 6.7-4.3 12.2-9.8 17.4-15.5 23.6-25.7 42.8-54.5 60.5-84.5 9.5-16.2 18.4-32.7 25-50.3 1.2-3.1 2.8-6.2 2.7-9.6-1-1-2.1-1.1-3.1-1.4-16.9-3.7-34.1-5.2-51.3-6.2-44.6-2.6-89.2-2.6-133.7 2.4-8.4 1.1-16.5 2.2-24.7 5.1z"/></svg>