<svg xmlns="http://www.w3.org/2000/svg" viewBox="0 0 1000 1000" style="enable-background:new 0 0 1000 1000" xml:space="preserve"><path d="M548.2 997.6v-13.2c0-25.1-.1-50.1 0-75.2.1-13.9-2.3-12.2 12.3-14.4 39-5.9 76.5-16.5 111.6-34.2C793 800 867.7 703.2 893.4 570.4c35-180.8-61.8-361.4-227-436.8-34.7-15.8-71-26.5-108.7-31.8-7.7-1.1-9.6-3.8-9.5-11.1.3-27 .1-54 .2-81.1 0-10.3.1-10.3 10.2-9.2 208 24 382.5 178.4 427.7 382.2 35.4 159.2 3.2 304.9-99.5 432.5-72.8 90.4-167.3 147.3-280.6 172.3-18.6 4.1-37.5 6.7-58 10.2zM272.7 515.7l155.5 155.5c98.4-98.4 197.4-197.4 295.4-295.3-16.1-16-33.3-33.1-50.7-50.3-80.3 80.3-161.3 161.4-243.2 243.2-36.1-36.1-71.1-71.2-105-105.1l-52 52zm-23.4-334.1c2.9 3 5.2 2 8.1-.1 6.5-5 13.1-9.9 19.9-14.5 49.5-33.9 104.1-55.1 163.1-64.9 6.6-1.1 8.3-3.5 8.2-9.7-.3-28.2-.1-56.4-.1-84.6 0-1.9-.4-3.8-.7-7.1C347.9 11.3 259.5 47.1 181 110.9c23.3 24.1 45.8 47.4 68.3 70.7zm-141 3.1C67.1 231.8 30.5 303.4 12.8 374 6.7 398.3.9 422.9.6 449.1c31.9 0 62.4-.1 92.8.1 6.9 0 6.9-4.2 7.7-9.1 10.4-64.8 34.6-123.8 73.4-176.8 2.3-3.1 4.5-6.3 5.2-7.2l-71.4-71.4zm1.9 630.7c22.8-22.4 44.5-43.8 66.3-65.1 4-3.9 4.9-6.8 1.1-11.8-40.8-54.1-66-114.8-76.3-181.7-1-6.7-3.5-8.2-9.7-8.2-28.2.2-56.3.1-84.5.1-1.9 0-3.8.3-7.2.7 11.3 100.2 47.8 188.6 110.3 266zm76.4 76c51.9 42.1 109.9 72.9 174.2 91.2 23.9 6.8 48.6 11.2 73.1 16 14.2 2.8 14.6 2 14.6-12 0-25.8-.2-51.6.1-77.4.1-6.7-1.7-9.5-8.9-10.5-38.9-5.4-76.4-16.2-111.4-34.1-26-13.3-50.8-28.9-77.5-44.3-21.8 20.9-45.2 43.3-69.6 66.6 2.5 2 3.9 3.3 5.4 4.5z"/></svg>