<svg xmlns="http://www.w3.org/2000/svg" viewBox="0 0 1000 1000" style="enable-background:new 0 0 1000 1000" xml:space="preserve"><path d="M531.5 1000.4H469c-9.9-1.3-19.9-2.8-29.8-4-54.8-6.2-107.4-20.8-156.3-45.9-159.9-82-253.8-211.7-279-390.3L0 531.4v-62.5c.7-3.2 1.8-6.3 1.9-9.5 1.6-27.4 6.3-54.2 13-80.7 24.4-95.8 72.5-177.8 145.1-245C249 51.5 354.4 7.6 475.1.5c42.7-2.5 85.3.8 127.1 9.8 102.4 22.1 190.8 70.2 262 147.3 105.1 113.8 149 248.5 132.3 402.7-6.8 63.2-25.3 123-56.6 178.1-84 148-210.4 234.8-379.6 258.2-9.5 1.2-19.2 2.5-28.8 3.8zM804 358.5c-30.3-30.3-61.3-61.4-92.8-93C617.8 359 523.7 453 428.9 547.8c-47.6-47.6-94.3-94.3-141.1-141.2-.9.7-2 1.5-2.9 2.4-28.6 28.5-57.1 57.1-85.7 85.7-.7.7-1.3 1.4-2.1 2.1-2.4 2.1-2.7 4.3-.1 6.5 1.5 1.3 2.7 2.8 4.1 4.2l221.1 221.1c2.2 2.2 4.6 4.3 6.2 5.8L804 358.5z"/></svg>