<svg xmlns="http://www.w3.org/2000/svg" viewBox="0 0 1000 1000" style="enable-background:new 0 0 1000 1000" xml:space="preserve"><path d="M0 95.6c.7-2.1 1.7-4.1 2.2-6.2C12.2 38.8 57.7.2 108.7.2 291.6 0 474.5.1 657.4.1c9.1 0 9.2.1 9.3 9 .1 30.3 0 60.5 0 90.8 0 13.2-.5 11.1-11.2 11.1H125.3c-14.2 0-14.2 0-14.2 14.6v750.8c0 14.3-1.8 12.4 12.4 12.4h752.8c14.4 0 12.6 1.8 12.6-12.2V458.7c0-2.3.3-4.6 0-6.8-.8-6.1 1.9-7.9 7.7-7.8 19.5.3 39.1.1 58.6.1 12.7 0 25.4.1 38.1-.1 5-.1 7.3 1.7 6.6 6.8-.2 1.3 0 2.6 0 3.9 0 144.5-.2 289 .1 433.5.1 45.2-28.8 90.7-78.1 106.5-5.8 1.9-11.7 3.4-17.5 5.1H95.8c-1.4-.7-2.8-1.6-4.2-2C45 988 15.8 959.7 3 914.2c-.9-3.3-2-6.6-3-10V95.6zm996.9 71.9c-25.1-25.1-50.8-50.7-77.1-76.9C762 248.3 603.3 407.1 444.2 566.2 387 508.9 330 451.8 274.1 395.9c-26.3 26-52.1 51.5-77.5 76.6C279 555 361.8 637.8 444.2 720.2 629 535.4 813.7 350.6 996.9 167.5z"/></svg>