<svg xmlns="http://www.w3.org/2000/svg" viewBox="0 0 1000 1000" style="enable-background:new 0 0 1000 1000" xml:space="preserve"><path d="M102.6 483.2c13.5.2 22.6 5.3 30.7 11.8 16.2 12.8 32.1 26.1 48 39.3 57.4 47.6 114.7 95.3 172 142.9 6.7 5.6 6.9 5.6 13.4-2.5 39.1-48.1 78.1-96.3 117.1-144.5 114.8-141.7 229.5-283.3 344.4-424.9 5.6-6.9 11.5-13.5 18.2-19.3 14.6-12.7 27.9-13.9 44.7-4.1 8.2 4.8 15.9 10.7 23.4 16.6 19.1 15.1 38.1 30.4 56.9 45.9 6.8 5.6 13.3 11.7 19.2 18.3 10.9 12.4 12.3 26.5 4.3 41-3.9 7.1-8.5 13.9-13.7 20-77.6 92.5-155.3 184.8-233 277.2-96 114.1-192 228.2-288 342.4-16.6 19.8-33.1 39.7-50 59.3-4.8 5.6-10.2 10.7-16 15.2-10.9 8.6-23.2 9.3-35.4 3.1-7.5-3.8-14.6-8.7-21.1-14C235.3 822 132.9 737.4 30.6 652.5c-8.2-6.8-15.9-14.3-22.8-22.4-9.2-10.9-9.9-23.7-3.9-36.3 3.3-6.9 7.7-13.5 12.3-19.6 16.4-21.8 33.1-43.5 49.9-65 4.8-6.1 10.2-11.7 16-16.8 6.4-5.7 14-9.7 20.5-9.2z"/></svg>