<svg xmlns="http://www.w3.org/2000/svg" viewBox="0 0 1000 1000" style="enable-background:new 0 0 1000 1000" xml:space="preserve"><path d="M1000 188.8c-.2.2-.7.4-.7.6-4.9 23.8-19.7 40.9-36.3 57.5-186.6 186.7-373 373.5-559.4 560.3-4.1 4.2-8.3 8.3-12.5 12.4-32.2 30.9-82.2 31.2-114.9.8-1.4-1.3-2.8-2.7-4.2-4.1C190.1 734.2 108.1 652.1 26.2 570 7.7 551.4-1.1 529.3.1 503c1.8-39.7 37.6-75.5 77.3-77.3 26.2-1.1 48.3 7.6 66.8 26.2 60 60.3 120.1 120.4 180.2 180.6 2.7 2.8 5 6.1 9.6 11.8 3.6-5.2 5.6-9.2 8.5-12.1 170-170.5 340.1-340.9 510.1-511.4 11.5-11.5 24-21 39.7-25.7 45.9-13.9 93.4 13.2 105.3 60 .5 2.1 1.5 4.1 2.3 6.2.1 9.2.1 18.4.1 27.5z"/></svg>