<svg xmlns="http://www.w3.org/2000/svg" viewBox="0 0 1000 1000" style="enable-background:new 0 0 1000 1000" xml:space="preserve"><path d="M0 561.4c3.6-3 7.5-5.7 10.9-9 34.7-34.6 69.4-69.3 104-104.1 3.1-3.1 5.5-6.8 9.1-11.3 70.7 70.7 139.8 139.9 209.7 209.8C514.9 465.5 695.2 285.1 875.1 105c42 42 83.1 83.2 124.9 125-2.8 3-6.1 6.5-9.4 9.8-215.1 215.3-430.2 430.6-645.3 645.8-1.5 1.5-3.3 3-4.6 4.7-4.4 5.6-8.7 6.7-13.6.4-1.9-2.4-4.3-4.4-6.5-6.5C217 780.4 113.3 676.7 9.6 572.9 6.5 569.8 3.2 567 0 564v-2.6z"/></svg>