<svg xmlns="http://www.w3.org/2000/svg" viewBox="0 0 1000 1000" style="enable-background:new 0 0 1000 1000" xml:space="preserve"><path d="M365.6 444.8c-3.9-7.4-6.5-12.8-9.4-18.1-70.2-126.5-140.4-253-210.7-379.4-2-3.6-4.1-7.2-5.9-10.9C129.7 16.7 139.1.8 161 .5c24.9-.3 49.8-.1 74.8-.1 17.1 0 34.3.9 51.4-.3 17.2-1.2 26.6 6.3 33.9 21.2 23.3 47.4 47.9 94.2 71.3 141.7 37.8 76.7 74.9 153.7 112.4 230.5 1.1 2.3 2.5 4.4 4.7 8.1 3.1-6.3 5.6-11.2 7.9-16.2C572 264.7 627.1 144 681.4 22.9c7.4-16.6 17-23.4 35.4-22.9 39.4 1.2 78.9.3 118.4.4 27.1.1 36.3 15.5 23.3 39.6C788.8 169.1 719 298.1 649.3 427.2c-2.7 4.9-5.1 9.9-8.5 16.7 6.4.4 11.3 1 16.2 1 41.5.1 83.1 0 124.6.1 27 0 33.9 7.1 34 34.3 0 18.2.1 36.3 0 54.5-.2 22.4-7.8 30.2-29.9 30.2-60.7.1-121.5 0-182.2 0-17 0-17 .1-17.1 16.9 0 10.9.4 21.8-.1 32.7-.4 8.3 3 10.8 10.9 10.7 21.8-.3 43.6-.1 65.4-.1 40 0 80-.1 119.9 0 24.9.1 32.9 8 33 32.5.1 17.7.1 35.3 0 53-.1 26.8-7.2 33.8-34.6 33.9-57.6.1-115.3 0-172.9 0-3.6 0-7.3.3-10.9 0-7.9-.7-11.5 2.5-10.9 10.7.5 7.2.1 14.5.1 21.8V963c0 5.2.2 10.4-.4 15.6-1.3 13-9.2 21.2-22.3 21.3-40.5.4-81 .4-121.5.1-12.8-.1-20.2-6.8-22.7-19.3-1-5-1-10.3-1-15.5-.1-68.5 0-137.1-.1-205.6 0-15.8-.1-15.9-16.3-15.9H229.1c-4.7 0-9.4.2-14-.3-15-1.7-23.3-9.1-23.8-23.9-.9-23.3-.9-46.7 0-70.1.6-15.8 10-24.1 26.3-24.9 12.4-.6 24.9-.2 37.4-.2h149.5c13.6 0 13.7-.2 13.8-13.6.1-11.4-.5-22.9.2-34.3.5-9.5-2.7-12.8-12.4-12.5-20.7.6-41.5.2-62.3.2-41 0-82 .1-123.1 0-21.2-.1-29.4-8-29.8-28.9-.3-20.2-.3-40.5 0-60.7.3-20.8 8.7-29.3 29.6-29.4 42.1-.3 84.1-.1 126.2-.1 5.7-.2 11.2-.2 18.9-.2z"/></svg>