<svg xmlns="http://www.w3.org/2000/svg" viewBox="0 0 1000 1000" style="enable-background:new 0 0 1000 1000" xml:space="preserve"><path d="M271.1 254.7c0-63.7-.1-127.4.1-191 .1-30.4 19.7-55 49-62.2 5.5-1.3 11.3-1.4 17-1.4C421.4 0 505.8 0 590.1 0c129.6.1 245.1 87.7 280.5 212.6 46.5 164.1-57.4 335.1-224.5 368.3-19.2 3.8-39.2 5.5-58.8 5.7-58.4.7-116.8.2-175.2.3-12.8 0-12.9.1-12.9 12.9v80.4c0 12.8.1 12.9 12.9 12.9 71.1 0 142.3-.1 213.4.1 30.5.1 54.9 19.4 62.5 48.7 9.4 36.5-17.7 74.9-55.4 77.1-17.9 1.1-36 .6-54 .6-55.8.1-111.6 0-167.3 0-13.6 0-13.6.1-13.7 14-.2 36 .4 72-.6 108-.7 27-21.1 50.2-47.2 56.5-40.1 9.6-78-19.6-78.6-60.9-.4-34.7-.1-69.4-.1-104.1 0-13.4-.1-13.4-13.9-13.5-26.8-.1-53.6.5-80.4-.6-31.8-1.2-57.5-28.3-58.5-60.2-1.2-35.6 26.9-65.2 62.9-65.7 26.3-.4 52.7 0 79.1-.1 10.6 0 10.8-.2 10.8-10.9.1-28.5-.2-57.1.2-85.6.1-7.4-2.2-9.9-9.7-9.8-26.8.4-53.6.4-80.4.1-27.9-.3-52.3-18.8-60.1-44.9-8-26.7 1.9-54.8 25.1-70.6 9.6-6.6 20.2-10.5 32-10.6l77.7-.3c15.2-.1 15.2-.1 15.2-14.8V254.7zm128.1 38v152.8c0 13.2.1 13.3 12.5 13.3 60.2 0 120.3.5 180.5-.2 96.3-1.1 170.6-85.9 161.9-182-6.7-74.1-69.1-149.2-165-150.5-59.3-.8-118.6-.2-177.9-.1-11.9 0-12 .1-12.1 12.5 0 51.5.1 102.9.1 154.2z"/></svg>