<svg xmlns="http://www.w3.org/2000/svg" viewBox="0 0 1000 1000" style="enable-background:new 0 0 1000 1000" xml:space="preserve"><path d="M504.6 338.3H218.1c-5.7 0-11.5.1-17.1-.9-12.7-2.2-19.6-9.4-19.8-22.2-.5-24.4-.5-48.8.1-73.2.3-12.7 7.7-19.8 20.4-21.3 5.6-.7 11.4-.6 17.1-.6h278c-8.2-16.1-17.6-27.9-29.8-37.6-32.1-25.5-69.8-36.9-109.7-39.3-45.6-2.8-91.3-2.4-137-3.4-5.2-.1-10.4.2-15.6-.1-14.3-1-23.4-9.5-23.6-23.8-.5-30.6-.4-61.3 0-91.9.2-15.1 8.4-22.9 23.1-23.7 4.1-.2 8.3-.1 12.5-.1h565.7c4.2 0 8.3-.2 12.5.1 13 .8 21.3 6.7 21.8 19.7 1.1 25.9 1.3 51.9-.1 77.8-.7 14.3-9.7 20-26.4 20-46.8.1-93.5.1-140.3.1h-18.5c1.6 3.9 2.2 6.4 3.5 8.3 17.4 25 29.7 52.4 36.6 81.9 2.3 9.8 6.4 12.5 15.7 12.4 31.7-.4 63.4-.2 95.1-.1 5.2 0 10.4 0 15.6.6 12.9 1.6 20.4 8.5 20.7 21 .6 24.9.6 49.9 0 74.8-.2 11.2-6.8 18.1-17.9 20.5-5 1.1-10.3 1.3-15.4 1.3-29.6.1-59.2.1-88.8.1-19.9 0-19.7.1-23.7 18.8-11.5 53.2-36.6 98.9-76.1 136.5-36.9 35.1-80.5 58.5-129 72.6-20.3 5.9-41.5 9.1-62.2 13.7-4.4 1-8.6 2.2-15 3.9 15.7 17.4 30.7 33.2 44.7 49.7 92.2 108.4 184.2 216.9 276.2 325.4l3.9 4.8c5.9 7.2 6.7 15.2 2.8 23.3-3.9 8-10.2 12.9-19.6 12.9-46.8 0-93.5-.1-140.3.1-9.5 0-15.1-5.8-20.5-12.3-30.8-36.6-61-73.6-92.5-109.5-82.2-94.5-165-188.4-248.3-281.8-11.1-12.5-17.1-24.7-16.1-41.7 1.3-22.3.3-44.7.3-67 .1-22.9 7.6-30.1 31-30.5 37.9-.6 75.9-.4 113.7-2.5 41.8-2.4 82.1-12.1 118.5-34.2 26.1-15.9 45.5-37.6 57.2-65.9 1.4-3.3 2.5-6.8 3.4-10.3.3-1.4-.1-3-.3-6.4z"/></svg>