<svg xmlns="http://www.w3.org/2000/svg" viewBox="0 0 1000 1000" style="enable-background:new 0 0 1000 1000" xml:space="preserve"><path d="M194.3 634.3h40c30.6 0 61.1-.1 91.7 0 22 .1 22 .2 23.5 21.7 4.3 59.1 50.7 110.5 108.9 120.7 2 .3 4.1-.2 8.6-.6V574c0-27.6-.5-26.2-26-34.1-39.2-12.2-79-23.9-116.3-40.7-79.6-35.8-116.5-105.8-112.5-192.6 3.8-84.3 58.2-181 192.7-212 15.9-3.7 32-6.9 48.2-8.3 11.4-1 14.3-5.8 14.1-16.1-.4-18.5.4-37-.3-55.4-.4-11 3.4-15.4 14.6-14.7 12 .7 24.2.5 36.2.1 9.3-.4 12.6 3.9 12.5 12.7-.2 19.2.4 38.4 0 57.6-.2 10.4 3.7 14.7 14.2 16.9 25.7 5.3 51.7 10.2 76.4 18.8 87.7 30.4 139 92.4 154.6 183.9.8 4.9 1 9.9 1.2 14.9.1 3.5-.3 6.9-.5 11.5-5.2.6-10 1.6-14.8 1.6-39.8.1-79.6-.4-119.4.4-13.1.3-18.9-3.4-20.5-17-3.1-27.1-15-50.7-36.4-67.7-10.8-8.6-24.2-14.7-37.3-19.2-13.6-4.6-16.8-1.7-16.9 12.5-.3 55.4.1 110.9-.4 166.3-.1 11.5 4.6 16.4 15.1 19 22.7 5.7 45.8 10.6 67.7 18.6 27.9 10.2 56.3 20.7 81.8 35.5 70.9 41.3 109 102.6 110.8 186.6 2 93.5-40.7 159.8-118 207.3C646.4 885.9 601 898.5 553 903c-22.1 2.1-22.2 1.9-22.3 24-.1 19.2-.4 38.4 0 57.6.2 10.6-3.3 15.9-14.7 15.4-11.3-.6-22.8-.5-34.1 0-11 .5-15.2-3.9-14.8-15 .6-18.5.2-37 .1-55.4 0-24.3-.1-24-23.7-26.7-47.1-5.5-91.9-18.5-132.1-44.4-62.6-40.3-94.5-100.3-108.9-171.2-3.5-16.6-5.3-33.4-8.2-53zm340.6-66.4c-2.2 3.1-3.8 4.2-3.8 5.4-.3 64.5-.3 129-.7 193.5-.1 10.5 5.7 11.4 13.8 10 40.2-6.9 74.1-24.2 95.4-60.5 19.2-32.8 13.8-83.4-12.2-106.6-26.5-23.6-59.8-33-92.5-41.8zm-69.7-174.4c.8-8.3 1.7-13.8 1.8-19.3.1-48.9-.2-97.7.2-146.6.1-12.1-4.3-18-16.2-14.3-15.4 4.7-31.8 8.6-45.3 16.9-30 18.4-40.6 47.8-38.4 82 2 31.8 20.2 52.1 48.5 63.8 15.5 6.5 31.7 11.3 49.4 17.5z"/></svg>