<svg xmlns="http://www.w3.org/2000/svg" viewBox="0 0 1000 1000" style="enable-background:new 0 0 1000 1000" xml:space="preserve"><path d="M141.2 443.7c-3.8-17.1-7.6-31.8-10.3-46.7-1.3-7.3-4.8-9-11.4-8.9-29.9.2-59.9.1-89.8.1-3.5 0-7 .2-10.4-.2C8.5 386.8.6 379.2.4 368.4c-.4-23.9-.5-47.8 0-71.8.3-12.2 9.1-19.6 22.9-19.7 22.1-.3 44.3-.1 66.4-.1h14.1C98.2 251.6 93 228 87.7 204.3c-4.6-20.3-9.2-40.7-13.8-61-.4-1.7-.7-3.4-.9-5.1-2.4-16.4 5.3-26.4 21.7-26.7 23-.5 46-.4 69 0 14 .2 20.4 5.7 23.4 19.6 9.3 44.6 18.4 89.4 27.6 134 2.4 11.6 2.5 11.7 14 11.7 55.1 0 110.3-.2 165.4.2 9.2.1 12.6-2.8 14.6-11.7 9.4-42.9 19.5-85.5 29.4-128.3 5.3-22.8 9.2-25.8 33.1-25.8 20 0 39.9-.1 59.9 0 18.1.1 24 4.9 28 22.4 9.9 43.2 19.4 86.5 29.6 129.6 3.5 14.9.2 13.4 16.6 13.4 54.7.1 109.4 0 164.1 0 13.1 0 13-.1 15.2-13.1 7.1-42.4 14.1-84.9 21.3-127.3 3.5-20.4 9-25 29.3-25.1 22.1-.1 44.3-.1 66.4 0 21.9.1 30.1 10.2 25.3 31.3-9 39.8-18.3 79.6-27.4 119.4-1 4.2-1.8 8.5-2.9 13.9 4.2.3 7.9.8 11.6.8 22.1.1 44.3-.1 66.4.1 17.9.1 25.2 7.5 25.3 25.4.1 20.9.2 41.8 0 62.6-.1 15.4-7.8 23.1-23.3 23.3-31.3.2-62.5 0-93.8.1-12.2 0-12.3.1-15.1 12.3-3.2 13.9-6.2 27.8-9.7 43.3h14.1c33 0 66 .7 99-.3 18.3-.6 30.5 7.5 29.1 28.6-1.1 17.3-.2 34.8-.2 52.2 0 25.2-5.5 30.9-30.2 30.9H850c-17.9 0-17.9 0-21.8 17-22.5 97.8-45.1 195.6-67.6 293.3-4.4 18.9-10 23.5-29.7 23.5-28.2 0-56.4.1-84.6 0-17.7 0-24.1-5.1-28.1-22.5-22.7-97.8-45.3-195.5-67.9-293.3-.8-3.4-1.9-6.7-2.3-10.2-.7-5.9-3.6-8-9.5-8-26.9.2-53.8.3-80.7-.1-8.4-.1-8.5 5.6-9.7 11-7.8 33.9-15.6 67.7-23.5 101.6-15.1 65.6-30.3 131.2-45.5 196.8-4.8 20.5-10.1 24.6-31.6 24.6h-79.4c-22.8 0-27.5-3.7-32.6-26.5-21-93.7-41.9-187.4-62.9-281.1-1.9-8.4-1.9-19.8-7.3-24.2-5.4-4.4-16.5-2.1-25.1-2.1-37.8-.1-75.5 0-113.3-.1-19.4 0-26.3-7.2-26.4-26.9v-57.4c0-20.2 6.9-27 27.5-27h99c3.9.3 8.2.3 14.2.3zm476.6-54.9c2.2 10.1 4.1 19.3 6.3 28.4 2 8.4 1.8 20.2 7.2 24.2 6.1 4.5 17.3 2.1 26.3 2.2 26.4.2 52.8.2 79.2-.1 3.6 0 9.9-1.9 10.4-4.1 4.4-16.4 7.6-33.2 11.4-50.5-47.8-.1-93.5-.1-140.8-.1zm-378 0c2.3 11.4 4.2 21.2 6.3 30.9 1.7 7.5 1.3 18.2 6.1 21.7 5.5 4.1 15.6 2.2 23.7 2.2 26.9.2 53.7.2 80.6-.1 3.7 0 9.9-1.9 10.5-4.1 4.7-16.4 8.2-33.2 12.3-50.6H239.8zm415.8 166.8c6.9 30 13.9 58.1 19.7 86.5 5.7 28 10.2 56.3 14.8 81.6 10.3-54.5 21-111.2 31.7-168.2-22.4.1-43.5.1-66.2.1zm-380.9.1c10.6 57.8 21.1 114.4 32 173.8 3.9-60.8 22.1-116.2 33.4-173.8h-65.4zM476.6 443h42.8c-3.6-17.3-7-33.7-10.6-50-1.7-7.8-8.3-4.1-12.9-4.8-4.7-.7-8.3.5-9.4 6.3-2.9 15.7-6.4 31.4-9.9 48.5z"/></svg>