<svg xmlns="http://www.w3.org/2000/svg" viewBox="0 0 1000 1000" style="enable-background:new 0 0 1000 1000" xml:space="preserve"><path d="M391.2 621.3v83H740c26.2 0 32.5 6.3 32.5 32.2 0 25 .1 50 0 75-.1 22.1-7.9 30-30.3 30-111.2.1-222.4 0-333.6 0h-18.1V974c0 18-7.7 25.8-25.8 25.9-37.5.1-75 .1-112.5 0-18.5-.1-26.4-8-26.4-26.8-.1-38.7 0-77.5 0-116.2v-14.7c-5.3-.2-9.7-.6-14.1-.6H75.5c-24.3 0-31.3-7-31.3-31.3 0-26.2-.2-52.5 0-78.7.2-19.9 7.5-27.1 27.3-27.2 46.2-.1 92.5 0 138.7 0h14.6V622c-4.4-.2-8.8-.6-13.2-.6-45.4 0-90.8 0-136.2-.1-24.4 0-31.2-6.9-31.3-31.3 0-30.4-.1-60.8 0-91.2.1-22.2 7.1-29.4 29-29.4 45.8-.1 91.6 0 137.4 0h15.2V32.7c0-26.4 6.1-32.6 32-32.6C389 0 520.2 0 651.4 0 787 .1 909.8 91 943.2 222.2c28 109.7 11.5 213-67.4 299.4-54.7 59.9-124.3 94.2-205.4 97.6-87.3 3.6-174.9 1.7-262.3 2.1-5.3.1-10.7 0-16.9 0zm0-153c3 .3 5 .7 7 .8 76.6.1 153.2 1.4 229.7-.2 105.3-2.1 174.7-89.9 154.6-193.2-14.1-72.3-78.1-123.5-155.5-123.8-74.9-.3-149.8 0-224.8.1-3.6 0-7.2.5-11.1.8.1 105.4.1 209.8.1 315.5z"/></svg>