<svg xmlns="http://www.w3.org/2000/svg" viewBox="0 0 1000 1000" style="enable-background:new 0 0 1000 1000" xml:space="preserve"><path d="M872.8 825.7c-59.7 53-129.4 87.7-208.7 103.1-36.4 7.1-73.2 11.4-110.2 7.9-107.8-10.2-202.1-50.5-279.5-127.4-44.6-44.2-78.1-95.6-100.5-154.2-3-7.9-6.9-10.4-15.1-10.3-49 .4-98 .2-147.1.2C.1 645 .1 644.9.1 633.8c0-24.5-.1-49 0-73.5 0-13.1-2-12.8 12.3-12.8h134.3c-.7-14.5-1.8-27.2-1.8-40 0-15.5.7-31.1 1.7-46.6.6-10.2.9-10.5-9.6-10.5-40.1-.1-80.1 0-120.2 0-16.7 0-16.7 0-16.7-16.7v-81H158c13.5 0 11.4.4 15.9-10.5 57.5-140 159.3-229.9 305.7-268.9 36-9.6 72.8-10.8 109.9-11 50.1-.3 98.1 8.9 144.8 26.2 52 19.3 98.6 47.4 139.3 84.2-28.3 28.4-56.6 56.7-85.4 85.6-97.2-76.5-204.8-96.9-321.5-53.1-72.6 27.2-126.2 77.6-164.5 147.6h264.1c3.1 0 6.2.1 9.3 0 4.9-.2 6.9 2.1 6.9 7-.1 27.6-.1 55.2 0 82.9 0 5.3-1.6 8.1-7.3 7.7-3.1-.2-6.2 0-9.3 0H283.5c-14 0-14.8 0-15.2 13.9-.7 23.3-.6 46.6.1 69.9.4 13.3 1.3 13.3 14.6 13.3h283.6c3.1 0 6.2.2 9.3 0 5.1-.3 6.7 2.4 6.7 7.1-.1 28-.1 56 0 84 0 4.4-2 6.4-6.3 6.4H303.4c1.3 3.2 1.9 5.4 2.9 7.3C359.2 743 437 797.9 541.5 811.8c88.8 11.8 168.8-11.2 238.7-67.4 5.8-4.7 9-4.6 14.2.8 25.8 26.8 52 53.4 78.4 80.5z"/></svg>