<svg xmlns="http://www.w3.org/2000/svg" viewBox="0 0 1000 1000" style="enable-background:new 0 0 1000 1000" xml:space="preserve"><path d="M809.7 850.4C818 874 826.5 898 834.9 922c3.4 9.7 6.6 19.4 10.2 29 1.7 4.4 1 6.7-3.7 8.7-57.4 24.8-115.9 44.1-179.9 38-29.8-2.8-58.2-11.2-86.6-19.6-28.1-8.3-56.1-16.7-84.2-25.1-61.9-18.6-123.7-17.5-185.6 0-37.5 10.6-73 25.9-107 47-1.4-2.5-2.9-4.5-3.8-6.8-13-32.5-25.8-65-39.1-97.3-3-7.3-1-10.3 5.3-14.2 55-33.8 97.7-79.1 122.2-139.1 24.6-60.3 26.7-122.8 12.2-186.1-1.8-7.9-5-10.5-13-10.4-33.9.4-67.8.2-101.6.2-3 0-6.1-.2-9.1 0-6 .5-7.9-2.4-7.9-8.1.1-26.6.3-53.3-.1-79.9-.1-7.3 2.9-9 9.5-8.9 25.9.2 51.8.1 77.6.1h14.2c-2.3-8.3-4.2-15.1-6.1-21.9-10-35.9-20.6-71.7-24.8-108.9-6.4-56.9-2.5-112.7 22.5-165.2C286.4 90.6 336.3 49 399.9 23.1 438 7.5 477.8.5 519 .1c36.7-.4 73.1 1.4 108.4 12.2 93.6 28.4 154 90.1 182.7 183.2 4.5 14.5 7.4 29.5 10.6 44.3 1.9 8.9 1.2 9.4-8.1 10.8-33.1 4.9-66.2 9.5-99.3 14.9-7.1 1.1-9.2-.5-10.2-7.5-3-21.2-8.3-41.8-18-61C652 131 598.8 96.4 524.4 96.9c-63.1.5-112 27.6-145.6 81.2-15.3 24.5-21.5 51.7-21.3 80.5.2 32.9 4.9 65.3 12.4 97.1 6.7 28.1 15 55.8 22.1 83.8 1.9 7.7 5.5 10.1 13.5 10 60.1-.3 120.3-.2 180.4-.1 19.4 0 16.6-2 16.7 17.3.2 21.7.1 43.4 0 65.1-.1 14.9 1.7 14.4-13.9 14.4H417.1c.4 3.1.2 4.6.7 5.9 11.7 28.8 12 58.6 7.4 88.7-10.3 68.5-40.9 127.6-84.3 180.7-8.9 10.8-18.1 21.4-28.4 33.4 3.6-.3 5.6-.2 7.5-.8 57.8-16.2 115.9-14.5 174.1-3 42.9 8.5 85.4 18.6 128.3 27.1 28 5.5 56.2 10.3 84.9 5.3 30.5-5.4 59.5-15.7 87.7-28.4 3.8-1.7 7.6-3.4 11.5-5 .6-.1 1.5.2 3.2.3z"/></svg>