<svg xmlns="http://www.w3.org/2000/svg" viewBox="0 0 1000 1000" style="enable-background:new 0 0 1000 1000" xml:space="preserve"><path d="M499.4 1000H173.7c-4.2 0-8.3.1-12.5-.1-14.9-.8-23.2-8.3-23.5-23.4-.5-34.3-.5-68.6-.1-102.9.2-16 9.3-24.9 25.5-25.3 18.2-.5 36.4-.5 54.5 0 8.9.3 11.6-3 11.6-11.6-.2-83.1-.2-166.2 0-249.3 0-8.9-3.2-11.7-11.8-11.4-16.6.5-33.2.3-49.9.1-20.4-.2-28.2-7.7-28.4-28.3-.4-27-.3-54 0-81 .2-21.5 7.9-29.1 29.1-29.5 14-.3 28.1 0 42.1-.1 20.9-.1 18.7 1.5 18.8-18.1.1-43.6-.2-87.3.1-130.9.2-34.9 3.4-69.4 15.5-102.6 23.4-64.5 67-111.6 126-144.7C436.4 4.1 507.7-5 581.6 2.6c72 7.3 134.7 36.4 190.7 81 16.1 12.9 17.7 23.7 4.9 39.8-21.7 27.2-43.6 54.2-65.7 81.1-13.8 16.8-22.9 17.4-41.1 4.7-42.4-29.4-88.7-47.4-141.2-44.7-36.7 1.9-68.9 14.5-93.8 42.5-18.8 21.1-27.2 46.4-27.4 74.3-.4 47.8-.2 95.6-.2 143.4 0 12.2.3 12.4 13.4 12.4 62.9.1 125.7 0 188.6 0 4.7 0 9.4-.3 14 .3 14.6 1.7 23.2 9.8 23.4 24.3.6 30.1.7 60.3 0 90.4-.4 16-10.4 23.9-28.4 23.9-57.7.1-115.3.1-173 .1h-18.7c-21.8.2-19.3-2.1-19.3 18.9-.1 77.4-.1 154.8 0 232.2 0 19-2.6 18 17.1 18h260.3c18.3 0 16.6 1.2 16.6-17 .1-34.3-.1-68.6 0-102.9.1-23.3 7.5-30.9 30.6-31.1 33.2-.2 66.5-.2 99.7 0 23.2.1 30.5 7.7 30.5 31 .1 81 .1 162.1 0 243.1 0 24.9-6.6 31.6-31.2 31.6-110.7.1-221.3.1-332 .1z"/></svg>