<svg xmlns="http://www.w3.org/2000/svg" viewBox="0 0 1000 1000" style="enable-background:new 0 0 1000 1000" xml:space="preserve"><path d="M346.5 428.1c-5-6.7-8.1-11.3-11.6-15.5C255.4 317.3 176 222 96.4 126.8 83.7 111.6 72.7 96 71.7 75.3c-1.4-29.7 15.1-57.1 41.8-69C141.1-6 173.1-.4 193.8 22.5c21.1 23.3 40.7 48 60.8 72.1 78.7 94.5 157.4 189 236.1 283.4 2.5 3 5.4 5.7 11.9 12.6 2.6-4.8 4.1-9.3 7-12.7 95.8-115.2 191.9-230.1 287.5-345.5 18-21.8 39.4-35.1 68.2-31.8 55.6 6.4 82.2 69.5 47.6 114.2-24.9 32.1-51.6 62.7-77.6 93.8-57.5 69-115 137.9-172.5 206.9-2.8 3.3-4.9 7.1-9.3 13.6h34.8c9.7 0 19.5-.4 29.2.2 39.5 2.3 68.1 33 67.5 72.3-.6 38-29.9 68.4-68.8 69.2-39.4.9-78.9.1-118.4.3-30.4.1-26.4-3.4-26.8 26.2-.1 9.7-.1 19.4 0 29.2.2 17.2.2 17.4 16.9 17.5 39.5.1 78.9-.1 118.4.1 9.1.1 18.5.1 27.2 2.4 34.1 8.9 54.6 40.6 51 77.2-3.3 33.1-31.3 60.2-65.6 61-42.9 1.1-85.8.4-128.7.5-19.1.1-19.2.1-19.2 18.6-.1 40-.1 80.1 0 120.1 0 15.8-3 30.7-11.9 44-17.3 25.9-48.5 37.6-78 29.3-30.2-8.4-51.3-34.8-51.8-67.1-.7-41.7-.2-83.5-.3-125.3 0-19.7-.1-19.7-19.8-19.8-42.3-.1-84.7.4-127-.4-27.6-.5-48-14.4-60-38.9-12-24.4-10.4-49 5-71.6 13.9-20.3 33.6-30.3 58.3-30.3 39.5 0 78.9 0 118.4-.1 4 0 8-.3 12 0 9.4.7 13.5-3 13.2-12.8-.6-14.8 0-29.7-.2-44.6-.2-15.2-.3-15.4-15.2-15.4-38.3-.1-76.6 0-115-.1-5.1 0-10.3.1-15.4-.1-38.8-1.9-67.9-31.7-68.3-69.8-.4-39.2 28.3-69.9 67.9-71.9 14.8-.7 29.7-.1 44.6-.3 5.4.4 10.8-.1 19-.6z"/></svg>