<svg xmlns="http://www.w3.org/2000/svg" viewBox="0 0 1000 1000" style="enable-background:new 0 0 1000 1000" xml:space="preserve"><path d="M480.8 356.1h-21.7c-54.9 0-109.8.1-164.7-.1-9.6 0-19.6-.3-28.8-2.8-34.2-9.5-54.1-41.3-49.9-77.9 3.7-33 32-59.5 66.6-60 58.3-.9 116.7-.3 175-.4h22.9c-3.2-6.1-4.7-10.3-7.2-13.6-27.7-37.2-64.8-57.1-111.1-58.9-26.3-1-52.6.4-78.9-.6-28.8-1.1-50.2-15.5-61.8-41.9-11.6-26.2-8.1-51.6 10-74C245.4 8.4 264.4.3 286.9.3H383c108.7 0 217.3.1 326-.1 24.4-.1 45.3 7.1 60.5 26.5 17.8 22.6 20.9 48.1 9 74.2-12 26.2-33.5 40.2-62.4 41-29.7.8-59.5.2-89.2.3h-20.5c1.8 5.5 2.7 9 4.1 12.4 6.4 15.9 13.8 31.4 19.1 47.6 3.3 10.1 8.4 13.3 18.5 13 23.4-.5 46.9-.7 70.3.2 34.5 1.3 62.6 27.5 66.1 60.6 3.9 36.6-16.4 68.2-50.5 77.6-7.6 2.1-15.8 2.4-23.7 2.5-20.6.3-41.2.6-61.8-.1-10.9-.4-15.8 3.5-19.2 14.3-22.9 72.5-67.8 127.7-134.2 164.5-19.3 10.7-40.9 17.4-61.5 25.6-5.2 2.1-10.7 3.3-18.3 5.5 4.4 6.9 7.8 12.5 11.4 18 66.6 99.9 133.1 199.9 199.8 299.7 12.2 18.3 19.2 37.5 14.1 59.8-6.2 26.8-22.2 45-48.3 53.1-26.8 8.3-50.9 2.2-71-17.8-4.8-4.8-8.9-10.5-12.7-16.2C415.9 823.6 323.2 684.8 231 545.6c-7.1-10.7-13.2-23.4-15-35.8-6.3-43.4 24.5-79.1 68.4-80.6 25.7-.9 51.5.5 77.2-.6 46.9-1.9 84.5-22.2 112.2-60.2 2-2.7 3.3-5.8 7-12.3z"/></svg>