<svg xmlns="http://www.w3.org/2000/svg" viewBox="0 0 1000 1000" style="enable-background:new 0 0 1000 1000" xml:space="preserve"><path d="M310.5 351h12.8c73.7 0 147.4.1 221.1 0 17.7 0 32.3 6.2 42.7 20.6 11 15.4 12.9 32.2 4.9 49.4-7.9 17.1-21.6 26.8-40.6 28.7-4 .4-8.1.3-12.1.3H292c-2.5 0-5 .3-7.5 0-5.7-.7-7.6 2.3-8.2 7.4-3.6 28.2-3.7 56.4 0 84.6 1 7.8 1.2 7.8 10.5 7.9h126c43.9 0 87.7.3 131.6-.1 28.8-.2 45.8 18.9 50.6 37.4 7.6 29.1-13.6 59.3-43.7 61.5-4 .3-8.1.2-12.1.2H310.6c2 4.1 3.1 7 4.7 9.5 53.3 90.4 131.3 145.4 235.4 161.2 76.3 11.6 147.9-3.4 213.9-43.6 15.9-9.7 32.6-14.1 50.7-9.6 25.4 6.3 40.8 23.2 46.1 48.5 5.2 25.2-6.3 50.7-28.8 65-26.3 16.7-54.3 30.2-83.6 40.8-55.7 20-113.1 29.6-172.2 26.3-103.3-5.8-194.9-41.8-273.3-110.1-56.9-49.6-98.6-109.8-125.1-180.5-2.3-6-5.4-7.8-11.6-7.8-39 .4-77.8.4-116.7.2-22-.1-39.3-12.7-47-33.3-10.5-28.2 9.2-61 39.2-64.9 4.6-.6 9.3-.7 14-.7 28.9-.1 57.8 0 86.8 0 9.2 0 9.2-.1 8.4-9.2-2.7-27.6-2.5-55.3.1-82.9.7-7.6.6-7.7-7.2-7.7-30.8-.1-61.6 0-92.4 0-21.3 0-36.8-9.4-46.7-28.3-16.5-31.5 8.3-70 42.6-70.6 28.6-.5 57.2-.2 85.8-.2 10.9 0 21.8-.4 32.7.1 6.6.3 9.9-1.8 12.2-8.3 11.8-32.9 27.8-63.8 47.7-92.6C297.8 146.9 395 82.3 518.9 59.7c110.5-20.1 213.7 1.4 310.1 58 18.9 11.1 30.4 27 33.5 48.9 4.6 32.9-22.4 65.8-55.7 67.9-15.5 1-29.4-3.2-42.5-11.1-34.2-20.6-70.8-35.1-110.2-41.4-115.8-18.5-214.2 15.1-295.3 99.6-16.9 17.6-30.7 37.5-42.8 58.6-1.7 2.9-3.1 6-5.5 10.8z"/></svg>