<svg xmlns="http://www.w3.org/2000/svg" viewBox="0 0 1000 1000" style="enable-background:new 0 0 1000 1000" xml:space="preserve"><path d="M150.1 446.7c-5.2-19.9-9.6-38.3-15-56.3-.7-2.4-6.8-4.5-10.4-4.6-23.4-.4-46.9.2-70.3-.4C27 384.7 5.5 367.1 1 342.7c-4.6-24.9 8.9-49.7 32.8-58.4 7.5-2.7 16-3.7 24.1-4 15.1-.6 30.2-.2 47.3-.2-2.4-9.9-4.2-18.5-6.5-27-6.1-23-12.5-45.9-18.5-68.9-8.3-31.5 6.7-59.1 36.4-67.4 28.2-7.9 55.8 8.8 64.4 39.6 10.5 37.5 20.4 75.1 30.1 112.7 2.1 8 5.2 11.2 13.9 11.1 56.8-.4 113.6-.4 170.5 0 8.7.1 11.9-3 13.9-11.1 9.4-36.9 19.2-73.6 29.2-110.3 11-40.6 57.8-58.3 93.8-35.8 13.8 8.6 20.7 21.5 24.7 36.7 9.6 36.4 19.6 72.6 28.8 109 2.2 8.6 5.8 11.5 14.9 11.5 56.8-.5 113.6-.5 170.5 0 9.5.1 13.4-2.6 15.8-12 9.7-38.5 20.3-76.9 30.9-115.2 5.6-20.2 19.7-32.8 39.8-36.8 20.2-4.1 37.8 2.3 51 18.6 11.9 14.6 13.7 31.4 9 49.1-8.3 31.3-16.7 62.5-25.6 96.2 16.4 0 31.3-.3 46.2.1 8.6.3 17.5.5 25.7 2.9 22.8 6.5 37.2 28.9 35.9 54.1-1.1 22-18 43.5-40.7 45.9-26.6 2.8-53.6 2.6-80.4 2.1-11.9-.2-17 3.3-19.2 14.7-3 15.1-7.5 30-11.8 46.8 31 0 60.4-.1 89.8.1 7.3.1 14.8.4 21.9 1.9 23.9 4.8 40.4 25.8 40.5 50.4.1 24.7-16.2 45.8-39.9 50.9-6.7 1.5-13.7 2-20.6 2.1-36 .2-72 .4-108-.1-9.4-.1-13.4 2.6-15.8 12-24.2 92.4-49.5 184.5-73.5 276.9-10.3 39.8-43.2 51.9-75.8 42.1-19.6-5.9-30-20.9-35.1-40.1-24.5-91.9-49.3-183.6-73.3-275.6-3.1-11.7-7.3-16-19.8-15.4-27.3 1.1-54.7.8-82 .1-10.8-.3-15.6 2.6-18.5 13.7-24 92-48.7 183.8-73.3 275.7-9.6 35.9-40.5 53.5-73.4 41.8-19.3-6.9-29.7-21.4-34.8-40.6-24.4-91.4-49.3-182.8-73-274.4-3.4-13.3-8.7-16.6-21.7-16.3-35.1 1-70.3.7-105.4.2-39.9-.6-65.7-35.3-52.9-70.4 7.7-21.2 26.9-34.5 51.4-34.8 26.5-.3 52.9-.1 79.4-.1 4.7-.1 9.4-.1 16-.1zm483.5-.8h105.6c5.3-20.2 10.5-39.6 15.7-59.4H617.5c5.6 20.6 10.9 40 16.1 59.4zm-255.9-59.7h-135c5.5 20.6 10.9 40.3 16.1 59.9h102.8c5.4-19.9 10.6-39.3 16.1-59.9zm147.2 59.9c-5.1-19.6-9.5-37.5-14.8-55.1-.8-2.6-6.5-5.1-9.9-5.1-5 .1-13.5 1.3-14.4 4-5.9 18.1-10.2 36.7-15.2 56.2h54.3zM685.3 639c.8-.1 1.5-.1 2.3-.2 7.5-28.5 15.1-56.9 22.7-85.8h-48c7.8 29.5 15.4 57.8 23 86zm-352.4-85.9h-45.5c7.4 27.3 14.4 53.3 21.5 79.4 1-.2 2-.3 3-.5 6.9-26 13.9-52.1 21-78.9z"/></svg>