<svg xmlns="http://www.w3.org/2000/svg" viewBox="0 0 1000 1000" style="enable-background:new 0 0 1000 1000" xml:space="preserve"><path d="M560.8 64.2v40.2c0 11.3.1 11.3 10.7 13 39.3 6 77 17.1 111.5 36.8 16.9 9.6 32.7 21.2 48 33.3 13.4 10.5 13.6 16.6 5.4 31.6-12.8 23.1-25.6 46.2-38.5 69.2-10.7 19.2-19.5 21-36.6 7.9-35.4-27.1-74.2-47-118.6-53.5-39.5-5.8-77.8-2.3-112.6 19.9-40.1 25.7-48.5 79.2-15.9 111.1 12.6 12.3 27.2 23.9 43.1 31.3 38.2 17.9 77.7 32.9 116.5 49.4C613 471 652 487.8 686.5 513.8c38.5 29 63.7 66.3 71 113.8 10.6 69-6.9 130.5-54.4 182.6-35.5 38.9-79.9 61.8-131.1 72.3-11.2 2.3-11.3 2.3-11.3 14.1 0 26.8.1 53.7 0 80.5-.1 17.1-5.7 22.8-22.5 22.8-22.4.1-44.7.1-67.1 0-14.8-.1-21.5-6.8-21.7-21.7-.2-27.2 0-54.5-.1-81.7 0-11.7-.1-11.9-11.5-13.9-66.6-12-126.2-38.8-177.6-83.2-5.5-4.8-11-9.7-15.6-15.3-6.6-8-7-13.9-.8-22.2 18.7-25.1 37.7-49.9 56.8-74.7 6.8-8.8 20-8.8 28-1.5 22.7 20.6 47.9 37.6 75.9 50.3 36.4 16.5 74.2 26.1 114.6 23.1 25.8-1.9 49.1-10.7 69.7-26.2 32.3-24.2 48.9-81.6-.3-120.6-21.5-17.1-46.9-27.5-71.8-38.4-44.2-19.4-89.2-37.2-132.9-57.7-36.7-17.2-68.6-41.6-94.1-73.9-21.7-27.4-32.7-58.9-35.8-93-8.1-87.1 31.3-150.1 102.3-196 24.4-15.8 51.5-25.7 79.8-32.2 13.3-3 13.3-3.1 13.3-16.3 0-26.8-.1-53.7 0-80.5.1-18.2 6.1-24.3 24-24.4 22-.1 43.9-.1 65.9 0 15.3.1 21.3 6.1 21.5 21.5.2 14.4.1 28.6.1 42.8z"/></svg>