<svg xmlns="http://www.w3.org/2000/svg" viewBox="0 0 500 500" style="enable-background:new 0 0 500 500" xml:space="preserve"><path d="M448 272.5H22.7C9.8 272.1 0 262.5-.1 250c-.1-11.9 9.4-21.9 21.8-22.9 2.6-.2 5.2-.1 7.8-.1h409.6c2.8 0 5.7.5 8.8-.6-4.5-10.1-11-18.8-17.9-27.1-17.8-21.4-38.9-39.4-61-56.1-26.6-20.1-54.6-38.3-83.7-54.6-6.2-3.5-11.2-7.9-13.1-15-2.5-9.1-.1-16.9 6.8-23.1 6.8-6.1 14.7-7 23.2-4.1 1.8.6 3.4 1.6 5.1 2.5 42.7 24.2 83.4 51.3 120.4 83.6 19.1 16.7 36.8 34.8 50.9 56 9.2 13.9 16.4 28.7 19.7 45.2 3.5 17 1.2 33.4-4.9 49.4-8 20.8-21 38.5-35.8 55-22.5 24.9-48.4 45.9-75.5 65.4-24.2 17.4-49.3 33.4-75.4 47.9-5.5 3.1-11.2 4.8-17.7 3.2-9.4-2.4-15.3-8.2-17.3-17.7-2-9.3 1.4-16.7 8.6-22.5 2.2-1.8 4.8-3 7.3-4.4 34.7-19.9 68.1-41.9 99-67.4 19.8-16.3 38.4-33.8 53-55 3.1-4.5 6.2-9 8.4-15.1z"/></svg>