<svg xmlns="http://www.w3.org/2000/svg" viewBox="0 0 500 500" style="enable-background:new 0 0 500 500" xml:space="preserve"><path d="M227.4 448.1V22.8c.4-12.9 10-22.7 22.5-22.8 11.9-.1 21.9 9.4 22.9 21.8.2 2.6.1 5.2.1 7.8v409.6c0 2.8-.5 5.7.6 8.8 10.1-4.5 18.8-11 27.1-17.9 21.4-17.8 39.4-38.9 56.1-61 20.1-26.6 38.3-54.6 54.6-83.7 3.5-6.2 7.9-11.2 15-13.1 9.1-2.5 16.9-.1 23.1 6.8 6.1 6.8 7 14.7 4.1 23.2-.6 1.8-1.6 3.4-2.5 5.1-24.2 42.7-51.3 83.4-83.6 120.4-16.7 19.1-34.8 36.8-56 50.9-13.9 9.2-28.7 16.4-45.2 19.7-17 3.5-33.4 1.2-49.4-4.9-20.8-8-38.5-21-55-35.8-24.9-22.5-45.9-48.4-65.4-75.5C79 358 63 332.9 48.5 306.8c-3.1-5.5-4.8-11.2-3.2-17.7 2.4-9.4 8.2-15.3 17.7-17.3 9.3-2 16.7 1.4 22.5 8.6 1.8 2.2 3 4.8 4.4 7.3 19.9 34.7 41.9 68.1 67.4 99 16.3 19.8 33.8 38.4 55 53 4.5 3.1 9 6.2 15.1 8.4z"/></svg>