<svg xmlns="http://www.w3.org/2000/svg" viewBox="0 0 1000 1000" style="enable-background:new 0 0 1000 1000" xml:space="preserve"><path d="M781.1 37c73.1 73.4 145.8 146.3 217.8 218.5-70.9 71.2-143.4 144.1-217.8 218.9V325c0-12 0-12-11.8-12.1-44 0-87.9.3-131.9-.2-14.1-.2-25 4.7-35.1 14.2-28.4 26.9-52.9 57.1-75.5 88.8-54.2 76.1-107.4 152.9-161.4 229.1-21.9 30.8-43.6 61.9-67.7 90.9-39.7 47.8-92.2 70.6-153.9 71.5-44.3.7-88.6.1-133 .1-10.7 0-10.8 0-10.8-10.5V693.1c0-9.3.1-9.4 9.6-9.4 48.7 0 97.4-.5 146 .2 16.7.3 29.7-4.8 39.7-18 21.1-28.2 43-55.9 63.4-84.6 57.5-80.9 113.9-162.5 171.7-243.3 25-34.9 51.9-68.4 84.2-97.1 28.5-25.3 61-43.2 99.1-49.4 10-1.6 20.2-2 30.4-2.1 41.4-.2 82.8-.1 124.2-.1 12.8 0 12.8 0 12.8-13.3V37zM1000 743.7c-71.6-71.4-144-144.6-217-217.1-.7.5-1.3.9-2 1.4v144.1c0 11.5-.1 11.6-11 11.6-45.1 0-90.1-.2-135.2.1-11.2.1-20.8-3.1-28.6-11-12.3-12.4-25.2-24.3-36.3-37.7-19.4-23.5-37.7-48.1-56.4-72.2-2.8-3.5-5.5-7.1-8.5-10.8-1.8 1.9-2.7 2.6-3.3 3.5-22.5 32.7-44.8 65.4-67.5 97.9-3.7 5.2-2 8.4 1.3 12.2 20.9 24.7 40.5 50.6 62.7 74.1 42.3 44.7 93.5 70.1 156.8 67.9 38.1-1.3 76.3-.3 114.4-.2 11.3 0 11.4.1 11.4 11.2V953c0 3.5.3 6.9.5 10.1 73.3-73.4 146-146.4 218.7-219.4zM280.7 441c23.7-33.5 47.4-67.1 71.2-100.5 2.7-3.8 2.1-6.2-.4-9.4-19-24.8-36.6-50.8-57-74.3-36.2-41.7-83-64.7-138.2-66.8-48.6-1.9-97.3-.7-145.9-.8-10.3 0-10.4.1-10.4 11v101.5c0 11.1 0 11.1 11.2 11.1 48.3 0 96.6.4 144.8-.2 16.6-.2 29.5 4.6 39.5 18.1 21.4 28.9 43.2 57.5 64.7 86.3 6.2 8.4 11.9 17.1 17.8 25.6 1.5-.9 2.3-1.1 2.7-1.6z"/></svg>