<svg xmlns="http://www.w3.org/2000/svg" viewBox="0 0 1000 1000" style="enable-background:new 0 0 1000 1000" xml:space="preserve"><path d="M679.5 535.5c-3.9-3.7-6.5-6-9-8.6-119.1-119.1-238.2-238.2-357.6-357-7.1-7.1-8.9-13.3-6.1-23C332.2 57.8 413.7-2.8 504.9.1c94.3 3 172.5 68 191.3 159.8 2.9 14.4 3.8 29.4 3.9 44.2.4 79.4 0 158.8.2 238.2.1 28-4.3 55-15.1 80.9-1.5 3.8-3.4 7.3-5.7 12.3zm251.6 323.4C667.3 595.3 403.6 331.5 139.8 67.8c-3.7-3.7-7.4-7.4-11.6-10.4-17.6-13-40.8-13.1-58.4-.4-17.7 12.7-26.2 35.2-18.5 55.2 3.7 9.7 10.5 19 17.9 26.4C332.5 402.3 596 665.7 859.4 929.2c2.8 2.8 5.6 5.7 8.7 8.3 15.8 13.3 33.6 16.9 52.7 8.5 19.4-8.5 29.2-24.2 30.7-44.1.1-18.5-8.6-31.2-20.4-43zM556 697.5c-2.3-2.2-7.2-2.6-10.8-2.3-7.6.6-15 2.9-22.5 3.4-103.8 5.9-183.9-34.9-238.9-123.1-23.4-37.5-34-79.4-34.5-123.7-.2-13.3-3.4-25.4-12.2-35.6-13.6-15.8-35.2-21.5-54.6-14.5-20 7.1-33 25.1-33.1 47-.2 43 6.9 84.8 23.1 124.6 49.2 120.5 138 193.9 265.5 220.3 12 2.5 12.1 2.4 12.1 14.1v79.4c0 13.2-.1 13.3-13.1 13.3-30.5.1-61-.5-91.4.5-24.1.8-43.1 20.1-45.3 43.5-2.3 25.6 12.5 48 36.3 53.8 6.9 1.7 14.3 1.6 21.5 1.7 94.7.1 189.3.1 284 .1 4 0 8 0 12-.3 38-2.7 59-44.6 38.2-76.6-9.9-15.3-24.4-22.6-42.6-22.6-29.3 0-58.6 0-87.8-.1-11.7 0-11.8-.1-11.8-12.2-.1-26.9 0-53.7 0-80.6 0-11.7.1-11.8 12.2-14 23.3-4.2 46-10.3 70.2-20.3-26.4-26.2-51.2-51.2-76.5-75.8zm237.9-54.9c33.7-51.9 52.2-108.8 56.4-170.4.6-8.4.7-16.9.4-25.3-1-26.7-22.4-47.7-48.9-48.4-26.1-.6-48.5 20-50.7 46.6-1.2 14.8-1.6 29.7-4 44.3-4.2 26.7-13.3 52-26.4 75.7-2.3 4.2-5.2 7.5-.2 12.5 22.9 23 45.3 46.5 68.9 70.8 2.2-2.6 3.5-4.1 4.5-5.8zM300.8 442.4c-6.4 112.3 91.3 211.9 205.9 205.7-69.3-68.9-136.4-137.2-205.9-205.7z"/></svg>