<svg xmlns="http://www.w3.org/2000/svg" viewBox="0 0 1000 1000" style="enable-background:new 0 0 1000 1000" xml:space="preserve"><path d="M.3 500c0-112.5.5-225-.3-337.4-.3-43 31.1-80 74.9-84.7 22.5-2.5 42.3 4.4 60.6 17.4 57.5 40.9 115.2 81.5 172.8 122.3 100.3 70.9 200.5 141.9 300.8 212.6 19.5 13.8 32.9 31.3 36.7 55.1 5.7 35.8-6.9 64.2-36.3 85.1-38 27-76.2 53.8-114.4 80.7-119.9 84.6-239.8 169.1-359.7 253.7-27.7 19.5-57.1 24.3-88 9.5C16.7 899.5.2 874.4.1 840c0-113.4.2-226.7.2-340zM999.8 83.1c-.1-58.5-57.3-98-111.9-77.9-27 10-54.6 37.6-54.5 84.6.4 273.5.2 547 .3 820.4 0 6.8.4 13.6 1.4 20.2 8.9 56.8 73.8 87.7 123.2 58.3 27.9-16.6 41.7-41.7 41.6-74.4-.1-137.9 0-275.9 0-413.8 0-139.1.2-278.3-.1-417.4z"/></svg>