<svg xmlns="http://www.w3.org/2000/svg" viewBox="0 0 1000 1000" style="enable-background:new 0 0 1000 1000" xml:space="preserve"><path d="M896.7 722.5c-2.3-2.4-4.5-4.9-6.8-7.3-22.6-22.6-45.2-45.2-67.8-67.7-8.7-8.7-13.3-18.5-9.9-31 5.5-19.7 28.1-28 45-16.4 2.8 1.9 5.3 4.5 7.8 6.9 39.3 39.2 78.6 78.5 117.9 117.8l5.9 5.9c15.1 15.9 15.1 30.9-.4 46.4-32.6 32.7-65.3 65.3-97.9 98-8.6 8.6-17.1 17.2-25.8 25.8-2.7 2.7-5.5 5.3-8.7 7.4-13.5 8.5-24.1 7.5-37.3-5.5-10-9.8-10-25.9-1.4-37.3 2.1-2.7 4.7-5.1 7.1-7.6 22.6-22.6 45.2-45.2 67.7-67.8 1.6-1.7 3.1-3.5 6.4-7.1h-12.9c-79.8 0-159.7-.3-239.5.2-16.4.1-27.1-5.7-36.2-19.2-106.5-158.3-213.5-316.3-320-474.7-6.6-9.8-13.5-13.2-25.2-13.1-76 .6-152.1.3-228.1.2-5.2 0-10.5-.3-15.4-1.6C9.2 271.6.4 259.9 0 248c-.4-12.5 7.9-24.8 20-28.7 4.5-1.4 9.5-2 14.3-2 85.8-.1 171.5 0 257.3-.2 14.7 0 24.6 6.4 32.6 18.4 107.4 159.4 215.1 318.6 322.5 478.1 5.5 8.2 11.1 11.2 21 11.2 72.6-.5 145.1-.2 217.7-.2h10.4c.2-.7.5-1.4.9-2.1zm-.1-445c-2.3 2.5-4.6 5-7 7.4-22.6 22.6-45.1 45.2-67.8 67.7-7.6 7.5-12.1 16.2-10.5 27 1.7 11.6 8.2 20 19.4 23.7 12.4 4.1 23.2.7 32.3-8.4 41.5-41.5 83-82.9 124.4-124.5 16.9-17 16.7-31.8-.1-48.6-40.5-40.5-81-81-121.6-121.5-3.7-3.6-7.7-7-12-9.8-11.3-7.3-21.9-4.3-31.7 3.3-9.3 7.2-13.5 19.6-9.4 30.7 2.1 5.6 5.7 11.1 9.9 15.5 22.3 22.8 45.1 45.3 67.6 67.9 2.3 2.4 4.5 4.9 8.3 9.1h-13.1c-80.2 0-160.4.2-240.6-.2-15.1-.1-25.5 5.3-33.8 17.8-26.1 39.3-52.7 78.3-79.1 117.4-2.3 3.4-4.8 6.9-6.6 10.6-8.9 17.5 1.1 38.1 20.2 41.9 14.6 2.9 24.6-3.8 32.4-15.4 23.4-34.9 47.1-69.5 70.3-104.5 4.3-6.5 8.7-9.3 16.7-9.2 74 .3 147.9.2 221.9.2h9.2c.2.5.4 1.2.7 1.9zM290.3 782.8c14.5.1 25-5.2 33.1-17.4 29.6-44.5 59.7-88.6 89.5-132.9 1.9-2.9 3.8-5.8 5.2-9 8.1-19.2-5.7-40.2-26.5-40.4-12.4-.2-20.6 6.3-27.3 16.2-25.7 38.3-51.7 76.4-77.2 114.8-4.5 6.8-9.3 9.5-17.6 9.5-77.7-.3-155.4-.2-233.2-.1-4.8 0-9.8.2-14.4 1.3-12.4 3.1-21.7 14.9-22 27.1-.4 13 8.2 25.3 21 28.9 4.9 1.4 10.2 1.8 15.4 1.8 42 .1 84 .1 125.9.1 42.8 0 85.5-.2 128.1.1z"/></svg>