<svg xmlns="http://www.w3.org/2000/svg" viewBox="0 0 1000 1000" style="enable-background:new 0 0 1000 1000" xml:space="preserve"><path d="M998.3 45.7v464c-147.7-49.4-294.5-98.5-443.5-148.2 44.5-31.8 87.3-62.3 130.7-93.4-38.9-31-81.4-50.9-128.7-60-127.2-24.2-253.8 35.5-316.1 148.8-89 161.8-8.7 366.5 166.4 424.4 130 43 269.5-7 343.7-123 .8-1.3 1.8-2.6 2.4-4 2.5-5.6 5.8-6.1 11-2.9 11.6 7.1 23.5 13.7 35.2 20.5 41.4 23.8 82.7 47.6 124.1 71.5 9.3 5.4 9.5 5.6 3.9 14.6-73.1 117.8-176.1 195.7-311.1 227.5-140.3 33.1-272.6 10.2-392.6-70.5C104 834.4 30.2 721.4 8.3 578.5c-24.2-157.9 17.9-298.4 125.5-417.2 74.4-82.1 166.9-134.4 276-153C576.2-20 722.3 24 846.4 139.6c8.5 7.9 8.5 7.9 17.8 1.3 42.4-30.2 84.7-60.4 127.1-90.6 1.8-1.4 3.8-2.5 7-4.6z"/></svg>