<svg xmlns="http://www.w3.org/2000/svg" viewBox="0 0 1000 1000" style="enable-background:new 0 0 1000 1000" xml:space="preserve"><path d="M561.7 872.3c-124.8-124.7-248.1-248-369.9-369.7 123.6-123.5 247.4-247.3 369.9-369.7v739.4zM1000 133.2C877.8 255.5 754 379.3 630.5 502.9 752 624.4 875.4 747.7 1000 872.2v-739zm-875.5 12.6c0-4.4-.2-8.7 0-13.1.2-6.2-2.6-8.7-8.8-8.7-35.4.1-70.9.2-106.3-.1-7.2-.1-9.9 2.8-9.3 9.6.3 3.2 0 6.5 0 9.8v713.3c0 3.8.2 7.6 0 11.5-.2 5.5 2.1 7.8 7.7 7.8 36-.1 72-.1 108 0 6.3 0 8.9-2.6 8.7-8.8-.2-4.4 0-8.7 0-13.1V145.8z"/></svg>