<svg xmlns="http://www.w3.org/2000/svg" viewBox="0 0 1000 1000" style="enable-background:new 0 0 1000 1000" xml:space="preserve"><path d="M529.6 403.8c6.1-4.4 9.2-6.4 12-8.7 86.7-71.7 173.4-143.4 260-215.3 43-35.7 90.1-43.6 140.5-18.9 37.4 18.3 57.2 49.3 57.2 91.6.1 163.4-.8 326.8.6 490.2.4 43-25.1 94.5-89.2 107.3-40.6 8.1-76.1-2.3-107.8-28.7-86.2-71.6-172.6-142.9-258.9-214.4-3.5-2.9-7.2-5.7-13.3-10.5-.5 7.1-1.1 11.9-1.1 16.6-.1 43.3.3 86.6-.1 130-.4 42.6-18.1 76.2-56.8 95.3-48.3 23.8-95.2 19.8-137.4-14.7C251.5 755 168.2 685.8 84.7 616.8 70 604.6 55 592.4 40.2 580c-53.4-44.5-53.6-115.6-.2-159.9 98.3-81.4 196.6-162.6 295.2-243.7 34-28 72.8-36.5 115.2-24 50.7 14.9 78.9 52.7 79.3 105.5.3 42.4.1 84.8.1 127.1-.2 5.1-.2 10.2-.2 18.8z"/></svg>