<svg xmlns="http://www.w3.org/2000/svg" viewBox="0 0 1000 1000" style="enable-background:new 0 0 1000 1000" xml:space="preserve"><path d="M673.9 328.6c0 52.1.1 104.1 0 156.2-.2 85.2-55.5 154.3-139.2 170.4-113.8 22-207.8-64.6-207.5-167.1.3-105.1 0-210.2.1-315.3C327.4 75.1 403-.1 501.1 0c82 .1 150.5 54.2 168.6 134.1 2.9 12.9 3.9 26.5 4 39.8.5 51.6.2 103.1.2 154.7zM455.1 956.7c.3 18.7 9.9 32 26.8 39.4 29.5 12.9 61.5-7.8 61.9-40.3.5-38.2.1-76.4.1-114.5 0-28.3 9.6-40.3 36.7-47.4 75.7-19.8 136.8-61.3 182.8-124.7 46.3-63.9 61.8-136.2 57-213.7-1.3-20.7-21.3-37.9-42.7-38.1-21.4-.2-41.4 16.7-43.1 37.4-.9 11.3-.2 22.8-.5 34.2-1 49.3-13.6 95.3-43.9 134.7-54.8 71.2-127.6 103.8-217 94.4-106.3-11.2-186.1-86.2-204.8-191.4-4-22.7-2.5-46.4-3.9-69.6-1.3-21.8-20.4-39.4-42.6-39.7-22-.4-43.1 17.1-43.1 38.9-.1 29.6-.9 60 4.6 88.8 20.9 108.4 84 184.9 183.8 231 17.4 8 36.2 13.3 54.8 18.4 20.9 5.8 34.8 24.8 33.2 43.4-1.6 18.7-.3 37.7-.3 56.5.1 20.7-.2 41.5.2 62.3z"/></svg>