<svg xmlns="http://www.w3.org/2000/svg" viewBox="0 0 1000 1000" style="enable-background:new 0 0 1000 1000" xml:space="preserve"><path d="M535.6 816.1c-24.4 6.8-47.3 6.4-71.3.1v13.9c0 43.4-.1 86.7 0 130.1.1 13.5-4.2 24.6-15.5 32.5-10.4 7.3-21.5 9.7-33.3 4.2-13.3-6.2-21.9-16.5-22.5-31.7-.5-13.3-.1-26.6-.1-39.9 0-47.2-.1-94.4.1-141.5 0-7.1-1.3-13-6-18.8-11.2-13.7-18.9-29.3-23.8-46.3-1.5-5.3-4.1-7.8-9.8-9.3-72.4-19-118.4-64.8-134.7-137.9-4.7-21.2-2.7-43.8-3.9-65.8-.3-5.9 3.5-5.6 7.5-5.6h49.1c39.6 0 79.1.1 118.7-.1 18.1-.1 32.1-9.9 36.8-25.2 7-22.9-9.3-45.6-33.4-46.1-18.6-.4-37.3-.1-55.9-.1H225.7c-10.7 0-10.8-.1-10.8-10.3-.1-17.1-.1-34.2 0-51.4 0-9.9.1-10.1 10-10.1 47.6-.1 95.1 0 142.7 0 8.8 0 17.5.2 26.2-.1 18.7-.7 33.1-14.4 34.8-32.9 1.6-17-11.1-33.5-28.8-37.1-4.8-1-9.8-1.1-14.7-1.2-51.4-.1-102.7 0-154.1-.1-19.1 0-15.8 2-16-16.6-.2-17.5 0-35 0-54.4h168.8c3.4 0 6.9.1 10.3-.1 20.1-1.3 35.5-17.7 34.9-36.6-.7-19.6-16.2-34.5-36.7-34.6-53.3-.2-106.5-.1-159.8-.1h-13.3c.6-4.2.7-7.3 1.5-10C241 65 285.5 21.8 354.4 4.8c14.2-3.5 29.3-4.7 44-4.8 70-.5 140-.3 210-.2 78.9.5 150 55.4 170.6 131.9.9 3.2 1.4 6.5 2.5 11.6h-13.2c-53.3 0-106.5-.1-159.8 0-17 0-30.2 9.2-35.1 24-7.3 22.1 7.5 44.7 31.1 47.1 3.8.4 7.6.2 11.4.2h158.7c10.5 0 10.6.1 10.6 10.4.1 15.2.1 30.4 0 45.7-.2 16.4 2.8 14.8-15.5 14.9-51.4.1-102.7 0-154.1.1-5.3 0-10.7.2-15.8 1.3-14.8 3.3-24 12.6-27.4 27.3-4.5 19.7 9.7 39.8 29.8 42.3 4.1.5 8.4.3 12.5.3h169.6c.3 4.1.8 7.4.8 10.7.1 16.7.1 33.5 0 50.2 0 10.9-.1 10.9-11.3 10.9-55.2 0-110.3 0-165.5.1-17 0-30.2 9.4-35 24.1-7.2 22.2 7.7 44.6 31.4 47 3.8.4 7.6.2 11.4.2h157.5c12.8 0 11.5-.9 11.6 11.7.1 23.2 1.1 46.5-5.6 69.1-19.9 67.1-63.7 110-131.3 128.1-6.9 1.8-10.2 4.4-12.1 11.2-4.8 16.6-12.5 31.9-23.5 45.2-4.5 5.4-5.7 11-5.7 17.7.2 59.4 0 118.7.2 178.1 0 12.7-4.4 23-14.3 30.8-25 19.9-53.9-1.8-56.4-22-.6-4.5-.7-9.1-.7-13.7V830.7c-.2-4-.2-8.2-.2-14.6zm-36.1-66.8c39.5.2 71.4-31.2 71.6-70.4.2-39.9-31.7-72.1-71.3-72-39.2.1-71 31.9-71 71.1 0 39.4 31.4 71.2 70.7 71.3z"/></svg>