<svg xmlns="http://www.w3.org/2000/svg" viewBox="0 0 1000 1000" style="enable-background:new 0 0 1000 1000" xml:space="preserve"><path d="M437.3 872.4V130.2c123.3 123.5 247.5 247.8 371 371.4-121.6 121.6-245.8 245.8-371 370.8zm-69.5-371.5C245.5 378.4 122 254.8 0 132.6v735.6c123.6-123.4 247.3-247 367.8-367.3zM1000 145.4c0-4.8-.2-9.6 0-14.4.2-6.1-2.4-8.6-8.5-8.6-35.4.1-70.8-.2-106.2.4-3 0-7.2 4.6-8.6 8-1.5 3.6-.4 8.3-.4 12.5v713.1c0 4.2.1 8.4 0 12.6-.1 6 2.6 8.6 8.7 8.6 35.4-.1 70.8-.1 106.2 0 5.8 0 9.1-1.9 8.8-8.3-.2-4.8 0-9.6 0-14.4V145.4z"/></svg>