<svg xmlns="http://www.w3.org/2000/svg" viewBox="0 0 1000 1000" style="enable-background:new 0 0 1000 1000" xml:space="preserve"><path d="M226.7 363.3C149.7 301.7 75 242-.8 181.4 74.9 120.9 149.8 61 226.1 0c.3 4.8.6 7.9.6 10.9v112.5c0 13.1-1.3 12.2 12.5 12.2h659.7c4 0 8-.2 12 .1 24.4 1.4 42.1 18.8 43.9 43.1.3 3.6.3 7.3.3 10.9v296c0 2.5-.1 5.1 0 7.6.2 4.5-1.6 6.5-6.4 6.5-26.2-.1-52.4-.1-78.6 0-4.2 0-6-1.7-5.9-5.8.1-3.3 0-6.6 0-9.8V242.8c0-3.3-.1-6.6 0-9.8.2-4.7-2-6.6-6.6-6.3-2.9.2-5.8 0-8.7 0H241.6c-16.7 0-14.7-2.1-14.7 14.2-.1 36.4 0 72.8 0 109.2-.2 3.7-.2 7.2-.2 13.2zm546.5 286.6v111.4c0 12.9 1.1 12-11.6 12H147.7c-11.9 0-12 0-12-11.8V535.4c0-9.1-.3-18.2.1-27.3.2-6.3-2.4-8-8.3-8-24.8.3-49.5.3-74.3 0-7-.1-9.1 2.6-8.4 8.9.2 1.8 0 3.6 0 5.5v296c0 4.7.1 9.5.6 14.2 2 17.8 14.7 33 32 37.6 5.9 1.6 12.2 2.1 18.3 2.1 55 .2 110 .1 164.9.1h500.3c13.7 0 12.2-.7 12.2 12.5v112.5c0 3 .4 6 .8 10.6 76.3-61 151.2-120.9 226.8-181.4-75.9-60.7-150.6-120.4-227.5-182v13.2z"/></svg>