<svg xmlns="http://www.w3.org/2000/svg" viewBox="0 0 1000 1000" style="enable-background:new 0 0 1000 1000" xml:space="preserve"><path d="M412.8 813.6c2.8 3 5.4 6 8.3 8.9 20.6 20.6 41.4 41.1 61.8 61.9 28.2 28.7 20.4 66.1-16.6 81.5-8.5 3.5-17.3 4.2-25.4.2-8.1-4-16.5-8.5-22.9-14.7-51-50.3-101.5-101.1-152.2-151.8-8.9-8.9-14.5-19.2-15.3-31.9-1-14.6 4-26.9 14.4-37.2 51.6-51.5 103-103.2 154.7-154.6 19.2-19.1 47.8-19.1 66.2-1 18.4 18.1 18.9 46.8.2 66.2-20.8 21.6-42.3 42.6-63.6 63.6-3.2 3.2-7.4 5.4-11.2 8 .7 1.1 1.4 2.1 2 3.2 1.7.6 3.5 1.6 5.2 1.6 95-.1 190 1.5 284.9-1.1 93.4-2.6 177.5-75.4 197-167.1 18-84.3-4.8-156.7-68.7-214.8-21.4-19.5-23.9-46.9-9.8-65.8 16.9-22.6 47-25.6 69.3-6.3 48 41.4 80.8 92.7 97.6 153.8C1035.4 585.9 932.4 761 761.3 802c-22.9 5.5-46.9 8.4-70.4 8.6-87.9 1-175.8.4-263.7.4h-13.6c-.2.9-.5 1.8-.8 2.6zm160.5-626.8c-86.6 0-173.3-.3-259.9.3-20.3.1-40.9 1.7-60.8 5.5-181.7 34.9-293.2 221.2-238.8 398 17.7 57.6 49.9 105.9 95.4 145.3 15.6 13.5 35.2 16 52.3 7.2 17.3-8.8 27.3-26.9 25.5-46.3-1.3-14.6-9.7-25-20.2-34.6-71.8-64.9-94.7-166.8-53.6-253.1 40.4-85 109.6-128.2 204.1-128.8 85.8-.6 171.6-.1 257.4-.1 4 0 8 .4 14.8.9-11.7 11.6-21.3 21.2-31 30.9-15.3 15.3-31.1 30.2-45.7 46.2-24 26.6-11.8 67.9 22.4 76.5 18.1 4.6 33.6-.9 46.7-14.1 24.1-24.3 48.3-48.3 72.4-72.5 26.8-26.8 53.6-53.7 80.4-80.4 12.8-12.8 17.4-28.1 13.5-45.7-2.5-11-9.5-19.2-17.3-27-48.9-48.9-97.7-97.8-146.6-146.7-2.9-2.9-6-5.8-9.3-8.4-19.9-15.6-61.9-12-72.4 22.9-5.7 19.1-.6 35.3 13.1 49.1 21.1 21.3 42.4 42.4 63.5 63.7 2.8 2.8 5.3 5.9 9.8 11-6.9.2-11.3.2-15.7.2z"/></svg>