<svg xmlns="http://www.w3.org/2000/svg" viewBox="0 0 1000 1000" style="enable-background:new 0 0 1000 1000" xml:space="preserve"><path d="M.5 497.9c0-134.6.9-269.2-.5-403.8-.4-41 31.2-82.5 71.5-91.4 29-6.4 56.9-2.6 82.5 15.4 52.7 37 106.1 73 159.2 109.4 136.6 93.6 273.2 187.2 410 280.7 18.2 12.5 34.7 26.3 44.1 46.9 19.7 43.3 6.7 92.3-33 120.7-39 27.9-78.6 54.9-118 82.3C462.4 765 308.6 872 154.7 978.9c-19.4 13.4-40.4 23.2-64.6 20.6C32.7 993.4-.2 945.4.1 907c1.1-136.3.4-272.7.4-409.1zm914.9 447.6c0 4.9-.3 9.8.2 14.6 2.5 25.2 29.5 45.8 50.8 38.5 20.7-7.1 33.7-27.4 33.6-46.3-.4-302.5-.3-604.9-.1-907.4 0-10.4-3.2-19-8.6-27.3-10.7-16.6-27-19.3-44.5-16.5-14.8 2.4-24.4 12.6-28.7 26.7-2.1 7-2.6 14.8-2.6 22.3-.1 149.7-.1 299.4-.1 449v446.4z"/></svg>