<svg xmlns="http://www.w3.org/2000/svg" viewBox="0 0 1000 1000" style="enable-background:new 0 0 1000 1000" xml:space="preserve"><path d="M701.4 322c-17.9 0-35.8.6-53.6-.1-47.1-2-83.2 17.5-110.9 54.6-18.7 25-33.5 52.3-46.4 80.5-19.8 43.4-38.4 87.4-58.5 130.7-20 43-41.4 85.3-71.5 122.3-23.8 29.4-49.2 57.2-82.6 76.1-38.5 21.8-80.1 33.7-124.2 34.7-43.9 1-87.8.4-131.7.3-14.9 0-21.7-6.3-21.8-21.2-.3-33.4-.3-66.8 0-100.2.1-15.3 6.8-21.5 22.7-21.6 38.1-.2 76.1-.1 114.2 0 19.5 0 38.7-1.6 57-9.2 23.5-9.6 40.7-26.8 55.7-46.4 23.3-30.4 39.6-64.8 55.1-99.5 14.3-31.9 27.5-64.2 42.5-95.8 14.5-30.5 29.9-60.5 46.2-90 22.2-40.1 51.8-74.5 86.9-104 32.3-27.2 70.5-42.1 111.4-49.4 19.3-3.5 39.3-4.4 59-4.8 41.2-.7 82.3-.2 123.5-.2 10.6 0 10.7-.1 10.7-11 .1-29.5.1-59 0-88.6 0-9.2 0-19 9.9-23s18.4-.2 26.1 7.5c56.1 56.5 112.6 112.6 168.8 169 13.1 13.1 13.3 21.7.4 34.6-56.7 56.9-113.7 113.7-170.5 170.6-6.6 6.6-13.7 10.9-22.8 7.2-9.6-3.8-11.9-12.3-11.9-22 .1-30.3.1-60.6 0-90.9 0-10.1-.2-10.2-10.4-10.2h-73.3zm-215 231c-20.5 46.5-41.4 92.9-68 136.3-3.4 5.5-2.1 9.4 1.5 13.5 16.4 18.1 32.1 37 49.4 54.1 27.4 27.1 61.2 43.6 98 53.4 26.6 7 54 10.7 81.7 10.8 41.6.2 83.1 0 124.7 0 11.3 0 11.4.1 11.4 11.4v92.1c0 8.4 2.5 16 10.6 19.1 7.8 2.9 15.7 1.9 22.4-4.8 58-58 116.1-115.9 173.9-173.9 10.5-10.5 10.7-19.9.3-30.3-57.6-57.8-115.3-115.4-173-173.1-6.5-6.5-14-10.4-23.1-6.6-9.2 3.8-11.2 12.1-11 21.2.1 4.7 0 9.3 0 14 0 26 .1 52.1 0 78.1 0 9.5-.2 9.7-9.7 9.7-46.6 0-93.2.6-139.8-.4-35.9-.8-66.1-15.7-89.6-43.1-19.9-23.1-34.9-49.4-48.3-76.6-2-4-4-8-6.9-13.7-2.2 4.2-3.4 6.5-4.5 8.8zM299.6 447.1c20.6-46.9 41.6-93.6 69-137.1 2.8-4.5 2.4-7.6-.8-11.3-9.6-11.2-18.5-23.1-28.5-33.9-49.6-53.5-110.8-83-183.8-85.6-44.6-1.6-89.3-.5-134-.4-14.1 0-20.6 6.5-21.4 20.5-.3 4.6-.1 9.3-.1 14 0 28.7-.2 57.5.1 86.2.1 15.7 6.6 21.8 22 22.3 3.5.1 7 0 10.5 0 39.2.1 78.5-.4 117.7.5 36.4.9 66.8 16 90.4 43.8 19.4 22.9 34.4 48.8 47.5 75.7 2 4.1 4.2 8 7 13.3 2.1-3.5 3.4-5.7 4.4-8z"/></svg>