<svg xmlns="http://www.w3.org/2000/svg" viewBox="0 0 1000 1000" style="enable-background:new 0 0 1000 1000" xml:space="preserve"><path d="M747.7 198.2c-2.8 2.6-5.8 5.1-8.5 7.8-18 18.2-35.6 36.8-54.1 54.5-27.1 25.9-70.3 15.7-82.1-19.2-6.4-18.9-2.8-36.4 11.2-51.1 11.9-12.4 24.3-24.4 36.4-36.5 36.8-36.8 73.5-73.6 110.3-110.3 24.8-24.8 53.1-24.9 77.9-.2 48.4 48.3 96.9 96.6 145.1 145.1 21.6 21.8 21.3 53.9-.3 73.6-19.5 17.8-48.8 17.6-68.5-1.3-18-17.4-35.5-35.6-53.1-53.6-3-3.1-4.8-7.3-7.2-11-1.5.8-3 1.7-4.5 2.5-.2 4.5-.5 8.9-.5 13.4 0 192.8-.1 385.5.1 578.3 0 26.7-3.3 52.9-14.7 77.1-32 68.1-85.8 104.8-161.3 107.2-41.6 1.3-83.2.5-124.8.1-24.2-.2-43.7-17.2-48.2-40.7-4.4-22.9 8.5-46.6 30.9-54.9 6.9-2.6 14.8-3.7 22.2-3.8 38-.4 76-1.2 114 .1 43.3 1.5 83-32.7 82.4-82.3-.7-62.8-.2-125.6-.2-188.4V199.2c-.8-.3-1.7-.7-2.5-1zM249.8 801V584c0-124.8.8-249.6-.4-374.3-.5-52.3 39.9-87.1 84.7-85.1 37.9 1.7 76 .5 114 .3 29.7-.2 51.7-21.9 51.6-50.2-.1-28.6-21.8-49.3-52.1-49.4-40.4-.1-80.8-.7-121.2.1-64.4 1.3-114.3 29.8-149.2 83.7-19.2 29.6-27.1 62.7-27 98 .2 193.6.1 387.1.1 580.7v13.5c-5.4-2.2-8.4-4.7-11.1-7.5-17.7-17.9-35.2-36.1-53.2-53.7-21-20.1-51.6-20.1-71.3-.4-19.6 19.5-19.7 50.7.5 71.1 49.6 50 99.4 99.7 149.5 149.2 5.5 5.4 12.8 10 20.1 12.4 19.6 6.4 37.1 1.5 51.7-13.1l147.6-147.6c2.3-2.3 4.5-4.6 6.3-7.2 9.9-14 12.2-29.4 6.7-45.6-11.8-34.5-54.3-45.3-81.1-20.1-18.7 17.5-36.1 36.2-54.2 54.4-3 3-6.2 5.9-9.3 8.9-.9-.5-1.8-.8-2.7-1.1z"/></svg>