<svg xmlns="http://www.w3.org/2000/svg" viewBox="0 0 1000 1000" style="enable-background:new 0 0 1000 1000" xml:space="preserve"><path d="M443.2 314.3c16-18 30.6-36.5 47.3-52.8 54.3-52.8 119.6-83.6 195.1-91.2 23.3-2.4 47-1.9 70.5-2.4 16.4-.3 32.8-.1 50.9-2.3-4.9-5.1-9.9-10.1-14.7-15.4-21.8-23.9-20.3-58.4 3.5-79.6 22-19.6 53.8-18.9 75.9 2.5 25.8 25 50.9 50.7 76.4 76.1 11.6 11.6 23.5 22.9 34.8 34.9 10.6 11.3 17.6 24.4 17 40.5-.6 14.4-6.8 26.8-16.6 36.7-37.2 37.7-74.3 75.3-112.3 112-22.6 21.9-58.1 20.5-79.1-1.5-20.9-21.9-20.2-55.1 1.8-77.8 4-4.1 8-8.3 11.9-12.5.2-.2-.1-.9-.1-1.3-.3-.3-.6-.8-.8-.8-45.2-.3-90.5-5-135.2 5C581.7 304 512.6 382 500.9 470.9c-15.2 115.7 62.7 223.5 175 246.2 14.3 2.9 29 4.1 43.6 4.4 28.4.7 56.7.2 88.5.2-6.9-7.5-11.9-12.7-16.7-18.2-23.9-27.4-17.3-68.4 14.2-85.4 19.5-10.5 39.3-9.6 58.1 2.6 4.1 2.6 7.7 6 11.2 9.4 35.2 35.1 70.3 70.2 105.6 105.3 10 10 17.1 21.8 19.2 35.6 2.6 16.9-4 31.8-15.6 43.5-37.6 38.3-75.4 76.4-114 113.7-22.3 21.5-56.6 19.6-77.9-2.5-20.7-21.5-20.4-54.6 1-76.7 4.6-4.7 9.9-8.7 14.9-13-.4-.9-.9-1.9-1.3-2.8-3.2-.4-6.3-1.1-9.5-1.1-26.6-.1-53.3.5-79.9-.2-110.6-3.2-198.9-49.5-265.5-137.4-2.4-3.1-4.7-6.3-7.9-10.5-6.2 8-11.6 15.3-17.4 22.4C359 788.5 272 830.5 165.8 832.1c-36.9.6-73.7.3-110.6 0-25.2-.2-48.3-16.6-52.9-38.9-9.2-44.2 18.3-70.9 55-71.4 36.4-.5 72.8 0 109.3-.2 64.8-.4 119.9-24.1 163-71.9 56.1-62.2 72.9-135.4 48.3-215.1-24.7-79.7-80.1-130.1-161.5-150.2-17.4-4.3-36-5.2-54.1-5.7-34.2-.9-68.4-.3-102.6-.2-13.2 0-25.5-2.9-36.5-10.5C4 254.7-4.2 230.9 2.1 206.6c5.2-19.9 26.3-38.2 48-38.2 50.6-.2 101.4-1.7 151.7 2.4 82 6.8 151 43.2 207.3 103.1 12 12.8 22.7 26.9 34.1 40.4z"/></svg>