<svg xmlns="http://www.w3.org/2000/svg" viewBox="0 0 1000 1000" style="enable-background:new 0 0 1000 1000" xml:space="preserve"><path d="M200 663.1c21.5 36.6 47.1 66.4 77.9 91.8 124.8 103 308.2 104.9 434 4.4 43-34.4 75.7-76.8 97.9-127.2 1.2-2.8 2.4-5.6 3.7-8.3 11.6-24.8 38.8-35.4 63.1-24.6 24.2 10.7 35 38.2 24 63.3-24 55.1-57.6 103.6-101.6 144.7-72.8 68.1-158.8 106.8-257.9 117.5-165.5 17.9-335.4-66.3-421.5-214.9-1.5-2.6-3.2-5-6.4-10.2-1.6 7.7-2.9 12.8-3.9 18.1-4.7 25.4-9.1 50.9-14.1 76.3-4.1 20.7-20.2 35.7-40.2 38.5-21.2 2.9-39.1-5.7-49-23.7-5.3-9.6-7.4-20-5.3-30.9 11.9-63.1 23.6-126.3 36-189.3 1.6-8.3 5.3-16.8 10-23.8C57.2 549.4 73 545 91 547.8c31.2 4.8 62.4 9.9 93.5 14.9 36.8 5.9 73.5 11.9 110.3 17.8 22.7 3.7 39.6 20.3 42.3 41.8 2.5 20.6-9.7 41.4-29.3 49.5-11.3 4.7-23 4.5-34.8 2.6-20.3-3.3-40.5-6.7-60.8-9.9-3.3-.6-6.6-.8-12.2-1.4zm680.3-371.9c-24.6-42.6-55.4-80.1-93-111.8-103.5-87-222.8-121.2-356.2-100.5C324.5 95.5 236 146.9 165.8 229c-28.6 33.5-51.4 70.8-68.3 111.5-10.1 24.2.8 50.7 24.2 61.2 23.9 10.8 51 .8 62.7-23.2 1.7-3.4 3.1-6.9 4.6-10.4 16.3-37.8 38.9-71.5 68-100.6 71.2-71.2 157.7-105 258-100.6C634.8 172 727.8 226 793.9 326c1.9 2.9 3.6 6 6.6 11-7.8-1.2-12.6-1.8-17.4-2.6-19.9-3.3-39.7-6.8-59.7-9.8-27.8-4.2-52.6 13.3-56.2 39.3-4 28 13.2 50.9 41.5 55.6 64.5 10.7 129 21.6 193.5 32.4 33.4 5.5 55.3-9.9 61.7-43.3 11.9-62 23.7-123.9 35.5-185.9 4.8-25.4-14.5-52-40.4-55.9-25.7-3.9-49 11.6-54.5 37.5-5.8 27.5-10.5 55.3-15.7 82.9-.7 3.5-1.7 7-3 12.4-2.7-4.1-4.2-6.2-5.5-8.4z"/></svg>