<svg xmlns="http://www.w3.org/2000/svg" viewBox="0 0 1000 1000" style="enable-background:new 0 0 1000 1000" xml:space="preserve"><path d="M560.3 212.3H217.8c-26.3 0-49.8 7.4-69.5 25.2-22.8 20.7-31.6 47-31.5 77.2.2 55.6.1 111.1.1 166.7v197.7c-.1 12.2-.1 12.2-11.8 12.3-16.9.1-33.7 0-50.6 0-8.4 0-16.9-.2-25.3 0-5.9.2-8.4-2.3-8-8.1.2-2.3 0-4.6 0-6.9 0-120.3.1-240.6-.1-360.9 0-26.7 2.8-52.9 13.4-77.5 29.9-69.2 81.9-110 157.2-119.8 9.5-1.2 19.1-1.6 28.6-1.6 152.1-.1 304.2-.1 456.3-.1 16.5 0 14.7 1.8 14.7-14.7.1-23.8 0-47.5.1-71.3 0-4.2.1-8.5 1.3-12.5C697.4 1.3 714.9-5.2 729 4.6c8.1 5.7 15.6 12.4 23.2 18.8 56.8 47.3 113.6 94.7 170.4 142.1 3.2 2.7 6.5 5.4 9.1 8.7 5.7 7.2 6.7 15.4 3.1 23.8s-10.3 13.2-19.4 14.2c-3.8.4-7.7.2-11.5.2-114.5-.1-229.1-.1-343.6-.1zM95.7 787.4c-3.4 0-6.9-.2-10.3.1-9.7.8-16.6 5.8-20.2 14.7-3.7 8.9-2.2 17.3 4.2 24.6 2.3 2.6 5 4.8 7.6 7 57 47.6 114.1 95.2 171.2 142.8 7.4 6.1 14.7 12.3 22.2 18.2 17.2 13.4 35.5-1.2 37.8-15.5.5-3.4.5-6.9.5-10.3 0-25.3 0-50.6.1-75.9 0-9.5.2-9.5 9.4-9.7 3.1-.1 6.1 0 9.2 0h454c20.4 0 40.4-2.5 60.1-8C910.1 856.2 978.9 789 979 690.8c.1-123.8.1-247.5 0-371.3 0-10.8-.2-11-10.8-11.1-24.5-.1-49-.1-73.6 0-11.2 0-11.4.2-11.4 11.6-.1 39.1 0 78.2 0 117.2 0 82.4-.1 164.8.1 247.1.1 27.5-6.9 52.2-26.1 72.6-20.4 21.6-46 30.6-75.3 30.6-113.8-.1-227.6 0-341.4 0-115-.1-229.9-.1-344.8-.1zM548 319.5c0-11-.1-11.1-10.5-11.2-26-.1-52.1-.1-78.1.1-3.7 0-7.9.4-11.1 2-28.9 14.1-57.5 28.6-86.3 42.9-4.3 2.1-6.1 5-5.9 9.9.3 9.9 0 19.9.1 29.9.1 10.7.2 10.9 10.8 10.9 22.6.1 45.2-.1 67.8.1 19.8.1 17.4-2.1 17.4 16.9.1 86.1 0 172.3 0 258.4 0 12 .1 12 11.9 12.1 23.7.1 47.5 0 71.2 0 12.7 0 12.7-.1 12.7-12.4V319.5z"/></svg>