<svg xmlns="http://www.w3.org/2000/svg" viewBox="0 0 1000 1000" style="enable-background:new 0 0 1000 1000" xml:space="preserve"><path d="M468.8 400.3v-14.8c0-40.2.6-80.3-.1-120.5-.8-47.7 16.1-85.3 60.6-106.3 47-22.2 92.4-17.2 132.9 15.3 58.2 46.7 115.3 94.9 172.8 142.4 41.2 34 82.2 68.1 123.6 101.8 25.6 20.8 40.9 46.8 41.4 80.2.5 31.1-11.2 57.4-34.8 77.5-32.7 27.8-66.1 54.9-99.3 82.3-67.4 55.8-134.5 111.7-202.2 166.9-40.9 33.4-86.6 38.2-134.1 16.5-41-18.8-60.3-52.9-60.7-97.5-.4-43-.1-86-.1-129v-18c-5.9 4.2-9.4 6.3-12.5 8.8C369.6 677.5 282.8 749 196.5 821c-39.8 33.2-83.5 42.4-132.1 24C24.7 830 0 793 0 750.4V252.9c0-52.6 32.9-93.3 84.4-104 41.1-8.5 77.4 1.7 109.6 28.5 81.8 67.9 163.7 135.6 245.6 203.3 8.6 7.1 17.3 14 25.9 21 1.1-.5 2.2-1 3.3-1.4z"/></svg>