<svg xmlns="http://www.w3.org/2000/svg" viewBox="0 0 1000 1000" style="enable-background:new 0 0 1000 1000" xml:space="preserve"><path d="M999.9 499.5c0 111.1.2 222.2-.3 333.3-.1 12.5-1.8 25.8-6.2 37.3-19.2 50.3-80.2 68.3-125.1 37.3-42.3-29.2-84.1-59.2-126.1-88.9C625.4 736 508.5 653.3 391.4 570.9c-16.7-11.8-29.3-26.3-35.4-46-10.9-35.5 1.4-71.4 32.4-93.6 23.7-17 47.7-33.7 71.6-50.6 134.8-95.1 269.7-190 404.1-285.6 36-25.6 80.2-21.3 108.1 3.8 18.5 16.7 27.4 37.7 27.6 62.4.3 30 .1 60.1.1 90.1v248.1zM.5 917.5c0 8.1.6 16.6 3 24.3 11.3 35.6 42.5 56.6 75 58.7 34.8 2.2 68.3-20.5 81.5-53.2 5.2-12.9 5.7-26.4 5.7-40 0-271.5 0-543-.1-814.6 0-6.6.1-13.2-.6-19.7-4.2-38.4-36.7-72-80-73.6C37.3-2.4-.3 40.2 0 82c1 139.5.4 278.9.4 418.4 0 139-.1 278.1.1 417.1z"/></svg>