<svg xmlns="http://www.w3.org/2000/svg" viewBox="0 0 1000 1000" style="enable-background:new 0 0 1000 1000" xml:space="preserve"><path d="M999.8 499.5c0 131.6-.4 263.2.2 394.8.2 52.6-32.3 93.3-84.6 104.6-26.3 5.6-49.9-4.3-71.4-19.1-32.6-22.4-65-45.1-97.5-67.7-159.8-111.2-319.6-222.4-479.3-333.6-37.9-26.4-53.7-66.4-42.8-107.7 6.4-24.3 20.8-42.8 41.4-56.9 32.3-22 64.5-44.2 96.8-66.3C521 239.1 679.5 130.9 837.5 21.8 861.9 4.9 887.4-3 916.4.5 945.1 4 967 19.3 982.7 42.9c11.3 16.9 17.2 35.6 17.2 56.4-.2 133.4-.1 266.8-.1 400.2zM.2 952c0 4 .2 8 0 12-1.2 20 33 45.5 55.4 32.2C73.8 985.5 82 971.4 82 950.7c-.2-301.3-.1-602.5-.1-903.8 0-3.1.3-6.3-.2-9.3C76.9 6 52-7.4 22.8 3.2 7 8.9 0 22.3 0 40.1.3 193 .2 345.9.2 498.7V952z"/></svg>