<svg xmlns="http://www.w3.org/2000/svg" viewBox="0 0 1000 1000" style="enable-background:new 0 0 1000 1000" xml:space="preserve"><path d="M103.8 656.6c24.8 0 49.5-.1 74.3.1 6.1.1 10.7-1.5 15-6.2 80-86.1 160.1-172.1 240.2-258.1 60-64.4 120.2-128.7 180-193.3 7.7-8.3 16-12.1 27.3-12 33 .5 66.1.2 99.1.2 9.8 0 9.9-.1 9.9-10.1v-66.9c0-20.9 9.4-36.1 28.4-44.2 18.9-8 36.9-4.8 51.6 9.9 52 51.7 103.9 103.5 155.4 155.7 19.8 20 19.8 47.6 0 67.6-51.5 52.1-103.4 104-155.4 155.7-14.7 14.6-32.5 18.3-51.5 10.1-18.9-8.2-28.5-23.3-28.5-44.2v-65.8c0-10.8-.1-10.9-10.2-10.9-14.7-.1-29.4.2-44.2-.1-5.8-.1-10 1.7-14 6.1-62.6 67.4-125.3 134.7-188.1 202-77.3 82.8-154.8 165.8-232 249.1-8 8.6-16.7 12.2-28.4 12.1-67.5-.4-135-.2-202.5-.2h-6.5C9.3 812.7.2 803.8.1 789.4c-.2-36-.1-72 0-107.9C.1 667 8.6 658 23 656.8c5-.4 10-.2 15.1-.2 21.9-.1 43.8 0 65.7 0zm512.8 148c5.8 6.2 12.7 8.7 21.1 8.6 33-.2 66-.1 99-.1 14.4 0 12.9-1.3 13 12.5.1 22.3 0 44.6.1 66.9 0 12.5 4.7 23 13.3 32 16.4 16.9 47.1 20.2 68.4-1.4 50.5-51.1 101.2-102 152.3-152.5 20.5-20.3 19.9-51.4 0-71.1-51.4-50.7-102.1-102.1-153.2-153.1-14.9-14.9-32.7-19.4-52.3-11-19.4 8.3-28.8 23.9-28.7 45.2.1 22.7-.1 45.3.1 68 .1 6.1-1.9 8.2-7.9 8-15.4-.3-30.9-.4-46.3 0-6.3.2-10.6-2.1-14.8-6.7-26.7-29-53.7-57.8-80.7-86.7-5.1-5.4-10.2-10.8-16-17-35 37.5-69.2 74.2-104.1 111.8 46.1 49.4 91.4 98 136.7 146.6zM261.3 199.4c-7.9-8.6-16.5-12.4-28.3-12.3-66.8.4-133.6.2-200.3.2-3.6 0-7.2-.1-10.8.1-12.5.8-21.6 9.8-21.7 22.3-.2 37.1-.2 74.1 0 111.2.1 11.3 7.2 19.8 18.3 22.1 4.2.9 8.6.9 12.8.9 48.5.1 96.9.2 145.4-.1 7.4 0 12.6 2 17.7 7.6 29.7 32.3 59.7 64.2 89.6 96.3 1.9 2 4 3.8 6.7 6.2 34.7-37.2 68.9-73.9 103.7-111.3-45-48.5-89.3-95.7-133.1-143.2z"/></svg>