<svg xmlns="http://www.w3.org/2000/svg" viewBox="0 0 1000 1000" style="enable-background:new 0 0 1000 1000" xml:space="preserve"><path d="M220.3 807.2c3.2 2.8 6.3 5.7 9.6 8.3 23.2 18 46.3 36 69.6 53.7 18.5 14 28.3 32.1 24.7 55.3-3.8 24.5-20 39.3-42.7 46.3-7.5 2.3-16.9 1.7-24.6-.6-8.7-2.6-17.1-7.6-24.4-13.2-70-54-139.7-108.3-209.5-162.5C8.9 783.6 1 770 .5 751.5c-.6-20.6 7.4-35.9 23.5-47.9C96.9 649 169.6 594.2 242.6 539.7c26-19.4 59.3-14.7 78.2 10.1 18.7 24.6 13.9 58.1-11.7 78-24.2 18.8-48.9 36.9-73.4 55.4-3.4 2.6-6.6 5.4-9.9 8.1.2.9.4 1.8.7 2.8h15.2c230.2 0 460.3 0 690.5.1 8.4 0 17 .4 25.1 2.2 23.4 5.4 42.3 28.8 42.7 51.9.5 28.1-23.5 54.3-51.8 56.4-5.3.4-10.7.2-16 .2H221c-.2.8-.5 1.6-.7 2.3zm556.1-612.8H263.3c-68.9 0-137.8.5-206.6-.2-27.9-.4-57.9 23.1-56.7 57.4.9 24.1 20.9 49.4 46 52.5 7.5.9 15.1 1 22.6 1 229.7.1 459.4 0 689.2 0h15.3c-2.7 5-5.7 7.6-8.8 9.9-25.9 19.5-52.1 38.6-77.6 58.6-17.2 13.5-23.5 32.1-19.3 53.5 4.3 21.5 17.6 35.4 38.4 42 20.1 6.3 37.4.2 53.6-11.9 70.3-52.9 140.4-105.9 211.1-158.3 38.4-28.4 38.7-68.9 0-98.1-42.5-32.1-84.3-65.3-126.4-98-27.4-21.3-54.4-43-82.2-63.6-32.2-23.8-75.5-9-86.8 28.9-6.4 21.6.8 43.8 20.3 59.2 24 19 48.5 37.5 72.7 56.3 3.3 2.6 6.5 5.3 9.8 8-.6.9-1 1.8-1.5 2.8z"/></svg>