<svg xmlns="http://www.w3.org/2000/svg" viewBox="0 0 1000 1000" style="enable-background:new 0 0 1000 1000" xml:space="preserve"><path d="M843.1 124.9c5.4-28.6 9.8-54.8 15.2-80.7C863.7 18.3 885.5.5 911.2.1c27.3-.5 49.6 15.4 56 41.6 2.1 8.7 2.2 18.6.6 27.5-12.6 69.2-25.8 138.3-38.8 207.4-4.2 22.2-12.8 41.3-35 51.3-12.3 5.5-25 5.6-37.8 3.5-45.5-7.4-90.9-15-136.3-22.4-30.1-5-60.3-9.8-90.4-14.9-24.3-4.1-41.9-21.2-46.8-44.9-4.2-20.5 5.3-43.5 23.3-55.6 12.2-8.2 25.7-11.5 40.4-9 38.3 6.4 76.7 12.7 115 19 1.1-1.3 2.1-2.5 3.2-3.8-2.7-1.2-5.8-1.9-8-3.7-156-122.5-402.8-118.7-549.9 51.5-124.1 143.6-129 345.3-8.6 493.3 86.7 106.6 201.2 153.9 337.7 145.9 163.2-9.6 296.9-111.9 351.7-265.9 1.3-3.8 2.4-7.6 4.2-11.2 10.3-20.9 26.8-32.8 50.5-32.7 23.8.1 41.8 10.9 52.1 32.6 6.6 13.8 6.3 28.7 1.3 42.8-57 161-166.5 269-328.6 322.6-61.1 20.2-124.6 28.7-188.8 23.6-138.2-11-256.5-64.8-349.9-169C55.7 748.4 12.7 653.3 2.9 545.1c-11.7-129 23.3-246 102.8-348.4C183.5 96.6 285.3 32.8 410.4 10.2c155.9-28.1 297.1 7.3 421.5 106.5 3 2.5 6.2 4.6 11.2 8.2z"/></svg>