<svg xmlns="http://www.w3.org/2000/svg" viewBox="0 0 1000 1000" style="enable-background:new 0 0 1000 1000" xml:space="preserve"><path d="M374.4 749.5c3.1.2 6.1.5 9.2.5 87.2.1 174.4.1 261.6.2 62.8 0 118.7-19 166.9-59.7 93.8-79.2 115.6-216 51.5-320.8-5.1-8.4-10.2-17.6-12.2-27-4.8-23.8 8.5-46.3 30.7-54.9 21.9-8.6 46.2-.8 60 19.8 22.1 32.8 37.7 68.6 47.3 107 46.9 188.4-66.2 377.1-254.7 424.9-29.2 7.4-59 10.5-89.1 10.5H371.2c3.3 3.8 5 6.2 7.1 8.2 19.2 19.3 38.8 38.2 57.6 57.9 26.1 27.3 14.4 71.3-21.7 81.9-17.7 5.2-34.2 1.7-47.9-11.2-11.9-11.3-23.4-23-35-34.6-37.6-37.6-75.3-75.2-112.9-112.9-24.8-24.9-25-53-.2-77.9 48-48.2 96.1-96.3 144.3-144.2 21.7-21.5 51.5-22.5 71.9-2.9 20.1 19.3 20.7 50.2.7 71-17.2 17.9-35 35.2-52.6 52.6-3.1 3.1-6.8 5.5-10.3 8.2.8 1 1.5 2.2 2.2 3.4zm251.9-599.2h-12.8c-87.2 0-174.4.1-261.7-.1-35.5-.1-70.3 4.7-104.1 15.1C62.9 222.1-40.7 416.6 15.1 601.8c9.9 32.8 24.1 63.6 43.5 91.7 14.1 20.3 38.3 27.3 60.3 18 21.8-9.2 34.4-31.1 29.5-54.4-1.9-9.1-6.8-17.8-11.7-26-36-60.3-46.3-124.7-29.2-192.6C135.2 328.6 232 251.7 345.4 250.3c91.2-1.1 182.4-.3 273.7-.3 2.5 0 5 .5 9.2 1-4 4.3-6.5 7.3-9.2 10-18.3 18.4-37.2 36.4-54.9 55.4-23.1 24.7-16 63.2 13.7 78.2 19.9 10.1 42 6.3 59.4-10.8 27.1-26.7 53.8-53.7 80.7-80.6 22.6-22.6 45.6-44.9 67.8-68 19.4-20.2 20.9-48.6 1.7-68.2-51-52-102.6-103.5-154.7-154.3C613.6-6 583-3.6 564.5 15.3c-18.5 19-18.9 48.1-.7 68.4 5.6 6.2 11.8 12 17.7 17.9 15.3 15.2 30.5 30.4 45.8 45.6-.3 1.1-.6 2.1-1 3.1z"/></svg>