<svg xmlns="http://www.w3.org/2000/svg" viewBox="0 0 1000 1000" style="enable-background:new 0 0 1000 1000" xml:space="preserve"><path d="M699.3 325.3c0 45.2 1.3 90.4-.3 135.6-3.3 94.7-78 175.4-171.8 187.3-104.8 13.3-199.2-52.6-222.3-155.8-2.8-12.4-4.2-25.3-4.2-38-.4-86-1.1-172 .1-258 1.3-94.1 65-170.7 156.7-191.6 109.7-25 221.6 50.2 239.2 161.1 2.1 13.4 2.8 27 2.9 40.6.4 39.6.1 79.2.1 118.8h-.4zM653 999.8c29-.2 46.2-17.6 46.7-46.3.1-4.4 0-8.8-.3-13.2-1.6-18.2-14.1-33.7-31.6-38.1-5.7-1.4-11.9-1.5-17.9-1.6-29.2-.1-58.4 0-87.6-.1-12.3 0-12.3-.1-12.4-12.8v-79.2c0-1.6.1-3.2 0-4.8-.5-5.9 1.9-9 8.1-9 2 0 3.9-.8 5.9-1.2 112.6-22.9 195.7-85.3 248.7-187.1 25.6-49.1 37.6-101.8 37.2-157.1-.1-21.2-10.8-36.6-30.3-45-19.1-8.3-36.9-4.6-52.5 8.7-12.8 10.9-16.5 25.6-16.9 42-3.6 150.5-135.3 264.1-283.9 242.3-105.3-15.5-173.7-77.2-206.5-178.2-7.3-22.6-9.2-46.1-10-69.8-1.1-33.5-31.5-55.8-63.2-47.1-21.9 6-36.3 25.3-36.1 49.4.8 87.1 30 163.8 87.3 229.1 53.8 61.4 121.8 98.7 202 113.7 10.5 2 10.6 2.1 10.6 12.8.1 27.2.1 54.4 0 81.6 0 11.6-.1 11.7-12.2 11.7-30.4.1-60.8-.2-91.2.1-28.9.3-45.9 17.7-46.4 46.6-.1 4.4 0 8.8.4 13.2 1.6 18.1 14.4 33.7 31.9 37.8 6.1 1.5 12.7 1.5 19.1 1.5 49.2.1 98.4.1 147.6.1 51.1.1 102.3.3 153.5 0z"/></svg>