<svg xmlns="http://www.w3.org/2000/svg" viewBox="0 0 1000 1000" style="enable-background:new 0 0 1000 1000" xml:space="preserve"><path d="M560.9 212.5c-114.1 0-228.3.1-342.4 0-26.7 0-50.5 7.3-70.5 25.6-22.7 20.8-31.3 47.1-31.2 77.3.2 75.5.1 150.9.1 226.4v135.6c0 14.1-.1 14.1-14.6 14.1-23.4 0-46.7.1-70.1 0-10.8 0-11-.2-11-10.8 0-124.1-.2-248.2.1-372.3.2-93.3 62.4-156.6 124.1-179.2 23.6-8.6 48-12.4 73.1-12.4 151.7.1 303.3.1 455 0 20.5 0 17.5 2.8 17.7-17.5.2-22.2 0-44.4 0-66.6 0-3.1 0-6.1.1-9.2 1-16.1 20.9-32.5 38.9-17.7 14.5 11.9 29.1 23.8 43.5 35.8 49.4 41.2 98.8 82.4 148.2 123.7 3.2 2.7 6.6 5.4 9.2 8.6 5.9 7 7.2 15.2 3.8 23.7-3.6 8.9-10.5 14-20.1 14.9-3.8.4-7.7.1-11.5.1-114.1-.1-228.2-.1-342.4-.1zm-465 574.9c-3.4 0-6.9-.2-10.3.1-9.7.8-16.6 5.8-20.3 14.6-3.7 8.9-2.2 17.3 4.2 24.6 2.5 2.9 5.5 5.3 8.5 7.7 44.4 37.1 88.8 74.1 133.2 111.1 19.1 15.9 38.2 31.9 57.5 47.7 7.5 6.2 15.8 9.3 25.4 4.3 9.4-4.8 14.2-12.5 14.7-22.9.1-2.7.1-5.4.1-8 0-22.6-.1-45.2 0-67.8.1-17.4-2-15.5 15.1-15.5 152.4-.1 304.9 0 457.3 0 20.4 0 40.4-2.5 60.1-8 68.8-19.2 137.4-86.5 137.5-184.5.1-123.7.1-247.4 0-371.1 0-10.9-.2-11.1-10.7-11.1-24.5-.1-49-.1-73.5 0-11.3 0-11.4.2-11.4 11.5-.1 33.7 0 67.4 0 101.1 0 87.7-.1 175.4.1 263.1.1 26.2-6.1 50-23.7 70-20.6 23.3-46.9 33.2-77.6 33.1-114.1-.1-228.3 0-342.4 0H95.9z"/></svg>