<svg xmlns="http://www.w3.org/2000/svg" viewBox="0 0 500 500" style="enable-background:new 0 0 500 500" xml:space="preserve"><path d="M41.4 252.8c.7-44 1.8-85.9 5.7-127.8 2.3-24.7 6.6-49 13.7-72.7C70 21.3 99.3-.3 130.9 0c8.9.1 17.3 2.5 25.7 5.1 29.1 9 56 22.8 82.1 38 57.2 33.4 111.5 70.8 161 115 15.3 13.7 29.8 28.3 42.4 44.5 23.7 30.4 21.9 71.4-3.8 100.3-30 33.8-64.2 62.7-100.5 89.3-43.9 32.2-89.1 62.1-138 86.2-16.4 8.1-33.3 14.8-51.1 19.1-30.6 7.4-55.7-1.9-75.6-25.9-7.2-8.7-11.4-18.8-14.2-29.7-7.9-31.3-12-63.2-14.2-95.4-2-31.9-2.5-63.7-3.3-93.7z"/></svg>