<svg xmlns="http://www.w3.org/2000/svg" viewBox="0 0 500 500" style="enable-background:new 0 0 500 500" xml:space="preserve"><path d="M458.4 246.8c-.6 44.9-1.8 86.8-5.7 128.7-2.3 24.7-6.7 49-13.8 72.7-9.2 30.8-38.9 52.3-70.4 51.8-8.6-.1-16.7-2.5-24.8-5-23.7-7.3-46-17.9-67.6-29.9-62.7-35-121.7-75.3-175.5-123-14.4-12.8-27.5-26.8-40.1-41.3-28.2-32.1-22.8-78.9 3.3-106.6 32.3-34.3 67.9-64.5 106-92 41.4-29.9 84.1-57.9 130.1-80.5 16.7-8.2 33.9-15.2 52-19.4 30.2-7.1 55.1 2.1 74.8 25.8 7.4 8.9 11.8 19.4 14.6 30.5 7.9 31.3 12 63.2 14.1 95.4 1.8 31.9 2.2 63.8 3 92.8z"/></svg>