<svg xmlns="http://www.w3.org/2000/svg" viewBox="0 0 500 500" style="enable-background:new 0 0 500 500" xml:space="preserve"><path d="M247.2 41.3c44 .7 85.9 1.8 127.8 5.7 24.7 2.3 49 6.6 72.7 13.7 31 9.2 52.6 38.5 52.3 70.1-.1 8.9-2.5 17.3-5.1 25.7-9 29.1-22.8 56-38 82.1-33.4 57.2-70.8 111.5-115 161-13.7 15.3-28.3 29.8-44.5 42.4-30.4 23.7-71.4 21.9-100.3-3.8-33.8-30-62.7-64.2-89.3-100.5-32.2-43.9-62.1-89.1-86.2-138-8.1-16.4-14.8-33.3-19.1-51.1C-4.9 118 4.4 92.9 28.4 73c8.7-7.2 18.8-11.4 29.7-14.2 31.3-7.9 63.2-12 95.4-14.2 31.9-2 63.7-2.5 93.7-3.3z"/></svg>