<svg xmlns="http://www.w3.org/2000/svg" viewBox="0 0 500 500" style="enable-background:new 0 0 500 500" xml:space="preserve"><path d="M499.8 250.2c0 38.3.3 76.6-.1 114.9-.3 25.5-7 49.4-20.5 71.1-18.5 29.8-45.6 48.1-79 57.5-14 3.9-28.2 6-42.8 6.1-52.2.1-104.3.1-156.5.1-20.1 0-40.3.2-60.4-.2-27.2-.6-53-7-76.4-21.1-32.4-19.5-52-48.1-60.4-84.8C1 381.6 0 369.1 0 356.6c0-71.1.1-142.2 0-213.3 0-23.2 3.6-45.5 13.6-66.5C30.5 41.4 58.5 19 95.6 7.4 111 2.6 126.8.1 142.9.1h213.9c2.7 0 5.5 0 8.2.2 25.7 1.8 50 8.1 72.1 21.7 31.4 19.3 50.6 47.5 59 83.2 3 12.8 3.9 25.8 3.9 38.9-.1 35.4 0 70.7 0 106.1h-.2zm-462.2-.4v105.5c0 7.8.1 15.6 1.5 23.4 5.8 33.6 23.5 58.5 54.9 73 17.5 8.1 36.1 10.8 55.3 10.8 32-.1 64.1 0 96.1 0h104.3c12.3 0 24.6-.8 36.6-3.9 29.5-7.5 52.4-23.7 66-51.6 7.7-15.7 10.3-32.6 10.3-50-.1-71.3 0-142.6-.1-213.9 0-6.8-.2-13.6-1.3-20.4C455.3 86 435.6 60.1 401 46c-16.5-6.7-33.9-8.6-51.6-8.6-54.3.1-108.6 0-162.9 0-14.6 0-29.3 0-43.9.1-11.4.1-22.6 1.8-33.5 5-30 8.9-52 27-63.9 56.4-5.8 14.3-7.7 29.3-7.6 44.7v106.2zm268.6 20.5c-1.7 1.3-3.5 2.5-5 4-17.9 17.7-35.7 35.5-53.6 53.3-1.4 1.4-2.8 2.7-4.1 4.2-6 7.3-5.6 17.8.9 24.6 6.5 6.9 16.9 7.9 24.5 2.4 2-1.5 3.8-3.4 5.6-5.1 23.5-23.4 47-46.9 70.5-70.3 6.6-6.6 13.3-13.3 19.9-19.8 4.6-4.6 6.5-10.1 5.7-16.5-.6-4.9-3.4-8.6-6.8-12-30.2-30-60.3-60.1-90.5-90.1-1.4-1.4-2.8-2.8-4.3-3.9-10.7-7.7-25.8-2.4-29 10.4-1.9 7.4.4 13.7 5.9 19.1 18.6 18.4 37.1 36.9 55.6 55.4 1.5 1.5 3.4 2.6 4.3 5.2H152.1c-2 0-3.9-.1-5.9.1-8.6.7-16 7.7-17 16-1.1 9.3 4.1 17.6 12.9 20.5 2.9 1 5.8.9 8.7.9h154.6c.3.5.6 1.1.8 1.6z"/></svg>