<svg xmlns="http://www.w3.org/2000/svg" viewBox="0 0 500 500" style="enable-background:new 0 0 500 500" xml:space="preserve"><path d="M249.8 499.8c-38.3 0-76.6.3-114.9-.1-25.5-.3-49.4-7-71.1-20.5-29.8-18.5-48.1-45.6-57.5-79-3.9-14-6-28.2-6.1-42.8C.1 305.2.1 253.1.1 200.9c0-20.1-.2-40.3.2-60.4.6-27.2 7-53 21.1-76.4 19.5-32.4 48.1-52 84.8-60.4C118.4 1 130.9 0 143.4 0c71.1 0 142.2.1 213.3 0 23.2 0 45.5 3.6 66.5 13.6 35.4 16.9 57.8 44.9 69.4 82 4.8 15.4 7.3 31.2 7.3 47.3v213.9c0 2.7 0 5.5-.2 8.2-1.8 25.7-8.1 50-21.7 72.1-19.3 31.4-47.5 50.6-83.2 59-12.8 3-25.8 3.9-38.9 3.9-35.4-.1-70.7 0-106.1 0v-.2zm.4-462.2H144.7c-7.8 0-15.6.1-23.4 1.5-33.6 5.8-58.5 23.5-73 54.9-8.1 17.5-10.8 36.1-10.8 55.3.1 32 0 64.1 0 96.1v104.3c0 12.3.8 24.6 3.9 36.6 7.5 29.5 23.7 52.4 51.6 66 15.7 7.7 32.6 10.3 50 10.3 71.3-.1 142.6 0 213.9-.1 6.8 0 13.6-.2 20.4-1.3 36.7-5.9 62.6-25.6 76.7-60.2 6.7-16.5 8.6-33.9 8.6-51.6-.1-54.3 0-108.6 0-162.9 0-14.6 0-29.3-.1-43.9-.1-11.4-1.8-22.6-5-33.5-8.9-30-27-52-56.4-63.9-14.3-5.8-29.3-7.7-44.7-7.6H250.2zm-20.5 268.6c-1.3-1.7-2.5-3.5-4-5-17.7-17.9-35.5-35.7-53.3-53.6-1.4-1.4-2.7-2.8-4.2-4.1-7.3-6-17.8-5.6-24.6.9-6.9 6.5-7.9 16.9-2.4 24.5 1.5 2 3.4 3.8 5.1 5.6 23.4 23.5 46.9 47 70.3 70.5 6.6 6.6 13.3 13.3 19.8 19.9 4.6 4.6 10.1 6.5 16.5 5.7 4.9-.6 8.6-3.4 12-6.8 30-30.2 60.1-60.3 90.1-90.5 1.4-1.4 2.8-2.8 3.9-4.3 7.7-10.7 2.4-25.8-10.4-29-7.4-1.9-13.7.4-19.1 5.9-18.4 18.6-36.9 37.1-55.4 55.6-1.5 1.5-2.6 3.4-5.2 4.3V152.1c0-2 .1-3.9-.1-5.9-.7-8.6-7.7-16-16-17-9.3-1.1-17.6 4.1-20.5 12.9-1 2.9-.9 5.8-.9 8.7v154.6c-.5.3-1.1.6-1.6.8z"/></svg>